<svg xmlns="http://www.w3.org/2000/svg" width="68.179" height="69.001" viewBox="0 0 68.179 69.001">
  <g id="Grupo_1180277" data-name="Grupo 1180277" transform="translate(-1229.711 -1132)">
    <g id="Grupo_1180276" data-name="Grupo 1180276" transform="translate(1229.711 1132)">
      <rect id="Rectángulo_401104" data-name="Rectángulo 401104" width="68.179" height="69.001" transform="translate(0)" fill="none"/>
    </g>
    <g id="eficaz" transform="translate(1232.711 1135)">
      <path id="Trazado_1000167" data-name="Trazado 1000167" d="M139.083,41.079h-3.533a4.959,4.959,0,0,0,1.028-3.006,2.006,2.006,0,0,0-2-2h-1.5v-2.5a17.033,17.033,0,1,0-8.016,0v2.5H124a5.059,5.059,0,0,0-2.24.528l-6.322,3.162a3.014,3.014,0,0,1-1.344.318h-5.066v-2H96v2h7.014v7.014h2V40.078h2V56.109h-2V49.095h-2v7.014H96v2h13.025v-2h5.066a3.027,3.027,0,0,1,1.344.317l4.319,2.16a5.04,5.04,0,0,0,2.239.529h3.062V62.12h8.016V59.114h6.012a2.993,2.993,0,0,0,2.225-5.01,2.96,2.96,0,0,0,0-4.008,2.96,2.96,0,0,0,0-4.008,2.993,2.993,0,0,0-2.225-5.01Zm1,3.006a1,1,0,0,1-1,1H132.07a1,1,0,0,1,0-2h7.014A1,1,0,0,1,140.085,44.085Zm0,4.008a1,1,0,0,1-1,1H132.07a1,1,0,1,1,0-2h7.014A1,1,0,0,1,140.085,48.093Zm0,4.008a1,1,0,0,1-1,1H132.07a1,1,0,1,1,0-2h7.014A1,1,0,0,1,140.085,52.1Zm-26.05-35.068a15.029,15.029,0,1,1,15.029,15.029A15.046,15.046,0,0,1,114.035,17.033Zm13.025,16.9a15.728,15.728,0,0,0,4.008,0V36.07H127.06ZM121.994,57.11a3.027,3.027,0,0,1-1.344-.317l-4.319-2.16a5.04,5.04,0,0,0-2.239-.529h-5.066V42.081h5.066a5.059,5.059,0,0,0,2.24-.528l6.322-3.162A3.015,3.015,0,0,1,124,38.074h10.577a3.01,3.01,0,0,1-3.006,3.006h-6.047l-2.989,4.485a7.934,7.934,0,0,1-6.6,3.531h-1.9v2h1.9a9.936,9.936,0,0,0,8.266-4.424l.856-1.284V57.11Zm5.066,3.006V43.083h2.188a2.913,2.913,0,0,0,.6,3.006,2.96,2.96,0,0,0,0,4.008,2.96,2.96,0,0,0,0,4.008,2.978,2.978,0,0,0,1.223,4.825v1.186Zm12.023-3.006H132.07a1,1,0,0,1,0-2h7.014a1,1,0,1,1,0,2Zm0,0" transform="translate(-83.977 0)"/>
      <path id="Trazado_1000168" data-name="Trazado 1000168" d="M388.093,73.008l-.972,1.751a7.023,7.023,0,0,1,3.617,6.138h2A9.025,9.025,0,0,0,388.093,73.008Zm0,0" transform="translate(-338.637 -63.864)"/>
      <path id="Trazado_1000169" data-name="Trazado 1000169" d="M360,66a7.03,7.03,0,0,1,1.754.222l.5-1.942A9.107,9.107,0,0,0,360,64Zm0,0" transform="translate(-314.913 -55.985)"/>
      <path id="Trazado_1000170" data-name="Trazado 1000170" d="M301.278,34a11.015,11.015,0,0,1,8.412,18.133l1.529,1.3a13.018,13.018,0,0,0-18.348-18.347l1.294,1.528A11.024,11.024,0,0,1,301.278,34Zm0,0" transform="translate(-256.191 -27.992)"/>
      <path id="Trazado_1000171" data-name="Trazado 1000171" d="M277.433,87.218l-1.294-1.528a11.015,11.015,0,0,1-15.525-15.524l-1.529-1.3a13.018,13.018,0,0,0,18.348,18.347Zm0,0" transform="translate(-223.938 -60.245)"/>
      <path id="Trazado_1000172" data-name="Trazado 1000172" d="M43.173,48.738A7.9,7.9,0,0,0,44.95,48l1.224.612,2.439-2.44L48,44.95a7.972,7.972,0,0,0,.737-1.776l1.3-.431V39.294l-1.3-.432A7.834,7.834,0,0,0,48,37.085l.612-1.225-2.439-2.439-1.224.612a7.9,7.9,0,0,0-1.776-.736L42.742,32H39.293l-.431,1.3a7.9,7.9,0,0,0-1.776.736l-1.225-.612-2.439,2.439.612,1.225a7.953,7.953,0,0,0-.737,1.776l-1.3.431v3.448l1.3.432a7.862,7.862,0,0,0,.737,1.776l-.612,1.224,2.439,2.44L37.084,48a7.9,7.9,0,0,0,1.776.736l.432,1.3h3.449Zm-1.541-1.713L41.3,48.031h-.559L40.4,47.024l-.57-.114a5.934,5.934,0,0,1-2.143-.888L37.2,45.7l-.949.476-.4-.4.475-.95-.323-.483a5.927,5.927,0,0,1-.888-2.143l-.114-.57L34,41.3v-.56L35.01,40.4l.114-.57a5.937,5.937,0,0,1,.888-2.143l.323-.483-.475-.951.4-.4.949.476.484-.323a5.944,5.944,0,0,1,2.143-.888l.57-.114L40.738,34H41.3l.336,1.007.57.114a5.934,5.934,0,0,1,2.143.888l.484.323.949-.476.4.4-.475.951.323.483a5.913,5.913,0,0,1,.888,2.143l.114.57,1.006.336v.56l-1.006.335-.114.57a5.951,5.951,0,0,1-.888,2.143l-.323.483.475.95-.4.4L44.83,45.7l-.484.323a5.944,5.944,0,0,1-2.143.888Zm0,0" transform="translate(-27.992 -27.992)"/>
      <path id="Trazado_1000173" data-name="Trazado 1000173" d="M76.008,72a4.008,4.008,0,1,0,4.008,4.008A4.012,4.012,0,0,0,76.008,72Zm0,6.012a2,2,0,1,1,2-2A2.006,2.006,0,0,1,76.008,78.012Zm0,0" transform="translate(-62.983 -62.983)"/>
      <path id="Trazado_1000174" data-name="Trazado 1000174" d="M20.039,31.06V26.05H26.05V0H0V26.05H13.359ZM2,2H24.046V24.046H18.035v3.006l-4.008-3.006H2ZM2,2"/>
      <path id="Trazado_1000175" data-name="Trazado 1000175" d="M0,272H2v2H0Zm0,0" transform="translate(0 -237.934)"/>
      <path id="Trazado_1000176" data-name="Trazado 1000176" d="M32,272h2v2H32Zm0,0" transform="translate(-27.992 -237.934)"/>
      <path id="Trazado_1000177" data-name="Trazado 1000177" d="M64,272h2v2H64Zm0,0" transform="translate(-55.985 -237.934)"/>
      <path id="Trazado_1000178" data-name="Trazado 1000178" d="M32,304h2v2H32Zm0,0" transform="translate(-27.992 -265.926)"/>
      <path id="Trazado_1000179" data-name="Trazado 1000179" d="M64,304h2v2H64Zm0,0" transform="translate(-55.985 -265.926)"/>
      <path id="Trazado_1000180" data-name="Trazado 1000180" d="M0,480H2v2H0Zm0,0" transform="translate(0 -419.884)"/>
      <path id="Trazado_1000181" data-name="Trazado 1000181" d="M32,480h2v2H32Zm0,0" transform="translate(-27.992 -419.884)"/>
      <path id="Trazado_1000182" data-name="Trazado 1000182" d="M64,480h2v2H64Zm0,0" transform="translate(-55.985 -419.884)"/>
      <path id="Trazado_1000183" data-name="Trazado 1000183" d="M32,448h2v2H32Zm0,0" transform="translate(-27.992 -391.892)"/>
      <path id="Trazado_1000184" data-name="Trazado 1000184" d="M64,448h2v2H64Zm0,0" transform="translate(-55.985 -391.892)"/>
    </g>
  </g>
</svg>
