<svg xmlns="http://www.w3.org/2000/svg" xmlns:xlink="http://www.w3.org/1999/xlink" width="68.179" height="69.001" viewBox="0 0 68.179 69.001">
  <defs>
    <clipPath id="clip-path">
      <rect id="Rectángulo_456784" data-name="Rectángulo 456784" width="60.775" height="60.771" fill="none"/>
    </clipPath>
  </defs>
  <g id="Grupo_1180278" data-name="Grupo 1180278" transform="translate(-919.711 -1132)">
    <g id="Grupo_1180273" data-name="Grupo 1180273" transform="translate(919.711 1132)">
      <rect id="Rectángulo_401104" data-name="Rectángulo 401104" width="68.179" height="69.001" transform="translate(0)" fill="none"/>
    </g>
    <g id="Grupo_1180274" data-name="Grupo 1180274" transform="translate(923.711 1136)">
      <g id="Grupo_1180266" data-name="Grupo 1180266" clip-path="url(#clip-path)">
        <path id="Trazado_1000190" data-name="Trazado 1000190" d="M138.839,47.481a23.768,23.768,0,0,1-23.3-19.181,1.187,1.187,0,1,1,2.33-.453,21.39,21.39,0,0,0,20.971,17.26,21.641,21.641,0,0,0,2.294-.124,1.187,1.187,0,1,1,.254,2.36,24.011,24.011,0,0,1-2.548.137m20.176-12.469a1.187,1.187,0,0,1-1.06-1.719A21.372,21.372,0,0,0,138.838,2.374h-.013a21.307,21.307,0,0,0-17.718,9.444,1.187,1.187,0,0,1-1.971-1.324A23.678,23.678,0,0,1,138.824,0h.015a23.746,23.746,0,0,1,21.238,34.355,1.187,1.187,0,0,1-1.062.656" transform="translate(-101.803 0)"/>
        <path id="Trazado_1000191" data-name="Trazado 1000191" d="M179.491,81.865A18.431,18.431,0,0,1,161.7,68.1a1.187,1.187,0,1,1,2.3-.6,16,16,0,0,0,18.963,11.612,1.187,1.187,0,0,1,.509,2.319,18.528,18.528,0,0,1-3.975.433M194.268,73.5a1.187,1.187,0,0,1-1.016-1.8,15.944,15.944,0,0,0,2.277-8.236,16.267,16.267,0,0,0-.11-1.878,1.187,1.187,0,1,1,2.358-.276,18.635,18.635,0,0,1,.126,2.151,18.318,18.318,0,0,1-2.616,9.461,1.187,1.187,0,0,1-1.019.576m-2.059-20.461a1.184,1.184,0,0,1-.876-.386q-.091-.1-.183-.2a16.042,16.042,0,0,0-22.653-.638,1.187,1.187,0,0,1-1.631-1.725,18.419,18.419,0,0,1,26.009.733q.106.112.21.226a1.187,1.187,0,0,1-.876,1.988" transform="translate(-142.469 -39.722)"/>
        <path id="Trazado_1000192" data-name="Trazado 1000192" d="M5.2,329.14a5.157,5.157,0,0,1-3.656-8.808l.023-.023,16.242-15.466a1.187,1.187,0,0,1,1.637,1.719L3.222,322.016a2.793,2.793,0,0,0,3.949,3.949l15.645-16.43a1.187,1.187,0,1,1,1.719,1.637L8.879,327.615l-.023.023a5.163,5.163,0,0,1-3.651,1.5" transform="translate(-0.043 -268.369)"/>
        <path id="Trazado_1000193" data-name="Trazado 1000193" d="M116.573,351.351a1.183,1.183,0,0,1-.839-.348l-4.3-4.3a1.187,1.187,0,0,1,1.679-1.679l4.3,4.3a1.187,1.187,0,0,1-.839,2.026" transform="translate(-97.898 -303.761)"/>
        <path id="Trazado_1000194" data-name="Trazado 1000194" d="M330.121,271.009h-4.748a1.187,1.187,0,0,1-1.18-1.056l-.234-2.1a9.41,9.41,0,0,1-1.86-1.076l-1.94.85a1.187,1.187,0,0,1-1.5-.494l-2.374-4.112a1.187,1.187,0,0,1,.325-1.55l1.707-1.256a9.478,9.478,0,0,1,0-2.148l-1.706-1.255a1.187,1.187,0,0,1-.325-1.55l2.374-4.112a1.187,1.187,0,0,1,1.5-.494l1.94.851a9.408,9.408,0,0,1,1.86-1.075l.234-2.1a1.187,1.187,0,0,1,1.18-1.056h4.748a1.187,1.187,0,0,1,1.18,1.056l.234,2.1a9.4,9.4,0,0,1,1.86,1.076l1.94-.851a1.187,1.187,0,0,1,1.5.494l2.374,4.112a1.187,1.187,0,0,1-.325,1.55l-1.706,1.255a9.483,9.483,0,0,1,0,2.149l1.706,1.256a1.187,1.187,0,0,1,.324,1.55l-2.374,4.112a1.186,1.186,0,0,1-1.5.494l-1.94-.85a9.4,9.4,0,0,1-1.86,1.076l-.234,2.1a1.187,1.187,0,0,1-1.18,1.056m-3.686-2.374h2.623l.2-1.763a1.187,1.187,0,0,1,.8-.992,7.082,7.082,0,0,0,2.38-1.377,1.187,1.187,0,0,1,1.258-.194l1.626.713,1.312-2.272L335.2,261.7a1.187,1.187,0,0,1-.462-1.183,7.148,7.148,0,0,0,0-2.754,1.187,1.187,0,0,1,.462-1.184l1.429-1.052-1.312-2.271-1.626.713a1.188,1.188,0,0,1-1.258-.194,7.081,7.081,0,0,0-2.38-1.377,1.187,1.187,0,0,1-.8-.992l-.2-1.762h-2.623l-.2,1.763a1.187,1.187,0,0,1-.8.992,7.075,7.075,0,0,0-2.38,1.377,1.187,1.187,0,0,1-1.258.194l-1.626-.713-1.312,2.271,1.429,1.052a1.187,1.187,0,0,1,.462,1.184,7.147,7.147,0,0,0,0,2.754,1.187,1.187,0,0,1-.462,1.184l-1.429,1.052,1.312,2.271,1.626-.713a1.188,1.188,0,0,1,1.258.194,7.072,7.072,0,0,0,2.38,1.376,1.187,1.187,0,0,1,.8.992Z" transform="translate(-278.597 -217.918)"/>
        <path id="Trazado_1000195" data-name="Trazado 1000195" d="M383.215,320.574a4.155,4.155,0,1,1,4.155-4.155,4.159,4.159,0,0,1-4.155,4.155m0-5.935A1.781,1.781,0,1,0,385,316.42a1.783,1.783,0,0,0-1.781-1.781" transform="translate(-334.065 -275.199)"/>
        <path id="Trazado_1000196" data-name="Trazado 1000196" d="M29.675,108.147a1.184,1.184,0,0,1-.839-.348l-3.807-3.807H3.561A3.578,3.578,0,0,1,0,100.435V88.561A3.577,3.577,0,0,1,3.557,85H36.8a3.577,3.577,0,0,1,3.561,3.557v11.874a3.578,3.578,0,0,1-3.557,3.561h-2.48L30.515,107.8a1.184,1.184,0,0,1-.839.348M3.564,87.374a1.2,1.2,0,0,0-1.19,1.191v11.867a1.2,1.2,0,0,0,1.191,1.187H25.521a1.187,1.187,0,0,1,.839.348l3.315,3.315,3.315-3.315a1.187,1.187,0,0,1,.839-.348H36.8a1.2,1.2,0,0,0,1.187-1.191V88.561a1.2,1.2,0,0,0-1.191-1.187Z" transform="translate(0 -74.91)"/>
        <path id="Trazado_1000197" data-name="Trazado 1000197" d="M41.188,145.935A1.187,1.187,0,0,1,40,144.748v-3.561a1.187,1.187,0,1,1,2.374,0v3.561a1.187,1.187,0,0,1-1.187,1.187" transform="translate(-35.253 -123.382)"/>
        <path id="Trazado_1000198" data-name="Trazado 1000198" d="M81.188,138.309A1.187,1.187,0,0,1,80,137.122v-5.935a1.187,1.187,0,0,1,2.374,0v5.935a1.187,1.187,0,0,1-1.187,1.187" transform="translate(-70.505 -114.569)"/>
        <path id="Trazado_1000199" data-name="Trazado 1000199" d="M121.188,151.911A1.187,1.187,0,0,1,120,150.724v-1.7a1.187,1.187,0,1,1,2.374,0v1.7a1.187,1.187,0,0,1-1.187,1.187" transform="translate(-105.757 -130.288)"/>
        <path id="Trazado_1000200" data-name="Trazado 1000200" d="M161.188,134.5A1.187,1.187,0,0,1,160,133.309v-7.122a1.187,1.187,0,1,1,2.374,0v7.122a1.187,1.187,0,0,1-1.187,1.187" transform="translate(-141.009 -110.162)"/>
        <path id="Trazado_1000201" data-name="Trazado 1000201" d="M201.187,151.911A1.187,1.187,0,0,1,200,150.724v-1.7a1.187,1.187,0,1,1,2.374,0v1.7a1.187,1.187,0,0,1-1.187,1.187" transform="translate(-176.26 -130.288)"/>
        <path id="Trazado_1000202" data-name="Trazado 1000202" d="M241.187,138.309A1.187,1.187,0,0,1,240,137.122v-5.935a1.187,1.187,0,0,1,2.374,0v5.935a1.187,1.187,0,0,1-1.187,1.187" transform="translate(-211.512 -114.569)"/>
        <path id="Trazado_1000203" data-name="Trazado 1000203" d="M281.187,145.935A1.187,1.187,0,0,1,280,144.748v-3.561a1.187,1.187,0,1,1,2.374,0v3.561a1.187,1.187,0,0,1-1.187,1.187" transform="translate(-246.764 -123.382)"/>
        <path id="Trazado_1000204" data-name="Trazado 1000204" d="M435.085,132.06a1.187,1.187,0,1,1,0-2.374h0a1.187,1.187,0,0,1,0,2.374" transform="translate(-382.393 -114.292)"/>
      </g>
    </g>
  </g>
</svg>
