<svg xmlns="http://www.w3.org/2000/svg" width="68.179" height="69.001" viewBox="0 0 68.179 69.001">
  <g id="Grupo_1180279" data-name="Grupo 1180279" transform="translate(-607.711 -1131)">
    <g id="Grupo_1180271" data-name="Grupo 1180271" transform="translate(607.711 1131)">
      <rect id="Rectángulo_401104" data-name="Rectángulo 401104" width="68.179" height="69.001" transform="translate(0)" fill="none"/>
    </g>
    <g id="desarrollo-de-habilidades" transform="translate(608.725 1132.575)">
      <g id="Grupo_1180248" data-name="Grupo 1180248">
        <path id="Trazado_1000156" data-name="Trazado 1000156" d="M33,55.7a1.135,1.135,0,0,1-.8-.3l-7.1-8a.992.992,0,0,1,1.5-1.3l6.3,7.1,5.9-7.1a.992.992,0,1,1,1.5,1.3l-6.6,8a.779.779,0,0,1-.7.3Z"/>
      </g>
      <g id="Grupo_1180249" data-name="Grupo 1180249">
        <path id="Trazado_1000157" data-name="Trazado 1000157" d="M32.8,41.8a7.9,7.9,0,1,1,7.9-7.9A7.917,7.917,0,0,1,32.8,41.8Zm0-13.7A5.911,5.911,0,0,0,26.9,34a5.9,5.9,0,1,0,11.8,0,5.911,5.911,0,0,0-5.9-5.9Z"/>
      </g>
      <g id="Grupo_1180250" data-name="Grupo 1180250">
        <path id="Trazado_1000158" data-name="Trazado 1000158" d="M39.2,64.7H26.4a5.909,5.909,0,0,1-5.5-3.6,17.794,17.794,0,0,1-1.4-6.6c0-4.5,2.3-9.9,13.3-9.9S46.1,50,46.1,54.5a16.955,16.955,0,0,1-1.2,6.1A6.1,6.1,0,0,1,39.2,64.7Zm-6.4-18c-7.6,0-11.3,2.6-11.3,7.9a15.848,15.848,0,0,0,1.2,5.8,3.9,3.9,0,0,0,3.7,2.3H39.2A4.1,4.1,0,0,0,43,60a16.232,16.232,0,0,0,1.1-5.4c0-5.3-3.7-7.9-11.3-7.9Z"/>
      </g>
      <g id="Grupo_1180254" data-name="Grupo 1180254">
        <g id="Grupo_1180252" data-name="Grupo 1180252">
          <g id="Grupo_1180251" data-name="Grupo 1180251">
            <path id="Trazado_1000159" data-name="Trazado 1000159" d="M11.9,50.4a14.919,14.919,0,0,1-2.1-.2A1.084,1.084,0,0,1,9,49.1c0-.6-.1-1.1-.4-1.2a1.068,1.068,0,0,0-1.1.6.948.948,0,0,1-1.3.2,11.168,11.168,0,0,1-3.3-3.2.948.948,0,0,1,.2-1.3c.4-.4.7-.9.5-1.2-.1-.3-.6-.4-1.2-.4a.991.991,0,0,1-1.1-.8,10.182,10.182,0,0,1-.1-4.6,1.084,1.084,0,0,1,1.1-.8c.6.1,1.1-.1,1.2-.4a1.068,1.068,0,0,0-.6-1.1.948.948,0,0,1-.2-1.3,11.168,11.168,0,0,1,3.2-3.3.948.948,0,0,1,1.3.2,1.068,1.068,0,0,0,1.1.6c.3-.1.5-.6.4-1.2a.991.991,0,0,1,.8-1.1,10.182,10.182,0,0,1,4.6-.1,1.084,1.084,0,0,1,.8,1.1c0,.6.1,1.1.4,1.2a1.068,1.068,0,0,0,1.1-.6.948.948,0,0,1,1.3-.2A10.825,10.825,0,0,1,21,33.3a.948.948,0,0,1-.2,1.3c-.4.4-.7.9-.5,1.2.1.3.6.5,1.2.4a.991.991,0,0,1,1.1.8,10.182,10.182,0,0,1,.1,4.6,1.084,1.084,0,0,1-1.1.8c-.6,0-1.1.1-1.2.4a1.068,1.068,0,0,0,.6,1.1.948.948,0,0,1,.2,1.3A11.168,11.168,0,0,1,18,48.5a.948.948,0,0,1-1.3-.2c-.4-.4-.9-.7-1.2-.5-.3.1-.5.6-.4,1.2a.991.991,0,0,1-.8,1.1,8.751,8.751,0,0,1-2.4.3ZM11,48.3a8.1,8.1,0,0,0,2.2,0A2.553,2.553,0,0,1,14.8,46a2.876,2.876,0,0,1,2.8.4,7.518,7.518,0,0,0,1.5-1.6,2.688,2.688,0,0,1-.5-2.8,2.965,2.965,0,0,1,2.3-1.7,8.1,8.1,0,0,0,0-2.2,2.553,2.553,0,0,1-2.3-1.6,2.876,2.876,0,0,1,.4-2.8,7.518,7.518,0,0,0-1.6-1.5,2.688,2.688,0,0,1-2.8.5,2.965,2.965,0,0,1-1.7-2.3,8.1,8.1,0,0,0-2.2,0,2.553,2.553,0,0,1-1.6,2.3,2.876,2.876,0,0,1-2.8-.4,7.518,7.518,0,0,0-1.5,1.6,2.688,2.688,0,0,1,.5,2.8A3.075,3.075,0,0,1,3,38.5a16.2,16.2,0,0,0,.1,2.2,2.553,2.553,0,0,1,2.3,1.6A2.692,2.692,0,0,1,5,45a7.518,7.518,0,0,0,1.6,1.5A2.688,2.688,0,0,1,9.4,46,3.09,3.09,0,0,1,11,48.3Z"/>
          </g>
        </g>
        <g id="Grupo_1180253" data-name="Grupo 1180253">
          <path id="Trazado_1000160" data-name="Trazado 1000160" d="M11.9,44.5a5,5,0,1,1,0-10,5.081,5.081,0,0,1,5,5A4.951,4.951,0,0,1,11.9,44.5Zm0-8.1a3,3,0,1,0,0,6,3.076,3.076,0,0,0,3-3A2.945,2.945,0,0,0,11.9,36.4Z"/>
        </g>
      </g>
      <g id="Grupo_1180258" data-name="Grupo 1180258">
        <g id="Grupo_1180256" data-name="Grupo 1180256">
          <g id="Grupo_1180255" data-name="Grupo 1180255">
            <path id="Trazado_1000161" data-name="Trazado 1000161" d="M54.1,50.4a14.919,14.919,0,0,1-2.1-.2,1.084,1.084,0,0,1-.8-1.1c0-.6-.1-1.1-.4-1.2a1.068,1.068,0,0,0-1.1.6.948.948,0,0,1-1.3.2,11.168,11.168,0,0,1-3.3-3.2.948.948,0,0,1,.2-1.3c.4-.4.7-.9.5-1.2-.1-.3-.6-.5-1.2-.4a.991.991,0,0,1-1.1-.8,10.182,10.182,0,0,1-.1-4.6,1.084,1.084,0,0,1,1.1-.8c.6.1,1.1-.1,1.2-.4a1.068,1.068,0,0,0-.6-1.1.948.948,0,0,1-.2-1.3,11.168,11.168,0,0,1,3.2-3.3.948.948,0,0,1,1.3.2c.4.4.9.7,1.2.5.3-.1.5-.6.4-1.2a.991.991,0,0,1,.8-1.1,10.182,10.182,0,0,1,4.6-.1,1.084,1.084,0,0,1,.8,1.1c0,.6.1,1.1.4,1.2a1.068,1.068,0,0,0,1.1-.6.948.948,0,0,1,1.3-.2,11.168,11.168,0,0,1,3.3,3.2.948.948,0,0,1-.2,1.3c-.4.4-.7.9-.5,1.2.1.3.6.5,1.2.4a.991.991,0,0,1,1.1.8,10.182,10.182,0,0,1,.1,4.6,1.084,1.084,0,0,1-1.1.8c-.6,0-1.1.1-1.2.4a1.068,1.068,0,0,0,.6,1.1.948.948,0,0,1,.2,1.3,11.168,11.168,0,0,1-3.2,3.3.948.948,0,0,1-1.3-.2c-.4-.4-.9-.7-1.2-.5-.3.1-.5.6-.4,1.2a.991.991,0,0,1-.8,1.1,11.342,11.342,0,0,1-2.5.3Zm-1-2.1a8.1,8.1,0,0,0,2.2,0A2.553,2.553,0,0,1,56.9,46a2.876,2.876,0,0,1,2.8.4,7.518,7.518,0,0,0,1.5-1.6,2.688,2.688,0,0,1-.5-2.8A2.965,2.965,0,0,1,63,40.3a8.1,8.1,0,0,0,0-2.2,2.553,2.553,0,0,1-2.3-1.6,2.876,2.876,0,0,1,.4-2.8,7.518,7.518,0,0,0-1.6-1.5,2.688,2.688,0,0,1-2.8.5A2.965,2.965,0,0,1,55,30.4a8.1,8.1,0,0,0-2.2,0,2.553,2.553,0,0,1-1.6,2.3,2.876,2.876,0,0,1-2.8-.4,7.518,7.518,0,0,0-1.5,1.6,2.688,2.688,0,0,1,.5,2.8,2.965,2.965,0,0,1-2.3,1.7,8.1,8.1,0,0,0,0,2.2,2.553,2.553,0,0,1,2.3,1.6A2.876,2.876,0,0,1,47,45a7.518,7.518,0,0,0,1.6,1.5,2.688,2.688,0,0,1,2.8-.5A2.606,2.606,0,0,1,53.1,48.3Z"/>
          </g>
        </g>
        <g id="Grupo_1180257" data-name="Grupo 1180257">
          <path id="Trazado_1000162" data-name="Trazado 1000162" d="M54.1,44.5a5,5,0,0,1,0-10,5.081,5.081,0,0,1,5,5A5.015,5.015,0,0,1,54.1,44.5Zm0-8.1a3,3,0,0,0,0,6,3.076,3.076,0,0,0,3-3A3.009,3.009,0,0,0,54.1,36.4Z"/>
        </g>
      </g>
      <g id="Grupo_1180260" data-name="Grupo 1180260">
        <g id="Grupo_1180259" data-name="Grupo 1180259">
          <path id="Trazado_1000163" data-name="Trazado 1000163" d="M15.3,26.5H8.5a.945.945,0,0,1-1-1V19.2h-3a1.05,1.05,0,0,1-.9-.5.769.769,0,0,1,.1-1L11.1,6.8a1.151,1.151,0,0,1,1.7,0l7.4,10.9a1.183,1.183,0,0,1,.1,1,1.05,1.05,0,0,1-.9.5h-3v6.3a1.175,1.175,0,0,1-1.1,1Zm-5.8-2h4.8V18.2a.945.945,0,0,1,1-1h2.1L11.9,9.1,6.4,17.2H8.5a.945.945,0,0,1,1,1Z"/>
        </g>
      </g>
      <g id="Grupo_1180262" data-name="Grupo 1180262">
        <g id="Grupo_1180261" data-name="Grupo 1180261">
          <path id="Trazado_1000164" data-name="Trazado 1000164" d="M57.5,26.5H50.7a.945.945,0,0,1-1-1V19.2h-3a1.05,1.05,0,0,1-.9-.5.769.769,0,0,1,.1-1L53.3,6.8a1.151,1.151,0,0,1,1.7,0l7.4,10.9a1.183,1.183,0,0,1,.1,1,1.05,1.05,0,0,1-.9.5h-3v6.3A1.272,1.272,0,0,1,57.5,26.5Zm-5.8-2h4.8V18.2a.945.945,0,0,1,1-1h2.1L54.1,9.1l-5.5,8.1h2.1a.945.945,0,0,1,1,1Z"/>
        </g>
      </g>
      <g id="Grupo_1180264" data-name="Grupo 1180264">
        <g id="Grupo_1180263" data-name="Grupo 1180263">
          <path id="Trazado_1000165" data-name="Trazado 1000165" d="M36.4,21.5H29.6a.945.945,0,0,1-1-1V14.2h-3a1.05,1.05,0,0,1-.9-.5.769.769,0,0,1,.1-1L32.2,1.8a1.151,1.151,0,0,1,1.7,0l7.4,10.9a1.183,1.183,0,0,1,.1,1,1.05,1.05,0,0,1-.9.5h-3v6.3a1.272,1.272,0,0,1-1.1,1Zm-5.8-2h4.8V13.2a.945.945,0,0,1,1-1h2.1L33,4.1l-5.5,8.1h2.1a.945.945,0,0,1,1,1Z"/>
        </g>
      </g>
      <g id="Grupo_1180265" data-name="Grupo 1180265">
        <path id="Trazado_1000166" data-name="Trazado 1000166" d="M40.9,57.7H36.7a1,1,0,0,1,0-2h4.2a1,1,0,0,1,0,2Z"/>
      </g>
    </g>
  </g>
</svg>
