<svg xmlns="http://www.w3.org/2000/svg" width="68.179" height="69.001" viewBox="0 0 68.179 69.001">
  <g id="Grupo_1180280" data-name="Grupo 1180280" transform="translate(-295.711 -1132)">
    <g id="Grupo_1180268" data-name="Grupo 1180268" transform="translate(295.711 1132)">
      <rect id="Rectángulo_401104" data-name="Rectángulo 401104" width="68.179" height="69.001" transform="translate(0)" fill="none"/>
    </g>
    <g id="reclutamiento" transform="translate(298.706 1135)">
      <path id="Trazado_1000185" data-name="Trazado 1000185" d="M21.458,28A12.458,12.458,0,1,0,33.916,40.458,12.458,12.458,0,0,0,21.458,28Zm0,22.84A10.382,10.382,0,1,1,31.84,40.458,10.382,10.382,0,0,1,21.458,50.84Z" transform="translate(0.343 1.069)"/>
      <path id="Trazado_1000186" data-name="Trazado 1000186" d="M58.137,4.153H52.658A2.069,2.069,0,0,0,50.87,3.115H48.794V2.076A2.076,2.076,0,0,0,46.717,0H40.488a2.076,2.076,0,0,0-2.076,2.076V3.115H36.336a2.069,2.069,0,0,0-1.788,1.038H29.068a4.153,4.153,0,0,0-4.153,4.153V25.219a16.576,16.576,0,0,0-17.242,25L.926,56.968a3.11,3.11,0,1,0,4.4,4.4l6.558-6.561a16.468,16.468,0,0,0,16.1,2.125,4.01,4.01,0,0,0,1.09.166H58.137a4.153,4.153,0,0,0,4.153-4.153V8.305A4.153,4.153,0,0,0,58.137,4.153ZM39.617,38.475a4.129,4.129,0,0,0,7.97,0,6.229,6.229,0,0,1,5.359,6.166v1.038H37.865a15.726,15.726,0,0,0,.311-6.825,6.067,6.067,0,0,1,1.441-.379ZM37.391,28.125a1.055,1.055,0,0,0-.005-.162,1.038,1.038,0,0,1,.848-.955,1.521,1.521,0,0,0,1.24-1.311c.038-.278.444-2.6,3.589-2.836a4.444,4.444,0,0,0,2.975,1.751,1.93,1.93,0,0,1,1.773,1.366,1.588,1.588,0,0,0,1.16,1.03,1.038,1.038,0,0,1,.01,2.043,1.548,1.548,0,0,0-1.246,1.411,4.153,4.153,0,0,1-8.276,0,1.546,1.546,0,0,0-1.239-1.409A1.045,1.045,0,0,1,37.391,28.125ZM36.336,22.84V21.8a6.235,6.235,0,0,1,6.229-6.229H49.19l-1.038,2.076H46.717a1.038,1.038,0,0,0,0,2.076h2.076A2.076,2.076,0,0,1,50.87,21.8V22.84a15.876,15.876,0,0,1-.208,2.71,3.115,3.115,0,0,0-1-.509,3.93,3.93,0,0,0-3.189-2.458,2.442,2.442,0,0,1-1.984-1.314,1.038,1.038,0,0,0-.886-.5c-4.095,0-5.732,2.549-6.125,4.295a3.1,3.1,0,0,0-.942.487,15.793,15.793,0,0,1-.2-2.705Zm5.191,13.123a5.971,5.971,0,0,0,4.153,0v1.411a2.076,2.076,0,0,1-4.153,0ZM37.189,47.756H52.946a2.076,2.076,0,0,0,2.076-2.076V44.641a8.314,8.314,0,0,0-7.267-8.234V34.723a6.212,6.212,0,0,0,2.014-3.737A3.115,3.115,0,0,0,51.878,28.4c.407-.642,1.068-2.205,1.068-5.56V21.8a4.161,4.161,0,0,0-2.619-3.86l.849-1.7a1.9,1.9,0,0,0-1.7-2.747H42.565A8.315,8.315,0,0,0,34.259,21.8V22.84c0,3.355.66,4.919,1.068,5.565a3.108,3.108,0,0,0,2.109,2.584,6.206,6.206,0,0,0,2.014,3.737V36.4a8.1,8.1,0,0,0-1.729.415A16.669,16.669,0,0,0,31.145,27.8V10.382h3.4a2.069,2.069,0,0,0,1.788,1.038H50.87a2.069,2.069,0,0,0,1.788-1.038h3.4V50.87H35.524A16.567,16.567,0,0,0,37.189,47.756ZM38.412,5.191a2.076,2.076,0,0,0,2.076-2.076V2.076h6.229V3.115a2.076,2.076,0,0,0,2.076,2.076H50.87V9.344H36.336V5.191ZM26.992,8.305a2.076,2.076,0,0,1,2.076-2.076h5.191V8.305H31.145a2.076,2.076,0,0,0-2.076,2.076V26.613a16.456,16.456,0,0,0-2.076-.855ZM3.847,59.9a1.038,1.038,0,0,1-1.465,0,1.013,1.013,0,0,1,0-1.453l6.5-6.5a16.867,16.867,0,0,0,1.4,1.516Zm3.42-18.376A14.534,14.534,0,1,1,21.8,56.061,14.534,14.534,0,0,1,7.267,41.527Zm52.946,11.42a2.076,2.076,0,0,1-2.076,2.076H31.448a16.818,16.818,0,0,0,2.388-2.076H56.061a2.076,2.076,0,0,0,2.076-2.076V10.382a2.076,2.076,0,0,0-2.076-2.076H52.946V6.229h5.191a2.076,2.076,0,0,1,2.076,2.076Z" transform="translate(0)"/>
      <path id="Trazado_1000187" data-name="Trazado 1000187" d="M24.879,37.1l-8.305,4.153a1.039,1.039,0,0,0,.928,1.858l8.305-4.153a1.039,1.039,0,0,0-.928-1.858Z" transform="translate(0.61 1.412)"/>
      <path id="Trazado_1000188" data-name="Trazado 1000188" d="M23.727,43.109l-4.153,2.076a1.039,1.039,0,0,0,.928,1.858l4.153-2.076a1.039,1.039,0,0,0-.928-1.858Z" transform="translate(0.725 1.641)"/>
      <path id="Trazado_1000189" data-name="Trazado 1000189" d="M24.331,33.617a1.038,1.038,0,0,0-1.37-.527l-9.344,4.153a1.038,1.038,0,0,0,.843,1.9L23.8,34.987A1.038,1.038,0,0,0,24.331,33.617Z" transform="translate(0.496 1.259)"/>
    </g>
  </g>
</svg>
