<svg xmlns="http://www.w3.org/2000/svg" width="51" height="51" viewBox="0 0 51 51">
  <g id="Grupo_1180401" data-name="Grupo 1180401" transform="translate(-926.711 -3019)">
    <g id="Grupo_1180322" data-name="Grupo 1180322">
      <g id="Grupo_1180313" data-name="Grupo 1180313" transform="translate(399.859 2205.573)">
        <g id="Grupo_1179273" data-name="Grupo 1179273" transform="translate(0.141 0.014)">
          <path id="Trazado_998619" data-name="Trazado 998619" d="M10,0H41A10,10,0,0,1,51,10V41A10,10,0,0,1,41,51H10A10,10,0,0,1,0,41V10A10,10,0,0,1,10,0Z" transform="translate(526.711 813.413)" fill="#fff"/>
        </g>
      </g>
      <g id="Grupo_1180317" data-name="Grupo 1180317" transform="translate(308)">
        <g id="Grupo_1180311" data-name="Grupo 1180311" transform="translate(626.711 3030.904)">
          <g id="Rectángulo_456793" data-name="Rectángulo 456793" transform="translate(0 0.096)" fill="#fff" stroke="#12263f" stroke-width="1.5">
            <rect width="36" height="32" rx="2" stroke="none"/>
            <rect x="0.75" y="0.75" width="34.5" height="30.5" rx="1.25" fill="none"/>
          </g>
        </g>
        <g id="Grupo_1180315" data-name="Grupo 1180315" transform="translate(626.711 3025.904)">
          <g id="Rectángulo_456793-2" data-name="Rectángulo 456793" transform="translate(0 0.096)" fill="#fff" stroke="#12263f" stroke-width="1.5">
            <rect width="36" height="7" stroke="none"/>
            <rect x="0.75" y="0.75" width="34.5" height="5.5" fill="none"/>
          </g>
        </g>
      </g>
      <path id="gestion-de-equipos" d="M27.424,22.736a3.517,3.517,0,0,1,3.358,2.474.8.8,0,0,1-.767,1.041H25.791v-.043l0-.042a5.457,5.457,0,0,0-.851-2.4A3.5,3.5,0,0,1,27.424,22.736Zm5.225,5.59v1.666l-2.706.433a9.789,9.789,0,0,1-1.333,3.218l1.607,2.22-2.356,2.356-2.22-1.607a9.788,9.788,0,0,1-3.218,1.333l-.433,2.706H18.659l-.433-2.706a9.789,9.789,0,0,1-3.218-1.333l-2.22,1.607-2.356-2.356,1.607-2.22a9.788,9.788,0,0,1-1.333-3.218L8,29.992V28.326h5.491a6.833,6.833,0,1,0,13.667,0h5.491ZM20.325,16.884a2.375,2.375,0,1,1-2.375,2.375A2.375,2.375,0,0,1,20.325,16.884ZM25,26.251a4.7,4.7,0,0,0-9.342,0v.95a1.258,1.258,0,0,0,1.256,1.256H23.74A1.258,1.258,0,0,0,25,27.2ZM13.225,18.707a1.777,1.777,0,1,1-1.777,1.777A1.777,1.777,0,0,1,13.225,18.707Zm0,4.029a3.5,3.5,0,0,1,2.488,1.033,5.458,5.458,0,0,0-.851,2.4l0,.042v.043H10.634a.8.8,0,0,1-.768-1.041,3.517,3.517,0,0,1,3.358-2.474Zm14.2-4.029a1.777,1.777,0,1,1-1.777,1.777A1.777,1.777,0,0,1,27.424,18.707Z" transform="translate(932.711 3018.025)" fill="#12263f" fill-rule="evenodd"/>
    </g>
  </g>
</svg>
