<svg xmlns="http://www.w3.org/2000/svg" width="51" height="51" viewBox="0 0 51 51">
  <g id="Grupo_1180399" data-name="Grupo 1180399" transform="translate(-619.711 -3019)">
    <g id="Grupo_1180321" data-name="Grupo 1180321">
      <g id="Grupo_1179273" data-name="Grupo 1179273" transform="translate(93 2205.587)">
        <path id="Trazado_998619" data-name="Trazado 998619" d="M10,0H41A10,10,0,0,1,51,10V41A10,10,0,0,1,41,51H10A10,10,0,0,1,0,41V10A10,10,0,0,1,10,0Z" transform="translate(526.711 813.413)" fill="#fff"/>
      </g>
      <g id="Grupo_1180316" data-name="Grupo 1180316">
        <g id="Grupo_1180311" data-name="Grupo 1180311" transform="translate(626.711 3030.904)">
          <g id="Rectángulo_456793" data-name="Rectángulo 456793" transform="translate(0 0.096)" fill="#fff" stroke="#12263f" stroke-width="1.5">
            <rect width="36" height="32" rx="2" stroke="none"/>
            <rect x="0.75" y="0.75" width="34.5" height="30.5" rx="1.25" fill="none"/>
          </g>
        </g>
        <g id="Grupo_1180315" data-name="Grupo 1180315" transform="translate(626.711 3025.904)">
          <g id="Rectángulo_456793-2" data-name="Rectángulo 456793" transform="translate(0 0.096)" fill="#fff" stroke="#12263f" stroke-width="1.5">
            <rect width="36" height="7" stroke="none"/>
            <rect x="0.75" y="0.75" width="34.5" height="5.5" fill="none"/>
          </g>
        </g>
      </g>
      <path id="proceso-automatizado" d="M7.8,20.479l-.51.956a.262.262,0,0,1-.164.134.266.266,0,0,1-.211-.026,10.734,10.734,0,0,1-5.436-9.067.272.272,0,0,0-.272-.266H.273a.271.271,0,0,1-.193-.463L2.1,9.727a.273.273,0,0,1,.384,0L4.5,11.745a.271.271,0,0,1-.193.463H3.382a.26.26,0,0,0-.195.084.257.257,0,0,0-.077.2,9.056,9.056,0,0,0,1.284,4.4,9.148,9.148,0,0,0,3.3,3.23A.271.271,0,0,1,7.8,20.479ZM2.98,7.29l.956.51A.271.271,0,0,0,4.3,7.695,9.167,9.167,0,0,1,7.53,4.4a9.056,9.056,0,0,1,4.4-1.284.255.255,0,0,1,.2.077.261.261,0,0,1,.084.195V4.31a.272.272,0,0,0,.464.193l2.018-2.018a.274.274,0,0,0,0-.385L12.67.084a.266.266,0,0,0-.3-.06.268.268,0,0,0-.168.251v.933a.272.272,0,0,1-.266.272A10.734,10.734,0,0,0,2.872,6.916a.269.269,0,0,0-.026.211.262.262,0,0,0,.134.164Zm18.45,9.838-.954-.51a.273.273,0,0,0-.365.1,9.148,9.148,0,0,1-3.23,3.3,9.056,9.056,0,0,1-4.4,1.284.257.257,0,0,1-.2-.077.26.26,0,0,1-.082-.195v-.925a.273.273,0,0,0-.465-.193L9.724,21.933a.274.274,0,0,0,0,.385l2.018,2.016a.272.272,0,0,0,.465-.192V23.21a.272.272,0,0,1,.265-.272A10.734,10.734,0,0,0,21.539,17.5a.27.27,0,0,0,.026-.211A.261.261,0,0,0,21.431,17.128Zm2.96-4.75a.269.269,0,0,0-.251-.169h-.933a.272.272,0,0,1-.272-.265A10.734,10.734,0,0,0,17.5,2.877a.269.269,0,0,0-.211-.026.261.261,0,0,0-.164.134l-.51.954a.272.272,0,0,0,.105.365A9.09,9.09,0,0,1,21.3,11.929a.257.257,0,0,1-.077.2.26.26,0,0,1-.195.082H20.1a.273.273,0,0,0-.193.465l2.018,2.018a.274.274,0,0,0,.385,0l2.016-2.018A.265.265,0,0,0,24.39,12.378Zm-14.733,4.2a.3.3,0,0,0-.3-.008l-.731.373a.309.309,0,0,1-.361-.057l-.743-.743a.309.309,0,0,1-.057-.361l.373-.731a.3.3,0,0,0-.008-.3A5.05,5.05,0,0,1,7.31,13.5a.3.3,0,0,0-.2-.216l-.781-.254a.305.305,0,0,1-.214-.295v-1.05a.308.308,0,0,1,.214-.3l.781-.253a.3.3,0,0,0,.2-.216A5.068,5.068,0,0,1,7.832,9.66a.3.3,0,0,0,.008-.3l-.373-.731a.308.308,0,0,1,.057-.361l.743-.743a.309.309,0,0,1,.361-.057l.732.373a.3.3,0,0,0,.3-.008,5.05,5.05,0,0,1,1.258-.522.3.3,0,0,0,.216-.2l.254-.781a.305.305,0,0,1,.295-.214h1.05a.307.307,0,0,1,.3.214l.253.781a.3.3,0,0,0,.216.2,5.045,5.045,0,0,1,1.258.522.3.3,0,0,0,.3.008l.732-.373a.306.306,0,0,1,.36.057l.743.743a.308.308,0,0,1,.057.361l-.373.731a.3.3,0,0,0,.008.3,5.05,5.05,0,0,1,.522,1.258.3.3,0,0,0,.2.216l.781.253a.308.308,0,0,1,.214.3v1.05a.305.305,0,0,1-.214.295l-.781.254a.3.3,0,0,0-.2.216,5.068,5.068,0,0,1-.522,1.258.3.3,0,0,0-.008.3l.373.732a.309.309,0,0,1-.057.361l-.743.743a.306.306,0,0,1-.36.057l-.732-.373a.3.3,0,0,0-.3.008A5.027,5.027,0,0,1,13.5,17.1a.3.3,0,0,0-.216.2l-.253.781a.307.307,0,0,1-.3.214H11.68a.305.305,0,0,1-.295-.214l-.254-.781a.3.3,0,0,0-.216-.2,5.027,5.027,0,0,1-1.258-.521Zm2.549-1.521a2.852,2.852,0,1,0-2.853-2.853A2.853,2.853,0,0,0,12.206,15.062Z" transform="translate(632.712 3034.998)" fill="#12263f" fill-rule="evenodd"/>
    </g>
  </g>
</svg>
