<svg xmlns="http://www.w3.org/2000/svg" width="51" height="51" viewBox="0 0 51 51">
  <g id="Grupo_1180400" data-name="Grupo 1180400" transform="translate(-312.711 -3019)">
    <g id="Grupo_1180320" data-name="Grupo 1180320">
      <g id="Grupo_1179292" data-name="Grupo 1179292" transform="translate(-214.141 2205.573)">
        <g id="Grupo_1179273" data-name="Grupo 1179273" transform="translate(0.141 0.014)">
          <path id="Trazado_998619" data-name="Trazado 998619" d="M10,0H41A10,10,0,0,1,51,10V41A10,10,0,0,1,41,51H10A10,10,0,0,1,0,41V10A10,10,0,0,1,10,0Z" transform="translate(526.711 813.413)" fill="#fff"/>
        </g>
      </g>
      <g id="Grupo_1180319" data-name="Grupo 1180319" transform="translate(-306)">
        <g id="Grupo_1180311" data-name="Grupo 1180311" transform="translate(626.711 3030.904)">
          <g id="Rectángulo_456793" data-name="Rectángulo 456793" transform="translate(0 0.096)" fill="#fff" stroke="#12263f" stroke-width="1.5">
            <rect width="36" height="32" rx="2" stroke="none"/>
            <rect x="0.75" y="0.75" width="34.5" height="30.5" rx="1.25" fill="none"/>
          </g>
        </g>
        <g id="Grupo_1180315" data-name="Grupo 1180315" transform="translate(626.711 3025.904)">
          <g id="Rectángulo_456793-2" data-name="Rectángulo 456793" transform="translate(0 0.096)" fill="#fff" stroke="#12263f" stroke-width="1.5">
            <rect width="36" height="7" stroke="none"/>
            <rect x="0.75" y="0.75" width="34.5" height="5.5" fill="none"/>
          </g>
        </g>
      </g>
      <path id="atencion-al-cliente" d="M37.149,73.27h5.587a.4.4,0,0,0,.391-.488,4.319,4.319,0,0,0-7.205-2.16A5.2,5.2,0,0,1,37.149,73.27ZM18.875,76.89l4.267,7.539a.764.764,0,0,1-.288,1.038l-1.451.821A.764.764,0,0,1,20.365,86L16.1,78.461a.764.764,0,0,1,.288-1.038l1.451-.821a.764.764,0,0,1,1.038.288Zm1.3.436,3.012,5.321.643-.371L30.637,84.1a3.442,3.442,0,0,0,2.787-.393l9.387-5.78c1.337-.823.746-4.426-3.275-2.084l-5.173,3.013a3.335,3.335,0,0,1-.8.338,1.982,1.982,0,0,1-2.09.774c-1.116-.3-2.231-.6-3.346-.9a.457.457,0,1,1,.236-.883c1.108.3,2.215.6,3.324.891a1.207,1.207,0,0,0,1.436-.972,1.5,1.5,0,0,0-1.034-1.79,37.83,37.83,0,0,1-5.319-1.635,3.808,3.808,0,0,0-3.146.64Zm-2.362.543a.518.518,0,1,0,.588.438A.518.518,0,0,0,17.811,77.869ZM31.975,64.8a2.183,2.183,0,1,1-2.183,2.183A2.183,2.183,0,0,1,31.975,64.8Zm-3.822,8.793a.4.4,0,0,1-.391-.488,4.319,4.319,0,0,1,8.426,0,.4.4,0,0,1-.391.488Zm-3.116-9.118a2.183,2.183,0,1,1-2.183,2.183A2.183,2.183,0,0,1,25.037,64.477ZM21.215,73.27H26.8a5.2,5.2,0,0,1,1.228-2.648,4.319,4.319,0,0,0-7.205,2.16.4.4,0,0,0,.391.488Zm17.7-8.793a2.183,2.183,0,1,1-2.183,2.183A2.183,2.183,0,0,1,38.914,64.477Z" transform="translate(308.983 2971.523)" fill="#12263f" fill-rule="evenodd"/>
    </g>
  </g>
</svg>
