<svg xmlns="http://www.w3.org/2000/svg" xmlns:xlink="http://www.w3.org/1999/xlink" width="150" height="150" viewBox="0 0 150 150">
  <defs>
    <clipPath id="clip-path">
      <rect id="Rectángulo_455533" data-name="Rectángulo 455533" width="149.812" height="143.185" fill="#62249e"/>
    </clipPath>
    <clipPath id="clip-path-2">
      <rect id="Rectángulo_456792" data-name="Rectángulo 456792" width="71.723" height="75.799" fill="#fff"/>
    </clipPath>
  </defs>
  <g id="Grupo_1180099" data-name="Grupo 1180099" transform="translate(-305.059 -10093)">
    <g id="Grupo_1179079" data-name="Grupo 1179079" transform="translate(-78.59 1694.097)">
      <circle id="Elipse_13674" data-name="Elipse 13674" cx="65.5" cy="65.5" r="65.5" transform="translate(393.649 8407.903)" fill="#62249e"/>
      <g id="Grupo_1179062" data-name="Grupo 1179062" transform="translate(383.649 8398.903)">
        <rect id="Rectángulo_455531" data-name="Rectángulo 455531" width="150" height="150" transform="translate(0 0)" fill="none"/>
        <g id="Grupo_1179061" data-name="Grupo 1179061" transform="translate(0.094 3.9)">
          <path id="Trazado_998445" data-name="Trazado 998445" d="M127.367,99.1H96.727l4.153-7.745h30.64Z" transform="translate(13.418 14.697)" fill="#62249e"/>
          <path id="Trazado_998446" data-name="Trazado 998446" d="M2.518,86.893,0,92.019h33.78L36.3,86.893Z" transform="translate(0 14.142)" fill="#62249e"/>
          <path id="Trazado_998447" data-name="Trazado 998447" d="M131.16,33.711H98.809l2.537-5.745H133.7Z" transform="translate(13.977 4.539)" fill="#62249e"/>
          <path id="Trazado_998448" data-name="Trazado 998448" d="M45.981,13.965H3.483L6.02,8.221h42.5Z" transform="translate(0.935 2.207)" fill="#62249e"/>
          <g id="Grupo_1179060" data-name="Grupo 1179060" transform="translate(0)">
            <g id="Grupo_1179059" data-name="Grupo 1179059" clip-path="url(#clip-path)">
              <path id="Trazado_998449" data-name="Trazado 998449" d="M74.461,126.768A63.317,63.317,0,0,1,12.49,49.237H4.026A71.853,71.853,0,0,0,130.42,108.291H119.338a63.5,63.5,0,0,1-44.877,18.477" transform="translate(0.445 8.185)" fill="#62249e"/>
              <path id="Trazado_998450" data-name="Trazado 998450" d="M110.835,89.568h9.4c.755-1.5,1.441-3.033,2.091-4.588h-9.039c-.76,1.565-1.573,3.1-2.454,4.588" transform="translate(18.887 14.126)" fill="#62249e"/>
              <path id="Trazado_998451" data-name="Trazado 998451" d="M145.839,71.593A71.893,71.893,0,0,0,5.373,50.3h8.722A63.623,63.623,0,0,1,137.577,71.593a62.852,62.852,0,0,1-4.591,23.629h8.808a71.048,71.048,0,0,0,4.045-23.629" transform="translate(0.916)" fill="#62249e"/>
              <path id="Trazado_998452" data-name="Trazado 998452" d="M108.562,81.649v3.885h5.115q.927-1.909,1.726-3.885Z" transform="translate(18.499 13.573)" fill="#62249e"/>
              <path id="Trazado_998453" data-name="Trazado 998453" d="M129.252,81.649h-7.1q-.693,1.97-1.495,3.885h8.6Z" transform="translate(20.56 13.573)" fill="#62249e"/>
            </g>
          </g>
          <path id="Trazado_998444" data-name="Trazado 998444" d="M3.8,37.025,0,44.77H23l3.805-7.745Z" transform="translate(0 5.957)" fill="#62249e"/>
        </g>
      </g>
    </g>
    <g id="Grupo_1179080" data-name="Grupo 1179080" transform="translate(336.059 10124)">
      <g id="Grupo_1099618" data-name="Grupo 1099618" transform="translate(-0.289 -0.43)">
        <rect id="Rectángulo_401104" data-name="Rectángulo 401104" width="87.065" height="88.114" transform="translate(0)" fill="none"/>
      </g>
      <g id="Grupo_1180298" data-name="Grupo 1180298" transform="translate(7.711 6.57)">
        <g id="Grupo_1180298-2" data-name="Grupo 1180298" clip-path="url(#clip-path-2)">
          <path id="Trazado_1000214" data-name="Trazado 1000214" d="M300.929,33.436h-.154a1.11,1.11,0,0,1,0-2.221h.154a1.11,1.11,0,1,1,0,2.221" transform="translate(-255.301 -26.594)" fill="#fff"/>
          <path id="Trazado_1000215" data-name="Trazado 1000215" d="M329.022,33.436h-.154a1.11,1.11,0,0,1,0-2.221h.154a1.11,1.11,0,1,1,0,2.221" transform="translate(-279.235 -26.594)" fill="#fff"/>
          <path id="Trazado_1000216" data-name="Trazado 1000216" d="M357.116,33.436h-.154a1.11,1.11,0,0,1,0-2.221h.154a1.11,1.11,0,1,1,0,2.221" transform="translate(-303.17 -26.594)" fill="#fff"/>
          <path id="Trazado_1000217" data-name="Trazado 1000217" d="M76.08,132.128a1.107,1.107,0,0,1-.785-.325l-5.762-5.762a1.11,1.11,0,0,1,1.57-1.57l5.762,5.762a1.11,1.11,0,0,1-.785,1.9" transform="translate(-58.962 -105.766)" fill="#fff"/>
          <path id="Trazado_1000218" data-name="Trazado 1000218" d="M70.318,131.692a1.11,1.11,0,0,1-1.11-1.11v-5.327a1.11,1.11,0,0,1,1.11-1.11h5.327a1.11,1.11,0,1,1,0,2.221H71.429v4.216a1.11,1.11,0,0,1-1.11,1.11" transform="translate(-58.962 -105.766)" fill="#fff"/>
          <path id="Trazado_1000219" data-name="Trazado 1000219" d="M431.659,132.128a1.11,1.11,0,0,1-.785-1.9l5.762-5.762a1.11,1.11,0,0,1,1.57,1.57l-5.762,5.762a1.107,1.107,0,0,1-.785.325" transform="translate(-366.808 -105.766)" fill="#fff"/>
          <path id="Trazado_1000220" data-name="Trazado 1000220" d="M439.924,131.692a1.11,1.11,0,0,1-1.11-1.11v-4.216H434.6a1.11,1.11,0,1,1,0-2.221h5.327a1.11,1.11,0,0,1,1.11,1.11v5.327a1.11,1.11,0,0,1-1.11,1.11" transform="translate(-369.311 -105.766)" fill="#fff"/>
          <path id="Trazado_1000221" data-name="Trazado 1000221" d="M437.421,466.064a1.108,1.108,0,0,1-.785-.325l-5.762-5.762a1.11,1.11,0,0,1,1.57-1.57l5.762,5.762a1.11,1.11,0,0,1-.785,1.9" transform="translate(-366.808 -390.265)" fill="#fff"/>
          <path id="Trazado_1000222" data-name="Trazado 1000222" d="M439.924,468.566H434.6a1.11,1.11,0,1,1,0-2.221h4.216v-4.216a1.11,1.11,0,1,1,2.221,0v5.327a1.11,1.11,0,0,1-1.11,1.11" transform="translate(-369.311 -392.768)" fill="#fff"/>
          <path id="Trazado_1000223" data-name="Trazado 1000223" d="M70.319,466.064a1.11,1.11,0,0,1-.785-1.9l5.762-5.762a1.11,1.11,0,0,1,1.57,1.57L71.1,465.739a1.107,1.107,0,0,1-.785.325" transform="translate(-58.962 -390.265)" fill="#fff"/>
          <path id="Trazado_1000224" data-name="Trazado 1000224" d="M75.645,468.566H70.318a1.11,1.11,0,0,1-1.11-1.11v-5.327a1.11,1.11,0,1,1,2.221,0v4.216h4.216a1.11,1.11,0,1,1,0,2.221" transform="translate(-58.962 -392.768)" fill="#fff"/>
          <path id="Trazado_1000225" data-name="Trazado 1000225" d="M280.493,280.942H262.512a1.11,1.11,0,0,1,0-2.221h17.981a1.11,1.11,0,1,1,0,2.221" transform="translate(-222.703 -237.458)" fill="#fff"/>
          <path id="Trazado_1000226" data-name="Trazado 1000226" d="M280.493,316.469H262.512a1.11,1.11,0,0,1,0-2.221h17.981a1.11,1.11,0,1,1,0,2.221" transform="translate(-222.703 -267.725)" fill="#fff"/>
          <path id="Trazado_1000227" data-name="Trazado 1000227" d="M280.493,352H262.512a1.11,1.11,0,0,1,0-2.221h17.981a1.11,1.11,0,1,1,0,2.221" transform="translate(-222.703 -297.993)" fill="#fff"/>
          <path id="Trazado_1000228" data-name="Trazado 1000228" d="M280.493,387.524H262.512a1.11,1.11,0,1,1,0-2.221h17.981a1.11,1.11,0,1,1,0,2.221" transform="translate(-222.703 -328.261)" fill="#fff"/>
          <path id="Trazado_1000229" data-name="Trazado 1000229" d="M173.026,290.619h-8.2a1.853,1.853,0,0,1-1.851-1.85v-8.2a1.853,1.853,0,0,1,1.851-1.851h8.2a1.853,1.853,0,0,1,1.851,1.851v8.2a1.853,1.853,0,0,1-1.851,1.85M165.2,288.4h7.458v-7.458H165.2Z" transform="translate(-138.849 -237.457)" fill="#fff"/>
          <path id="Trazado_1000230" data-name="Trazado 1000230" d="M170.037,223.555H131.619a3.313,3.313,0,0,1-3.31-3.31V216.4a1.11,1.11,0,0,1,2.221,0v3.848a1.09,1.09,0,0,0,1.089,1.089h38.418a1.09,1.09,0,0,0,1.089-1.089V187.107a1.09,1.09,0,0,0-1.089-1.089h-9.613a1.11,1.11,0,1,1,0-2.221h9.613a3.314,3.314,0,0,1,3.31,3.31v33.138a3.314,3.314,0,0,1-3.31,3.31" transform="translate(-109.314 -156.587)" fill="#fff"/>
          <path id="Trazado_1000231" data-name="Trazado 1000231" d="M129.418,212.325a1.11,1.11,0,0,1-1.11-1.11V187.106a3.314,3.314,0,0,1,3.31-3.31h23.623a1.11,1.11,0,1,1,0,2.221H131.618a1.091,1.091,0,0,0-1.089,1.089v24.109a1.11,1.11,0,0,1-1.11,1.11" transform="translate(-109.313 -156.586)" fill="#fff"/>
          <rect id="Rectángulo_456790" data-name="Rectángulo 456790" width="42.818" height="2.221" transform="translate(20.106 34.098)" fill="#fff"/>
          <path id="Trazado_1000232" data-name="Trazado 1000232" d="M58.568,29.431a1.11,1.11,0,0,1-1.11-1.11V3.216a1,1,0,0,0-1-1H3.217a1,1,0,0,0-1,1V19.782a1.11,1.11,0,1,1-2.221,0V3.216A3.22,3.22,0,0,1,3.217,0H56.462a3.22,3.22,0,0,1,3.217,3.216v25.1a1.11,1.11,0,0,1-1.11,1.11" transform="translate(-0.001)" fill="#fff"/>
          <path id="Trazado_1000233" data-name="Trazado 1000233" d="M20.106,189.858H3.216A3.22,3.22,0,0,1,0,186.642V162.229a1.11,1.11,0,1,1,2.221,0v24.412a1,1,0,0,0,1,1H20.106a1.11,1.11,0,0,1,0,2.221" transform="translate(0 -137.266)" fill="#fff"/>
          <rect id="Rectángulo_456791" data-name="Rectángulo 456791" width="57.457" height="2.221" transform="translate(1.11 9.242)" fill="#fff"/>
        </g>
      </g>
    </g>
  </g>
</svg>
