<svg xmlns="http://www.w3.org/2000/svg" xmlns:xlink="http://www.w3.org/1999/xlink" width="150" height="150" viewBox="0 0 150 150">
  <defs>
    <clipPath id="clip-path">
      <rect id="Rectángulo_455533" data-name="Rectángulo 455533" width="149.812" height="143.185" fill="#19538d"/>
    </clipPath>
  </defs>
  <g id="Grupo_1180097" data-name="Grupo 1180097" transform="translate(-305.059 -10093)">
    <g id="Grupo_1179079" data-name="Grupo 1179079" transform="translate(-78.59 1694.097)">
      <circle id="Elipse_13674" data-name="Elipse 13674" cx="65.5" cy="65.5" r="65.5" transform="translate(393.649 8407.903)" fill="#19538d"/>
      <g id="Grupo_1179062" data-name="Grupo 1179062" transform="translate(383.649 8398.903)">
        <rect id="Rectángulo_455531" data-name="Rectángulo 455531" width="150" height="150" transform="translate(0 0)" fill="none"/>
        <g id="Grupo_1179061" data-name="Grupo 1179061" transform="translate(0.094 3.9)">
          <path id="Trazado_998445" data-name="Trazado 998445" d="M127.367,99.1H96.727l4.153-7.745h30.64Z" transform="translate(13.418 14.697)" fill="#19538d"/>
          <path id="Trazado_998446" data-name="Trazado 998446" d="M2.518,86.893,0,92.019h33.78L36.3,86.893Z" transform="translate(0 14.142)" fill="#19538d"/>
          <path id="Trazado_998447" data-name="Trazado 998447" d="M131.16,33.711H98.809l2.537-5.745H133.7Z" transform="translate(13.977 4.539)" fill="#19538d"/>
          <path id="Trazado_998448" data-name="Trazado 998448" d="M45.981,13.965H3.483L6.02,8.221h42.5Z" transform="translate(0.935 2.207)" fill="#19538d"/>
          <g id="Grupo_1179060" data-name="Grupo 1179060" transform="translate(0)">
            <g id="Grupo_1179059" data-name="Grupo 1179059" clip-path="url(#clip-path)">
              <path id="Trazado_998449" data-name="Trazado 998449" d="M74.461,126.768A63.317,63.317,0,0,1,12.49,49.237H4.026A71.853,71.853,0,0,0,130.42,108.291H119.338a63.5,63.5,0,0,1-44.877,18.477" transform="translate(0.445 8.185)" fill="#19538d"/>
              <path id="Trazado_998450" data-name="Trazado 998450" d="M110.835,89.568h9.4c.755-1.5,1.441-3.033,2.091-4.588h-9.039c-.76,1.565-1.573,3.1-2.454,4.588" transform="translate(18.887 14.126)" fill="#19538d"/>
              <path id="Trazado_998451" data-name="Trazado 998451" d="M145.839,71.593A71.893,71.893,0,0,0,5.373,50.3h8.722A63.623,63.623,0,0,1,137.577,71.593a62.852,62.852,0,0,1-4.591,23.629h8.808a71.048,71.048,0,0,0,4.045-23.629" transform="translate(0.916)" fill="#19538d"/>
              <path id="Trazado_998452" data-name="Trazado 998452" d="M108.562,81.649v3.885h5.115q.927-1.909,1.726-3.885Z" transform="translate(18.499 13.573)" fill="#19538d"/>
              <path id="Trazado_998453" data-name="Trazado 998453" d="M129.252,81.649h-7.1q-.693,1.97-1.495,3.885h8.6Z" transform="translate(20.56 13.573)" fill="#19538d"/>
            </g>
          </g>
          <path id="Trazado_998444" data-name="Trazado 998444" d="M3.8,37.025,0,44.77H23l3.805-7.745Z" transform="translate(0 5.957)" fill="#19538d"/>
        </g>
      </g>
    </g>
    <g id="Grupo_1179080" data-name="Grupo 1179080" transform="translate(336.059 10124)">
      <g id="Grupo_1180297" data-name="Grupo 1180297">
        <g id="Grupo_1099618" data-name="Grupo 1099618" transform="translate(-0.289 -0.43)">
          <rect id="Rectángulo_401104" data-name="Rectángulo 401104" width="87.065" height="88.114" transform="translate(0)" fill="none"/>
        </g>
        <g id="hora" transform="translate(0.711 -17.095)">
          <g id="Grupo_1180290" data-name="Grupo 1180290" transform="translate(33.025 39.027)">
            <g id="Grupo_1180289" data-name="Grupo 1180289">
              <path id="Trazado_1000210" data-name="Trazado 1000210" d="M222.232,146.994H211.315a5.271,5.271,0,0,0-3.874-3.874V128.542a1.233,1.233,0,0,0-2.466,0V143.12a5.254,5.254,0,1,0,6.34,6.34h10.917a1.233,1.233,0,1,0,0-2.466Zm-16.024,4.022A2.789,2.789,0,1,1,209,148.227,2.792,2.792,0,0,1,206.208,151.016Z" transform="translate(-200.953 -127.309)" fill="#fff"/>
            </g>
          </g>
          <g id="Grupo_1180292" data-name="Grupo 1180292" transform="translate(17.88 56.154)">
            <g id="Grupo_1180291" data-name="Grupo 1180291" transform="translate(0 0)">
              <path id="Trazado_1000211" data-name="Trazado 1000211" d="M118.1,231.53h-7.24a2.057,2.057,0,0,0-2.055,2.055v3.471a2.057,2.057,0,0,0,2.055,2.055h7.24a2.057,2.057,0,0,0,2.055-2.055v-3.471A2.057,2.057,0,0,0,118.1,231.53Zm-.411,5.115h-6.418V234h6.418Z" transform="translate(-108.802 -231.53)" fill="#fff"/>
            </g>
          </g>
          <g id="Grupo_1180294" data-name="Grupo 1180294" transform="translate(0 21.665)">
            <g id="Grupo_1180293" data-name="Grupo 1180293" transform="translate(0 0)">
              <path id="Trazado_1000212" data-name="Trazado 1000212" d="M75.452,69.111A38.285,38.285,0,1,0,38.28,98.224h0a38.524,38.524,0,0,0,7.992-.836,1.233,1.233,0,0,0-.513-2.412,36.049,36.049,0,0,1-7.48.782h0A35.791,35.791,0,1,1,73.137,68.186a15.538,15.538,0,0,0-4.589-.689q-.575,0-1.139.042a30.233,30.233,0,0,0-.053-15.409,1.233,1.233,0,0,0-2.382.639,27.654,27.654,0,0,1,.91,5.944h-2.3a1.233,1.233,0,0,0,0,2.466h2.3a27.472,27.472,0,0,1-1.163,6.794,15.622,15.622,0,0,0-11.77,15.12c0,.086,0,.172,0,.259a27.455,27.455,0,0,1-13.445,4.2v-2.3a1.233,1.233,0,0,0-2.466,0v2.3A27.53,27.53,0,0,1,19.64,80.329l1.618-1.618a1.233,1.233,0,1,0-1.743-1.744L17.9,78.585a27.528,27.528,0,0,1-7.248-18.394h1.991a1.233,1.233,0,0,0,0-2.466H10.733A27.536,27.536,0,0,1,17.9,41.3l1.618,1.618a1.233,1.233,0,1,0,1.744-1.744l-1.618-1.618a27.53,27.53,0,0,1,17.407-7.222v2.3a1.233,1.233,0,0,0,2.466,0v-2.3a27.484,27.484,0,0,1,17.414,7.213L55.3,41.179a1.233,1.233,0,0,0,1.744,1.743L58.67,41.3a27.715,27.715,0,0,1,3.383,4.548,1.233,1.233,0,1,0,2.12-1.26A30.1,30.1,0,1,0,38.28,90.046a29.91,29.91,0,0,0,14.959-3.99,15.507,15.507,0,0,0,2.135,5.368q-1.5.815-3.1,1.5a1.233,1.233,0,1,0,.965,2.27,38.519,38.519,0,0,0,3.632-1.775,15.581,15.581,0,0,0,20.238,2.712,1.233,1.233,0,1,0-1.356-2.06,13.119,13.119,0,1,1,4.172-4.422,1.233,1.233,0,0,0,2.136,1.233,15.6,15.6,0,0,0-6.609-21.767Z" transform="translate(0 -21.665)" fill="#fff"/>
            </g>
          </g>
          <g id="Grupo_1180296" data-name="Grupo 1180296" transform="translate(58.085 76.065)">
            <g id="Grupo_1180295" data-name="Grupo 1180295">
              <path id="Trazado_1000213" data-name="Trazado 1000213" d="M372.631,353.775a3.818,3.818,0,0,0-5.4.064l-5.16,5.286L359.989,357a3.818,3.818,0,0,0-5.453,5.345l4.212,4.3a4.688,4.688,0,0,0,3.329,1.4h0a4.69,4.69,0,0,0,3.331-1.406l7.285-7.462A3.823,3.823,0,0,0,372.631,353.775Zm-1.7,3.676-7.284,7.461a2.209,2.209,0,0,1-1.569.663h0a2.208,2.208,0,0,1-1.567-.659l-4.212-4.3a1.352,1.352,0,1,1,1.93-1.893l2.966,3.026a1.233,1.233,0,0,0,.881.37h0a1.233,1.233,0,0,0,.881-.372l6.04-6.188a1.352,1.352,0,0,1,1.935,1.89Z" transform="translate(-353.447 -352.689)" fill="#fff"/>
            </g>
          </g>
        </g>
      </g>
    </g>
  </g>
</svg>
