<svg xmlns="http://www.w3.org/2000/svg" xmlns:xlink="http://www.w3.org/1999/xlink" width="128" height="128" viewBox="0 0 128 128">
  <defs>
    <clipPath id="clip-path">
      <rect id="Rectángulo_465032" data-name="Rectángulo 465032" width="63.52" height="46.703" fill="#19538d"/>
    </clipPath>
  </defs>
  <g id="Grupo_1215155" data-name="Grupo 1215155" transform="translate(-383.746 -8400)">
    <circle id="Elipse_13890" data-name="Elipse 13890" cx="64" cy="64" r="64" transform="translate(383.746 8400)" fill="#5a9ad7"/>
    <path id="Intersección_1" data-name="Intersección 1" d="M23204.689,11774.869a64,64,0,0,1,106.254-48.067l-104.787,61.753A64.213,64.213,0,0,1,23204.689,11774.869Z" transform="translate(-22820.941 -3310.872)" fill="#19538d"/>
    <circle id="Elipse_13891" data-name="Elipse 13891" cx="54" cy="54" r="54" transform="translate(393.746 8410)" fill="#fff"/>
    <g id="Grupo_1188343" data-name="Grupo 1188343" transform="translate(-0.994 -0.997)">
      <rect id="Rectángulo_459838" data-name="Rectángulo 459838" width="66" height="66" transform="translate(413.74 8431.997)" fill="#fff"/>
      <g id="Grupo_1215163" data-name="Grupo 1215163" transform="translate(414.74 8441.997)">
        <g id="Grupo_1215162" data-name="Grupo 1215162" clip-path="url(#clip-path)">
          <path id="Trazado_1283837" data-name="Trazado 1283837" d="M63.491,38.6A7.5,7.5,0,0,1,56.138,46.7H7.379A7.494,7.494,0,0,1,.038,38.548a2.954,2.954,0,0,1,1.974-.371L2.022,4.667A4.658,4.658,0,0,1,6.848,0H56.669A4.658,4.658,0,0,1,61.5,4.666l.011,33.508c.659-.034,1.546-.073,1.985.423m-8.872-.421.022-5.086c0-.413.68-.862,1.03-.821.3.035.836.5.837.842l.014,5.074,3.118-.023.005-33.213a2.85,2.85,0,0,0-2.81-3.106H6.679a2.788,2.788,0,0,0-2.8,2.743L3.874,38.168,7,38.177l.007-15.69a1.059,1.059,0,0,1,.97-.883c.3.021.908.46.908.857L8.9,38.18ZM40.449,40A3.859,3.859,0,0,1,37,43.023H26.52A3.9,3.9,0,0,1,23.06,40L1.891,40a5.88,5.88,0,0,0,5.682,4.886l48.374-.014A5.816,5.816,0,0,0,61.618,40Zm-3.624,1.191A1.942,1.942,0,0,0,38.432,40H25.081a2.03,2.03,0,0,0,1.842,1.2Z" transform="translate(0)" fill="#19538d"/>
          <path id="Trazado_1283838" data-name="Trazado 1283838" d="M86.374,30.436l-45.731,0,0,11.647a.99.99,0,0,1-.908,1.076,1.029,1.029,0,0,1-.982-.9l0-12.8a1,1,0,0,1,.962-.873H87.3a.993.993,0,0,1,.963.89V52.9a1.009,1.009,0,0,1-1,.917c-.567-.036-.874-.448-.9-1.1Z" transform="translate(-31.747 -23.414)" fill="#19538d"/>
          <path id="Trazado_1283839" data-name="Trazado 1283839" d="M105.154,55.272A11.778,11.778,0,1,0,107.837,53a1.033,1.033,0,0,1-1.253-.3.976.976,0,0,1,.344-1.333,13.654,13.654,0,1,1-3.216,2.708,1,1,0,0,1,1.324-.227.957.957,0,0,1,.117,1.418" transform="translate(-82.22 -40.465)" fill="#19538d"/>
          <path id="Trazado_1283840" data-name="Trazado 1283840" d="M136.432,103.664l-3.881-3.825a2.539,2.539,0,1,1,3.591-3.59L138,98.074l5.681-5.653a2.5,2.5,0,0,1,3.3.135,2.461,2.461,0,0,1,.216,3.4l-7.681,7.682a2.418,2.418,0,0,1-3.084.028m-2.609-5.241,3.6,3.618a.813.813,0,0,0,1.182-.043l7.135-7.152a.851.851,0,0,0-.088-.986,1.413,1.413,0,0,0-.883.01l-6.06,6.07a.992.992,0,0,1-1.351.179l-2.553-2.561a.913.913,0,0,0-.939-.055.8.8,0,0,0-.048.92" transform="translate(-107.985 -75.256)" fill="#19538d"/>
        </g>
      </g>
    </g>
  </g>
</svg>
