<svg xmlns="http://www.w3.org/2000/svg" xmlns:xlink="http://www.w3.org/1999/xlink" width="128" height="128" viewBox="0 0 128 128">
  <defs>
    <clipPath id="clip-path">
      <rect id="Rectángulo_465034" data-name="Rectángulo 465034" width="66" height="58.835" fill="#19538d"/>
    </clipPath>
  </defs>
  <g id="Grupo_1215157" data-name="Grupo 1215157" transform="translate(-383.746 -8400)">
    <circle id="Elipse_13890" data-name="Elipse 13890" cx="64" cy="64" r="64" transform="translate(383.746 8400)" fill="#5a9ad7"/>
    <path id="Intersección_1" data-name="Intersección 1" d="M23204.689,11774.869a64,64,0,0,1,106.254-48.067l-104.787,61.753A64.213,64.213,0,0,1,23204.689,11774.869Z" transform="translate(-22820.941 -3310.872)" fill="#19538d"/>
    <circle id="Elipse_13891" data-name="Elipse 13891" cx="54" cy="54" r="54" transform="translate(393.746 8410)" fill="#fff"/>
    <g id="Grupo_1188343" data-name="Grupo 1188343" transform="translate(-0.994 -0.997)">
      <rect id="Rectángulo_459838" data-name="Rectángulo 459838" width="66" height="66" transform="translate(415.74 8431.997)" fill="#fff"/>
      <g id="Grupo_1215167" data-name="Grupo 1215167" transform="translate(415.74 8435.997)">
        <g id="Grupo_1215166" data-name="Grupo 1215166" clip-path="url(#clip-path)">
          <path id="Trazado_1283850" data-name="Trazado 1283850" d="M64.071,46.185l0-35.249-39.1,0a2.286,2.286,0,0,1-2.031-1.062L21.75,7.316l-10.879,0L9.729,9.763A2.237,2.237,0,0,1,7.891,10.93l-5.966.011,0,44.874a1.074,1.074,0,0,0,1.106,1.065H62.961a1.1,1.1,0,0,0,1.1-1.018l0-5.81c0-.632.3-1.086.894-1.122A1.009,1.009,0,0,1,66,49.864l-.017,6.053a2.944,2.944,0,0,1-2.693,2.914l-60.421,0A2.985,2.985,0,0,1,0,55.667V3.224A2.95,2.95,0,0,1,2.685.094c1.892-.169,3.767-.235,3.677.922a1.079,1.079,0,0,1-1.1,1l-2.32-.035A1.209,1.209,0,0,0,1.929,3.02L1.924,9.008l6.011-.018L9.049,6.6a2.246,2.246,0,0,1,1.934-1.259H21.641A2.219,2.219,0,0,1,23.566,6.6L24.661,9,64.07,9l0-5.973A1.11,1.11,0,0,0,62.964,2H9.1a1.028,1.028,0,0,1-.975-.962,1.025,1.025,0,0,1,.943-1L63.29.061a2.937,2.937,0,0,1,2.7,2.971L66,45.911c0,.6-.272,1.069-.66,1.154-.518.113-1.267-.043-1.267-.88" transform="translate(0 0)" fill="#19538d"/>
          <path id="Trazado_1283851" data-name="Trazado 1283851" d="M158.353,147.992a.971.971,0,1,1,.447-1.89,10.263,10.263,0,0,0,13.044-13.566,3.949,3.949,0,0,1-.565,1.2,1.238,1.238,0,0,1-1.129.016,1.425,1.425,0,0,1-.383-1.182l.751-3.3c.091-.4,1-.532,1.356-.387l2.981,1.235a1.507,1.507,0,0,1,.752.808,1.2,1.2,0,0,1-.446.964,2.43,2.43,0,0,1-1.509-.08,12.2,12.2,0,0,1-15.3,16.189" transform="translate(-128.068 -104.667)" fill="#19538d"/>
          <path id="Trazado_1283852" data-name="Trazado 1283852" d="M104.308,117.479l-.756,3.308c-.089.387-1,.538-1.355.389l-3.078-1.293a.98.98,0,0,1-.513-1.392c.371-.545.967-.523,1.816-.241a12.2,12.2,0,0,1,15.241-16.212,1.035,1.035,0,0,1,.762,1.242,1.024,1.024,0,0,1-1.315.63,10.242,10.242,0,0,0-12.88,13.6,3.832,3.832,0,0,1,.565-1.194,1.233,1.233,0,0,1,1.128-.022,1.439,1.439,0,0,1,.384,1.185" transform="translate(-80.011 -82.368)" fill="#19538d"/>
          <path id="Trazado_1283853" data-name="Trazado 1283853" d="M144.518,248.832l4.668-.039a2.277,2.277,0,0,1,2.353,1.924l.057,3.19a2.2,2.2,0,0,1-2.256,2.295H139.209a2.206,2.206,0,0,1-2.254-2.3L137,250.7a2.184,2.184,0,0,1,1.981-1.861l2.157-.031c.394-.006.912.689.856,1.046a1.113,1.113,0,0,1-1.059.882l-2.074.074.033,3.463h10.758l.01-3.521-4.878-.008a1.275,1.275,0,0,1-1.018-.719c-.122-.33.3-1.189.746-1.193" transform="translate(-111.277 -202.147)" fill="#19538d"/>
          <path id="Trazado_1283854" data-name="Trazado 1283854" d="M146.67,74.947H131.664a.978.978,0,1,1,.02-1.954l14.972,0a1.045,1.045,0,0,1,1,.849.979.979,0,0,1-.99,1.106" transform="translate(-106.17 -59.307)" fill="#19538d"/>
          <path id="Trazado_1283855" data-name="Trazado 1283855" d="M141.725,153.246a1.121,1.121,0,0,1-.111,1.354,1.06,1.06,0,0,1-1.45-.161l-2.125-3.027a1.378,1.378,0,0,1,0-1.186l2.283-3.2c.191-.268,1.054-.195,1.3.018a1.237,1.237,0,0,1,.191,1.225l-1.81,2.56Z" transform="translate(-112.05 -119.322)" fill="#19538d"/>
          <path id="Trazado_1283856" data-name="Trazado 1283856" d="M194.521,154.273a1.1,1.1,0,0,1-1.365.3,1.046,1.046,0,0,1-.227-1.449l1.72-2.413-1.734-2.428a1.385,1.385,0,0,1,0-1.25c.177-.273,1.128-.463,1.327-.189l2.364,3.261a1.379,1.379,0,0,1,0,1.189Z" transform="translate(-156.601 -119.203)" fill="#19538d"/>
          <path id="Trazado_1283857" data-name="Trazado 1283857" d="M165.28,154.615a.974.974,0,1,1-1.742-.871l2.827-5.861a.973.973,0,0,1,1.759.818Z" transform="translate(-132.803 -119.771)" fill="#19538d"/>
          <path id="Trazado_1283858" data-name="Trazado 1283858" d="M40.4,74.95l-6.407,0a1.02,1.02,0,0,1-1.138-.916A1.053,1.053,0,0,1,33.8,73l6.584,0a1.083,1.083,0,0,1,.993.847A1,1,0,0,1,40.4,74.95" transform="translate(-26.69 -59.31)" fill="#19538d"/>
          <path id="Trazado_1283859" data-name="Trazado 1283859" d="M281.132,74.952l-6.513,0a1.024,1.024,0,0,1-.977-.91,1.01,1.01,0,0,1,1-1.044l6.582,0a1.12,1.12,0,0,1,.941.862.971.971,0,0,1-1.033,1.092" transform="translate(-222.335 -59.312)" fill="#19538d"/>
          <path id="Trazado_1283860" data-name="Trazado 1283860" d="M44.285,239.677l-6.344.032c-.37,0-.844-.546-.882-.89a1.158,1.158,0,0,1,.9-1.054l5.87-.013a1.23,1.23,0,0,1,1.062.736c.1.312-.187,1.188-.6,1.19" transform="translate(-30.108 -193.175)" fill="#19538d"/>
          <path id="Trazado_1283861" data-name="Trazado 1283861" d="M279.814,239.73l-6.048-.025c-.409,0-.75-.666-.721-1.029a1.125,1.125,0,0,1,.9-.9l6.053.01a1.145,1.145,0,0,1,.894,1.049,1.1,1.1,0,0,1-1.08.894" transform="translate(-221.851 -193.196)" fill="#19538d"/>
          <path id="Trazado_1283862" data-name="Trazado 1283862" d="M44.366,258.029l-6.172.045a1.027,1.027,0,0,1-1.072-.939,1.071,1.071,0,0,1,.916-1l5.84-.015a1.236,1.236,0,0,1,1.053.685c.122.3-.168,1.22-.565,1.223" transform="translate(-30.161 -208.102)" fill="#19538d"/>
          <path id="Trazado_1283863" data-name="Trazado 1283863" d="M280.348,258.041l-6.169.05a1,1,0,0,1-1.08-.939,1.018,1.018,0,0,1,1.088-1.012l5.66,0a1.306,1.306,0,0,1,1.055.694c.133.287-.188,1.2-.554,1.2" transform="translate(-221.895 -208.118)" fill="#19538d"/>
          <path id="Trazado_1283864" data-name="Trazado 1283864" d="M297.674,23.975a1.043,1.043,0,0,1,1.04,1.224c-.193.963-2.077,1-2.634.4a1.018,1.018,0,0,1,.212-1.43,3.243,3.243,0,0,1,1.382-.2" transform="translate(-240.404 -19.476)" fill="#19538d"/>
          <path id="Trazado_1283865" data-name="Trazado 1283865" d="M248.647,24.12a.99.99,0,0,1,.4,1.275,1.768,1.768,0,0,1-2.73-.087,1.085,1.085,0,0,1,.524-1.23,3.188,3.188,0,0,1,1.809.042" transform="translate(-200.095 -19.474)" fill="#19538d"/>
          <path id="Trazado_1283866" data-name="Trazado 1283866" d="M273.624,24.145a1,1,0,0,1,.146,1.4c-.625.6-2.439.576-2.615-.424A1.033,1.033,0,0,1,272.25,23.9a3.339,3.339,0,0,1,1.375.241" transform="translate(-220.304 -19.422)" fill="#19538d"/>
        </g>
      </g>
    </g>
  </g>
</svg>
