<svg xmlns="http://www.w3.org/2000/svg" xmlns:xlink="http://www.w3.org/1999/xlink" width="128" height="128" viewBox="0 0 128 128">
  <defs>
    <clipPath id="clip-path">
      <rect id="Rectángulo_465033" data-name="Rectángulo 465033" width="66" height="65.995" fill="#19538d"/>
    </clipPath>
  </defs>
  <g id="Grupo_1215156" data-name="Grupo 1215156" transform="translate(-383.746 -8400)">
    <circle id="Elipse_13890" data-name="Elipse 13890" cx="64" cy="64" r="64" transform="translate(383.746 8400)" fill="#5a9ad7"/>
    <path id="Intersección_1" data-name="Intersección 1" d="M23204.689,11774.869a64,64,0,0,1,106.254-48.067l-104.787,61.753A64.213,64.213,0,0,1,23204.689,11774.869Z" transform="translate(-22820.941 -3310.872)" fill="#19538d"/>
    <circle id="Elipse_13891" data-name="Elipse 13891" cx="54" cy="54" r="54" transform="translate(393.746 8410)" fill="#fff"/>
    <g id="Grupo_1188343" data-name="Grupo 1188343" transform="translate(-0.994 -0.997)">
      <rect id="Rectángulo_459838" data-name="Rectángulo 459838" width="66" height="66" transform="translate(415.74 8431.997)" fill="#fff"/>
      <g id="Grupo_1215165" data-name="Grupo 1215165" transform="translate(415.74 8431.997)">
        <g id="Grupo_1215164" data-name="Grupo 1215164" clip-path="url(#clip-path)">
          <path id="Trazado_1283841" data-name="Trazado 1283841" d="M35.242,65.905a23.278,23.278,0,0,1-4.858-.075,2.71,2.71,0,0,1-1.909-1.842l-1.294-3.236a30.157,30.157,0,0,1-5.031-2.058l-3.7,1.56a2.632,2.632,0,0,1-2.762-.728l-1.309-1.2L4.318,58.3A4.364,4.364,0,0,1,0,53.794L.008,4.341A4.365,4.365,0,0,1,4.528,0L61.667.006A4.332,4.332,0,0,1,66,4.336V53.984a4.209,4.209,0,0,1-3.955,4.26l-10.4.084-1.854,1.6a2.448,2.448,0,0,1-2.34.279L43.863,58.69a27.212,27.212,0,0,1-4.993,2.023l-1.5,3.665a2.522,2.522,0,0,1-2.124,1.527m28.527-57.1.041-4.316A2.189,2.189,0,0,0,61.469,2.21H4.539A2.179,2.179,0,0,0,2.2,4.495l.037,4.314ZM37.4,14.93l1.459,3.551a27.588,27.588,0,0,1,4.993,2.041l3.654-1.551a2.5,2.5,0,0,1,2.488.431,36.205,36.205,0,0,1,3.252,3.273,2.531,2.531,0,0,1,.273,2.709L52.068,28.8a25.767,25.767,0,0,1,2.091,4.975l3.489,1.405a2.528,2.528,0,0,1,1.606,1.957,17.484,17.484,0,0,1-.1,5.369c-.127.651-1,1.305-1.562,1.537L54.12,45.465a24.651,24.651,0,0,1-2.051,4.963L53.558,53.9a3.266,3.266,0,0,1,.015,2.2h8.109A2.184,2.184,0,0,0,63.8,53.787L63.776,11H2.216L2.208,53.788A2.186,2.186,0,0,0,4.325,56.1l8.115,0a3.252,3.252,0,0,1-.043-2.058l1.54-3.614a24.729,24.729,0,0,1-2.049-4.972L8.552,44.1c-.625-.253-1.545-.872-1.692-1.6a17.247,17.247,0,0,1-.108-5.361,2.517,2.517,0,0,1,1.609-1.956l3.487-1.407a25.744,25.744,0,0,1,2.087-4.965l-1.4-3.287a2.637,2.637,0,0,1,.308-2.961A40.846,40.846,0,0,1,16.01,19.41a2.54,2.54,0,0,1,2.771-.326l3.371,1.441a28.466,28.466,0,0,1,5-2.048l1.453-3.544a2.573,2.573,0,0,1,2.334-1.647c2.875-.169,5.6-.439,6.46,1.643M35.242,63.735l2.007-4.871a22.948,22.948,0,0,0,6.419-2.628l4.823,2a36.945,36.945,0,0,0,3.139-3.2l-2.016-4.769a22.574,22.574,0,0,0,2.668-6.435l4.81-1.965a24.79,24.79,0,0,0-.016-4.523l-4.818-1.983a22.677,22.677,0,0,0-2.642-6.433l2-4.733a21.965,21.965,0,0,0-3.205-3.2l-4.747,2a23.567,23.567,0,0,0-5.949-2.544,1.605,1.605,0,0,1-.718-.626l-1.722-4.285a23.987,23.987,0,0,0-4.539,0L29.016,19.8a1.642,1.642,0,0,1-.761.652,25.05,25.05,0,0,0-5.924,2.535l-4.771-2a27.182,27.182,0,0,0-3.179,3.2l2,4.726a23.143,23.143,0,0,0-2.632,6.432L8.888,37.39A36.9,36.9,0,0,0,8.9,41.862l4.825,1.964a22.709,22.709,0,0,0,2.662,6.435l-2.01,4.824a35.32,35.32,0,0,0,3.194,3.142l4.83-2a23.007,23.007,0,0,0,6.4,2.7l1.973,4.823Z" transform="translate(0 0)" fill="#19538d"/>
          <path id="Trazado_1283842" data-name="Trazado 1283842" d="M117.337,134.939a17.6,17.6,0,1,1-17.6-17.6,17.6,17.6,0,0,1,17.6,17.6m-2.206,0a15.394,15.394,0,1,0-15.394,15.394,15.394,15.394,0,0,0,15.394-15.394" transform="translate(-66.734 -95.336)" fill="#19538d"/>
          <path id="Trazado_1283843" data-name="Trazado 1283843" d="M289.341,25.543l-6.49.008a1.121,1.121,0,1,1,.015-2.238l6.545.011a1.283,1.283,0,0,1,1.064.983,1.118,1.118,0,0,1-1.134,1.236" transform="translate(-228.856 -18.941)" fill="#19538d"/>
          <path id="Trazado_1283844" data-name="Trazado 1283844" d="M25.657,25.593a8.438,8.438,0,0,1-1.639-.07c-.312-.05-.7-.7-.712-1-.014-.342.415-1.019.778-1.068a6.953,6.953,0,0,1,1.715-.018,1.1,1.1,0,0,1-.141,2.159" transform="translate(-18.935 -19.004)" fill="#19538d"/>
          <path id="Trazado_1283845" data-name="Trazado 1283845" d="M55.531,25.24a3.364,3.364,0,0,1-2.114-.038,1.123,1.123,0,0,1-.376-1.527A2.227,2.227,0,0,1,56,23.647a1.089,1.089,0,0,1-.465,1.593" transform="translate(-42.974 -18.769)" fill="#19538d"/>
          <path id="Trazado_1283846" data-name="Trazado 1283846" d="M84.943,25.172a3.1,3.1,0,0,1-2.246-.019,1.122,1.122,0,0,1-.354-1.46,2.105,2.105,0,0,1,3.015.018,1.051,1.051,0,0,1-.415,1.461" transform="translate(-66.792 -18.741)" fill="#19538d"/>
          <path id="Trazado_1283847" data-name="Trazado 1283847" d="M115.777,189.59l-2.212,0,.007,2.1a1.233,1.233,0,0,1-.953,1.206c-.412.09-1.243-.337-1.251-.927-.031-2.429-.068-4.759.035-7.164a3.279,3.279,0,0,1,6.531.139l.031,6.887a1.247,1.247,0,0,1-1,1.07,1.185,1.185,0,0,1-1.195-1.01Zm.017-2.216-.035-2.317a1.1,1.1,0,0,0-2.2.209l.023,2.12Z" transform="translate(-90.46 -147.778)" fill="#19538d"/>
          <path id="Trazado_1283848" data-name="Trazado 1283848" d="M160.571,191.646a1.142,1.142,0,0,1-1.083,1.232,1.207,1.207,0,0,1-1.119-1.087v-8.917a1.174,1.174,0,0,1,1.025-1.022l2.648.054a3.173,3.173,0,0,1,2.893,3.718,3.405,3.405,0,0,1-4.338,2.75Zm1.322-5.407c.39,0,.891-.688.889-1.067,0-.319-.376-1-.715-1.026l-1.489-.094-.01,2.2Z" transform="translate(-128.673 -147.753)" fill="#19538d"/>
          <path id="Trazado_1283849" data-name="Trazado 1283849" d="M211.086,192.856l-4.744.05a1.44,1.44,0,0,1-1.033-.872c-.1-.329.167-1.188.514-1.22l1.655-.153,0-6.513-1.3-.1a1.243,1.243,0,0,1-.9-1.106,1.141,1.141,0,0,1,1.246-1.067h4.161a1.184,1.184,0,0,1,1.216.942,1.156,1.156,0,0,1-.9,1.222l-1.311.1,0,6.523,1.216.034a1.283,1.283,0,0,1,1,.918c.093.371-.341,1.243-.825,1.248" transform="translate(-166.786 -147.769)" fill="#19538d"/>
        </g>
      </g>
    </g>
  </g>
</svg>
