<svg xmlns="http://www.w3.org/2000/svg" xmlns:xlink="http://www.w3.org/1999/xlink" width="96" height="96" viewBox="0 0 96 96">
  <defs>
    <clipPath id="clip-path">
      <rect id="Rectángulo_465056" data-name="Rectángulo 465056" width="48.067" height="48.067" fill="#19538d"/>
    </clipPath>
  </defs>
  <g id="Grupo_1215172" data-name="Grupo 1215172" transform="translate(0 0)">
    <circle id="Elipse_13890" data-name="Elipse 13890" cx="48" cy="48" r="48" transform="translate(0 0)" fill="#5a9ad7"/>
    <path id="Intersección_1" data-name="Intersección 1" d="M0,47.89A47.893,47.893,0,0,1,79.511,11.92L1.1,58.131A48,48,0,0,1,0,47.89Z" transform="translate(0.109 0.108)" fill="#19538d"/>
    <path id="Trazado_1032916" data-name="Trazado 1032916" d="M40,0A40,40,0,1,1,0,40,40,40,0,0,1,40,0Z" transform="translate(8 8)" fill="#e6f3ff"/>
    <g id="Grupo_1188343" data-name="Grupo 1188343" transform="translate(22.001 22)">
      <rect id="Rectángulo_459838" data-name="Rectángulo 459838" width="52" height="52" transform="translate(-2.001 -0.001)" fill="none"/>
      <g id="Grupo_1215182" data-name="Grupo 1215182" transform="translate(-0.001 1.999)">
        <g id="Grupo_1215181" data-name="Grupo 1215181" clip-path="url(#clip-path)">
          <path id="Trazado_1283883" data-name="Trazado 1283883" d="M46.463,173.227l-11.215,0v4.808h6.405v1.6l-7.289,0c-.4,0-.725-.487-.724-.845l.009-3.154-2.394.012-.006,3.228a.847.847,0,0,1-.813.761h-12.8a.847.847,0,0,1-.816-.759l-.007-3.229-2.392-.01,0,3.139a.84.84,0,0,1-.878.861l-12.811,0A.84.84,0,0,1,0,178.765V169.29a.836.836,0,0,1,.866-.873l5.543,0v-3.2l-5.693,0c-.4,0-.718-.472-.718-.866l0-9.475A.831.831,0,0,1,.88,154H13.543a.838.838,0,0,1,.88.862l0,4.736,2.394,0,0-4.83a.842.842,0,0,1,.818-.764h12.8a.842.842,0,0,1,.817.765l.006,4.828,2.392.005,0-4.737a.836.836,0,0,1,.88-.863H47.187a.833.833,0,0,1,.879.873v9.469a.84.84,0,0,1-.865.876l-5.544-.006v3.208l5.543,0a.838.838,0,0,1,.866.873v9.476a.857.857,0,0,1-.716.863l-4.091.008V178.03l3.2,0ZM12.819,155.6H1.6v1.6H12.819Zm16.813,0h-11.2v1.61h11.2Zm16.831,0H35.248v1.6H46.463Zm-33.644,3.2H1.6v4.806H12.819Zm16.813,0h-11.2v4.814h11.2Zm16.831,0H35.248v4.806H46.463ZM16.821,174l-.011-4.818a.9.9,0,0,1,.811-.764l5.6.008v-3.21l-5.6,0a.871.871,0,0,1-.8-.761l-.006-3.229-2.393-.011,0,3.141a.847.847,0,0,1-.866.862l-5.545-.006v3.208l5.544,0a.845.845,0,0,1,.868.861l0,4.743Zm16.83,0-.009-4.728a.846.846,0,0,1,.868-.857l5.544,0v-3.209l-5.548.008a.846.846,0,0,1-.864-.864l.005-3.141-2.39.015-.016,3.345c0,.224-.431.581-.657.643l-5.741,0v3.208l5.6,0a.863.863,0,0,1,.8.766l.006,4.834Zm-20.832-3.982H1.6v1.6H12.819Zm16.813,0h-11.2v1.61h11.2Zm16.831,0H35.248v1.6H46.463Zm-33.644,3.2H1.6v4.806H12.819Zm16.813,0h-11.2v4.814h11.2Z" transform="translate(0 -131.57)" fill="#19538d"/>
          <path id="Trazado_1283884" data-name="Trazado 1283884" d="M62.683,0c.674,0,.981.327.981.889V20.036h-1.6V6.408H23.612V20.816l-1.6,0V.886A.831.831,0,0,1,22.878,0h7.137l0,1.6H23.608l.012,3.2H62.054l0-3.2H31.64l0-1.6Z" transform="translate(-18.803)" fill="#19538d"/>
          <path id="Trazado_1283885" data-name="Trazado 1283885" d="M128.9,71.668H116.418a.881.881,0,0,1-.977-.974V61.407a.881.881,0,0,1,.978-.974H128.9a.882.882,0,0,1,.978.974v9.288a.882.882,0,0,1-.978.973m-.644-9.614h-11.2v1.587h11.2Zm0,3.2h-11.2V70.05h11.2Z" transform="translate(-98.627 -51.631)" fill="#19538d"/>
          <path id="Trazado_1283886" data-name="Trazado 1283886" d="M51.049,106.034l-.024,4-1.608.006-.011-4.652a.893.893,0,0,1,.974-.972l7.055.007.006,1.618Z" transform="translate(-42.209 -89.205)" fill="#19538d"/>
          <path id="Trazado_1283887" data-name="Trazado 1283887" d="M233.5,110.023l-1.613.015-.009-4-6.4,0,0-1.616,7.055-.007a.893.893,0,0,1,.973.97Z" transform="translate(-192.635 -89.203)" fill="#19538d"/>
          <rect id="Rectángulo_465052" data-name="Rectángulo 465052" width="1.602" height="1.619" transform="translate(6.41 2.395)" fill="#19538d"/>
          <rect id="Rectángulo_465053" data-name="Rectángulo 465053" width="1.602" height="1.619" transform="translate(9.615 2.395)" fill="#19538d"/>
          <rect id="Rectángulo_465054" data-name="Rectángulo 465054" width="1.602" height="1.619" transform="translate(12.819 2.395)" fill="#19538d"/>
          <rect id="Rectángulo_465055" data-name="Rectángulo 465055" width="1.602" height="1.619" transform="translate(40.054 2.395)" fill="#19538d"/>
        </g>
      </g>
    </g>
  </g>
</svg>
