<svg xmlns="http://www.w3.org/2000/svg" xmlns:xlink="http://www.w3.org/1999/xlink" width="96" height="96" viewBox="0 0 96 96">
  <defs>
    <clipPath id="clip-path">
      <rect id="Rectángulo_465062" data-name="Rectángulo 465062" width="48.024" height="49.368" fill="#19538d"/>
    </clipPath>
  </defs>
  <g id="Grupo_1215175" data-name="Grupo 1215175" transform="translate(0 0)">
    <circle id="Elipse_13890" data-name="Elipse 13890" cx="48" cy="48" r="48" transform="translate(0 0)" fill="#5a9ad7"/>
    <path id="Intersección_1" data-name="Intersección 1" d="M0,47.89A47.893,47.893,0,0,1,79.511,11.92L1.1,58.131A48,48,0,0,1,0,47.89Z" transform="translate(0.109 0.108)" fill="#19538d"/>
    <path id="Trazado_1032916" data-name="Trazado 1032916" d="M40,0A40,40,0,1,1,0,40,40,40,0,0,1,40,0Z" transform="translate(8 8)" fill="#e6f3ff"/>
    <g id="Grupo_1188343" data-name="Grupo 1188343" transform="translate(22.001 22)">
      <rect id="Rectángulo_459838" data-name="Rectángulo 459838" width="52" height="52" transform="translate(-0.001 -0.001)" fill="none"/>
      <g id="Grupo_1215187" data-name="Grupo 1215187" transform="translate(2 1)">
        <g id="Grupo_1215186" data-name="Grupo 1215186" clip-path="url(#clip-path)">
          <path id="Trazado_1283912" data-name="Trazado 1283912" d="M17.963,31.712a.638.638,0,0,1-.612-.637.705.705,0,0,1,.658-.675H46.687V7.072A2.013,2.013,0,0,0,44.576,5.1L30.93,5.1V26.582a1.325,1.325,0,0,1-1.348,1.325H6.983a1.415,1.415,0,0,1-1.427-1.484V5.126L3.278,5.11A1.959,1.959,0,0,0,1.349,7.068l0,23.323L3.19,30.4a.769.769,0,0,1,.692.537.661.661,0,0,1-.575.777l-1.966.013.018,4.723a2.02,2.02,0,0,0,2.073,1.973.809.809,0,0,1,.607.62.735.735,0,0,1-.748.7A3.345,3.345,0,0,1,0,36.424V7.071a3.288,3.288,0,0,1,2.837-3.26,18.723,18.723,0,0,1,2.7-.025l.035-2.42A1.407,1.407,0,0,1,7.129,0L29.437,0a1.356,1.356,0,0,1,1.477,1.326l.041,2.428,13.93.019a3.284,3.284,0,0,1,3.14,3.293l-.011,29.509a3.252,3.252,0,0,1-3.122,3.137l-15.058.024,3.018,4.481,2.33.048C37,44.3,38.1,46.122,37.744,48.01l3.049.024a.8.8,0,0,1,.734.529.687.687,0,0,1-.644.8l-33.6,0a.675.675,0,1,1-.046-1.335L10.283,48a2.952,2.952,0,0,1,2.564-3.736l2.36-.081,2.985-4.44a1.616,1.616,0,0,1-1.151-.329c-.186-.188,0-.982.324-1.008L44.86,38.4a2.042,2.042,0,0,0,1.824-2.1l-.01-4.587Zm11.642-30.4H6.95V5.287H29.606Zm-22.67,5.3L6.916,26.567l22.671.021.019-19.956Zm24.3,37.619-3.041-4.5H19.835l-3.041,4.494Zm5.2,3.817c.268-1.144-.283-2.466-1.425-2.466l-22.122.012c-1.132,0-1.564,1.544-1.293,2.454Z" transform="translate(0)" fill="#19538d"/>
          <path id="Trazado_1283913" data-name="Trazado 1283913" d="M32.264,207.527c-.137.941-.736,1.073-1.536,1.062-.719-.009-1.284-.147-1.4-1.042a1.353,1.353,0,0,0-1.7-.715,1.232,1.232,0,0,1-1.811-.293c-.22-.244-.569-.611-.576-.884a3.274,3.274,0,0,1,.4-1.2,1.865,1.865,0,0,0-.546-1.263,4.946,4.946,0,0,1-1.068-.519,2.115,2.115,0,0,1-.3-1.151,1.294,1.294,0,0,1,1.32-1.478c1.117-1.34.306-1.563.193-2.451-.064-.5,1.025-1.571,1.472-1.589.813-.033,1.3,1.033,2.544-.223a1.288,1.288,0,0,1,1.506-1.261,2.49,2.49,0,0,1,1.116.273,3.414,3.414,0,0,1,.5.991,1.493,1.493,0,0,0,1.317.594L34.775,196c.275-.1.744.367.993.57a1.372,1.372,0,0,1,.22,2.018,1.58,1.58,0,0,0,.6,1.433,1.362,1.362,0,0,1,1.277,1.473,1.388,1.388,0,0,1-1.293,1.606c-1.2,1.25-.227,1.65-.232,2.567,0,.288-.384.673-.624.94a1.194,1.194,0,0,1-1.731.241,1.339,1.339,0,0,0-1.72.68m-.381-1.648,1.462-.6c.466-.193,1.612.721,1.532.273-.118-.661-.49-.943-.423-1.366l.759-1.779c.222-.521,1.064-.385,1.3-.836.165-.311-1.087-.316-1.3-.831l-.749-1.8c.058-.626.664-1.626.268-1.487l-.323.114-.967.358-1.8-.778c-.615-.265-.517-1.471-.84-1.3-.488.263-.305,1.082-.847,1.3l-1.771.729c-.689.012-1.707-.773-1.507-.251l.127.332.345.962-.814,1.874c-.19.438-1.466.511-1.266.773.372.488,1.09.308,1.315.839l.765,1.81a6.2,6.2,0,0,1-.48,1.161l.184.263c.126.18.9-.58,1.408-.364l1.768.751c.452.192.326,1.123.776,1.246.41.112.044-.967,1.078-1.394" transform="translate(-20.236 -165.932)" fill="#19538d"/>
          <path id="Trazado_1283914" data-name="Trazado 1283914" d="M239.776,63.641a1.259,1.259,0,0,1-1.246,1.328l-7.867.009a1.279,1.279,0,0,1-1.35-1.277V55.782a1.253,1.253,0,0,1,1.334-1.255h7.794a1.268,1.268,0,0,1,1.332,1.116Zm-1.315-7.779h-7.785v7.764h7.785Z" transform="translate(-195.619 -46.515)" fill="#19538d"/>
          <rect id="Rectángulo_465058" data-name="Rectángulo 465058" width="11.022" height="1.323" transform="matrix(1, -0.002, 0.002, 1, 32.917, 20.997)" fill="#19538d"/>
          <rect id="Rectángulo_465059" data-name="Rectángulo 465059" width="11.022" height="1.366" transform="translate(32.918 26.099)" fill="#19538d"/>
          <path id="Trazado_1283915" data-name="Trazado 1283915" d="M234.708,161.407l-9.908,0a.761.761,0,0,1-.775-.535.708.708,0,0,1,.637-.8l9.707,0a.983.983,0,0,1,.647.461.969.969,0,0,1-.308.87" transform="translate(-191.099 -136.555)" fill="#19538d"/>
          <path id="Trazado_1283916" data-name="Trazado 1283916" d="M153.578,235.465h-2.414a.724.724,0,0,1-.7-.694.713.713,0,0,1,.71-.657l2.393,0a.678.678,0,1,1,.009,1.355" transform="translate(-128.357 -199.71)" fill="#19538d"/>
          <rect id="Rectángulo_465060" data-name="Rectángulo 465060" width="11.921" height="1.353" transform="translate(15.118 17.103)" fill="#19538d"/>
          <path id="Trazado_1283917" data-name="Trazado 1283917" d="M105.577,78.773l-10.525-.009c-.266,0-.611-.4-.634-.621a.81.81,0,0,1,.64-.735l10.732.005c.273,0,.592.53.568.767a.777.777,0,0,1-.781.593" transform="translate(-80.543 -66.034)" fill="#19538d"/>
          <path id="Trazado_1283918" data-name="Trazado 1283918" d="M105.666,59.419l-10.447,0a.729.729,0,0,1-.716-.688.712.712,0,0,1,.724-.652l10.713.008c.3,0,.544.56.483.787a.816.816,0,0,1-.757.547" transform="translate(-80.617 -49.542)" fill="#19538d"/>
          <rect id="Rectángulo_465061" data-name="Rectángulo 465061" width="1.365" height="11.907" transform="translate(13.882 21.997) rotate(-89.856)" fill="#19538d"/>
          <path id="Trazado_1283919" data-name="Trazado 1283919" d="M105.792,161.424H94.854a1.038,1.038,0,0,1-.452-.655c0-.221.369-.672.608-.672l10.692,0a.827.827,0,0,1,.631.526.76.76,0,0,1-.541.805" transform="translate(-80.531 -136.569)" fill="#19538d"/>
          <path id="Trazado_1283920" data-name="Trazado 1283920" d="M114.128,98.292l-10.723.009a.905.905,0,0,1-.674-.546c-.069-.228.276-.772.551-.772l10.846,0c.217,0,.554.472.561.682s-.329.63-.561.63" transform="translate(-87.628 -82.731)" fill="#19538d"/>
          <path id="Trazado_1283921" data-name="Trazado 1283921" d="M75.81,98.331c-1.428.163-2.616.256-2.607-.609a.775.775,0,0,1,.609-.641l1.652-.012a1.1,1.1,0,0,1,.621.447c.11.182-.065.791-.276.815" transform="translate(-62.446 -82.806)" fill="#19538d"/>
          <path id="Trazado_1283922" data-name="Trazado 1283922" d="M75.471,117.944l-1.663-.007a.726.726,0,0,1-.6-.621c-.006-.256.32-.7.574-.7L75.5,116.6a.768.768,0,0,1,.635.7.809.809,0,0,1-.664.643" transform="translate(-62.454 -99.466)" fill="#19538d"/>
          <path id="Trazado_1283923" data-name="Trazado 1283923" d="M67.446,142.1l-1.711.054a.735.735,0,0,1-.779-.657.7.7,0,0,1,.782-.687l1.393,0a1.084,1.084,0,0,1,.7.422c.12.206-.117.864-.385.873" transform="translate(-55.412 -120.116)" fill="#19538d"/>
          <path id="Trazado_1283924" data-name="Trazado 1283924" d="M67.414,161.484c-1.476.141-2.571.207-2.509-.65.013-.181.254-.592.444-.6l1.838-.043a.909.909,0,0,1,.635.5c.071.194-.194.769-.407.79" transform="translate(-55.366 -136.655)" fill="#19538d"/>
          <path id="Trazado_1283925" data-name="Trazado 1283925" d="M67.358,59.5l-1.8.024c-.289,0-.627-.423-.615-.712a.786.786,0,0,1,.64-.641l1.646,0a.916.916,0,0,1,.633.5c.076.225-.258.82-.508.823" transform="translate(-55.403 -49.628)" fill="#19538d"/>
          <path id="Trazado_1283926" data-name="Trazado 1283926" d="M67.325,79.027l-1.753.021c-.253,0-.62-.406-.628-.65a.73.73,0,0,1,.627-.705l1.672.008c.223,0,.573.364.626.566.062.234-.275.758-.544.761" transform="translate(-55.401 -66.276)" fill="#19538d"/>
          <path id="Trazado_1283927" data-name="Trazado 1283927" d="M90.017,18.107c.212.077.346.648.258.835a1.068,1.068,0,0,1-.861.431.931.931,0,0,1-.836-.456.8.8,0,0,1,.311-.829,1.8,1.8,0,0,1,1.127.019" transform="translate(-75.542 -15.361)" fill="#19538d"/>
          <path id="Trazado_1283928" data-name="Trazado 1283928" d="M57.2,18.076c.205.072.35.653.258.843a1.05,1.05,0,0,1-.886.422,1.009,1.009,0,0,1-.8-.461.8.8,0,0,1,.3-.806,1.636,1.636,0,0,1,1.131,0" transform="translate(-47.553 -15.333)" fill="#19538d"/>
          <path id="Trazado_1283929" data-name="Trazado 1283929" d="M73.677,18.037a.809.809,0,0,1,.347.821,1.013,1.013,0,0,1-.795.451,1.255,1.255,0,0,1-.837-.319c-.149-.2-.052-.821.171-.924a1.438,1.438,0,0,1,1.114-.029" transform="translate(-61.694 -15.302)" fill="#19538d"/>
          <path id="Trazado_1283930" data-name="Trazado 1283930" d="M57.3,224.888a3.02,3.02,0,1,1-3.02-3.019,3.02,3.02,0,0,1,3.02,3.019m-1.329-.006a1.681,1.681,0,1,0-1.681,1.681,1.681,1.681,0,0,0,1.681-1.681" transform="translate(-43.731 -189.268)" fill="#19538d"/>
          <path id="Trazado_1283931" data-name="Trazado 1283931" d="M255.959,82.151l-1.71-1.667-.256,1.01c-.05.2-.648.283-.812.168a1.119,1.119,0,0,1-.386-.679v-2.2a.779.779,0,0,1,.8-.739l2.492.071c.325.009.533.742.337.944a1.934,1.934,0,0,1-1.271.39l1.74,1.78a.907.907,0,0,1-.021.845.84.84,0,0,1-.915.08" transform="translate(-215.65 -66.573)" fill="#19538d"/>
        </g>
      </g>
    </g>
  </g>
</svg>
