<svg xmlns="http://www.w3.org/2000/svg" xmlns:xlink="http://www.w3.org/1999/xlink" width="150" height="150" viewBox="0 0 150 150">
  <defs>
    <clipPath id="clip-path">
      <rect id="Rectángulo_455533" data-name="Rectángulo 455533" width="150" height="143.878" fill="#19538d"/>
    </clipPath>
    <clipPath id="clip-path-2">
      <rect id="Rectángulo_456576" data-name="Rectángulo 456576" width="76.517" height="76.389" fill="#19538d"/>
    </clipPath>
  </defs>
  <g id="Grupo_1179979" data-name="Grupo 1179979" transform="translate(-383.746 -8398.999)">
    <circle id="Elipse_13674" data-name="Elipse 13674" cx="63.5" cy="63.5" r="63.5" transform="translate(394.746 8410.999)" fill="#fff"/>
    <g id="Grupo_1179062" data-name="Grupo 1179062" transform="translate(383.746 8399)">
      <rect id="Rectángulo_455531" data-name="Rectángulo 455531" width="150" height="150" transform="translate(0 -0.001)" fill="none"/>
      <g id="Grupo_1179061" data-name="Grupo 1179061" transform="translate(0 3.516)">
        <path id="Trazado_998445" data-name="Trazado 998445" d="M125.035,98.509H96.727l3.837-7.155h28.308Z" transform="translate(16.625 15.701)" fill="#62249e"/>
        <path id="Trazado_998446" data-name="Trazado 998446" d="M2.327,86.893,0,91.629H31.21l2.327-4.736Z" transform="translate(0 14.935)" fill="#19538d"/>
        <path id="Trazado_998447" data-name="Trazado 998447" d="M128.7,33.274H98.809l2.344-5.307h29.889Z" transform="translate(16.983 4.807)" fill="#19538d"/>
        <path id="Trazado_998448" data-name="Trazado 998448" d="M42.747,13.528H3.483L5.827,8.221H45.09Z" transform="translate(0.599 1.413)" fill="#19538d"/>
        <g id="Grupo_1179060" data-name="Grupo 1179060" transform="translate(0)">
          <g id="Grupo_1179059" data-name="Grupo 1179059" clip-path="url(#clip-path)">
            <path id="Trazado_998449" data-name="Trazado 998449" d="M74.551,127.143A63.645,63.645,0,0,1,12.5,49.237H4.028a71.934,71.934,0,0,0,126.553,59.34h-11.1a63.462,63.462,0,0,1-44.933,18.566" transform="translate(0.449 8.463)" fill="#19538d"/>
            <path id="Trazado_998450" data-name="Trazado 998450" d="M110.835,89.59h9.414c.756-1.5,1.443-3.048,2.094-4.61h-9.05c-.761,1.573-1.575,3.112-2.457,4.61" transform="translate(19.05 14.606)" fill="#19538d"/>
            <path id="Trazado_998451" data-name="Trazado 998451" d="M146.016,71.939A71.95,71.95,0,0,0,5.373,50.544h8.733a63.668,63.668,0,1,1,119.04,45.138h8.82a71.622,71.622,0,0,0,4.05-23.743" transform="translate(0.923)" fill="#19538d"/>
            <path id="Trazado_998452" data-name="Trazado 998452" d="M108.562,81.649v3.9h5.121q.928-1.918,1.729-3.9Z" transform="translate(18.659 14.033)" fill="#19538d"/>
            <path id="Trazado_998453" data-name="Trazado 998453" d="M129.262,81.649h-7.111q-.694,1.979-1.5,3.9h8.607Z" transform="translate(20.738 14.033)" fill="#19538d"/>
          </g>
        </g>
        <path id="Trazado_998444" data-name="Trazado 998444" d="M3.515,37.025,0,44.18H21.25l3.516-7.155Z" transform="translate(0 6.364)" fill="#62249e"/>
      </g>
    </g>
    <g id="Grupo_1177669" data-name="Grupo 1177669" transform="translate(422.603 8433.838)">
      <g id="Grupo_1099618" data-name="Grupo 1099618" transform="translate(0 0)">
        <rect id="Rectángulo_401104" data-name="Rectángulo 401104" width="79.898" height="80.861" transform="translate(0)" fill="none"/>
      </g>
      <g id="Grupo_1180021" data-name="Grupo 1180021" transform="translate(1.874 1.606)">
        <g id="Grupo_1180018" data-name="Grupo 1180018" clip-path="url(#clip-path-2)">
          <path id="Trazado_999543" data-name="Trazado 999543" d="M.033,26.123A28.894,28.894,0,0,1,14.572,3.575a28.381,28.381,0,0,1,39.54,12.852c.208.043.19.029.309-.095.507-.531.972-1.519,1.534-2.089a7.183,7.183,0,0,1,4.354-1.991H73.9c.346.307.245.97.23,1.424a15.315,15.315,0,0,1-2.061,7.006c2.071,1.362,4.121,3.791,4.446,6.337V29.7a8.713,8.713,0,0,1-4.481,6.118,16.454,16.454,0,0,1,2.091,8.5H59.263c-1.175,0-3.047-1.607-3.8-2.465-.36-.408-.709-1.122-1.038-1.466-.119-.124-.1-.137-.309-.095a27.372,27.372,0,0,1-9.871,11.569L56.35,76.388H47.238l-4.631-9.844H32.15v9.844H24.681V66.544H14.224l-4.78,9.844H.481L12.59,51.862A28.412,28.412,0,0,1,.676,34.5L.033,30.747c.075-1.514-.1-3.121,0-4.624m45.711,8.353H40.59a13.609,13.609,0,1,1,0-12.231h5.154C43,13.6,33.851,8.565,24.949,10.208A18.7,18.7,0,0,0,9.892,29.554L7.5,29.7A20.969,20.969,0,0,1,23.213,8.027c10.317-2.581,20.119,2.594,24.5,12.029.207.446.646,2.053.969,2.164a2.112,2.112,0,0,0,1.331-.114,26.5,26.5,0,0,0,2.421-3.339,25.848,25.848,0,1,0,0,19.187,25.666,25.666,0,0,0-2.28-3.187c-.516-.471-1.056-.278-1.71-.277a20.972,20.972,0,0,1-24.366,14.38,21.238,21.238,0,0,1-13.356-9.187c-.207-.329-1.237-1.969-1.07-2.227l2.176-1.042a18.36,18.36,0,0,0,21.59,9.7A18.087,18.087,0,0,0,45.744,34.476M61.728,14.787l-2.39.149v7.309a4.369,4.369,0,0,0,2.39-.97Zm4.93,0h-2.39v5.519l2.138-.475.252-.2Zm4.78,0H69.2v5.071c.674.053,1.125-1.139,1.37-1.689a9.457,9.457,0,0,0,.87-3.382m-33.91,7.458a8.447,8.447,0,0,0-2.253-2.6c-6.309-5.04-16.088-1.549-17.694,6.321C15.242,37.42,29.652,44.227,36.926,35.441a2.485,2.485,0,0,0,.6-.965H32.822c-2.176-1.326-8.49-2.454-9.93-4.255a3.083,3.083,0,0,1,.839-4.524c2.328-1.43,6.574-2.063,9.091-3.452Zm15.685,0h3.361l.224-.224V17.472Zm8.515,10.292c2.806,1.337,5.518,2.772,8.662,1.415a6.166,6.166,0,0,0,2.089-9.688c-2.857-3.25-7.57-2.127-10.751,0v2.908h2.465c.635-.8.972-1.6,1.937-2.094a3.727,3.727,0,0,1,4.623,5.66,3.688,3.688,0,0,1-6.336-1.18H61.728Zm-12.4-7.905H34.54v2.312l.224.224h2.315v2.387H34.764a3.071,3.071,0,0,0,0,2.536H49.329V29.554H39.469V27.167h9.859Zm4.93,0h-2.39v7.458h2.39Zm4.93,0H56.8v7.458h2.39Zm-27.038.6-2.519.915.068,4.471,2.451.729Zm-4.93,1.939c-.51.024-3.442.844-2.288,1.652l2.288.735Zm40.293.03a1.227,1.227,0,0,0,.129,2.353,1.21,1.21,0,1,0-.129-2.353M56.8,34.476H53.213L56.8,39.249Zm4.93.746c-.847-.2-1.456-.92-2.39-.746v7.309l2.39.149Zm4.93,1.641a7.628,7.628,0,0,1-2.39-.447v5.519h2.39Zm4.78,5.071a8.927,8.927,0,0,0-.87-3.382c-.245-.55-.7-1.742-1.37-1.69v5.071ZM7.95,73.853l9.4-19.318-2.592-1.27L4.514,73.853Zm41.006,0h3.212L42.077,53.265c-.633.415-1.8.691-2.368,1.065-.13.085-.262.145-.221.329ZM24.681,56.4l-4.931-.981-4.182,8.588h9.112Zm16.582,7.607-4.182-8.588a29.531,29.531,0,0,1-4.931.981v7.607ZM29.61,56.7H27.22v7.309h2.39Zm0,9.844H27.22v7.309h2.39Z" transform="translate(0 0)" fill="#19538d"/>
        </g>
      </g>
    </g>
  </g>
</svg>
