<svg xmlns="http://www.w3.org/2000/svg" xmlns:xlink="http://www.w3.org/1999/xlink" width="150" height="150" viewBox="0 0 150 150">
  <defs>
    <clipPath id="clip-path">
      <rect id="Rectángulo_455533" data-name="Rectángulo 455533" width="150" height="143.878" fill="#19538d"/>
    </clipPath>
    <clipPath id="clip-path-2">
      <rect id="Rectángulo_456577" data-name="Rectángulo 456577" width="75.701" height="75.409" fill="#19538d"/>
    </clipPath>
  </defs>
  <g id="Grupo_1179980" data-name="Grupo 1179980" transform="translate(-383.746 -8398.999)">
    <circle id="Elipse_13674" data-name="Elipse 13674" cx="63.5" cy="63.5" r="63.5" transform="translate(394.746 8410.999)" fill="#fff"/>
    <g id="Grupo_1179062" data-name="Grupo 1179062" transform="translate(383.746 8399)">
      <rect id="Rectángulo_455531" data-name="Rectángulo 455531" width="150" height="150" transform="translate(0 -0.001)" fill="none"/>
      <g id="Grupo_1179061" data-name="Grupo 1179061" transform="translate(0 3.516)">
        <path id="Trazado_998445" data-name="Trazado 998445" d="M125.035,98.509H96.727l3.837-7.155h28.308Z" transform="translate(16.625 15.701)" fill="#62249e"/>
        <path id="Trazado_998446" data-name="Trazado 998446" d="M2.327,86.893,0,91.629H31.21l2.327-4.736Z" transform="translate(0 14.935)" fill="#19538d"/>
        <path id="Trazado_998447" data-name="Trazado 998447" d="M128.7,33.274H98.809l2.344-5.307h29.889Z" transform="translate(16.983 4.807)" fill="#19538d"/>
        <path id="Trazado_998448" data-name="Trazado 998448" d="M42.747,13.528H3.483L5.827,8.221H45.09Z" transform="translate(0.599 1.413)" fill="#19538d"/>
        <g id="Grupo_1179060" data-name="Grupo 1179060" transform="translate(0)">
          <g id="Grupo_1179059" data-name="Grupo 1179059" clip-path="url(#clip-path)">
            <path id="Trazado_998449" data-name="Trazado 998449" d="M74.551,127.143A63.645,63.645,0,0,1,12.5,49.237H4.028a71.934,71.934,0,0,0,126.553,59.34h-11.1a63.462,63.462,0,0,1-44.933,18.566" transform="translate(0.449 8.463)" fill="#19538d"/>
            <path id="Trazado_998450" data-name="Trazado 998450" d="M110.835,89.59h9.414c.756-1.5,1.443-3.048,2.094-4.61h-9.05c-.761,1.573-1.575,3.112-2.457,4.61" transform="translate(19.05 14.606)" fill="#19538d"/>
            <path id="Trazado_998451" data-name="Trazado 998451" d="M146.016,71.939A71.95,71.95,0,0,0,5.373,50.544h8.733a63.668,63.668,0,1,1,119.04,45.138h8.82a71.622,71.622,0,0,0,4.05-23.743" transform="translate(0.923)" fill="#19538d"/>
            <path id="Trazado_998452" data-name="Trazado 998452" d="M108.562,81.649v3.9h5.121q.928-1.918,1.729-3.9Z" transform="translate(18.659 14.033)" fill="#19538d"/>
            <path id="Trazado_998453" data-name="Trazado 998453" d="M129.262,81.649h-7.111q-.694,1.979-1.5,3.9h8.607Z" transform="translate(20.738 14.033)" fill="#19538d"/>
          </g>
        </g>
        <path id="Trazado_998444" data-name="Trazado 998444" d="M3.515,37.025,0,44.18H21.25l3.516-7.155Z" transform="translate(0 6.364)" fill="#62249e"/>
      </g>
    </g>
    <g id="Grupo_1177669" data-name="Grupo 1177669" transform="translate(418.603 8433.838)">
      <g id="Grupo_1099618" data-name="Grupo 1099618" transform="translate(0 0)">
        <rect id="Rectángulo_401104" data-name="Rectángulo 401104" width="79.898" height="80.861" transform="translate(0)" fill="none"/>
      </g>
      <g id="Grupo_1180020" data-name="Grupo 1180020" transform="translate(1.251 0.726)">
        <g id="Grupo_1180020-2" data-name="Grupo 1180020" clip-path="url(#clip-path-2)">
          <path id="Trazado_999544" data-name="Trazado 999544" d="M22.259,67.923a4.114,4.114,0,0,1-2.791-2.97l-.03-23.7C2.307,40.089-6.364,19.6,5.428,6.671c10.95-12,31.068-7.019,35.177,8.642.355,1.354.426,2.755.773,4.1l14.668-.03,2.522-7.257H75.7L72.965,20.55,75.7,29.111H58.569l-2.522-7.257-14.668-.03c-.347,1.349-.418,2.75-.773,4.1A20.857,20.857,0,0,1,21.88,41.24v4.851H36.435V41.619c0-.987,2-2.87,3.107-2.805l25.62,0A10.768,10.768,0,0,1,70.3,41.073l2.88-3,1.763,1.579L71.827,43.2a8.593,8.593,0,0,1-6.809,12.6c-8.187.642-17.2-.492-25.476-.005-1.107.065-3.107-1.819-3.107-2.805V48.517H21.88V64.512a1.641,1.641,0,0,0,.985.985H36.435V61.025c0-.987,2-2.87,3.107-2.805l25.62,0A10.768,10.768,0,0,1,70.3,60.479l2.88-3,1.763,1.579L71.827,62.6a8.593,8.593,0,0,1-6.809,12.6c-8.187.642-17.2-.492-25.476,0-1.107.065-3.107-1.819-3.107-2.805V67.923Zm16.45-48.515C37.916,5.361,21.794-2.434,10.158,5.791a18.2,18.2,0,0,0,.727,30.145c11.629,7.469,27.089-.46,27.824-14.1h-4.7a13.382,13.382,0,1,1,0-2.426Zm-7.277,0a10.881,10.881,0,1,0,0,2.426H29.006a8.406,8.406,0,0,1-12.586,6.143,8.509,8.509,0,0,1-.472-14.425,8.417,8.417,0,0,1,13.058,5.856Zm-4.851,0c-1.74-7.894-13.605-5.289-11.78,2.608,1.454,6.293,10.493,6.073,11.78-.182H19.454V19.408Zm38.509-4.851H60.465l-1.743,4.851h4.624Zm7.277,0H67.742L66,19.408h4.624ZM65.089,26.686l-1.743-4.852H58.721l1.743,4.852Zm7.277,0-1.743-4.852H66l1.743,4.852ZM58.266,41.24H39.846c-.535,0-.935.793-.99,1.285a66.97,66.97,0,0,0,0,9.411c.049.536.366,1.433.994,1.433h18.42a8.8,8.8,0,0,1,0-12.129m11.825,4.094c-.253-.057-.307.081-.451.23-1.072,1.1-2.968,3.84-4.1,4.54-2.366,1.46-4.182-1.924-5.753-3.178l1.741-1.741,2.729,2.724L68.569,43a6.039,6.039,0,0,0-9.811,6.618,5.823,5.823,0,0,0,3.15,3.217,6.081,6.081,0,0,0,8.183-7.5M58.266,60.646H39.846c-.535,0-.935.793-.99,1.285a66.971,66.971,0,0,0,0,9.411c.049.536.366,1.433.994,1.433h18.42a8.8,8.8,0,0,1,0-12.129M70.091,64.74c-.253-.057-.307.081-.451.23-1.072,1.1-2.968,3.84-4.1,4.54-2.366,1.46-4.182-1.924-5.753-3.178l1.741-1.741,2.729,2.723,4.314-4.908a6.039,6.039,0,0,0-9.811,6.618,5.823,5.823,0,0,0,3.15,3.217,6.081,6.081,0,0,0,8.183-7.5" transform="translate(0 0)" fill="#19538d"/>
        </g>
      </g>
    </g>
  </g>
</svg>
