<svg xmlns="http://www.w3.org/2000/svg" xmlns:xlink="http://www.w3.org/1999/xlink" width="96" height="96" viewBox="0 0 96 96">
  <defs>
    <clipPath id="clip-path">
      <rect id="Rectángulo_455533" data-name="Rectángulo 455533" width="95.999" height="92.163" fill="#19538d"/>
    </clipPath>
    <clipPath id="clip-path-2">
      <rect id="Rectángulo_456578" data-name="Rectángulo 456578" width="52.751" height="46.125" fill="#fff"/>
    </clipPath>
  </defs>
  <g id="Grupo_1180034" data-name="Grupo 1180034" transform="translate(-789.711 -4186)">
    <g id="Grupo_1180040" data-name="Grupo 1180040">
      <g id="Grupo_1179986" data-name="Grupo 1179986" transform="translate(405.965 -4213)">
        <circle id="Elipse_13674" data-name="Elipse 13674" cx="41.5" cy="41.5" r="41.5" transform="translate(389.746 8406)" fill="#19538d"/>
        <g id="Grupo_1179062" data-name="Grupo 1179062" transform="translate(383.745 8399)">
          <rect id="Rectángulo_455531" data-name="Rectángulo 455531" width="96" height="96" transform="translate(0 0)" fill="none"/>
          <g id="Grupo_1179061" data-name="Grupo 1179061" transform="translate(0 2.203)">
            <path id="Trazado_998445" data-name="Trazado 998445" d="M114.467,95.838H96.727l2.4-4.484h17.739Z" transform="translate(-23.693 -22.7)" fill="#19538d"/>
            <path id="Trazado_998446" data-name="Trazado 998446" d="M1.458,86.893,0,89.861H19.558l1.458-2.968Z" transform="translate(0 -21.618)" fill="#19538d"/>
            <path id="Trazado_998447" data-name="Trazado 998447" d="M117.539,31.293H98.809l1.469-3.326h18.73Z" transform="translate(-24.246 -6.956)" fill="#19538d"/>
            <path id="Trazado_998448" data-name="Trazado 998448" d="M28.088,11.547H3.483L4.952,8.221H29.557Z" transform="translate(-0.925 -2.184)" fill="#19538d"/>
            <g id="Grupo_1179060" data-name="Grupo 1179060" transform="translate(0)">
              <g id="Grupo_1179059" data-name="Grupo 1179059" clip-path="url(#clip-path)">
                <path id="Trazado_998449" data-name="Trazado 998449" d="M48.653,99.141a40.772,40.772,0,0,1-39.711-49.9H3.518A46.036,46.036,0,0,0,84.512,87.248h-7.1A40.6,40.6,0,0,1,48.653,99.141" transform="translate(-0.653 -12.277)" fill="#19538d"/>
                <path id="Trazado_998450" data-name="Trazado 998450" d="M110.835,87.933h6.025c.484-.964.923-1.952,1.34-2.953h-5.792c-.487,1.007-1.008,1.994-1.573,2.953" transform="translate(-27.709 -21.189)" fill="#19538d"/>
                <path id="Trazado_998451" data-name="Trazado 998451" d="M95.384,46.081a46.043,46.043,0,0,0-90.011-13.7h5.589A40.752,40.752,0,1,1,87.147,61.291h5.644a45.915,45.915,0,0,0,2.592-15.209" transform="translate(-1.343)" fill="#19538d"/>
                <path id="Trazado_998452" data-name="Trazado 998452" d="M108.562,81.649v2.5h3.277q.594-1.228,1.106-2.5Z" transform="translate(-27.141 -20.358)" fill="#19538d"/>
                <path id="Trazado_998453" data-name="Trazado 998453" d="M126.164,81.649h-4.551q-.444,1.268-.958,2.5h5.509Z" transform="translate(-30.164 -20.358)" fill="#19538d"/>
              </g>
            </g>
            <path id="Trazado_998444" data-name="Trazado 998444" d="M2.2,37.025,0,41.509H13.317l2.2-4.484Z" transform="translate(0 -9.2)" fill="#19538d"/>
          </g>
        </g>
        <g id="Grupo_1177669" data-name="Grupo 1177669" transform="translate(403.444 8418.662)">
          <g id="Grupo_1099618" data-name="Grupo 1099618" transform="translate(0 0)">
            <rect id="Rectángulo_401104" data-name="Rectángulo 401104" width="56.349" height="57.028" transform="translate(0)" fill="none"/>
          </g>
        </g>
      </g>
      <g id="Grupo_1180027" data-name="Grupo 1180027" transform="translate(1235.711 11423)">
        <g id="Grupo_1180026" data-name="Grupo 1180026" transform="translate(-424 -7214)">
          <g id="Grupo_1180025" data-name="Grupo 1180025" clip-path="url(#clip-path-2)">
            <path id="Trazado_999545" data-name="Trazado 999545" d="M129.535,58.791V51.1a.879.879,0,0,0-.878-.879h-.018a94.19,94.19,0,0,0-10.422.764.879.879,0,0,0-.761.871v7.687a.879.879,0,0,0,.879.879,95.543,95.543,0,0,1,10.341-.757.879.879,0,0,0,.86-.879Zm-1.757-.857c-2.994.086-5.921.3-8.566.615V52.632c2.632-.326,5.562-.54,8.566-.628Z" transform="translate(-104.557 -44.71)" fill="#fff"/>
            <path id="Trazado_999546" data-name="Trazado 999546" d="M228.762,170.015a.879.879,0,0,0,0,1.757,96.138,96.138,0,0,1,12.919.77.879.879,0,0,0,.235-1.741,97.562,97.562,0,0,0-13.157-.786" transform="translate(-202.867 -151.344)" fill="#fff"/>
            <path id="Trazado_999552" data-name="Trazado 999552" d="M228.762,170.015a.879.879,0,0,0,0,1.757,96.138,96.138,0,0,1,12.919.77.879.879,0,0,0,.235-1.741,97.562,97.562,0,0,0-13.157-.786" transform="translate(-202.867 -146.344)" fill="#fff"/>
            <path id="Trazado_999547" data-name="Trazado 999547" d="M118.25,171.84a.879.879,0,0,0,.116,1.749c.292,0,2.7-.423,7.351-.653a.879.879,0,0,0-.086-1.755c-2.615.129-5.1.35-7.381.658" transform="translate(-104.591 -152.382)" fill="#fff"/>
            <path id="Trazado_999551" data-name="Trazado 999551" d="M118.25,171.84a.879.879,0,0,0,.116,1.749c.292,0,2.7-.423,7.351-.653a.879.879,0,0,0-.086-1.755c-2.615.129-5.1.35-7.381.658" transform="translate(-104.591 -147.382)" fill="#fff"/>
            <path id="Trazado_999549" data-name="Trazado 999549" d="M113.566,220.342a3.114,3.114,0,1,0-3.114-3.114,3.114,3.114,0,0,0,3.114,3.114m0-4.471a1.357,1.357,0,1,1-1.357,1.357h0a1.358,1.358,0,0,1,1.357-1.357Z" transform="translate(-82.323 -205.613)" fill="#fff"/>
            <path id="Trazado_999550" data-name="Trazado 999550" d="M50.955,14.332V40.967c0,1.066-1.278,2.128-3.631,3.038V37.929c.781.3.81.376,1.083.376a.879.879,0,0,0,.358-1.681q-.665-.3-1.441-.569V12.431C54.5,9.91,55.648,4.367,44.071,1.684c-9.694-2.246-25.733-2.246-35.428,0C2.908,3.013,0,4.976,0,7.521V33.943a.879.879,0,0,0,1.757,0V10.594a13.013,13.013,0,0,0,3.631,1.838V44.005C1.87,42.644.276,40.747,3.518,38.816a.878.878,0,0,0-.9-1.509C.881,38.342,0,39.573,0,40.967c0,2.114,2.018,3.835,6,5.116a.878.878,0,0,0,1.148-.836V37.337c2.545-.75,2.582-2.54,0-1.827V11.8a.879.879,0,0,0-.609-.836C-1.145,8.493.97,5.265,9.039,3.4c9.432-2.185,25.2-2.187,34.635,0,7.973,1.847,10.252,5.075,2.5,7.568a.879.879,0,0,0-.609.836V35.509c-2.68-.743-2.6,1.067,0,1.83v7.907a.879.879,0,0,0,1.148.836c3.98-1.28,6-3,6-5.115V14.332a.879.879,0,0,0-1.757,0" transform="translate(0 0.001)" fill="#fff"/>
          </g>
        </g>
        <path id="Trazado_999553" data-name="Trazado 999553" d="M15.75,0H13.336L4.688-13.395a5.6,5.6,0,0,1-.539-1.055h-.07a17.3,17.3,0,0,1,.094,2.309V0H2.2V-16.8H4.758L13.172-3.621q.527.82.68,1.125H13.9a17.779,17.779,0,0,1-.117-2.473V-16.8H15.75ZM29.906-8.473a16.508,16.508,0,0,1-.381,3.738,8.71,8.71,0,0,1-1.1,2.748,4.958,4.958,0,0,1-1.77,1.7,4.844,4.844,0,0,1-2.385.58,4.524,4.524,0,0,1-2.256-.557,4.728,4.728,0,0,1-1.67-1.623,8.226,8.226,0,0,1-1.031-2.619,16.2,16.2,0,0,1-.352-3.557,18.332,18.332,0,0,1,.369-3.891,8.9,8.9,0,0,1,1.084-2.83,4.825,4.825,0,0,1,1.775-1.723,4.985,4.985,0,0,1,2.432-.58Q29.906-17.086,29.906-8.473Zm-1.969.188q0-7.172-3.41-7.172-3.6,0-3.6,7.3,0,6.809,3.527,6.809Q27.937-1.348,27.938-8.285Z" transform="translate(-413.289 -7164.679)" fill="#fff"/>
      </g>
    </g>
  </g>
</svg>
