<svg id="Grupo_1180045" data-name="Grupo 1180045" xmlns="http://www.w3.org/2000/svg" xmlns:xlink="http://www.w3.org/1999/xlink" width="168.425" height="218.557" viewBox="0 0 168.425 218.557">
  <defs>
    <clipPath id="clip-path">
      <path id="Trazado_999614" data-name="Trazado 999614" d="M0,0H162.952V179.773H0Z" fill="#19538d"/>
    </clipPath>
  </defs>
  <g id="Grupo_1180044" data-name="Grupo 1180044" transform="translate(0.304)">
    <rect id="Rectángulo_456574" data-name="Rectángulo 456574" width="168.121" height="218.557" fill="none"/>
    <g id="Grupo_1180043" data-name="Grupo 1180043" transform="translate(3.067 32.573)">
      <rect id="Rectángulo_456581" data-name="Rectángulo 456581" width="6.836" height="37.685" transform="translate(105.931 122.887)" fill="#f1eeeb"/>
      <path id="Trazado_999557" data-name="Trazado 999557" d="M116.446,148.247l-19.641,8.877.28,2.516,20.479-6.591Z" transform="translate(-8.746 7.524)" fill="#f1eeeb"/>
      <path id="Trazado_999558" data-name="Trazado 999558" d="M118.725,148.247l19.641,8.877-.281,2.516-20.478-6.591Z" transform="translate(-7.691 7.524)" fill="#f1eeeb"/>
      <g id="Grupo_1180042" data-name="Grupo 1180042" transform="translate(0)">
        <g id="Enmascarar_grupo_1178503" data-name="Enmascarar grupo 1178503" clip-path="url(#clip-path)">
          <path id="Trazado_999559" data-name="Trazado 999559" d="M102.574,163.595a4.694,4.694,0,1,1-4.694-4.694,4.694,4.694,0,0,1,4.694,4.694" transform="translate(-8.93 8.065)" fill="#02060b"/>
          <path id="Trazado_999560" data-name="Trazado 999560" d="M142.283,163.595a4.694,4.694,0,1,1-4.694-4.694,4.694,4.694,0,0,1,4.694,4.694" transform="translate(-6.915 8.065)" fill="#02060b"/>
          <path id="Trazado_999561" data-name="Trazado 999561" d="M137.53,119.83H97.909a3.962,3.962,0,1,1,0-7.924H137.53a3.962,3.962,0,1,1,0,7.924" transform="translate(-8.891 5.68)" fill="#8292fd"/>
          <path id="Trazado_999562" data-name="Trazado 999562" d="M53.964,139.764,50.49,156.941l8.19,1.425,4.439-17.2Z" transform="translate(-11.097 7.094)" fill="#b87f58"/>
          <path id="Trazado_999563" data-name="Trazado 999563" d="M51.195,154.125l-16.263,3.511a2.4,2.4,0,0,0-1.805,2.359l26.085,5.7,1.1-9.692Z" transform="translate(-11.978 7.822)" fill="#121314"/>
          <rect id="Rectángulo_456582" data-name="Rectángulo 456582" width="2.872" height="27.513" transform="translate(20.202 170.549) rotate(-77.668)" fill="#455157"/>
          <path id="Trazado_999564" data-name="Trazado 999564" d="M73.9,95.434l-3.345.827a20.185,20.185,0,0,0-14.516,13.9L46.181,151.4l18.365,3.017,10.427-39.4,11.5-3.807Z" transform="translate(-11.316 4.844)" fill="#a69382"/>
          <path id="Trazado_999565" data-name="Trazado 999565" d="M88.529,136.938l7.985,15.6,7.293-3.989-7.245-16.22Z" transform="translate(-9.167 6.716)" fill="#b87f58"/>
          <path id="Trazado_999566" data-name="Trazado 999566" d="M95.291,150.317,84.759,163.2a2.4,2.4,0,0,0,.058,2.969l23.955-11.793-5.176-8.267Z" transform="translate(-9.383 7.415)" fill="#121314"/>
          <rect id="Rectángulo_456583" data-name="Rectángulo 456583" width="27.512" height="2.872" transform="matrix(0.897, -0.442, 0.442, 0.897, 75.128, 173.732)" fill="#455157"/>
          <path id="Trazado_999567" data-name="Trazado 999567" d="M93.389,89.34l-19.134.8,10.181,21.332,26.471,2.036s27.662,2.878,25.245-15.61Z" transform="translate(-9.891 4.534)" fill="#c4b6a7"/>
          <path id="Trazado_999568" data-name="Trazado 999568" d="M64.312,103.192l25.744,47.991,16.839-7.459L82.1,89.809l-9.745.355a9.181,9.181,0,0,0-8.038,13.028" transform="translate(-10.439 4.558)" fill="#c4b6a7"/>
          <path id="Trazado_999569" data-name="Trazado 999569" d="M92.615,40.831S85.384,45.913,85.384,61.9a153.883,153.883,0,0,0,2.624,28.48l9.163,2.061Z" transform="translate(-9.326 2.072)" fill="#fff"/>
          <path id="Trazado_999570" data-name="Trazado 999570" d="M77.463,76.367S70.894,74.633,67.9,79.3c-1.975,3.083-1.233,4.206-.361,5.661a4.53,4.53,0,0,0,2.752,1.9c2.047.165,5.638.856,8.265-3.477Z" transform="translate(-10.277 3.86)" fill="#b87f58"/>
          <path id="Trazado_999571" data-name="Trazado 999571" d="M67.082,80.82l-1.84,6.309a.908.908,0,0,0,1.641.738l3.481-5.547Z" transform="translate(-10.35 4.102)" fill="#b87f58"/>
          <path id="Trazado_999572" data-name="Trazado 999572" d="M89.988,78.05,76.455,75.98l.477,9.234,20.48,5.463Z" transform="translate(-9.779 3.856)" fill="#fff"/>
          <path id="Trazado_999573" data-name="Trazado 999573" d="M92.7,44.647s-11.155,11.744,0,47.266l42.763,8.554S134.162,67.411,123,53.057s-22.686-14.421-22.686-14.421Z" transform="translate(-9.206 1.961)" fill="#fff"/>
          <path id="Trazado_999574" data-name="Trazado 999574" d="M87.813,60.188S88.748,77.225,92.7,90.82" transform="translate(-9.203 3.055)" fill="none" stroke="#dddada" stroke-miterlimit="10" stroke-width="0.928"/>
          <path id="Trazado_999575" data-name="Trazado 999575" d="M101.054,54.263c5.143,7.708,23.77,34.973,23.77,34.973s6.812,7.772,12.807,3.428c8.514-6.172-3.247-22.906-3.247-22.906S120.811,47.861,108.2,41c-3.625-1.972-5.522.465-6.286,3.288l-1.549,5.723a5.2,5.2,0,0,0,.691,4.255" transform="translate(-8.575 2.044)" fill="#fff"/>
          <line id="Línea_3312" data-name="Línea 3312" x2="15.567" y2="22.516" transform="translate(97.2 63.243)" fill="none" stroke="#dddada" stroke-miterlimit="10" stroke-width="0.928"/>
          <path id="Trazado_999576" data-name="Trazado 999576" d="M93.865,76.717S87.3,74.982,84.3,79.652c-1.975,3.083-1.233,4.206-.361,5.661a4.53,4.53,0,0,0,2.752,1.9c2.047.166,5.638.856,8.265-3.478Z" transform="translate(-9.445 3.878)" fill="#b87f58"/>
          <path id="Trazado_999577" data-name="Trazado 999577" d="M83.484,81.171l-1.84,6.309a.908.908,0,0,0,1.641.738l3.481-5.547Z" transform="translate(-9.518 4.12)" fill="#b87f58"/>
          <path id="Trazado_999578" data-name="Trazado 999578" d="M125.494,78.66c-.678.169-32.137-1.974-32.137-1.974l1.186,7.625a111.364,111.364,0,0,0,38.344,7.659Z" transform="translate(-8.921 3.892)" fill="#fff"/>
          <line id="Línea_3313" data-name="Línea 3313" x1="31.471" y1="2.045" transform="translate(84.435 80.577)" fill="none" stroke="#dddada" stroke-miterlimit="10" stroke-width="0.928"/>
          <path id="Trazado_999579" data-name="Trazado 999579" d="M134.654,91.758c-16.666,1.3-39.814-6.075-39.814-6.075l-.457-2.3" transform="translate(-8.869 4.232)" fill="none" stroke="#dddada" stroke-miterlimit="10" stroke-width="0.928"/>
          <path id="Trazado_999580" data-name="Trazado 999580" d="M102.129,87.791H72.768v2.12h29.361a1.06,1.06,0,0,0,0-2.12" transform="translate(-9.966 4.456)" fill="#121314"/>
          <path id="Trazado_999581" data-name="Trazado 999581" d="M37.021,55.216H54.913L72.958,91.565H55.032a4.559,4.559,0,0,1-4.095-2.555L35.553,57.568a1.634,1.634,0,0,1,1.468-2.352" transform="translate(-11.864 2.802)" fill="#455157"/>
          <path id="Trazado_999582" data-name="Trazado 999582" d="M53.971,55.216h.834a3.9,3.9,0,0,1,3.487,2.155l17.1,34.194H72.016Z" transform="translate(-10.92 2.802)" fill="#121314"/>
          <path id="Trazado_999583" data-name="Trazado 999583" d="M53.074,71.857c.744,1.777.474,3.582-.6,4.032s-2.55-.624-3.294-2.4-.474-3.581.6-4.032,2.551.624,3.294,2.4" transform="translate(-11.185 3.52)" fill="#86969c"/>
          <path id="Trazado_999584" data-name="Trazado 999584" d="M81.3,29.847a3.859,3.859,0,1,1-5.27-1.419,3.858,3.858,0,0,1,5.27,1.419" transform="translate(-9.899 1.417)" fill="#a06945"/>
          <path id="Trazado_999585" data-name="Trazado 999585" d="M83.507,34.175l5.847,10.44c1.9,3.368,4.348,2.295,7.647.4,2.817-1.622,4.753-3.835,3.493-6.831L93.958,25.4Z" transform="translate(-9.421 1.289)" fill="#b87f58"/>
          <path id="Trazado_999586" data-name="Trazado 999586" d="M88.775,43.5s5.006-3.7,5.853-13.433c.222-2.548-9.608,6.768-9.608,6.768Z" transform="translate(-9.345 1.504)" fill="#a56c4b"/>
          <path id="Trazado_999587" data-name="Trazado 999587" d="M91.381,38.139,88.2,39.974a7.169,7.169,0,0,1-9.9-2.842l-5.264-9.879a9.414,9.414,0,0,1,3.611-12.584c4.5-2.594,11.05-1.5,13.644,3.006l4.533,8.866a8.774,8.774,0,0,1-3.434,11.6" transform="translate(-10.01 0.674)" fill="#b87f58"/>
          <path id="Trazado_999588" data-name="Trazado 999588" d="M91.8,26.182l-6.044-7.806s-7.112,5.444-13.518,6.765l-1-1.255a5.245,5.245,0,0,1,2.2-7.306l10.906-5.456c7.783-5.325,9.047,9.416,9.047,9.416Z" transform="translate(-10.08 0.506)" fill="#1f2326"/>
          <path id="Trazado_999589" data-name="Trazado 999589" d="M96.773,20.941a3.859,3.859,0,1,1-5.27-1.419,3.858,3.858,0,0,1,5.27,1.419" transform="translate(-9.114 0.965)" fill="#b87f58"/>
          <path id="Trazado_999590" data-name="Trazado 999590" d="M92.8,24.757s-1.4-2.425,1.142-3.377" transform="translate(-8.969 1.085)" fill="none" stroke="#1f2326" stroke-linecap="round" stroke-linejoin="round" stroke-width="0.484"/>
          <path id="Trazado_999591" data-name="Trazado 999591" d="M80.9,32.989l.577,1.49,1.072-.617" transform="translate(-9.554 1.674)" fill="none" stroke="#1f2326" stroke-linecap="round" stroke-linejoin="round" stroke-width="0.484"/>
          <path id="Trazado_999592" data-name="Trazado 999592" d="M82.664,25.962s-1.962.766-1.447,1.758c0,0,.363.663,2.051-.046S85.3,26.593,85.1,25.891s-1.567-.374-2.44.071" transform="translate(-9.542 1.293)" fill="#1f2326"/>
          <path id="Trazado_999593" data-name="Trazado 999593" d="M76.039,29.7s1.42-1,2.045-.144c0,0,.412.586-.852,1.424s-1.819.843-2.219.406c-.454-.5.307-1.292,1.027-1.685" transform="translate(-9.859 1.482)" fill="#1f2326"/>
          <path id="Trazado_999594" data-name="Trazado 999594" d="M78.4,31.8a.721.721,0,1,1-.971-.312.721.721,0,0,1,.971.312" transform="translate(-9.75 1.594)" fill="#1f2326"/>
          <path id="Trazado_999595" data-name="Trazado 999595" d="M84.723,28.768a.721.721,0,1,1-.97-.312.721.721,0,0,1,.97.312" transform="translate(-9.429 1.44)" fill="#1f2326"/>
          <path id="Trazado_999596" data-name="Trazado 999596" d="M78.172,29.4a4.314,4.314,0,0,1,1.349,5.678,3.727,3.727,0,0,1-5.4,1.036,4.312,4.312,0,0,1-1.349-5.677A3.728,3.728,0,0,1,78.172,29.4Z" transform="translate(-9.995 1.455)" fill="none" stroke="#fff" stroke-miterlimit="10" stroke-width="0.538"/>
          <path id="Trazado_999597" data-name="Trazado 999597" d="M88.643,26.642a4.42,4.42,0,1,1-5.95-1.916A4.421,4.421,0,0,1,88.643,26.642Z" transform="translate(-9.585 1.23)" fill="none" stroke="#fff" stroke-miterlimit="10" stroke-width="0.558"/>
          <line id="Línea_3314" data-name="Línea 3314" y1="0.775" x2="1.512" transform="translate(69.76 32.064)" fill="none" stroke="#fff" stroke-miterlimit="10" stroke-width="0.558"/>
          <line id="Línea_3315" data-name="Línea 3315" y1="2.581" x2="1.443" transform="translate(79.013 25.055)" fill="none" stroke="#fff" stroke-miterlimit="10" stroke-width="0.558"/>
          <path id="Trazado_999598" data-name="Trazado 999598" d="M81.814,35.977l3.453-1.918a1.709,1.709,0,0,1-1,2.181,1.808,1.808,0,0,1-2.455-.264" transform="translate(-9.507 1.729)" fill="#fff"/>
          <path id="Trazado_999599" data-name="Trazado 999599" d="M82.231,18.079s2.093,4.248,5.978,2.24c4.53-2.341-1.622-4.97-1.622-4.97Z" transform="translate(-9.486 0.779)" fill="#1f2326"/>
          <path id="Trazado_999600" data-name="Trazado 999600" d="M72.373,25.161s-3.969.02-4.46-3.875S71.635,16.9,71.635,16.9a2.944,2.944,0,0,1,1-3.591c1.993-1.406,4.841.426,4.841.426s8.309-5.883,10.968-3.646-9.419,8.971-9.419,8.971Z" transform="translate(-10.215 0.486)" fill="#1f2326"/>
          <path id="Trazado_999601" data-name="Trazado 999601" d="M100.328,40.622a36.2,36.2,0,0,1-8.049,10.369,19.593,19.593,0,0,1-2.907-7.657Z" transform="translate(-9.124 2.062)" fill="#b87f58"/>
          <path id="Trazado_999615" data-name="Trazado 999615" d="M0,0H189.221" transform="translate(-13.66 176.353)" fill="none" stroke="#19538d" stroke-width="0.976"/>
        </g>
      </g>
    </g>
  </g>
  <path id="Trazado_999607" data-name="Trazado 999607" d="M186.586,35.5h-64.58a5.185,5.185,0,0,1-5.186-5.186V5.184A5.185,5.185,0,0,1,122.006,0h64.58a5.185,5.185,0,0,1,5.184,5.184V30.31a5.185,5.185,0,0,1-5.184,5.186" transform="translate(-28.557 8.46)" fill="#8292fd"/>
  <path id="Trazado_999608" data-name="Trazado 999608" d="M122.585,19.695V29.876a1.659,1.659,0,0,0,2.832,1.175l11.357-11.355Z" transform="translate(-25.376 19.326)" fill="#8292fd"/>
  <line id="Línea_3317" data-name="Línea 3317" x2="49.057" transform="translate(101.219 17.411)" fill="none" stroke="#fff" stroke-linecap="round" stroke-linejoin="round" stroke-width="1.024"/>
  <line id="Línea_3318" data-name="Línea 3318" x2="16.878" transform="translate(101.219 25.074)" fill="none" stroke="#fff" stroke-linecap="round" stroke-linejoin="round" stroke-width="1.024"/>
  <line id="Línea_3319" data-name="Línea 3319" x2="35.886" transform="translate(101.219 33.818)" fill="none" stroke="#fff" stroke-linecap="round" stroke-linejoin="round" stroke-width="1.024"/>
  <path id="Trazado_999609" data-name="Trazado 999609" d="M18.456,47.086H58.917V26.615a3.073,3.073,0,0,0-3.072-3.072H18.456a3.071,3.071,0,0,0-3.072,3.072v17.4a3.071,3.071,0,0,0,3.072,3.072" transform="translate(-15.384 29.847)" fill="#ffd470"/>
  <path id="Trazado_999610" data-name="Trazado 999610" d="M45.155,34.806l.033,10.4L36.3,34.834Z" transform="translate(-1.624 37.255)" fill="#ffd470"/>
  <path id="Trazado_999611" data-name="Trazado 999611" d="M25.641,31.257A1.96,1.96,0,1,1,23.675,29.3a1.96,1.96,0,0,1,1.966,1.953" transform="translate(-11.216 33.636)" fill="#fff"/>
  <path id="Trazado_999612" data-name="Trazado 999612" d="M30.712,31.241a1.959,1.959,0,1,1-1.966-1.954,1.96,1.96,0,0,1,1.966,1.954" transform="translate(-7.88 33.625)" fill="#fff"/>
  <path id="Trazado_999613" data-name="Trazado 999613" d="M35.785,31.226a1.961,1.961,0,1,1-1.968-1.953,1.963,1.963,0,0,1,1.968,1.953" transform="translate(-4.546 33.615)" fill="#fff"/>
</svg>
