<svg xmlns="http://www.w3.org/2000/svg" xmlns:xlink="http://www.w3.org/1999/xlink" width="84" height="84" viewBox="0 0 84 84">
  <defs>
    <clipPath id="clip-path">
      <rect id="Rectángulo_464183" data-name="Rectángulo 464183" width="68.35" height="68.284" fill="#344866"/>
    </clipPath>
  </defs>
  <g id="Grupo_1214971" data-name="Grupo 1214971" transform="translate(-601.711 -2097)">
    <g id="Grupo_1213766" data-name="Grupo 1213766" transform="translate(602 2097.611)">
      <g id="Grupo_1119665" data-name="Grupo 1119665" transform="translate(-0.289 -0.611)">
        <rect id="Rectángulo_402006" data-name="Rectángulo 402006" width="84" height="84" rx="5" fill="#ffe79e"/>
      </g>
      <g id="Grupo_1214160" data-name="Grupo 1214160" transform="translate(7.711 7.389)">
        <g id="Grupo_1214159" data-name="Grupo 1214159" clip-path="url(#clip-path)">
          <path id="Trazado_1281708" data-name="Trazado 1281708" d="M48.18,68.283H20.17a1.127,1.127,0,0,1-1.252-.9,1.143,1.143,0,0,1,1.011-1.263l3.1.016L25.116,58.1,4.086,58.1A3.971,3.971,0,0,1,.018,54.352L0,12.612A3.9,3.9,0,0,1,3.828,8.537l9-.022.007-7.65A.991.991,0,0,1,13.811,0H54.539a.988.988,0,0,1,.973.866l.008,7.658,9.2.036a3.852,3.852,0,0,1,3.626,3.646l-.015,42.15a3.935,3.935,0,0,1-3.906,3.725l-21.177.025,2.068,8.039,3.118-.025a1.243,1.243,0,0,1,1.01,1.067c-.018.706-.506,1.1-1.267,1.1M53.412,2.1H14.939V8.573H53.412ZM12.836,47.742l0-37.126H4.041A1.849,1.849,0,0,0,2.1,12.46l0,35.34ZM53.412,10.614H14.939V47.786H53.412Zm12.837,1.768a1.805,1.805,0,0,0-1.756-1.757l-8.978.017V47.789H66.25ZM64.372,56.048a1.87,1.87,0,0,0,1.867-1.893l0-4.18H2.108l0,4.18a1.86,1.86,0,0,0,1.973,1.893ZM43.107,66.256l-1.995-8.113-13.774.008-2.107,8.123Z" transform="translate(0)" fill="#344866"/>
          <path id="Trazado_1281709" data-name="Trazado 1281709" d="M96.3,122.125H84.455a1.057,1.057,0,0,1-.943-1.012l0-6.8a2.575,2.575,0,0,1,2.386-2.686l8.889-.01a2.588,2.588,0,0,1,2.5,2.7l-.008,6.808a1.052,1.052,0,0,1-.974,1m-4.6-2.118.022-2.293c0-.4.752-.834,1.174-.775a1.245,1.245,0,0,1,.906.9l.034,2.178,1.256-.035-.04-6.254-9.55.011-.017,6.266,1.384.006.04-2.336c.007-.381.817-.806,1.183-.727a1.2,1.2,0,0,1,.9,1.137L89,120.026Z" transform="translate(-66.893 -89.41)" fill="#344866"/>
          <path id="Trazado_1281710" data-name="Trazado 1281710" d="M167.458,99.04a1.034,1.034,0,0,1-1.036.937,1.091,1.091,0,0,1-1.08-.982V70.189a1.059,1.059,0,0,1,2.119.026Z" transform="translate(-132.447 -55.389)" fill="#344866"/>
          <path id="Trazado_1281711" data-name="Trazado 1281711" d="M105.119,67.609a4.2,4.2,0,1,1-4.2-4.2,4.2,4.2,0,0,1,4.2,4.2m-2.107,0a2.095,2.095,0,1,0-2.095,2.095,2.095,2.095,0,0,0,2.095-2.095" transform="translate(-77.473 -50.791)" fill="#344866"/>
          <path id="Trazado_1281712" data-name="Trazado 1281712" d="M200.758,186.563H189.4a1.19,1.19,0,0,1-1.185-.9c-.089-.438.248-1.248.816-1.248l12.261.01c.5,0,.78.884.69,1.24a1.238,1.238,0,0,1-1.223.9" transform="translate(-150.758 -147.723)" fill="#344866"/>
          <path id="Trazado_1281713" data-name="Trazado 1281713" d="M200.9,131.518l-11.922,0c-.444,0-.831-.693-.833-1.05s.4-1.051.839-1.052l11.729-.018a1.11,1.11,0,0,1,1.222.866,1.088,1.088,0,0,1-1.036,1.258" transform="translate(-150.711 -103.652)" fill="#344866"/>
          <path id="Trazado_1281714" data-name="Trazado 1281714" d="M95.878,207.823l-11.646.02a1.243,1.243,0,0,1-1.2-.722c-.143-.459.138-1.392.707-1.392h12.34c.36,0,.753.691.741,1-.013.345-.419,1.094-.941,1.1" transform="translate(-66.482 -164.8)" fill="#344866"/>
          <path id="Trazado_1281715" data-name="Trazado 1281715" d="M200.72,77.327l-11.768-.017c-.412,0-.784-.647-.8-.959s.261-1.1.618-1.1h12.549c.481,0,.717.922.607,1.289a1.2,1.2,0,0,1-1.2.791" transform="translate(-150.715 -60.277)" fill="#344866"/>
          <path id="Trazado_1281716" data-name="Trazado 1281716" d="M95.955,183.957l-11.727.025c-.7,0-1.18-.322-1.239-.936a1.029,1.029,0,0,1,1.037-1.163l11.559-.007a1.148,1.148,0,0,1,1.193.787c.1.39-.258,1.294-.823,1.3" transform="translate(-66.474 -145.691)" fill="#344866"/>
          <path id="Trazado_1281717" data-name="Trazado 1281717" d="M196.611,100.583l-7.177,0a1.314,1.314,0,0,1-1.142-.688c-.161-.377.113-1.385.587-1.385l8.293,0c.382,0,.715.9.637,1.233a1.229,1.229,0,0,1-1.2.84" transform="translate(-150.794 -78.912)" fill="#344866"/>
          <path id="Trazado_1281718" data-name="Trazado 1281718" d="M196.664,155.35l-7.362.006a1.315,1.315,0,0,1-1.028-.883c-.1-.467.221-1.243.785-1.245l7.574-.027a1.124,1.124,0,0,1,1.177.919,1.086,1.086,0,0,1-1.147,1.23" transform="translate(-150.802 -122.721)" fill="#344866"/>
          <path id="Trazado_1281719" data-name="Trazado 1281719" d="M197.606,209.813l-7.86.052a1.108,1.108,0,0,1-1.092-1.1,1.07,1.07,0,0,1,1.184-1.036l7.241.006a1.51,1.51,0,0,1,1.076.641c.193.31-.066,1.432-.548,1.435" transform="translate(-151.12 -166.402)" fill="#344866"/>
          <path id="Trazado_1281720" data-name="Trazado 1281720" d="M166.422,258.788a1.77,1.77,0,1,1-1.77-1.77,1.77,1.77,0,0,1,1.77,1.77" transform="translate(-130.477 -205.884)" fill="#344866"/>
          <path id="Trazado_1281721" data-name="Trazado 1281721" d="M91.536,20.15a1.682,1.682,0,1,1-1.682-1.682,1.682,1.682,0,0,1,1.682,1.682" transform="translate(-70.63 -14.794)" fill="#344866"/>
          <path id="Trazado_1281722" data-name="Trazado 1281722" d="M123.865,20.089a1.684,1.684,0,1,1-1.684-1.684,1.684,1.684,0,0,1,1.684,1.684" transform="translate(-96.525 -14.743)" fill="#344866"/>
          <path id="Trazado_1281723" data-name="Trazado 1281723" d="M156.1,20.085a1.684,1.684,0,1,1-1.684-1.684,1.684,1.684,0,0,1,1.684,1.684" transform="translate(-122.343 -14.74)" fill="#344866"/>
        </g>
      </g>
    </g>
  </g>
</svg>
