<svg xmlns="http://www.w3.org/2000/svg" xmlns:xlink="http://www.w3.org/1999/xlink" width="292" height="194" viewBox="0 0 292 194">
  <defs>
    <clipPath id="clip-path">
      <rect id="Rectángulo_463426" data-name="Rectángulo 463426" width="292" height="194" transform="translate(289.711 2330)" fill="#fff" stroke="#707070" stroke-width="1"/>
    </clipPath>
    <clipPath id="clip-path-2">
      <rect id="Rectángulo_458738" data-name="Rectángulo 458738" width="232.894" height="221.471" fill="none"/>
    </clipPath>
  </defs>
  <g id="Enmascarar_grupo_1184834" data-name="Enmascarar grupo 1184834" transform="translate(-289.711 -2330)" clip-path="url(#clip-path)">
    <g id="Grupo_1213771" data-name="Grupo 1213771" transform="translate(319.711 2299.333)">
      <g id="Grupo_1185038" data-name="Grupo 1185038" clip-path="url(#clip-path-2)">
        <path id="Trazado_1030931" data-name="Trazado 1030931" d="M231.854,378.624c0,2.524-1.737,4.569-3.879,4.569H32.626c-2.142,0-3.879-2.045-3.879-4.569s1.737-4.569,3.879-4.569H227.975c2.143,0,3.879,2.045,3.879,4.569" transform="translate(-13.854 -180.265)" fill="#5f78ab"/>
        <path id="Trazado_1030932" data-name="Trazado 1030932" d="M411.045,307.833a4.764,4.764,0,0,0-3.376-5.994,5.414,5.414,0,0,0-3.96.678,14.659,14.659,0,0,0,.089-1.529c0-6.259-3.915-11.334-8.746-11.334-3.818,0-7.055,3.174-8.249,7.594a6.31,6.31,0,0,0-5.439-2.1c-3.37.562-5.27,4.5-4.277,8.823a4.738,4.738,0,0,0-2.142-.516,5.122,5.122,0,0,0-4.939,4.373Z" transform="translate(-178.313 -139.59)" fill="#a9ccff"/>
        <path id="Trazado_1030933" data-name="Trazado 1030933" d="M41.039,192.01a4.764,4.764,0,0,0-3.376-5.995,5.414,5.414,0,0,0-3.96.678,14.671,14.671,0,0,0,.089-1.529c0-6.259-3.915-11.334-8.746-11.334-3.818,0-7.055,3.175-8.249,7.594a6.31,6.31,0,0,0-5.439-2.1c-3.37.561-5.27,4.5-4.277,8.824a4.739,4.739,0,0,0-2.142-.516A5.122,5.122,0,0,0,0,192.01Z" transform="translate(0 -83.772)" fill="#a9ccff"/>
        <path id="Trazado_1030934" data-name="Trazado 1030934" d="M263.131,93.526a4.764,4.764,0,0,0-3.376-5.995,5.414,5.414,0,0,0-3.96.678,14.672,14.672,0,0,0,.089-1.529c0-6.259-3.915-11.334-8.746-11.334-3.818,0-7.055,3.175-8.249,7.594a6.312,6.312,0,0,0-5.439-2.1c-3.37.562-5.27,4.5-4.277,8.824a4.739,4.739,0,0,0-2.142-.516,5.122,5.122,0,0,0-4.939,4.373Z" transform="translate(-107.031 -36.311)" fill="#a9ccff"/>
        <path id="Trazado_1030935" data-name="Trazado 1030935" d="M411.928,107.424a3.24,3.24,0,1,1-3.24-3.24,3.24,3.24,0,0,1,3.24,3.24" transform="translate(-195.394 -50.208)" fill="#a9ccff"/>
        <path id="Trazado_1030936" data-name="Trazado 1030936" d="M415.429,265.14a3.24,3.24,0,1,1-3.241-3.24,3.241,3.241,0,0,1,3.241,3.24" transform="translate(-197.08 -126.215)" fill="#a9ccff"/>
        <path id="Trazado_1030937" data-name="Trazado 1030937" d="M111.252,97.707a3.24,3.24,0,1,1-3.24-3.24,3.24,3.24,0,0,1,3.24,3.24" transform="translate(-50.492 -45.526)" fill="#a9ccff"/>
        <path id="Trazado_1030938" data-name="Trazado 1030938" d="M24.9,154.477a3.24,3.24,0,1,1-3.24-3.24,3.24,3.24,0,0,1,3.24,3.24" transform="translate(-8.878 -72.884)" fill="#a9ccff"/>
        <path id="Trazado_1030939" data-name="Trazado 1030939" d="M62.624,90.97a2.065,2.065,0,1,1-2.065-2.065,2.066,2.066,0,0,1,2.065,2.065" transform="translate(-28.189 -42.845)" fill="#a9ccff"/>
        <path id="Trazado_1030940" data-name="Trazado 1030940" d="M32.793,247.025a2.065,2.065,0,1,1-2.065-2.065,2.065,2.065,0,0,1,2.065,2.065" transform="translate(-13.813 -118.051)" fill="#a9ccff"/>
        <path id="Trazado_1030941" data-name="Trazado 1030941" d="M75.447,280.344a2.065,2.065,0,1,1-2.065-2.065,2.066,2.066,0,0,1,2.065,2.065" transform="translate(-34.369 -134.108)" fill="#a9ccff"/>
        <path id="Trazado_1030942" data-name="Trazado 1030942" d="M28.806,352.21a2.065,2.065,0,1,1-2.065-2.065,2.066,2.066,0,0,1,2.065,2.065" transform="translate(-11.891 -168.742)" fill="#a9ccff"/>
        <path id="Trazado_1030943" data-name="Trazado 1030943" d="M427.268,346.893a2.065,2.065,0,1,1-2.065-2.065,2.065,2.065,0,0,1,2.065,2.065" transform="translate(-203.918 -166.18)" fill="#a9ccff"/>
        <path id="Trazado_1030944" data-name="Trazado 1030944" d="M339.649,88.148a2.065,2.065,0,1,1-2.065-2.065,2.066,2.066,0,0,1,2.065,2.065" transform="translate(-161.693 -41.485)" fill="#a9ccff"/>
        <path id="Trazado_1030945" data-name="Trazado 1030945" d="M427.268,161.822a2.065,2.065,0,1,1-2.065-2.065,2.066,2.066,0,0,1,2.065,2.065" transform="translate(-203.918 -76.99)" fill="#a9ccff"/>
        <path id="Trazado_1030946" data-name="Trazado 1030946" d="M211.739,92.545a2.065,2.065,0,1,1-2.065-2.065,2.066,2.066,0,0,1,2.065,2.065" transform="translate(-100.051 -43.604)" fill="#a9ccff"/>
        <path id="Trazado_1030947" data-name="Trazado 1030947" d="M398.41,201.352v-6.8h-4.377a12.568,12.568,0,0,0-1.194-2.869l3.1-3.1-4.807-4.807-3.1,3.1a12.638,12.638,0,0,0-2.865-1.185v-4.388h-6.8v4.388a12.666,12.666,0,0,0-2.866,1.185l-3.1-3.1-4.806,4.807,3.1,3.1a12.613,12.613,0,0,0-1.193,2.869h-4.377v6.8h4.369a12.54,12.54,0,0,0,1.19,2.88l-3.087,3.086,4.806,4.808,3.083-3.083a12.667,12.667,0,0,0,2.885,1.2V214.6h6.8V210.24a12.668,12.668,0,0,0,2.885-1.2l3.082,3.083,4.807-4.808-3.086-3.086a12.63,12.63,0,0,0,1.19-2.88ZM381.763,204a6.037,6.037,0,1,1,6.037-6.037A6.038,6.038,0,0,1,381.763,204" transform="translate(-175.958 -87.375)" fill="#29354a"/>
        <path id="Trazado_1030948" data-name="Trazado 1030948" d="M53.332,304.264v-6.8H48.955A12.578,12.578,0,0,0,47.76,294.6l3.1-3.1-4.807-4.807-3.1,3.1a12.632,12.632,0,0,0-2.865-1.186v-4.388h-6.8v4.388a12.666,12.666,0,0,0-2.865,1.186l-3.1-3.1L22.512,291.5l3.1,3.1a12.622,12.622,0,0,0-1.193,2.869H20.04v6.8h4.369a12.538,12.538,0,0,0,1.19,2.879l-3.087,3.086,4.806,4.808,3.083-3.083a12.664,12.664,0,0,0,2.885,1.2v4.356h6.8v-4.356a12.659,12.659,0,0,0,2.885-1.2l3.082,3.083,4.807-4.808-3.086-3.086a12.631,12.631,0,0,0,1.19-2.879Zm-16.646,2.652a6.037,6.037,0,1,1,6.037-6.037,6.037,6.037,0,0,1-6.037,6.037" transform="translate(-9.658 -136.97)" fill="#29354a"/>
        <path id="Trazado_1030949" data-name="Trazado 1030949" d="M164.9,112.938v-6.8h-4.378a12.577,12.577,0,0,0-1.194-2.869l3.1-3.1-4.807-4.807-3.1,3.1a12.608,12.608,0,0,0-2.865-1.185V92.892h-6.8V97.28a12.631,12.631,0,0,0-2.866,1.185l-3.1-3.1-4.806,4.807,3.1,3.1a12.623,12.623,0,0,0-1.193,2.869h-4.377v6.8h4.369a12.538,12.538,0,0,0,1.19,2.879l-3.087,3.086,4.806,4.808,3.083-3.083a12.658,12.658,0,0,0,2.885,1.2v4.356h6.8v-4.356a12.667,12.667,0,0,0,2.885-1.2l3.082,3.083,4.807-4.808-3.086-3.086a12.633,12.633,0,0,0,1.19-2.879Zm-16.646,2.652a6.037,6.037,0,1,1,6.037-6.037,6.037,6.037,0,0,1-6.037,6.037" transform="translate(-63.426 -44.767)" fill="#29354a"/>
        <path id="Trazado_1030950" data-name="Trazado 1030950" d="M228.358,125.02H55.474a2.624,2.624,0,0,0-2.624,2.623V255.986a2.624,2.624,0,0,0,2.624,2.623H228.358a2.625,2.625,0,0,0,2.625-2.623V127.643a2.625,2.625,0,0,0-2.625-2.623" transform="translate(-25.469 -60.25)" fill="#fff"/>
        <path id="Trazado_1030951" data-name="Trazado 1030951" d="M55.474,125.02H228.358a2.625,2.625,0,0,1,2.625,2.623v12.418H52.851V127.643a2.624,2.624,0,0,1,2.623-2.623" transform="translate(-25.47 -60.25)" fill="#083273"/>
        <path id="Trazado_1030952" data-name="Trazado 1030952" d="M378.44,138.175a1.8,1.8,0,1,0,1.8-1.8,1.8,1.8,0,0,0-1.8,1.8" transform="translate(-182.378 -65.723)" fill="#fbd131"/>
        <path id="Trazado_1030953" data-name="Trazado 1030953" d="M364.76,138.175a1.8,1.8,0,1,0,1.8-1.8,1.8,1.8,0,0,0-1.8,1.8" transform="translate(-175.785 -65.723)" fill="#fbd131"/>
        <path id="Trazado_1030954" data-name="Trazado 1030954" d="M351.081,138.175a1.8,1.8,0,1,0,1.8-1.8,1.8,1.8,0,0,0-1.8,1.8" transform="translate(-169.193 -65.723)" fill="#fbd131"/>
        <path id="Trazado_1030955" data-name="Trazado 1030955" d="M64.157,136.259a3.855,3.855,0,1,0,3.852-3.857,3.856,3.856,0,0,0-3.852,3.857" transform="translate(-30.919 -63.807)" fill="#d7eff5"/>
        <path id="Trazado_1030956" data-name="Trazado 1030956" d="M88.679,140.121h129.8a.729.729,0,0,0,.769-.683v-6.486a.73.73,0,0,0-.769-.683H88.679a.73.73,0,0,0-.768.683v6.486a.729.729,0,0,0,.768.683" transform="translate(-42.366 -63.743)" fill="#0148a2"/>
        <path id="Trazado_1030957" data-name="Trazado 1030957" d="M330.947,139.269a1.6,1.6,0,1,1,.3-2.244A1.6,1.6,0,0,1,330.947,139.269Z" transform="translate(-158.251 -65.731)" fill="none" stroke="#fff" stroke-linecap="round" stroke-linejoin="round" stroke-width="1"/>
        <line id="Línea_3377" data-name="Línea 3377" y1="1.108" x2="1.456" transform="translate(168.997 73.233)" fill="none" stroke="#fff" stroke-linecap="round" stroke-linejoin="round" stroke-width="1"/>
        <rect id="Rectángulo_458663" data-name="Rectángulo 458663" width="178.132" height="8.924" transform="translate(27.381 79.812)" fill="#d7eff5"/>
        <path id="Trazado_1030958" data-name="Trazado 1030958" d="M113.191,249.794h95.478a.7.7,0,0,0,.7-.71V226.226a.705.705,0,0,0-.7-.711H113.191a.7.7,0,0,0-.7.711v22.859a.7.7,0,0,0,.7.71" transform="translate(-54.213 -108.68)" fill="#d7eff5"/>
        <path id="Trazado_1030959" data-name="Trazado 1030959" d="M113.191,225.514a.7.7,0,0,0-.7.711v22.858a.7.7,0,0,0,.7.71H136.3V225.514Z" transform="translate(-54.213 -108.68)" fill="#6981f7"/>
        <rect id="Rectángulo_458664" data-name="Rectángulo 458664" width="65.575" height="0.822" transform="translate(85.499 127.581)" fill="#6981f7"/>
        <rect id="Rectángulo_458665" data-name="Rectángulo 458665" width="32.702" height="0.822" transform="translate(85.499 129.684)" fill="#6981f7"/>
        <rect id="Rectángulo_458666" data-name="Rectángulo 458666" width="30.471" height="0.822" transform="translate(120.603 129.684)" fill="#6981f7"/>
        <rect id="Rectángulo_458667" data-name="Rectángulo 458667" width="12.843" height="0.822" transform="translate(85.499 131.785)" fill="#6981f7"/>
        <rect id="Rectángulo_458668" data-name="Rectángulo 458668" width="26.485" height="0.822" transform="translate(100.603 131.785)" fill="#6981f7"/>
        <rect id="Rectángulo_458669" data-name="Rectángulo 458669" width="37.71" height="2.006" transform="translate(85.499 119.694)" fill="#fc2863"/>
        <rect id="Rectángulo_458670" data-name="Rectángulo 458670" width="17.169" height="2.005" transform="translate(85.498 122.917)" fill="#083273"/>
        <rect id="Rectángulo_458671" data-name="Rectángulo 458671" width="26.437" height="2.005" transform="translate(104.982 122.917)" fill="#083273"/>
        <path id="Trazado_1030960" data-name="Trazado 1030960" d="M277.817,261.771a1.976,1.976,0,0,1-1.955,2H264.951a2,2,0,0,1,0-3.99h10.911a1.975,1.975,0,0,1,1.955,1.994" transform="translate(-126.743 -125.192)" fill="#fbd131"/>
        <path id="Trazado_1030961" data-name="Trazado 1030961" d="M64.8,200.767H84.03a.648.648,0,0,0,.648-.649V181.14a.649.649,0,0,0-.648-.65H64.8a.649.649,0,0,0-.647.65v18.979a.647.647,0,0,0,.647.649" transform="translate(-30.919 -86.982)" fill="#fbd131"/>
        <path id="Trazado_1030962" data-name="Trazado 1030962" d="M64.8,235.945H84.03a.648.648,0,0,0,.648-.649v-8.617a.649.649,0,0,0-.648-.65H64.8a.649.649,0,0,0-.647.65V235.3a.647.647,0,0,0,.647.649" transform="translate(-30.919 -108.928)" fill="#6981f7"/>
        <path id="Trazado_1030963" data-name="Trazado 1030963" d="M64.8,342.278H84.03a.648.648,0,0,0,.648-.649v-8.618a.649.649,0,0,0-.648-.65H64.8a.649.649,0,0,0-.647.65v8.618a.647.647,0,0,0,.647.649" transform="translate(-30.919 -160.172)" fill="#6981f7"/>
        <rect id="Rectángulo_458672" data-name="Rectángulo 458672" width="5.726" height="5.726" rx="0.801" transform="translate(33.238 185.665)" fill="#6981f7"/>
        <rect id="Rectángulo_458673" data-name="Rectángulo 458673" width="10.62" height="1.216" transform="translate(41.089 186.951)" fill="#fc2863"/>
        <rect id="Rectángulo_458674" data-name="Rectángulo 458674" width="5.071" height="1.215" transform="translate(41.089 188.904)" fill="#6981f7"/>
        <rect id="Rectángulo_458675" data-name="Rectángulo 458675" width="7.14" height="1.215" transform="translate(46.786 188.904)" fill="#6981f7"/>
        <path id="Trazado_1030964" data-name="Trazado 1030964" d="M64.8,263.611H84.03a.648.648,0,0,0,.648-.649v-8.618a.649.649,0,0,0-.648-.65H64.8a.649.649,0,0,0-.647.65v8.618a.647.647,0,0,0,.647.649" transform="translate(-30.919 -122.261)" fill="#6981f7"/>
        <rect id="Rectángulo_458676" data-name="Rectángulo 458676" width="5.726" height="5.726" rx="0.801" transform="translate(33.238 144.909)" fill="#6981f7"/>
        <rect id="Rectángulo_458677" data-name="Rectángulo 458677" width="10.62" height="1.216" transform="translate(41.089 146.195)" fill="#fc2863"/>
        <rect id="Rectángulo_458678" data-name="Rectángulo 458678" width="5.071" height="1.215" transform="translate(41.089 148.148)" fill="#6981f7"/>
        <rect id="Rectángulo_458679" data-name="Rectángulo 458679" width="7.14" height="1.215" transform="translate(46.786 148.148)" fill="#6981f7"/>
        <rect id="Rectángulo_458680" data-name="Rectángulo 458680" width="5.726" height="5.726" rx="0.801" transform="translate(33.238 153.673)" fill="#6981f7"/>
        <rect id="Rectángulo_458681" data-name="Rectángulo 458681" width="10.62" height="1.216" transform="translate(41.089 154.959)" fill="#fc2863"/>
        <rect id="Rectángulo_458682" data-name="Rectángulo 458682" width="5.071" height="1.215" transform="translate(41.089 156.912)" fill="#6981f7"/>
        <rect id="Rectángulo_458683" data-name="Rectángulo 458683" width="7.14" height="1.215" transform="translate(46.786 156.912)" fill="#6981f7"/>
        <rect id="Rectángulo_458684" data-name="Rectángulo 458684" width="5.726" height="5.726" rx="0.801" transform="translate(33.238 162.437)" fill="#6981f7"/>
        <rect id="Rectángulo_458685" data-name="Rectángulo 458685" width="10.62" height="1.216" transform="translate(41.089 163.724)" fill="#fc2863"/>
        <rect id="Rectángulo_458686" data-name="Rectángulo 458686" width="5.071" height="1.215" transform="translate(41.089 165.677)" fill="#6981f7"/>
        <rect id="Rectángulo_458687" data-name="Rectángulo 458687" width="7.14" height="1.215" transform="translate(46.786 165.677)" fill="#6981f7"/>
        <path id="Trazado_1030965" data-name="Trazado 1030965" d="M309.923,253.59h38.455a.648.648,0,0,0,.648-.649v-71.8a.65.65,0,0,0-.648-.65H309.923a.649.649,0,0,0-.647.65v71.8a.647.647,0,0,0,.647.649" transform="translate(-149.046 -86.981)" fill="#d7eff5"/>
        <path id="Trazado_1030966" data-name="Trazado 1030966" d="M316.508,301.578a4.38,4.38,0,1,0,4.38-4.381,4.38,4.38,0,0,0-4.38,4.381" transform="translate(-152.532 -143.225)" fill="#6981f7"/>
        <rect id="Rectángulo_458688" data-name="Rectángulo 458688" width="21.241" height="1.194" transform="translate(174.543 155.096)" fill="#fc2863"/>
        <rect id="Rectángulo_458689" data-name="Rectángulo 458689" width="8.008" height="1.195" transform="translate(174.543 157.754)" fill="#083273"/>
        <rect id="Rectángulo_458690" data-name="Rectángulo 458690" width="12.561" height="1.195" transform="translate(184.511 157.754)" fill="#083273"/>
        <rect id="Rectángulo_458691" data-name="Rectángulo 458691" width="13.749" height="1.193" transform="translate(174.543 160.414)" fill="#6981f7"/>
        <rect id="Rectángulo_458692" data-name="Rectángulo 458692" width="19.049" height="1.194" transform="translate(176.868 98.551)" fill="#fc2863"/>
        <rect id="Rectángulo_458693" data-name="Rectángulo 458693" width="7.182" height="1.195" transform="translate(176.868 101.208)" fill="#083273"/>
        <rect id="Rectángulo_458694" data-name="Rectángulo 458694" width="11.265" height="1.195" transform="translate(185.808 101.208)" fill="#083273"/>
        <rect id="Rectángulo_458695" data-name="Rectángulo 458695" width="12.33" height="1.193" transform="translate(176.868 103.868)" fill="#6981f7"/>
        <rect id="Rectángulo_458696" data-name="Rectángulo 458696" width="10.712" height="10.712" rx="1.498" transform="translate(163.976 98.571)" fill="#6981f7"/>
        <rect id="Rectángulo_458697" data-name="Rectángulo 458697" width="19.049" height="1.194" transform="translate(176.868 112.184)" fill="#fc2863"/>
        <rect id="Rectángulo_458698" data-name="Rectángulo 458698" width="7.182" height="1.195" transform="translate(176.868 114.843)" fill="#083273"/>
        <rect id="Rectángulo_458699" data-name="Rectángulo 458699" width="11.265" height="1.195" transform="translate(185.808 114.843)" fill="#083273"/>
        <rect id="Rectángulo_458700" data-name="Rectángulo 458700" width="12.33" height="1.193" transform="translate(176.868 117.502)" fill="#6981f7"/>
        <rect id="Rectángulo_458701" data-name="Rectángulo 458701" width="10.712" height="10.712" rx="1.498" transform="translate(163.976 112.205)" fill="#6981f7"/>
        <path id="Rectángulo_458702" data-name="Rectángulo 458702" d="M1.1,0H6.741a1.1,1.1,0,0,1,1.1,1.1v9.79a1.1,1.1,0,0,1-1.1,1.1H1.1a1.1,1.1,0,0,1-1.1-1.1V1.1A1.1,1.1,0,0,1,1.1,0Z" transform="translate(188.954 126.414)" fill="#fbd131"/>
        <path id="Rectángulo_458703" data-name="Rectángulo 458703" d="M1.1,0H6.741a1.1,1.1,0,0,1,1.1,1.1V6.742a1.1,1.1,0,0,1-1.1,1.1H1.1A1.1,1.1,0,0,1,0,6.74V1.1A1.1,1.1,0,0,1,1.1,0Z" transform="translate(188.954 140.854)" fill="#6981f7"/>
        <path id="Trazado_1030967" data-name="Trazado 1030967" d="M113.191,326.414h95.478a.7.7,0,0,0,.7-.71V280.152a.705.705,0,0,0-.7-.711H113.191a.7.7,0,0,0-.7.711V325.7a.7.7,0,0,0,.7.71" transform="translate(-54.213 -134.668)" fill="#d7eff5"/>
        <path id="Trazado_1030968" data-name="Trazado 1030968" d="M170.715,312.974H119.471a.515.515,0,0,1-.515-.515V286.251a.515.515,0,0,1,.515-.515h51.245a.515.515,0,0,1,.516.515v26.208a.515.515,0,0,1-.516.515" transform="translate(-57.327 -137.702)" fill="#fff"/>
        <path id="Trazado_1030969" data-name="Trazado 1030969" d="M170.581,312.837h-47a.5.5,0,0,1-.5-.5v-22.3a.5.5,0,0,1,.5-.5h47a.5.5,0,0,1,.5.5v22.3a.5.5,0,0,1-.5.5" transform="translate(-59.315 -139.533)" fill="#6981f7"/>
        <path id="Trazado_1030970" data-name="Trazado 1030970" d="M172.511,308.143a8.581,8.581,0,1,1-8.581-8.581,8.581,8.581,0,0,1,8.581,8.581" transform="translate(-74.865 -144.365)" fill="#859fff"/>
        <path id="Trazado_1030971" data-name="Trazado 1030971" d="M173.948,300.635a3.982,3.982,0,1,1-3.981-3.981,3.982,3.982,0,0,1,3.981,3.981" transform="translate(-79.992 -142.964)" fill="#fbd131"/>
        <path id="Trazado_1030972" data-name="Trazado 1030972" d="M188.853,323.15v-5.112l-8.068-5.175a4.034,4.034,0,0,0-3.677,0l-17.15,11h28.057c.812,0,.839-.32.839-.715" transform="translate(-77.087 -150.562)" fill="#083273"/>
        <path id="Trazado_1030973" data-name="Trazado 1030973" d="M131,305.928l-7.92,5.08v8.731c0,.4.106.715.918.715h34.5l-22.644-14.526a5.322,5.322,0,0,0-4.855,0" transform="translate(-59.316 -147.15)" fill="#083273"/>
        <rect id="Rectángulo_458704" data-name="Rectángulo 458704" width="32.702" height="0.822" transform="translate(61.628 185.172)" fill="#6981f7"/>
        <rect id="Rectángulo_458705" data-name="Rectángulo 458705" width="30.47" height="0.822" transform="translate(96.733 185.172)" fill="#6981f7"/>
        <rect id="Rectángulo_458706" data-name="Rectángulo 458706" width="12.843" height="0.822" transform="translate(61.628 187.272)" fill="#6981f7"/>
        <rect id="Rectángulo_458707" data-name="Rectángulo 458707" width="26.485" height="0.822" transform="translate(76.733 187.272)" fill="#6981f7"/>
        <rect id="Rectángulo_458708" data-name="Rectángulo 458708" width="37.71" height="2.005" transform="translate(61.628 178.24)" fill="#fc2863"/>
        <rect id="Rectángulo_458709" data-name="Rectángulo 458709" width="17.169" height="2.005" transform="translate(61.628 181.462)" fill="#083273"/>
        <rect id="Rectángulo_458710" data-name="Rectángulo 458710" width="26.437" height="2.005" transform="translate(81.111 181.462)" fill="#083273"/>
        <path id="Trazado_1030974" data-name="Trazado 1030974" d="M277.817,356.812a1.976,1.976,0,0,1-1.955,2H264.951a2,2,0,0,1,0-3.99h10.911a1.975,1.975,0,0,1,1.955,1.994" transform="translate(-126.743 -170.994)" fill="#fbd131"/>
        <path id="Trazado_1030975" data-name="Trazado 1030975" d="M113.663,200.767h94.959a.648.648,0,0,0,.648-.649V181.14a.65.65,0,0,0-.648-.65H113.663a.649.649,0,0,0-.647.65v18.979a.647.647,0,0,0,.647.649" transform="translate(-54.465 -86.982)" fill="#d7eff5"/>
        <path id="Trazado_1030976" data-name="Trazado 1030976" d="M121.018,189.419a2.384,2.384,0,1,0,2.383-2.384,2.383,2.383,0,0,0-2.383,2.384" transform="translate(-58.321 -90.136)" fill="#6981f7"/>
        <rect id="Rectángulo_458711" data-name="Rectángulo 458711" width="15.754" height="1.194" transform="translate(69.744 98.686)" fill="#083273"/>
        <path id="Trazado_1030977" data-name="Trazado 1030977" d="M174.585,189.419a2.383,2.383,0,1,0,2.383-2.384,2.383,2.383,0,0,0-2.383,2.384" transform="translate(-84.136 -90.136)" fill="#6981f7"/>
        <rect id="Rectángulo_458712" data-name="Rectángulo 458712" width="15.754" height="1.194" transform="translate(97.496 98.686)" fill="#083273"/>
        <path id="Trazado_1030978" data-name="Trazado 1030978" d="M228.151,189.419a2.383,2.383,0,1,0,2.383-2.384,2.383,2.383,0,0,0-2.383,2.384" transform="translate(-109.951 -90.136)" fill="#6981f7"/>
        <rect id="Rectángulo_458713" data-name="Rectángulo 458713" width="15.755" height="1.194" transform="translate(125.247 98.686)" fill="#083273"/>
        <line id="Línea_3378" data-name="Línea 3378" x2="88.377" transform="translate(62.697 105.061)" fill="none" stroke="#6981f7" stroke-miterlimit="10" stroke-width="1"/>
        <path id="Trazado_1030979" data-name="Trazado 1030979" d="M309.923,350.841h38.455a.648.648,0,0,0,.648-.649V330.776a.649.649,0,0,0-.648-.649H309.923a.648.648,0,0,0-.647.649v19.416a.647.647,0,0,0,.647.649" transform="translate(-149.046 -159.095)" fill="#d7eff5"/>
        <rect id="Rectángulo_458714" data-name="Rectángulo 458714" width="33.113" height="1.158" transform="translate(163.96 177.742)" fill="#083273"/>
        <rect id="Rectángulo_458715" data-name="Rectángulo 458715" width="16.513" height="1.159" transform="translate(163.96 180.705)" fill="#6981f7"/>
        <rect id="Rectángulo_458716" data-name="Rectángulo 458716" width="15.386" height="1.159" transform="translate(181.686 180.705)" fill="#6981f7"/>
        <rect id="Rectángulo_458717" data-name="Rectángulo 458717" width="6.485" height="1.158" transform="translate(163.96 183.665)" fill="#6981f7"/>
        <rect id="Rectángulo_458718" data-name="Rectángulo 458718" width="13.374" height="1.158" transform="translate(171.587 183.665)" fill="#6981f7"/>
        <path id="Trazado_1030980" data-name="Trazado 1030980" d="M199.458,419.208A2.7,2.7,0,0,1,197,422.1H162.2a2.932,2.932,0,0,1,0-5.786H197a2.7,2.7,0,0,1,2.457,2.893" transform="translate(-76.982 -200.631)" fill="#5f78ab"/>
        <path id="Trazado_1030981" data-name="Trazado 1030981" d="M261.336,309.09l-30.552,4.42a.516.516,0,0,1-.585-.437l-3.753-25.943a.516.516,0,0,1,.436-.584l30.552-4.42a.517.517,0,0,1,.585.437l3.753,25.943a.515.515,0,0,1-.436.584" transform="translate(-109.126 -135.96)" fill="#fff"/>
        <path id="Trazado_1030982" data-name="Trazado 1030982" d="M260.328,303.543,233.676,307.4a.5.5,0,0,1-.569-.426l-2.349-16.238a.5.5,0,0,1,.425-.568l26.653-3.857a.5.5,0,0,1,.569.425l2.35,16.238a.5.5,0,0,1-.426.57" transform="translate(-111.204 -137.977)" fill="#6981f7"/>
        <path id="Trazado_1030983" data-name="Trazado 1030983" d="M253.536,299.157l1.089,7.527a.925.925,0,0,0,1.567.523l4.517-4.495a.925.925,0,0,0-.212-1.469l-5.606-3.031a.924.924,0,0,0-1.355.944" transform="translate(-122.179 -143.66)" fill="#fbd131"/>
        <line id="Línea_3379" data-name="Línea 3379" y1="4.001" x2="27.648" transform="translate(122.498 169.112)" fill="none" stroke="#083273" stroke-miterlimit="10" stroke-width="0.951"/>
        <path id="Trazado_1030984" data-name="Trazado 1030984" d="M243.344,332.033a1.007,1.007,0,1,1-1.141-.852,1.007,1.007,0,0,1,1.141.852" transform="translate(-116.307 -159.598)" fill="#fc2863"/>
        <path id="Trazado_1030985" data-name="Trazado 1030985" d="M191.528,343.89a1.848,1.848,0,1,1-3.662.5L186.66,336.4a1.849,1.849,0,1,1,3.663-.5Z" transform="translate(-89.947 -161.106)" fill="#e5ab81"/>
        <path id="Trazado_1030986" data-name="Trazado 1030986" d="M190.031,329.43a1.849,1.849,0,1,1-3.155-1.928l4.9-7.961a1.849,1.849,0,1,1,3.155,1.928Z" transform="translate(-89.929 -153.566)" fill="#e5ab81"/>
        <path id="Trazado_1030987" data-name="Trazado 1030987" d="M192.292,351.762s2.224,3.493,1.693,4.18-1.241-.723-1.241-.723.22,2.532-1.481,3.605-3.717-2-2.549-7.393Z" transform="translate(-90.778 -169.362)" fill="#e5ab81"/>
        <path id="Trazado_1030988" data-name="Trazado 1030988" d="M192.459,356.05a1.739,1.739,0,0,0,.609.718,1.946,1.946,0,0,0,1.564.179.176.176,0,1,0-.113-.334,1.6,1.6,0,0,1-1.26-.141,2.057,2.057,0,0,1-.74-1.641.176.176,0,1,0-.351.03,3.371,3.371,0,0,0,.292,1.19" transform="translate(-92.609 -170.922)" fill="#dc8a6e"/>
        <path id="Trazado_1030989" data-name="Trazado 1030989" d="M189.308,361.214a.169.169,0,0,1-.018-.07.177.177,0,0,1,.171-.182l2.941-.1a.176.176,0,1,1,.012.353l-.235.008-.052,1.811a2.729,2.729,0,0,1-.321.262.151.151,0,0,1-.019-.022.178.178,0,0,1-.018-.082l.058-1.958-.759.025-.028,2.318a1.18,1.18,0,0,1-.351-.051l.027-2.256-.668.021-.077,1.758v0a2.739,2.739,0,0,1-.333-.431l.056-1.316-.222.007a.174.174,0,0,1-.164-.1" transform="translate(-91.223 -173.908)" fill="#dc8a6e"/>
        <path id="Trazado_1030990" data-name="Trazado 1030990" d="M193.165,327.074l3.554-5.133a2.558,2.558,0,1,0-4.235-2.871L188.93,324.2Z" transform="translate(-91.049 -153.225)" fill="#ce1750"/>
        <rect id="Rectángulo_458719" data-name="Rectángulo 458719" width="4.455" height="4.799" transform="translate(91.584 210.872) rotate(-71.923)" fill="#e5ab81"/>
        <path id="Trazado_1030991" data-name="Trazado 1030991" d="M173.724,410.58s-.962-4.963,4.1-3.785,8.67,7.084,5.726,6.894c-2.458-.159-9.825-3.108-9.825-3.108" transform="translate(-83.686 -195.955)" fill="#29354a"/>
        <path id="Trazado_1030992" data-name="Trazado 1030992" d="M184.009,417.466a.242.242,0,0,1-.309.148l-11.29-3.273a.242.242,0,0,1-.148-.309l.3-.836a.241.241,0,0,1,.309-.147l11.289,3.272a.243.243,0,0,1,.148.311Z" transform="translate(-83.01 -199.05)" fill="#8894a5"/>
        <path id="Trazado_1030993" data-name="Trazado 1030993" d="M191.123,354.081l-8.141,24.463-6.028-1.4,5.058-14.255s2.113-11.108,3.064-13l6.861,2.089Z" transform="translate(-85.278 -168.617)" fill="#222d3d"/>
        <rect id="Rectángulo_458720" data-name="Rectángulo 458720" width="4.799" height="4.454" transform="translate(104.391 209.346) rotate(-6.633)" fill="#e5ab81"/>
        <path id="Trazado_1030994" data-name="Trazado 1030994" d="M202.015,415.491s-2.948-4.107,2.142-5.15,10.838,2.812,8.083,3.868c-2.3.883-10.225,1.282-10.225,1.282" transform="translate(-96.946 -197.666)" fill="#29354a"/>
        <path id="Trazado_1030995" data-name="Trazado 1030995" d="M213.746,417.229a.242.242,0,0,1-.219.264L201.9,419.237a.242.242,0,0,1-.264-.219l-.081-.883a.243.243,0,0,1,.219-.264l11.624-1.744a.243.243,0,0,1,.264.22Z" transform="translate(-97.134 -200.54)" fill="#8894a5"/>
        <path id="Trazado_1030996" data-name="Trazado 1030996" d="M200.259,354.466l2.827,25.626-6.064,1.243-1.362-15.063s-2.723-10.975-2.649-13.09l7.107-.97Z" transform="translate(-93.016 -169.738)" fill="#29354a"/>
        <rect id="Rectángulo_458721" data-name="Rectángulo 458721" width="4.213" height="5.316" transform="translate(103.516 161.096)" fill="#dc8a6e"/>
        <path id="Trazado_1030997" data-name="Trazado 1030997" d="M189.191,336.11a15.612,15.612,0,0,0,10.232,1.093l.558-3.056c5.722-17.206-3.86-16.874-3.86-16.874-7.065-.774-4.739,12.241-4.739,12.241.221,2.457-2.995,6.2-2.191,6.6" transform="translate(-91.113 -152.884)" fill="#fc2863"/>
        <path id="Trazado_1030998" data-name="Trazado 1030998" d="M203.448,317.968l-.017-.007-.085-.033c-.037-.013-.074-.027-.11-.038a3.542,3.542,0,0,0-2.042.752s-3.065,2.366,2.459,8.122a14.875,14.875,0,0,1,2.669,4.66q.1-.384.187-.753c.014-.06.026-.117.04-.176.042-.184.084-.366.123-.546.016-.074.03-.147.046-.221.034-.162.066-.321.1-.479.015-.075.029-.149.041-.222.029-.155.056-.308.081-.459.011-.069.022-.139.033-.206.025-.158.048-.312.069-.464.007-.056.016-.113.023-.168.023-.176.044-.346.062-.514l.011-.093c.043-.411.073-.8.091-1.181.247-5.361-2.033-7.286-3.775-7.975" transform="translate(-96.551 -153.198)" fill="#ce1750"/>
        <path id="Trazado_1030999" data-name="Trazado 1030999" d="M205.959,296.073c.4,3.694-1.832,6.973-4.977,7.324s-6.017-2.361-6.413-6.057,1.832-6.974,4.977-7.323,6.015,2.36,6.413,6.056" transform="translate(-93.745 -139.751)" fill="#e5ab81"/>
        <path id="Trazado_1031000" data-name="Trazado 1031000" d="M215.758,305.338a2.084,2.084,0,0,1,.864,1.767l-1.24-.005a4.064,4.064,0,0,1,.376-1.761" transform="translate(-103.797 -147.149)" fill="#e5ab81"/>
        <path id="Trazado_1031001" data-name="Trazado 1031001" d="M199.345,289.616c-3.251.362-5.554,3.751-5.145,7.57a7.4,7.4,0,0,0,2.819,5.176c-.251-1,.344-4.1,2.573-6.885,1.674-2.09,6.26-.141,6.26-.141-.408-3.491-3.319-6.074-6.507-5.719" transform="translate(-93.566 -139.556)" fill="#29354a"/>
        <path id="Trazado_1031002" data-name="Trazado 1031002" d="M209.057,295.066c-.7.452-2.337.87-3.06,1.846h0c1.989-1.079,5.56.437,5.56.437a6.857,6.857,0,0,0-1.519-3.586,3.508,3.508,0,0,1-.984,1.3" transform="translate(-99.274 -141.57)" fill="#222d3d"/>
        <path id="Trazado_1031003" data-name="Trazado 1031003" d="M212.023,294.284a1.967,1.967,0,0,0,.647-1.6c0-1.113,2.226-.288,2.226.718s-.518,3.059-.89,3.169a12.29,12.29,0,0,0-2.934-.775,6.026,6.026,0,0,1,.952-1.515" transform="translate(-101.719 -140.795)" fill="#29354a"/>
        <path id="Trazado_1031004" data-name="Trazado 1031004" d="M203.023,301.915a10.147,10.147,0,0,0,0,3.2c.328.751,1.324,1.085,1.689.654s.971-1.532,1.985-1.2a17.685,17.685,0,0,1,2.639.981,8.347,8.347,0,0,1-2.082,3.519,4.625,4.625,0,0,1-4.376.225c-1.385-.611-.684-5.5-.285-7.232Z" transform="translate(-97.376 -145.499)" fill="#29354a"/>
        <path id="Trazado_1031005" data-name="Trazado 1031005" d="M201.267,303.729a1.2,1.2,0,1,1-1.153-1.525,1.378,1.378,0,0,1,1.153,1.525" transform="translate(-95.884 -145.638)" fill="#e5ab81"/>
        <path id="Trazado_1031006" data-name="Trazado 1031006" d="M213.876,304.663c0,.377.192.682.429.682s.431-.306.431-.682-.193-.682-.431-.682-.429.3-.429.682" transform="translate(-103.071 -146.495)" fill="#29354a"/>
        <path id="Trazado_1031007" data-name="Trazado 1031007" d="M213.094,302.686a1.163,1.163,0,0,1,1.568,0" transform="translate(-102.694 -145.721)" fill="none" stroke="#29354a" stroke-linecap="round" stroke-linejoin="round" stroke-width="0.554"/>
        <path id="Trazado_1031008" data-name="Trazado 1031008" d="M213.567,310.575a1.932,1.932,0,0,1-1.662-.218" transform="translate(-102.121 -149.567)" fill="none" stroke="#ff4462" stroke-linecap="round" stroke-linejoin="round" stroke-width="0.583"/>
        <path id="Trazado_1031009" data-name="Trazado 1031009" d="M223.787,333.83a1.849,1.849,0,1,1-.546,3.657l-8.008-1.078a1.849,1.849,0,1,1,.547-3.657Z" transform="translate(-102.965 -160.35)" fill="#e5ab81"/>
        <path id="Trazado_1031010" data-name="Trazado 1031010" d="M210.762,326.848a1.849,1.849,0,1,1-2.733,2.49l-6.274-6.929a1.849,1.849,0,1,1,2.734-2.49Z" transform="translate(-96.998 -153.884)" fill="#e5ab81"/>
        <path id="Trazado_1031011" data-name="Trazado 1031011" d="M232,333.251s3.477-2.207,4.16-1.679-.72,1.234-.72,1.234,2.517-.213,3.584,1.478-2,3.694-7.358,2.525Z" transform="translate(-111.646 -159.752)" fill="#e5ab81"/>
        <path id="Trazado_1031012" data-name="Trazado 1031012" d="M243.527,336.342c-.008.006-.013.014-.022.018a.186.186,0,0,1-.081.018l-2.1-.066a.174.174,0,1,1,.012-.349l1.929.058a2.633,2.633,0,0,1,.262.321" transform="translate(-116.217 -161.907)" fill="#dc8a6e"/>
        <path id="Trazado_1031013" data-name="Trazado 1031013" d="M241.463,338.274a.174.174,0,0,1,.177-.171l2.313.032a1.14,1.14,0,0,1-.052.349l-2.266-.031a.175.175,0,0,1-.173-.178" transform="translate(-116.366 -162.939)" fill="#dc8a6e"/>
        <path id="Trazado_1031014" data-name="Trazado 1031014" d="M241.483,340.227a.175.175,0,0,1,.183-.167l1.771.08h0a2.661,2.661,0,0,1-.43.331l-1.359-.061a.176.176,0,0,1-.167-.184" transform="translate(-116.375 -163.882)" fill="#dc8a6e"/>
        <path id="Trazado_1031015" data-name="Trazado 1031015" d="M209.071,323.665l-3.934-4.849a2.558,2.558,0,1,0-3.941,3.263l3.933,4.848Z" transform="translate(-96.677 -153.197)" fill="#fc2863"/>
        <path id="Trazado_1031016" data-name="Trazado 1031016" d="M69.813,419.208a2.7,2.7,0,0,1-2.456,2.893h-34.8a2.932,2.932,0,0,1,0-5.786h34.8a2.7,2.7,0,0,1,2.456,2.893" transform="translate(-14.504 -200.631)" fill="#5f78ab"/>
        <rect id="Rectángulo_458722" data-name="Rectángulo 458722" width="0.579" height="141.633" transform="translate(21.378 0.039)" fill="#6981f7"/>
        <rect id="Rectángulo_458723" data-name="Rectángulo 458723" width="0.579" height="141.633" transform="translate(40.54 -0.001)" fill="#6981f7"/>
        <rect id="Rectángulo_458724" data-name="Rectángulo 458724" width="24.151" height="3.262" transform="translate(19.281 136.981)" fill="#0148a2"/>
        <rect id="Rectángulo_458725" data-name="Rectángulo 458725" width="24.151" height="1.105" transform="translate(19.281 139.139)" fill="#083273"/>
        <path id="Trazado_1031017" data-name="Trazado 1031017" d="M90.571,273.386a1.883,1.883,0,0,1-3.082,2.163l-8.065-11.539a1.883,1.883,0,1,1,3.083-2.163Z" transform="translate(-38.111 -125.804)" fill="#dc8a6e"/>
        <path id="Trazado_1031018" data-name="Trazado 1031018" d="M52.871,252.544s-.681,3.89,4.612,5.14c5.492,1.3,9.7,2.531,9.7,2.531s4.035-1.505,2.556-4.39c0,0-10.661-6.029-12.913-6.127s-3.875,1.426-3.955,2.845" transform="translate(-25.466 -120.333)" fill="#222d3d"/>
        <path id="Trazado_1031019" data-name="Trazado 1031019" d="M96.58,289.1s-4.033-2.04-.427-4.968,9.332-2.048,8.007-.269S96.58,289.1,96.58,289.1" transform="translate(-45.616 -136.012)" fill="#29354a"/>
        <path id="Trazado_1031020" data-name="Trazado 1031020" d="M105.964,284.074a.213.213,0,0,1-.073.291l-8.519,5.883a.212.212,0,0,1-.292-.068l-.4-.654a.212.212,0,0,1,.073-.291l8.519-5.884a.214.214,0,0,1,.292.069Z" transform="translate(-46.577 -136.538)" fill="#8894a5"/>
        <path id="Trazado_1031021" data-name="Trazado 1031021" d="M65.688,252.478a11.516,11.516,0,0,1-2.517,4.026l-3.39-4.657Z" transform="translate(-28.81 -121.37)" fill="#29354a"/>
        <path id="Trazado_1031022" data-name="Trazado 1031022" d="M82.388,279.665a1.882,1.882,0,1,1-3.763.125l-.441-14.07a1.883,1.883,0,1,1,3.763-.124Z" transform="translate(-37.678 -127.118)" fill="#e5ab81"/>
        <path id="Trazado_1031023" data-name="Trazado 1031023" d="M52.623,252.1s-1.151,3.777,3.95,5.664a95.216,95.216,0,0,1,9.1,3.89s3.745-1.054,3.291-4.239c0,0-9.845-7.284-12.068-7.656s-4.02.943-4.272,2.341" transform="translate(-25.307 -120.332)" fill="#29354a"/>
        <path id="Trazado_1031024" data-name="Trazado 1031024" d="M77.553,297.646s-2.261-3.914,2.36-4.393,8.933,3.39,6.85,4.155c-2.067.76-9.21.239-9.21.239" transform="translate(-37.108 -141.305)" fill="#29354a"/>
        <path id="Trazado_1031025" data-name="Trazado 1031025" d="M87.517,300.77a.213.213,0,0,1-.22.2l-10.35.266a.212.212,0,0,1-.208-.217l.024-.767a.212.212,0,0,1,.22-.2l10.35-.266a.212.212,0,0,1,.207.217Z" transform="translate(-36.982 -144.473)" fill="#8894a5"/>
        <path id="Trazado_1031026" data-name="Trazado 1031026" d="M85.446,231.307a1.652,1.652,0,1,1,1.123,3.108l-6.3,2.233a1.653,1.653,0,1,1-1.122-3.109Z" transform="translate(-37.616 -111.424)" fill="#dc8a6e"/>
        <path id="Trazado_1031027" data-name="Trazado 1031027" d="M75.4,229.935a1.652,1.652,0,1,1-2.441,2.228l-5.944-6.591a1.653,1.653,0,0,1,2.443-2.229Z" transform="translate(-32.087 -107.373)" fill="#dc8a6e"/>
        <path id="Trazado_1031028" data-name="Trazado 1031028" d="M92.219,228.944s2.444-2.94,3.2-2.668-.286,1.3-.286,1.3,2.165-.907,3.587.285-.71,3.832-5.781,4.326Z" transform="translate(-44.442 -109.039)" fill="#dc8a6e"/>
        <path id="Trazado_1031029" data-name="Trazado 1031029" d="M96.649,230.707a1.6,1.6,0,0,0,.459-.737,1.8,1.8,0,0,0-.283-1.426.163.163,0,1,0-.262.194,1.483,1.483,0,0,1,.231,1.148A1.9,1.9,0,0,1,95.559,231a.163.163,0,0,0,.125.3,3.118,3.118,0,0,0,.964-.593" transform="translate(-46.004 -110.108)" fill="#c6745d"/>
        <path id="Trazado_1031030" data-name="Trazado 1031030" d="M101.307,231.807a.166.166,0,0,1-.057.036.163.163,0,0,1-.208-.1l-.915-2.559a.163.163,0,1,1,.306-.11l.073.2,1.607-.464a2.363,2.363,0,0,1,.322.208c-.006.007-.008.016-.014.023a.168.168,0,0,1-.067.038l-1.738.5.237.66,2.046-.629a1.091,1.091,0,0,1,.054.323l-1.99.612.207.582,1.567-.428h0a2.518,2.518,0,0,1-.285.414l-1.173.322.069.193a.161.161,0,0,1-.041.173" transform="translate(-48.249 -110.271)" fill="#c6745d"/>
        <path id="Trazado_1031031" data-name="Trazado 1031031" d="M69.858,229.391l3.689-3.011-3.695-3.972a2.377,2.377,0,1,0-3.513,3.2Z" transform="translate(-31.671 -106.809)" fill="#ce1750"/>
        <path id="Trazado_1031032" data-name="Trazado 1031032" d="M92.508,223.9a8.134,8.134,0,1,0,8.133-8.134,8.133,8.133,0,0,0-8.133,8.134" transform="translate(-44.581 -103.981)" fill="#fff"/>
        <path id="Trazado_1031033" data-name="Trazado 1031033" d="M101.453,224.434a3.5,3.5,0,1,0,3.5-3.5,3.5,3.5,0,0,0-3.5,3.5" transform="translate(-48.892 -106.473)" fill="#fbd131"/>
        <path id="Trazado_1031034" data-name="Trazado 1031034" d="M103.206,240.733a8.1,8.1,0,0,1-5.377-2.032,5.4,5.4,0,0,1,10.754,0,8.1,8.1,0,0,1-5.377,2.032" transform="translate(-47.146 -112.682)" fill="#fbd131"/>
        <path id="Trazado_1031035" data-name="Trazado 1031035" d="M92.508,223.9a8.134,8.134,0,1,0,8.133-8.134A8.133,8.133,0,0,0,92.508,223.9Z" transform="translate(-44.581 -103.981)" fill="none" stroke="#6981f7" stroke-miterlimit="10" stroke-width="1"/>
        <rect id="Rectángulo_458726" data-name="Rectángulo 458726" width="3.766" height="4.753" transform="translate(32.779 110.376)" fill="#dc8a6e"/>
        <path id="Trazado_1031036" data-name="Trazado 1031036" d="M53.779,235.588a13.947,13.947,0,0,0,9.147.977l.5-2.732c5.116-15.382-3.451-15.086-3.451-15.086-6.316-.691-4.237,10.944-4.237,10.944.2,2.2-2.677,5.541-1.959,5.9" transform="translate(-25.861 -105.404)" fill="#fc2863"/>
        <path id="Trazado_1031037" data-name="Trazado 1031037" d="M71.124,221.795s3.585,4.789,2.486,6.777-1.936,1.884-3.087,4.551c0,0-3.454-14.965.6-11.327" transform="translate(-33.326 -106.613)" fill="#fc2863"/>
        <path id="Trazado_1031038" data-name="Trazado 1031038" d="M71.977,239.28a5.338,5.338,0,0,1-3.075.345,5.875,5.875,0,0,0,2.807.868q.152-.629.268-1.213" transform="translate(-33.205 -115.314)" fill="#ce1750"/>
        <path id="Trazado_1031039" data-name="Trazado 1031039" d="M61.323,218.738c-5.968-.313-3.959,10.959-3.959,10.959.009.093.011.188.018.282l0,0c8.055-2.239,8.6-5.407,8.6-5.407a19.216,19.216,0,0,0-4.666-5.833" transform="translate(-27.488 -105.411)" fill="#ce1750"/>
        <path id="Trazado_1031040" data-name="Trazado 1031040" d="M78.93,231.338a1.653,1.653,0,1,1,.676,3.235l-6.987,1.52a1.653,1.653,0,1,1-.676-3.236Z" transform="translate(-34.037 -111.469)" fill="#e5ab81"/>
        <path id="Trazado_1031041" data-name="Trazado 1031041" d="M68.811,228.459a1.653,1.653,0,1,1-2.667,1.952l-5.175-6.936a1.653,1.653,0,1,1,2.668-1.952Z" transform="translate(-29.229 -106.43)" fill="#e5ab81"/>
        <path id="Trazado_1031042" data-name="Trazado 1031042" d="M85.312,229.131s2.444-2.94,3.2-2.667c.769.277-.286,1.294-.286,1.294s2.165-.906,3.587.286-.71,3.832-5.781,4.325Z" transform="translate(-41.114 -109.129)" fill="#e5ab81"/>
        <path id="Trazado_1031043" data-name="Trazado 1031043" d="M95.672,229.209c-.006.007-.007.017-.014.023a.168.168,0,0,1-.067.038l-1.873.54a.162.162,0,0,1-.089-.312l1.721-.5a2.481,2.481,0,0,1,.322.208" transform="translate(-45.065 -110.36)" fill="#dc8a6e"/>
        <path id="Trazado_1031044" data-name="Trazado 1031044" d="M94.4,231.382a.161.161,0,0,1,.108-.2l2.053-.631a1.092,1.092,0,0,1,.053.323l-2.011.618a.163.163,0,0,1-.2-.108" transform="translate(-45.489 -111.106)" fill="#dc8a6e"/>
        <path id="Trazado_1031045" data-name="Trazado 1031045" d="M94.973,233.284a.162.162,0,0,1,.114-.2l1.587-.433h0a2.582,2.582,0,0,1-.285.414l-1.217.333a.163.163,0,0,1-.2-.115" transform="translate(-45.767 -112.119)" fill="#dc8a6e"/>
        <path id="Trazado_1031046" data-name="Trazado 1031046" d="M63.307,227.648l3.992-2.6-3.245-4.347a2.377,2.377,0,1,0-3.837,2.807Z" transform="translate(-28.798 -105.893)" fill="#fc2863"/>
        <path id="Trazado_1031047" data-name="Trazado 1031047" d="M54.57,210.887a2.737,2.737,0,1,1-2.738-2.737,2.737,2.737,0,0,1,2.738,2.737" transform="translate(-23.66 -100.312)" fill="#29354a"/>
        <path id="Trazado_1031048" data-name="Trazado 1031048" d="M58.647,209c.36.993.212,1.956-.328,2.153s-1.27-.451-1.63-1.444-.213-1.957.328-2.153,1.27.451,1.63,1.444" transform="translate(-27.224 -100.008)" fill="#fc2863"/>
        <path id="Trazado_1031049" data-name="Trazado 1031049" d="M68.191,198c.38,3.545-1.757,6.691-4.775,7.026s-5.772-2.265-6.152-5.809,1.757-6.691,4.775-7.027,5.771,2.265,6.152,5.81" transform="translate(-27.576 -92.607)" fill="#ffb985"/>
        <path id="Trazado_1031050" data-name="Trazado 1031050" d="M68.191,198c.38,3.545-1.757,6.691-4.775,7.026s-5.772-2.265-6.152-5.809,1.757-6.691,4.775-7.027,5.771,2.265,6.152,5.81" transform="translate(-27.576 -92.607)" fill="#e5ab81"/>
        <path id="Trazado_1031051" data-name="Trazado 1031051" d="M77.37,207.9a2,2,0,0,1,.829,1.694l-1.191,0a3.9,3.9,0,0,1,.361-1.691" transform="translate(-37.112 -100.19)" fill="#e5ab81"/>
        <path id="Trazado_1031052" data-name="Trazado 1031052" d="M68.036,196.922a5.938,5.938,0,0,0-6.16-5.072c-3.107.346-5.309,3.586-4.918,7.237a7.039,7.039,0,0,0,2.859,5.066c-.671-1.092-.274-4.711,1.625-5.693a7.706,7.706,0,0,0,2.848-2.558,6.708,6.708,0,0,1-1.706,2.84c4.329-.793,3.874-3.259,3.874-3.259a12.816,12.816,0,0,1,1.577,1.439" transform="translate(-27.427 -92.444)" fill="#29354a"/>
        <path id="Trazado_1031053" data-name="Trazado 1031053" d="M63.691,205.348a1.149,1.149,0,1,1-1.106-1.463,1.323,1.323,0,0,1,1.106,1.463" transform="translate(-29.628 -98.256)" fill="#e5ab81"/>
        <path id="Trazado_1031054" data-name="Trazado 1031054" d="M75.229,206.144c0,.377.193.682.43.682s.431-.306.431-.682-.193-.682-.431-.682-.43.305-.43.682" transform="translate(-36.254 -99.016)" fill="#29354a"/>
        <path id="Trazado_1031055" data-name="Trazado 1031055" d="M74.448,204.169a1.163,1.163,0,0,1,1.568,0" transform="translate(-35.878 -98.243)" fill="none" stroke="#29354a" stroke-linecap="round" stroke-linejoin="round" stroke-width="0.554"/>
        <path id="Trazado_1031056" data-name="Trazado 1031056" d="M74.921,212.057a1.932,1.932,0,0,1-1.662-.218" transform="translate(-35.305 -102.09)" fill="none" stroke="#ff4462" stroke-linecap="round" stroke-linejoin="round" stroke-width="0.583"/>
        <path id="Trazado_1031057" data-name="Trazado 1031057" d="M382.492,419.208a2.7,2.7,0,0,1-2.456,2.893h-34.8a2.932,2.932,0,0,1,0-5.786h34.8a2.7,2.7,0,0,1,2.456,2.893" transform="translate(-165.191 -200.631)" fill="#5f78ab"/>
        <path id="Trazado_1031058" data-name="Trazado 1031058" d="M372.05,254.8s-1.273,3.781-1.907,4.2c0,0,3.036.149,4.67-.843a36.7,36.7,0,0,0,.225-3.79Z" transform="translate(-178.379 -122.586)" fill="#222d3d"/>
        <path id="Trazado_1031059" data-name="Trazado 1031059" d="M384.8,313.7l6.043,19.164,4.5-1.466-5.787-19.032Z" transform="translate(-185.445 -150.533)" fill="#e5ab81"/>
        <path id="Trazado_1031060" data-name="Trazado 1031060" d="M398.109,352.6s.949-4.892-4.041-3.731-8.545,6.983-5.644,6.8c2.423-.157,9.684-3.064,9.684-3.064" transform="translate(-186.687 -168.041)" fill="#29354a"/>
        <path id="Trazado_1031061" data-name="Trazado 1031061" d="M386.95,359.386a.239.239,0,0,0,.306.146l11.128-3.226a.239.239,0,0,0,.146-.305l-.292-.823a.239.239,0,0,0-.3-.146l-11.128,3.225a.242.242,0,0,0-.147.307Z" transform="translate(-186.332 -171.09)" fill="#8894a5"/>
        <path id="Trazado_1031062" data-name="Trazado 1031062" d="M390.591,317.209c-.632-3.177-6.662-23.044-7.362-24.438l-6.764,2.059.8,2.076,6.446,21.928Z" transform="translate(-181.426 -141.092)" fill="#222d3d"/>
        <path id="Trazado_1031063" data-name="Trazado 1031063" d="M372.972,313.522l-2.239,20.739,4.7.548,2.858-20.586Z" transform="translate(-178.664 -151.093)" fill="#e5ab81"/>
        <path id="Trazado_1031064" data-name="Trazado 1031064" d="M369.46,357.439s2.906-4.048-2.112-5.077-10.682,2.772-7.968,3.815c2.267.869,10.079,1.262,10.079,1.262" transform="translate(-172.854 -169.726)" fill="#29354a"/>
        <path id="Trazado_1031065" data-name="Trazado 1031065" d="M357.529,359.152a.239.239,0,0,0,.217.26l11.457,1.719a.239.239,0,0,0,.26-.215l.08-.87a.24.24,0,0,0-.216-.261l-11.459-1.72a.241.241,0,0,0-.26.217Z" transform="translate(-172.3 -172.559)" fill="#8894a5"/>
        <path id="Trazado_1031066" data-name="Trazado 1031066" d="M375.646,320.436c.72-3.519,3.32-23.152,3.585-24.418l-7.006-.956-.137,2.223-3.512,22.155Z" transform="translate(-177.624 -142.196)" fill="#29354a"/>
        <path id="Trazado_1031067" data-name="Trazado 1031067" d="M366.814,275.966a1.822,1.822,0,1,0,3.313,1.517l3.552-7.8a1.823,1.823,0,0,0-3.315-1.518Z" transform="translate(-176.695 -128.723)" fill="#dc8a6e"/>
        <path id="Trazado_1031068" data-name="Trazado 1031068" d="M354.169,286.01a1.823,1.823,0,1,0,1.742,3.2l6.966-3.693a1.822,1.822,0,1,0-1.743-3.2Z" transform="translate(-170.222 -135.947)" fill="#dc8a6e"/>
        <path id="Trazado_1031069" data-name="Trazado 1031069" d="M350.842,289.709s-3.791-.493-4.16.22,1.091.755,1.091.755-2.2.807-2.436,2.649,3.126,2.327,7.18-.76Z" transform="translate(-166.42 -139.537)" fill="#dc8a6e"/>
        <path id="Trazado_1031070" data-name="Trazado 1031070" d="M351.336,293.077a1.6,1.6,0,0,1-.838-.228,1.8,1.8,0,0,1-.762-1.238.163.163,0,1,1,.324-.035,1.479,1.479,0,0,0,.611,1,1.9,1.9,0,0,0,1.662-.023.163.163,0,0,1,.209.1.161.161,0,0,1-.1.209,3.1,3.1,0,0,1-1.11.221" transform="translate(-168.545 -140.446)" fill="#c6745d"/>
        <path id="Trazado_1031071" data-name="Trazado 1031071" d="M348.11,296.476a.157.157,0,0,0,.067-.012.163.163,0,0,0,.085-.215l-1.069-2.5a.163.163,0,1,0-.3.128l.085.2-1.493.752a2.271,2.271,0,0,0-.094.371.187.187,0,0,0,.025.008.153.153,0,0,0,.075-.018l1.615-.814.276.645-1.928.93a1.089,1.089,0,0,0,.18.274l1.876-.906.243.567-1.44.752v0a2.544,2.544,0,0,0,.491.109l1.079-.562.08.189a.162.162,0,0,0,.148.1" transform="translate(-166.451 -141.517)" fill="#c6745d"/>
        <path id="Trazado_1031072" data-name="Trazado 1031072" d="M332.357,269.938l-20.836-5.175a.422.422,0,0,1-.307-.512l5.175-20.835a.422.422,0,0,1,.512-.308l20.835,5.175a.424.424,0,0,1,.309.512l-5.175,20.836a.423.423,0,0,1-.512.308" transform="translate(-149.974 -117.152)" fill="#fff"/>
        <path id="Trazado_1031073" data-name="Trazado 1031073" d="M333.19,269.767l-16.941-4.207a.392.392,0,0,1-.285-.475l4.207-16.94a.392.392,0,0,1,.475-.285l16.94,4.207a.392.392,0,0,1,.285.474l-4.207,16.94a.391.391,0,0,1-.474.286" transform="translate(-152.264 -119.443)" fill="#6981f7"/>
        <path id="Trazado_1031074" data-name="Trazado 1031074" d="M336.613,267.5a6.717,6.717,0,1,1-4.9-8.137,6.717,6.717,0,0,1,4.9,8.137" transform="translate(-155.841 -124.895)" fill="#859fff"/>
        <path id="Trazado_1031075" data-name="Trazado 1031075" d="M340.343,261.437a3.117,3.117,0,1,1-2.274-3.776,3.117,3.117,0,0,1,2.274,3.776" transform="translate(-161.058 -124.127)" fill="#fbd131"/>
        <path id="Trazado_1031076" data-name="Trazado 1031076" d="M340.167,280.9l.979-3.939-2-4.669a.875.875,0,0,0-1.356-.337l-8.4,6.786,10.276,2.552c.3.075.426-.092.5-.393" transform="translate(-158.74 -130.964)" fill="#083273"/>
        <path id="Trazado_1031077" data-name="Trazado 1031077" d="M321.536,261.715l-3.878,3.134L316,271.532c-.075.3-.042.513.257.587l12.68,3.149-5.609-13.109a1.157,1.157,0,0,0-1.791-.444" transform="translate(-152.269 -126.002)" fill="#083273"/>
        <rect id="Rectángulo_458727" data-name="Rectángulo 458727" width="4.152" height="5.24" transform="translate(193.985 131.794)" fill="#dc8a6e"/>
        <path id="Trazado_1031078" data-name="Trazado 1031078" d="M381.227,279.191a15.391,15.391,0,0,1-10.086,1.078l-.551-3.013c-5.64-16.961,3.805-16.633,3.805-16.633,6.964-.762,4.671,12.066,4.671,12.066-.218,2.423,2.952,6.11,2.161,6.5" transform="translate(-177.729 -125.583)" fill="#fc2863"/>
        <path id="Trazado_1031079" data-name="Trazado 1031079" d="M372.532,261.309l.017-.007c.028-.01.057-.021.084-.032l.108-.038a3.5,3.5,0,0,1,2.014.741s3.021,2.332-2.426,8.006a14.7,14.7,0,0,0-2.63,4.594c-.066-.252-.126-.5-.184-.743-.013-.059-.026-.115-.039-.174-.042-.18-.082-.36-.121-.537-.015-.073-.03-.145-.045-.218-.033-.16-.066-.317-.095-.472-.014-.074-.027-.147-.041-.22-.027-.153-.054-.3-.079-.451-.011-.068-.022-.137-.032-.2-.025-.154-.048-.306-.069-.457l-.022-.167c-.023-.172-.044-.34-.062-.506,0-.031-.007-.062-.01-.092-.043-.405-.073-.792-.09-1.164-.243-5.284,2-7.182,3.721-7.86" transform="translate(-177.729 -125.893)" fill="#ce1750"/>
        <path id="Trazado_1031080" data-name="Trazado 1031080" d="M363.959,238.935c-.4,3.738,1.853,7.055,5.034,7.41s6.087-2.389,6.488-6.127-1.854-7.056-5.035-7.41-6.086,2.389-6.487,6.127" transform="translate(-175.377 -112.18)" fill="#ffb985"/>
        <path id="Trazado_1031081" data-name="Trazado 1031081" d="M363.959,238.935c-.4,3.738,1.853,7.055,5.034,7.41s6.087-2.389,6.488-6.127-1.854-7.056-5.035-7.41-6.086,2.389-6.487,6.127" transform="translate(-175.377 -112.18)" fill="#e5ab81"/>
        <path id="Trazado_1031082" data-name="Trazado 1031082" d="M364.437,250.033a2.106,2.106,0,0,0-.873,1.787l1.254,0a4.1,4.1,0,0,0-.381-1.782" transform="translate(-175.207 -120.496)" fill="#e5ab81"/>
        <path id="Trazado_1031083" data-name="Trazado 1031083" d="M363.616,239.868a6.612,6.612,0,0,1,.808-4.039A5.951,5.951,0,0,1,370.3,232.4c2.958.329,5.139,3.137,5.247,6.511,0,0,.708,5.509,1.033,7.388s-7.028,2.1-7.028,2.1,1.85-1.633,2.314-6.33l.02-.017a3.142,3.142,0,0,0-.741-2.736,2.9,2.9,0,0,0-.179,1.6,5.273,5.273,0,0,1-1.415-2.216,4.281,4.281,0,0,0-.076,1.168,6.433,6.433,0,0,1-.952-2.538,3.658,3.658,0,0,1-2.66,1.787,3.854,3.854,0,0,0,.586-1.356,11.323,11.323,0,0,1-2.833,2.107" transform="translate(-175.207 -111.983)" fill="#29354a"/>
        <path id="Trazado_1031084" data-name="Trazado 1031084" d="M377.34,246.68a1.212,1.212,0,1,0,1.166-1.543,1.395,1.395,0,0,0-1.166,1.543" transform="translate(-181.848 -118.137)" fill="#e5ab81"/>
        <path id="Trazado_1031085" data-name="Trazado 1031085" d="M367.084,248.675c0,.377-.193.682-.43.682s-.431-.305-.431-.682.193-.682.431-.682.43.305.43.682" transform="translate(-176.49 -119.513)" fill="#29354a"/>
        <path id="Trazado_1031086" data-name="Trazado 1031086" d="M367.208,246.7a1.164,1.164,0,0,0-1.569,0" transform="translate(-176.209 -118.739)" fill="none" stroke="#29354a" stroke-linecap="round" stroke-linejoin="round" stroke-width="0.554"/>
        <path id="Trazado_1031087" data-name="Trazado 1031087" d="M366.647,254.588a1.934,1.934,0,0,0,1.663-.218" transform="translate(-176.695 -122.586)" fill="none" stroke="#ff4462" stroke-linecap="round" stroke-linejoin="round" stroke-width="0.583"/>
        <path id="Trazado_1031088" data-name="Trazado 1031088" d="M351.346,266.875a1.822,1.822,0,1,0-1.447,3.344l7.79,3.548a1.822,1.822,0,1,0,1.447-3.345Z" transform="translate(-168.093 -128.54)" fill="#e5ab81"/>
        <path id="Trazado_1031089" data-name="Trazado 1031089" d="M364.447,268.9a1.822,1.822,0,1,0,2.695,2.454l5.177-5.666a1.822,1.822,0,1,0-2.695-2.454Z" transform="translate(-175.405 -126.569)" fill="#e5ab81"/>
        <path id="Trazado_1031090" data-name="Trazado 1031090" d="M348.009,264.544s-2.095-3.546-2.943-3.385c-.866.164.081,1.426.081,1.426s-2.146-1.334-3.864-.312.1,4.2,5.407,5.591Z" transform="translate(-164.17 -125.855)" fill="#e5ab81"/>
        <path id="Trazado_1031091" data-name="Trazado 1031091" d="M342.075,263.056c.005.009.005.019.012.026a.186.186,0,0,0,.064.052l1.9.9a.173.173,0,0,0,.232-.083.174.174,0,0,0-.084-.233l-1.745-.825a2.7,2.7,0,0,0-.379.167" transform="translate(-164.853 -126.692)" fill="#dc8a6e"/>
        <path id="Trazado_1031092" data-name="Trazado 1031092" d="M342.979,265.532a.174.174,0,0,0-.08-.233l-2.075-1.023a1.13,1.13,0,0,0-.112.335l2.033,1a.174.174,0,0,0,.235-.08" transform="translate(-164.196 -127.36)" fill="#dc8a6e"/>
        <path id="Trazado_1031093" data-name="Trazado 1031093" d="M342.6,267.529a.175.175,0,0,0-.087-.232l-1.614-.733h0a2.648,2.648,0,0,0,.232.49l1.239.564a.175.175,0,0,0,.232-.088" transform="translate(-164.286 -128.463)" fill="#dc8a6e"/>
        <path id="Trazado_1031094" data-name="Trazado 1031094" d="M369.856,264.076l1.649-1.932a2.522,2.522,0,0,1,3.886,3.216l-1.65,1.933Z" transform="translate(-178.241 -125.892)" fill="#fc2863"/>
        <path id="Trazado_1031095" data-name="Trazado 1031095" d="M372.539,395.166H373.7l6.745-26.791h-1.162Z" transform="translate(-179.534 -177.528)" fill="#083273"/>
        <path id="Trazado_1031096" data-name="Trazado 1031096" d="M353.315,395.166h1.161l6.745-26.791H360.06Z" transform="translate(-170.27 -177.528)" fill="#083273"/>
        <rect id="Rectángulo_458728" data-name="Rectángulo 458728" width="9.564" height="1.124" transform="translate(189.377 194.855)" fill="#083273"/>
        <rect id="Rectángulo_458729" data-name="Rectángulo 458729" width="9.564" height="1.123" transform="translate(188.041 200.248)" fill="#083273"/>
        <rect id="Rectángulo_458730" data-name="Rectángulo 458730" width="9.565" height="1.124" transform="translate(186.586 205.993)" fill="#083273"/>
        <rect id="Rectángulo_458731" data-name="Rectángulo 458731" width="9.564" height="1.125" transform="translate(185.082 211.981)" fill="#083273"/>
        <rect id="Rectángulo_458732" data-name="Rectángulo 458732" width="15.484" height="2.95" transform="translate(189.798 187.898)" fill="#0148a2"/>
        <rect id="Rectángulo_458733" data-name="Rectángulo 458733" width="15.484" height="1" transform="translate(189.798 189.848)" fill="#083273"/>
        <path id="Trazado_1031097" data-name="Trazado 1031097" d="M382.673,395.166h-1.162l-6.745-26.791h1.161Z" transform="translate(-180.607 -177.528)" fill="#0148a2"/>
        <path id="Trazado_1031098" data-name="Trazado 1031098" d="M401.9,395.166h-1.162l-6.746-26.791h1.162Z" transform="translate(-189.871 -177.528)" fill="#0148a2"/>
        <rect id="Rectángulo_458734" data-name="Rectángulo 458734" width="9.564" height="1.124" transform="translate(196.13 194.855)" fill="#0148a2"/>
        <rect id="Rectángulo_458735" data-name="Rectángulo 458735" width="9.564" height="1.123" transform="translate(197.465 200.248)" fill="#0148a2"/>
        <rect id="Rectángulo_458736" data-name="Rectángulo 458736" width="9.564" height="1.124" transform="translate(198.92 205.993)" fill="#0148a2"/>
        <rect id="Rectángulo_458737" data-name="Rectángulo 458737" width="9.565" height="1.125" transform="translate(200.423 211.981)" fill="#0148a2"/>
      </g>
    </g>
  </g>
</svg>
