<svg xmlns="http://www.w3.org/2000/svg" xmlns:xlink="http://www.w3.org/1999/xlink" width="84" height="84" viewBox="0 0 84 84">
  <defs>
    <clipPath id="clip-path">
      <rect id="Rectángulo_464201" data-name="Rectángulo 464201" width="76.667" height="56.659" fill="#344866"/>
    </clipPath>
  </defs>
  <g id="Grupo_1213784" data-name="Grupo 1213784" transform="translate(0.578 0.611)">
    <g id="Grupo_1119665" data-name="Grupo 1119665" transform="translate(-0.578 -0.611)">
      <rect id="Rectángulo_402006" data-name="Rectángulo 402006" width="84" height="84" rx="5" fill="#ffe79e"/>
    </g>
    <g id="Grupo_1214172" data-name="Grupo 1214172" transform="translate(3.422 13.389)">
      <g id="Grupo_1214171" data-name="Grupo 1214171" clip-path="url(#clip-path)">
        <path id="Trazado_1281792" data-name="Trazado 1281792" d="M70.444,56.632l-63.886.027A7.038,7.038,0,0,1,.192,52.044,2.693,2.693,0,0,1,.51,49.456a2.775,2.775,0,0,1,2.76-.811l0-44.373c0-1.955,1.374-4.26,3.537-4.26L69.627,0c2.428,0,3.759,2.287,3.758,4.521l0,44.122a2.86,2.86,0,0,1,2.641.679A2.531,2.531,0,0,1,76.5,51.9c-.887,2.325-3.106,4.733-6.061,4.735m1.325-8.038,0-44.746a2.317,2.317,0,0,0-2.166-2.223H7.048A2.318,2.318,0,0,0,4.881,3.844l0,44.751Zm2.37,1.59L47.414,50.2a3.381,3.381,0,0,1-3.191,3.22L32.66,53.44a3.421,3.421,0,0,1-3.423-3.249H2.376c-2.034,0,.291,4.877,4.419,4.877H69.858a5.491,5.491,0,0,0,5.2-3.861c.168-.484-.309-1.023-.918-1.022M44.234,51.805a1.593,1.593,0,0,0,1.509-1.611H30.852a1.748,1.748,0,0,0,1.662,1.618Z" transform="translate(0 0)" fill="#344866"/>
        <path id="Trazado_1281793" data-name="Trazado 1281793" d="M92.386,58.742H29.919V16.278H92.386Zm-1.57-40.87H31.489V57.12H90.817Z" transform="translate(-22.826 -12.419)" fill="#344866"/>
        <path id="Trazado_1281794" data-name="Trazado 1281794" d="M97.3,61.52a2.967,2.967,0,0,1,3.44,1.809,3.022,3.022,0,0,1-1.073,3.519,2.77,2.77,0,0,1-3.628-.389,2.973,2.973,0,0,1-.068-4.036L94.5,59.809l-5.617.048c-.888,1.111-2.173,1.635-3.357.706L83.6,59.053l-.281,1.988c-.132.934-.393,2.1-1.483,2.341a10.752,10.752,0,0,1-3.517.1A2.237,2.237,0,0,1,76.5,61.256l-.272-2.188-1.819,1.4a2.341,2.341,0,0,1-3.5-.612L65.236,59.8,63.71,62.4a2.956,2.956,0,0,1,.088,3.915,2.8,2.8,0,0,1-3.594.651,2.922,2.922,0,0,1-1.292-3.52,2.887,2.887,0,0,1,3.418-1.883l2.018-3.324,5.021-.033a2.357,2.357,0,0,1,.3-2.556l1.4-1.76c-1.292-.661-2.641-.139-3.585-1.007a3.278,3.278,0,0,1-.753-2.078l-6.582.013a3.057,3.057,0,0,1-3.138,2.1,2.913,2.913,0,1,1,3.063-3.754l6.669.022a3.438,3.438,0,0,1,.679-1.911c.874-.848,2.358-.387,3.668-.95l-1.274-1.651a2.41,2.41,0,0,1-.392-2.823l-5.03.033c-.641-1.009-1.288-2.1-1.962-3.294a3.176,3.176,0,0,1-3.422-1.7,2.939,2.939,0,0,1,1-3.645,2.823,2.823,0,0,1,3.721.46,2.87,2.87,0,0,1,0,3.911L65.2,40.251l5.76-.086c.492-.4,1.251-1.085,1.76-1.078a3.266,3.266,0,0,1,1.949.779l1.511,1.22c.429-2.1.156-4.479,2.473-4.479h2.487c2.339,0,2.022,2.423,2.481,4.447l2.122-1.623c1.141-.872,2.241.039,3.1.689,1.852.139,3.624.106,5.6.127l1.537-2.558a3.11,3.11,0,0,1-.1-3.918,2.9,2.9,0,0,1,3.732-.605,2.963,2.963,0,0,1,1.159,3.482,2.829,2.829,0,0,1-3.426,1.847l-1.914,3.323-5.04.05a2.458,2.458,0,0,1-.4,2.8l-1.276,1.65,1.879.351c1.58.295,2.151.33,2.521,2.512l6.511-.006a2.85,2.85,0,0,1,3.125-2.06,2.934,2.934,0,0,1,.213,5.758,2.809,2.809,0,0,1-3.34-2.062l-6.6-.008a2.306,2.306,0,0,1-2.367,2.669,6.853,6.853,0,0,0-1.907.412l1.177,1.49a2.662,2.662,0,0,1,.547,2.84l4.92.027ZM62.909,35.659a1.287,1.287,0,1,0-1.286,1.319,1.3,1.3,0,0,0,1.286-1.319m36.436,0a1.275,1.275,0,1,0-1.274,1.307,1.291,1.291,0,0,0,1.274-1.307M81.627,61.841l.356-2.957c.07-.581,1.1-1.2,1.642-1.211a3.183,3.183,0,0,1,1.876.765l1.426,1.075a8.379,8.379,0,0,0,2.259-2.433L87.8,55.338a2.311,2.311,0,0,1-.233-2.32,2.347,2.347,0,0,1,1.646-1.048l2.208-.234-.008-3.31-1.945-.23a2.622,2.622,0,0,1-1.789-.908,2.246,2.246,0,0,1-.108-2.156l1.69-2.2-2.333-2.409-1.58,1.307a2.105,2.105,0,0,1-2.416.439c-1.607-.958-.8-2.463-1.475-4.05l-3.221.041L78,40.162a2.473,2.473,0,0,1-1.3,2.186,2.173,2.173,0,0,1-2.244-.515l-1.586-1.315-2.344,2.414,1.5,1.9a2.178,2.178,0,0,1,.174,2.319A2.529,2.529,0,0,1,70.334,48.2l-1.944.214a32.032,32.032,0,0,0,0,3.305l2.629.347a2.058,2.058,0,0,1,1.311,1.163,2.53,2.53,0,0,1-.138,1.834l-1.56,2.015A7.632,7.632,0,0,0,72.868,59.5c1.4-.7,1.867-2.006,3.481-1.8.5.063,1.388.681,1.459,1.195l.419,3.006Zm-23-11.826a1.29,1.29,0,1,0-1.289,1.322,1.306,1.306,0,0,0,1.289-1.322m45.016-.009a1.281,1.281,0,1,0-1.281,1.313,1.3,1.3,0,0,0,1.281-1.313M62.9,64.4a1.28,1.28,0,1,0-1.279,1.311A1.3,1.3,0,0,0,62.9,64.4m36.463.006a1.287,1.287,0,1,0-1.286,1.318,1.3,1.3,0,0,0,1.286-1.318" transform="translate(-41.572 -24.978)" fill="#344866"/>
        <path id="Trazado_1281795" data-name="Trazado 1281795" d="M146.769,83.7a6.718,6.718,0,1,1-6.716-6.884,6.8,6.8,0,0,1,6.716,6.884m-1.583,0a5.134,5.134,0,1,0-5.133,5.261,5.2,5.2,0,0,0,5.133-5.261" transform="translate(-101.727 -58.604)" fill="#344866"/>
        <path id="Trazado_1281796" data-name="Trazado 1281796" d="M147.211,100.412l-1.524-2.2a1.176,1.176,0,0,1,.192-1.131.981.981,0,0,1,1.039.094l1.088,1.575,3.617-2.736a1.5,1.5,0,0,1,1.091.031.913.913,0,0,1,.027,1.086l-4.343,3.365a1.2,1.2,0,0,1-1.186-.08" transform="translate(-111.09 -73.18)" fill="#344866"/>
      </g>
    </g>
  </g>
</svg>
