<svg xmlns="http://www.w3.org/2000/svg" xmlns:xlink="http://www.w3.org/1999/xlink" width="84" height="84" viewBox="0 0 84 84">
  <defs>
    <clipPath id="clip-path">
      <rect id="Rectángulo_464202" data-name="Rectángulo 464202" width="65" height="62.086" fill="#344866"/>
    </clipPath>
  </defs>
  <g id="Grupo_1213778" data-name="Grupo 1213778" transform="translate(0.578 0.611)">
    <g id="Grupo_1119665" data-name="Grupo 1119665" transform="translate(-0.578 -0.611)">
      <rect id="Rectángulo_402006" data-name="Rectángulo 402006" width="84" height="84" rx="5" fill="#ffe79e"/>
    </g>
    <g id="Grupo_1214174" data-name="Grupo 1214174" transform="translate(9.422 10.389)">
      <g id="Grupo_1214173" data-name="Grupo 1214173" clip-path="url(#clip-path)">
        <path id="Trazado_1281797" data-name="Trazado 1281797" d="M40.779,62.078l-22.7-.014a2.79,2.79,0,0,1-2.59-3.046,2.746,2.746,0,0,1,3.121-2.52,2.778,2.778,0,0,0,3.229-2.643l.366-3.537-17.547,0A4.609,4.609,0,0,1,.009,45.667L0,33.55a1.021,1.021,0,0,1,.875-1.039.981.981,0,0,1,1.011.842l0,7.651L41.3,41l.016-1.843-35.885,0a1.586,1.586,0,0,1-1.693-1.712l0-32.17A1.466,1.466,0,0,1,5.253,3.749H53.6a1.514,1.514,0,0,1,1.553,1.519l0,20.992,1.791.007V4.709A2.725,2.725,0,0,0,54.2,1.918L48.585,1.9c-.45,0-.8-.628-.767-1.024A1.05,1.05,0,0,1,48.759,0l5.485.014C56.408.019,58.8,1.76,58.8,4.147l.053,22.121,2.411.055A4.081,4.081,0,0,1,65,30.575V48.263a1.031,1.031,0,0,1-.848.95c-.377.043-1.027-.277-1.027-.754L63.1,30.416a2.254,2.254,0,0,0-2.027-2.21H45.265a2.247,2.247,0,0,0-2.039,2.218l0,27.5a2.331,2.331,0,0,0,2.4,2.254l14.9.011a2.424,2.424,0,0,0,2.578-2.428l0-4.842c0-.652.255-1.089.866-1.142A.935.935,0,0,1,65,52.738l-.046,5.4a4.213,4.213,0,0,1-4.424,3.95l-15.09-.012a4.859,4.859,0,0,1-2.642-.982,3.647,3.647,0,0,1-2.02.986M53.254,5.6H5.637v5.334H53.254ZM44.938,26.288l8.316-.023,0-13.405H5.635l.005,24.42H41.323l.062-7.264a4.185,4.185,0,0,1,3.554-3.73m-3.611,22.16,0-5.54H1.9L1.881,45.5a2.854,2.854,0,0,0,2.805,2.944ZM35.9,56.479,35.349,55.2l-.639-4.879-10.544,0-.409,3.439a6.962,6.962,0,0,1-.837,2.731Zm5.435,0,0-6.17-4.688.008.427,3.734a2.579,2.579,0,0,0,2.209,2.4Zm-.927,3.7a.982.982,0,0,0,1.071-.861.96.96,0,0,0-.912-.957H18.291a.959.959,0,0,0-.909.961,1.011,1.011,0,0,0,1.069.856Z" transform="translate(0 0)" fill="#344866"/>
        <path id="Trazado_1281798" data-name="Trazado 1281798" d="M254.982,158.4a1.365,1.365,0,0,1,1.479,1.353l0,26.482a1.445,1.445,0,0,1-1.431,1.522l-14.289,0a1.455,1.455,0,0,1-1.464-1.5l0-26.54A1.375,1.375,0,0,1,240.7,158.4l2.636-.005a1.485,1.485,0,0,1,1.6,1.5l.043,1.249,5.979,0,.015-1.3a1.416,1.416,0,0,1,1.481-1.446Zm-2.121,1.925a3.688,3.688,0,0,1-.374,2.007,2.178,2.178,0,0,1-1.5.707l-6.022.006a2.163,2.163,0,0,1-1.563-.766,4.124,4.124,0,0,1-.428-1.971l-1.777.087v25.429l13.362,0V160.4Z" transform="translate(-194.72 -128.901)" fill="#344866"/>
        <path id="Trazado_1281799" data-name="Trazado 1281799" d="M4.783,1.925A2.777,2.777,0,0,0,1.9,4.73L1.9,28.907a.977.977,0,0,1-.878,1.057A.977.977,0,0,1,.011,28.908L.017,4.716A4.629,4.629,0,0,1,4.7.022l39.6,0a1,1,0,0,1,.994.869c.029.417-.22,1.034-.8,1.034Z" transform="translate(-0.009 -0.015)" fill="#344866"/>
        <path id="Trazado_1281800" data-name="Trazado 1281800" d="M279.254,159.838l-1.809.02c-.323,0-.754-.527-.787-.823s.29-1.034.592-1.037l2.124-.016c.286,0,.651.605.669.881.02.31-.415.97-.789.974" transform="translate(-225.136 -128.562)" fill="#344866"/>
        <path id="Trazado_1281801" data-name="Trazado 1281801" d="M94.77,93.487l.218,1.185,9.778-.015a2.691,2.691,0,0,1,2.973,2.5,2.592,2.592,0,1,1-5.1-.557l-4.348-.019a2.875,2.875,0,0,1-.994,2.747,2.582,2.582,0,0,1-2.986.058,2.434,2.434,0,0,1-.983-2.866,2.066,2.066,0,0,0-.115-1.187l-3.39-14.242-2.23-.028a1.032,1.032,0,0,1-.956-.884.984.984,0,0,1,.985-1.026l2.862-.022a1.231,1.231,0,0,1,1.026.752l.67,2.87,15.674.013a1.413,1.413,0,0,1,1.289,1.852l-2.03,8.236a1.1,1.1,0,0,1-1.018.641Zm10.7-1.875,1.675-6.91-14.509,0,1.637,6.914ZM96.407,97.24a.67.67,0,1,0-.669.669.669.669,0,0,0,.669-.669m9.413.02a.664.664,0,1,0-.664.664.664.664,0,0,0,.664-.664" transform="translate(-70.498 -64.396)" fill="#344866"/>
        <path id="Trazado_1281802" data-name="Trazado 1281802" d="M154.869,241.173a.953.953,0,1,1-.953-.953.953.953,0,0,1,.953.953" transform="translate(-124.477 -195.486)" fill="#344866"/>
        <path id="Trazado_1281803" data-name="Trazado 1281803" d="M137.465,42.06H109.95a1.138,1.138,0,0,1-.94-.717,1.162,1.162,0,0,1,.586-1.184l28.23.006c.415,0,.7.741.661,1.049a1.077,1.077,0,0,1-1.021.846" transform="translate(-88.696 -32.681)" fill="#344866"/>
        <path id="Trazado_1281804" data-name="Trazado 1281804" d="M49.024,41a.947.947,0,1,1-.947-.947.947.947,0,0,1,.947.947" transform="translate(-38.353 -32.594)" fill="#344866"/>
        <path id="Trazado_1281805" data-name="Trazado 1281805" d="M87.6,41.006a.943.943,0,1,1-.944-.944.944.944,0,0,1,.944.944" transform="translate(-69.75 -32.602)" fill="#344866"/>
        <path id="Trazado_1281806" data-name="Trazado 1281806" d="M68.307,41.013a.946.946,0,1,1-.946-.946.946.946,0,0,1,.946.946" transform="translate(-54.047 -32.606)" fill="#344866"/>
        <path id="Trazado_1281807" data-name="Trazado 1281807" d="M269.973,198.634l-7.2.01a1.2,1.2,0,0,1-.944-.833c-.065-.435.325-1.1.821-1.1l7.361,0c.425,0,.838.558.851.931.013.344-.409,1-.891,1" transform="translate(-213.067 -160.074)" fill="#344866"/>
        <path id="Trazado_1281808" data-name="Trazado 1281808" d="M269.887,267.861H262.8a.953.953,0,0,1-.955-1.021c.044-.579.508-.885,1.134-.885l6.928,0a.982.982,0,0,1,.958.875.941.941,0,0,1-.976,1.026" transform="translate(-213.08 -216.429)" fill="#344866"/>
        <path id="Trazado_1281809" data-name="Trazado 1281809" d="M269.871,221.745l-7.092.006a1.108,1.108,0,0,1-.948-.845c-.054-.407.289-1.061.749-1.063l7.119-.021c.642,0,1.106.281,1.155.91a.979.979,0,0,1-.984,1.013" transform="translate(-213.068 -178.886)" fill="#344866"/>
        <path id="Trazado_1281810" data-name="Trazado 1281810" d="M269.891,244.825l-7.085,0a1,1,0,0,1-.953-1.017c.04-.6.509-.89,1.134-.89l6.926.007a.974.974,0,0,1,.964.875.944.944,0,0,1-.986,1.018" transform="translate(-213.089 -197.686)" fill="#344866"/>
        <path id="Trazado_1281811" data-name="Trazado 1281811" d="M282.945,287.023a.946.946,0,1,1-.946-.946.946.946,0,0,1,.946.946" transform="translate(-228.716 -232.803)" fill="#344866"/>
      </g>
    </g>
  </g>
</svg>
