<svg xmlns="http://www.w3.org/2000/svg" xmlns:xlink="http://www.w3.org/1999/xlink" width="84" height="84" viewBox="0 0 84 84">
  <defs>
    <clipPath id="clip-path">
      <rect id="Rectángulo_464228" data-name="Rectángulo 464228" width="65.725" height="65.732" fill="#344866"/>
    </clipPath>
  </defs>
  <g id="Grupo_1214975" data-name="Grupo 1214975" transform="translate(-1017.711 -5145)">
    <g id="Grupo_1213807" data-name="Grupo 1213807" transform="translate(1018.289 5145.611)">
      <g id="Grupo_1119665" data-name="Grupo 1119665" transform="translate(-0.578 -0.611)">
        <rect id="Rectángulo_402006" data-name="Rectángulo 402006" width="84" height="84" rx="5" fill="#ffe79e"/>
      </g>
      <g id="Grupo_1214201" data-name="Grupo 1214201" transform="translate(8.422 8.389)">
        <g id="Grupo_1214200" data-name="Grupo 1214200" clip-path="url(#clip-path)">
          <path id="Trazado_1281884" data-name="Trazado 1281884" d="M56.106,17.007c.3-6.763-4.792-12.966-11.291-14.483A14.9,14.9,0,0,0,27.932,10.6a11.677,11.677,0,0,0-18.36,8.56,6.356,6.356,0,1,0-1.106,12.62l10.612.008v2.133L8.1,33.878A8.385,8.385,0,0,1,.006,25.743C-.16,21.086,3.281,17.615,7.732,16.9a14.769,14.769,0,0,1,6.805-8.854,13.827,13.827,0,0,1,12.6-.337A16.954,16.954,0,0,1,58.3,17.024a8.491,8.491,0,0,1,7.418,8.695c-.109,4.171-3.486,8.11-7.9,8.137l-11.166.069,0-2.147L57.08,31.8A6.357,6.357,0,1,0,50.9,25.424l-2.1.021a8.5,8.5,0,0,1,7.306-8.438" transform="translate(0 0)" fill="#344866"/>
          <path id="Trazado_1281885" data-name="Trazado 1281885" d="M139.7,225.653h-12.7l-.024-2.138,2.137,0-.01-2.077-2.176-.038a3.208,3.208,0,0,1-3.128-3.279l0-8.3a3.214,3.214,0,0,1,3.233-3.263l5.243-.008.006-9.518h2.136l.006,9.519,5.244.006a3.235,3.235,0,0,1,3.242,3.264l-.04,8.674a3.107,3.107,0,0,1-2.909,2.885l-2.363.07-.006,2.08,2.136-.016Zm1.064-10.622,0-5.395a1.176,1.176,0,0,0-.909-.95l-12.822,0a1.073,1.073,0,0,0-1.087.959l-.007,5.383Zm-.672,4.232c.734-.328.805-1.44.608-2.1l-14.737.014c-.166.77,0,2.066.722,2.067Zm-4.634,2.147h-4.216v2.1h4.216Z" transform="translate(-100.479 -159.921)" fill="#344866"/>
          <path id="Trazado_1281886" data-name="Trazado 1281886" d="M15.92,248.5H3.223l-.02-2.14H5.344l0-2.1H3.3a3.2,3.2,0,0,1-3.255-3.109l0-8.679a3.106,3.106,0,0,1,2.99-3.046l5.484-.04,0-4.208,2.115,0,.016,4.21,5.417.029a3.16,3.16,0,0,1,3.043,3.046L19.1,241.35a3.165,3.165,0,0,1-3.084,2.9l-2.168.015-.009,2.081,2.112.024ZM17,237.879l.006-5.219a1.122,1.122,0,0,0-1.334-1.123l-12.6,0a1.162,1.162,0,0,0-.91.953l.009,5.39Zm-.72,4.208c.792-.107.887-1.552.647-2.071l-14.748,0a2.136,2.136,0,0,0,.57,2.1Zm-4.589,2.171H7.463v2.1h4.228Z" transform="translate(-0.035 -182.77)" fill="#344866"/>
          <path id="Trazado_1281887" data-name="Trazado 1281887" d="M263.526,248.5h-12.7l-.029-2.13,2.1-.023.019-2.055-2.338-.065a3.137,3.137,0,0,1-2.937-2.876l-.036-8.688a3.242,3.242,0,0,1,3.266-3.266h5.214l.017-4.22h2.118l0,4.218,5.3.008a3.144,3.144,0,0,1,3.17,3.077l-.012,8.843a3.081,3.081,0,0,1-2.909,2.9l-2.375.063.006,2.088,2.141-.018Zm1.052-10.624.014-5.388a1.23,1.23,0,0,0-.916-.955l-12.79,0a1.106,1.106,0,0,0-1.143,1.119l.008,5.226Zm-.633,4.236c.717-.357.752-1.413.587-2.1l-14.755.013c-.194.779,0,2.068.766,2.069Zm-4.658,2.145h-4.228v2.135h4.228Z" transform="translate(-200.981 -182.767)" fill="#344866"/>
          <path id="Trazado_1281888" data-name="Trazado 1281888" d="M69.664,167.82H67.558l.011-4.242,14.835,0,0-11.644,2.107-.017,0,13.787H69.7Z" transform="translate(-54.835 -123.311)" fill="#344866"/>
          <path id="Trazado_1281889" data-name="Trazado 1281889" d="M208.392,167.808l-2.111.016-.043-2.116-14.815,0V151.939l2.108-.017.008,11.662,14.832-.006Z" transform="translate(-155.371 -123.31)" fill="#344866"/>
          <path id="Trazado_1281890" data-name="Trazado 1281890" d="M105.6,134.408l-2.116.02-.005-4.455a3.134,3.134,0,0,1-2.073-3.482,3.194,3.194,0,0,1,3.024-2.662,3.149,3.149,0,0,1,3.211,2.449,3.193,3.193,0,0,1-2.054,3.72Zm-.011-7.4a1.054,1.054,0,1,0-1.054,1.054,1.054,1.054,0,0,0,1.054-1.054" transform="translate(-82.277 -100.506)" fill="#344866"/>
          <path id="Trazado_1281891" data-name="Trazado 1281891" d="M218.162,134.414l-2.118.01.008-4.422a3.211,3.211,0,0,1-2.086-3.566,3.153,3.153,0,0,1,3.066-2.608,3.193,3.193,0,0,1,3.169,2.511,3.1,3.1,0,0,1-2.04,3.629Zm-.005-7.407a1.053,1.053,0,1,0-1.054,1.054,1.054,1.054,0,0,0,1.054-1.054" transform="translate(-173.628 -100.507)" fill="#344866"/>
          <path id="Trazado_1281892" data-name="Trazado 1281892" d="M161.831,117.528l-2.137.018,0-4.417a3.308,3.308,0,0,1-2.092-3.459,3.189,3.189,0,0,1,6.25-.321,3.15,3.15,0,0,1-2.007,3.73Zm-.011-7.41a1.057,1.057,0,1,0-1.057,1.057,1.057,1.057,0,0,0,1.057-1.057" transform="translate(-127.897 -86.798)" fill="#344866"/>
          <path id="Trazado_1281893" data-name="Trazado 1281893" d="M224.929,33.289a10.624,10.624,0,0,0-11.405-8.642l-.2-2.1A12.718,12.718,0,0,1,227.006,32.9Z" transform="translate(-173.146 -18.252)" fill="#344866"/>
          <path id="Trazado_1281894" data-name="Trazado 1281894" d="M47.239,193.453l-.1,2.126-2.086.02-.006-4.256h10.6l.009,2.118Z" transform="translate(-36.561 -155.307)" fill="#344866"/>
          <path id="Trazado_1281895" data-name="Trazado 1281895" d="M256.166,195.594l-.011-2.136-8.476,0,0-2.116,10.6,0,0,4.25Z" transform="translate(-201.033 -155.303)" fill="#344866"/>
          <path id="Trazado_1281896" data-name="Trazado 1281896" d="M71.741,58.323a7.48,7.48,0,0,0-7.371,6.512l-2.114-.3a9.589,9.589,0,0,1,9.428-8.322Z" transform="translate(-50.532 -45.622)" fill="#344866"/>
          <path id="Trazado_1281897" data-name="Trazado 1281897" d="M161.272,32.42l-1.89-.963a12.945,12.945,0,0,1,7.854-6.431l.58,2.03a10.835,10.835,0,0,0-6.544,5.364" transform="translate(-129.365 -20.313)" fill="#344866"/>
          <rect id="Rectángulo_464225" data-name="Rectángulo 464225" width="2.14" height="2.146" transform="translate(31.797 32.854)" fill="#344866"/>
          <rect id="Rectángulo_464226" data-name="Rectángulo 464226" width="2.115" height="2.159" transform="translate(21.203 36.034)" fill="#344866"/>
          <rect id="Rectángulo_464227" data-name="Rectángulo 464227" width="2.115" height="2.159" transform="translate(42.416 36.034)" fill="#344866"/>
        </g>
      </g>
    </g>
  </g>
</svg>
