<svg xmlns="http://www.w3.org/2000/svg" xmlns:xlink="http://www.w3.org/1999/xlink" width="84" height="84" viewBox="0 0 84 84">
  <defs>
    <clipPath id="clip-path">
      <rect id="Rectángulo_464219" data-name="Rectángulo 464219" width="59.426" height="68.248" fill="#344866"/>
    </clipPath>
  </defs>
  <g id="Grupo_1214973" data-name="Grupo 1214973" transform="translate(-185.711 -5146)">
    <g id="Grupo_1213799" data-name="Grupo 1213799" transform="translate(186 5154.611)">
      <g id="Grupo_1119665" data-name="Grupo 1119665" transform="translate(-0.289 -8.611)">
        <rect id="Rectángulo_402006" data-name="Rectángulo 402006" width="84" height="84" rx="5" fill="#ffe79e"/>
      </g>
      <g id="Grupo_1214197" data-name="Grupo 1214197" transform="translate(11.711 -0.611)">
        <g id="Grupo_1214196" data-name="Grupo 1214196" clip-path="url(#clip-path)">
          <path id="Trazado_1281877" data-name="Trazado 1281877" d="M30.88,66.982a1.474,1.474,0,0,1-.8,1.234,1.389,1.389,0,0,1-1.36-.507l-2.8-4.209A29.862,29.862,0,0,1,4.683,49.914L1.671,51.631a1.494,1.494,0,0,1-1.305-.14,1.443,1.443,0,0,1-.248-1.409l2.268-4.594A29.661,29.661,0,0,1,3.511,20.344L.523,18.6a1.409,1.409,0,0,1-.5-1.281,1.333,1.333,0,0,1,1.2-.837l16.285-1.05a1.259,1.259,0,0,1,1.087.786l1.669,5.033A16.7,16.7,0,0,1,29.6,18.178c.865-.018,1.243.661,1.263,1.426l.061,2.339,6.458-7.275L30.9,4.966c.029.7-.173,1.829-.949,1.831a27.269,27.269,0,0,0-18.77,7.281L9.592,12.412A29.6,29.6,0,0,1,28.557,4.56V1.2A1.453,1.453,0,0,1,29.345.034a1.377,1.377,0,0,1,1.361.508l2.805,4.216a29.773,29.773,0,0,1,21.23,13.593l3.015-1.733a1.512,1.512,0,0,1,1.305.142,1.453,1.453,0,0,1,.248,1.408l-2.266,4.593A29.639,29.639,0,0,1,55.908,47.9L58.9,49.659a1.4,1.4,0,0,1,.495,1.279,1.361,1.361,0,0,1-1.2.848L41.915,52.833a1.255,1.255,0,0,1-1.086-.8l-1.664-5.027a16.984,16.984,0,0,1-9.356,3.1A1.323,1.323,0,0,1,28.6,49.068l-.1-2.761-6.452,7.279,6.479,9.7c-.035-.724.168-1.815.943-1.819A27.277,27.277,0,0,0,48.63,53.792l1.633,1.648a29.715,29.715,0,0,1-19.42,8.268ZM42.958,27.764l-2.065,1.322,9.521,1.955,5.079-10.356-1.307.353c-.26.07-.718-.427-.887-.708A27.287,27.287,0,0,0,35.335,7.436l4.487,6.814A1.2,1.2,0,0,1,39.6,15.6l-3.45,3.937a15.984,15.984,0,0,1,7.446,6.782,1.186,1.186,0,0,1-.637,1.449m-29.135,8.1a16.692,16.692,0,0,1,2.231-9.983,2.657,2.657,0,0,1,1.336-.179l2.383,1.307-3.065-9.254-11.588.771a11.45,11.45,0,0,1,.988.93c.181.214.016.879-.141,1.159A27.276,27.276,0,0,0,3.777,42.671L7.546,35.1a2.265,2.265,0,0,1,1.187-.268Zm17.049,11.87a13.382,13.382,0,0,0,7.5-3.074L36.5,38.965a1.492,1.492,0,0,1,.331-1.167,1.574,1.574,0,0,1,1.238-.152l4,2.279a13.1,13.1,0,0,0,1.068-8.05l-5.66-1.148a1.534,1.534,0,0,1-.99-.824,1.477,1.477,0,0,1,.433-1.25l4.017-2.316A13.566,13.566,0,0,0,34.5,21.353l-4.07,4.552a1.464,1.464,0,0,1-1.384.059,1.727,1.727,0,0,1-.49-1.081l.007-4.343a13.271,13.271,0,0,0-7.51,3.055l1.863,5.692a1.493,1.493,0,0,1-.32,1.159,1.513,1.513,0,0,1-1.128.219l-4.106-2.329a13.281,13.281,0,0,0-1.115,8.017l5.86,1.231a1.365,1.365,0,0,1,.862.94,1.569,1.569,0,0,1-.481,1.086L18.5,41.916A13.5,13.5,0,0,0,24.922,46.9l4.067-4.543a1.488,1.488,0,0,1,1.391-.064,1.687,1.687,0,0,1,.483,1.083Zm11.1-5.227-2.318-1.256L42.719,50.5l11.6-.748-.924-.826c-.2-.181-.162-.873-.008-1.144a27.326,27.326,0,0,0,2.262-22.2l-3.691,7.431a2.213,2.213,0,0,1-1.233.438L45.6,32.376a16.436,16.436,0,0,1-2.163,9.853,1.3,1.3,0,0,1-1.459.276m-22.2,10.212,3.511-4a16.1,16.1,0,0,1-7.38-6.628,1.163,1.163,0,0,1,.528-1.577l2.1-1.339-9.52-1.96L3.934,47.567l1.307-.352c.258-.07.716.425.886.708a27.343,27.343,0,0,0,17.966,12.9l-4.571-6.955a1.42,1.42,0,0,1,.248-1.151" transform="translate(0 0)" fill="#344866"/>
          <path id="Trazado_1281878" data-name="Trazado 1281878" d="M24.361,130.425l-2.254-.085a25.837,25.837,0,0,1,1.5-7.436l2.148.79a23.959,23.959,0,0,0-1.4,6.73" transform="translate(-17.493 -97.252)" fill="#344866"/>
          <path id="Trazado_1281879" data-name="Trazado 1281879" d="M36.339,104.1l-2.1-1,1.185-2.146,1.929,1.128Z" transform="translate(-27.094 -79.886)" fill="#344866"/>
        </g>
      </g>
    </g>
  </g>
</svg>
