<svg xmlns="http://www.w3.org/2000/svg" xmlns:xlink="http://www.w3.org/1999/xlink" width="84" height="84" viewBox="0 0 84 84">
  <defs>
    <clipPath id="clip-path">
      <rect id="Rectángulo_464256" data-name="Rectángulo 464256" width="55.39" height="72.557" fill="#344866"/>
    </clipPath>
  </defs>
  <g id="Grupo_1213817" data-name="Grupo 1213817" transform="translate(0.867 0.651)">
    <g id="Grupo_1119665" data-name="Grupo 1119665" transform="translate(-0.867 -0.651)">
      <rect id="Rectángulo_402006" data-name="Rectángulo 402006" width="84" height="84" rx="5" fill="#ffe79e"/>
    </g>
    <g id="Grupo_1214221" data-name="Grupo 1214221" transform="translate(14.133 5.349)">
      <g id="Grupo_1214220" data-name="Grupo 1214220" clip-path="url(#clip-path)">
        <path id="Trazado_1282045" data-name="Trazado 1282045" d="M33.049,57.068A6.531,6.531,0,0,0,30.5,54.075a6.965,6.965,0,0,1-2.528-3.329L23.392,40.207a1.9,1.9,0,0,1,1.124-2.493,5.815,5.815,0,0,1,7.176,2.157l2.016,3.451.043-15.232a3.445,3.445,0,0,1,3.7-3.2,3.4,3.4,0,0,1,3.44,3.429L40.877,37a8.638,8.638,0,0,1,2.482,0l-.007-15.782a1.282,1.282,0,0,1,.957-1.3c.484-.111,1.38.319,1.38.894L45.7,37.788a7.14,7.14,0,0,1,2.482-.028l0-34.394A1.168,1.168,0,0,0,47.077,2.1L28.02,2.1c-.8,0-1.3-.3-1.375-.973A1.1,1.1,0,0,1,27.8.015L46.669,0c2.18,0,3.87,1.244,3.87,3.355l0,35.339a5.074,5.074,0,0,1,3.358.486,3.523,3.523,0,0,1,1.452,2.387l.012,9.781c0,2.544-1.752,3.907-1.894,5.789.661-.023,1.832.315,1.841.835l.084,4.636c.007.385-.587,1.132-1,1.138l-3.853.056v5.422a3.429,3.429,0,0,1-3.661,3.331l-43.4-.008A3.368,3.368,0,0,1,0,69.392V3.156C0,1.094,1.916,0,3.893,0L22.786.016A1.251,1.251,0,0,1,23.9.954c.058.377-.361,1.142-.907,1.142L3.692,2.1A1.24,1.24,0,0,0,2.326,3.376V69.164a1.217,1.217,0,0,0,1.18,1.278H47.062a1.205,1.205,0,0,0,1.125-1.022l0-5.626-41.96,0c-.677,0-1.408-.416-1.408-1.059V5.449A1.223,1.223,0,0,1,5.945,4.384l12.264.028a3.419,3.419,0,0,1,3.422,3.26,1.16,1.16,0,0,0,1.108,1.119l4.85,0a1.32,1.32,0,0,0,1.386-1.316,3.274,3.274,0,0,1,3.217-3.033L44.6,4.392a1.224,1.224,0,0,1,1.1,1.026l0,10.989a1.176,1.176,0,0,1-2.337-.045V6.52l-10.944,0a1.335,1.335,0,0,0-1.195,1.186A3.286,3.286,0,0,1,27.925,10.9c-1.751.045-3.484.042-5.226,0a3.355,3.355,0,0,1-3.384-3.164,1.364,1.364,0,0,0-1.335-1.218l-10.809.01,0,55.083,24.42.012.062-3.682a4,4,0,0,1,1.4-.869m13.9.159L51,57.2c.346-2.668,2.043-3.66,2.037-6.473l-.019-8.951a1.254,1.254,0,0,0-2.5.158L50.515,43.7c0,.412-.75.962-1.2.929-.387-.029-1.12-.555-1.121-.934l-.01-2.722A1.221,1.221,0,0,0,47,39.741c-.442-.027-1.258.506-1.268.941l-.074,3.167c-.009.4-.88.859-1.285.765s-1.008-.633-1.01-.977l-.015-3.561A1.228,1.228,0,0,0,42,38.988,1.375,1.375,0,0,0,40.89,40.06l-.015,3.558c0,.547-.754,1.057-1.33.988A1.233,1.233,0,0,1,38.53,43.43l.01-15.162a1.232,1.232,0,0,0-1.314-1.287A1.308,1.308,0,0,0,36.055,28.1l-.017,15.97a2.4,2.4,0,0,1-.829,1.534,2.143,2.143,0,0,1-1.921.326A3.8,3.8,0,0,1,31.279,43.8c-.974-2.452-3.026-5.084-5.74-4.412L30.5,50.756c.76,1.743,4.23,2.846,5.032,6.459l6.378,0a1.182,1.182,0,0,1,1.281,1.074,1.318,1.318,0,0,1-1.113,1.056l-8.121.012.012,2.252,18.988.007.1-2.247-6.272-.042c-.437,0-.941-.856-.866-1.217a1.367,1.367,0,0,1,1.039-.886" transform="translate(0 0)" fill="#344866"/>
        <path id="Trazado_1282046" data-name="Trazado 1282046" d="M67.038,135.8H47.852a1.2,1.2,0,0,1-1.274-1.075v-6.606a1.157,1.157,0,0,1,1.271-1.05l19.3,0a1.166,1.166,0,0,1,1.019.989l0,6.716a1.181,1.181,0,0,1-1.134,1.025m-1.167-6.6H48.929V133.7H65.871Z" transform="translate(-36.896 -100.655)" fill="#344866"/>
        <path id="Trazado_1282047" data-name="Trazado 1282047" d="M60.007,234.892l-12.62.035a1.323,1.323,0,0,1-1.074-.967A1.219,1.219,0,0,1,47.4,232.8l12.1-.014a1.557,1.557,0,0,1,1.238.822c.158.314-.274,1.279-.729,1.281" transform="translate(-36.684 -184.403)" fill="#344866"/>
        <path id="Trazado_1282048" data-name="Trazado 1282048" d="M59.649,256.147l-12.216.011a1.405,1.405,0,0,1-1.072-1.012,1.2,1.2,0,0,1,1.074-1.141L59.527,254a1.269,1.269,0,0,1,1.259.973,1.2,1.2,0,0,1-1.137,1.178" transform="translate(-36.722 -201.201)" fill="#344866"/>
        <path id="Trazado_1282049" data-name="Trazado 1282049" d="M109.4,73.074c-.192.439-1.157.594-1.547.462a1.122,1.122,0,0,1-.533-1.44l4.02-9.215a1.281,1.281,0,0,1,1.457-.757,1.123,1.123,0,0,1,.8,1.349Z" transform="translate(-84.942 -49.185)" fill="#344866"/>
        <path id="Trazado_1282050" data-name="Trazado 1282050" d="M152.7,74.539c-.221.354-1.359.432-1.7.224a1.15,1.15,0,0,1-.3-1.328l2.454-3.868-2.343-3.544a1.151,1.151,0,0,1,.15-1.451,1.334,1.334,0,0,1,1.722.16l3.156,4.792Z" transform="translate(-119.295 -50.96)" fill="#344866"/>
        <path id="Trazado_1282051" data-name="Trazado 1282051" d="M74.4,74.5l-2.62-4.092a1.512,1.512,0,0,1,0-1.692l2.607-3.91a1.482,1.482,0,0,1,1.414-.43c.511.2.924.986.616,1.452l-2.455,3.721L76.436,73.5c.24.383-.1,1.1-.522,1.348A1.239,1.239,0,0,1,74.4,74.5" transform="translate(-56.653 -50.957)" fill="#344866"/>
        <path id="Trazado_1282052" data-name="Trazado 1282052" d="M57.687,189.959l-10.149-.006a1.173,1.173,0,0,1-1.023-1.121,1.309,1.309,0,0,1,1.25-1l9.619.01a1.555,1.555,0,0,1,1.058.823,1.3,1.3,0,0,1-.755,1.294" transform="translate(-36.842 -148.789)" fill="#344866"/>
        <path id="Trazado_1282053" data-name="Trazado 1282053" d="M57.4,213.949l-9.6.011A1.234,1.234,0,0,1,46.559,213a1.163,1.163,0,0,1,1.248-1.147l9.6.007a1.047,1.047,0,1,1,0,2.091" transform="translate(-36.879 -167.816)" fill="#344866"/>
        <path id="Trazado_1282054" data-name="Trazado 1282054" d="M103.525,319.979l-9.477,0a1.449,1.449,0,0,1-1.166-.744c-.136-.387.2-1.348.708-1.348l10.5-.008c.366,0,.743.836.691,1.157a1.3,1.3,0,0,1-1.258.946" transform="translate(-73.552 -251.803)" fill="#344866"/>
        <path id="Trazado_1282055" data-name="Trazado 1282055" d="M118.319,22.252a1.16,1.16,0,1,1-1.155-1.055,1.108,1.108,0,0,1,1.155,1.055" transform="translate(-91.895 -16.791)" fill="#344866"/>
      </g>
    </g>
  </g>
</svg>
