<svg xmlns="http://www.w3.org/2000/svg" xmlns:xlink="http://www.w3.org/1999/xlink" width="96" height="96" viewBox="0 0 96 96">
  <defs>
    <clipPath id="clip-path">
      <rect id="Rectángulo_465005" data-name="Rectángulo 465005" width="51.6" height="42.384" fill="#19538d"/>
    </clipPath>
  </defs>
  <g id="Grupo_1215089" data-name="Grupo 1215089" transform="translate(0 0)">
    <circle id="Elipse_13890" data-name="Elipse 13890" cx="48" cy="48" r="48" transform="translate(0 0)" fill="#5a9ad7"/>
    <path id="Intersección_1" data-name="Intersección 1" d="M0,47.89A47.893,47.893,0,0,1,79.511,11.92L1.1,58.131A48,48,0,0,1,0,47.89Z" transform="translate(0.109 0.108)" fill="#19538d"/>
    <path id="Trazado_1032916" data-name="Trazado 1032916" d="M40,0A40,40,0,1,1,0,40,40,40,0,0,1,40,0Z" transform="translate(8 8)" fill="#e6f3ff"/>
    <g id="Grupo_1188343" data-name="Grupo 1188343" transform="translate(22.001 22)">
      <rect id="Rectángulo_459838" data-name="Rectángulo 459838" width="52" height="52" transform="translate(-0.036 -0.124)" fill="none"/>
      <g id="Grupo_1215094" data-name="Grupo 1215094" transform="translate(-0.036 4.055)">
        <g id="Grupo_1215093" data-name="Grupo 1215093" clip-path="url(#clip-path)">
          <path id="Trazado_1283656" data-name="Trazado 1283656" d="M59.705,93.991l-6.523,4.052a2.8,2.8,0,0,1-.971,3.3,2.883,2.883,0,0,1-3.408,0,2.782,2.782,0,0,1-.97-3.286l-6.482-4.062-6.5,4.043a3,3,0,0,1-.331,2.63,2.864,2.864,0,0,1-2.339,1.246.78.78,0,0,1-.608-.56c-.049-.953,2.178-.237,2.287-2.22a1.7,1.7,0,1,0-3.4-.186.862.862,0,0,1-.517.678.677.677,0,0,1-.661-.659,2.845,2.845,0,0,1,2.3-2.692V90.337a2.808,2.808,0,0,1,0-5.518l.008-5.953A2.838,2.838,0,1,1,34.837,77.1l6.5,4.061,6.5-4.058a2.767,2.767,0,0,1,.95-3.267,2.8,2.8,0,0,1,3.437,0,2.848,2.848,0,0,1,.976,3.285l6.492,4.049L66.174,77.1a2.863,2.863,0,1,1,3.253,1.754l0,5.971a2.806,2.806,0,0,1,0,5.516v5.94a2.8,2.8,0,0,1,2.21,3.4,2.859,2.859,0,1,1-5.468-1.626ZM33.872,76.109A1.711,1.711,0,1,0,32.16,77.82a1.711,1.711,0,0,0,1.711-1.711m18.345,0a1.71,1.71,0,1,0-1.71,1.71,1.71,1.71,0,0,0,1.71-1.71m18.349,0a1.712,1.712,0,1,0-1.712,1.712,1.712,1.712,0,0,0,1.712-1.712m-36.24,9.445,5.912-3.72-5.96-3.723a9.087,9.087,0,0,1-1.526.782V84.75Zm24.245-3.716-6.008-3.768a2.768,2.768,0,0,1-4.115,0l-6.009,3.768L48.429,85.6a2.944,2.944,0,0,1,4.192-.011Zm9.7,2.884L68.262,78.9a8.054,8.054,0,0,1-1.524-.784l-5.961,3.731,5.951,3.725ZM41.382,92.615l6.461-4.072a2.671,2.671,0,0,1-.018-1.961L41.336,82.52l-6.46,4.052a4.859,4.859,0,0,1,0,2.021Zm18.321.009,6.439-4.049a4.469,4.469,0,0,1,0-2.007l-6.458-4.05-6.491,4.064a3,3,0,0,1,0,1.991ZM33.874,87.578a1.714,1.714,0,1,0-1.714,1.714,1.714,1.714,0,0,0,1.714-1.714m18.343,0a1.71,1.71,0,1,0-1.71,1.71,1.71,1.71,0,0,0,1.71-1.71m18.352,0a1.714,1.714,0,1,0-1.714,1.714,1.714,1.714,0,0,0,1.714-1.714M34.276,97.047l5.964-3.736-6.007-3.76a5.948,5.948,0,0,1-1.487.832l.011,5.882a6.529,6.529,0,0,1,1.518.782m18.322.007,6-3.747-6.006-3.749a2.906,2.906,0,0,1-4.174,0l-6,3.747,6,3.752a2.9,2.9,0,0,1,4.175,0m15.674-.843-.016-5.867a6.018,6.018,0,0,1-1.5-.775l-6,3.739,6.02,3.752a7.9,7.9,0,0,1,1.493-.849M52.217,99.036a1.711,1.711,0,1,0-1.711,1.711,1.711,1.711,0,0,0,1.711-1.711m18.35,0a1.713,1.713,0,1,0-1.713,1.713,1.713,1.713,0,0,0,1.713-1.713" transform="translate(-24.708 -61.791)" fill="#19538d"/>
          <path id="Trazado_1283657" data-name="Trazado 1283657" d="M34.88,6.864a.692.692,0,0,1,.677.5.666.666,0,0,1-.581.645l-33.813,0L1.189,37.5a3.978,3.978,0,0,0,4.3,3.755L46.1,41.27c2.2,0,4.29-1.422,4.3-3.764l.033-11.624c0-.26.256-.657.453-.686a.913.913,0,0,1,.71.383l0,11.587a5.1,5.1,0,0,1-4.9,5.218l-41.781,0A5.1,5.1,0,0,1,0,37.14L.01,5.1A5.091,5.091,0,0,1,5.043,0H46.556a5.089,5.089,0,0,1,5.03,5.091L51.6,23.383a.776.776,0,0,1-.4.688c-.271.078-.765-.186-.765-.531V8.008l-13.2.005a.8.8,0,0,1-.559-.508.717.717,0,0,1,.556-.641H50.419a15.281,15.281,0,0,0-.04-2.287,3.954,3.954,0,0,0-3.8-3.438L5.183,1.134A3.967,3.967,0,0,0,1.2,4.728c-.058.7-.038,1.349-.038,2.135Z" transform="translate(0 0.001)" fill="#19538d"/>
          <path id="Trazado_1283658" data-name="Trazado 1283658" d="M193.8,18.012H177.8a1.718,1.718,0,1,1,0-3.435l15.926-.006a1.722,1.722,0,1,1,.082,3.441m.076-1.16a.683.683,0,0,0,.553-.632.8.8,0,0,0-.6-.492H177.675c-.232,0-.5.431-.471.626a.691.691,0,0,0,.607.5Z" transform="translate(-148.545 -12.293)" fill="#19538d"/>
          <path id="Trazado_1283659" data-name="Trazado 1283659" d="M91.46,16.322A1.719,1.719,0,1,1,89.741,14.6a1.719,1.719,0,0,1,1.719,1.719m-1.152,0a.566.566,0,1,0-.566.566.566.566,0,0,0,.566-.566" transform="translate(-74.261 -12.32)" fill="#19538d"/>
          <path id="Trazado_1283660" data-name="Trazado 1283660" d="M62.161,16.308a1.718,1.718,0,1,1-1.718-1.718,1.718,1.718,0,0,1,1.718,1.718m-1.162,0a.565.565,0,1,0-.565.565A.565.565,0,0,0,61,16.308" transform="translate(-49.543 -12.309)" fill="#19538d"/>
          <path id="Trazado_1283661" data-name="Trazado 1283661" d="M32.779,16.326a1.717,1.717,0,1,1-1.717-1.717,1.717,1.717,0,0,1,1.717,1.717m-1.145,0a.565.565,0,1,0-.565.565.565.565,0,0,0,.565-.565" transform="translate(-24.757 -12.325)" fill="#19538d"/>
        </g>
      </g>
    </g>
  </g>
</svg>
