<svg xmlns="http://www.w3.org/2000/svg" xmlns:xlink="http://www.w3.org/1999/xlink" width="96" height="96" viewBox="0 0 96 96">
  <defs>
    <clipPath id="clip-path">
      <rect id="Rectángulo_465012" data-name="Rectángulo 465012" width="48.523" height="46.959" transform="translate(0 0)" fill="#19538d"/>
    </clipPath>
  </defs>
  <g id="Grupo_1215098" data-name="Grupo 1215098" transform="translate(0 0)">
    <circle id="Elipse_13890" data-name="Elipse 13890" cx="48" cy="48" r="48" transform="translate(0 0)" fill="#5a9ad7"/>
    <path id="Intersección_1" data-name="Intersección 1" d="M0,47.89A47.893,47.893,0,0,1,79.511,11.92L1.1,58.131A48,48,0,0,1,0,47.89Z" transform="translate(0.109 0.108)" fill="#19538d"/>
    <path id="Trazado_1032916" data-name="Trazado 1032916" d="M40,0A40,40,0,1,1,0,40,40,40,0,0,1,40,0Z" transform="translate(8 8)" fill="#e6f3ff"/>
    <g id="Grupo_1188343" data-name="Grupo 1188343" transform="translate(22.001 22)">
      <rect id="Rectángulo_459838" data-name="Rectángulo 459838" width="52" height="52" transform="translate(-0.036 -0.124)" fill="none"/>
      <g id="Grupo_1215102" data-name="Grupo 1215102" transform="translate(0.964 2.875)">
        <g id="Grupo_1215101" data-name="Grupo 1215101" transform="translate(0 0.001)" clip-path="url(#clip-path)">
          <path id="Trazado_1283674" data-name="Trazado 1283674" d="M16.957,42.409l.605-4.858-6.677,0a.792.792,0,0,1-.711-.732.764.764,0,0,1,.766-.712l33.844,0a2.39,2.39,0,0,0,2.307-2.387l.015-2.473-24.772.019L1.418,31.246l.011,2.474a2.362,2.362,0,0,0,2.143,2.354l4.389.043a.788.788,0,0,1,.693.7.806.806,0,0,1-.662.734l-4.128-.011A3.853,3.853,0,0,1,0,33.559L0,5.609a3.828,3.828,0,0,1,3.73-4L6.3,1.546C6.178.969,6.248.238,6.758.01L27.363,0a.761.761,0,0,1,.747.746l.026.833,16.519.006a3.835,3.835,0,0,1,3.862,3.883l.005,28.094a3.821,3.821,0,0,1-3.741,3.96l-13.818.028.6,4.853h3.6a.772.772,0,0,1,.813.809l0,2.917a.783.783,0,0,1-.835.831H13.386a.783.783,0,0,1-.834-.832l0-2.917a.778.778,0,0,1,.811-.811ZM22.722,9.44l3.966-.011,0-7.986H7.717V29.824l14.258,0,0-19.756a.747.747,0,0,1,.745-.626M3.16,5.471a.687.687,0,0,1,.685-.74L6.271,4.71,6.25,2.991l-2.26,0A2.49,2.49,0,0,0,1.42,5.488l0,24.333,1.745,0Zm42.2,24.349,1.745,0,0-24.333A2.463,2.463,0,0,0,44.637,3L28.124,2.99l0,1.729,16.529,0a.7.7,0,0,1,.712.75Zm-40.795.023h1.7V6.12h-1.7Zm37.7-.022,1.693.01V6.135l-15.841,0,0,3.3,13.379,0a.755.755,0,0,1,.765.659ZM40.808,10.865H23.414V29.834H40.808ZM26.534,40.113c0,.251-.526.575-.757.575l-3.027,0a.827.827,0,0,1-.779-.779l0-2.364L19,37.557,18.4,42.4H30.124l-.6-4.846-2.965-.011Zm-1.425-2.563h-1.7v1.7h1.7ZM14,43.817v1.732l20.532,0V43.819Z" transform="translate(0 -0.001)" fill="#19538d"/>
          <path id="Trazado_1283675" data-name="Trazado 1283675" d="M164.05,230.141a2.276,2.276,0,1,1-2.276-2.276,2.276,2.276,0,0,1,2.276,2.276m-1.436.005a.841.841,0,1,0-.841.841.841.841,0,0,0,.841-.841" transform="translate(-137.512 -196.456)" fill="#19538d"/>
          <path id="Trazado_1283676" data-name="Trazado 1283676" d="M229.815,149.467l-7.044-.007a.723.723,0,0,1,.052-1.444l7.046,0a.824.824,0,0,1,.716.686.757.757,0,0,1-.77.764" transform="translate(-191.485 -127.614)" fill="#19538d"/>
          <path id="Trazado_1283677" data-name="Trazado 1283677" d="M229.946,195.059l-7.1,0a.726.726,0,1,1,.085-1.447h6.909a.787.787,0,0,1,.77.659.779.779,0,0,1-.66.784" transform="translate(-191.506 -166.928)" fill="#19538d"/>
          <path id="Trazado_1283678" data-name="Trazado 1283678" d="M212.228,92.536l-6.29.015a.8.8,0,0,1-.792-.624.728.728,0,0,1,.8-.818l6.217.009a.85.85,0,0,1,.682.673c.022.235-.266.744-.615.745" transform="translate(-176.866 -78.552)" fill="#19538d"/>
          <path id="Trazado_1283679" data-name="Trazado 1283679" d="M183.411,132.1l-.88-.843a.774.774,0,0,1,.1-1.126c.368-.255.834-.026,1.186.336l1.9-1.884a.953.953,0,0,1,.921.015.879.879,0,0,1,.09.992l-2.359,2.386c-.19.193-.772.306-.962.124" transform="translate(-157.199 -110.762)" fill="#19538d"/>
          <path id="Trazado_1283680" data-name="Trazado 1283680" d="M184.047,177.494c-.478.479-1.42-.295-1.923-1.235-.118-.221.254-.725.493-.77a1.32,1.32,0,0,1,1.036.428l1.924-1.911a.83.83,0,0,1,.84.014c.2.162.324.774.138.961Z" transform="translate(-157.001 -149.928)" fill="#19538d"/>
          <path id="Trazado_1283681" data-name="Trazado 1283681" d="M226.035,172.311l-3.2,0a.71.71,0,0,1,0-1.419l3.14,0a.862.862,0,0,1,.7.583.745.745,0,0,1-.642.839" transform="translate(-191.518 -147.334)" fill="#19538d"/>
          <path id="Trazado_1283682" data-name="Trazado 1283682" d="M225.934,126.924l-3.228-.006c-.249,0-.618-.424-.649-.657s.264-.757.528-.756l3.6.014c.237,0,.457.539.429.754a.829.829,0,0,1-.681.65" transform="translate(-191.447 -108.206)" fill="#19538d"/>
          <path id="Trazado_1283683" data-name="Trazado 1283683" d="M78.477,165.65H69.05a.815.815,0,0,1-.728-.781l0-4.655a.765.765,0,0,1,.777-.716h9.371a.745.745,0,0,1,.677.69l0,4.7a.769.769,0,0,1-.676.76m-.726-4.752H69.743v3.306h8.009Z" transform="translate(-58.904 -137.513)" fill="#19538d"/>
          <path id="Trazado_1283684" data-name="Trazado 1283684" d="M91.446,27.324l-10.949,0a.723.723,0,0,1-.72-.71l0-3.085a.8.8,0,0,1,.746-.772l10.854,0a.8.8,0,0,1,.819.8v3.043a.771.771,0,0,1-.745.732M81.175,24.187v1.737l9.579,0V24.189Z" transform="translate(-68.777 -19.616)" fill="#19538d"/>
          <path id="Trazado_1283685" data-name="Trazado 1283685" d="M78.555,91.673l-9.448,0a.779.779,0,0,1-.776-.758l0-4.651a.744.744,0,0,1,.775-.711l9.379,0a.708.708,0,0,1,.671.681l0,4.829a.907.907,0,0,1-.606.611m-.793-4.7H69.75v3.273h8.011Z" transform="translate(-58.911 -73.758)" fill="#19538d"/>
          <path id="Trazado_1283686" data-name="Trazado 1283686" d="M73.9,69.888l-4.8.021a.844.844,0,0,1-.754-.682.782.782,0,0,1,.618-.752l4.872,0c.268,0,.617.406.656.636s-.3.777-.594.779" transform="translate(-58.922 -59.036)" fill="#19538d"/>
          <path id="Trazado_1283687" data-name="Trazado 1283687" d="M73.94,143.933l-4.8.018a.788.788,0,0,1-.751-.655.722.722,0,0,1,.756-.75l4.725.007a.863.863,0,0,1,.659.622c.039.229-.282.757-.593.758" transform="translate(-58.965 -122.898)" fill="#19538d"/>
        </g>
      </g>
    </g>
  </g>
</svg>
