<svg xmlns="http://www.w3.org/2000/svg" xmlns:xlink="http://www.w3.org/1999/xlink" width="150" height="150" viewBox="0 0 150 150">
  <defs>
    <clipPath id="clip-path">
      <rect id="Rectángulo_464258" data-name="Rectángulo 464258" width="78.078" height="67.013" fill="#12263f"/>
    </clipPath>
  </defs>
  <g id="Grupo_1188433" data-name="Grupo 1188433" transform="translate(-185.738 -9253.601)">
    <g id="Grupo_1188415" data-name="Grupo 1188415" transform="translate(185.738 9253.602)">
      <circle id="Elipse_13890" data-name="Elipse 13890" cx="75" cy="75" r="75" transform="translate(150 150) rotate(180)" fill="#fbb03f"/>
      <path id="Intersección_3" data-name="Intersección 3" d="M0,70.769,123.344,0a74.749,74.749,0,0,1-73.06,90.233A74.419,74.419,0,0,1,0,70.769Z" transform="translate(24.681 59.414)" fill="#7a4f1e"/>
      <circle id="Elipse_13891" data-name="Elipse 13891" cx="62.637" cy="62.637" r="62.637" transform="translate(137.638 137.608) rotate(180)" fill="#ffebbe"/>
      <path id="Intersección_2" data-name="Intersección 2" d="M0,62.677a62.641,62.641,0,0,1,124.648-8.925L24.091,112.08A62.59,62.59,0,0,1,0,62.677Z" transform="translate(12.364 12.333)" fill="#fff"/>
      <g id="Grupo_1188343" data-name="Grupo 1188343" transform="translate(35.959 35.932)">
        <rect id="Rectángulo_459838" data-name="Rectángulo 459838" width="78.078" height="78.078" transform="translate(0.041 0.068)" fill="none"/>
        <g id="Grupo_1215103" data-name="Grupo 1215103" transform="translate(0.041 5.068)">
          <g id="Grupo_1214225" data-name="Grupo 1214225" clip-path="url(#clip-path)">
            <path id="Trazado_1282064" data-name="Trazado 1282064" d="M51.326,67l-24.249.01a1.6,1.6,0,0,1-1.737-1.173,1.634,1.634,0,0,1,1.037-1.821l2.328-.027,2.449-9.156H4.692A4.6,4.6,0,0,1,0,50.332L0,4.275C0,2.331,1.7,0,3.825,0L74.239,0c2.269,0,3.834,2.471,3.835,4.486l0,45.624a4.586,4.586,0,0,1-4.495,4.7l-26.667.022,2.414,9.079L51,64.047A1.4,1.4,0,0,1,52.732,65.3,1.458,1.458,0,0,1,51.326,67M75.009,2.916H3.057V51.746H75.009ZM46.205,64l-2.463-9.171-9.419,0-2.467,9.184Z" transform="translate(0)" fill="#12263f"/>
            <path id="Trazado_1282065" data-name="Trazado 1282065" d="M93.05,63.531H27.12V26.959H93.05Zm-62.84-3H89.955V29.977H30.21Z" transform="translate(-21.052 -20.927)" fill="#12263f"/>
            <path id="Trazado_1282066" data-name="Trazado 1282066" d="M249.959,207.166l-9.256.013a1.63,1.63,0,0,1-1.523-1.446,1.559,1.559,0,0,1,1.519-1.648l9.369.012c.692,0,1.305.9,1.332,1.441a1.609,1.609,0,0,1-1.441,1.629" transform="translate(-185.662 -158.421)" fill="#12263f"/>
            <path id="Trazado_1282067" data-name="Trazado 1282067" d="M99.229,79.957l-7.422-7.4a9.468,9.468,0,0,0-2.13,6.127,1.653,1.653,0,0,1-1.571,1.75l-7.57.01c-1.126,0-1.616-1.008-1.586-1.99a21.38,21.38,0,0,1,5.218-13.523l-.882-.92a1.651,1.651,0,0,1-.225-1.935,1.51,1.51,0,0,1,2.146-.4l1.188,1.034c8.151-7.2,19.986-6.7,28.13.3a20.6,20.6,0,0,1,7.16,15.667,1.646,1.646,0,0,1-1.587,1.764l-7.563-.005c-1.128,0-1.585-1-1.589-1.989a10.269,10.269,0,0,0-5.32-8.763,10.412,10.412,0,0,0-11.675.64l7.515,7.532a1.593,1.593,0,0,1-.057,2.079,1.533,1.533,0,0,1-2.18.025m-.408-14.746-.015-4.535a17.975,17.975,0,0,0-10.294,4.207l3.282,3.274a13.662,13.662,0,0,1,7.027-2.947m10.043,2.944,3.254-3.272a17.9,17.9,0,0,0-10.3-4.2l.031,4.585a13.218,13.218,0,0,1,7.015,2.891m-22.129,9.17a13.633,13.633,0,0,1,2.82-7.042l-3.221-3.2A18.4,18.4,0,0,0,82.06,77.346Zm27.241.047,4.6-.044A18.475,18.475,0,0,0,114.3,67.08l-3.244,3.252a13.975,13.975,0,0,1,2.923,7.04" transform="translate(-61.284 -44.658)" fill="#12263f"/>
          </g>
        </g>
      </g>
    </g>
  </g>
</svg>
