<svg xmlns="http://www.w3.org/2000/svg" xmlns:xlink="http://www.w3.org/1999/xlink" width="248" height="212" viewBox="0 0 248 212">
  <defs>
    <clipPath id="clip-path">
      <rect id="Rectángulo_456397" data-name="Rectángulo 456397" width="239.365" height="188.361" transform="translate(0 0)" fill="none"/>
    </clipPath>
  </defs>
  <g id="Grupo_1179878" data-name="Grupo 1179878" transform="translate(-333.711 -4446)">
    <rect id="Rectángulo_456201" data-name="Rectángulo 456201" width="248" height="212" transform="translate(333.711 4446)" fill="none"/>
    <g id="Grupo_1179876" data-name="Grupo 1179876" transform="translate(337.711 4458)" clip-path="url(#clip-path)">
      <path id="Trazado_999007" data-name="Trazado 999007" d="M0,1542.914s-.343,6.312,9.576,11.149c10.419,5.081,61.586,2.44,48.491,8.423-9.313,4.255,5.439,7.608,42.753,8.768,19.186.6,102.847,2.1,83.217-9.61-14.578-8.7,57,4.07,55.3-18.73Z" transform="translate(0 -1383.297)" fill="#7f97af"/>
      <path id="Trazado_999008" data-name="Trazado 999008" d="M276.243,304.547s-28.177-76.18-7.9-93.144c13.553-11.338,24.357,13.307,41.5.084,15.266-11.772,2-43.7,23.017-48.836,27.155-6.631,48.706,57.882,71.17,48.752,27.259-11.079,54.374,11.412,30.941,93.289Z" transform="translate(-234.004 -145.396)" fill="#ffd470"/>
      <path id="Trazado_999009" data-name="Trazado 999009" d="M118.442,152.484c-.473-1.446-.941-2.945-1.391-4.454l1.109-.329c.447,1.5.912,2.988,1.382,4.425Zm198.386-1.868-1.148-.141c.191-1.539.372-3.09.538-4.608l1.15.126c-.167,1.524-.349,3.079-.54,4.624m-201.054-7.073c-.405-1.491-.8-3.011-1.167-4.516l1.124-.275c.367,1.5.758,3.006,1.16,4.488Zm202.068-2.183-1.152-.109c.146-1.546.282-3.1.4-4.621l1.153.091c-.121,1.527-.258,3.087-.4,4.639M113.55,134.486c-.334-1.52-.652-3.056-.945-4.567l1.136-.219c.291,1.5.607,3.028.939,4.539Zm205.029-2.409L317.424,132c.1-1.545.184-3.1.255-4.631l1.156.054c-.072,1.534-.158,3.1-.256,4.65m-206.8-6.747c-.257-1.538-.5-3.089-.708-4.61l1.146-.159c.211,1.511.448,3.051.7,4.58Zm207.236-2.557-1.157-.034c.045-1.551.076-3.111.093-4.636l1.157.012c-.016,1.532-.047,3.1-.093,4.657m-208.525-6.682c-.172-1.554-.323-3.116-.446-4.644l1.153-.093c.123,1.517.272,3.068.443,4.61Zm207.465-2.623c-.014-1.553-.043-3.112-.088-4.635l1.156-.034c.045,1.53.075,3.1.088,4.658ZM109.737,106.79c-.077-1.563-.128-3.132-.151-4.663l1.157-.018c.023,1.519.074,3.075.15,4.625ZM317.678,104.2c-.079-1.551-.177-3.106-.29-4.624l1.154-.086c.114,1.527.212,3.091.292,4.651Zm-206.925-6.72-1.157-.024c.032-1.567.094-3.136.185-4.665l1.155.068c-.09,1.514-.151,3.068-.183,4.621m206.233-2.519c-.155-1.55-.33-3.1-.52-4.6l1.148-.145c.192,1.514.368,3.072.524,4.633ZM111.3,88.253l-1.151-.115c.157-1.561.349-3.121.569-4.637l1.145.166c-.218,1.5-.408,3.043-.563,4.587m204.515-2.477c-.241-1.54-.5-3.075-.785-4.561L316.17,81c.283,1.5.549,3.045.792,4.6Zm-136.828-.163a9.14,9.14,0,0,1-4.381-2.244l.731-.895a8.274,8.274,0,0,0,3.773,1.991ZM183,82.867l-1.03-.525a18.216,18.216,0,0,0,1.392-4.268l1.13.247A19.035,19.035,0,0,1,183,82.867m-11.791-2.808c-.922-1.024-1.907-2.2-3.011-3.6l.909-.714c1.089,1.381,2.058,2.54,2.963,3.546Zm-58.574-.947-1.136-.22c.3-1.541.639-3.077,1.008-4.566l1.123.277c-.364,1.47-.7,2.987-1,4.509M314.1,76.683c-.343-1.525-.712-3.036-1.1-4.492l1.119-.3c.39,1.47.763,3,1.109,4.535ZM185.274,73.675l-1.147-.147c.178-1.378.337-2.887.487-4.613l1.153.1c-.151,1.742-.312,3.267-.492,4.66m-19.905-.938c-.94-1.267-1.916-2.607-2.756-3.763l.936-.678c.839,1.154,1.812,2.491,2.75,3.754Zm84.7-.095a4.893,4.893,0,0,1-2.627-.8l.617-.977a3.727,3.727,0,0,0,3.855.163l.5,1.042a5.454,5.454,0,0,1-2.342.57M114.866,70.154l-1.106-.338c.46-1.5.964-2.992,1.5-4.434l1.085.4c-.527,1.421-1.024,2.892-1.478,4.371m141.331-1.1-.85-.783a38.949,38.949,0,0,0,2.875-3.575l.937.677a40.046,40.046,0,0,1-2.962,3.681m-12.042-.794a35.674,35.674,0,0,1-2.268-4.149l1.046-.494a34.531,34.531,0,0,0,2.193,4.015Zm67.568-.511c-.466-1.5-.963-2.968-1.478-4.376l1.087-.4c.521,1.426,1.024,2.916,1.5,4.429ZM159.871,65.21c-1.059-1.443-1.941-2.628-2.776-3.729l.922-.7c.839,1.106,1.725,2.3,2.787,3.744Zm26.243-.858-1.155-.075c.088-1.352.177-2.873.273-4.647l1.155.062c-.1,1.779-.186,3.3-.274,4.66m-68.037-2.842-1.058-.466q.953-2.153,2.031-4.223l1.026.534q-1.062,2.034-2,4.155m143.731,0-.967-.634c.822-1.247,1.671-2.568,2.531-3.9l.973.624c-.862,1.338-1.712,2.661-2.538,3.914M240.024,59.8c-.524-1.311-1.066-2.742-1.656-4.374l1.088-.392c.586,1.62,1.123,3.039,1.642,4.339Zm68.518-.72c-.622-1.446-1.28-2.85-1.956-4.174l1.031-.524c.687,1.346,1.356,2.774,1.988,4.242Zm-154.3-1.26c-1.05-1.3-2.027-2.457-2.987-3.538l.865-.766c.973,1.094,1.961,2.265,3.023,3.58Zm32.39-2.787-1.156-.058c.078-1.542.155-3.085.238-4.655l1.155.061c-.083,1.569-.16,3.111-.238,4.653M266.883,53.7l-.965-.637c.967-1.459,1.831-2.722,2.643-3.859l.942.67c-.8,1.126-1.661,2.378-2.62,3.826M122.37,53.372l-.975-.621a35.755,35.755,0,0,1,2.786-3.814l.884.745a34.6,34.6,0,0,0-2.695,3.69m114.453-2.348c-.531-1.551-1.051-3.1-1.49-4.417l1.1-.365c.439,1.312.958,2.862,1.488,4.41Zm-88.753-.081a39.847,39.847,0,0,0-3.456-3.016l.706-.915a41.01,41.01,0,0,1,3.557,3.1Zm156.27-.049c-.829-1.35-1.7-2.626-2.583-3.794l.923-.7c.908,1.2,1.8,2.506,2.647,3.888ZM128.31,46.542l-.7-.918a13.713,13.713,0,0,1,4.274-2.254l.339,1.1a12.563,12.563,0,0,0-3.911,2.068m143.983-.353-.9-.727a45.181,45.181,0,0,1,3.143-3.514l.818.816a44.116,44.116,0,0,0-3.063,3.425m-85.168-.454-1.155-.069c.1-1.678.2-3.2.3-4.658l1.154.082c-.1,1.452-.2,2.971-.3,4.645m-46.336-.242a13.747,13.747,0,0,0-4.221-1.36l.157-1.144a14.9,14.9,0,0,1,4.579,1.47ZM298.78,43.627a27.242,27.242,0,0,0-3.428-2.987l.681-.933a28.388,28.388,0,0,1,3.574,3.114Zm-64.923-1.438c-.576-1.717-1.05-3.118-1.493-4.407l1.094-.374c.444,1.292.919,2.7,1.5,4.415Zm44.962-2.372-.663-.946a16.332,16.332,0,0,1,4.272-2.186l.357,1.1a15.182,15.182,0,0,0-3.966,2.034M291.442,38.4a14.633,14.633,0,0,0-4.311-1.109l.107-1.149a15.787,15.787,0,0,1,4.653,1.2ZM187.8,36.456l-1.152-.1c.144-1.62.3-3.184.466-4.649l1.15.129c-.164,1.456-.32,3.012-.464,4.622m43.026-3.064c-.559-1.557-1.086-2.98-1.611-4.351l1.081-.412c.528,1.378,1.057,2.809,1.619,4.373ZM188.852,27.23l-1.145-.165c.234-1.616.491-3.17.764-4.62l1.137.213c-.27,1.433-.525,2.971-.756,4.571m38.644-2.5c-.622-1.492-1.248-2.92-1.863-4.243l1.05-.485c.621,1.337,1.254,2.779,1.881,4.285ZM190.59,18.142l-1.122-.28c.4-1.612.848-3.13,1.322-4.513l1.095.373c-.463,1.352-.9,2.839-1.294,4.419m32.988-1.8c-.761-1.43-1.538-2.772-2.31-3.99l.978-.617c.788,1.242,1.58,2.61,2.355,4.066ZM193.622,9.493l-1.038-.511a22.947,22.947,0,0,1,2.5-4.036l.909.714a21.79,21.79,0,0,0-2.375,3.833m24.994-.882a28.241,28.241,0,0,0-3.1-3.329l.776-.856a29.411,29.411,0,0,1,3.23,3.466ZM199.225,2.669,198.6,1.7A11.545,11.545,0,0,1,203.09,0l.176,1.141a10.4,10.4,0,0,0-4.04,1.523m12.64,0a13.976,13.976,0,0,0-4.173-1.473l.2-1.137a15.133,15.133,0,0,1,4.519,1.593Z" transform="translate(-98.249 -0.005)" fill="#dce6ff"/>
      <path id="Trazado_999010" data-name="Trazado 999010" d="M226.621,771.553c-9.6-1.518-8.732,21.3-22.417,21.3-12.512,0-19.208-50.974-32.938-40.607-55.2,41.679-12.251-29.245-49.367-30.632-16.783-.627-27.967,18.464-32.091,52.266-5.978,30.558-19.842-23.307-34.11-18.3-9.068,3.183-8.029,37.271-20.542,37.271-13.685,0-12.784-19.185-22.384-17.667C2.436,776.818.014,806.564.014,806.564H239.348s-2.39-33.376-12.727-35.01" transform="translate(-0.013 -646.947)" fill="#eef7ff"/>
      <path id="Trazado_999011" data-name="Trazado 999011" d="M300.413,1126.643c-8.832-.648-7.391,5.208-19.981,5.208-11.511,0-11.195-13.125-18.9-15.915-14.185-5.137-25.88,20.862-31.38,7.814-10.445-34.624-40.91-51.987-54.964,0-5.5,13.049-18.361-10.235-31.38-7.814-8.014,1.49-7.387,15.915-18.9,15.915-12.59,0-11.149-5.857-19.981-5.208-9.51.7-12.35,11.064-12.35,11.064H312.762s-2.84-10.366-12.35-11.064" transform="translate(-83.003 -978.091)" fill="#fff"/>
      <path id="Trazado_999012" data-name="Trazado 999012" d="M696.691,302.813H597.163a9.065,9.065,0,0,1-9.065-9.065V160.5a9.065,9.065,0,0,1,9.065-9.065h99.528a9.065,9.065,0,0,1,9.065,9.065V293.749a9.065,9.065,0,0,1-9.065,9.065" transform="translate(-527.258 -135.774)" fill="#62249e"/>
      <path id="Trazado_999218" data-name="Trazado 999218" d="M0,0H101.537V135.576H0Z" transform="translate(68.9 23.565)" fill="#fff"/>
      <rect id="Rectángulo_456367" data-name="Rectángulo 456367" width="89.814" height="124.697" transform="translate(74.761 29.004)" fill="#b4c4ef"/>
      <rect id="Rectángulo_456368" data-name="Rectángulo 456368" width="149.012" height="104.76" transform="translate(42.295 38.92)" fill="#cf9eff"/>
      <rect id="Rectángulo_456369" data-name="Rectángulo 456369" width="19.016" height="19.016" transform="translate(75.636 50.004)" fill="#d4e8ff"/>
      <rect id="Rectángulo_456370" data-name="Rectángulo 456370" width="19.016" height="19.016" transform="translate(97.029 50.004)" fill="#d4e8ff"/>
      <rect id="Rectángulo_456371" data-name="Rectángulo 456371" width="19.016" height="19.016" transform="translate(118.422 50.004)" fill="#d4e8ff"/>
      <rect id="Rectángulo_456372" data-name="Rectángulo 456372" width="19.016" height="19.016" transform="translate(139.815 50.004)" fill="#d4e8ff"/>
      <rect id="Rectángulo_456373" data-name="Rectángulo 456373" width="19.016" height="19.016" transform="translate(161.208 50.004)" fill="#d4e8ff"/>
      <rect id="Rectángulo_456374" data-name="Rectángulo 456374" width="19.016" height="19.016" transform="translate(75.636 71.196)" fill="#d4e8ff"/>
      <rect id="Rectángulo_456375" data-name="Rectángulo 456375" width="19.016" height="19.016" transform="translate(97.029 71.196)" fill="#d4e8ff"/>
      <rect id="Rectángulo_456376" data-name="Rectángulo 456376" width="19.016" height="19.016" transform="translate(118.422 71.196)" fill="#d4e8ff"/>
      <rect id="Rectángulo_456377" data-name="Rectángulo 456377" width="19.016" height="19.016" transform="translate(139.815 71.196)" fill="#d4e8ff"/>
      <rect id="Rectángulo_456378" data-name="Rectángulo 456378" width="19.016" height="19.016" transform="translate(161.208 71.196)" fill="#d4e8ff"/>
      <rect id="Rectángulo_456379" data-name="Rectángulo 456379" width="19.016" height="19.016" transform="translate(75.636 92.389)" fill="#d4e8ff"/>
      <rect id="Rectángulo_456380" data-name="Rectángulo 456380" width="19.016" height="19.016" transform="translate(97.029 92.389)" fill="#d4e8ff"/>
      <rect id="Rectángulo_456381" data-name="Rectángulo 456381" width="19.016" height="19.016" transform="translate(118.422 92.389)" fill="#d4e8ff"/>
      <rect id="Rectángulo_456382" data-name="Rectángulo 456382" width="19.016" height="19.016" transform="translate(139.815 92.389)" fill="#d4e8ff"/>
      <rect id="Rectángulo_456383" data-name="Rectángulo 456383" width="19.016" height="19.016" transform="translate(161.208 92.389)" fill="#d4e8ff"/>
      <rect id="Rectángulo_456384" data-name="Rectángulo 456384" width="19.016" height="19.016" transform="translate(75.636 113.581)" fill="#d4e8ff"/>
      <rect id="Rectángulo_456385" data-name="Rectángulo 456385" width="19.016" height="19.016" transform="translate(97.029 113.581)" fill="#d4e8ff"/>
      <rect id="Rectángulo_456386" data-name="Rectángulo 456386" width="19.016" height="19.016" transform="translate(118.422 113.581)" fill="#d4e8ff"/>
      <rect id="Rectángulo_456387" data-name="Rectángulo 456387" width="19.016" height="19.016" transform="translate(139.831 113.585)" fill="#d4e8ff"/>
      <rect id="Rectángulo_456388" data-name="Rectángulo 456388" width="19.016" height="19.016" transform="translate(161.208 113.581)" fill="#d4e8ff"/>
      <rect id="Rectángulo_456389" data-name="Rectángulo 456389" width="19.016" height="19.016" transform="translate(54.179 50.004)" fill="#d4e8ff"/>
      <rect id="Rectángulo_456390" data-name="Rectángulo 456390" width="19.016" height="19.016" transform="translate(54.179 71.196)" fill="#d4e8ff"/>
      <rect id="Rectángulo_456391" data-name="Rectángulo 456391" width="19.016" height="19.016" transform="translate(54.179 92.389)" fill="#d4e8ff"/>
      <rect id="Rectángulo_456392" data-name="Rectángulo 456392" width="19.016" height="19.016" transform="translate(54.179 113.581)" fill="#d4e8ff"/>
      <path id="Trazado_999013" data-name="Trazado 999013" d="M565.339,523.808l4.516-4.516a.833.833,0,0,0-1.178-1.178l-4.516,4.516-4.516-4.516a.833.833,0,0,0-1.178,1.178l4.516,4.516-4.516,4.516a.833.833,0,1,0,1.178,1.178l4.516-4.516,4.516,4.516a.833.833,0,0,0,1.178-1.178Z" transform="translate(-500.475 -464.296)" fill="#eb5648"/>
      <path id="Trazado_999014" data-name="Trazado 999014" d="M548.983,914.077l1.883,5.558,5.868-.073-4.7,3.508,1.883,5.558-4.79-3.39-4.7,3.508,1.744-5.6-4.79-3.39,5.868-.073Z" transform="translate(-485.366 -819.515)" fill="#7689d6"/>
      <path id="Trazado_999015" data-name="Trazado 999015" d="M764.6,725.313a6.646,6.646,0,0,1-6.73-6.3,5.582,5.582,0,0,1,2.333-4.779,6.131,6.131,0,0,1,5.807-.362.833.833,0,1,1-.62,1.546,4.45,4.45,0,0,0-4.25.193A3.948,3.948,0,0,0,759.533,719a4.959,4.959,0,0,0,5.065,4.646,4.737,4.737,0,0,0,5.068-4.706,6.049,6.049,0,0,0-1.657-4.7,5.51,5.51,0,0,0-4.451-1.544.833.833,0,1,1-.118-1.661,7.088,7.088,0,0,1,5.752,2.033,7.733,7.733,0,0,1,2.134,6,6.38,6.38,0,0,1-6.728,6.239" transform="translate(-679.465 -637.46)" fill="#eb5648"/>
      <path id="Trazado_999016" data-name="Trazado 999016" d="M1587.817,521.613a.833.833,0,0,1-.618-.274l-4.972-5.5a.833.833,0,0,1,1.235-1.117l4.222,4.668,6.892-11.375a.833.833,0,1,1,1.424.863l-7.471,12.331a.833.833,0,0,1-.633.4c-.027,0-.053,0-.079,0" transform="translate(-1418.35 -455.103)" fill="#eb5648"/>
      <path id="Trazado_999017" data-name="Trazado 999017" d="M1391.791,722.593l-.047-2.632-1.511.027a5.334,5.334,0,0,0-.557-1.316l1.061-1.1-1.894-1.828-1.021,1.057a5.334,5.334,0,0,0-1.54-.628l-.027-1.554-2.632.046.028,1.554a5.332,5.332,0,0,0-1.418.619l-.995-.961-1.828,1.894.995.961a5.341,5.341,0,0,0-.568,1.438l-1.511.027.046,2.632,1.511-.027a5.334,5.334,0,0,0,.682,1.517l-1.021,1.057,1.894,1.829,1.061-1.1a5.332,5.332,0,0,0,1.335.51l.027,1.554,2.632-.046-.027-1.554a5.331,5.331,0,0,0,1.418-.619l1.16,1.119,1.828-1.894-1.16-1.119a5.325,5.325,0,0,0,.568-1.438Zm-6.534,1.2c-3.14.242-3.526-4.516-.4-4.794,3.14-.242,3.526,4.516.4,4.794" transform="translate(-1235.735 -640.691)" fill="#7689d6"/>
      <path id="Trazado_999018" data-name="Trazado 999018" d="M1606.469,920.609h-9.937a.321.321,0,1,1,0-.641h9.937a.321.321,0,1,1,0,.641" transform="translate(-1431.081 -824.796)" fill="#8a9edd"/>
      <path id="Trazado_999019" data-name="Trazado 999019" d="M1606.469,941.174h-9.937a.321.321,0,1,1,0-.641h9.937a.321.321,0,1,1,0,.641" transform="translate(-1431.081 -843.234)" fill="#8a9edd"/>
      <path id="Trazado_999020" data-name="Trazado 999020" d="M1599.5,961.741h-2.969a.321.321,0,1,1,0-.641h2.969a.321.321,0,1,1,0,.641" transform="translate(-1431.081 -861.673)" fill="#8a9edd"/>
      <path id="Trazado_999021" data-name="Trazado 999021" d="M1596.148,974.275a1.021,1.021,0,0,1-.486-.862l1.473-.858a4.919,4.919,0,0,1-.987,1.72" transform="translate(-1430.588 -871.943)" fill="#f99370"/>
      <path id="Trazado_999022" data-name="Trazado 999022" d="M1455.277,994.255c3.023-.54,6.192-1.121,8.879-2.633,1.415-.938,2.051-2.677,2.716-4.224a36.555,36.555,0,0,0,1.512-5.091.815.815,0,0,1,.972-.62c.984.263.554,1.49.588,2.22-.307,3.56-.689,7.5-3.2,10.3a15.123,15.123,0,0,1-3.633,2.443,35.936,35.936,0,0,1-6.828,2.555,2.527,2.527,0,1,1-1.007-4.95" transform="translate(-1302.82 -880.112)" fill="#f99370"/>
      <path id="Trazado_999023" data-name="Trazado 999023" d="M1253.616,1113.755c-2.777,2.764-5.648,5.751-9.391,7.173a9.854,9.854,0,0,1-9.543-2.278.822.822,0,0,1,.833-1.416,9.454,9.454,0,0,0,1.067.563,7.477,7.477,0,0,0,6.485-.051c2.356-1.593,4.165-4.08,5.961-6.292.1-.137.441-.573.543-.71,2.012-3.111,6.484.208,4.046,3.011" transform="translate(-1106.614 -994.712)" fill="#f99370"/>
      <path id="Trazado_999024" data-name="Trazado 999024" d="M1479.067,1003.548c-.625,2.176-2.987,4.654-5.485,6.119a23.266,23.266,0,0,1-7.186,2.7l-.33-.8-2.529-6.152s6.43-1.01,8.94-2.787c1.542-1.091,3.834-5.083,4.818-7.524.083-.208.158-.4.221-.588a2.3,2.3,0,0,0,1.78.032s.045.228.1.626a21.531,21.531,0,0,1-.332,8.379" transform="translate(-1312.131 -891.628)" fill="#1d3f70"/>
      <path id="Trazado_999025" data-name="Trazado 999025" d="M1257.23,1100.822l-1.424,9.548a10.882,10.882,0,0,1-1.781,1.466,16.83,16.83,0,0,1-6.338,2.536h0a10.736,10.736,0,0,1-2.519.138,9.5,9.5,0,0,1-5.81-3.021c-.287-.3-.443-.5-.443-.5a2.018,2.018,0,0,0,1.015-1.343q.323.136.637.242c6.732,2.3,10.882-4.567,12.693-6.727a6.131,6.131,0,0,1,3.974-2.343" transform="translate(-1110.744 -986.941)" fill="#1d3f70"/>
      <path id="Trazado_999026" data-name="Trazado 999026" d="M1330.073,1179.976a16.834,16.834,0,0,1-6.339,2.536,9.032,9.032,0,0,0,5.864-5.687Z" transform="translate(-1186.793 -1055.081)" fill="#163356"/>
      <path id="Trazado_999027" data-name="Trazado 999027" d="M1495.5,1141.017a23.261,23.261,0,0,1-7.186,2.7l-.33-.8.922-1.068a13,13,0,0,0,6.594-.827" transform="translate(-1334.045 -1022.977)" fill="#163356"/>
      <path id="Trazado_999028" data-name="Trazado 999028" d="M1384.72,1578.853c-.165.318,3.759.077,3.812.152.391-.1.016-1.157-.114-1.361-.818-1.085.174-6.053.143-7.323h-3.738c-.04,1.262.895,6.252.112,7.321a2.151,2.151,0,0,0-.215,1.211" transform="translate(-1241.464 -1407.869)" fill="#f99370"/>
      <path id="Trazado_999029" data-name="Trazado 999029" d="M1475.1,1578.853c-.165.318,3.759.077,3.812.152.391-.1.016-1.157-.114-1.361-.818-1.085.174-6.053.143-7.323H1475.2c-.04,1.262.895,6.252.112,7.321a2.155,2.155,0,0,0-.215,1.211" transform="translate(-1322.492 -1407.869)" fill="#f99370"/>
      <path id="Trazado_999030" data-name="Trazado 999030" d="M1479.118,1633.754a6.445,6.445,0,0,1-1.912.208,8.005,8.005,0,0,1-2.135-.208s-.015-.151-.016-.382a3.431,3.431,0,0,1,.48-1.906,5.055,5.055,0,0,1,2.962,0,2.656,2.656,0,0,1,.621,1.964c0,.1,0,.211,0,.325" transform="translate(-1322.459 -1462.483)" fill="#1d3f70"/>
      <path id="Trazado_999031" data-name="Trazado 999031" d="M1479.118,1652.255a6.437,6.437,0,0,1-1.912.208,8,8,0,0,1-2.135-.208s-.015-.15-.016-.382a12.7,12.7,0,0,0,4.063.058c0,.1,0,.211,0,.325" transform="translate(-1322.459 -1480.985)" fill="#103663"/>
      <path id="Trazado_999032" data-name="Trazado 999032" d="M1388.742,1633.754a6.445,6.445,0,0,1-1.912.208,8,8,0,0,1-2.134-.208s-.015-.151-.016-.382a3.431,3.431,0,0,1,.48-1.906,5.055,5.055,0,0,1,2.962,0,2.656,2.656,0,0,1,.621,1.964c0,.1,0,.211,0,.325" transform="translate(-1241.433 -1462.483)" fill="#1d3f70"/>
      <path id="Trazado_999033" data-name="Trazado 999033" d="M1379.075,1307.617c-.061.615-.1.954-.1.954a5.478,5.478,0,0,1-5.1.237c-.647-8.6-2.487-25.228-2.48-25.139-.565,8.257-1.482,18.713-1.583,25.335a6.348,6.348,0,0,1-5.5-.2,150.985,150.985,0,0,1-.847-35.387c5.914,1.338,14.848-.312,14.848-.312,2.951,10.166,1.211,29.947.755,34.508" transform="translate(-1221.839 -1141.404)" fill="#3a72aa"/>
      <rect id="Rectángulo_456393" data-name="Rectángulo 456393" width="2.463" height="2.908" transform="translate(147.776 111.317)" fill="#f99370"/>
      <path id="Trazado_999034" data-name="Trazado 999034" d="M1377.391,1119.52c-2.13,1.434-12.29,2.411-17.112.118,0-.01,2.393-17.708,4.1-20.1,2.079-.952,6.084-1.22,8.193-.136,2.247,1.911,4.816,20.284,4.823,20.115" transform="translate(-1219.556 -985.04)" fill="#1d3f70"/>
      <path id="Trazado_999035" data-name="Trazado 999035" d="M1430.648,1092.274c-1.812.6-2.531,0-2.531,0l.007,0,.029-.754a3.673,3.673,0,0,0,2.463,0Z" transform="translate(-1280.376 -978.601)" fill="#103663"/>
      <path id="Trazado_999036" data-name="Trazado 999036" d="M1423.7,1023.824a4.68,4.68,0,0,0,5.137-.745c1.721-1.752-.182-3.833-.241-5.695a7.237,7.237,0,0,1-.022-.862c-7.181.8-5.254,7.271-4.875,7.3" transform="translate(-1275.95 -911.362)" fill="#f99370"/>
      <path id="Trazado_999037" data-name="Trazado 999037" d="M1427.041,1076.556v1.631s.782,1.314,2.76-.015v-2.542Z" transform="translate(-1279.411 -964.355)" fill="#f99370"/>
      <path id="Trazado_999038" data-name="Trazado 999038" d="M1439.931,1023.282c.372-.047,1.834-.277,1.96-1.043a4.19,4.19,0,0,1,.283-1.079l.754-1.278a4.339,4.339,0,0,1,.6-2.5h0a7.251,7.251,0,0,1-.022-.862q-.267.044-.516.094l-1.205.8-1.346,1.352s-.882,4.555-.511,4.509" transform="translate(-1290.886 -911.362)" fill="#e57d61"/>
      <path id="Trazado_999039" data-name="Trazado 999039" d="M1408.871,996.116a4.828,4.828,0,0,1,.911-2.583c1.782-1.978-.12-2.854-1.435-3.045s-6.013,1.223-5.377,3.507c0,0-1.642.6-.056,4.27a4.435,4.435,0,0,0,1.814,1.942,8.783,8.783,0,0,1,1.478-.281c.578-.057,1.483-.483,1.566-1.057.143-.99.454-2.323,1.1-2.753" transform="translate(-1257.163 -888.006)" fill="#662948"/>
      <path id="Trazado_999040" data-name="Trazado 999040" d="M1457.249,1042.049a.934.934,0,1,0,.495-1.368,1.041,1.041,0,0,0-.495,1.368" transform="translate(-1306.427 -932.985)" fill="#f99370"/>
      <path id="Trazado_999041" data-name="Trazado 999041" d="M1461.052,1044.82c-.02-.005-.49-.123-.714.142a.47.47,0,0,0-.1.254h0c0,.009,0,.018,0,.028h0a1.592,1.592,0,0,0,.175.722.074.074,0,0,0,.084.041l.012,0a.073.073,0,0,0,.037-.1,1.624,1.624,0,0,1-.163-.589,1,1,0,0,1,.7.47.073.073,0,0,0,.127-.073,1.129,1.129,0,0,0-.809-.547.3.3,0,0,1,.055-.112c.164-.195.562-.1.566-.095a.073.073,0,0,0,.036-.142" transform="translate(-1309.168 -936.705)" fill="#c16256"/>
      <path id="Trazado_999042" data-name="Trazado 999042" d="M1388.742,1652.255a6.437,6.437,0,0,1-1.912.208,8,8,0,0,1-2.134-.208s-.015-.15-.016-.382a12.7,12.7,0,0,0,4.063.058c0,.1,0,.211,0,.325" transform="translate(-1241.433 -1480.985)" fill="#103663"/>
      <path id="Trazado_999043" data-name="Trazado 999043" d="M1427.041,1093.229V1093a4.261,4.261,0,0,0,2.76-.059v.284a3.545,3.545,0,0,1-2.76,0" transform="translate(-1279.411 -979.879)" fill="#f4d4be"/>
      <path id="Trazado_999044" data-name="Trazado 999044" d="M1474.14,1606.674c-.061.615-.1.954-.1.954a5.478,5.478,0,0,1-5.1.237c-.027-.356-.056-.724-.086-1.1a7.583,7.583,0,0,0,5.281-.089" transform="translate(-1316.903 -1440.462)" fill="#23659b"/>
      <path id="Trazado_999045" data-name="Trazado 999045" d="M1380.938,1399.537c.475-7.63.49-19.649,2.238-24.359-.565,8.258-1.482,18.711-1.583,25.335a6.348,6.348,0,0,1-5.5-.2q-.069-.505-.135-1a8.865,8.865,0,0,0,4.979.225" transform="translate(-1233.614 -1232.914)" fill="#23659b"/>
      <path id="Trazado_999046" data-name="Trazado 999046" d="M1435.49,1345.073a6.354,6.354,0,0,1-1.125-3.474,7.083,7.083,0,0,0,.842,4.333Z" transform="translate(-1285.927 -1202.809)" fill="#23659b"/>
      <path id="Trazado_999047" data-name="Trazado 999047" d="M1417.09,1098.856a1.192,1.192,0,0,1-.185.3,2.7,2.7,0,0,1-.852.555,5.218,5.218,0,0,1-1.972.466,4.241,4.241,0,0,1-1.844-.307,3.329,3.329,0,0,1-1.005-.634l-.114-.107a9.16,9.16,0,0,1,1.647-.232,22.482,22.482,0,0,1,2.76-.029l.088,0c.1,0,.2.011.3.022l.629.052a2.425,2.425,0,0,1,.549-.094" transform="translate(-1265.136 -985.168)" fill="#163356"/>
      <path id="Trazado_999048" data-name="Trazado 999048" d="M1416.912,1095.692a2.064,2.064,0,0,0-1.169.52,3.748,3.748,0,0,0,2.493.734,4.109,4.109,0,0,0,2.452-.823,2.456,2.456,0,0,0-1.015-.431,3.824,3.824,0,0,1-2.76,0" transform="translate(-1269.282 -982.341)" fill="#1d3f70"/>
      <path id="Trazado_999049" data-name="Trazado 999049" d="M1570.095,964.047a.321.321,0,0,1-.115-.62l5.99-2.308a.321.321,0,1,1,.231.6l-5.99,2.308a.322.322,0,0,1-.115.021" transform="translate(-1407.378 -861.671)" fill="#1d3f70"/>
      <path id="Trazado_999050" data-name="Trazado 999050" d="M1601.023,970.475s.316-1.6-.458-2.159l-1.255.487s.463.389.108,1.672c0,0,.355.521,1.6,0" transform="translate(-1433.859 -868.143)" fill="#f99370"/>
      <path id="Trazado_999051" data-name="Trazado 999051" d="M1596.855,971.952c.142.281.1.675-.036.745s-.128-.232-.269-.512-.327-.287-.327-.287c.123-.44.491-.227.633.054" transform="translate(-1431.09 -871.128)" fill="#f99370"/>
      <path id="Trazado_999052" data-name="Trazado 999052" d="M1608.028,967.479c.142.281.144.565.005.635s-.366-.1-.508-.382-.144-.565-.005-.635.366.1.507.382" transform="translate(-1441.129 -867.035)" fill="#f99370"/>
      <path id="Trazado_999053" data-name="Trazado 999053" d="M1604.125,969.013c.142.281.144.566.005.635s-.366-.1-.508-.382-.144-.565-.005-.635.366.1.507.382" transform="translate(-1437.629 -868.411)" fill="#f99370"/>
      <path id="Trazado_999054" data-name="Trazado 999054" d="M1600.291,970.407c.142.281.144.566.005.635s-.366-.1-.508-.382-.144-.566-.005-.635.366.1.508.382" transform="translate(-1434.191 -869.66)" fill="#f99370"/>
      <path id="Trazado_999055" data-name="Trazado 999055" d="M1202.969,1150.312c-.312.149.158.822.11,1.133a4.911,4.911,0,0,1-.925-.647q-.616-.828-1.144-1.715c-.918-.5.479,1.728.576,1.972l-.008.007a15.536,15.536,0,0,1-1.527-1.528c-1.056-.306,1.006,1.781,1.177,1.993l0,0a9.028,9.028,0,0,1-1.613-1.278c-1.091-.214,1.167,1.744,1.4,1.891l0,.008a9.194,9.194,0,0,1-1.428-.8c-1.045-.053,1.15,1.362,1.378,1.474a7.143,7.143,0,0,0,2.339,1.254c.383.123.944-.943.865-1.331a5.2,5.2,0,0,0-.522-1.076c-.1-.346-.259-1.361-.675-1.364" transform="translate(-1075.234 -1030.144)" fill="#f99370"/>
      <path id="Trazado_999056" data-name="Trazado 999056" d="M1598.63,995.17a3.76,3.76,0,0,1-2.1-.07c.083-.208.158-.4.222-.588a2.3,2.3,0,0,0,1.78.032s.045.228.1.626" transform="translate(-1431.363 -891.629)" fill="#163356"/>
      <path id="Trazado_999057" data-name="Trazado 999057" d="M1240.565,1186.118a2.138,2.138,0,0,1-1.21,1.6c-.287-.3-.443-.5-.443-.5a1.99,1.99,0,0,0,1-1.375c.369.149.656.275.656.275" transform="translate(-1110.745 -1063.166)" fill="#163356"/>
      <path id="Trazado_999058" data-name="Trazado 999058" d="M566.408,1689.859l-.108-.057c0,.075-.093.338-.169.338l-3.186.066c-.075,0-.122-.142-.122-.218l-.272-.078a1.634,1.634,0,0,1,.25-1.019c.775-1.03-.15-5.634-.123-6.837-.191-.329,3.355-.071,3.4-.149a.137.137,0,0,1,.136.147l-.417,5.261c-.187,1,.579,1.6.606,2.545" transform="translate(-504.355 -1507.889)" fill="#f99370"/>
      <path id="Trazado_999059" data-name="Trazado 999059" d="M665.14,1690.312h-6.346c-.554-.022-.55-.587-.448-1.026.349-1.579-.268-5.206-.383-6.83a.5.5,0,0,1,.5-.556c4.683-.048,3.155-.423,2.792,4.629-.277,1.765,1.828,2.1,3.028,2.3.79.057,2.111,1.136.855,1.487" transform="translate(-589.893 -1507.884)" fill="#f99370"/>
      <path id="Trazado_999060" data-name="Trazado 999060" d="M659.326,1739.748c.017.311.171.666.532.658h6.583c1.553-.576-.7-2.668-3.74-2.656a8.823,8.823,0,0,1-3.029.141,3.377,3.377,0,0,0-.346,1.856" transform="translate(-591.115 -1557.978)" fill="#103663"/>
      <path id="Trazado_999061" data-name="Trazado 999061" d="M561.83,1740.649h2.814c1.371-.187.538-2.628-1.406-2.628-1.809,0-2.777,2.443-1.407,2.628" transform="translate(-503.128 -1558.221)" fill="#103663"/>
      <path id="Trazado_999062" data-name="Trazado 999062" d="M711.74,1744.672a.14.14,0,0,0,.13-.087,1.48,1.48,0,0,1,.728-.823c.356-.562-.678-.162-.988.718a.141.141,0,0,0,.13.192" transform="translate(-637.984 -1563.134)" fill="#e8c0a6"/>
      <path id="Trazado_999063" data-name="Trazado 999063" d="M701.233,1741.289a.14.14,0,0,0,.134-.1,1.936,1.936,0,0,1,.859-1.06c.323-.652-.879.046-1.127.978a.141.141,0,0,0,.134.181" transform="translate(-628.564 -1559.883)" fill="#e8c0a6"/>
      <path id="Trazado_999064" data-name="Trazado 999064" d="M689.466,1738.884a.14.14,0,0,0,.132-.094,2.521,2.521,0,0,1,.871-1.164c.357-.964-1.613,1-1,1.258" transform="translate(-618.034 -1557.63)" fill="#e8c0a6"/>
      <path id="Trazado_999065" data-name="Trazado 999065" d="M570.078,1741.668a2.493,2.493,0,0,1,1.985-.013c.816-.176-1.114-.865-2.056-.248a.141.141,0,0,0,.071.261" transform="translate(-510.979 -1561.031)" fill="#e8c0a6"/>
      <path id="Trazado_999066" data-name="Trazado 999066" d="M666.925,1757.058H659.35a1.735,1.735,0,0,0,.208.659h6.907a.489.489,0,0,0,.461-.659" transform="translate(-591.139 -1575.288)" fill="#0f2e54"/>
      <path id="Trazado_999067" data-name="Trazado 999067" d="M562.013,1757.716h2.814a.624.624,0,0,0,.624-.659h-4.062a.624.624,0,0,0,.624.659" transform="translate(-503.311 -1575.288)" fill="#0f2e54"/>
      <path id="Trazado_999068" data-name="Trazado 999068" d="M864.959,1297.741c4.192,2.266,4.169-3.364-.094-2.064a4.878,4.878,0,0,0,.094,2.064" transform="translate(-775.33 -1161.461)" fill="#f99370"/>
      <path id="Trazado_999069" data-name="Trazado 999069" d="M742.434,1128.875a1.2,1.2,0,0,0,1.145-.84l2.39-7.577H759.93l-2.162,6.855a1.2,1.2,0,0,0,2.291.723c7.173-22.746,15.1-47.881,22.236-70.508A1.2,1.2,0,0,0,780,1056.8l-2.153,6.828H763.889l1.925-6.105a1.2,1.2,0,0,0-2.291-.723l-22.236,70.509a1.207,1.207,0,0,0,1.146,1.563m21.939-22.5H750.411l2.612-8.283h13.961Zm-4.61-29.652h13.961L771.111,1085H757.15Zm10.592,10.685-2.612,8.282H753.781l2.612-8.282Zm6.739-21.369-2.612,8.283H760.52l2.612-8.283Zm-30.367,52.021,2.927-9.283h13.961l-2.939,9.32a1.207,1.207,0,0,0-.293-.037Z" transform="translate(-664.548 -946.746)" fill="#1d3f70"/>
      <path id="Trazado_999070" data-name="Trazado 999070" d="M714.329,1123.876a2.42,2.42,0,0,0,.022-3.027l-1.386.21Z" transform="translate(-639.208 -1004.896)" fill="#c92828"/>
      <path id="Trazado_999071" data-name="Trazado 999071" d="M703.609,1214.864c3.948,6.093,11.95,5.919,16.345,2.63l-.093-2.064c-10.138.785-10.278-6.507-16.8-9.458,0,0,.481,8.74.55,8.892" transform="translate(-630.326 -1081.213)" fill="#1d3f70"/>
      <path id="Trazado_999072" data-name="Trazado 999072" d="M556.82,1351.3q.016.662.037,1.338a5.3,5.3,0,0,0,4.74.475c.921-5.013,2.884-15.753,4.866-28.7.025-.381,1.026,17.363-.2,29.113a9.466,9.466,0,0,0,5.035-.213c1.678-5.995,4.3-16.874,3.1-39.634,0,0-7.169-.4-12.384-2.99-4.494,5.213-5.736,31.913-5.193,40.614" transform="translate(-499.11 -1175.097)" fill="#3a72aa"/>
      <path id="Trazado_999073" data-name="Trazado 999073" d="M670.567,1158.194c.3-1.572,1.019-4.4-.163-5.1a1.269,1.269,0,0,0-1.9,1.163,14.356,14.356,0,0,1-.443,3.606c-2.451.307,4.178,3.791,2.508.327" transform="translate(-598.453 -1033.668)" fill="#f99370"/>
      <path id="Trazado_999074" data-name="Trazado 999074" d="M675.133,1153.932c0,.044,0,.089,0,.133a14.13,14.13,0,0,1-.228,2.7,4.232,4.232,0,0,0,2.414.62c.36-1.65.848-3.719-.284-4.487a1.266,1.266,0,0,0-1.9,1.03" transform="translate(-605.087 -1033.471)" fill="#e57d61"/>
      <path id="Trazado_999075" data-name="Trazado 999075" d="M683.211,1441.777c3.462-15.741,2.426-31.985,1.976-32.118-.231.108.763,16.517-1.976,32.118" transform="translate(-612.532 -1263.828)" fill="#23659b"/>
      <path id="Trazado_999076" data-name="Trazado 999076" d="M581.985,1435.021c2.383-15.1,5.044-32.637,4.711-32.9-.346.048-3.052,17.92-4.711,32.9" transform="translate(-521.778 -1257.073)" fill="#23659b"/>
      <path id="Trazado_999077" data-name="Trazado 999077" d="M665.206,1118.39a5.139,5.139,0,0,0-.211,3.464h0c.018.044.036.085.057.128,0,0,0,0,0,0a3.732,3.732,0,0,0,4.027,1.834h0a2.7,2.7,0,0,0,2.24-2.459,7.763,7.763,0,0,1-.2-2.107c.981-4.054-4.471-5.047-5.917-.862" transform="translate(-596.002 -1000.273)" fill="#f99370"/>
      <path id="Trazado_999078" data-name="Trazado 999078" d="M706.511,1152.867a.171.171,0,0,0-.2-.281.171.171,0,0,0,.2.281" transform="translate(-633.181 -1033.32)" fill="#c16256"/>
      <path id="Trazado_999079" data-name="Trazado 999079" d="M719.853,1157.395a.171.171,0,0,0-.2-.281.171.171,0,0,0,.2.281" transform="translate(-645.143 -1037.38)" fill="#c16256"/>
      <path id="Trazado_999080" data-name="Trazado 999080" d="M710.753,1254.6a12.99,12.99,0,0,0,5.249,3.882c-.4-.69-1.212-1.142-1.518-2.727a27.593,27.593,0,0,0-2-5.927Z" transform="translate(-637.225 -1120.531)" fill="#103663"/>
      <path id="Trazado_999081" data-name="Trazado 999081" d="M665.206,1118.226a5.14,5.14,0,0,0-.211,3.464h0c.018.044.036.085.057.128-.273-1.987.074-2.26.858-3.313,1.553-.466,1.92-1.7,3.09-1.293a16.2,16.2,0,0,0,2.218.582c-.365-3.242-4.878-2.97-6.013.434" transform="translate(-596.002 -1000.109)" fill="#e57d61"/>
      <path id="Trazado_999082" data-name="Trazado 999082" d="M709.368,1158.844c.269.083.653.077.459-.3a1.918,1.918,0,0,1-.092-1.016c-.187-.347-.247.743-.016,1.087.15.257-.387.139-.542-.032-.291-.05.061.255.191.26" transform="translate(-635.71 -1037.72)" fill="#c16256"/>
      <path id="Trazado_999083" data-name="Trazado 999083" d="M578.467,1219.315c3.471,2.626,11.984,3.41,15.45,2.155,1.168-.495,1.332-4.43,1.2-8.294a21.925,21.925,0,0,0-3.841-12.318,4.308,4.308,0,0,0-.74-.256c.011.47-.1,1.83-2.509-.328a3.453,3.453,0,0,0-.942.009,24.4,24.4,0,0,0-2.91,2.151c-.2.827-1.079,2.872-2.044,5.256-1.115,2.788-2.608,5.623-3.1,8.233-.191,1.086-1.249,2.368-.56,3.391" transform="translate(-518.418 -1076.074)" fill="#1d3f70"/>
      <path id="Trazado_999084" data-name="Trazado 999084" d="M665.852,1102.9c1.419-2.975,3.3-2.232,3.3-2.232h0c2.395-1.638,5.7.71,3.331,2.661-1.385,1.227-3.032-1.223-5,.282a3.933,3.933,0,0,1-2.333,1.069,6.086,6.086,0,0,1,.7-1.78" transform="translate(-596.338 -986.312)" fill="#c92828"/>
      <path id="Trazado_999085" data-name="Trazado 999085" d="M659.726,1136.914c-.381,1.246,1.2,1.709,1.549.455.381-1.246-1.2-1.709-1.549-.455" transform="translate(-591.423 -1018.634)" fill="#f99370"/>
      <path id="Trazado_999086" data-name="Trazado 999086" d="M662.4,1140.212a.065.065,0,0,0,.084-.049c.078-.39.206-.619.37-.662.318-.061.415.3.548.228.085-.111-.251-.4-.58-.353a.785.785,0,0,0-.422.836" transform="translate(-593.857 -1021.502)" fill="#c16256"/>
      <path id="Trazado_999087" data-name="Trazado 999087" d="M664.809,1141.759c.19.113.083-.933-.374-.892a.065.065,0,0,0,.021.089c.426.289.233.733.354.8" transform="translate(-595.689 -1022.842)" fill="#c16256"/>
      <path id="Trazado_999088" data-name="Trazado 999088" d="M700.684,1170.957c.213.1.45.05.267-.072a1.473,1.473,0,0,1-1.109-.847.065.065,0,0,0-.088-.026c.027.53.751.88.929.944" transform="translate(-627.364 -1048.967)" fill="#c16256"/>
      <path id="Trazado_999089" data-name="Trazado 999089" d="M875.586,1295.718a1.588,1.588,0,0,1,1.82.219.234.234,0,0,0,.3-.358,2.259,2.259,0,0,0-2.548-.664.456.456,0,0,0,.432.8" transform="translate(-784.406 -1160.813)" fill="#f99370"/>
      <path id="Trazado_999090" data-name="Trazado 999090" d="M893.688,1322.87c.809.22.972-.843.1-.57l.014,0c-.439-.112-.525.471-.111.567" transform="translate(-800.994 -1185.466)" fill="#f99370"/>
      <path id="Trazado_999091" data-name="Trazado 999091" d="M895.848,1317.329c.957.078.721-1.067.032-.6.017-.006-.079.014-.063.009-.458-.023-.371.58.031.59" transform="translate(-802.867 -1180.412)" fill="#f99370"/>
      <path id="Trazado_999092" data-name="Trazado 999092" d="M897.973,1312.952l.312-.071c.432-.115.12-.681-.237-.575l-.312.071c-.432.114-.12.681.237.575" transform="translate(-804.675 -1176.534)" fill="#f99370"/>
      <path id="Trazado_999093" data-name="Trazado 999093" d="M899.973,1308.336l.312-.071c.432-.115.12-.681-.237-.575l-.312.071c-.432.115-.12.681.237.575" transform="translate(-806.468 -1172.397)" fill="#f99370"/>
      <path id="Trazado_999094" data-name="Trazado 999094" d="M586.727,1215.489a3.505,3.505,0,0,0-.158-2.073s-7.14-.26-8.146-2.883c-1.081-2.818,3.927-4.357,3.653-9.719-6.464.2-11.7,8.265-8.492,13.737,1.951,3.332,9.264,2.354,13.143.938" transform="translate(-513.377 -1076.588)" fill="#1d3f70"/>
      <path id="Trazado_999095" data-name="Trazado 999095" d="M649.094,1710.774a9.467,9.467,0,0,0,5.035-.213s.123-.445.37-1.353c0,0-3.032,1.1-5.253-.049-.043.529-.1,1.092-.152,1.615" transform="translate(-581.944 -1532.345)" fill="#23659b"/>
      <path id="Trazado_999096" data-name="Trazado 999096" d="M557.852,1703.275c.011.441.023.886.037,1.338a5.3,5.3,0,0,0,4.74.474s.077-.412.215-1.167a6.934,6.934,0,0,1-4.993-.646" transform="translate(-500.141 -1527.069)" fill="#23659b"/>
      <path id="Trazado_999097" data-name="Trazado 999097" d="M855.8,1297.047a7.3,7.3,0,0,1,.094,2.064,1.658,1.658,0,0,1-.8.544,4.922,4.922,0,0,1-.342-2.553,2.341,2.341,0,0,1,1.054-.055" transform="translate(-766.261 -1162.831)" fill="#103663"/>
      <path id="Trazado_999098" data-name="Trazado 999098" d="M713.972,1319.751s1.362-.3,1.829-.382a3.31,3.31,0,0,1,1.875.721c.252.281-.147.966-.327,1.163s-.556-.033-.385-.36c.118-.225.229-.423.229-.423a4.954,4.954,0,0,1-.974,0,3.443,3.443,0,0,1-2.221,1.117,4.016,4.016,0,0,0-.026-1.834" transform="translate(-640.11 -1182.871)" fill="#f99370"/>
      <path id="Trazado_999099" data-name="Trazado 999099" d="M714.22,1328.826a6.843,6.843,0,0,0,3.089-.764c.509-.318,0-.625,0-.625l-1.384.066Z" transform="translate(-640.333 -1190.112)" fill="#f99370"/>
      <path id="Trazado_999100" data-name="Trazado 999100" d="M708.169,1322.681l-.67-.053a3.186,3.186,0,0,1,.158,2.073l.537-.186a2.43,2.43,0,0,0-.026-1.834" transform="translate(-634.307 -1185.8)" fill="#f99370"/>
      <path id="Trazado_999101" data-name="Trazado 999101" d="M634.851,1254.787l-.023,0c-.837-.151-1.412-.236-2.557-.406l-.922-.137a8.247,8.247,0,0,1-3.987-1.495,2.2,2.2,0,0,1-.936-1.5,2.82,2.82,0,0,1,.515-2.081c.7-.928,1.794-2.438,1.8-2.453a.128.128,0,1,1,.208.15c-.011.015-1.105,1.527-1.808,2.457a2.557,2.557,0,0,0-.466,1.886,1.96,1.96,0,0,0,.828,1.331,7.927,7.927,0,0,0,3.879,1.452l.922.137c1.148.171,1.724.256,2.565.408a.128.128,0,0,1-.022.254" transform="translate(-561.593 -1117.69)" fill="#103663"/>
      <path id="Trazado_999102" data-name="Trazado 999102" d="M593.277,1341.131c-3.557,0-4.818-1.3-4.892-1.358s-.13-.19-.079-.24a.124.124,0,0,1,.2,0s1.589,1.591,5.727,1.3a19.273,19.273,0,0,0,6.666-1.517.128.128,0,1,1,.115.229,19.513,19.513,0,0,1-6.763,1.544c-.341.024-.666.035-.975.035" transform="translate(-527.428 -1200.756)" fill="#103663"/>
      <path id="Trazado_999103" data-name="Trazado 999103" d="M708.741,1328.074a2.427,2.427,0,0,1,.026,1.323,1.182,1.182,0,0,1-.537.186,5.579,5.579,0,0,0-.092-1.471Z" transform="translate(-634.879 -1190.683)" fill="#3a72aa"/>
      <path id="Trazado_999104" data-name="Trazado 999104" d="M705.724,1147.338a.069.069,0,0,1-.028-.006,1.894,1.894,0,0,0-.872-.077.064.064,0,1,1-.018-.127,1.987,1.987,0,0,1,.946.087.064.064,0,0,1-.028.122" transform="translate(-631.844 -1028.438)" fill="#c16256"/>
      <path id="Trazado_999105" data-name="Trazado 999105" d="M720.257,1150.357a.064.064,0,0,1-.055-.031,1.093,1.093,0,0,0-.453-.363.064.064,0,0,1,.05-.118,1.207,1.207,0,0,1,.514.416.064.064,0,0,1-.023.088.062.062,0,0,1-.033.009" transform="translate(-645.254 -1030.887)" fill="#c16256"/>
      <path id="Trazado_999106" data-name="Trazado 999106" d="M661.151,1199.615c-.016,1.139,3.2,2.688,3.367,2.69l.35-1.036c.45.111.845.74.845.74,1.3-1.235.077-2.311-.845-2.107v0s.114,1.693-2.51-.329c-.362-.279-1.208.041-1.208.041" transform="translate(-592.754 -1075.374)" fill="#f4d4be"/>
      <path id="Trazado_999107" data-name="Trazado 999107" d="M703.887,1323.113c0,.163-.352.295-.786.295s-.786-.132-.786-.295.352-.295.786-.295.786.132.786.295" transform="translate(-629.659 -1185.971)" fill="#23659b"/>
      <rect id="Rectángulo_456394" data-name="Rectángulo 456394" width="1.572" height="0.128" transform="translate(72.656 137.014)" fill="#23659b"/>
      <path id="Trazado_999108" data-name="Trazado 999108" d="M703.887,1321.872c0,.163-.352.295-.786.295s-.786-.132-.786-.295.352-.3.786-.3.786.132.786.3" transform="translate(-629.659 -1184.858)" fill="#3a72aa"/>
      <path id="Trazado_999109" data-name="Trazado 999109" d="M704.806,1322.495c0,.111-.3.2-.666.2s-.666-.09-.666-.2.3-.2.666-.2.666.09.666.2" transform="translate(-630.699 -1185.5)" fill="#cfddf9"/>
      <path id="Trazado_999110" data-name="Trazado 999110" d="M965.474,1062.291l-6.376-.057c.089-2.208.438-5.475.777-7.741l3.247.129-1.229,4.568a1.065,1.065,0,0,0,.688,1.23c1.178.474,2.624.229,3.29,1.274a.426.426,0,0,1-.4.6" transform="translate(-859.878 -945.405)" fill="#f99370"/>
      <path id="Trazado_999111" data-name="Trazado 999111" d="M957.174,1107.681a1.859,1.859,0,0,0,.165.667h6.4a.453.453,0,0,0,.437-.594c-.236-.686-1.015-1.683-3.954-1.863a6.571,6.571,0,0,1-2.7-.027,3.942,3.942,0,0,0-.351,1.817" transform="translate(-858.14 -991.461)" fill="#eb5648"/>
      <path id="Trazado_999112" data-name="Trazado 999112" d="M1005.73,1112.49a.129.129,0,0,0,.119-.08,1.368,1.368,0,0,1,.68-.754c.337-.515-.627-.155-.918.655a.13.13,0,0,0,.119.179" transform="translate(-901.57 -996.439)" fill="#e8c0a6"/>
      <path id="Trazado_999113" data-name="Trazado 999113" d="M996.032,1109.285a.129.129,0,0,0,.123-.09,1.79,1.79,0,0,1,.8-.973c.28-.6-.8.032-1.049.894a.13.13,0,0,0,.123.169" transform="translate(-892.875 -993.364)" fill="#e8c0a6"/>
      <path id="Trazado_999114" data-name="Trazado 999114" d="M985,1107.074a.129.129,0,0,0,.122-.086,2.33,2.33,0,0,1,.814-1.068c.208-.625-.769.122-1.057.98a.13.13,0,0,0,.122.173" transform="translate(-882.982 -991.305)" fill="#e8c0a6"/>
      <path id="Trazado_999115" data-name="Trazado 999115" d="M964.294,1123.488l-7-.063a1.862,1.862,0,0,0,.165.667h6.4a.453.453,0,0,0,.434-.6" transform="translate(-858.261 -1007.206)" fill="#ce3932"/>
      <path id="Trazado_999116" data-name="Trazado 999116" d="M960.7,629.039c-7.863,3.914-9.956,13.034-4.913,20.132.712,1.193,2.234.16,1.525-1-2.138-5.565-.635-11.563,5.5-13.3,0,0-.021.011-.028.014,3.817-1.378,1.746-7.188-2.081-5.845" transform="translate(-854.456 -563.785)" fill="#f99370"/>
      <path id="Trazado_999117" data-name="Trazado 999117" d="M951.036,641.329c.714.5,3.9.19,5.066-.5l5.067-11.443c-4.852-1.012-10.606,6.748-10.133,11.939" transform="translate(-852.625 -564.199)" fill="#1d3f70"/>
      <path id="Trazado_999118" data-name="Trazado 999118" d="M970.747,706.125a8.023,8.023,0,0,0,1.7-.282l.24-4.561a11.761,11.761,0,0,0-1.94,4.843" transform="translate(-870.322 -628.735)" fill="#163356"/>
      <path id="Trazado_999119" data-name="Trazado 999119" d="M1032.974,624.992c8.36,4.814,16.367,3.943,19.933-5.845.329-1.247-1.286-1.631-1.763-.487-4.427,6.331-8.816,6.029-14.446,1.374,0,0-.013-.013.006,0-3.254-2.425-6.96,2.505-3.73,4.957" transform="translate(-924.995 -554.047)" fill="#f99370"/>
      <path id="Trazado_999120" data-name="Trazado 999120" d="M1035.668,1060.058l-6.283.008c-.233-1.553,1.138-6.625,1.52-8.055l3.411.712-1.721,4.115s-.8,1.084.255,1.377c1.165.4,2.411.257,3.2,1.077a.48.48,0,0,1-.385.765" transform="translate(-922.87 -943.179)" fill="#f99370"/>
      <path id="Trazado_999121" data-name="Trazado 999121" d="M1027.62,1108.194a1.608,1.608,0,0,0,.193.608l6.38-.009a.453.453,0,0,0,.431-.6c-.243-.683-.948-1.675-3.889-1.825a6.556,6.556,0,0,1-2.724.014,3.6,3.6,0,0,0-.391,1.81" transform="translate(-921.298 -991.915)" fill="#eb5648"/>
      <path id="Trazado_999122" data-name="Trazado 999122" d="M1076.153,1112.482a.129.129,0,0,0,.12-.081,1.369,1.369,0,0,1,.672-.761c.332-.519-.629-.149-.912.665a.13.13,0,0,0,.12.178" transform="translate(-964.707 -996.425)" fill="#e8c0a6"/>
      <path id="Trazado_999123" data-name="Trazado 999123" d="M1066.443,1109.368a.13.13,0,0,0,.124-.091,1.8,1.8,0,0,1,.793-.981c.272-.6-.8.041-1.04.9a.13.13,0,0,0,.123.167" transform="translate(-956.002 -993.43)" fill="#e8c0a6"/>
      <path id="Trazado_999124" data-name="Trazado 999124" d="M1055.393,1107.207a.129.129,0,0,0,.122-.087,2.329,2.329,0,0,1,.8-1.076.129.129,0,0,0-.143-.215,2.554,2.554,0,0,0-.9,1.207.13.13,0,0,0,.122.172" transform="translate(-946.095 -991.408)" fill="#e8c0a6"/>
      <path id="Trazado_999125" data-name="Trazado 999125" d="M1034.75,1123.909l-7,.009a1.6,1.6,0,0,0,.193.608l6.38-.008a.453.453,0,0,0,.427-.609" transform="translate(-921.429 -1007.639)" fill="#ce3932"/>
      <path id="Trazado_999126" data-name="Trazado 999126" d="M950.942,738.965a5.685,5.685,0,0,0,3.222.054l-.453-.594a6.311,6.311,0,0,1-2.794-.272,3.948,3.948,0,0,0,.025.812" transform="translate(-852.532 -661.79)" fill="#163356"/>
      <path id="Trazado_999127" data-name="Trazado 999127" d="M979.856,647.732l-13.413-2.042c2.9-20.538,12.6-21.295,14.177-9.687.465,2.946-.326,10.015-.764,11.729" transform="translate(-866.463 -563.454)" fill="#1d3f70"/>
      <path id="Trazado_999128" data-name="Trazado 999128" d="M1090.394,708.426a17.234,17.234,0,0,0-1.381-6.945l1.5-.192a36.988,36.988,0,0,1-.115,7.137" transform="translate(-976.353 -628.74)" fill="#163356"/>
      <path id="Trazado_999129" data-name="Trazado 999129" d="M953.077,799.043a6.883,6.883,0,0,0,4.675.534,54.691,54.691,0,0,0,3.633-24.263c.2-.312,4.191,10.172-.129,24.322a4.793,4.793,0,0,0,3.707.848c2.625-5.044,8.666-17.2,3.51-33.268-1.7-.663-11.467-1.6-13.516-.61a15.592,15.592,0,0,0-1.192,9.556c1.356,7.311-.012,18.229-.517,21.745h0c-.1.725-.17,1.136-.17,1.136" transform="translate(-854.48 -686.912)" fill="#3a72aa"/>
      <path id="Trazado_999130" data-name="Trazado 999130" d="M1036.4,1080.412c-.367.71-.555,1.083-.555,1.083a4.8,4.8,0,0,1-3.709-.848c.1-.355.213-.692.3-1.039a4.877,4.877,0,0,0,3.959.8" transform="translate(-925.357 -967.921)" fill="#23659b"/>
      <path id="Trazado_999131" data-name="Trazado 999131" d="M968.379,759.515s5.578-1.766,13.514.837a1.58,1.58,0,0,1,.191,1.059s-8.489-1.77-14.064-.569a2.353,2.353,0,0,1,.358-1.327" transform="translate(-867.875 -680.418)" fill="#23659b"/>
      <path id="Trazado_999132" data-name="Trazado 999132" d="M1055.474,630.474c-.8,7.017,5.217,11.88,12.8,7.546h0a4.823,4.823,0,0,0,.688-.556,3.864,3.864,0,0,0-1.407-3.231,9.908,9.908,0,0,1-5.529-.616,57.132,57.132,0,0,0-6.554-3.142" transform="translate(-946.22 -565.251)" fill="#1d3f70"/>
      <path id="Trazado_999133" data-name="Trazado 999133" d="M973.25,523.042c-1.732-.351-4.283.47-5.11,3.728-.67,2.638-3.27,2.217-5.21,5.383-2.028,3.31-.4,6.288,2.527,8,5.39,3.233,14.134-2.638,11.373-9.039-1.167-2.769-.607-7.468-3.58-8.07" transform="translate(-862.504 -468.866)" fill="#8e4a35"/>
      <path id="Trazado_999134" data-name="Trazado 999134" d="M1164.58,666.884a4.6,4.6,0,0,1,1.578,3.7,4.809,4.809,0,0,0,.688-.556,3.864,3.864,0,0,0-1.407-3.231s-.335.052-.859.087" transform="translate(-1044.102 -597.816)" fill="#163356"/>
      <path id="Trazado_999135" data-name="Trazado 999135" d="M953.077,1074.062a6.883,6.883,0,0,0,4.675.534s.124-.342.317-.916a7.76,7.76,0,0,1-4.822-.754c-.1.725-.17,1.136-.17,1.136" transform="translate(-854.48 -961.931)" fill="#23659b"/>
      <path id="Trazado_999136" data-name="Trazado 999136" d="M990.3,856.407l.825.487c2.884-6.936,4.387-17.452,3.633-24.248a6.1,6.1,0,0,1-1.423-2.542c.575,7.082,1.412,14.962-3.035,26.3" transform="translate(-887.851 -744.229)" fill="#23659b"/>
      <rect id="Rectángulo_456395" data-name="Rectángulo 456395" width="10.546" height="15.242" transform="matrix(0.217, -0.976, 0.976, 0.217, 121.247, 61.647)" fill="#eb5648"/>
      <path id="Trazado_999137" data-name="Trazado 999137" d="M1247.5,528.981l.742.165a.256.256,0,0,0,.3-.187l1.32-5.2a.256.256,0,0,0-.193-.313l-1.048-.233a.256.256,0,0,0-.307.2l-1.014,5.272a.257.257,0,0,0,.2.3" transform="translate(-1118.262 -469.076)" fill="#d4e8ff"/>
      <path id="Trazado_999138" data-name="Trazado 999138" d="M1242.237,583.369a.95.95,0,0,0-.413,1.854.95.95,0,0,0,.413-1.854" transform="translate(-1112.715 -522.998)" fill="#d4e8ff"/>
      <path id="Trazado_999139" data-name="Trazado 999139" d="M1220.772,598.862c.573-.038-.115.671-.008,1.09l2.035.453a4.3,4.3,0,0,1-1.829,2.113c-.355.247-1.569-.572-1.569-1,0-.837.931-2.63,1.371-2.659" transform="translate(-1093.252 -536.908)" fill="#f99370"/>
      <path id="Trazado_999140" data-name="Trazado 999140" d="M1780.674,1085.075c-.115.059,1.42.047,1.321.162-3.232,2.795-8.053,3.68-11.631.957v0a11.168,11.168,0,0,1-2.888-3.343l.878-1.424c6.976,4.3,9.737-3.04,15.409-3.612l-1.135,1.658Z" transform="translate(-1584.628 -966.311)" fill="#1d3f70"/>
      <path id="Trazado_999141" data-name="Trazado 999141" d="M1969.917,1555.192l.106-.056c0,.074.092.333.167.333l3.147.065c.074,0,.12-.14.12-.215l.269-.077a1.615,1.615,0,0,0-.247-1.007c-.765-1.017.148-5.565.122-6.754.189-.325-3.314-.07-3.363-.147a.135.135,0,0,0-.134.146l.361,4.8c.141,1.514-.521,1.976-.547,2.906" transform="translate(-1766.126 -1387.24)" fill="#f99370"/>
      <path id="Trazado_999142" data-name="Trazado 999142" d="M1833.589,1555.848h6.269c.547-.022.543-.58.442-1.013-.345-1.56.265-5.143.378-6.747a.5.5,0,0,0-.5-.549h-2.767a.5.5,0,0,0-.495.561l.5,4.012c.273,1.743-1.806,2.075-2.991,2.268-.781.057-2.086,1.122-.844,1.469" transform="translate(-1643.442 -1387.443)" fill="#f99370"/>
      <path id="Trazado_999143" data-name="Trazado 999143" d="M1839.96,1604.752c-.017.307-.169.658-.525.65h-6.5c-1.534-.569.67-2.6,3.673-2.591a8.98,8.98,0,0,0,3.014.121,2.331,2.331,0,0,1,.342,1.82" transform="translate(-1642.863 -1436.998)" fill="#3a72aa"/>
      <path id="Trazado_999144" data-name="Trazado 999144" d="M1972.31,1605.359h-2.78c-1.354-.185-.388-2.553,1.39-2.6,1.919-.046,2.743,2.413,1.39,2.6" transform="translate(-1765.208 -1436.955)" fill="#3a72aa"/>
      <path id="Trazado_999145" data-name="Trazado 999145" d="M1832.606,1621.574h7.484a1.707,1.707,0,0,1-.205.65h-6.823a.483.483,0,0,1-.455-.65" transform="translate(-1642.992 -1453.82)" fill="#23659b"/>
      <path id="Trazado_999146" data-name="Trazado 999146" d="M1972.479,1622.225h-2.78a.616.616,0,0,1-.616-.65h4.012a.616.616,0,0,1-.616.65" transform="translate(-1765.378 -1453.821)" fill="#23659b"/>
      <path id="Trazado_999147" data-name="Trazado 999147" d="M1916.5,987.923a2.4,2.4,0,0,1,1.8-2.393l.963,1Z" transform="translate(-1718.231 -883.576)" fill="#1d3f70"/>
      <path id="Trazado_999148" data-name="Trazado 999148" d="M1874.355,1237.43s-2.964.72-4.492-.053c-.795-4.985-3-18.865-3.77-28.376-.029.554-1.644,22.922-1.951,28.376-1.054.353-3.174.778-4.361-.076-.533-5.742-2.245-24.645.333-40.084,0,0,7.064.786,12.581-.881,1.518,4.9,1.921,35.219,1.659,41.1" transform="translate(-1666.441 -1072.573)" fill="#3a72aa"/>
      <path id="Trazado_999149" data-name="Trazado 999149" d="M1875.061,1320.248c-.724-16.5.938-30.693.688-30.863-.436.035-2.107,14.354-.688,30.863" transform="translate(-1680.581 -1155.997)" fill="#23659b"/>
      <path id="Trazado_999150" data-name="Trazado 999150" d="M1959.4,1301.046c-.288-16.956-2.807-33.017-3.188-33.078-.285.214,2.191,16.089,3.188,33.078" transform="translate(-1753.816 -1136.795)" fill="#23659b"/>
      <path id="Trazado_999151" data-name="Trazado 999151" d="M1920.679,1033.912a14.851,14.851,0,0,1,.244-4.082,1.245,1.245,0,0,1,2.419.582,14.206,14.206,0,0,0-.16,3.593c2.342.7-4.7,3.013-2.5-.094" transform="translate(-1721.595 -922.468)" fill="#f99370"/>
      <path id="Trazado_999152" data-name="Trazado 999152" d="M1926.7,1030.2c-.006.043-.014.087-.024.13a14.038,14.038,0,0,0-.222,2.677,4.346,4.346,0,0,1-2.485.227,14.8,14.8,0,0,1,.318-3.591,1.247,1.247,0,0,1,2.413.557" transform="translate(-1724.927 -922.384)" fill="#e57d61"/>
      <path id="Trazado_999153" data-name="Trazado 999153" d="M1905.386,995.035a5.085,5.085,0,0,1-1.918,2.85h0a2.79,2.79,0,0,1-1.328.37c-2.643.357-5.246-3.241-2.868-5.032a3.311,3.311,0,0,0,.943-1.069c2.119-4.085,6.464-.879,5.171,2.881" transform="translate(-1701.951 -887.807)" fill="#f99370"/>
      <path id="Trazado_999154" data-name="Trazado 999154" d="M1913.154,1036.223l1.566-.507a.842.842,0,0,1-1.566.507" transform="translate(-1715.235 -928.57)" fill="#f9f8f3"/>
      <path id="Trazado_999155" data-name="Trazado 999155" d="M1810.1,1132.229l-1.088,3.992a8.37,8.37,0,0,1-6.989-.769c2.409,1.361,5.7.571,6.225-.228.55-.847,1.776-2.872,1.852-2.995" transform="translate(-1615.603 -1015.099)" fill="#103663"/>
      <path id="Trazado_999156" data-name="Trazado 999156" d="M1952.316,1097.061q-.379.46-.806.923a2.654,2.654,0,0,1-2.475-1.185c4.433-9.4-4.125-10.274-2.415-18.628,5.718.675,13.672,9.209,5.7,18.89" transform="translate(-1745.034 -966.633)" fill="#1d3f70"/>
      <path id="Trazado_999157" data-name="Trazado 999157" d="M1926.726,1021.492a.169.169,0,0,1,.322-.1.169.169,0,0,1-.322.1" transform="translate(-1727.395 -915.622)" fill="#c16256"/>
      <path id="Trazado_999158" data-name="Trazado 999158" d="M1913.512,1017.026a.169.169,0,0,1,.322-.1.169.169,0,0,1-.322.1" transform="translate(-1715.548 -911.618)" fill="#c16256"/>
      <path id="Trazado_999159" data-name="Trazado 999159" d="M1928.055,994.557a5.084,5.084,0,0,1-1.917,2.85h0a2.369,2.369,0,0,1-.254.13,5.727,5.727,0,0,0,1.381-1.9l.036-1.222a2.3,2.3,0,0,1-.239-2.4c-1.872.215-2.3-.988-2.3-.988a2.489,2.489,0,0,1-1.141-.4c2.459-2.647,5.55,1.111,4.433,3.94" transform="translate(-1724.62 -887.329)" fill="#e57d61"/>
      <path id="Trazado_999160" data-name="Trazado 999160" d="M1912.608,1035.9c.035-.04,1.708-.467,1.627-.591.032-.156-1.615.488-1.647.466a.064.064,0,0,0,.02.125" transform="translate(-1714.69 -928.188)" fill="#c16256"/>
      <path id="Trazado_999161" data-name="Trazado 999161" d="M1912.289,1022.465c.11.034.2-.12.061-.132-.225.042-.717-.19-.446-.3.389-.133,1-1.024.641-.865,0,.006-.341.623-.684.744-.47.233.1.555.427.554" transform="translate(-1713.917 -915.509)" fill="#c16256"/>
      <path id="Trazado_999162" data-name="Trazado 999162" d="M1975.011,1249.067q-.379.46-.806.923a2.83,2.83,0,0,1-2.5-1.248c.16-.388.336-.64.472-1.025a5.382,5.382,0,0,0,2.835,1.35" transform="translate(-1767.728 -1118.639)" fill="#103663"/>
      <path id="Trazado_999163" data-name="Trazado 999163" d="M1971.41,1255.352c.3.09.614-.264.208-.367a2.664,2.664,0,0,1-2.81-1.418c-.954-.537.218,1.917,2.6,1.785" transform="translate(-1764.834 -1123.815)" fill="#23659b"/>
      <path id="Trazado_999164" data-name="Trazado 999164" d="M1862.186,1245.191s.432,1.851,3.885,2.764c.989.261,1.56.132,1.705-.553a1.985,1.985,0,0,1,.606-1.166,2.751,2.751,0,0,1,1.064.807c.639,1.038,1.6.095,2.071-.991.58-1.343,2.049-2.482,2.37-3.609Z" transform="translate(-1669.54 -1113.911)" fill="#f4d4be"/>
      <path id="Trazado_999165" data-name="Trazado 999165" d="M1871.841,1094.827c-.112.2-.18.167-.295.052-3.1-2.317-4.212,2.745-7.555,2.836-3.4.337-5.3.529-6.222-.6-1.618-2.508.956-13.718,3.037-16.433a17.078,17.078,0,0,1,3.4-3.4c-.018.073-.481,2,2.5.092.15.063,1.1.987,1.037,1.481.151,2.27,5.537,13.424,4.093,15.974" transform="translate(-1665.124 -965.835)" fill="#1d3f70"/>
      <path id="Trazado_999166" data-name="Trazado 999166" d="M1914.931,971.835a3.1,3.1,0,0,1,1.772.111,1.723,1.723,0,0,1,.653-.9,5.809,5.809,0,0,0,.591,1.18,3.16,3.16,0,0,1,.56-1.408c.128.745,1.157,1.281,1.643,2.087,0,0,2.9.632.786,3.352h0a6.053,6.053,0,0,1-.516,1.795c-1.441-1.316-1.131-2.9-.476-3.309a2.432,2.432,0,0,1-2.811-.857,2.456,2.456,0,0,1-2.2-2.048" transform="translate(-1716.828 -870.384)" fill="#1d3f70"/>
      <path id="Trazado_999167" data-name="Trazado 999167" d="M1956.143,1147.191l-.68-.141c2.719-6.121-.479-8.709-2.171-12.158,3.923,4.539,4.516,7.028,2.851,12.3" transform="translate(-1751.221 -1017.486)" fill="#103663"/>
      <path id="Trazado_999168" data-name="Trazado 999168" d="M1958.669,1032.241c-.45,1.209-1.969.624-1.492-.575.45-1.208,1.969-.623,1.492.575" transform="translate(-1754.622 -924.342)" fill="#f99370"/>
      <path id="Trazado_999169" data-name="Trazado 999169" d="M1963.748,1035.433a.817.817,0,0,0,.151-.914c-.231-.237-.668-.209-.669-.071.059.139.355-.088.568.151.229.18-.229.762-.051.835" transform="translate(-1760.132 -927.338)" fill="#c16256"/>
      <path id="Trazado_999170" data-name="Trazado 999170" d="M1962.132,1038.309c.1-.007.257-.451.741-.422a.064.064,0,0,0,.07-.058c-.315-.319-1.1.486-.811.479" transform="translate(-1759.091 -930.397)" fill="#c16256"/>
      <path id="Trazado_999171" data-name="Trazado 999171" d="M1915.62,1077.308c.016,1.139-2.905,2.144-3.071,2.146l-.35-1.036c-.45.111-.845.74-.845.74-1.3-1.235-.077-2.311.845-2.107h0c-.018.073-.222,1.763,2.493.033.349-.162.929.222.929.222" transform="translate(-1713.115 -965.607)" fill="#f4d4be"/>
      <path id="Trazado_999172" data-name="Trazado 999172" d="M1903.115,1347.143a6.886,6.886,0,0,1-.915.244s1.49-22.2,1.712-25.159,1.155-3.461,1.155-3.461-1.976,27.9-1.951,28.376" transform="translate(-1705.414 -1182.339)" fill="#23659b"/>
      <path id="Trazado_999173" data-name="Trazado 999173" d="M1872.449,1582.656c-.04.64-.062,1.023-.059,1.076-1.054.353-3.175.778-4.361-.076,0,0-.038-.352-.1-1a6.2,6.2,0,0,0,4.519,0" transform="translate(-1674.69 -1418.928)" fill="#23659b"/>
      <path id="Trazado_999174" data-name="Trazado 999174" d="M1969.341,1583.477s-2.964.72-4.491-.054c0,0-.063-.386-.174-1.076a10.913,10.913,0,0,0,4.7-.035c.011.673-.046,1.109-.037,1.165" transform="translate(-1761.427 -1418.62)" fill="#23659b"/>
      <path id="Trazado_999175" data-name="Trazado 999175" d="M1769.161,1113.182a3.291,3.291,0,0,1-1.278,1.624c-.139-.21-.277-.431-.408-.657l.878-1.424c.265.146.558.334.808.457" transform="translate(-1584.627 -997.613)" fill="#103663"/>
      <path id="Trazado_999176" data-name="Trazado 999176" d="M1795.353,1158.732c.036.028.071.055.107.087-.036-.028-.067-.051-.1-.075v0a.012.012,0,0,1,0-.008" transform="translate(-1609.621 -1038.86)" fill="#395b96"/>
      <path id="Trazado_999177" data-name="Trazado 999177" d="M1927.588,1015.19l.018,0a.073.073,0,0,0,.053-.089,1.294,1.294,0,0,0-.906-.8.073.073,0,1,0-.047.139,1.157,1.157,0,0,1,.811.7.073.073,0,0,0,.071.055" transform="translate(-1727.341 -909.364)" fill="#c16256"/>
      <path id="Trazado_999178" data-name="Trazado 999178" d="M1747.586,1104.2s-1.535.036-2-.645-.334-1.841.111-1.908a4.06,4.06,0,0,1,2.769,1.126s0,0,0,.005a2.531,2.531,0,0,1-.878,1.421" transform="translate(-1564.739 -987.661)" fill="#f99370"/>
      <path id="Trazado_999179" data-name="Trazado 999179" d="M1913.683,1011.307a.073.073,0,0,0,.048-.017.729.729,0,0,1,.727-.032.073.073,0,0,0,.067-.131.861.861,0,0,0-.889.051.073.073,0,0,0,.048.129" transform="translate(-1715.644 -906.431)" fill="#c16256"/>
      <path id="Trazado_999180" data-name="Trazado 999180" d="M1727.236,996.534l-3.353-16.733a.063.063,0,0,1,.122-.027l4.027,16.584a.408.408,0,0,1-.793.192l0-.016" transform="translate(-1545.544 -878.372)" fill="#1d3f70"/>
      <path id="Trazado_999181" data-name="Trazado 999181" d="M1744.041,1096.58c-.465-1.653-1.7-1.039-1.721-1.561.086-.381.642-.209.932-.181a5.25,5.25,0,0,1,1.873,1.276c.993,1.059-.741,1.182-1.084.466" transform="translate(-1562.074 -981.519)" fill="#f99370"/>
      <path id="Trazado_999182" data-name="Trazado 999182" d="M1744.382,1116.184c-.846-.043-.691-1.05.066-.565h-.014c.445.015.366.589-.052.565" transform="translate(-1563.411 -1000.09)" fill="#f99370"/>
      <path id="Trazado_999183" data-name="Trazado 999183" d="M1743.589,1110.275c-1-.254-.3-1.185.134-.574-.008-.012.037.023.051.023s.019.006.006,0c.438.1.191.65-.191.548" transform="translate(-1562.755 -994.718)" fill="#f99370"/>
      <path id="Trazado_999184" data-name="Trazado 999184" d="M1742.845,1105.819c-.743-.277-.352-.817.107-.63.743.277.352.817-.107.63" transform="translate(-1562.172 -990.821)" fill="#f99370"/>
      <path id="Trazado_999185" data-name="Trazado 999185" d="M1742.225,1100.913c-.743-.277-.352-.817.107-.63.743.277.353.817-.107.63" transform="translate(-1561.616 -986.423)" fill="#f99370"/>
      <path id="Trazado_999186" data-name="Trazado 999186" d="M262.776,1485.385l-5.466-2.77a5.637,5.637,0,0,0,1.194-2.049,99.59,99.59,0,0,1,5.4-13.722l5.065,1.048L261,1481.1a1.137,1.137,0,0,0,.14,1.44c.815.885,1.992,1.277,2.309,2.352a.468.468,0,0,1-.673.495" transform="translate(-230.691 -1315.097)" fill="#f99370"/>
      <path id="Trazado_999187" data-name="Trazado 999187" d="M257.4,1600.92a1.559,1.559,0,0,0-.1.614l5.549,2.813a.442.442,0,0,0,.639-.33c.091-.7-.2-1.935-2.693-3.365a6.067,6.067,0,0,1-2.3-1.167,3.842,3.842,0,0,0-1.093,1.435" transform="translate(-230.676 -1434.016)" fill="#eb5648"/>
      <path id="Trazado_999188" data-name="Trazado 999188" d="M301.695,1627.888a.126.126,0,0,0,.138-.018,1.337,1.337,0,0,1,.921-.365.126.126,0,0,0,.023-.251,1.584,1.584,0,0,0-1.109.425.127.127,0,0,0,.027.208" transform="translate(-270.421 -1458.911)" fill="#e8c0a6"/>
      <path id="Trazado_999189" data-name="Trazado 999189" d="M293.764,1621.44a.126.126,0,0,0,.146-.026,1.758,1.758,0,0,1,1.123-.5c.527-.392-.727-.322-1.3.326a.127.127,0,0,0,.035.2" transform="translate(-263.31 -1453.011)" fill="#e8c0a6"/>
      <path id="Trazado_999190" data-name="Trazado 999190" d="M284.753,1614.779a.126.126,0,0,0,.143-.023,2.271,2.271,0,0,1,1.174-.58c.481-.447-.739-.228-1.348.4a.127.127,0,0,0,.032.2" transform="translate(-255.232 -1446.977)" fill="#e8c0a6"/>
      <path id="Trazado_999191" data-name="Trazado 999191" d="M263.484,1616.442l-6.089-3.086a1.561,1.561,0,0,0-.1.614l5.549,2.813a.442.442,0,0,0,.641-.34" transform="translate(-230.675 -1446.452)" fill="#ce3932"/>
      <path id="Trazado_999192" data-name="Trazado 999192" d="M409.651,1480.716l-6.217-.017c-.1-.328.245-1.824.146-2.367-2.091-11.542-1.794-15.637-1.829-16.094l5.934-.459-1.638,15.906a1.137,1.137,0,0,0,.772,1.224c1.152.455,2.56.208,3.215,1.223a.415.415,0,0,1-.384.585" transform="translate(-360.189 -1310.556)" fill="#f99370"/>
      <path id="Trazado_999193" data-name="Trazado 999193" d="M416.091,1623.556a1.562,1.562,0,0,0,.185.594l6.221.017a.442.442,0,0,0,.423-.582c-.234-.667-1.051-1.638-3.918-1.8a6.064,6.064,0,0,1-2.579-.007,3.844,3.844,0,0,0-.332,1.774" transform="translate(-373.033 -1454.007)" fill="#eb5648"/>
      <path id="Trazado_999194" data-name="Trazado 999194" d="M463.508,1627.8a1.557,1.557,0,0,1,.694-.788.126.126,0,0,0-.092-.235,1.586,1.586,0,0,0-.8.879.127.127,0,0,0,.2.144" transform="translate(-415.371 -1458.472)" fill="#e8c0a6"/>
      <path id="Trazado_999195" data-name="Trazado 999195" d="M454.046,1624.734a2.014,2.014,0,0,1,.817-1.012.126.126,0,0,0-.116-.224,1.985,1.985,0,0,0-.9,1.1.127.127,0,0,0,.2.134" transform="translate(-406.887 -1455.531)" fill="#e8c0a6"/>
      <path id="Trazado_999196" data-name="Trazado 999196" d="M443.276,1622.814c.289-.836.978-1.072.861-1.275-.171-.2-.733.342-1.061,1.137a.127.127,0,0,0,.2.138" transform="translate(-397.231 -1453.752)" fill="#e8c0a6"/>
      <path id="Trazado_999197" data-name="Trazado 999197" d="M423.047,1638.946l-6.825-.019a1.562,1.562,0,0,0,.185.594l6.221.017a.442.442,0,0,0,.419-.592" transform="translate(-373.163 -1469.378)" fill="#ce3932"/>
      <path id="Trazado_999198" data-name="Trazado 999198" d="M409,1053.013c7.73-1.707,12.279-9.394,12.335-16.967a.858.858,0,0,0-1.615-.391c-2.855,6.367-4.868,10.526-11.906,12.757-3.005.79-1.824,5.363,1.186,4.6" transform="translate(-364.061 -928.106)" fill="#f99370"/>
      <path id="Trazado_999199" data-name="Trazado 999199" d="M282.254,1162.717c-8.911.328-18.2,9.564-6.3,14.467,1.211.456,1.7-.969.723-1.642-6.724-5.4,1.313-7.326,6.121-8.1a2.376,2.376,0,0,0-.541-4.72" transform="translate(-242.351 -1042.423)" fill="#f99370"/>
      <path id="Trazado_999200" data-name="Trazado 999200" d="M268.819,1157.79a1.391,1.391,0,0,0,.172.45c-.045-.074,2.783-.234,3.672.96a2.994,2.994,0,0,0,1.83-1.018,9.024,9.024,0,0,1,3.184-1.781l3.824-7.283c-1.865-.719-13.312,3.229-12.683,8.673" transform="translate(-240.987 -1030.164)" fill="#1d3f70"/>
      <path id="Trazado_999201" data-name="Trazado 999201" d="M319.039,1296.232c-.067.8-.117,1.266-.117,1.266a24.465,24.465,0,0,1-15.388.039c.009-.326,0-.659-.015-1-.176-3.47-1.55-7.747-.94-12.062a19.94,19.94,0,0,1,2.324-7.344l13.019.7c2.04,4.669,1.415,14.84,1.117,18.406" transform="translate(-271.137 -1145.009)" fill="#3a72aa"/>
      <path id="Trazado_999202" data-name="Trazado 999202" d="M532.4,996.065c.339-.067.366.752.592.972a4.922,4.922,0,0,0,.352-1.073c0-.688-.043-1.374-.114-2.059.433-.952.654,1.671.722,1.924h.01a15.547,15.547,0,0,0,.3-2.138c.661-.878.264,2.028.255,2.3l0,0a9.023,9.023,0,0,0,.523-1.991c.745-.826.113,2.1.014,2.354l.006.005a9.206,9.206,0,0,0,.662-1.5c.8-.67-.1,1.78-.218,2.006a6.629,6.629,0,0,1-1.1,2.131c-.233.328-1.285-.073-1.455-.431a4.76,4.76,0,0,1-.282-1.012c-.128-.338-.609-1.245-.278-1.5" transform="translate(-477.221 -890.746)" fill="#f99370"/>
      <path id="Trazado_999203" data-name="Trazado 999203" d="M321.83,1296.2l-.516-.051a53.24,53.24,0,0,0-.217-8.865,26.222,26.222,0,0,1,1.7-11.128l.477.2a25.665,25.665,0,0,0-1.66,10.879,53.705,53.705,0,0,1,.217,8.962" transform="translate(-287.807 -1144.135)" fill="#23659b"/>
      <path id="Trazado_999204" data-name="Trazado 999204" d="M436.21,1301.323l-.514-.07c1.223-9.034-.791-19.487-.812-19.591l.509-.1c.021.105,2.052,10.642.817,19.76" transform="translate(-389.895 -1148.984)" fill="#23659b"/>
      <path id="Trazado_999205" data-name="Trazado 999205" d="M417.812,1303.936l-.517-.032c.43-6.855-.514-19.785-.524-19.914l.517-.038c.01.13.957,13.095.524,19.985" transform="translate(-373.655 -1151.125)" fill="#23659b"/>
      <path id="Trazado_999206" data-name="Trazado 999206" d="M395.051,1303.937l-.518,0c0-.051.01-5.165-.377-9.558a82.645,82.645,0,0,1,0-10.408l.517.034a82.109,82.109,0,0,0,0,10.328c.39,4.417.379,9.554.379,9.605" transform="translate(-353.223 -1151.142)" fill="#23659b"/>
      <path id="Trazado_999207" data-name="Trazado 999207" d="M367.826,1302.771l-.518-.017c0-.048.162-4.9,0-9.564a64.333,64.333,0,0,1,.783-10.53l.512.084a63.765,63.765,0,0,0-.777,10.428c.163,4.679,0,9.551,0,9.6" transform="translate(-329.292 -1149.967)" fill="#23659b"/>
      <path id="Trazado_999208" data-name="Trazado 999208" d="M345.9,1300.145l-.516-.048a60.18,60.18,0,0,0,.071-7.148c-.022-.906-.047-1.931-.068-3.057a39.561,39.561,0,0,1,1.226-9.64l.5.136a38.994,38.994,0,0,0-1.208,9.494c.02,1.124.046,2.149.068,3.054a61.519,61.519,0,0,1-.073,7.209" transform="translate(-309.654 -1147.808)" fill="#23659b"/>
      <rect id="Rectángulo_456396" data-name="Rectángulo 456396" width="2.871" height="2.231" transform="translate(40.5 119.13) rotate(-84.707)" fill="#f99370"/>
      <path id="Trazado_999209" data-name="Trazado 999209" d="M375.969,1054.482c-.222,4.377,6.832,4.385,6.547-.057-.015-.877-.273-1.483-.29-2.881a2.67,2.67,0,0,0-5.3-.515,28.492,28.492,0,0,0-.958,3.453" transform="translate(-337.07 -940.312)" fill="#f99370"/>
      <path id="Trazado_999210" data-name="Trazado 999210" d="M302.576,1205.734a2.6,2.6,0,0,1,.375.336,2.835,2.835,0,0,0,1.83-1.018,8.735,8.735,0,0,1,2.953-1.7l-.65-2.044a15.617,15.617,0,0,0-2.58,3.064c-.855,1.483-1.881,1.366-1.929,1.36" transform="translate(-271.274 -1077.034)" fill="#103663"/>
      <path id="Trazado_999211" data-name="Trazado 999211" d="M326.387,1161.559a27.666,27.666,0,0,0,13.019.7,31.258,31.258,0,0,0-.3-7.72c-1.018-7.624-9.853-9.98-11.347,2.318a14.567,14.567,0,0,1-1.369,4.706" transform="translate(-292.622 -1029.439)" fill="#1d3f70"/>
      <path id="Trazado_999212" data-name="Trazado 999212" d="M413.069,1100.475l3.749,5.887c4.8-1.406,10.509-5.749,9.919-9.514h0a2.1,2.1,0,0,0-.362-.778,4.132,4.132,0,0,1-3.221-1.579c-3.289.746-2.934,5.51-10.084,5.984" transform="translate(-370.336 -981.265)" fill="#1d3f70"/>
      <path id="Trazado_999213" data-name="Trazado 999213" d="M302.5,1037.552s1.68.557-.106,3.246c-1.1,1.663,1.713,4.179-.547,6.435-5.244,6.9-20.22,3.392-12.056-4.017,2.448-1.317,2.342-2.663,3.163-4.355,1.094-2.254,6.057-6.492,9.546-1.31" transform="translate(-257.672 -928.003)" fill="#662948"/>
      <path id="Trazado_999214" data-name="Trazado 999214" d="M269.035,1231.024a1.391,1.391,0,0,0,.172.45c-.045-.074,2.647-.184,3.672.96a2.34,2.34,0,0,0,.721-.195,3.939,3.939,0,0,0-4.565-1.216" transform="translate(-241.203 -1103.397)" fill="#103663"/>
      <path id="Trazado_999215" data-name="Trazado 999215" d="M501.341,1094.862c2.465,2.748,4.536,1.985,4.536,1.985a2.094,2.094,0,0,0-.362-.778,4.133,4.133,0,0,1-3.221-1.579,2.13,2.13,0,0,0-.952.372" transform="translate(-449.477 -981.264)" fill="#103663"/>
      <path id="Trazado_999216" data-name="Trazado 999216" d="M437.343,1199.412a26.382,26.382,0,0,1,1.613,7.105,31.115,31.115,0,0,0-.376-6.089,3.826,3.826,0,0,1-1.237-1.016" transform="translate(-392.099 -1075.331)" fill="#103663"/>
      <path id="Trazado_999217" data-name="Trazado 999217" d="M328.529,1461.777c-.067.8-.117,1.266-.117,1.266a24.465,24.465,0,0,1-15.388.039c.009-.326,0-.659-.015-1h0s8.342,2.449,15.519-.3" transform="translate(-280.628 -1310.554)" fill="#23659b"/>
    </g>
  </g>
</svg>
