<svg xmlns="http://www.w3.org/2000/svg" xmlns:xlink="http://www.w3.org/1999/xlink" width="160" height="160" viewBox="0 0 160 160">
  <defs>
    <clipPath id="clip-path">
      <rect id="Rectángulo_455533" data-name="Rectángulo 455533" width="159.812" height="153.185" fill="#62249e"/>
    </clipPath>
    <clipPath id="clip-path-2">
      <rect id="Rectángulo_456347" data-name="Rectángulo 456347" width="87.949" height="87.778" fill="#fff"/>
    </clipPath>
  </defs>
  <g id="Grupo_1179813" data-name="Grupo 1179813" transform="translate(-383.649 -8398.903)">
    <circle id="Elipse_13674" data-name="Elipse 13674" cx="69" cy="69" r="69" transform="translate(393.649 8410.903)" fill="#62249e"/>
    <g id="Grupo_1179062" data-name="Grupo 1179062" transform="translate(383.649 8398.903)">
      <rect id="Rectángulo_455531" data-name="Rectángulo 455531" width="160" height="160" transform="translate(0 0)" fill="none"/>
      <g id="Grupo_1179061" data-name="Grupo 1179061" transform="translate(0.094 3.9)">
        <path id="Trazado_998445" data-name="Trazado 998445" d="M127.367,99.1H96.727l4.153-7.745h30.64Z" transform="translate(23.418 22.527)" fill="#62249e"/>
        <path id="Trazado_998446" data-name="Trazado 998446" d="M2.518,86.893,0,92.019h33.78L36.3,86.893Z" transform="translate(0 21.46)" fill="#62249e"/>
        <path id="Trazado_998447" data-name="Trazado 998447" d="M131.16,33.711H98.809l2.537-5.745H133.7Z" transform="translate(23.977 6.905)" fill="#62249e"/>
        <path id="Trazado_998448" data-name="Trazado 998448" d="M45.981,13.965H3.483L6.02,8.221h42.5Z" transform="translate(0.935 2.207)" fill="#62249e"/>
        <g id="Grupo_1179060" data-name="Grupo 1179060" transform="translate(0)">
          <g id="Grupo_1179059" data-name="Grupo 1179059" clip-path="url(#clip-path)">
            <path id="Trazado_998449" data-name="Trazado 998449" d="M79.257,132.183A67.757,67.757,0,0,1,13.15,49.237H4.12a76.641,76.641,0,0,0,134.831,63.179H127.129a67.636,67.636,0,0,1-47.872,19.767" transform="translate(0.649 12.195)" fill="#62249e"/>
            <path id="Trazado_998450" data-name="Trazado 998450" d="M110.835,89.888h10.029c.805-1.6,1.537-3.245,2.231-4.908h-9.642c-.81,1.674-1.678,3.314-2.618,4.908" transform="translate(27.546 21.048)" fill="#62249e"/>
            <path id="Trazado_998451" data-name="Trazado 998451" d="M155.215,76.593A76.663,76.663,0,0,0,5.373,53.814h9.3A67.827,67.827,0,1,1,141.5,101.872h9.4a76.209,76.209,0,0,0,4.315-25.279" transform="translate(1.335)" fill="#62249e"/>
            <path id="Trazado_998452" data-name="Trazado 998452" d="M108.562,81.649v4.156h5.456q.989-2.042,1.842-4.156Z" transform="translate(26.981 20.223)" fill="#62249e"/>
            <path id="Trazado_998453" data-name="Trazado 998453" d="M129.825,81.649h-7.576q-.74,2.107-1.594,4.156h9.17Z" transform="translate(29.986 20.223)" fill="#62249e"/>
          </g>
        </g>
        <path id="Trazado_998444" data-name="Trazado 998444" d="M3.8,37.025,0,44.77H23l3.805-7.745Z" transform="translate(0 9.13)" fill="#62249e"/>
      </g>
    </g>
    <g id="Grupo_1177669" data-name="Grupo 1177669" transform="translate(416.649 8431.903)">
      <g id="Grupo_1099618" data-name="Grupo 1099618" transform="translate(-0.29 -0.001)">
        <rect id="Rectángulo_401104" data-name="Rectángulo 401104" width="93.646" height="94.775" transform="translate(0)" fill="none"/>
      </g>
      <g id="Grupo_1179875" data-name="Grupo 1179875" transform="translate(2.71 4.999)">
        <g id="Grupo_1179872" data-name="Grupo 1179872" clip-path="url(#clip-path-2)">
          <path id="Trazado_998996" data-name="Trazado 998996" d="M34.047,3.282A4.509,4.509,0,0,1,37.852,0L84.308.007a4.31,4.31,0,0,1,3.641,3.8l-.007,46.366c-.5,2.793-2.981,4.025-5.675,3.626-.236,3.937.317,8.233.007,12.128-.314,3.961-3.28,6.41-5.473,9.408l2.984,12.438H53.549l3-12.309-3.623-4.677H36.884v3.893c-.519.308-2.306.623-2.616.927-.7.687.882,2.332.937,3.146l-7.273,7.268c-.556.36-2.193-1.445-3.147-.9-.356.2-.846,2.594-1.137,2.664h-10.4c-.272-.065-.757-2.207-.99-2.541-.613-.88-2.8,1.04-3.207.857L1.687,78.75c.051-.817,1.739-2.574.859-3.2C2.19,75.3.058,74.8,0,74.56V64.178c.065-.27,2.428-.746,2.682-1.12.528-.779-.923-2.218-.995-3.07a48.274,48.274,0,0,0,3.991-4.159l0-43.7C5.625,10.8,7.737,8.5,8.961,8.5H34.047c.186-1.582-.251-3.711,0-5.22m2.837.708v7.343H85.106V3.989c0-.588-1.066-1.266-1.675-1.16H38.559a1.644,1.644,0,0,0-1.675,1.16m-2.837,7.343H9.67a1.917,1.917,0,0,0-1.152,1.15v7.343H34.047Zm51.059,2.831H36.884V49.817c0,.523.943,1.206,1.5,1.155h12.58c.395-3.087,3.367-3.458,5.773-2.13V36.812H43c-1.084,0-3.179-2.125-3.238-3.315.2-4.084-.409-8.68-.049-12.7a4.2,4.2,0,0,1,3.988-3.8H78.464a4.337,4.337,0,0,1,3.789,3.473c-.3,4.03.46,8.782.016,12.725-.149,1.328-1.928,3.627-3.28,3.627H65.249v6.016c4.359,1.112,8.892,1.883,13.194,3.2,2.591.793,4,2.014,3.825,4.941.7-.007,1.9.123,2.434-.4a6.361,6.361,0,0,0,.4-.748ZM62.413,19.825h-18.7c-.626,0-1.093.926-1.157,1.5a77.231,77.231,0,0,0,0,11.155c.121,1.087.632,1.415,1.68,1.51l12.509-.009c-.586-3.6,1.991-6.477,5.672-5.486Zm15.867,0H65.249V33.981H78.28c.626,0,1.093-.926,1.157-1.5a77.98,77.98,0,0,0,0-10.983c-.066-.729-.356-1.531-1.162-1.672M34.047,22.657H8.518V53.09c.925-1.248,2.357,1.076,3.5.593.47-.2.915-2.65,1.225-2.725l10.5.032c.285.519.721,2.519,1.133,2.692.922.389,2.518-1.315,3.059-.964l7.273,7.268c-.055.814-1.638,2.459-.937,3.146.31.3,2.1.619,2.616.927v3.892H51.421c.006-.71-.307-1.314-.361-2.028-.294-3.909.232-8.18.006-12.127H37.327c-1.021,0-3.28-2.233-3.28-3.273ZM59.576,32.3V60.876H56.74v-7.52a10.339,10.339,0,0,0-.495-1.1,3,3,0,0,0-2.342-1.29V65.742A10.663,10.663,0,0,0,55,68.718a43.8,43.8,0,0,0,3.994,4.861l14.866.048.708-.178c1.924-2.529,4.552-4.687,4.863-8.063.445-4.83-.317-10.3-.008-15.2-.192-1.222-1.795-1.4-2.826-1.514V60.876H73.759V47.782l-2.837-.531V60.876H68.086V46.367l-2.837-.531v15.04H62.413V32.3a6.393,6.393,0,0,0-.4-.748,1.5,1.5,0,0,0-2.433.748M15.367,53.822c-.409.139-.493,1.506-.916,1.917a19.338,19.338,0,0,1-2.967,1.214c-.491-.074-1.478-.984-1.9-.776L5.229,60.527c-.209.419.7,1.4.777,1.895a25.19,25.19,0,0,1-1.132,2.869c-.4.534-1.859.575-2.006,1.006v6.145c.147.431,1.605.472,2.006,1.006a25.189,25.189,0,0,1,1.132,2.869c-.074.49-.986,1.476-.777,1.895L9.586,82.56c.42.208,1.407-.7,1.9-.776A19.339,19.339,0,0,1,14.452,83c.423.41.506,1.778.916,1.917h6.157c.432-.147.473-1.6,1.008-2a25.25,25.25,0,0,1,2.874-1.129c.491.074,1.478.985,1.9.776l4.358-4.349c.209-.419-.7-1.4-.777-1.895A23.168,23.168,0,0,1,32.1,73.351c.363-.348,1.78-.489,1.926-.909V66.3c-.147-.431-1.605-.472-2.006-1.006a25.19,25.19,0,0,1-1.132-2.869c.074-.49.986-1.475.777-1.895l-4.358-4.349c-.42-.208-1.408.7-1.9.776a25.293,25.293,0,0,1-2.874-1.129c-.535-.4-.576-1.855-1.008-2Zm41.9,31.117H76.064l-1.958-8.485-14.782-.018Z" transform="translate(0 -0.001)" fill="#fff"/>
          <path id="Trazado_998997" data-name="Trazado 998997" d="M67.89,119.145H48.034V107.821H67.89Zm-2.837-8.493H50.871v5.662H65.053Z" transform="translate(-36.68 -82.334)" fill="#fff"/>
          <rect id="Rectángulo_456337" data-name="Rectángulo 456337" width="19.856" height="2.831" transform="translate(11.354 39.642)" fill="#fff"/>
          <rect id="Rectángulo_456338" data-name="Rectángulo 456338" width="19.856" height="2.831" transform="translate(11.354 45.304)" fill="#fff"/>
          <rect id="Rectángulo_456339" data-name="Rectángulo 456339" width="8.51" height="2.831" transform="translate(39.72 56.628)" fill="#fff"/>
          <rect id="Rectángulo_456340" data-name="Rectángulo 456340" width="8.51" height="2.831" transform="translate(39.72 62.29)" fill="#fff"/>
          <rect id="Rectángulo_456341" data-name="Rectángulo 456341" width="2.837" height="2.831" transform="translate(39.72 5.669)" fill="#fff"/>
          <rect id="Rectángulo_456342" data-name="Rectángulo 456342" width="2.837" height="2.831" transform="translate(45.393 5.669)" fill="#fff"/>
          <rect id="Rectángulo_456343" data-name="Rectángulo 456343" width="2.837" height="2.831" transform="translate(51.067 5.669)" fill="#fff"/>
          <path id="Trazado_998998" data-name="Trazado 998998" d="M40.352,245.487c15.455-1.674,17.238,21.112,2.763,22.575-15.209,1.537-17.082-21.023-2.763-22.575m.708,2.832c-11.934,1.02-8.984,19.7,2.99,16.607,9.734-2.513,7.341-17.49-2.99-16.607" transform="translate(-23.361 -187.391)" fill="#fff"/>
          <rect id="Rectángulo_456344" data-name="Rectángulo 456344" width="2.837" height="2.831" transform="translate(11.354 14.162)" fill="#fff"/>
          <rect id="Rectángulo_456345" data-name="Rectángulo 456345" width="2.837" height="2.831" transform="translate(17.028 14.162)" fill="#fff"/>
          <rect id="Rectángulo_456346" data-name="Rectángulo 456346" width="2.837" height="2.831" transform="translate(22.701 14.162)" fill="#fff"/>
          <path id="Trazado_998999" data-name="Trazado 998999" d="M288.754,102.186c.122.1.248.012.366-.112.452-.474,2.663-3.926,2.908-3.948l2.2,1.7-5.382,7.143c-.579-1.187-5.133-6.235-5.208-7.02-.039-.41,1.8-1.479,2.195-1.818Z" transform="translate(-216.587 -74.932)" fill="#fff"/>
          <path id="Trazado_999000" data-name="Trazado 999000" d="M58.742,269.376c7.96-1.249,9.086,10.163,2.22,11.239-7.892,1.237-9.135-10.154-2.22-11.239m.712,2.827c-4.177.612-2.346,7.238,1.705,5.248,2.789-1.37,1.362-5.7-1.705-5.248" transform="translate(-41.406 -205.628)" fill="#fff"/>
        </g>
      </g>
    </g>
  </g>
</svg>
