<svg xmlns="http://www.w3.org/2000/svg" xmlns:xlink="http://www.w3.org/1999/xlink" width="396" height="234" viewBox="0 0 396 234">
  <defs>
    <clipPath id="clip-path">
      <rect id="Rectángulo_456428" data-name="Rectángulo 456428" width="396" height="234" rx="20" transform="translate(289.711 6631.564)" fill="#7a4f1e"/>
    </clipPath>
    <clipPath id="clip-path-2">
      <rect id="Rectángulo_456427" data-name="Rectángulo 456427" width="310.855" height="303.154" fill="none"/>
    </clipPath>
    <clipPath id="clip-path-4">
      <rect id="Rectángulo_456402" data-name="Rectángulo 456402" width="49.486" height="25.267" fill="none"/>
    </clipPath>
    <clipPath id="clip-path-5">
      <rect id="Rectángulo_456420" data-name="Rectángulo 456420" width="37.688" height="14.805" fill="none"/>
    </clipPath>
    <clipPath id="clip-path-6">
      <rect id="Rectángulo_456421" data-name="Rectángulo 456421" width="21.737" height="24.685" fill="none"/>
    </clipPath>
    <clipPath id="clip-path-7">
      <rect id="Rectángulo_456422" data-name="Rectángulo 456422" width="7.657" height="20.01" fill="none"/>
    </clipPath>
    <clipPath id="clip-path-8">
      <rect id="Rectángulo_456423" data-name="Rectángulo 456423" width="17.75" height="17.75" fill="none"/>
    </clipPath>
  </defs>
  <g id="Enmascarar_grupo_1178495" data-name="Enmascarar grupo 1178495" transform="translate(-289.711 -6631.564)" clip-path="url(#clip-path)">
    <g id="Rectángulo_456429" data-name="Rectángulo 456429" transform="translate(269.711 6617)" fill="#7dbfff" stroke="#707070" stroke-width="1">
      <rect width="426" height="272" stroke="none"/>
      <rect x="0.5" y="0.5" width="425" height="271" fill="none"/>
    </g>
    <g id="Grupo_1179897" data-name="Grupo 1179897" transform="translate(336.293 6642.701)">
      <g id="Grupo_1179896" data-name="Grupo 1179896" clip-path="url(#clip-path-2)">
        <g id="Grupo_1179895" data-name="Grupo 1179895">
          <g id="Grupo_1179894" data-name="Grupo 1179894" clip-path="url(#clip-path-2)">
            <path id="Trazado_999219" data-name="Trazado 999219" d="M75.937,43.158C-14.2,124.909,81.019,330.681,229.076,256.171,406.394,166.936,197.712-67.282,75.937,43.158" transform="translate(-10.147 -3.515)" fill="#e6ebff"/>
            <path id="Trazado_999220" data-name="Trazado 999220" d="M340.388,32.507l5.26-1.122V21.776l-5.26-1.122a21.968,21.968,0,0,0-2.056-4.958l2.927-4.514-6.794-6.794-4.514,2.927a21.978,21.978,0,0,0-4.958-2.055L323.872,0h-9.609L313.141,5.26a21.948,21.948,0,0,0-4.958,2.055l-4.514-2.927-6.794,6.794L299.8,15.7a21.969,21.969,0,0,0-2.056,4.958l-5.26,1.122v9.608l5.26,1.122a21.969,21.969,0,0,0,2.056,4.958l-2.927,4.513,6.794,6.795,4.514-2.927a21.983,21.983,0,0,0,4.958,2.055l1.122,5.26h9.609l1.122-5.26a22.013,22.013,0,0,0,4.958-2.055l4.514,2.927,6.794-6.795-2.927-4.513a21.968,21.968,0,0,0,2.056-4.958m-21.321,8.738A14.664,14.664,0,1,1,333.731,26.58a14.664,14.664,0,0,1-14.664,14.664" transform="translate(-72.647 0)" fill="#62249e"/>
            <path id="Trazado_999221" data-name="Trazado 999221" d="M396.252,55.852l3.637-2.005-2.148-7.1-4.139.347a16.98,16.98,0,0,0-2.625-3.206L392.13,39.9l-6.539-3.5-2.68,3.171a16.972,16.972,0,0,0-4.123-.408l-2.005-3.637-7.1,2.149.347,4.138a16.978,16.978,0,0,0-3.206,2.625l-3.989-1.153-3.5,6.539,3.17,2.68a16.972,16.972,0,0,0-.407,4.123l-3.637,2.006,2.148,7.1,4.139-.346a17,17,0,0,0,2.625,3.2L366.22,72.58l6.539,3.5,2.68-3.171a16.972,16.972,0,0,0,4.123.408l2.006,3.636,7.1-2.148-.347-4.138a16.981,16.981,0,0,0,3.206-2.626l3.989,1.153,3.5-6.539-3.17-2.68a16.97,16.97,0,0,0,.407-4.123m-7.1,5.731a11.32,11.32,0,1,1-4.637-15.323,11.321,11.321,0,0,1,4.637,15.323" transform="translate(-89.034 -8.824)" fill="#62249e"/>
            <path id="Trazado_999222" data-name="Trazado 999222" d="M196.935,2.713H161.561a1.832,1.832,0,0,0-1.832,1.832V40.922a1.831,1.831,0,0,0,1.832,1.831h35.374a1.831,1.831,0,0,0,1.832-1.831V4.545a1.832,1.832,0,0,0-1.832-1.832" transform="translate(-39.673 -0.674)" fill="#a9b3ff"/>
            <rect id="Rectángulo_456398" data-name="Rectángulo 456398" width="7.225" height="17.963" transform="translate(124.321 19.55)" fill="#7b85e8"/>
            <rect id="Rectángulo_456399" data-name="Rectángulo 456399" width="7.225" height="25.69" transform="translate(135.962 11.823)" fill="#7b85e8"/>
            <rect id="Rectángulo_456400" data-name="Rectángulo 456400" width="7.225" height="30.909" transform="translate(147.603 6.604)" fill="#7b85e8"/>
            <path id="Trazado_999223" data-name="Trazado 999223" d="M365.607,314.893h-68.4a2.1,2.1,0,0,0-2.1,2.1V328.7a2.1,2.1,0,0,0,2.1,2.1h68.4a2.1,2.1,0,0,0,2.1-2.1V317a2.1,2.1,0,0,0-2.1-2.1" transform="translate(-73.297 -78.213)" fill="#7b85e8"/>
            <path id="Trazado_999224" data-name="Trazado 999224" d="M307.581,322.248l-1.62-2.692-1.62,2.692-3.061.709,2.059,2.373-.272,3.131,2.894-1.226,2.893,1.226-.272-3.131,2.059-2.373Z" transform="translate(-74.831 -79.371)" fill="#6265ce"/>
            <path id="Trazado_999225" data-name="Trazado 999225" d="M325.528,322.248l-1.621-2.692-1.62,2.692-3.061.709,2.059,2.373-.272,3.131,2.893-1.226,2.894,1.226-.272-3.131,2.059-2.373Z" transform="translate(-79.289 -79.371)" fill="#6265ce"/>
            <path id="Trazado_999226" data-name="Trazado 999226" d="M343.476,322.248l-1.62-2.692-1.62,2.692-3.061.709,2.059,2.373-.271,3.131,2.893-1.226,2.893,1.226-.272-3.131,2.059-2.373Z" transform="translate(-83.747 -79.371)" fill="#6265ce"/>
            <path id="Trazado_999227" data-name="Trazado 999227" d="M361.424,322.248l-1.62-2.692-1.621,2.692-3.061.709,2.059,2.373-.272,3.131,2.894-1.226,2.893,1.226-.272-3.131,2.059-2.373Z" transform="translate(-88.205 -79.371)" fill="#6265ce"/>
            <path id="Trazado_999228" data-name="Trazado 999228" d="M382.432,322.957l-3.061-.709-1.62-2.692-1.62,2.692-3.061.709,2.059,2.373-.271,3.13,2.893-1.225,2.893,1.225-.271-3.13Z" transform="translate(-92.663 -79.371)" fill="#6265ce"/>
            <rect id="Rectángulo_456401" data-name="Rectángulo 456401" width="191.643" height="185.115" rx="13.95" transform="translate(110.789 46.449)" fill="#4d52a8"/>
            <path id="Trazado_999229" data-name="Trazado 999229" d="M330.263,68.661H159.59a5.327,5.327,0,0,0-5.327,5.327v149.66a5.327,5.327,0,0,0,5.327,5.328H330.263a5.327,5.327,0,0,0,5.327-5.328V73.988a5.327,5.327,0,0,0-5.327-5.327" transform="translate(-38.316 -17.054)" fill="#fff"/>
            <path id="Trazado_999230" data-name="Trazado 999230" d="M273.4,222.555a13.025,13.025,0,0,0-13.026,13.025h26.05A13.025,13.025,0,0,0,273.4,222.555" transform="translate(-64.671 -55.278)" fill="#4d52a8"/>
            <path id="Trazado_999231" data-name="Trazado 999231" d="M344.413,158.831l-34.8,36.064a34.438,34.438,0,0,1,10.559,24.858h50.119a84.413,84.413,0,0,0-25.878-60.921" transform="translate(-76.901 -39.45)" fill="#ffb552"/>
            <path id="Trazado_999232" data-name="Trazado 999232" d="M165.061,219.752h50.118a34.442,34.442,0,0,1,10.56-24.858l-34.8-36.064a84.41,84.41,0,0,0-25.878,60.921" transform="translate(-40.998 -39.45)" fill="#7b85e8"/>
            <path id="Trazado_999233" data-name="Trazado 999233" d="M258.276,177.362V127.243a84.378,84.378,0,0,0-58.785,23.742l34.8,36.064a34.429,34.429,0,0,1,23.986-9.687" transform="translate(-49.549 -31.604)" fill="#5fc5a9"/>
            <path id="Trazado_999234" data-name="Trazado 999234" d="M277.7,127.243v50.119a34.426,34.426,0,0,1,23.985,9.687l34.8-36.064A84.379,84.379,0,0,0,277.7,127.243" transform="translate(-68.975 -31.604)" fill="#d35d57"/>
            <g id="Grupo_1179881" data-name="Grupo 1179881" transform="translate(159.998 100.405)" opacity="0.5" style="mix-blend-mode: soft-light;isolation: isolate">
              <g id="Grupo_1179880" data-name="Grupo 1179880">
                <g id="Grupo_1179879" data-name="Grupo 1179879" clip-path="url(#clip-path-4)">
                  <path id="Trazado_999235" data-name="Trazado 999235" d="M262.141,137.855c1.783,5.23-7.753,13.214-21.3,17.832s-25.974,4.123-27.757-1.107,7.753-13.214,21.3-17.832,25.974-4.123,27.757,1.107" transform="translate(-212.87 -133.584)" fill="#fff"/>
                </g>
              </g>
            </g>
            <path id="Trazado_999236" data-name="Trazado 999236" d="M274.62,208.327l-22.237-41.834a1.791,1.791,0,0,0-3.321,1.268l11.308,46.008a7.686,7.686,0,1,0,14.251-5.442" transform="translate(-61.848 -41.117)" fill="#162a45"/>
            <path id="Trazado_999237" data-name="Trazado 999237" d="M276.527,223.577a4.483,4.483,0,1,1-5.787-2.589,4.483,4.483,0,0,1,5.787,2.589" transform="translate(-66.53 -54.815)" fill="#fff"/>
            <path id="Trazado_999238" data-name="Trazado 999238" d="M168.4,85.36a.951.951,0,1,1-.951-.951.95.95,0,0,1,.951.951" transform="translate(-41.354 -20.965)" fill="#a9b3ff"/>
            <rect id="Rectángulo_456403" data-name="Rectángulo 456403" width="24.547" height="0.845" transform="translate(143.034 63.972)" fill="#a9b3ff"/>
            <rect id="Rectángulo_456404" data-name="Rectángulo 456404" width="36.616" height="0.845" transform="translate(130.965 69.493)" fill="#a9b3ff"/>
            <rect id="Rectángulo_456405" data-name="Rectángulo 456405" width="36.616" height="0.845" transform="translate(130.965 75.013)" fill="#a9b3ff"/>
            <rect id="Rectángulo_456406" data-name="Rectángulo 456406" width="36.616" height="0.845" transform="translate(130.965 80.534)" fill="#a9b3ff"/>
            <path id="Trazado_999239" data-name="Trazado 999239" d="M325.787,85.36a.95.95,0,1,1-.951-.951.95.95,0,0,1,.951.951" transform="translate(-80.446 -20.965)" fill="#a9b3ff"/>
            <rect id="Rectángulo_456407" data-name="Rectángulo 456407" width="24.546" height="0.845" transform="translate(261.332 63.972)" fill="#a9b3ff"/>
            <rect id="Rectángulo_456408" data-name="Rectángulo 456408" width="36.616" height="0.845" transform="translate(249.263 69.493)" fill="#a9b3ff"/>
            <rect id="Rectángulo_456409" data-name="Rectángulo 456409" width="36.616" height="0.845" transform="translate(249.263 75.013)" fill="#a9b3ff"/>
            <rect id="Rectángulo_456410" data-name="Rectángulo 456410" width="36.616" height="0.845" transform="translate(249.263 80.534)" fill="#a9b3ff"/>
            <path id="Trazado_999240" data-name="Trazado 999240" d="M181.243,256.368a.95.95,0,1,1-.951-.951.95.95,0,0,1,.951.951" transform="translate(-44.545 -63.44)" fill="#a9b3ff"/>
            <rect id="Rectángulo_456411" data-name="Rectángulo 456411" width="24.546" height="0.845" transform="translate(152.69 192.505)" fill="#a9b3ff"/>
            <rect id="Rectángulo_456412" data-name="Rectángulo 456412" width="36.616" height="0.845" transform="translate(140.621 198.026)" fill="#a9b3ff"/>
            <rect id="Rectángulo_456413" data-name="Rectángulo 456413" width="36.616" height="0.845" transform="translate(140.621 203.547)" fill="#a9b3ff"/>
            <path id="Trazado_999241" data-name="Trazado 999241" d="M251.371,256.368a.95.95,0,1,1-.951-.951.95.95,0,0,1,.951.951" transform="translate(-61.963 -63.44)" fill="#a9b3ff"/>
            <rect id="Rectángulo_456414" data-name="Rectángulo 456414" width="24.547" height="0.845" transform="translate(205.399 192.505)" fill="#a9b3ff"/>
            <rect id="Rectángulo_456415" data-name="Rectángulo 456415" width="36.616" height="0.845" transform="translate(193.33 198.026)" fill="#a9b3ff"/>
            <rect id="Rectángulo_456416" data-name="Rectángulo 456416" width="36.616" height="0.845" transform="translate(193.33 203.547)" fill="#a9b3ff"/>
            <path id="Trazado_999242" data-name="Trazado 999242" d="M321.5,256.368a.95.95,0,1,1-.951-.951.95.95,0,0,1,.951.951" transform="translate(-79.381 -63.44)" fill="#a9b3ff"/>
            <rect id="Rectángulo_456417" data-name="Rectángulo 456417" width="24.547" height="0.845" transform="translate(258.108 192.505)" fill="#a9b3ff"/>
            <rect id="Rectángulo_456418" data-name="Rectángulo 456418" width="36.616" height="0.845" transform="translate(246.04 198.026)" fill="#a9b3ff"/>
            <rect id="Rectángulo_456419" data-name="Rectángulo 456419" width="36.616" height="0.845" transform="translate(246.04 203.547)" fill="#a9b3ff"/>
            <path id="Trazado_999243" data-name="Trazado 999243" d="M90.925,29.229H6.172A6.171,6.171,0,0,0,0,35.4V144.474a6.171,6.171,0,0,0,6.172,6.172H90.925a6.171,6.171,0,0,0,6.172-6.172V35.4a6.171,6.171,0,0,0-6.172-6.172" transform="translate(0 -7.26)" fill="#ffb552"/>
            <path id="Trazado_999244" data-name="Trazado 999244" d="M91.134,38.9H10.495a1.372,1.372,0,0,0-1.372,1.372V62.213a1.372,1.372,0,0,0,1.372,1.372H91.134a1.372,1.372,0,0,0,1.372-1.372V40.271A1.372,1.372,0,0,0,91.134,38.9" transform="translate(-2.266 -9.662)" fill="#252a5e"/>
            <path id="Trazado_999245" data-name="Trazado 999245" d="M26.305,85.258H10.134a1.011,1.011,0,0,0-1.011,1.011V94.1a1.011,1.011,0,0,0,1.011,1.011H26.305A1.011,1.011,0,0,0,27.316,94.1V86.269a1.011,1.011,0,0,0-1.011-1.011" transform="translate(-2.266 -21.176)" fill="#5fc5a9"/>
            <path id="Trazado_999246" data-name="Trazado 999246" d="M55.215,85.258H39.044a1.011,1.011,0,0,0-1.011,1.011V94.1a1.011,1.011,0,0,0,1.011,1.011H55.215A1.011,1.011,0,0,0,56.226,94.1V86.269a1.011,1.011,0,0,0-1.011-1.011" transform="translate(-9.447 -21.176)" fill="#6265ce"/>
            <path id="Trazado_999247" data-name="Trazado 999247" d="M84.126,85.258H67.955a1.011,1.011,0,0,0-1.011,1.011V94.1a1.011,1.011,0,0,0,1.011,1.011H84.126A1.011,1.011,0,0,0,85.137,94.1V86.269a1.011,1.011,0,0,0-1.011-1.011" transform="translate(-16.627 -21.176)" fill="#6265ce"/>
            <path id="Trazado_999248" data-name="Trazado 999248" d="M113.037,85.258H96.866a1.011,1.011,0,0,0-1.011,1.011V94.1a1.011,1.011,0,0,0,1.011,1.011h16.171a1.011,1.011,0,0,0,1.011-1.011V86.269a1.011,1.011,0,0,0-1.011-1.011" transform="translate(-23.808 -21.176)" fill="#6265ce"/>
            <path id="Trazado_999249" data-name="Trazado 999249" d="M26.305,104.051H10.134a1.011,1.011,0,0,0-1.011,1.011v7.833a1.011,1.011,0,0,0,1.011,1.011H26.305a1.011,1.011,0,0,0,1.011-1.011v-7.833a1.011,1.011,0,0,0-1.011-1.011" transform="translate(-2.266 -25.844)" fill="#6265ce"/>
            <path id="Trazado_999250" data-name="Trazado 999250" d="M55.215,104.051H39.044a1.011,1.011,0,0,0-1.011,1.011v7.833a1.011,1.011,0,0,0,1.011,1.011H55.215a1.011,1.011,0,0,0,1.011-1.011v-7.833a1.011,1.011,0,0,0-1.011-1.011" transform="translate(-9.447 -25.844)" fill="#6265ce"/>
            <path id="Trazado_999251" data-name="Trazado 999251" d="M84.126,104.051H67.955a1.011,1.011,0,0,0-1.011,1.011v7.833a1.011,1.011,0,0,0,1.011,1.011H84.126a1.011,1.011,0,0,0,1.011-1.011v-7.833a1.011,1.011,0,0,0-1.011-1.011" transform="translate(-16.627 -25.844)" fill="#6265ce"/>
            <path id="Trazado_999252" data-name="Trazado 999252" d="M113.037,104.051H96.866a1.011,1.011,0,0,0-1.011,1.011v7.833a1.011,1.011,0,0,0,1.011,1.011h16.171a1.011,1.011,0,0,0,1.011-1.011v-7.833a1.011,1.011,0,0,0-1.011-1.011" transform="translate(-23.808 -25.844)" fill="#6265ce"/>
            <path id="Trazado_999253" data-name="Trazado 999253" d="M26.305,122.845H10.134a1.011,1.011,0,0,0-1.011,1.011v7.833a1.011,1.011,0,0,0,1.011,1.011H26.305a1.011,1.011,0,0,0,1.011-1.011v-7.833a1.011,1.011,0,0,0-1.011-1.011" transform="translate(-2.266 -30.512)" fill="#fff"/>
            <path id="Trazado_999254" data-name="Trazado 999254" d="M55.215,122.845H39.044a1.011,1.011,0,0,0-1.011,1.011v7.833a1.011,1.011,0,0,0,1.011,1.011H55.215a1.011,1.011,0,0,0,1.011-1.011v-7.833a1.011,1.011,0,0,0-1.011-1.011" transform="translate(-9.447 -30.512)" fill="#fff"/>
            <path id="Trazado_999255" data-name="Trazado 999255" d="M84.126,122.845H67.955a1.011,1.011,0,0,0-1.011,1.011v7.833a1.011,1.011,0,0,0,1.011,1.011H84.126a1.011,1.011,0,0,0,1.011-1.011v-7.833a1.011,1.011,0,0,0-1.011-1.011" transform="translate(-16.627 -30.512)" fill="#fff"/>
            <path id="Trazado_999256" data-name="Trazado 999256" d="M113.037,122.845H96.866a1.011,1.011,0,0,0-1.011,1.011v7.833a1.011,1.011,0,0,0,1.011,1.011h16.171a1.011,1.011,0,0,0,1.011-1.011v-7.833a1.011,1.011,0,0,0-1.011-1.011" transform="translate(-23.808 -30.512)" fill="#6265ce"/>
            <path id="Trazado_999257" data-name="Trazado 999257" d="M26.305,141.638H10.134a1.011,1.011,0,0,0-1.011,1.011v7.833a1.011,1.011,0,0,0,1.011,1.011H26.305a1.011,1.011,0,0,0,1.011-1.011v-7.833a1.011,1.011,0,0,0-1.011-1.011" transform="translate(-2.266 -35.18)" fill="#fff"/>
            <path id="Trazado_999258" data-name="Trazado 999258" d="M55.215,141.638H39.044a1.011,1.011,0,0,0-1.011,1.011v7.833a1.011,1.011,0,0,0,1.011,1.011H55.215a1.011,1.011,0,0,0,1.011-1.011v-7.833a1.011,1.011,0,0,0-1.011-1.011" transform="translate(-9.447 -35.18)" fill="#fff"/>
            <path id="Trazado_999259" data-name="Trazado 999259" d="M84.126,141.638H67.955a1.011,1.011,0,0,0-1.011,1.011v7.833a1.011,1.011,0,0,0,1.011,1.011H84.126a1.011,1.011,0,0,0,1.011-1.011v-7.833a1.011,1.011,0,0,0-1.011-1.011" transform="translate(-16.627 -35.18)" fill="#fff"/>
            <path id="Trazado_999260" data-name="Trazado 999260" d="M26.305,160.432H10.134a1.011,1.011,0,0,0-1.011,1.011v7.833a1.011,1.011,0,0,0,1.011,1.011H26.305a1.011,1.011,0,0,0,1.011-1.011v-7.833a1.011,1.011,0,0,0-1.011-1.011" transform="translate(-2.266 -39.848)" fill="#fff"/>
            <path id="Trazado_999261" data-name="Trazado 999261" d="M55.215,160.432H39.044a1.011,1.011,0,0,0-1.011,1.011v7.833a1.011,1.011,0,0,0,1.011,1.011H55.215a1.011,1.011,0,0,0,1.011-1.011v-7.833a1.011,1.011,0,0,0-1.011-1.011" transform="translate(-9.447 -39.848)" fill="#fff"/>
            <path id="Trazado_999262" data-name="Trazado 999262" d="M84.126,160.432H67.955a1.011,1.011,0,0,0-1.011,1.011v7.833a1.011,1.011,0,0,0,1.011,1.011H84.126a1.011,1.011,0,0,0,1.011-1.011v-7.833a1.011,1.011,0,0,0-1.011-1.011" transform="translate(-16.627 -39.848)" fill="#6265ce"/>
            <path id="Trazado_999263" data-name="Trazado 999263" d="M113.037,141.638H96.866a1.011,1.011,0,0,0-1.011,1.011v21.959a1.011,1.011,0,0,0,1.011,1.01h16.171a1.011,1.011,0,0,0,1.011-1.01V142.649a1.011,1.011,0,0,0-1.011-1.011" transform="translate(-23.808 -35.18)" fill="#d35d57"/>
            <g id="Grupo_1179884" data-name="Grupo 1179884" transform="translate(9.743 65.962)" opacity="0.5" style="mix-blend-mode: soft-light;isolation: isolate">
              <g id="Grupo_1179883" data-name="Grupo 1179883">
                <g id="Grupo_1179882" data-name="Grupo 1179882" clip-path="url(#clip-path-5)">
                  <path id="Trazado_999264" data-name="Trazado 999264" d="M31.807,102.564c-10.407,0-18.844-3.315-18.844-7.4s8.437-7.4,18.844-7.4,18.844,3.315,18.844,7.4-8.437,7.4-18.844,7.4" transform="translate(-12.963 -87.759)" fill="#fff"/>
                </g>
              </g>
            </g>
            <g id="Grupo_1179887" data-name="Grupo 1179887" transform="translate(54.308 29.237)" opacity="0.5" style="mix-blend-mode: soft-light;isolation: isolate">
              <g id="Grupo_1179886" data-name="Grupo 1179886">
                <g id="Grupo_1179885" data-name="Grupo 1179885" clip-path="url(#clip-path-6)">
                  <path id="Trazado_999265" data-name="Trazado 999265" d="M72.255,63.585h3.031L85.983,38.9H82.952Z" transform="translate(-72.255 -38.899)" fill="#fff"/>
                  <path id="Trazado_999266" data-name="Trazado 999266" d="M89.338,38.9l-10.7,24.686h6.24L95.578,38.9Z" transform="translate(-73.841 -38.899)" fill="#fff"/>
                </g>
              </g>
            </g>
            <path id="Trazado_999267" data-name="Trazado 999267" d="M3.285,246.709a33.034,33.034,0,0,1,18.66,2.946c5.688,2.907,10.337,8.116,11.8,14.333a14.968,14.968,0,0,1-.441,8.874,10.481,10.481,0,0,1-6.209,6.149,13.88,13.88,0,0,1-10.611,7.21A12.68,12.68,0,0,1,7.645,284.7c-2.571-1.716-4.059-4.64-5.122-7.544a41.585,41.585,0,0,1,.761-30.444" transform="translate(0 -61.215)" fill="#ffb552"/>
            <path id="Trazado_999268" data-name="Trazado 999268" d="M7.785,250.043a89.205,89.205,0,0,1,28.684,53.083" transform="translate(-1.934 -62.105)" fill="none" stroke="#162a45" stroke-linecap="round" stroke-linejoin="round" stroke-width="0.697"/>
            <path id="Trazado_999269" data-name="Trazado 999269" d="M78.177,245.334a33.037,33.037,0,0,0-18.346,4.5c-5.424,3.373-9.619,8.956-10.559,15.274a14.964,14.964,0,0,0,1.185,8.805,10.483,10.483,0,0,0,6.7,5.606,13.883,13.883,0,0,0,11.18,6.294,12.67,12.67,0,0,0,8.682-2.263c2.419-1.925,3.655-4.964,4.47-7.946a41.583,41.583,0,0,0-3.315-30.273" transform="translate(-12.19 -60.932)" fill="#ffb552"/>
            <path id="Trazado_999270" data-name="Trazado 999270" d="M78.181,248.494a103.272,103.272,0,0,0-25.2,52.491" transform="translate(-13.16 -61.721)" fill="none" stroke="#162a45" stroke-linecap="round" stroke-linejoin="round" stroke-width="0.697"/>
            <path id="Trazado_999271" data-name="Trazado 999271" d="M41.394,260.3c-3.707,1.068-7.837-.54-10.473-3.357a18.932,18.932,0,0,1-4.471-10.475,31.454,31.454,0,0,1,10.909-27.953,35.875,35.875,0,0,1,23.587,21.427c1.372,3.539,2.172,7.428,1.381,11.139a13.808,13.808,0,0,1-7.921,9.643c-3.972,1.7-9.327,1.835-13.011-.425" transform="translate(-6.503 -54.275)" fill="#f78721"/>
            <path id="Trazado_999272" data-name="Trazado 999272" d="M42.518,222.2a525.428,525.428,0,0,1,3.291,69.712" transform="translate(-10.561 -55.19)" fill="none" stroke="#162a45" stroke-linecap="round" stroke-linejoin="round" stroke-width="0.697"/>
            <path id="Trazado_999273" data-name="Trazado 999273" d="M54.233,356.631H32.464l-3.793-45.846H58.026Z" transform="translate(-7.121 -77.192)" fill="#33896e"/>
            <g id="Grupo_1179890" data-name="Grupo 1179890" transform="translate(25.995 240.018)" opacity="0.5" style="mix-blend-mode: soft-light;isolation: isolate">
              <g id="Grupo_1179889" data-name="Grupo 1179889">
                <g id="Grupo_1179888" data-name="Grupo 1179888" clip-path="url(#clip-path-7)">
                  <path id="Trazado_999274" data-name="Trazado 999274" d="M42.2,329.124c.313,5.524-1.129,10.1-3.22,10.217s-4.039-4.264-4.352-9.788,1.129-10.1,3.22-10.217,4.039,4.264,4.352,9.788" transform="translate(-34.585 -319.333)" fill="#fff"/>
                </g>
              </g>
            </g>
            <path id="Trazado_999275" data-name="Trazado 999275" d="M149.2,229.635l-1.5,119.483a4.856,4.856,0,0,1-9.7.22l-6.926-119.291A9.073,9.073,0,1,1,149.188,229c.012.207.016.435.014.64" transform="translate(-32.552 -54.754)" fill="#fab9a7"/>
            <path id="Trazado_999276" data-name="Trazado 999276" d="M137.384,400.1h33.494a6.757,6.757,0,0,0-.222-1.983c-.5-1.976-2.133-4.759-7.239-4.977a42.391,42.391,0,0,1-13.724-2.816,44.03,44.03,0,0,1-10.793,0,15.331,15.331,0,0,0-1.515,9.776" transform="translate(-34.065 -96.949)" fill="#252a5e"/>
            <path id="Trazado_999277" data-name="Trazado 999277" d="M164.165,394.975a6.041,6.041,0,0,1,1.248-2.175.9.9,0,0,1,.5-.307,1.049,1.049,0,0,1,.645.067c.354.183.57.608.3.913a5.935,5.935,0,0,0-.758,1.077,5.28,5.28,0,0,0-.32.779.89.89,0,0,1-1.03.466c-.439-.113-.7-.458-.584-.821" transform="translate(-40.768 -97.481)" fill="#7b85e8"/>
            <path id="Trazado_999278" data-name="Trazado 999278" d="M160.249,394.326a6.039,6.039,0,0,1,1.248-2.175.9.9,0,0,1,.5-.307,1.049,1.049,0,0,1,.645.067c.354.183.57.608.3.913a5.936,5.936,0,0,0-.758,1.077,5.278,5.278,0,0,0-.32.78.89.89,0,0,1-1.03.466c-.439-.114-.7-.458-.584-.821" transform="translate(-39.796 -97.32)" fill="#7b85e8"/>
            <path id="Trazado_999279" data-name="Trazado 999279" d="M156.333,393.675a6.05,6.05,0,0,1,1.247-2.175.9.9,0,0,1,.5-.307,1.049,1.049,0,0,1,.645.067c.354.183.57.608.3.913a5.94,5.94,0,0,0-.758,1.077,5.276,5.276,0,0,0-.32.779.89.89,0,0,1-1.03.466c-.439-.113-.7-.458-.584-.821" transform="translate(-38.823 -97.158)" fill="#7b85e8"/>
            <path id="Trazado_999280" data-name="Trazado 999280" d="M170.883,402.678H137.389a12.083,12.083,0,0,1-.22-1.983h33.492a6.727,6.727,0,0,1,.222,1.983" transform="translate(-34.07 -99.524)" fill="#7b85e8"/>
            <path id="Trazado_999281" data-name="Trazado 999281" d="M117.536,230.885l-16.6,118.985a5.07,5.07,0,0,1-10.076-1.087l9.147-119.789a8.821,8.821,0,0,1,17.59,1.343c-.014.175-.036.375-.059.547" transform="translate(-22.564 -54.853)" fill="#fab9a7"/>
            <path id="Trazado_999282" data-name="Trazado 999282" d="M88.127,400.1h33.494a6.757,6.757,0,0,0-.222-1.983c-.5-1.976-2.133-4.759-7.239-4.977a38.379,38.379,0,0,1-13.339-2.816,47.636,47.636,0,0,1-11.178,0,15.331,15.331,0,0,0-1.515,9.776" transform="translate(-21.831 -96.949)" fill="#252a5e"/>
            <path id="Trazado_999283" data-name="Trazado 999283" d="M114.908,394.975a6.051,6.051,0,0,1,1.248-2.175.9.9,0,0,1,.5-.307,1.048,1.048,0,0,1,.645.067c.354.183.57.608.3.913a5.937,5.937,0,0,0-.758,1.077,5.279,5.279,0,0,0-.32.779.889.889,0,0,1-1.03.466c-.44-.113-.7-.458-.585-.821" transform="translate(-28.534 -97.481)" fill="#7b85e8"/>
            <path id="Trazado_999284" data-name="Trazado 999284" d="M110.992,394.326a6.039,6.039,0,0,1,1.248-2.175.9.9,0,0,1,.5-.307,1.049,1.049,0,0,1,.645.067c.354.183.57.608.3.913a5.937,5.937,0,0,0-.758,1.077,5.278,5.278,0,0,0-.32.78.89.89,0,0,1-1.03.466c-.439-.114-.7-.458-.584-.821" transform="translate(-27.561 -97.32)" fill="#7b85e8"/>
            <path id="Trazado_999285" data-name="Trazado 999285" d="M107.075,393.675a6.05,6.05,0,0,1,1.247-2.175.9.9,0,0,1,.5-.307,1.049,1.049,0,0,1,.645.067c.354.183.57.608.3.913a5.94,5.94,0,0,0-.758,1.077,5.363,5.363,0,0,0-.321.779.888.888,0,0,1-1.03.466c-.439-.113-.7-.458-.584-.821" transform="translate(-26.588 -97.158)" fill="#7b85e8"/>
            <path id="Trazado_999286" data-name="Trazado 999286" d="M121.625,402.678H88.131a12.084,12.084,0,0,1-.22-1.983H121.4a6.726,6.726,0,0,1,.222,1.983" transform="translate(-21.835 -99.524)" fill="#7b85e8"/>
            <path id="Trazado_999287" data-name="Trazado 999287" d="M148.855,214.452l.123,123.794c-5.005,1.778-10.36,1.608-15.971,0l-6.2-125.851Z" transform="translate(-31.496 -52.755)" fill="#383d84"/>
            <path id="Trazado_999288" data-name="Trazado 999288" d="M96.219,213.313l-7.749,124.3a34.716,34.716,0,0,0,15.717,0l16.377-127.773Z" transform="translate(-21.974 -52.119)" fill="#383d84"/>
            <path id="Trazado_999289" data-name="Trazado 999289" d="M127.757,226h0a.132.132,0,0,1-.127-.135l.477-15.541a.131.131,0,0,1,.135-.127.132.132,0,0,1,.127.135l-.477,15.541a.131.131,0,0,1-.131.126" transform="translate(-31.7 -52.208)" fill="#162a45"/>
            <path id="Trazado_999290" data-name="Trazado 999290" d="M129.861,224.264h-2a.131.131,0,1,1,0-.262h1.877l.448-10.509a.131.131,0,0,1,.131-.125h.006a.131.131,0,0,1,.125.136l-.454,10.635a.131.131,0,0,1-.131.125" transform="translate(-31.725 -52.996)" fill="#162a45"/>
            <path id="Trazado_999291" data-name="Trazado 999291" d="M101.018,222.831a5.468,5.468,0,0,1-.667-.042.132.132,0,0,1-.113-.147.128.128,0,0,1,.147-.113,4.432,4.432,0,0,0,3.472-.991c3.23-2.643,3.778-9.522,3.783-9.591a.128.128,0,0,1,.14-.12.131.131,0,0,1,.121.14c-.022.287-.561,7.058-3.878,9.774a4.633,4.633,0,0,1-3,1.09" transform="translate(-24.897 -52.613)" fill="#162a45"/>
            <path id="Trazado_999292" data-name="Trazado 999292" d="M154.171,223.4a.132.132,0,0,1-.086-.032c-.036-.032-3.587-3.2-2.907-10.608a.125.125,0,0,1,.141-.118.13.13,0,0,1,.119.141c-.667,7.268,2.783,10.357,2.819,10.387a.131.131,0,0,1,.013.184.129.129,0,0,1-.1.045" transform="translate(-37.528 -52.816)" fill="#162a45"/>
            <path id="Trazado_999293" data-name="Trazado 999293" d="M203.244,128.022c-1.318.029-3.833,3.378-3.833,3.378s-2.852-5.242-3.974-4.385,1.841,10.054.7,12.4l5.946,4.866c.643-1.17,6.913-4.836,7.763-7.19s-4.589-9.116-6.6-9.072" transform="translate(-48.478 -31.524)" fill="#fab9a7"/>
            <path id="Trazado_999294" data-name="Trazado 999294" d="M169.5,170.841l20.809-29.351a3.708,3.708,0,0,1,6.275,3.932l-17.342,31.524a5.758,5.758,0,1,1-10.09-5.551,5.934,5.934,0,0,1,.348-.555" transform="translate(-41.837 -34.755)" fill="#fab9a7"/>
            <path id="Trazado_999295" data-name="Trazado 999295" d="M165.924,178.068a5.73,5.73,0,0,1-3.443-2.628L142.26,141.122a5.749,5.749,0,1,1,9.906-5.836L172.386,169.6a5.748,5.748,0,0,1-6.462,8.465" transform="translate(-35.136 -32.899)" fill="#fab9a7"/>
            <g id="Grupo_1179893" data-name="Grupo 1179893" transform="translate(139.559 75.936)" style="mix-blend-mode: soft-light;isolation: isolate">
              <g id="Grupo_1179892" data-name="Grupo 1179892">
                <g id="Grupo_1179891" data-name="Grupo 1179891" clip-path="url(#clip-path-8)">
                  <path id="Trazado_999296" data-name="Trazado 999296" d="M203.01,107.223a8.873,8.873,0,1,1-11.139-5.777,8.873,8.873,0,0,1,11.139,5.777" transform="translate(-185.677 -101.029)" fill="#fff"/>
                </g>
              </g>
            </g>
            <rect id="Rectángulo_456424" data-name="Rectángulo 456424" width="1.55" height="2.913" transform="matrix(0.953, -0.302, 0.302, 0.953, 150.724, 94.599)" fill="#6265ce"/>
            <path id="Trazado_999297" data-name="Trazado 999297" d="M200.779,128.621l3.678,11.6a1.283,1.283,0,0,0,2.446-.776l-3.678-11.6Z" transform="translate(-49.869 -31.754)" fill="#d35d57"/>
            <path id="Trazado_999298" data-name="Trazado 999298" d="M203.154,127.953l-2.395.759a.374.374,0,1,1-.226-.713l2.395-.759a.374.374,0,0,1,.226.713" transform="translate(-49.743 -31.599)" fill="#252a5e"/>
            <path id="Trazado_999299" data-name="Trazado 999299" d="M197.192,119.282a10.35,10.35,0,1,1,6.738-12.993,10.361,10.361,0,0,1-6.738,12.993m-5.685-17.935a8.465,8.465,0,1,0,10.627,5.512,8.475,8.475,0,0,0-10.627-5.512" transform="translate(-45.631 -24.606)" fill="#252a5e"/>
            <path id="Trazado_999300" data-name="Trazado 999300" d="M204.837,129.066c-.959-.17-4.249,4.765-4,5.141s4.595-2.668,4.595-2.668-4.005,4.747-3.559,5.159,5.459-2.778,5.459-2.778-4.022,4.319-3.678,4.842,4.954-2.531,4.954-2.531-3.194,3.166-2.757,3.81,4.276-1.575,4.891-2.823-3.031-7.643-5.906-8.152" transform="translate(-49.881 -32.056)" fill="#fab9a7"/>
            <path id="Trazado_999301" data-name="Trazado 999301" d="M205.882,140.174a.309.309,0,0,1-.136-.112c-.359-.528,1.217-2.317,2.174-3.321-1.241.792-3.639,2.256-4.222,2.138a.228.228,0,0,1-.15-.1c-.31-.47,1.976-3.085,3.21-4.438-1.519.945-4.4,2.659-4.934,2.419a.145.145,0,0,1-.041-.027c-.413-.38,1.762-3.135,3.1-4.755-1.2.821-3.581,2.4-4.042,2.316a.178.178,0,0,1-.112-.07c-.153-.229.428-1.215.941-2,.835-1.279,2.44-3.41,3.152-3.284a.093.093,0,0,1,.076.109.094.094,0,0,1-.109.076c-.1-.018-.436.035-1.251.939a14.443,14.443,0,0,0-2.651,4.049c.322.053,2.5-1.311,4.462-2.683a.093.093,0,0,1,.123.013.094.094,0,0,1,0,.124c-1.863,2.209-3.756,4.76-3.566,5.03a.052.052,0,0,0,.018.011c.334.151,2.993-1.315,5.326-2.8a.094.094,0,0,1,.12.143c-1.91,2.051-3.856,4.441-3.669,4.726a.045.045,0,0,0,.03.014c.51.1,3.146-1.481,4.792-2.571a.093.093,0,0,1,.126.019.1.1,0,0,1-.007.126c-1.214,1.2-3.031,3.268-2.745,3.69.05.071.182.078.285.071,1.051-.072,3.929-1.838,4.444-2.883a.094.094,0,0,1,.123-.044l0,0a.094.094,0,0,1,.043.126c-.547,1.112-3.484,2.911-4.6,2.988a.662.662,0,0,1-.317-.041m-4.99-6.045h0Z" transform="translate(-49.851 -32.025)" fill="#ad6253"/>
            <path id="Trazado_999302" data-name="Trazado 999302" d="M145.566,127.945a17.849,17.849,0,0,1,7.266,5.215c1.343,1.919,14.44,25.379,14.44,25.379l8.174-11.035a14.11,14.11,0,0,1,8.522,5.854s-9.787,19.574-10.986,21.589-6.956,5.079-12.138,1.292-19.979-30.989-19.979-30.989l-1.807-10.92Z" transform="translate(-34.539 -31.779)" fill="#162a45"/>
            <path id="Trazado_999303" data-name="Trazado 999303" d="M139.248,147.852l3.077,48.723c-11.461,1.825-27.523,1.562-44.261-.141l2.285-53.52,4.94-17.65,17.346-2.637,12.749,4Z" transform="translate(-24.357 -30.458)" fill="#7b85e8"/>
            <path id="Trazado_999304" data-name="Trazado 999304" d="M111.75,124.676l4.54,40.865L113.1,209.333s-11.571,1.681-18.08,0l6.277-82.375,3.236-1.185Z" transform="translate(-23.601 -30.967)" fill="#162a45"/>
            <path id="Trazado_999305" data-name="Trazado 999305" d="M121.815,108.2l-.847,12.121s6.917,3.446,11.5.763l-.16-9.2Z" transform="translate(-30.046 -26.876)" fill="#fab9a7"/>
            <path id="Trazado_999306" data-name="Trazado 999306" d="M133.475,119.81c-6.08-.516-8.217-3.835-8.217-3.835l8.161.575Z" transform="translate(-31.111 -28.806)" fill="#ad6253"/>
            <path id="Trazado_999307" data-name="Trazado 999307" d="M119.18,123.95l8.7-1.323,5.606,1.758c-1.106,5.763-12.351,6.151-14.307-.435" transform="translate(-29.602 -30.458)" fill="#fab9a7"/>
            <path id="Trazado_999308" data-name="Trazado 999308" d="M118.377,101.217a11.941,11.941,0,0,1-7.051-8.128,1.252,1.252,0,0,1-.957-.483,2.982,2.982,0,0,1-.5-1,8.889,8.889,0,0,1,.7-7.147A3.526,3.526,0,0,1,110,81.38a5.2,5.2,0,0,1,1.795-2.631,6.777,6.777,0,0,1,4.669-1.5,13.277,13.277,0,0,1,1.7-2.607,5.669,5.669,0,0,1,2.695-1.87,3.464,3.464,0,0,1,3.133.561,26.637,26.637,0,0,1,5.464-1.857,9.24,9.24,0,0,1,5.749.648,5.843,5.843,0,0,1,3.273,4.662c2.283,3.125.633,9.2-1.271,11.138-2.94,3-2.705,7.028-6.356,9.008a54.421,54.421,0,0,1-12.468,4.287" transform="translate(-27.178 -17.708)" fill="#162a45"/>
            <path id="Trazado_999309" data-name="Trazado 999309" d="M133,81.257c-11.318-1.4-17.26,4.041-16.3,14.613.762,8.416,5.649,13.652,13.607,13.678,7.329.024,8.519-5.958,8.618-12.233.141-8.947.8-15.224-5.923-16.058" transform="translate(-28.96 -20.128)" fill="#fab9a7"/>
            <path id="Trazado_999310" data-name="Trazado 999310" d="M138.743,86.236a6.92,6.92,0,0,1-5.831-.765,10.261,10.261,0,0,1-10.085.151,4.57,4.57,0,0,1-.506,2.889,2.906,2.906,0,0,1-2.442,1.475,6.569,6.569,0,0,1-3.591,7.344,31,31,0,0,1-1.393-7.779,10.957,10.957,0,0,1,2.542-7.325,10.733,10.733,0,0,1,5.681-3.044,26.884,26.884,0,0,1,6.52-.406,18.971,18.971,0,0,1,4.591.54,7.188,7.188,0,0,1,3.848,2.435,4.7,4.7,0,0,1,.666,4.485" transform="translate(-28.537 -19.559)" fill="#162a45"/>
            <path id="Trazado_999311" data-name="Trazado 999311" d="M144.407,96.64a17.189,17.189,0,0,0-4.581-.17c.955-1.32,3.481-.681,4.581.17" transform="translate(-34.73 -23.773)" fill="#162a45"/>
            <path id="Trazado_999312" data-name="Trazado 999312" d="M127.67,96.64a17.183,17.183,0,0,1,4.58-.17c-.955-1.32-3.482-.681-4.58.17" transform="translate(-31.71 -23.773)" fill="#162a45"/>
            <path id="Trazado_999313" data-name="Trazado 999313" d="M141.007,102.161a.843.843,0,1,0,.825-1.016.935.935,0,0,0-.825,1.016" transform="translate(-35.023 -25.122)" fill="#162a45"/>
            <path id="Trazado_999314" data-name="Trazado 999314" d="M142.1,101.9a.266.266,0,1,0,.259-.327.3.3,0,0,0-.259.327" transform="translate(-35.296 -25.228)" fill="#fff"/>
            <path id="Trazado_999315" data-name="Trazado 999315" d="M130.389,102.161a.843.843,0,1,0,.825-1.016.935.935,0,0,0-.825,1.016" transform="translate(-32.386 -25.122)" fill="#162a45"/>
            <path id="Trazado_999316" data-name="Trazado 999316" d="M131.486,101.9a.266.266,0,1,0,.259-.327.3.3,0,0,0-.259.327" transform="translate(-32.658 -25.228)" fill="#fff"/>
            <path id="Trazado_999317" data-name="Trazado 999317" d="M137.866,106.451a.261.261,0,0,1-.047-.518.9.9,0,0,0,.631-.326.443.443,0,0,0-.005-.383,5.771,5.771,0,0,0-.384-.705,5.647,5.647,0,0,1-.439-.818.261.261,0,0,1,.49-.183,5.485,5.485,0,0,0,.4.732,5.864,5.864,0,0,1,.425.788.946.946,0,0,1-.028.825,1.364,1.364,0,0,1-.992.583.26.26,0,0,1-.048,0" transform="translate(-34.178 -25.669)" fill="#ad6253"/>
            <path id="Trazado_999318" data-name="Trazado 999318" d="M138.723,109.158a28.792,28.792,0,0,1-5.672-.205c1.011,2.257,5.048,1.861,5.672.205" transform="translate(-33.047 -27.062)" fill="#fff"/>
            <path id="Trazado_999319" data-name="Trazado 999319" d="M144.585,103.736a2.252,2.252,0,1,1-2.253-2.253A2.252,2.252,0,0,1,144.585,103.736Z" transform="translate(-34.793 -25.206)" fill="none" stroke="#fff" stroke-miterlimit="10" stroke-width="0.5"/>
            <path id="Trazado_999320" data-name="Trazado 999320" d="M135.716,103.736a2.252,2.252,0,1,1-2.252-2.253A2.252,2.252,0,0,1,135.716,103.736Z" transform="translate(-32.59 -25.206)" fill="none" stroke="#fff" stroke-miterlimit="10" stroke-width="0.5"/>
            <line id="Línea_3253" data-name="Línea 3253" x2="10.26" y2="1.289" transform="translate(88.494 76.482)" fill="none" stroke="#fff" stroke-miterlimit="10" stroke-width="0.5"/>
            <path id="Trazado_999321" data-name="Trazado 999321" d="M137.015,103.2a2.5,2.5,0,0,1,2.471.081" transform="translate(-34.032 -25.56)" fill="none" stroke="#fff" stroke-miterlimit="10" stroke-width="0.5"/>
            <path id="Trazado_999322" data-name="Trazado 999322" d="M117.673,102.069c.671,1.658.189,3.258-1.012,3.744s-2.718-.464-3.388-2.122-.242-3.4.959-3.883,2.77.6,3.441,2.261" transform="translate(-28.056 -24.761)" fill="#fab9a7"/>
            <path id="Trazado_999323" data-name="Trazado 999323" d="M116.8,104.544a.258.258,0,0,1-.088-.015,1.351,1.351,0,0,1-.925-1.143,1.461,1.461,0,0,1,.132-.619,1.2,1.2,0,0,0,.1-.343.769.769,0,0,0-.217-.57.8.8,0,0,0-.65-.276.729.729,0,0,0-.52.753.261.261,0,0,1-.522,0,1.234,1.234,0,0,1,.959-1.269,1.308,1.308,0,0,1,1.11.429,1.291,1.291,0,0,1,.362.965,1.647,1.647,0,0,1-.13.5,1.017,1.017,0,0,0-.1.4.84.84,0,0,0,.58.679.261.261,0,0,1-.088.507" transform="translate(-28.342 -25.098)" fill="#ad6253"/>
            <path id="Trazado_999324" data-name="Trazado 999324" d="M129.795,204.328l-13.929-16.813a1.2,1.2,0,0,0-1.693-.159L91.434,206.194a1.2,1.2,0,0,0-.159,1.693L105.2,224.7a1.2,1.2,0,0,0,1.693.159l22.739-18.838a1.2,1.2,0,0,0,.159-1.693" transform="translate(-22.602 -46.467)" fill="#d35d57"/>
            <rect id="Rectángulo_456425" data-name="Rectángulo 456425" width="26.739" height="20.006" transform="translate(71.7 160.099) rotate(-39.64)" fill="#fff"/>
            <path id="Trazado_999325" data-name="Trazado 999325" d="M134.336,198.9c.407-.628-.008-1.988-1.021-3.212s-2.272-1.883-2.965-1.6l-1.566-1.89-2.879,2.386,7.118,8.592,2.879-2.386Z" transform="translate(-31.272 -47.738)" fill="#383d84"/>
            <path id="Trazado_999326" data-name="Trazado 999326" d="M89.837,173.392l17.281,31.558a3.708,3.708,0,0,1-6.282,3.92L80.083,179.479a5.758,5.758,0,0,1,9.407-6.642,5.977,5.977,0,0,1,.347.555" transform="translate(-19.629 -42.324)" fill="#fab9a7"/>
            <path id="Trazado_999327" data-name="Trazado 999327" d="M80.072,169.71a5.749,5.749,0,0,1-.566-6.117l15.085-29.615a5.749,5.749,0,0,1,10.245,5.219L89.749,168.811a5.752,5.752,0,0,1-9.678.9" transform="translate(-19.592 -32.497)" fill="#fab9a7"/>
            <path id="Trazado_999328" data-name="Trazado 999328" d="M111.291,212.6s10.43-2,11.237-1.263-5.812,3.559-5.812,3.559a42.283,42.283,0,0,1,4.959,7.322c1.342,2.631-6.25,5.324-8.147,4.066-1.541-1.022-4.723-5.706-5.508-7.12-3.116-5.618,3.27-6.564,3.27-6.564" transform="translate(-26.617 -52.45)" fill="#fab9a7"/>
            <path id="Trazado_999329" data-name="Trazado 999329" d="M100.014,126.136l-1.888.256a6.128,6.128,0,0,0-4.659,3.329L77.7,161.216a8.207,8.207,0,0,0,.615,8.381l13.35,19.065c2.792-.93,9.964-5.812,9.964-5.812l-9.091-18.24,14.494-29.918Z" transform="translate(-19.082 -31.329)" fill="#162a45"/>
            <path id="Trazado_999330" data-name="Trazado 999330" d="M139.058,125.23l1.878,39.669-.689,44.169a130.294,130.294,0,0,0,15.343,0l-5.651-62.038-4.372-19.759Z" transform="translate(-34.539 -31.104)" fill="#162a45"/>
            <path id="Trazado_999331" data-name="Trazado 999331" d="M106.816,184.081l-9.091-18.24,7.166-14.793c3.7-8.986,3.365-19.959,3.365-19.959" transform="translate(-24.273 -32.56)" fill="none" stroke="#6265ce" stroke-linecap="round" stroke-linejoin="round" stroke-width="0.227"/>
            <path id="Trazado_999332" data-name="Trazado 999332" d="M95.7,177.013a16.578,16.578,0,0,0-5.064-.8" transform="translate(-22.511 -43.767)" fill="none" stroke="#6265ce" stroke-linecap="round" stroke-linejoin="round" stroke-width="0.227"/>
            <path id="Trazado_999333" data-name="Trazado 999333" d="M148.357,130.838c2.568,9.534,4.072,19.573,4.072,19.573" transform="translate(-36.849 -32.497)" fill="none" stroke="#6265ce" stroke-linecap="round" stroke-linejoin="round" stroke-width="0.227"/>
            <path id="Trazado_999334" data-name="Trazado 999334" d="M151.218,132.465a40.429,40.429,0,0,1-.185,7.207" transform="translate(-37.513 -32.901)" fill="none" stroke="#6265ce" stroke-linecap="round" stroke-linejoin="round" stroke-width="0.227"/>
          </g>
        </g>
      </g>
    </g>
  </g>
</svg>
