<svg xmlns="http://www.w3.org/2000/svg" xmlns:xlink="http://www.w3.org/1999/xlink" width="519.909" height="394.666" viewBox="0 0 519.909 394.666">
  <defs>
    <clipPath id="clip-path">
      <rect id="Rectángulo_464852" data-name="Rectángulo 464852" width="474.941" height="394.665" fill="none"/>
    </clipPath>
  </defs>
  <g id="Grupo_1211873" data-name="Grupo 1211873" transform="translate(-914.331 -4074.231)">
    <g id="Grupo_1209444" data-name="Grupo 1209444" transform="translate(911.968 4075.564)">
      <g id="Grupo_1208498" data-name="Grupo 1208498" transform="translate(2.852 0)">
        <g id="Grupo_1206741" data-name="Grupo 1206741">
          <g id="Grupo_1204235" data-name="Grupo 1204235">
            <rect id="Rectángulo_402012" data-name="Rectángulo 402012" width="519.42" height="393.333" fill="#fff7df"/>
          </g>
        </g>
      </g>
      <g id="Grupo_1211225" data-name="Grupo 1211225" transform="translate(0.25 3.226)">
        <path id="Trazado_1273686" data-name="Trazado 1273686" d="M-21.711,450.02,498.2,59.913V450.02Z" transform="translate(23.824 -59.913)" fill="#ffe79e"/>
        <g id="Grupo_1214912" data-name="Grupo 1214912" transform="translate(31.042 -4.558)">
          <g id="Grupo_1214911" data-name="Grupo 1214911" clip-path="url(#clip-path)">
            <path id="Trazado_1283263" data-name="Trazado 1283263" d="M173.032,282.13c0,4.565-28.061,8.265-62.674,8.265s-62.674-3.7-62.674-8.265,28.061-8.265,62.674-8.265,62.674,3.7,62.674,8.265" transform="translate(18.155 104.27)" fill="#aee4ed"/>
            <path id="Trazado_1283264" data-name="Trazado 1283264" d="M378.921,274.078c0,3.423-28.369,6.2-63.363,6.2s-63.362-2.775-63.362-6.2,28.369-6.2,63.362-6.2,63.363,2.775,63.363,6.2" transform="translate(96.02 101.992)" fill="#aee4ed"/>
            <path id="Trazado_1283265" data-name="Trazado 1283265" d="M19.578,223.668H12.116v-7.461H7.462v7.461H0v4.656H7.462v7.46h4.654v-7.46h7.461Z" transform="translate(0 82.317)" fill="#30c5cc"/>
            <path id="Trazado_1283266" data-name="Trazado 1283266" d="M21.642,212.938a4.612,4.612,0,1,1-4.612-4.614,4.612,4.612,0,0,1,4.612,4.614" transform="translate(4.728 79.316)" fill="#3d9cff"/>
            <path id="Trazado_1283267" data-name="Trazado 1283267" d="M401.878,343.792H50.813a25.594,25.594,0,0,1-25.52-25.519V46.987a25.6,25.6,0,0,1,25.52-25.52H401.878A25.594,25.594,0,0,1,427.4,46.987V318.273a25.594,25.594,0,0,1-25.519,25.519" transform="translate(9.63 8.173)" fill="#30c5cc"/>
            <rect id="Rectángulo_464818" data-name="Rectángulo 464818" width="377.797" height="299.367" rx="12.013" transform="translate(47.076 41.119)" fill="#0b9b9b"/>
            <path id="Trazado_1283268" data-name="Trazado 1283268" d="M388.546,318.1H51.981A10.715,10.715,0,0,1,41.266,307.39V46.764A10.715,10.715,0,0,1,51.981,36.049H388.546A10.714,10.714,0,0,1,399.26,46.764V307.39A10.714,10.714,0,0,1,388.546,318.1" transform="translate(15.711 13.725)" fill="#c6f4ff"/>
            <path id="Trazado_1283269" data-name="Trazado 1283269" d="M7.809,239.875a46.016,46.016,0,0,0,39.3,22.235H418.894a46.016,46.016,0,0,0,39.3-22.235Z" transform="translate(2.973 91.329)" fill="#0b9b9b"/>
            <path id="Trazado_1283270" data-name="Trazado 1283270" d="M12.615,246.4H453.386a46.38,46.38,0,0,0,4.808-6.527H7.809a46.366,46.366,0,0,0,4.806,6.527" transform="translate(2.973 91.329)" fill="#30c5cc"/>
            <rect id="Rectángulo_464819" data-name="Rectángulo 464819" width="100.095" height="56.016" transform="translate(85.122 217.433)" fill="#db5a28"/>
            <rect id="Rectángulo_464820" data-name="Rectángulo 464820" width="37.654" height="5.187" transform="translate(183.029 74.041)" fill="#30c5cc"/>
            <rect id="Rectángulo_464821" data-name="Rectángulo 464821" width="22.986" height="5.187" transform="translate(134.341 74.041)" fill="#30c5cc"/>
            <rect id="Rectángulo_464822" data-name="Rectángulo 464822" width="45.542" height="5.187" transform="translate(81.854 74.041)" fill="#30c5cc"/>
            <rect id="Rectángulo_464823" data-name="Rectángulo 464823" width="9.876" height="5.187" transform="translate(164.524 74.041)" fill="#30c5cc"/>
            <rect id="Rectángulo_464824" data-name="Rectángulo 464824" width="22.908" height="5.187" transform="translate(230.264 74.041)" fill="#30c5cc"/>
            <rect id="Rectángulo_464825" data-name="Rectángulo 464825" width="14.126" height="5.187" transform="translate(183.029 89.193)" fill="#30c5cc"/>
            <rect id="Rectángulo_464826" data-name="Rectángulo 464826" width="14.126" height="5.187" transform="translate(202.772 89.193)" fill="#30c5cc"/>
            <rect id="Rectángulo_464827" data-name="Rectángulo 464827" width="22.986" height="5.187" transform="translate(110.924 89.193)" fill="#30c5cc"/>
            <rect id="Rectángulo_464828" data-name="Rectángulo 464828" width="22.553" height="5.187" transform="translate(81.854 89.193)" fill="#30c5cc"/>
            <rect id="Rectángulo_464829" data-name="Rectángulo 464829" width="37.854" height="5.187" transform="translate(140.219 89.193)" fill="#30c5cc"/>
            <path id="Trazado_1283271" data-name="Trazado 1283271" d="M124.973,291.383c-2.38-7.64-7-39.96-8.034-52.618-.218-2.681-29.672-14.186-29.672-14.186-17.243-.438-26.115,6.325-26.115,6.325l41.4,13.983c0,18.673,15.916,46.833,15.917,46.835l6.5-.338" transform="translate(23.282 85.497)" fill="#2f2f8e"/>
            <path id="Trazado_1283272" data-name="Trazado 1283272" d="M91.421,249.237,79.127,292.055l7.022,1.531c3.061-10.1,20.757-44.715,21.236-48.831.2-1.755.079-3.109-.577-3.659s-20.5-12.41-26.267-13.705c-7.72-1.736-19.185-4.515-19.185-4.515a23.127,23.127,0,0,0-5.2,17.753c1.259,10.995,35.27,8.608,35.27,8.608" transform="translate(21.317 84.857)" fill="#4c49a2"/>
            <path id="Trazado_1283273" data-name="Trazado 1283273" d="M73.634,187.445s-13.475,1.194-14.086,4.867,6.427,26.92,6.427,26.92L59.131,237.5s19.434,4.781,28.9,1.215c.9.411,2.43-19.178,2.43-19.178l3.373-9.625,4.279,14.523,9.795,13.774,6.429-5.2L107.2,220.461s-11.049-25.214-13.983-28.149c-5.509-5.509-19.584-4.867-19.584-4.867" transform="translate(22.513 71.358)" fill="#fff"/>
            <path id="Trazado_1283274" data-name="Trazado 1283274" d="M80.527,191.962l-1.044-13.856h-10.1v12.943c-1.279.142,1.378,10.473,9.517,10.473,0,0,3.8-1.377,1.628-9.56" transform="translate(26.3 67.811)" fill="#e67750"/>
            <path id="Trazado_1283275" data-name="Trazado 1283275" d="M63.839,205.142c1.178,4.178,2.136,7.344,2.136,7.344l-6.843,18.27s14.785,3.638,24.848,2.2c-.9-.659-12.828-8.7-13.414-12.2-1.223-7.347-6.727-15.609-6.727-15.609" transform="translate(22.514 78.105)" fill="#efefef"/>
            <path id="Trazado_1283276" data-name="Trazado 1283276" d="M91.127,169.056c-.855-3.547-6.389-4.574-15.136-3.546-5.948.7-7.286,6.175-7.452,10.244-.09.022-.178.032-.268.059a4.838,4.838,0,0,0-3.4,4.8,4.72,4.72,0,0,0,1.181,2.948,4.941,4.941,0,0,0,3.6,2.3,4.633,4.633,0,0,0,1.245-.025c2.476,5.154,7.02,11.579,13.4,10.813,9.346-6.535,6.84-27.588,6.84-27.588" transform="translate(24.695 62.871)" fill="#fd9e71"/>
            <path id="Trazado_1283277" data-name="Trazado 1283277" d="M71.064,179.5a6.781,6.781,0,0,1,2.426-7.906c4.359-3.272,4.653,1.557,9.248,2.15s9.129.22,8.635,3.256c2.782-6.861-1.24-10.786-5.736-12.936s-11.535-3.078-16.425,1-4.228,13.882-4.228,13.882c3.223-1.559,4.088-.3,6.079.552" transform="translate(24.73 61.766)" fill="#201251"/>
            <path id="Trazado_1283278" data-name="Trazado 1283278" d="M74.864,166.664s-4.059-10.905-11.75-8.2-4.222,18.2-5.071,24.942-5.68,7.039-7.415,4.041c-3.216,6.111,9.383,12.324,13.486,6.449s1.738-20.762,4.36-22.28,5.265.454,5.265.454Z" transform="translate(19.078 60.168)" fill="#201251"/>
            <path id="Trazado_1283279" data-name="Trazado 1283279" d="M62.187,190.345C58.951,192.212,53,214.511,53,218.183s28.675,21.962,28.675,21.962,1.323-4.514,4.384-5.432c-.612-.307-21.426-20.2-21.426-20.2l5.509-15.6s0-13.161-7.959-8.57" transform="translate(20.181 72.101)" fill="#fff"/>
            <path id="Trazado_1283280" data-name="Trazado 1283280" d="M72.183,228.428l29.229-.9,18.978,7.04-32.127,1.7Z" transform="translate(27.483 86.63)" fill="#30c5cc"/>
            <path id="Trazado_1283281" data-name="Trazado 1283281" d="M88.263,236.029,72.183,229.8v-1.62l17.352,6.259Z" transform="translate(27.483 86.877)" fill="#0b9b9b"/>
            <path id="Trazado_1283282" data-name="Trazado 1283282" d="M83.829,241.138l9.661-26.376,31.954,1.714-9.488,23.571Z" transform="translate(31.917 81.768)" fill="#0b9b9b"/>
            <path id="Trazado_1283283" data-name="Trazado 1283283" d="M98.2,223.889c-.95,1.9-.663,3.968.641,4.621s3.133-.359,4.083-2.258.664-3.97-.641-4.623-3.133.359-4.083,2.259" transform="translate(37.174 84.307)" fill="#30c5cc"/>
            <path id="Trazado_1283284" data-name="Trazado 1283284" d="M78.156,222.211s11.631,9.183,10.408,9.795-6.429.613-9.183-.918-5.609-3.444-5.609-3.444,1.016-5.127,4.384-5.433" transform="translate(28.088 84.604)" fill="#fd9e71"/>
            <path id="Trazado_1283285" data-name="Trazado 1283285" d="M80.915,272.577c2.064,2.092,9.089,5.265,12.55,6.122,3.711.92,3.061,4.034.349,4.034-5.323,0-17.164-.668-23-.668-.918-2.755.664-6.437,2.521-8.92.566-.757,7.283-.867,7.58-.569" transform="translate(26.859 103.722)" fill="#201251"/>
            <path id="Trazado_1283286" data-name="Trazado 1283286" d="M111.287,272.577c2.064,2.092,9.089,5.265,12.55,6.122,3.711.92,3.061,4.034.349,4.034-5.323,0-17.164-.668-23-.668-.918-2.755.664-6.437,2.521-8.92.566-.757,7.283-.867,7.58-.569" transform="translate(38.423 103.722)" fill="#201251"/>
            <rect id="Rectángulo_464830" data-name="Rectángulo 464830" width="28.069" height="7.733" transform="translate(85.664 195.66)" fill="#31d0a8"/>
            <rect id="Rectángulo_464831" data-name="Rectángulo 464831" width="28.069" height="7.733" transform="translate(157.148 195.66)" fill="#31d0a8"/>
            <rect id="Rectángulo_464832" data-name="Rectángulo 464832" width="28.069" height="7.733" transform="translate(121.407 195.66)" fill="#31d0a8"/>
            <rect id="Rectángulo_464833" data-name="Rectángulo 464833" width="91.577" height="34.116" transform="translate(179.97 68.293) rotate(-13.777)" fill="#feba40"/>
            <rect id="Rectángulo_464834" data-name="Rectángulo 464834" width="67.454" height="4.717" transform="matrix(0.971, -0.238, 0.238, 0.971, 185.772, 71.635)" fill="#fedb9b"/>
            <rect id="Rectángulo_464835" data-name="Rectángulo 464835" width="56.364" height="4.717" transform="matrix(0.971, -0.238, 0.238, 0.971, 187.769, 79.776)" fill="#fedb9b"/>
            <rect id="Rectángulo_464836" data-name="Rectángulo 464836" width="26.742" height="4.717" transform="matrix(0.971, -0.238, 0.238, 0.971, 189.955, 88.695)" fill="#fedb9b"/>
            <rect id="Rectángulo_464837" data-name="Rectángulo 464837" width="14.323" height="4.714" transform="translate(245.239 65.81) rotate(-13.775)" fill="#fff"/>
            <rect id="Rectángulo_464838" data-name="Rectángulo 464838" width="99.893" height="81.515" transform="translate(84.606 105.619)" fill="#fff"/>
            <rect id="Rectángulo_464839" data-name="Rectángulo 464839" width="196.454" height="36.761" transform="translate(191.979 152.633)" fill="#4cb0dd"/>
            <rect id="Rectángulo_464840" data-name="Rectángulo 464840" width="53.164" height="26.121" transform="translate(329.39 157.953)" fill="#fff"/>
            <rect id="Rectángulo_464841" data-name="Rectángulo 464841" width="122.881" height="5.038" transform="translate(199.163 159.537)" fill="#75d5ef"/>
            <rect id="Rectángulo_464842" data-name="Rectángulo 464842" width="122.881" height="5.038" transform="translate(199.163 168.494)" fill="#75d5ef"/>
            <rect id="Rectángulo_464843" data-name="Rectángulo 464843" width="82.73" height="5.038" transform="translate(199.162 177.452)" fill="#75d5ef"/>
            <rect id="Rectángulo_464844" data-name="Rectángulo 464844" width="188.792" height="88.581" transform="translate(192.023 215.653)" fill="#fff"/>
            <rect id="Rectángulo_464845" data-name="Rectángulo 464845" width="188.792" height="14.687" transform="translate(192.023 215.653)" fill="#fdbe44"/>
            <rect id="Rectángulo_464846" data-name="Rectángulo 464846" width="109.015" height="7.477" transform="translate(196.603 251.224)" fill="#98dbe5"/>
            <rect id="Rectángulo_464847" data-name="Rectángulo 464847" width="97.763" height="7.477" transform="translate(196.603 264.517)" fill="#98dbe5"/>
            <rect id="Rectángulo_464848" data-name="Rectángulo 464848" width="65.936" height="7.477" transform="translate(196.603 277.81)" fill="#98dbe5"/>
            <rect id="Rectángulo_464849" data-name="Rectángulo 464849" width="39.296" height="7.477" transform="translate(196.603 238.978)" fill="#98dbe5"/>
            <rect id="Rectángulo_464850" data-name="Rectángulo 464850" width="57.02" height="57.02" transform="translate(316.235 238.613)" fill="#86d2e8"/>
            <path id="Trazado_1283287" data-name="Trazado 1283287" d="M260.236,197.589a7.218,7.218,0,0,0,1.432-4.316v-4.358a7.261,7.261,0,0,0-14.523,0v4.358a7.221,7.221,0,0,0,1.571,4.5,17.133,17.133,0,0,0-11.439,16.157h35.912s-1.39-12.991-12.953-16.344" transform="translate(90.34 69.162)" fill="#f6fffa"/>
            <path id="Trazado_1283288" data-name="Trazado 1283288" d="M150.865,162.795a3.705,3.705,0,1,1-3.706-3.706,3.706,3.706,0,0,1,3.706,3.706" transform="translate(54.618 60.571)" fill="#db5a28"/>
            <path id="Trazado_1283289" data-name="Trazado 1283289" d="M159.465,162.795a3.705,3.705,0,1,1-3.706-3.706,3.707,3.707,0,0,1,3.706,3.706" transform="translate(57.893 60.571)" fill="#ffe780"/>
            <path id="Trazado_1283290" data-name="Trazado 1283290" d="M169.441,162.795a3.705,3.705,0,1,1-3.706-3.706,3.706,3.706,0,0,1,3.706,3.706" transform="translate(61.691 60.571)" fill="#1fb288"/>
            <rect id="Rectángulo_464851" data-name="Rectángulo 464851" width="66.118" height="66.118" transform="translate(316.535 70.505)" fill="#db5a28"/>
            <path id="Trazado_1283291" data-name="Trazado 1283291" d="M301.486,263.877s.57,1.74-4.764,4.174-10.966,1.574-12.346,3.618a11.2,11.2,0,0,0-1.7,3.981h30.347s-.231-8.38-3.666-12.1c.438.8-7.867.327-7.867.327" transform="translate(107.623 100.343)" fill="#9e472d"/>
            <path id="Trazado_1283292" data-name="Trazado 1283292" d="M325.224,263.864s.547,1.672-4.581,4.012-10.542,1.515-11.872,3.479a10.735,10.735,0,0,0-1.638,3.827h29.178s-.221-8.057-3.524-11.633c.42.769-7.564.313-7.564.313" transform="translate(116.937 100.343)" fill="#9e472d"/>
            <path id="Trazado_1283293" data-name="Trazado 1283293" d="M302.315,156.828,280.281,160.7l-15.5-33.172,23.728-1.937Z" transform="translate(100.813 47.818)" fill="#fff"/>
            <path id="Trazado_1283294" data-name="Trazado 1283294" d="M272.055,145.787a.026.026,0,0,1,.018,0c-.076.033-.087.036-.018,0" transform="translate(103.564 55.505)" fill="#262845"/>
            <path id="Trazado_1283295" data-name="Trazado 1283295" d="M303.815,103.824s-2.905,5.812-2.905,11.138c0,3.722.472,9.1.758,12a1.675,1.675,0,0,0,2.159,1.439l4.347-1.337-.243,6.295,12.124-.21L322.7,107.7s-10.169-11.138-18.886-3.874" transform="translate(114.567 38.593)" fill="#fd9e71"/>
            <path id="Trazado_1283296" data-name="Trazado 1283296" d="M304.9,117.983s.682-5.041,4.483-4-.555,6.129-.555,6.129l3.631,6.538a11.158,11.158,0,0,0,8.475-.243s4.036-12.268,4.036-16.142-3.532-6.489-3.532-6.489-9.464-4.729-14.547-4.487-5.57,5.328-5.57,5.328-1.937,3.873,0,5.569,3.579,7.8,3.579,7.8" transform="translate(114.396 37.8)" fill="#201251"/>
            <path id="Trazado_1283297" data-name="Trazado 1283297" d="M318.779,121.856l-.547,3.5-12.529.048s2.422-3.874,13.076-3.551" transform="translate(116.392 46.388)" fill="#6aa5cc"/>
            <path id="Trazado_1283298" data-name="Trazado 1283298" d="M279.047,147.407s.877-2.746-2.663-4.358c.091-.645-.708-3.859-1.453-4.6s-1.211,3.39-1.211,3.39-3.467-6.175-4.359-4.6,7.83,13.72,8.072,14.205,1.614-4.036,1.614-4.036" transform="translate(102.531 52.154)" fill="#fd9e71"/>
            <path id="Trazado_1283299" data-name="Trazado 1283299" d="M302.289,173.542,293.9,244.567l1.7,55.055,10.565-.755s2.986-28.957,3.228-36.221-1.937-18.4-1.937-18.4l10.654-43.906,1.771.323.489,43.26,9.705,54.946,8.881.428s.22-28.335-.507-35.358-4.521-21.064-4.521-21.064l3.874-44.8a34.567,34.567,0,0,0-3.067-25.02c-.888.081-32.446.485-32.446.485" transform="translate(111.897 65.889)" fill="#201251"/>
            <path id="Trazado_1283300" data-name="Trazado 1283300" d="M317.81,124.436s-15.011,4.842-17.756,7.587-10.614,31.028-10.614,31.028l-11.86-11.884-3.676,8.62s13.882,20.663,18.24,21.307,14.2-26.15,14.2-26.15.895,14.636,2.583,21.952a45.779,45.779,0,0,1,.968,15.174c13.433,2.438,24.86,1.937,32.446-.485l3.76-28.2s5.118.6,6.732-1.178-5.81-30.993-7.426-33.254-15.075-4.567-15.075-4.567Z" transform="translate(104.285 47.359)" fill="#96c4ea"/>
            <path id="Trazado_1283301" data-name="Trazado 1283301" d="M317.085,138.566c-.08-.573-1.027-.434-1.005.135a183.921,183.921,0,0,1-1.867,35.983c-.127.8,1.072,1.174,1.251.344a104.688,104.688,0,0,0,1.621-36.462" transform="translate(119.628 52.617)" fill="#6aa5cc"/>
            <path id="Trazado_1283302" data-name="Trazado 1283302" d="M327.654,145.048c-.081-.406-.7-.3-.7.1a120.151,120.151,0,0,1-2.351,20.834c-1.194,6.186-2.289,12.381-1.887,18.706.057.885,1.426.9,1.389,0-.307-7.305,1.179-14.361,2.509-21.5,1.1-5.932,2.242-12.13,1.045-18.132" transform="translate(122.836 55.127)" fill="#6aa5cc"/>
            <path id="Trazado_1283303" data-name="Trazado 1283303" d="M302.819,144.834c-4.03,2.561-5.544,7.576-7.087,11.843-2.088,5.771-4.174,11.442-8.719,15.774-.678.645.333,1.64,1.02,1.022,8.393-7.555,7.995-19.906,15.152-28.164.213-.246-.061-.668-.366-.474" transform="translate(109.19 55.124)" fill="#6aa5cc"/>
            <path id="Trazado_1283304" data-name="Trazado 1283304" d="M332.581,171.894s-20.338,2.582-32.607-1.291c.323,0,0,3.873,0,3.873a61.643,61.643,0,0,0,33.577,1.292c-.144-.057-.969-3.874-.969-3.874" transform="translate(114.211 64.955)" fill="#9e472d"/>
            <path id="Trazado_1283305" data-name="Trazado 1283305" d="M176.02,231.411s-1.683,3.673-4.591,4.286-10.561,2.295-11.786,3.366-1.223,3.827-1.223,3.827h24.29s-.044-7.355-1.454-11.177c.58,0-5.236-.3-5.236-.3" transform="translate(60.316 88.106)" fill="#1a133a"/>
            <path id="Trazado_1283306" data-name="Trazado 1283306" d="M209.939,231.411s-1.683,3.673-4.591,4.286-10.561,2.295-11.786,3.366-1.223,3.827-1.223,3.827h24.29s-.044-7.355-1.454-11.177c.58,0-5.236-.3-5.236-.3" transform="translate(73.23 88.106)" fill="#1a133a"/>
            <path id="Trazado_1283307" data-name="Trazado 1283307" d="M204.91,61.391s-6.766-1.726-7.174-.649,10.458,4.291,10.458,4.291l9.785,27.133-3.663,8.681,6.734,7.347s7.347-9.948,7.96-12.856S211.561,63.2,211.561,63.2s-3.584-11.39-4.133-11.938-7.018-.2-8.483-.178,4.265,5.825,4.265,5.825Z" transform="translate(75.281 19.399)" fill="#e79673"/>
            <path id="Trazado_1283308" data-name="Trazado 1283308" d="M185.016,74.342a24.81,24.81,0,0,0-3.913,9.346,31.475,31.475,0,0,0,.231,9.414l5.916-.2v5.535h11.76a61.775,61.775,0,0,1,.689-6.488c.46-2.3,3.673-6.658,3.673-6.658l-5.28-14.922-7.576-.689Z" transform="translate(68.855 26.532)" fill="#e79673"/>
            <path id="Trazado_1283309" data-name="Trazado 1283309" d="M186.98,83.039s2.066-4.822,4.591-2.984-.688,5.738-.688,5.738,1.606,6.658,4.362,7.576l2.755.918s7.116-6.658,8.265-8.494-1.836-12.4-3.9-14.692-11.02-2.067-11.709-3.214-2.984-3.214-5.28-2.3-1.836,8.494-1.836,8.494,2.839,2.444,3.027,4.207a8.641,8.641,0,0,1-1.127,4.1Z" transform="translate(69.865 24.886)" fill="#201251"/>
            <path id="Trazado_1283310" data-name="Trazado 1283310" d="M183.083,92.656s11.735-1.713,18.469-1.867S219,94.157,219,94.157l7.8-8.348,9.932,9.334s-8.454,12.478-11.178,15.388-4.714,16.532-5.327,20.664-2.142,28.315-2.142,28.315-7.194,8.57-36.733-.766c-.305-.305,1.225-17.753,1.071-22.039s-3.979-18.825-4.744-22.344-12.969-10.565-12.969-10.565-1.506-8.574,4.124-12.7c.733.463,14.252,1.564,14.252,1.564" transform="translate(62.64 32.671)" fill="#201251"/>
            <path id="Trazado_1283311" data-name="Trazado 1283311" d="M162.6,68.623s-4.439,4.133-4.744,5.816,6.107,20.86,6.107,20.86l11.678,6.837-4.123,12.7s-12.744-8.873-14.581-11.475-5.051-28.62-5.051-28.62-4.133-5.2-4.439-6.582-1.269-5.882-.558-6.767,5.447-5.785,6.14-4.33,3.242,12.057,3.242,12.057,5.256-2.336,6.328-.5" transform="translate(55.829 21.625)" fill="#e79673"/>
            <path id="Trazado_1283312" data-name="Trazado 1283312" d="M179.494,138.77l-6.658,62.75L169.393,268.1l11.479.458s7.118-44.173,7.232-50.9-.116-14.76-.116-14.76l7.347-33.519h4.131l8.5,43.62,8.723,54.18,9.183.458s1.377-33.748,0-40.635-3.445-13.545-3.445-13.545l-4.131-45.226s3.673-16.07-2.067-28.7c-1.147-2.295-36.732-.765-36.732-.765" transform="translate(64.494 52.644)" fill="#4c49a2"/>
            <path id="Trazado_1283313" data-name="Trazado 1283313" d="M131.312,88.988H123.85V81.527H119.2v7.461h-7.461v4.656H119.2v7.46h4.654v-7.46h7.461Z" transform="translate(42.541 31.04)" fill="#fdbe44"/>
            <path id="Trazado_1283314" data-name="Trazado 1283314" d="M78.835,135.064A11.665,11.665,0,1,1,90.5,123.4a11.681,11.681,0,0,1-11.664,11.666m0-17.243a5.577,5.577,0,1,0,5.577,5.577,5.584,5.584,0,0,0-5.577-5.577" transform="translate(25.573 42.541)" fill="#30c5cc"/>
            <path id="Trazado_1283315" data-name="Trazado 1283315" d="M340.812,53.074h-7.46V45.613H328.7v7.461h-7.461V57.73H328.7v7.46h4.656V57.73h7.46Z" transform="translate(122.306 17.366)" fill="#30c5cc"/>
            <path id="Trazado_1283316" data-name="Trazado 1283316" d="M310.953,15.408a4.612,4.612,0,1,1-4.612-4.614,4.612,4.612,0,0,1,4.612,4.614" transform="translate(114.879 4.11)" fill="#3d9cff"/>
            <path id="Trazado_1283317" data-name="Trazado 1283317" d="M246.435,79.2A11.665,11.665,0,1,1,258.1,67.531,11.681,11.681,0,0,1,246.435,79.2m0-17.243a5.577,5.577,0,1,0,5.577,5.577,5.584,5.584,0,0,0-5.577-5.577" transform="translate(89.384 21.271)" fill="#feba40"/>
            <path id="Trazado_1283318" data-name="Trazado 1283318" d="M291.328,23.33a11.665,11.665,0,1,1,11.665-11.666A11.681,11.681,0,0,1,291.328,23.33m0-17.243a5.577,5.577,0,1,0,5.577,5.577,5.584,5.584,0,0,0-5.577-5.577" transform="translate(106.476)" fill="#feba40"/>
          </g>
        </g>
      </g>
    </g>
  </g>
</svg>
