<svg xmlns="http://www.w3.org/2000/svg" width="69.323" height="69.323" viewBox="0 0 69.323 69.323">
  <g id="Grupo_1180404" data-name="Grupo 1180404" transform="translate(-611.71 -3054)">
    <g id="Grupo_1179949" data-name="Grupo 1179949" transform="translate(307.033)">
      <path id="Trazado_998855" data-name="Trazado 998855" d="M0,0H69.323V69.323H0Z" transform="translate(304.677 3054)" fill="#62249e"/>
    </g>
    <g id="resultados-de-la-prueba" transform="translate(573.478 3067)">
      <path id="Trazado_1000668" data-name="Trazado 1000668" d="M88.244,32.133H81.29v1.426a3.75,3.75,0,0,1-3.746,3.746H68.182a3.75,3.75,0,0,1-3.746-3.746V32.133H57.482a1.249,1.249,0,0,0-1.249,1.249v37.45a1.249,1.249,0,0,0,1.249,1.249H88.244a1.249,1.249,0,0,0,1.249-1.249V33.382A1.249,1.249,0,0,0,88.244,32.133ZM68.182,62.339h-5.35a1.249,1.249,0,0,1,0-2.5h5.35A1.249,1.249,0,0,1,68.182,62.339Zm0-15H66.755v1.426a1.249,1.249,0,0,1-2.5,0V47.337H62.832a1.249,1.249,0,0,1,0-2.5h1.426V43.413a1.249,1.249,0,0,1,2.5,0v1.426h1.426A1.249,1.249,0,0,1,68.182,47.337ZM84.143,65.481a1.249,1.249,0,0,1-1.249,1.249H74.112a1.249,1.249,0,0,1-1.249-1.249V56.7a1.249,1.249,0,0,1,1.249-1.249h8.782A1.249,1.249,0,0,1,84.143,56.7ZM85.114,42l-.972.972v7.508a1.249,1.249,0,0,1-1.249,1.249H74.112a1.249,1.249,0,0,1-1.249-1.249V41.7a1.249,1.249,0,0,1,1.249-1.249h8.782a1.257,1.257,0,0,1,.22.02l.235-.235A1.249,1.249,0,0,1,85.114,42Z" transform="translate(0 -29.458)" fill="#fff"/>
      <path id="Trazado_1000669" data-name="Trazado 1000669" d="M289.521,166.786a1.244,1.244,0,0,1-.883-.366l-1.337-1.337a1.249,1.249,0,1,1,1.766-1.766l.455.454,1.755-1.755H286V168.3h6.285v-3.762L290.4,166.42A1.244,1.244,0,0,1,289.521,166.786Z" transform="translate(-210.64 -148.529)" fill="#fff"/>
      <path id="Trazado_1000670" data-name="Trazado 1000670" d="M286,342.233h6.285v6.285H286Z" transform="translate(-210.64 -313.743)" fill="#fff"/>
      <path id="Trazado_1000671" data-name="Trazado 1000671" d="M186.016,5.35h9.362A1.249,1.249,0,0,0,196.627,4.1V1.249A1.249,1.249,0,0,0,195.378,0h-9.362a1.249,1.249,0,0,0-1.249,1.249V4.1A1.249,1.249,0,0,0,186.016,5.35Z" transform="translate(-117.834)" fill="#fff"/>
    </g>
  </g>
</svg>
