<svg xmlns="http://www.w3.org/2000/svg" xmlns:xlink="http://www.w3.org/1999/xlink" width="248" height="214" viewBox="0 0 248 214">
  <defs>
    <clipPath id="clip-path">
      <rect id="Rectángulo_456491" data-name="Rectángulo 456491" width="238.659" height="194.771" fill="none"/>
    </clipPath>
    <clipPath id="clip-path-3">
      <rect id="Rectángulo_456430" data-name="Rectángulo 456430" width="237.864" height="21.662" fill="none"/>
    </clipPath>
    <clipPath id="clip-path-4">
      <rect id="Rectángulo_456431" data-name="Rectángulo 456431" width="218.008" height="12.433" fill="none"/>
    </clipPath>
    <clipPath id="clip-path-5">
      <rect id="Rectángulo_456432" data-name="Rectángulo 456432" width="51.497" height="37.365" fill="none"/>
    </clipPath>
    <clipPath id="clip-path-6">
      <rect id="Rectángulo_456433" data-name="Rectángulo 456433" width="25.523" height="35.261" fill="none"/>
    </clipPath>
    <clipPath id="clip-path-7">
      <rect id="Rectángulo_456434" data-name="Rectángulo 456434" width="29.371" height="49.095" fill="none"/>
    </clipPath>
    <clipPath id="clip-path-8">
      <rect id="Rectángulo_456435" data-name="Rectángulo 456435" width="39.725" height="25.418" fill="none"/>
    </clipPath>
    <clipPath id="clip-path-9">
      <rect id="Rectángulo_456436" data-name="Rectángulo 456436" width="218.008" height="13.608" fill="none"/>
    </clipPath>
    <clipPath id="clip-path-10">
      <rect id="Rectángulo_456437" data-name="Rectángulo 456437" width="165.963" height="113.051" fill="none"/>
    </clipPath>
    <clipPath id="clip-path-11">
      <rect id="Rectángulo_456438" data-name="Rectángulo 456438" width="158.425" height="113.051" fill="none"/>
    </clipPath>
    <clipPath id="clip-path-12">
      <rect id="Rectángulo_456474" data-name="Rectángulo 456474" width="153.844" height="6.021" fill="none"/>
    </clipPath>
    <clipPath id="clip-path-13">
      <rect id="Rectángulo_456475" data-name="Rectángulo 456475" width="52.031" height="28.242" fill="none"/>
    </clipPath>
    <clipPath id="clip-path-14">
      <rect id="Rectángulo_456476" data-name="Rectángulo 456476" width="84.504" height="24.882" fill="none"/>
    </clipPath>
    <clipPath id="clip-path-15">
      <rect id="Rectángulo_456492" data-name="Rectángulo 456492" width="22.453" height="64.335" fill="none"/>
    </clipPath>
  </defs>
  <g id="Grupo_1179941" data-name="Grupo 1179941" transform="translate(-333.461 -979.5)">
    <g id="Grupo_1179938" data-name="Grupo 1179938">
      <rect id="Rectángulo_456291" data-name="Rectángulo 456291" width="248" height="214" transform="translate(333.461 979.5)" fill="none"/>
      <g id="Grupo_1179937" data-name="Grupo 1179937" transform="translate(335.907 988.977)">
        <g id="Grupo_1179936" data-name="Grupo 1179936" clip-path="url(#clip-path)">
          <g id="Grupo_1179935" data-name="Grupo 1179935">
            <g id="Grupo_1179934" data-name="Grupo 1179934" clip-path="url(#clip-path)">
              <g id="Grupo_1179900" data-name="Grupo 1179900" transform="translate(0 173.11)" opacity="0.05" style="mix-blend-mode: multiply;isolation: isolate">
                <g id="Grupo_1179899" data-name="Grupo 1179899">
                  <g id="Grupo_1179898" data-name="Grupo 1179898" clip-path="url(#clip-path-3)">
                    <path id="Trazado_999335" data-name="Trazado 999335" d="M237.864,309.966c0,5.981-53.248,10.831-118.932,10.831S0,315.947,0,309.966s53.248-10.831,118.932-10.831,118.932,4.85,118.932,10.831" transform="translate(0 -299.135)"/>
                  </g>
                </g>
              </g>
              <g id="Grupo_1179903" data-name="Grupo 1179903" transform="translate(9.928 176.962)" opacity="0.1" style="mix-blend-mode: multiply;isolation: isolate">
                <g id="Grupo_1179902" data-name="Grupo 1179902">
                  <g id="Grupo_1179901" data-name="Grupo 1179901" clip-path="url(#clip-path-4)">
                    <path id="Trazado_999336" data-name="Trazado 999336" d="M235.164,312.009c0,3.433-48.8,6.216-109,6.216s-109-2.783-109-6.216,48.8-6.216,109-6.216,109,2.783,109,6.216" transform="translate(-17.156 -305.793)"/>
                  </g>
                </g>
              </g>
              <path id="Trazado_999337" data-name="Trazado 999337" d="M329.143,44.044a29.329,29.329,0,0,0,3.962-14.3l-5.274-.076c0-.118.009-.234.009-.353a24.176,24.176,0,0,0-.355-4.1l5.2-.893a29.29,29.29,0,0,0-6.153-13.51l-4.086,3.329a24.2,24.2,0,0,0-3.131-3.186l3.406-4.026a29.289,29.289,0,0,0-13.391-6.4l-.991,5.18a24.112,24.112,0,0,0-4.495-.433L303.794,0a29.34,29.34,0,0,0-14.358,3.752l2.586,4.6a24.118,24.118,0,0,0-3.674,2.541L284.96,6.851a29.413,29.413,0,0,0-8.59,12.093L281.3,20.81a23.839,23.839,0,0,0-1.18,4.308l-5.2-.915a29.48,29.48,0,0,0,1.19,14.785l4.979-1.74a23.918,23.918,0,0,0,1.863,4.06l-4.569,2.636A29.465,29.465,0,0,0,288.8,54.5l2.7-4.528a23.954,23.954,0,0,0,4.031,1.924l-1.811,4.947a29.223,29.223,0,0,0,10.076,1.779,29.529,29.529,0,0,0,4.687-.374l-.838-5.2a23.882,23.882,0,0,0,4.325-1.117l1.792,4.957a29.4,29.4,0,0,0,12.218-8.414l-3.99-3.448a24.158,24.158,0,0,0,2.6-3.636Zm-25.348,7.922a22.652,22.652,0,1,1,22.653-22.653,22.653,22.653,0,0,1-22.653,22.653" transform="translate(-115.639)" fill="#7ea7c4"/>
              <path id="Trazado_999338" data-name="Trazado 999338" d="M307.63,9.1a24.045,24.045,0,1,0,24.046,24.045A24.045,24.045,0,0,0,307.63,9.1m0,40.076A16.03,16.03,0,1,1,323.66,33.149,16.03,16.03,0,0,1,307.63,49.18" transform="translate(-119.474 -3.836)" fill="#91bedb"/>
              <g id="Grupo_1179906" data-name="Grupo 1179906" transform="translate(158.843 21.261)" opacity="0.1" style="mix-blend-mode: multiply;isolation: isolate">
                <g id="Grupo_1179905" data-name="Grupo 1179905">
                  <g id="Grupo_1179904" data-name="Grupo 1179904" clip-path="url(#clip-path-5)">
                    <path id="Trazado_999339" data-name="Trazado 999339" d="M281.1,52.727q.184.526.392,1.04l.007.019q.207.513.437,1.013l.007.015q.231.505.486,1v0q.256.494.533.975l-4.569,2.636a29.46,29.46,0,0,0,10.41,10.56l2.7-4.528c.635.378,1.288.73,1.958,1.05.04.019.082.036.123.056.3.138.592.274.894.4.272.115.549.22.826.326.077.029.152.062.23.09l-1.811,4.947A29.22,29.22,0,0,0,303.8,74.105a29.6,29.6,0,0,0,4.687-.373l-.838-5.205a23.787,23.787,0,0,0,4.325-1.117l1.792,4.957a29.4,29.4,0,0,0,12.218-8.413l-2.523-2.181-8.51.124V56.3A16.026,16.026,0,0,1,289.937,36.74l-8.848.156c-.046.133-.1.263-.14.4-.006.019-.013.037-.019.056q-.166.51-.309,1.031l-.009.033q-.146.533-.268,1.076v0q-.123.549-.221,1.106l-5.2-.915a29.48,29.48,0,0,0,1.19,14.785Z" transform="translate(-274.482 -36.74)"/>
                  </g>
                </g>
              </g>
              <path id="Trazado_999340" data-name="Trazado 999340" d="M47.941,86.351l-3.832.786a17.73,17.73,0,0,0-2-5.259l3.4-1.949a21.757,21.757,0,0,0-12.029-9.84l-1.233,3.717A17.81,17.81,0,0,0,26.7,72.9V68.986h-.074a21.728,21.728,0,0,0-14.516,5.548l2.611,2.915a17.947,17.947,0,0,0-3.547,4.364L7.782,79.85A21.825,21.825,0,0,0,5.315,95.192l3.83-.8a17.718,17.718,0,0,0,2.008,5.255l-3.393,1.957a21.76,21.76,0,0,0,12.05,9.815l1.225-3.719a17.839,17.839,0,0,0,5.571.9l.019,3.911a21.732,21.732,0,0,0,14.483-5.518L38.5,104.073a17.944,17.944,0,0,0,3.557-4.356l3.384,1.97a21.832,21.832,0,0,0,2.5-15.336m-21.318,20.82A16.422,16.422,0,1,1,43.044,90.749a16.422,16.422,0,0,1-16.422,16.422" transform="translate(-2.048 -29.064)" fill="#7ea7c4"/>
              <path id="Trazado_999341" data-name="Trazado 999341" d="M29.469,75.745A17.852,17.852,0,1,0,47.322,93.6,17.852,17.852,0,0,0,29.469,75.745m0,27.217A9.366,9.366,0,1,1,38.836,93.6a9.366,9.366,0,0,1-9.366,9.366" transform="translate(-4.894 -31.911)" fill="#91bedb"/>
              <g id="Grupo_1179909" data-name="Grupo 1179909" transform="translate(20.816 48.187)" opacity="0.1" style="mix-blend-mode: multiply;isolation: isolate">
                <g id="Grupo_1179908" data-name="Grupo 1179908">
                  <g id="Grupo_1179907" data-name="Grupo 1179907" clip-path="url(#clip-path-6)">
                    <path id="Trazado_999342" data-name="Trazado 999342" d="M39.73,118.529a21.732,21.732,0,0,0,14.483-5.518l-2.606-2.921h0q.511-.457.986-.952l.057-.059a17.942,17.942,0,0,0,2.514-3.345l3.384,1.97a21.832,21.832,0,0,0,2.5-15.336l-3.832.786c-.089-.43-.2-.852-.315-1.271-.019-.065-.036-.13-.056-.2q-.187-.629-.417-1.238c-.009-.022-.018-.044-.026-.066A17.756,17.756,0,0,0,55.22,87.9l3.4-1.949A21.872,21.872,0,0,0,56.8,83.268l-15.587.523a5.731,5.731,0,0,0-5.242,4.4,9.367,9.367,0,1,1,.271,17.263l.282,8.863c.1.019.2.045.3.062l.041.007q.645.1,1.306.16c.073.007.147.012.221.017.436.032.874.054,1.318.055Z" transform="translate(-35.971 -83.268)"/>
                  </g>
                </g>
              </g>
              <path id="Trazado_999343" data-name="Trazado 999343" d="M376.822,215.577l-4.339-.8a20,20,0,0,0,.137-6.343l4.375-.6a24.538,24.538,0,0,0-8.417-15.376l-2.861,3.365a20.093,20.093,0,0,0-5.419-3.3l1.655-4.092-.078-.031a24.5,24.5,0,0,0-17.524-.337l1.5,4.153a20.2,20.2,0,0,0-5.555,3.062l-2.712-3.486a24.612,24.612,0,0,0-9.069,15l4.342.788a19.991,19.991,0,0,0-.124,6.343l-4.374.611A24.54,24.54,0,0,0,336.8,229.9l2.854-3.37a20.112,20.112,0,0,0,5.445,3.293l-1.635,4.1a24.509,24.509,0,0,0,17.477.355l-1.49-4.157a20.218,20.218,0,0,0,5.561-3.05l2.7,3.491a24.622,24.622,0,0,0,9.1-14.978m-31.095,12.754a18.522,18.522,0,1,1,24.115-10.226,18.521,18.521,0,0,1-24.115,10.226" transform="translate(-138.336 -78.619)" fill="#7ea7c4"/>
              <path id="Trazado_999344" data-name="Trazado 999344" d="M363.261,195.7a20.135,20.135,0,1,0,11.117,26.216A20.135,20.135,0,0,0,363.261,195.7m-11.51,28.459a10.564,10.564,0,1,1,13.754-5.832,10.564,10.564,0,0,1-13.754,5.832" transform="translate(-141.376 -81.829)" fill="#91bedb"/>
              <g id="Grupo_1179912" data-name="Grupo 1179912" transform="translate(190.02 107.994)" opacity="0.1" style="mix-blend-mode: multiply;isolation: isolate">
                <g id="Grupo_1179911" data-name="Grupo 1179911">
                  <g id="Grupo_1179910" data-name="Grupo 1179910" clip-path="url(#clip-path-7)">
                    <path id="Trazado_999345" data-name="Trazado 999345" d="M354.62,221.537a10.558,10.558,0,1,1,1.828-20.232l1.279-14.161a24.491,24.491,0,0,0-13.376.925l1.5,4.152h0c-.479.173-.951.366-1.416.575l-.109.05a20.187,20.187,0,0,0-4.028,2.438l-2.713-3.486a24.616,24.616,0,0,0-9.068,15l4.341.789v.006q-.076.413-.131.826c-.021.151-.036.3-.054.454s-.032.284-.046.425c-.016.172-.028.343-.04.515-.008.112-.014.224-.02.336-.01.193-.018.387-.022.579,0,.061,0,.123,0,.184a20.089,20.089,0,0,0,.192,3.018l-4.375.611A24.54,24.54,0,0,0,336.8,229.9l2.854-3.37a20.007,20.007,0,0,0,2.529,1.824l.039.024c.42.255.854.494,1.3.719l.225.111c.442.218.892.427,1.355.615l-1.635,4.1a24.542,24.542,0,0,0,9.872,1.784Z" transform="translate(-328.356 -186.615)"/>
                  </g>
                </g>
              </g>
              <path id="Trazado_999346" data-name="Trazado 999346" d="M194.963,36.694,191.433,36a16.311,16.311,0,0,0,.17-5.172l3.574-.45a20.013,20.013,0,0,0-6.722-12.617l-2.364,2.718a16.391,16.391,0,0,0-4.388-2.738l1.387-3.321-.063-.026a19.981,19.981,0,0,0-14.288-.437l1.183,3.4a16.5,16.5,0,0,0-4.558,2.446l-2.18-2.868a20.084,20.084,0,0,0-7.534,12.147l3.534.683a16.3,16.3,0,0,0-.16,5.171l-3.573.457A20.013,20.013,0,0,0,162.2,48l2.359-2.722a16.391,16.391,0,0,0,4.41,2.736L167.6,51.34a19.986,19.986,0,0,0,14.248.451l-1.176-3.4a16.5,16.5,0,0,0,4.563-2.436l2.174,2.872a20.074,20.074,0,0,0,7.559-12.13M169.489,46.806a15.1,15.1,0,1,1,19.76-8.115,15.1,15.1,0,0,1-19.76,8.115" transform="translate(-65.492 -5.413)" fill="#7ea7c4"/>
              <path id="Trazado_999347" data-name="Trazado 999347" d="M184.142,20.335a16.42,16.42,0,1,0,8.822,21.481,16.421,16.421,0,0,0-8.822-21.481m-9.65,23.1a8.615,8.615,0,1,1,11.27-4.628,8.615,8.615,0,0,1-11.27,4.628" transform="translate(-67.993 -8.031)" fill="#91bedb"/>
              <g id="Grupo_1179915" data-name="Grupo 1179915" transform="translate(89.959 22.058)" opacity="0.1" style="mix-blend-mode: multiply;isolation: isolate">
                <g id="Grupo_1179914" data-name="Grupo 1179914">
                  <g id="Grupo_1179913" data-name="Grupo 1179913" clip-path="url(#clip-path-8)">
                    <path id="Trazado_999348" data-name="Trazado 999348" d="M162.2,58.645l2.359-2.722a16.3,16.3,0,0,0,2.046,1.512l.031.02c.34.212.692.41,1.052.6l.182.093c.358.182.723.356,1.1.513L167.6,61.985a19.986,19.986,0,0,0,14.248.451l-1.176-3.4q.6-.207,1.174-.458l.069-.03a16.5,16.5,0,0,0,3.32-1.948l2.174,2.872a20.081,20.081,0,0,0,7.559-12.13l-3.531-.692c.078-.4.135-.794.182-1.191.008-.062.016-.123.023-.185q.064-.6.086-1.2c0-.021,0-.042,0-.064a16.323,16.323,0,0,0-.122-2.532l3.573-.45a20.167,20.167,0,0,0-.59-2.91l-12.4.219a8.618,8.618,0,1,1-13.935.246l-12.4.219c-.075.309-.145.619-.2.93l3.534.683h0c-.078.4-.137.808-.183,1.212-.006.048-.012.1-.017.143q-.065.61-.085,1.219l0,.064a16.339,16.339,0,0,0,.127,2.533l-3.573.458a20.015,20.015,0,0,0,6.747,12.6" transform="translate(-155.451 -38.117)"/>
                  </g>
                </g>
              </g>
              <path id="Trazado_999349" data-name="Trazado 999349" d="M225.762,307.8H26.558a9.4,9.4,0,0,1-9.4-9.4v-2.225a2.008,2.008,0,0,1,2.008-2.008H233.156a2.008,2.008,0,0,1,2.008,2.008v2.225a9.4,9.4,0,0,1-9.4,9.4" transform="translate(-7.228 -123.93)" fill="#3b6791"/>
              <g id="Grupo_1179918" data-name="Grupo 1179918" transform="translate(9.928 170.258)" opacity="0.1" style="mix-blend-mode: multiply;isolation: isolate">
                <g id="Grupo_1179917" data-name="Grupo 1179917">
                  <g id="Grupo_1179916" data-name="Grupo 1179916" clip-path="url(#clip-path-9)">
                    <path id="Trazado_999350" data-name="Trazado 999350" d="M233.428,294.207v1.5a9.327,9.327,0,0,1-9.327,9.327H28.219a9.327,9.327,0,0,1-9.327-9.327v-1.5a2,2,0,0,0-1.736,1.981v2.225a9.4,9.4,0,0,0,9.4,9.4h199.2a9.4,9.4,0,0,0,9.4-9.4v-2.225a2,2,0,0,0-1.736-1.981" transform="translate(-17.156 -294.207)"/>
                  </g>
                </g>
              </g>
              <path id="Trazado_999351" data-name="Trazado 999351" d="M148.532,298.318V300.8a2.5,2.5,0,0,0,2.5,2.5h60.947a2.5,2.5,0,0,0,2.5-2.5v-2.487Z" transform="translate(-62.577 -125.681)" fill="#6b96bf"/>
              <path id="Trazado_999352" data-name="Trazado 999352" d="M231.18,208.361H42.467v-112a5.853,5.853,0,0,1,5.854-5.853H225.327a5.853,5.853,0,0,1,5.854,5.853Z" transform="translate(-17.891 -38.131)" fill="#1b4063"/>
              <path id="Trazado_999353" data-name="Trazado 999353" d="M225.889,207.054H55.563a3.833,3.833,0,0,1-3.833-3.833V102.741a3.934,3.934,0,0,1,3.934-3.934H225.787a3.934,3.934,0,0,1,3.935,3.934v100.48a3.833,3.833,0,0,1-3.833,3.833" transform="translate(-21.794 -41.627)" fill="#91bedb"/>
              <g id="Grupo_1179921" data-name="Grupo 1179921" transform="translate(36.529 52.376)" opacity="0.1" style="mix-blend-mode: multiply;isolation: isolate">
                <g id="Grupo_1179920" data-name="Grupo 1179920">
                  <g id="Grupo_1179919" data-name="Grupo 1179919" clip-path="url(#clip-path-10)">
                    <path id="Trazado_999354" data-name="Trazado 999354" d="M63.123,90.506,65.94,203.557H226.268l2.818-113.051Z" transform="translate(-63.123 -90.506)"/>
                  </g>
                </g>
              </g>
              <g id="Grupo_1179924" data-name="Grupo 1179924" transform="translate(40.298 52.376)" opacity="0.1" style="mix-blend-mode: multiply;isolation: isolate">
                <g id="Grupo_1179923" data-name="Grupo 1179923">
                  <g id="Grupo_1179922" data-name="Grupo 1179922" clip-path="url(#clip-path-11)">
                    <path id="Trazado_999355" data-name="Trazado 999355" d="M69.636,90.506l1.31,113.051H226.751l1.31-113.051Z" transform="translate(-69.636 -90.506)"/>
                  </g>
                </g>
              </g>
              <path id="Trazado_999356" data-name="Trazado 999356" d="M227.437,185.324H73.593V50.05a2.822,2.822,0,0,1,2.822-2.822h148.2a2.822,2.822,0,0,1,2.822,2.822Z" transform="translate(-31.005 -19.897)" fill="#fff"/>
              <path id="Trazado_999357" data-name="Trazado 999357" d="M227.437,55.525V50.05a2.822,2.822,0,0,0-2.822-2.822H76.415a2.822,2.822,0,0,0-2.822,2.822v5.475Z" transform="translate(-31.005 -19.897)" fill="#7dbfff"/>
              <path id="Trazado_999358" data-name="Trazado 999358" d="M171.605,54.75H87.252a1.3,1.3,0,0,1,0-2.6h84.353a1.3,1.3,0,0,1,0,2.6" transform="translate(-36.212 -21.97)" fill="#b9ddf5"/>
              <path id="Trazado_999359" data-name="Trazado 999359" d="M281.4,52.731a2.288,2.288,0,1,1-2.288-2.288,2.288,2.288,0,0,1,2.288,2.288" transform="translate(-116.627 -21.252)" fill="#fff"/>
              <path id="Trazado_999360" data-name="Trazado 999360" d="M279.878,52.875a.62.62,0,1,1-.62-.62.62.62,0,0,1,.62.62" transform="translate(-117.39 -22.015)" fill="#fff"/>
              <path id="Trazado_999361" data-name="Trazado 999361" d="M303.557,52.731a2.288,2.288,0,1,1-2.288-2.288,2.288,2.288,0,0,1,2.288,2.288" transform="translate(-125.961 -21.252)" fill="#ffc838"/>
              <path id="Trazado_999362" data-name="Trazado 999362" d="M302.032,52.875a.62.62,0,1,1-.62-.62.62.62,0,0,1,.62.62" transform="translate(-126.724 -22.015)" fill="#fff"/>
              <path id="Trazado_999363" data-name="Trazado 999363" d="M325.711,52.731a2.288,2.288,0,1,1-2.288-2.288,2.288,2.288,0,0,1,2.288,2.288" transform="translate(-135.294 -21.252)" fill="#ff6151"/>
              <path id="Trazado_999364" data-name="Trazado 999364" d="M324.187,52.875a.62.62,0,1,1-.62-.62.62.62,0,0,1,.62.62" transform="translate(-136.058 -22.015)" fill="#fff"/>
              <path id="Trazado_999365" data-name="Trazado 999365" d="M171,106.552H87.854a1.9,1.9,0,0,1-1.9-1.9V76.393a1.9,1.9,0,0,1,1.9-1.9H171a1.9,1.9,0,0,1,1.9,1.9V104.65a1.9,1.9,0,0,1-1.9,1.9" transform="translate(-36.212 -31.383)" fill="#dceffc"/>
              <rect id="Rectángulo_456439" data-name="Rectángulo 456439" width="86.954" height="32.061" rx="3.286" transform="translate(49.74 43.108)" fill="none" stroke="#b9ddf5" stroke-linecap="round" stroke-linejoin="round" stroke-width="1.5"/>
              <rect id="Rectángulo_456440" data-name="Rectángulo 456440" width="81.185" height="26.804" rx="2.16" transform="translate(52.625 45.736)" fill="none" stroke="#b9ddf5" stroke-linecap="round" stroke-linejoin="round" stroke-width="0.75" stroke-dasharray="21 5"/>
              <rect id="Rectángulo_456441" data-name="Rectángulo 456441" width="24.161" height="3.383" transform="translate(143.316 44.34)" fill="#dceffc"/>
              <rect id="Rectángulo_456442" data-name="Rectángulo 456442" width="19.682" height="3.383" transform="translate(170.736 44.34)" fill="#b9ddf5"/>
              <rect id="Rectángulo_456443" data-name="Rectángulo 456443" width="24.161" height="3.383" transform="translate(166.256 57.447)" fill="#b9ddf5"/>
              <rect id="Rectángulo_456444" data-name="Rectángulo 456444" width="19.682" height="3.383" transform="translate(143.315 57.447)" fill="#dceffc"/>
              <rect id="Rectángulo_456445" data-name="Rectángulo 456445" width="25.825" height="3.383" transform="translate(143.315 70.553)" fill="#dceffc"/>
              <rect id="Rectángulo_456446" data-name="Rectángulo 456446" width="18.374" height="3.383" transform="translate(156.997 50.894)" fill="#dceffc"/>
              <rect id="Rectángulo_456447" data-name="Rectángulo 456447" width="11.764" height="3.383" transform="translate(178.653 50.894)" fill="#b9ddf5"/>
              <rect id="Rectángulo_456448" data-name="Rectángulo 456448" width="10.422" height="3.383" transform="translate(143.315 50.894)" fill="#b9ddf5"/>
              <rect id="Rectángulo_456449" data-name="Rectángulo 456449" width="18.374" height="3.383" transform="translate(158.362 64)" fill="#dceffc"/>
              <rect id="Rectángulo_456450" data-name="Rectángulo 456450" width="11.764" height="3.383" transform="translate(143.316 64)" fill="#b9ddf5"/>
              <rect id="Rectángulo_456451" data-name="Rectángulo 456451" width="10.422" height="3.383" transform="translate(179.995 64)" fill="#b9ddf5"/>
              <rect id="Rectángulo_456452" data-name="Rectángulo 456452" width="33.568" height="3.383" transform="translate(124.975 149.464)" fill="#b9ddf5"/>
              <rect id="Rectángulo_456453" data-name="Rectángulo 456453" width="27.345" height="3.383" transform="translate(163.072 149.464)" fill="#dceffc"/>
              <rect id="Rectángulo_456454" data-name="Rectángulo 456454" width="17.873" height="3.383" transform="translate(143.985 156.017)" fill="#b9ddf5"/>
              <rect id="Rectángulo_456455" data-name="Rectángulo 456455" width="16.345" height="3.383" transform="translate(166.417 156.017)" fill="#dceffc"/>
              <rect id="Rectángulo_456456" data-name="Rectángulo 456456" width="14.48" height="3.383" transform="translate(124.975 156.017)" fill="#dceffc"/>
              <rect id="Rectángulo_456457" data-name="Rectángulo 456457" width="34.456" height="3.843" transform="translate(49.74 80.534)" fill="#dceffc"/>
              <rect id="Rectángulo_456458" data-name="Rectángulo 456458" width="28.068" height="3.843" transform="translate(88.845 80.534)" fill="#b9ddf5"/>
              <rect id="Rectángulo_456459" data-name="Rectángulo 456459" width="34.456" height="3.843" transform="translate(82.457 95.422)" fill="#b9ddf5"/>
              <rect id="Rectángulo_456460" data-name="Rectángulo 456460" width="28.068" height="3.843" transform="translate(49.74 95.422)" fill="#dceffc"/>
              <rect id="Rectángulo_456461" data-name="Rectángulo 456461" width="36.828" height="3.843" transform="translate(49.74 110.31)" fill="#dceffc"/>
              <rect id="Rectángulo_456462" data-name="Rectángulo 456462" width="26.203" height="3.843" transform="translate(69.252 87.978)" fill="#dceffc"/>
              <rect id="Rectángulo_456463" data-name="Rectángulo 456463" width="16.778" height="3.843" transform="translate(100.135 87.978)" fill="#b9ddf5"/>
              <rect id="Rectángulo_456464" data-name="Rectángulo 456464" width="14.863" height="3.843" transform="translate(49.74 87.978)" fill="#b9ddf5"/>
              <rect id="Rectángulo_456465" data-name="Rectángulo 456465" width="26.203" height="3.843" transform="translate(71.198 102.866)" fill="#dceffc"/>
              <rect id="Rectángulo_456466" data-name="Rectángulo 456466" width="16.777" height="3.843" transform="translate(49.74 102.866)" fill="#b9ddf5"/>
              <rect id="Rectángulo_456467" data-name="Rectángulo 456467" width="14.863" height="3.843" transform="translate(102.05 102.866)" fill="#dceffc"/>
              <path id="Trazado_999366" data-name="Trazado 999366" d="M278.338,172.771H215.55a2.034,2.034,0,0,1-2.034-2.034V138.909a2.071,2.071,0,0,1,2.071-2.071H278.3a2.071,2.071,0,0,1,2.071,2.071v31.827a2.034,2.034,0,0,1-2.034,2.034" transform="translate(-89.954 -57.65)" fill="#dceffc"/>
              <path id="Trazado_999367" data-name="Trazado 999367" d="M278.338,172.771H215.55a2.034,2.034,0,0,1-2.034-2.034V138.909a2.071,2.071,0,0,1,2.071-2.071H278.3a2.071,2.071,0,0,1,2.071,2.071v31.827A2.034,2.034,0,0,1,278.338,172.771Z" transform="translate(-89.954 -57.65)" fill="none" stroke="#b9ddf5" stroke-linecap="round" stroke-linejoin="round" stroke-width="1.5"/>
              <path id="Trazado_999368" data-name="Trazado 999368" d="M278.2,172.132H219.35a1.487,1.487,0,0,1-1.487-1.487V142.418a1.52,1.52,0,0,1,1.52-1.52h58.785a1.52,1.52,0,0,1,1.52,1.52v28.227A1.487,1.487,0,0,1,278.2,172.132Z" transform="translate(-91.786 -59.36)" fill="none" stroke="#b9ddf5" stroke-linecap="round" stroke-linejoin="round" stroke-width="0.75" stroke-dasharray="21 5"/>
              <path id="Trazado_999369" data-name="Trazado 999369" d="M224.352,231.958H88.228a2.276,2.276,0,0,1-2.276-2.277V211.626a3.4,3.4,0,0,1,3.395-3.4H223.233a3.4,3.4,0,0,1,3.4,3.4v18.055a2.276,2.276,0,0,1-2.277,2.277" transform="translate(-36.212 -87.728)" fill="#dda2ff"/>
              <path id="Trazado_999370" data-name="Trazado 999370" d="M117.634,222.22a8.943,8.943,0,1,1-8.943-8.943,8.943,8.943,0,0,1,8.943,8.943" transform="translate(-42.024 -89.854)" fill="#f1e2ff"/>
              <path id="Trazado_999371" data-name="Trazado 999371" d="M162.782,222.22a8.943,8.943,0,1,1-8.943-8.943,8.943,8.943,0,0,1,8.943,8.943" transform="translate(-61.045 -89.854)" fill="#f1e2ff"/>
              <path id="Trazado_999372" data-name="Trazado 999372" d="M207.93,222.22a8.943,8.943,0,1,1-8.943-8.943,8.943,8.943,0,0,1,8.943,8.943" transform="translate(-80.066 -89.854)" fill="#f1e2ff"/>
              <rect id="Rectángulo_456468" data-name="Rectángulo 456468" width="24.161" height="2.907" transform="translate(137.697 124.703)" fill="#dceffc"/>
              <rect id="Rectángulo_456469" data-name="Rectángulo 456469" width="19.682" height="2.907" transform="translate(165.118 124.703)" fill="#dceffc"/>
              <rect id="Rectángulo_456470" data-name="Rectángulo 456470" width="30.103" height="2.907" transform="translate(137.697 137.123)" fill="#dceffc"/>
              <rect id="Rectángulo_456471" data-name="Rectángulo 456471" width="18.374" height="2.907" transform="translate(151.379 130.913)" fill="#dceffc"/>
              <rect id="Rectángulo_456472" data-name="Rectángulo 456472" width="11.764" height="2.907" transform="translate(173.034 130.913)" fill="#dceffc"/>
              <rect id="Rectángulo_456473" data-name="Rectángulo 456473" width="10.422" height="2.907" transform="translate(137.697 130.913)" fill="#dceffc"/>
              <path id="Trazado_999373" data-name="Trazado 999373" d="M154.214,268.312H86.871a.919.919,0,0,1-.92-.919v-8.811a.94.94,0,0,1,.94-.94h67.3a.94.94,0,0,1,.939.94v8.811a.919.919,0,0,1-.918.919" transform="translate(-36.211 -108.545)" fill="#dceffc"/>
              <g id="Grupo_1179927" data-name="Grupo 1179927" transform="translate(42.589 159.405)" opacity="0.1" style="mix-blend-mode: multiply;isolation: isolate">
                <g id="Grupo_1179926" data-name="Grupo 1179926">
                  <g id="Grupo_1179925" data-name="Grupo 1179925" clip-path="url(#clip-path-12)">
                    <path id="Trazado_999374" data-name="Trazado 999374" d="M227.438,281.476H73.593v-1.391l153.844-4.63Z" transform="translate(-73.594 -275.455)"/>
                  </g>
                </g>
              </g>
              <path id="Trazado_999375" data-name="Trazado 999375" d="M294.334,186.96H231.547a2.034,2.034,0,0,1-2.034-2.034V153.1a2.071,2.071,0,0,1,2.071-2.071H294.3a2.071,2.071,0,0,1,2.071,2.071v31.827a2.034,2.034,0,0,1-2.034,2.034" transform="translate(-96.694 -63.628)" fill="#ffc838"/>
              <path id="Trazado_999376" data-name="Trazado 999376" d="M295.839,189.653a1.824,1.824,0,0,0,1.823-1.823V174.079L286.582,163,265.7,183.884,255.011,173.2l-16.454,16.454Z" transform="translate(-100.504 -68.671)" fill="#ffe7a8"/>
              <path id="Trazado_999377" data-name="Trazado 999377" d="M281.97,164.839a4.847,4.847,0,1,1-4.847-4.847,4.847,4.847,0,0,1,4.847,4.847" transform="translate(-114.71 -67.405)" fill="#ffe7a8"/>
              <g id="Grupo_1179930" data-name="Grupo 1179930" transform="translate(135.335 89.899)" opacity="0.1">
                <g id="Grupo_1179929" data-name="Grupo 1179929">
                  <g id="Grupo_1179928" data-name="Grupo 1179928" clip-path="url(#clip-path-13)">
                    <path id="Trazado_999378" data-name="Trazado 999378" d="M233.86,183.589l52.031-28.242H235.708a1.848,1.848,0,0,0-1.848,1.848Z" transform="translate(-233.86 -155.347)" fill="#fff"/>
                  </g>
                </g>
              </g>
              <path id="Trazado_999379" data-name="Trazado 999379" d="M144.58,97.577H61.43a1.9,1.9,0,0,1-1.9-1.9V67.418a1.9,1.9,0,0,1,1.9-1.9h83.15a1.9,1.9,0,0,1,1.9,1.9V95.675a1.9,1.9,0,0,1-1.9,1.9" transform="translate(-25.079 -27.602)" fill="#62249e"/>
              <g id="Grupo_1179933" data-name="Grupo 1179933" transform="translate(35.401 38.832)" opacity="0.1">
                <g id="Grupo_1179932" data-name="Grupo 1179932">
                  <g id="Grupo_1179931" data-name="Grupo 1179931" clip-path="url(#clip-path-14)">
                    <path id="Trazado_999380" data-name="Trazado 999380" d="M145.677,67.454a1.481,1.481,0,0,0-.951-.35H62.67a1.5,1.5,0,0,0-1.5,1.5V91.986Z" transform="translate(-61.173 -67.103)" fill="#fff"/>
                  </g>
                </g>
              </g>
              <path id="Trazado_999381" data-name="Trazado 999381" d="M34.663,157.269l-12.57,12.57v53.748H71.282V157.269Z" transform="translate(-9.308 -66.257)" fill="#4690d8"/>
              <path id="Trazado_999382" data-name="Trazado 999382" d="M22.093,169.839h12.57v-12.57Z" transform="translate(-9.308 -66.257)" fill="#08559f"/>
              <path id="Trazado_999383" data-name="Trazado 999383" d="M42.942,184.229l-8.284,3.744,8.284,3.744v3.018l-11.068-5.195v-3.135l11.068-5.2Z" transform="translate(-13.428 -76.344)" fill="#fff"/>
              <path id="Trazado_999384" data-name="Trazado 999384" d="M67.416,186.406v3.135l-11.069,5.2v-3.019l8.284-3.745-8.284-3.744V181.21Z" transform="translate(-23.739 -76.344)" fill="#fff"/>
              <rect id="Rectángulo_456477" data-name="Rectángulo 456477" width="20.295" height="3.227" transform="translate(17.568 120.973)" fill="#cacaf0"/>
              <rect id="Rectángulo_456478" data-name="Rectángulo 456478" width="16.532" height="3.227" transform="translate(40.602 120.973)" fill="#cacaf0"/>
              <rect id="Rectángulo_456479" data-name="Rectángulo 456479" width="20.295" height="3.227" transform="translate(36.839 134.746)" fill="#cacaf0"/>
              <rect id="Rectángulo_456480" data-name="Rectángulo 456480" width="16.532" height="3.227" transform="translate(17.568 134.746)" fill="#cacaf0"/>
              <rect id="Rectángulo_456481" data-name="Rectángulo 456481" width="21.693" height="3.227" transform="translate(17.568 148.519)" fill="#cacaf0"/>
              <rect id="Rectángulo_456482" data-name="Rectángulo 456482" width="15.434" height="3.227" transform="translate(29.061 127.86)" fill="#cacaf0"/>
              <rect id="Rectángulo_456483" data-name="Rectángulo 456483" width="9.882" height="3.227" transform="translate(47.252 127.86)" fill="#cacaf0"/>
              <rect id="Rectángulo_456484" data-name="Rectángulo 456484" width="8.755" height="3.227" transform="translate(17.568 127.86)" fill="#cacaf0"/>
              <rect id="Rectángulo_456485" data-name="Rectángulo 456485" width="10.148" height="3.227" transform="translate(46.986 107.201)" fill="#cacaf0"/>
              <rect id="Rectángulo_456486" data-name="Rectángulo 456486" width="9.882" height="3.227" transform="translate(47.252 114.087)" fill="#cacaf0"/>
              <rect id="Rectángulo_456487" data-name="Rectángulo 456487" width="15.434" height="3.227" transform="translate(30.207 141.632)" fill="#cacaf0"/>
              <rect id="Rectángulo_456488" data-name="Rectángulo 456488" width="9.882" height="3.227" transform="translate(17.568 141.632)" fill="#cacaf0"/>
              <rect id="Rectángulo_456489" data-name="Rectángulo 456489" width="8.755" height="3.227" transform="translate(48.379 141.632)" fill="#cacaf0"/>
            </g>
          </g>
        </g>
      </g>
    </g>
    <g id="Grupo_1179940" data-name="Grupo 1179940" transform="translate(447.917 1031.266) rotate(90)">
      <g id="Grupo_1179939" data-name="Grupo 1179939" clip-path="url(#clip-path-15)">
        <path id="Trazado_999385" data-name="Trazado 999385" d="M15.568,48.585V20.71a11.229,11.229,0,0,0,0-20.71V8.484a4.341,4.341,0,1,1-8.682,0V0a11.229,11.229,0,0,0,0,20.71V48.585A8.743,8.743,0,0,0,8.06,64.334V57.446a3.167,3.167,0,0,1,6.334,0v6.889a8.744,8.744,0,0,0,1.174-15.75" fill="#fff"/>
        <path id="Trazado_999386" data-name="Trazado 999386" d="M17.479,62.659h0a1.9,1.9,0,0,1-1.9-1.9V36.1a1.9,1.9,0,0,1,3.792,0V60.763a1.9,1.9,0,0,1-1.9,1.9" transform="translate(-6.253 -13.723)" fill="#c7d2d7"/>
      </g>
    </g>
  </g>
</svg>
