<svg xmlns="http://www.w3.org/2000/svg" xmlns:xlink="http://www.w3.org/1999/xlink" width="150" height="150" viewBox="0 0 150 150">
  <defs>
    <clipPath id="clip-path">
      <rect id="Rectángulo_455533" data-name="Rectángulo 455533" width="150" height="143.878" fill="#19538d"/>
    </clipPath>
    <clipPath id="clip-path-2">
      <rect id="Rectángulo_456505" data-name="Rectángulo 456505" width="76.227" height="76.24" fill="#19538d"/>
    </clipPath>
  </defs>
  <g id="Grupo_1180398" data-name="Grupo 1180398" transform="translate(-305 -9265.326)">
    <g id="Grupo_1179865" data-name="Grupo 1179865" transform="translate(-78.746 866.327)">
      <circle id="Elipse_13674" data-name="Elipse 13674" cx="63.5" cy="63.5" r="63.5" transform="translate(394.746 8410.999)" fill="#fff"/>
      <g id="Grupo_1179062" data-name="Grupo 1179062" transform="translate(383.746 8399)">
        <rect id="Rectángulo_455531" data-name="Rectángulo 455531" width="150" height="150" transform="translate(0 -0.001)" fill="none"/>
        <g id="Grupo_1179061" data-name="Grupo 1179061" transform="translate(0 3.516)">
          <path id="Trazado_998445" data-name="Trazado 998445" d="M125.035,98.509H96.727l3.837-7.155h28.308Z" transform="translate(16.625 15.701)" fill="#62249e"/>
          <path id="Trazado_998446" data-name="Trazado 998446" d="M2.327,86.893,0,91.629H31.21l2.327-4.736Z" transform="translate(0 14.935)" fill="#19538d"/>
          <path id="Trazado_998447" data-name="Trazado 998447" d="M128.7,33.274H98.809l2.344-5.307h29.889Z" transform="translate(16.983 4.807)" fill="#19538d"/>
          <path id="Trazado_998448" data-name="Trazado 998448" d="M42.747,13.528H3.483L5.827,8.221H45.09Z" transform="translate(0.599 1.413)" fill="#19538d"/>
          <g id="Grupo_1179060" data-name="Grupo 1179060" transform="translate(0)">
            <g id="Grupo_1179059" data-name="Grupo 1179059" clip-path="url(#clip-path)">
              <path id="Trazado_998449" data-name="Trazado 998449" d="M74.551,127.143A63.645,63.645,0,0,1,12.5,49.237H4.028a71.934,71.934,0,0,0,126.553,59.34h-11.1a63.462,63.462,0,0,1-44.933,18.566" transform="translate(0.449 8.463)" fill="#19538d"/>
              <path id="Trazado_998450" data-name="Trazado 998450" d="M110.835,89.59h9.414c.756-1.5,1.443-3.048,2.094-4.61h-9.05c-.761,1.573-1.575,3.112-2.457,4.61" transform="translate(19.05 14.606)" fill="#19538d"/>
              <path id="Trazado_998451" data-name="Trazado 998451" d="M146.016,71.939A71.95,71.95,0,0,0,5.373,50.544h8.733a63.668,63.668,0,1,1,119.04,45.138h8.82a71.622,71.622,0,0,0,4.05-23.743" transform="translate(0.923)" fill="#19538d"/>
              <path id="Trazado_998452" data-name="Trazado 998452" d="M108.562,81.649v3.9h5.121q.928-1.918,1.729-3.9Z" transform="translate(18.659 14.033)" fill="#19538d"/>
              <path id="Trazado_998453" data-name="Trazado 998453" d="M129.262,81.649h-7.111q-.694,1.979-1.5,3.9h8.607Z" transform="translate(20.738 14.033)" fill="#19538d"/>
            </g>
          </g>
          <path id="Trazado_998444" data-name="Trazado 998444" d="M3.515,37.025,0,44.18H21.25l3.516-7.155Z" transform="translate(0 6.364)" fill="#62249e"/>
        </g>
      </g>
      <g id="Grupo_1177669" data-name="Grupo 1177669" transform="translate(418.457 8433.673)">
        <g id="Grupo_1099618" data-name="Grupo 1099618" transform="translate(0 0)">
          <rect id="Rectángulo_401104" data-name="Rectángulo 401104" width="79.898" height="80.861" transform="translate(0)" fill="none"/>
        </g>
      </g>
    </g>
    <g id="Grupo_1179971" data-name="Grupo 1179971" transform="translate(349.711 9302)">
      <g id="Grupo_1179970" data-name="Grupo 1179970" clip-path="url(#clip-path-2)">
        <path id="Trazado_999503" data-name="Trazado 999503" d="M0,4.184A5.426,5.426,0,0,1,4.541.017L55.313.009c1.944-.186,4.832,2.387,4.832,4.249V27.111l7.373-7.291a5.45,5.45,0,0,1,7.144,8.186L60.175,42.55l-.046,29.282a5.432,5.432,0,0,1-4.153,4.408H4.168A5.677,5.677,0,0,1,0,72.072ZM17.417,2.993H4.54A2.844,2.844,0,0,0,3.047,4.478v67.3a2.234,2.234,0,0,0,2.083,1.49l50.522-.108a2.313,2.313,0,0,0,1.516-1.61V45.572l-2.739,1.207-.24.356-.07,22.112a1.4,1.4,0,0,1-.968.968l-17.338.061a1.521,1.521,0,0,1-.9-2.514,4.533,4.533,0,0,1,.737-.454H51.212V48.251l-4.989,2.094c-2-.228-1.688-1.48-1.141-2.939a72.643,72.643,0,0,1,4.166-9.233,22.679,22.679,0,0,1,1.965-2.055V8.948H42.726a4.657,4.657,0,0,1-3.984,4.725c-5.463-.229-11.379.436-16.791.045a4.642,4.642,0,0,1-4.534-4.77H8.932V67.308H24.489a4.546,4.546,0,0,1,.737.454,1.522,1.522,0,0,1-.9,2.514l-16.966.013a1.478,1.478,0,0,1-1.376-1.154L6.025,7.009A1.731,1.731,0,0,1,7.071,5.971H17.417Zm22.331,0H20.395V9.469c0,.545,1,1.282,1.56,1.269,5.156-.382,11.019.5,16.09,0,.617-.06,1.7-.557,1.7-1.273ZM54.19,33.066c.624-.746,2.41-2,2.837-2.746a.7.7,0,0,0,.149-.447L57.168,5A2.5,2.5,0,0,0,55.6,2.993H42.726V5.971H53.073A2.05,2.05,0,0,1,54.19,7.087Zm15.889-11.28c-.75.155-1.341,1.046-1.892,1.529l3.475,3.339c2.72-1.6,1.679-5.54-1.583-4.868m-4.033,3.7L52.7,38.8l3.274,3.284L69.521,28.823c-.488-.388-3.191-3.389-3.475-3.339M49.13,45.869l4.313-2.01-2.307-2.306c-.294-.059-.182.062-.255.187-.684,1.166-1.175,2.873-1.751,4.129" transform="translate(0.001 0)" fill="#19538d"/>
        <path id="Trazado_999504" data-name="Trazado 999504" d="M88.322,119.216c3.118.212,6.906-.4,9.944-.038a1.48,1.48,0,0,1,1.414,1.414c-.23,3.061.294,6.529,0,9.539a1.488,1.488,0,0,1-1.418,1.559c-3.061-.23-6.529.294-9.539,0a1.488,1.488,0,0,1-1.559-1.418c.275-3.052-.355-6.707,0-9.684a1.479,1.479,0,0,1,1.154-1.377M96.7,122.16h-6.55v6.55H96.7Z" transform="translate(-74.07 -101.301)" fill="#19538d"/>
        <path id="Trazado_999505" data-name="Trazado 999505" d="M88.322,229c3.118.212,6.906-.4,9.944-.038a1.48,1.48,0,0,1,1.414,1.414c-.23,3.061.294,6.529,0,9.539a1.488,1.488,0,0,1-1.418,1.559c-3.061-.23-6.529.293-9.539,0a1.488,1.488,0,0,1-1.559-1.418c.275-3.052-.355-6.707,0-9.684A1.479,1.479,0,0,1,88.322,229m8.377,2.943h-6.55V238.5H96.7Z" transform="translate(-74.07 -194.71)" fill="#19538d"/>
        <path id="Trazado_999506" data-name="Trazado 999506" d="M88.322,338.788c3.118.212,6.906-.4,9.944-.038a1.48,1.48,0,0,1,1.414,1.414c-.23,3.061.294,6.529,0,9.539a1.488,1.488,0,0,1-1.418,1.559c-3.061-.23-6.529.294-9.539,0a1.488,1.488,0,0,1-1.559-1.418c.275-3.052-.355-6.707,0-9.684a1.478,1.478,0,0,1,1.154-1.376m8.377,2.943h-6.55v6.551H96.7Z" transform="translate(-74.07 -288.12)" fill="#19538d"/>
        <path id="Trazado_999507" data-name="Trazado 999507" d="M220.513,348.723c1.254,0,2.326,1.913,3.3,2.593.6.1,2.841-4,4.526-2.153,1.463,1.6-1.409,3.224-2.228,4.343.661,1.184,3.886,2.98,2.153,4.526-1.559,1.391-3.273-1.4-4.343-2.228-.63-.11-2.655,3.86-4.435,2.212-1.584-1.468,1.315-3.379,2.137-4.4.067-.38-2.349-2.109-2.512-2.964a1.463,1.463,0,0,1,1.406-1.927" transform="translate(-186.346 -296.673)" fill="#19538d"/>
        <path id="Trazado_999508" data-name="Trazado 999508" d="M219.583,129.179a1.5,1.5,0,0,1,1.214,2.383l-7.163,7.128a1.619,1.619,0,0,1-1.795-.205,27.049,27.049,0,0,1-3.581-3.713,1.5,1.5,0,0,1,2.284-1.839c.45.292,2.137,2.344,2.443,2.29l5.743-5.729a1.521,1.521,0,0,1,.854-.316" transform="translate(-177.053 -109.91)" fill="#19538d"/>
        <path id="Trazado_999509" data-name="Trazado 999509" d="M219.583,238.964a1.5,1.5,0,0,1,1.214,2.383l-7.163,7.128a1.619,1.619,0,0,1-1.795-.205,27.048,27.048,0,0,1-3.581-3.713,1.5,1.5,0,0,1,2.284-1.839c.45.292,2.137,2.344,2.443,2.29l5.743-5.729a1.521,1.521,0,0,1,.854-.315" transform="translate(-177.053 -203.318)" fill="#19538d"/>
        <path id="Trazado_999510" data-name="Trazado 999510" d="M192.853,451.231a1.5,1.5,0,1,1,.545,2.942,1.5,1.5,0,0,1-.545-2.942" transform="translate(-163.116 -383.891)" fill="#19538d"/>
      </g>
    </g>
  </g>
</svg>
