<svg xmlns="http://www.w3.org/2000/svg" xmlns:xlink="http://www.w3.org/1999/xlink" width="124" height="207.588" viewBox="0 0 124 207.588">
  <defs>
    <clipPath id="clip-path">
      <path id="Trazado_999485" data-name="Trazado 999485" d="M0,0H123.349V207.588H0Z" transform="translate(0 -2)" fill="none"/>
    </clipPath>
  </defs>
  <g id="Grupo_1179958" data-name="Grupo 1179958" transform="translate(-1121.711 -6894.412)">
    <path id="Rectángulo_456313" data-name="Rectángulo 456313" d="M80,0h44a0,0,0,0,1,0,0V80a0,0,0,0,1,0,0H0a0,0,0,0,1,0,0v0A80,80,0,0,1,80,0Z" transform="translate(1121.711 7022)" fill="#dfefff"/>
    <g id="Grupo_1179957" data-name="Grupo 1179957" transform="translate(1122 6896.412)">
      <path id="Trazado_999407" data-name="Trazado 999407" d="M55.189,164.916l1.294,19.031,8.77-.378-.3-19.273Z" transform="translate(3.04 9.049)" fill="#edbc9c"/>
      <g id="Grupo_1179956" data-name="Grupo 1179956">
        <g id="Enmascarar_grupo_1178496" data-name="Enmascarar grupo 1178496" clip-path="url(#clip-path)">
          <path id="Trazado_999408" data-name="Trazado 999408" d="M56.7,180.924l-15.983,7.288a2.533,2.533,0,0,0-1.33,2.84H67.583l-1.048-10.246Z" transform="translate(2.166 9.959)"/>
          <rect id="Rectángulo_456500" data-name="Rectángulo 456500" width="29.048" height="3.032" transform="translate(41.199 201.011)" fill="#fff"/>
          <line id="Línea_3254" data-name="Línea 3254" x2="1.733" y2="1.474" transform="translate(53.948 192.707)" fill="none" stroke="#fff" stroke-linecap="round" stroke-linejoin="round" stroke-width="1.023"/>
          <line id="Línea_3255" data-name="Línea 3255" x2="1.746" y2="1.486" transform="translate(51.622 193.825)" fill="none" stroke="#fff" stroke-linecap="round" stroke-linejoin="round" stroke-width="1.023"/>
          <line id="Línea_3256" data-name="Línea 3256" x2="1.845" y2="1.573" transform="translate(49.289 194.997)" fill="none" stroke="#fff" stroke-linecap="round" stroke-linejoin="round" stroke-width="1.023"/>
          <path id="Trazado_999409" data-name="Trazado 999409" d="M82.252,164.916l1.294,19.031,8.77-.378-.3-19.273Z" transform="translate(4.53 9.049)" fill="#edbc9c"/>
          <path id="Trazado_999410" data-name="Trazado 999410" d="M83.767,180.924l-15.983,7.288a2.533,2.533,0,0,0-1.33,2.84H94.646L93.6,180.807Z" transform="translate(3.657 9.959)"/>
          <rect id="Rectángulo_456501" data-name="Rectángulo 456501" width="29.048" height="3.032" transform="translate(69.751 201.011)" fill="#fff"/>
          <line id="Línea_3257" data-name="Línea 3257" x2="1.733" y2="1.474" transform="translate(82.501 192.707)" fill="none" stroke="#fff" stroke-linecap="round" stroke-linejoin="round" stroke-width="1.023"/>
          <line id="Línea_3258" data-name="Línea 3258" x2="1.746" y2="1.486" transform="translate(80.176 193.825)" fill="none" stroke="#fff" stroke-linecap="round" stroke-linejoin="round" stroke-width="1.023"/>
          <line id="Línea_3259" data-name="Línea 3259" x2="1.845" y2="1.573" transform="translate(77.842 194.997)" fill="none" stroke="#fff" stroke-linecap="round" stroke-linejoin="round" stroke-width="1.023"/>
          <path id="Trazado_999411" data-name="Trazado 999411" d="M60.653,80.176,94.3,82.74l2.793,94.514H80.329l-5.97-71.289-8,30.463,2.724,41.977-15.7.045-5.416-46.416Z" transform="translate(2.642 4.416)" fill="#c4b6a7"/>
          <line id="Línea_3260" data-name="Línea 3260" x2="7.524" y2="4.107" transform="translate(69.477 106.275)" fill="none" stroke="#a69382" stroke-miterlimit="10" stroke-width="0.75"/>
          <path id="Trazado_999412" data-name="Trazado 999412" d="M60.666,52.88l.217,9.277-5.266.068.388-9.985Z" transform="translate(3.063 2.877)" fill="#ebab9d"/>
          <path id="Trazado_999413" data-name="Trazado 999413" d="M60.427,37.925s-7.042,4.63-6.3,16.373l6.846.77Z" transform="translate(2.978 2.089)" fill="#808dff"/>
          <path id="Trazado_999414" data-name="Trazado 999414" d="M77.12,32.972c8.468,0,18.066,2.927,18.066,2.927l-.365,53.862L59.054,87.014,59.433,39.9a2.294,2.294,0,0,1,1.2-2l9.892-4.232s4.868-.706,6.6-.706" transform="translate(3.253 1.816)" fill="#808dff"/>
          <line id="Línea_3261" data-name="Línea 3261" y1="11.348" transform="translate(62.557 45.651)" fill="none" stroke="#667af1" stroke-miterlimit="10" stroke-width="0.764"/>
          <path id="Trazado_999415" data-name="Trazado 999415" d="M89.283,53l2.3,26.642s2.541,5.358,7.034-.215.648-27.343.648-27.343Z" transform="translate(4.918 2.869)" fill="#edbc9c"/>
          <path id="Trazado_999416" data-name="Trazado 999416" d="M87.23,56.535S85.31,36.869,91.535,35.713c6.455-1.2,10.2,10.969,10.8,19.686Z" transform="translate(4.789 1.963)" fill="#808dff"/>
          <path id="Trazado_999417" data-name="Trazado 999417" d="M89.631,55.859l-2.394.18a73.434,73.434,0,0,1-.28-11.41" transform="translate(4.782 2.458)" fill="none" stroke="#667af1" stroke-miterlimit="10" stroke-width="0.764"/>
          <path id="Trazado_999418" data-name="Trazado 999418" d="M75.4,54.828s-1.3-4.7-6-5.155-6.085,3.233-5.2,5.664,3.944,6.387,8.578,4.364S75.4,54.828,75.4,54.828" transform="translate(3.523 2.734)" fill="#edbc9c"/>
          <path id="Trazado_999419" data-name="Trazado 999419" d="M68.088,49.677a29.256,29.256,0,0,0-8.053,2.2.918.918,0,0,0,.587,1.72l6.372-1.191Z" transform="translate(3.279 2.736)" fill="#edbc9c"/>
          <path id="Trazado_999420" data-name="Trazado 999420" d="M93.513,80.86,72.323,59.429l2.619-4.872,20.611,13.1Z" transform="translate(3.983 3.005)" fill="#edbc9c"/>
          <line id="Línea_3262" data-name="Línea 3262" x2="4.294" y2="2.728" transform="translate(95.243 67.93)" fill="none" stroke="#dea888" stroke-miterlimit="10" stroke-width="0.764"/>
          <path id="Trazado_999421" data-name="Trazado 999421" d="M47.383,59.953l8.912,26.455a2.009,2.009,0,0,0,2.166,1.352l21.661-2.846a2.009,2.009,0,0,0,1.636-2.651l-9.174-26.42a2.008,2.008,0,0,0-2.16-1.334l-21.4,2.811a2.009,2.009,0,0,0-1.643,2.633" transform="translate(2.604 3.001)" fill="#121314"/>
          <path id="Trazado_999422" data-name="Trazado 999422" d="M47.8,57.809l-1.132,1.47L80.413,85.336l1.211-1.577Z" transform="translate(2.57 3.184)" fill="#121314"/>
          <path id="Trazado_999423" data-name="Trazado 999423" d="M46.416,61.2l8.912,26.455A2.009,2.009,0,0,0,57.494,89l21.661-2.846a2.009,2.009,0,0,0,1.636-2.651l-9.174-26.42a2.008,2.008,0,0,0-2.16-1.334l-21.4,2.811A2.009,2.009,0,0,0,46.416,61.2" transform="translate(2.551 3.07)" fill="#455157"/>
          <path id="Trazado_999424" data-name="Trazado 999424" d="M58.792,69.146A2.332,2.332,0,1,0,61.108,66.8a2.332,2.332,0,0,0-2.316,2.349" transform="translate(3.238 3.679)" fill="#86969c"/>
          <path id="Trazado_999425" data-name="Trazado 999425" d="M47.373,68.31,49.4,73.783a1.527,1.527,0,0,0,1.63.983,3.38,3.38,0,0,0,2.788-4.355l-.57-1.836A3.38,3.38,0,0,0,49.861,66.2l-1.129.053a1.527,1.527,0,0,0-1.359,2.055" transform="translate(2.604 3.646)" fill="#edbc9c"/>
          <path id="Trazado_999426" data-name="Trazado 999426" d="M68.491.754S88.658-5.08,81.306,15.685L78.041,8.422Z" transform="translate(3.772 0)" fill="#412424"/>
          <path id="Trazado_999427" data-name="Trazado 999427" d="M60.664,8.244s-4.962,2.241.578,9.172l1.77-9.507Z" transform="translate(3.229 0.436)" fill="#412424"/>
          <path id="Trazado_999428" data-name="Trazado 999428" d="M65.662,18.264A3.327,3.327,0,0,1,63.1,22.192a3.291,3.291,0,0,1-3.828-2.671,3.327,3.327,0,0,1,2.561-3.928,3.291,3.291,0,0,1,3.828,2.671" transform="translate(3.261 0.855)" fill="#dea888"/>
          <path id="Trazado_999429" data-name="Trazado 999429" d="M68.774,25.666l1.076,8.681c.371,3.049,2.39,4.45,5.293,4.061,2.477-.333,5.054-1.874,4.612-4.548l-1.28-13.631Z" transform="translate(3.788 1.114)" fill="#edbc9c"/>
          <path id="Trazado_999430" data-name="Trazado 999430" d="M69.69,33.166s9.78-3.549,8.958-12.311c-.246-2.61-9.995,3.922-9.995,3.922Z" transform="translate(3.781 1.115)" fill="#dea888"/>
          <path id="Trazado_999431" data-name="Trazado 999431" d="M72.15,29.954h0c-5.386.954-9-3.364-9.239-5.566L60.6,14.174A9.683,9.683,0,0,1,68.115,3.045c5.14-1.011,11.034,2.3,12.054,7.608l.962,6.8a10.989,10.989,0,0,1-8.982,12.5" transform="translate(3.331 0.158)" fill="#edbc9c"/>
          <path id="Trazado_999432" data-name="Trazado 999432" d="M66.561,20.349l.027,1.991,1.207-.1" transform="translate(3.666 1.121)" fill="none" stroke="#1f2326" stroke-linecap="round" stroke-linejoin="round" stroke-width="0.528"/>
          <path id="Trazado_999433" data-name="Trazado 999433" d="M70.9,14.906s-2.012.076-1.929.916c0,0,.072.567,1.822.465s2.186-.289,2.28-.841-1.239-.65-2.173-.54" transform="translate(3.799 0.819)" fill="#1f2326"/>
          <path id="Trazado_999434" data-name="Trazado 999434" d="M63.288,15.878s1.622-.378,1.853.392c0,0,.143.522-1.28.82s-1.916.166-2.1-.247c-.214-.468.752-.857,1.532-.965" transform="translate(3.4 0.869)" fill="#1f2326"/>
          <path id="Trazado_999435" data-name="Trazado 999435" d="M64.88,19.561a.843.843,0,1,1-.965-.728.859.859,0,0,1,.965.728" transform="translate(3.481 1.037)" fill="#1f2326"/>
          <path id="Trazado_999436" data-name="Trazado 999436" d="M71.791,18.468a.843.843,0,1,1-.965-.728.858.858,0,0,1,.965.728" transform="translate(3.862 0.977)" fill="#1f2326"/>
          <path id="Trazado_999437" data-name="Trazado 999437" d="M66.553,23.7l5.144-.57s-.154,1.807-2.84,1.808a2.446,2.446,0,0,1-2.3-1.239" transform="translate(3.666 1.274)" fill="#fff"/>
          <path id="Trazado_999438" data-name="Trazado 999438" d="M82.357,7.979l-.436,7.666L80.436,17.3c-1.145-.39-2.627-.367-3.577-1.659a8.25,8.25,0,0,1-1.423-3.92l-.034-1.65-4.041,2.982c-.633-1.477-1.348-3.444-1.348-3.444s-.964.068-2.276,3.271c0,0-10.42,3.149-10.415-3.2C57.327,2.976,69.106.716,69.106.716L79.243,4.175Z" transform="translate(3.157 0.039)" fill="#412424"/>
          <path id="Trazado_999439" data-name="Trazado 999439" d="M84.714,16.861A3.589,3.589,0,0,1,81.952,21.1a3.551,3.551,0,0,1-4.131-2.882,3.589,3.589,0,0,1,2.762-4.238,3.551,3.551,0,0,1,4.131,2.882" transform="translate(4.283 0.766)" fill="#edbc9c"/>
          <path id="Trazado_999440" data-name="Trazado 999440" d="M80.138,18.715s-.5-2.582,1.971-2.645" transform="translate(4.412 0.885)" fill="none" stroke="#1f2326" stroke-linecap="round" stroke-linejoin="round" stroke-width="0.539"/>
          <path id="Trazado_999441" data-name="Trazado 999441" d="M67.744,34.681l4.219-1.962,7.444.213,4.365.61s1.627,6.538-9.412,6.9c-8.825.291-6.615-5.763-6.615-5.763" transform="translate(3.718 1.802)" fill="#edbc9c"/>
          <path id="Trazado_999442" data-name="Trazado 999442" d="M5.978,32.339H41.067a1.772,1.772,0,0,0,1.771-1.771V18.878A1.772,1.772,0,0,0,41.067,17.1H5.978a1.771,1.771,0,0,0-1.771,1.773v11.69a1.772,1.772,0,0,0,1.771,1.771" transform="translate(0.232 0.942)" fill="#19538d"/>
          <line id="Línea_3264" data-name="Línea 3264" x1="25.674" transform="translate(10.597 23.885)" fill="none" stroke="#fff" stroke-linecap="round" stroke-linejoin="round" stroke-width="1.076"/>
          <line id="Línea_3265" data-name="Línea 3265" x1="8.791" transform="translate(10.683 27.934)" fill="none" stroke="#fff" stroke-linecap="round" stroke-linejoin="round" stroke-width="1.076"/>
          <path id="Trazado_999443" data-name="Trazado 999443" d="M36.136,29.623v6.89l-8.782-6.89Z" transform="translate(1.507 1.632)" fill="#19538d"/>
        </g>
      </g>
    </g>
  </g>
</svg>
