<svg xmlns="http://www.w3.org/2000/svg" xmlns:xlink="http://www.w3.org/1999/xlink" width="150" height="150" viewBox="0 0 150 150">
  <defs>
    <clipPath id="clip-path">
      <rect id="Rectángulo_455533" data-name="Rectángulo 455533" width="150" height="143.878" fill="#19538d"/>
    </clipPath>
    <clipPath id="clip-path-2">
      <rect id="Rectángulo_456506" data-name="Rectángulo 456506" width="74.88" height="79.107" fill="#19538d"/>
    </clipPath>
  </defs>
  <g id="Grupo_1179866" data-name="Grupo 1179866" transform="translate(-383.746 -8398.999)">
    <circle id="Elipse_13674" data-name="Elipse 13674" cx="63.5" cy="63.5" r="63.5" transform="translate(394.746 8410.999)" fill="#fff"/>
    <g id="Grupo_1179062" data-name="Grupo 1179062" transform="translate(383.746 8399)">
      <rect id="Rectángulo_455531" data-name="Rectángulo 455531" width="150" height="150" transform="translate(0 -0.001)" fill="none"/>
      <g id="Grupo_1179061" data-name="Grupo 1179061" transform="translate(0 3.516)">
        <path id="Trazado_998445" data-name="Trazado 998445" d="M125.035,98.509H96.727l3.837-7.155h28.308Z" transform="translate(16.625 15.701)" fill="#62249e"/>
        <path id="Trazado_998446" data-name="Trazado 998446" d="M2.327,86.893,0,91.629H31.21l2.327-4.736Z" transform="translate(0 14.935)" fill="#19538d"/>
        <path id="Trazado_998447" data-name="Trazado 998447" d="M128.7,33.274H98.809l2.344-5.307h29.889Z" transform="translate(16.983 4.807)" fill="#19538d"/>
        <path id="Trazado_998448" data-name="Trazado 998448" d="M42.747,13.528H3.483L5.827,8.221H45.09Z" transform="translate(0.599 1.413)" fill="#19538d"/>
        <g id="Grupo_1179060" data-name="Grupo 1179060" transform="translate(0)">
          <g id="Grupo_1179059" data-name="Grupo 1179059" clip-path="url(#clip-path)">
            <path id="Trazado_998449" data-name="Trazado 998449" d="M74.551,127.143A63.645,63.645,0,0,1,12.5,49.237H4.028a71.934,71.934,0,0,0,126.553,59.34h-11.1a63.462,63.462,0,0,1-44.933,18.566" transform="translate(0.449 8.463)" fill="#19538d"/>
            <path id="Trazado_998450" data-name="Trazado 998450" d="M110.835,89.59h9.414c.756-1.5,1.443-3.048,2.094-4.61h-9.05c-.761,1.573-1.575,3.112-2.457,4.61" transform="translate(19.05 14.606)" fill="#19538d"/>
            <path id="Trazado_998451" data-name="Trazado 998451" d="M146.016,71.939A71.95,71.95,0,0,0,5.373,50.544h8.733a63.668,63.668,0,1,1,119.04,45.138h8.82a71.622,71.622,0,0,0,4.05-23.743" transform="translate(0.923)" fill="#19538d"/>
            <path id="Trazado_998452" data-name="Trazado 998452" d="M108.562,81.649v3.9h5.121q.928-1.918,1.729-3.9Z" transform="translate(18.659 14.033)" fill="#19538d"/>
            <path id="Trazado_998453" data-name="Trazado 998453" d="M129.262,81.649h-7.111q-.694,1.979-1.5,3.9h8.607Z" transform="translate(20.738 14.033)" fill="#19538d"/>
          </g>
        </g>
        <path id="Trazado_998444" data-name="Trazado 998444" d="M3.515,37.025,0,44.18H21.25l3.516-7.155Z" transform="translate(0 6.364)" fill="#62249e"/>
      </g>
    </g>
    <g id="Grupo_1177669" data-name="Grupo 1177669" transform="translate(418.603 8435.838)">
      <g id="Grupo_1099618" data-name="Grupo 1099618" transform="translate(-0.146 -0.165)">
        <rect id="Rectángulo_401104" data-name="Rectángulo 401104" width="79.898" height="80.861" transform="translate(0)" fill="none"/>
      </g>
      <g id="Grupo_1179972" data-name="Grupo 1179972" transform="translate(2.855 0.835)">
        <g id="Grupo_1179972-2" data-name="Grupo 1179972" clip-path="url(#clip-path-2)">
          <path id="Trazado_999511" data-name="Trazado 999511" d="M111.183,39.6c-1.639-.65-3.145-1.11-4.876-.485l-4.941,10.923c-2.377,2.921-3.8-3.457-5.241-4.716-.768-.254-4.68,1-5.869.948s-1.469-1.325-.956-2.239l4.872-10.589c-1.867-.737-3.5-1.649-4.166-3.675-.791-2.41.61-4.644-.118-6.738-.88-2.534-2.776-3.863-1.658-7.012.788-2.221,3.041-2.972,4.021-4.748,1.27-2.3.34-4.615,2.948-6.618,1.712-1.314,3.011-.943,4.936-1.122,4.162-.387,5.357-4.994,10.075-3.056,1.437.59,2.946,2.4,4.223,2.792,2.481.753,4.909-.43,7.13,1.8,2.009,2.014,1.289,4.875,2.883,6.842,1.456,1.8,3.563,2.53,3.828,5.259s-1.2,3.685-1.944,5.863c-.7,2.052.682,4.362-.12,6.736-.58,1.714-1.691,2.484-3.174,3.358l4.049,9.465c.6,3.812-5.024.547-6.991.822-1.008.927-2.64,4.973-3.768,5.332-1.039.331-1.347-.41-1.738-1.15-1.3-2.455-2.189-5.466-3.408-7.992M107.672,2.612c-1.336.213-3.1,2.2-4.5,2.835-1.672.754-3.087.469-4.783.637-3.464.345-2.6,4.233-4.036,6.645-.9,1.508-3.556,3.031-3.82,4.47-.388,2.115,2.121,4.433,2.183,6.844.045,1.742-.963,3.844-.022,5.428.873,1.469,4.163,1.891,5.619,3.309,1.068,1.04,2.321,4.126,3.656,4.475,1.983.518,4.225-1.113,6.307-1.05,1.9.058,3.835,1.411,5.725,1.114,1.591-.25,2.789-3.474,4-4.612,1.443-1.359,4.666-1.78,5.532-3.237.977-1.644-.272-4.442.171-6.526.4-1.9,2.342-3.828,1.99-5.747-.27-1.474-2.881-2.954-3.763-4.367-1-1.606-.909-3.365-1.544-4.993-1-2.569-4.533-1.44-6.768-2.16-1.99-.642-3.917-3.391-5.944-3.068m16.143,38.863-3.284-7.322c-.8-.182-2.854,3.686-3.565,4.379a5.359,5.359,0,0,1-2.876,1.351l2.153,4.781c.554-.706,2.008-3.734,2.742-3.951.956-.283,4.639.916,4.83.762m-20.726-1.592a5.072,5.072,0,0,1-3.746-1.276c-1.05-.958-1.649-2.754-2.562-3.656-.131-.129-.139-.229-.386-.17l-3.828,8.448c.255.23,3.925-.975,4.9-.519.652.3,1.918,3.34,2.508,4.027Z" transform="translate(-69.169 0)" fill="#19538d"/>
          <path id="Trazado_999512" data-name="Trazado 999512" d="M39.183,252.288c4.18-2.11,8.127-4.965,12.271-7.1,2.07-1.066,4.478-2.109,6.827-1.4,3.322,1,4.007,5.225,1.871,7.706-7.73,4.694-15.211,10-23.33,13.977l-3.256.163-14.757-3.907c-.733-.145-1.387.414-1.925.839.924,1.435,1.719,2.966.522,4.534a17.815,17.815,0,0,1-4.68,2.812,3.032,3.032,0,0,1-3.424-1.7C6.919,262.974,2.6,257.624.377,252.43a2.874,2.874,0,0,1,.537-3.573,28.522,28.522,0,0,1,4.144-2.393,2.981,2.981,0,0,1,3.352,1.121c.329.428.423,1.264,1,1.175,3.141-1.593,6.247-4,9.464-5.378,4.958-2.12,7.8.269,12.46,1.684,1.639.5,4.929,1,6.145,1.827a4.75,4.75,0,0,1,1.7,5.394m-13.031.275a1.309,1.309,0,0,1,.835-2.2c2.327.178,6.568,2.378,8.733,1.889,1.368-.309,1.471-2.332.353-3.156-.752-.555-3.68-1.037-4.827-1.391-2.368-.732-4.9-1.895-7.246-2.479a5.414,5.414,0,0,0-3.849.387l-9.659,5.412,5.09,9.165c.323.192,2.158-1.544,2.771-1.2l15.368,4.094a6.9,6.9,0,0,0,3.916-.626l20.411-12.591a2.172,2.172,0,0,0-.062-3.4c-1.63-1.026-4.185.382-5.681,1.162-3.32,1.73-10.842,7.148-14.019,7.5-2.768.311-8.475-1.191-11.188-2.169a3.825,3.825,0,0,1-.947-.409m-19.833-3.6c-.306-.2-1.047.278-1.363.432-.407.2-2.458,1.318-2.422,1.674l9.329,16.356,3.492-1.9.048-.358Z" transform="translate(0 -190.883)" fill="#19538d"/>
          <path id="Trazado_999513" data-name="Trazado 999513" d="M288.5,11.047V26.273c0,.5-1.167,1.379-1.711,1.478a31.739,31.739,0,0,1-5.231.043,2.753,2.753,0,0,1-1.341-.413,3.709,3.709,0,0,1-.965-1.268V11.047c-1.764.133-3.795-.148-3.308-2.433l6.57-7.936c1.222-1.072,2.031-.712,3.038.323a80.9,80.9,0,0,1,5.494,6.464c.616.814,1.276,1.436.764,2.51-.548,1.15-2.226,1.114-3.311,1.073m-6.7-1.674V25.237h4.145V9.533c0-1.071,1.313-.99,2-1.036.238-.016.461.122.395-.237l-4.383-5.181-4.543,5.181c-.066.358.156.222.394.238.725.047,1.774-.149,2,.876" transform="translate(-217.113 -0.023)" fill="#19538d"/>
          <path id="Trazado_999514" data-name="Trazado 999514" d="M26.973,11.049V26.115a3.711,3.711,0,0,1-.965,1.268,2.752,2.752,0,0,1-1.341.413,31.717,31.717,0,0,1-5.231-.043c-.544-.1-1.711-.977-1.711-1.478V11.049c-1.708.209-4.163-.367-3.269-2.553C16.527,6.125,18.5,3.246,20.674,1c1-1.037,1.819-1.394,3.037-.323l6.539,7.81c.594,2.357-1.433,2.709-3.276,2.56m-6.7-1.515v15.7h4.145V9.375a2.6,2.6,0,0,1,.64-.795A4.047,4.047,0,0,1,26.418,8.5c.238-.016.461.121.394-.238L22.27,3.08,17.887,8.261c-.066.36.157.221.395.237.855.058,1.793-.111,2,1.036" transform="translate(-11.228 -0.024)" fill="#19538d"/>
          <path id="Trazado_999515" data-name="Trazado 999515" d="M135.992,35.371a12.583,12.583,0,0,1,13.263,10.716c1.468,11.081-11.419,18.489-20.162,11.393s-4.314-21.179,6.9-22.109m.159,2.551c-12.9,1-11.634,20.93,1.863,19.719,12.49-1.121,11.058-20.72-1.863-19.719" transform="translate(-97.959 -27.806)" fill="#19538d"/>
          <path id="Trazado_999516" data-name="Trazado 999516" d="M22.484,283.265c-1.093,1.084-2.622-.7-1.544-1.624a1.123,1.123,0,0,1,1.544,1.624" transform="translate(-16.191 -221.426)" fill="#19538d"/>
          <path id="Trazado_999517" data-name="Trazado 999517" d="M163.8,71.989a1.3,1.3,0,0,1,1.394,1.883l-7.929,7.215a1.6,1.6,0,0,1-1.233.038,48.517,48.517,0,0,1-3.586-3.586,1.333,1.333,0,0,1,1.263-1.906c.853.058,2.579,2.612,3.016,2.535Z" transform="translate(-119.88 -56.632)" fill="#19538d"/>
        </g>
      </g>
    </g>
  </g>
</svg>
