<svg xmlns="http://www.w3.org/2000/svg" width="69.323" height="69.323" viewBox="0 0 69.323 69.323">
  <g id="Grupo_1179948" data-name="Grupo 1179948" transform="translate(-304.711 -3054.439)">
    <g id="Grupo_1180403" data-name="Grupo 1180403">
      <path id="Trazado_998855" data-name="Trazado 998855" d="M0,0H69.323V69.323H0Z" transform="translate(304.711 3054.439)" fill="#19538d"/>
      <g id="prueba-en-linea" transform="translate(318.711 3068.439)">
        <path id="Trazado_1000665" data-name="Trazado 1000665" d="M1.383,363.36A3.792,3.792,0,0,1,0,363.1v1.644a3.8,3.8,0,0,0,3.8,3.8H37.52a3.8,3.8,0,0,0,3.8-3.8V363.1a3.8,3.8,0,0,1-1.383.259H1.383Z" transform="translate(0 -333.792)" fill="#fff"/>
        <path id="Trazado_1000666" data-name="Trazado 1000666" d="M134.425,462.327h-3.976V460.6h-12.8v1.727h-3.976a1.211,1.211,0,1,0,0,2.421h20.748a1.211,1.211,0,0,0,0-2.421Z" transform="translate(-103.389 -423.424)" fill="#fff"/>
        <path id="Trazado_1000667" data-name="Trazado 1000667" d="M37.52,0H3.8A3.8,3.8,0,0,0,0,3.8V25.763a1.384,1.384,0,0,0,1.383,1.383H39.942a1.384,1.384,0,0,0,1.383-1.383V3.8A3.8,3.8,0,0,0,37.52,0ZM11.144,21.146a1.211,1.211,0,1,1-1.712,1.712l-.441-.441-.441.441a1.211,1.211,0,1,1-1.712-1.712l.441-.441-.441-.441a1.211,1.211,0,1,1,1.712-1.712l.441.441.441-.441a1.211,1.211,0,1,1,1.712,1.712l-.441.441Zm1.3-8.662L9.847,15.078a1.211,1.211,0,0,1-1.712,0l-1.3-1.3a1.211,1.211,0,1,1,1.712-1.712l.441.441,1.737-1.737a1.211,1.211,0,0,1,1.712,1.712ZM33.63,21.916H16.772a1.211,1.211,0,1,1,0-2.421H33.63a1.211,1.211,0,1,1,0,2.421Zm0-7.781H16.772a1.211,1.211,0,0,1,0-2.421H33.63a1.211,1.211,0,1,1,0,2.421Zm0-7.781H7.695a1.211,1.211,0,0,1,0-2.421H33.63a1.211,1.211,0,1,1,0,2.421Z" transform="translate(0)" fill="#fff"/>
      </g>
    </g>
  </g>
</svg>
