<svg xmlns="http://www.w3.org/2000/svg" xmlns:xlink="http://www.w3.org/1999/xlink" width="150" height="150" viewBox="0 0 150 150">
  <defs>
    <clipPath id="clip-path">
      <rect id="Rectángulo_455533" data-name="Rectángulo 455533" width="150" height="143.878" fill="#19538d"/>
    </clipPath>
    <clipPath id="clip-path-2">
      <rect id="Rectángulo_456507" data-name="Rectángulo 456507" width="74.628" height="74.509" fill="#19538d"/>
    </clipPath>
  </defs>
  <g id="Grupo_1179867" data-name="Grupo 1179867" transform="translate(-383.746 -8398.999)">
    <circle id="Elipse_13674" data-name="Elipse 13674" cx="63.5" cy="63.5" r="63.5" transform="translate(394.746 8410.999)" fill="#fff"/>
    <g id="Grupo_1179062" data-name="Grupo 1179062" transform="translate(383.746 8399)">
      <rect id="Rectángulo_455531" data-name="Rectángulo 455531" width="150" height="150" transform="translate(0 -0.001)" fill="none"/>
      <g id="Grupo_1179061" data-name="Grupo 1179061" transform="translate(0 3.516)">
        <path id="Trazado_998445" data-name="Trazado 998445" d="M125.035,98.509H96.727l3.837-7.155h28.308Z" transform="translate(16.625 15.701)" fill="#62249e"/>
        <path id="Trazado_998446" data-name="Trazado 998446" d="M2.327,86.893,0,91.629H31.21l2.327-4.736Z" transform="translate(0 14.935)" fill="#19538d"/>
        <path id="Trazado_998447" data-name="Trazado 998447" d="M128.7,33.274H98.809l2.344-5.307h29.889Z" transform="translate(16.983 4.807)" fill="#19538d"/>
        <path id="Trazado_998448" data-name="Trazado 998448" d="M42.747,13.528H3.483L5.827,8.221H45.09Z" transform="translate(0.599 1.413)" fill="#19538d"/>
        <g id="Grupo_1179060" data-name="Grupo 1179060" transform="translate(0)">
          <g id="Grupo_1179059" data-name="Grupo 1179059" clip-path="url(#clip-path)">
            <path id="Trazado_998449" data-name="Trazado 998449" d="M74.551,127.143A63.645,63.645,0,0,1,12.5,49.237H4.028a71.934,71.934,0,0,0,126.553,59.34h-11.1a63.462,63.462,0,0,1-44.933,18.566" transform="translate(0.449 8.463)" fill="#19538d"/>
            <path id="Trazado_998450" data-name="Trazado 998450" d="M110.835,89.59h9.414c.756-1.5,1.443-3.048,2.094-4.61h-9.05c-.761,1.573-1.575,3.112-2.457,4.61" transform="translate(19.05 14.606)" fill="#19538d"/>
            <path id="Trazado_998451" data-name="Trazado 998451" d="M146.016,71.939A71.95,71.95,0,0,0,5.373,50.544h8.733a63.668,63.668,0,1,1,119.04,45.138h8.82a71.622,71.622,0,0,0,4.05-23.743" transform="translate(0.923)" fill="#19538d"/>
            <path id="Trazado_998452" data-name="Trazado 998452" d="M108.562,81.649v3.9h5.121q.928-1.918,1.729-3.9Z" transform="translate(18.659 14.033)" fill="#19538d"/>
            <path id="Trazado_998453" data-name="Trazado 998453" d="M129.262,81.649h-7.111q-.694,1.979-1.5,3.9h8.607Z" transform="translate(20.738 14.033)" fill="#19538d"/>
          </g>
        </g>
        <path id="Trazado_998444" data-name="Trazado 998444" d="M3.515,37.025,0,44.18H21.25l3.516-7.155Z" transform="translate(0 6.364)" fill="#62249e"/>
      </g>
    </g>
    <g id="Grupo_1177669" data-name="Grupo 1177669" transform="translate(418.603 8433.838)">
      <g id="Grupo_1099618" data-name="Grupo 1099618" transform="translate(-0.146 -0.165)">
        <rect id="Rectángulo_401104" data-name="Rectángulo 401104" width="79.898" height="80.861" transform="translate(0)" fill="none"/>
      </g>
      <g id="Grupo_1179973" data-name="Grupo 1179973" transform="translate(2.855 1.835)">
        <g id="Grupo_1179973-2" data-name="Grupo 1179973" clip-path="url(#clip-path-2)">
          <path id="Trazado_999518" data-name="Trazado 999518" d="M40.489,17.367a17.616,17.616,0,0,1-.446-2.422c-.1-.994-.449-3.981.131-4.636L57.01.008c.725-.1,1.864.781,2.532,1.173,4.425,2.6,10,5.747,14.105,8.681.333.238.739.4.875.831.3.942-.1,4.2-.263,5.334A26.858,26.858,0,0,1,67,31.085c3.917,1.627,3.3,6.892-.933,7.364a18.98,18.98,0,0,1,3.563,9.224c.6,7.6-.415,16-.035,23.676a4.129,4.129,0,0,1-2.09,2.716c-1.128.518-5.243.459-6.638.351-2.689-.209-3.968-2.427-3.635-4.968H12.586c.338,2.069-.736,4.492-2.937,4.891a35.048,35.048,0,0,1-6.272.057,3.919,3.919,0,0,1-3.2-3.468C.633,63.373-.4,55.152.189,47.674a18.977,18.977,0,0,1,3.563-9.224,3.764,3.764,0,0,1-2.634-6.279c1.811-1.95,4.947-.831,7.286-1.239l4.894-10.3c.809-1.291,3.255-3.269,4.792-3.269Zm31.59-5.549L57.164,2.791,42.449,11.771c-.577.644.787,7.008,1.137,8.156A23.632,23.632,0,0,0,54.181,33.2a16.044,16.044,0,0,0,2.969,1.375c1.319.013,5.552-2.924,6.664-3.885a24.558,24.558,0,0,0,8.265-18.876M15.222,22.327H41.729l-.709-2.489-22.465.008a4.9,4.9,0,0,0-3.332,2.481M8.247,37.208H56.765l-4.482-2.261a27.141,27.141,0,0,1-9.416-10.115L14.208,24.8Zm-1.4-3.72H3.519c-.2,0-.708.53-.783.767-.59,1.844,1.744,2,2.956,1.56Zm57.464.033c-.306.069-.875.49-.882.816l.77,1.556c1.18.2,3.162.334,2.944-1.383-.153-1.2-1.936-1.19-2.832-.989m-6.621,3.688H61.57L60.857,35.8Zm7.75,4.96a6.284,6.284,0,0,0-1.708-2.4L6.456,39.68c-.92.123-1.714,1.709-2.084,2.488H9.1a16.4,16.4,0,0,1,2.557.543,15.142,15.142,0,0,1,10.851,13.1h7.75c-1.276-3.254,2.192-5.124,5.045-4.966,2.623.145,5.461,2.1,4.255,4.966h7.75a15.137,15.137,0,0,1,10.851-13.1,16.4,16.4,0,0,1,2.557-.543ZM20.028,55.809A12.669,12.669,0,0,0,10.848,45.07c-2.469-.653-4.944-.358-7.472-.43l-.555,2.489H8.789a12.767,12.767,0,0,1,1.865.46,9.78,9.78,0,0,1,6.738,8.221Zm29.762,0h2.635a9.8,9.8,0,0,1,6.738-8.221,12.767,12.767,0,0,1,1.865-.46H67l-.555-2.489c-2.536.064-4.992-.212-7.472.43a12.644,12.644,0,0,0-9.179,10.739m-34.877,0a7.287,7.287,0,0,0-4.39-5.608,10.838,10.838,0,0,0-1.888-.592H2.667v3.023l4.108,3.178Zm52.238-6.2H61.183a10.831,10.831,0,0,0-1.888.592,7.287,7.287,0,0,0-4.39,5.608h8.138l4.108-3.178Zm-32.9,3.761c-3.27.462-1.6,2.81,1.315,2.4,3.27-.462,1.6-2.81-1.315-2.4m32.9,2.439c-.976.519-2.63,2.363-3.639,2.484l-57.054,0c-1.214-.113-2.691-1.878-3.79-2.487v3.178c0,1.163,2.088,3.076,3.332,3.024l20.135.009c.174-.047.039-1.112,1.254-1.253,4.8.334,10.165-.433,14.892,0,1.44.131,1.206,1.2,1.4,1.257L63.96,62c1.19-.016,3.191-1.886,3.191-3.01ZM41.109,63.25h-12.4v3.72h12.4ZM26.228,64.49l-20.234.005-1.622-.314a6.76,6.76,0,0,0,3.06,2.287,11.239,11.239,0,0,0,1.668.5H26.228Zm17.361,0v2.48H60.718a11.244,11.244,0,0,0,1.668-.5,6.76,6.76,0,0,0,3.06-2.287l-1.622.314ZM2.667,66.195v4.883c0,.323.669.789,1.017.843a34.04,34.04,0,0,0,5.264.013c1.407-.163,1.169-1.407,1.16-2.484a10.411,10.411,0,0,1-7.441-3.255M67.15,71.077c.275-1.287-.2-3.489,0-4.883a10.321,10.321,0,0,1-7.441,3.255c-.008,1.077-.246,2.321,1.16,2.484a34.04,34.04,0,0,0,5.264-.013,1.388,1.388,0,0,0,1.017-.843" transform="translate(0 -0.001)" fill="#19538d"/>
          <path id="Trazado_999519" data-name="Trazado 999519" d="M228.984,28.416a1.969,1.969,0,0,1,1.237.082c3.319,2.255,6.929,4.1,10.261,6.325.718.48,1.2.556,1.262,1.532.258,4.236-2.98,10.659-5.9,13.65-1.072,1.1-5.014,4.272-6.436,4.274-.928,0-3.674-2-4.491-2.654a21.118,21.118,0,0,1-7.295-12.236c-.2-1.016-.753-3.314.028-4.013Zm10.267,8.5-9.71-5.875-9.757,6.088a18.585,18.585,0,0,0,9.625,14.5c5.637-2.7,9.137-8.59,9.842-14.709" transform="translate(-172.259 -22.482)" fill="#19538d"/>
          <path id="Trazado_999520" data-name="Trazado 999520" d="M261.945,71.877a1.258,1.258,0,0,1,1.418,1.888l-6.587,6.587a1.3,1.3,0,0,1-1.357,0,36.14,36.14,0,0,1-2.867-2.867,1.261,1.261,0,0,1,1.743-1.743c.481.25,1.534,1.834,1.956,1.616,1.116-.784,4.71-5.264,5.694-5.482" transform="translate(-200.108 -56.961)" fill="#19538d"/>
        </g>
      </g>
    </g>
  </g>
</svg>
