<svg xmlns="http://www.w3.org/2000/svg" xmlns:xlink="http://www.w3.org/1999/xlink" width="133.45" height="133.45" viewBox="0 0 133.45 133.45">
  <defs>
    <clipPath id="clip-path">
      <rect id="Rectángulo_455533" data-name="Rectángulo 455533" width="133.292" height="127.766" fill="#19538d"/>
    </clipPath>
    <clipPath id="clip-path-2">
      <rect id="Rectángulo_456365" data-name="Rectángulo 456365" width="73.808" height="73.667" fill="none"/>
    </clipPath>
  </defs>
  <g id="Grupo_1179968" data-name="Grupo 1179968" transform="translate(-383.649 -8398.903)">
    <circle id="Elipse_13674" data-name="Elipse 13674" cx="57.55" cy="57.55" r="57.55" transform="translate(391.989 8408.912)" fill="#19538d"/>
    <g id="Grupo_1179062" data-name="Grupo 1179062" transform="translate(383.649 8398.903)">
      <rect id="Rectángulo_455531" data-name="Rectángulo 455531" width="133.45" height="133.45" transform="translate(0 0)" fill="none"/>
      <g id="Grupo_1179061" data-name="Grupo 1179061" transform="translate(0.078 3.252)">
        <path id="Trazado_998445" data-name="Trazado 998445" d="M122.283,97.814H96.727l3.464-6.46h25.555Z" transform="translate(3.481 3.63)" fill="#19538d"/>
        <path id="Trazado_998446" data-name="Trazado 998446" d="M2.1,86.893,0,91.168H28.175l2.1-4.275Z" transform="translate(0 3.48)" fill="#19538d"/>
        <path id="Trazado_998447" data-name="Trazado 998447" d="M125.792,32.758H98.809l2.116-4.791h26.983Z" transform="translate(3.602 1.118)" fill="#19538d"/>
        <path id="Trazado_998448" data-name="Trazado 998448" d="M38.929,13.012H3.483L5.6,8.221H41.045Z" transform="translate(0.202 0.476)" fill="#19538d"/>
        <g id="Grupo_1179060" data-name="Grupo 1179060" transform="translate(0)">
          <g id="Grupo_1179059" data-name="Grupo 1179059" clip-path="url(#clip-path)">
            <path id="Trazado_998449" data-name="Trazado 998449" d="M66.538,118.419A56.514,56.514,0,0,1,11.4,49.237H3.87a63.923,63.923,0,0,0,112.457,52.695h-9.86a56.412,56.412,0,0,1-39.928,16.487" transform="translate(0.108 2.001)" fill="#19538d"/>
            <path id="Trazado_998450" data-name="Trazado 998450" d="M110.835,89.074H119.2c.672-1.336,1.282-2.707,1.861-4.094h-8.042c-.676,1.4-1.4,2.764-2.184,4.094" transform="translate(4.583 3.454)" fill="#19538d"/>
            <path id="Trazado_998451" data-name="Trazado 998451" d="M130.35,63.883a63.942,63.942,0,0,0-124.977-19h7.76A56.572,56.572,0,1,1,118.914,84.967h7.837a63.562,63.562,0,0,0,3.6-21.084" transform="translate(0.222)" fill="#19538d"/>
            <path id="Trazado_998452" data-name="Trazado 998452" d="M108.562,81.649v3.466h4.551q.825-1.7,1.536-3.466Z" transform="translate(4.489 3.318)" fill="#19538d"/>
            <path id="Trazado_998453" data-name="Trazado 998453" d="M128.3,81.649h-6.319q-.617,1.758-1.33,3.466H128.3Z" transform="translate(4.989 3.318)" fill="#19538d"/>
          </g>
        </g>
        <path id="Trazado_998444" data-name="Trazado 998444" d="M3.174,37.025,0,43.485H19.184l3.174-6.46Z" transform="translate(0 1.471)" fill="#19538d"/>
      </g>
    </g>
    <g id="Grupo_1177669" data-name="Grupo 1177669" transform="translate(410.931 8426.427)">
      <g id="Grupo_1099618" data-name="Grupo 1099618" transform="translate(0 0)">
        <rect id="Rectángulo_401104" data-name="Rectángulo 401104" width="78.107" height="79.048" transform="translate(0)" fill="none"/>
      </g>
      <g id="Grupo_1179874" data-name="Grupo 1179874" transform="translate(2.474 4.147)">
        <g id="Grupo_1179874-2" data-name="Grupo 1179874" clip-path="url(#clip-path-2)">
          <path id="Trazado_999001" data-name="Trazado 999001" d="M2.759,59.405A3.834,3.834,0,0,1,.006,56.361L0,3.341A3.572,3.572,0,0,1,2.794.041L61.09,0a3.6,3.6,0,0,1,3.18,2.915l.037,8.576A18.441,18.441,0,0,1,73.064,22.2a17.614,17.614,0,0,1-8.929,20.868c-.068.091.175.217.256.262.437.238,3.481,1.815,3.686,1.815H73.8V61.781H68.077c-.21,0-3.115,1.67-3.753,1.9a9.036,9.036,0,0,1-2.42.48c-.079,2.606.475,4.97-1.217,7.175a6.019,6.019,0,0,1-9.561-.059c-1.594-2.151-1.04-4.614-1.125-7.119-3.031.491-5.447-1.667-4.613-4.751ZM2.387,3.347V9.51L57.37,9.5A18.3,18.3,0,0,1,61.9,10.549v-7.2c0-.493-.895-1.063-1.406-.973H3.793a1.38,1.38,0,0,0-1.406.973m44.488,8.539H2.387V56.064a1.609,1.609,0,0,0,.967.965H45.386A3.9,3.9,0,0,1,45.6,54.2c.122-.248.549-.615.518-.788-.02-.113-.362-.372-.467-.583a3.607,3.607,0,0,1-.1-3.28c.123-.263.591-.744.566-.888-.02-.113-.362-.372-.467-.584a3.6,3.6,0,0,1,.569-4.247l1.247-.905c-10.046-5.148-12.481-18.7-5.054-27.247a25.436,25.436,0,0,1,4.459-3.791m7.856.044A15.452,15.452,0,1,0,69.367,35,15.476,15.476,0,0,0,54.73,11.93M50.147,45.15c-3.231-.588-3.451,2.837-.147,2.376a9.513,9.513,0,0,1,.147-2.376m21.277,2.375H67.481c-.182,0-2.727-1.444-3.247-1.659-3.283-1.357-7.44-.523-10.967-.644a1.148,1.148,0,0,0-.878,1.05,38.832,38.832,0,0,0,0,6.069,1.214,1.214,0,0,0,2.033.786,5.352,5.352,0,0,0,.338-.627V47.525h6.621c.1,0,.767,1.255,1.113,1.562a5.027,5.027,0,0,0,1.565.814h2.6v2.376h-3.05c-.387,0-1.263-.552-1.711-.594v10.1a10.857,10.857,0,0,0,2.332-.717c.522-.215,3.065-1.659,3.247-1.659h3.943ZM50,49.9c-3.16-.508-3.173,2.88,0,2.376Zm9.522,0H57.141c-.071.881.1,1.885,0,2.748-.054.486-.386,1-.4,1.359-.054,1.057.889,1.665.09,3.376-.121.259-.555.71-.568.78-.027.15.444.621.568.886,1.4,2.99-1.434,5.728-4.447,5.107v4.084A6.507,6.507,0,0,0,53,69.7a3.573,3.573,0,0,0,5.9,0,6.506,6.506,0,0,0,.62-1.46Zm-4.762,5.792a4.1,4.1,0,0,1-3.028-.319c-.291-.174-.533-.613-.8-.691a10.159,10.159,0,0,0-2.056-.034,1.187,1.187,0,0,0-.136,2.371,30.476,30.476,0,0,0,4.755.013,1.246,1.246,0,0,0,1.261-1.34m-.338,4.05A2.083,2.083,0,0,0,53.5,59.4a30.474,30.474,0,0,0-4.755.013,1.181,1.181,0,0,0,0,2.357,30.376,30.376,0,0,0,4.89,0,1.209,1.209,0,0,0,.787-2.028" fill="#fff"/>
          <path id="Trazado_999002" data-name="Trazado 999002" d="M35.935,227.49h-11.9V215.61h11.9Zm-2.381-9.5H26.413v7.128h7.142Z" transform="translate(-19.264 -172.837)" fill="#fff"/>
          <path id="Trazado_999003" data-name="Trazado 999003" d="M35.935,83.77h-11.9V71.89h11.9Zm-2.381-9.5H26.413v7.128h7.142Z" transform="translate(-19.264 -57.628)" fill="#fff"/>
          <path id="Trazado_999004" data-name="Trazado 999004" d="M35.935,155.63h-11.9V143.75h11.9Zm-2.381-9.5H26.413v7.128h7.142Z" transform="translate(-19.264 -115.232)" fill="#fff"/>
          <rect id="Rectángulo_456348" data-name="Rectángulo 456348" width="16.664" height="2.376" transform="translate(19.051 14.262)" fill="#fff"/>
          <rect id="Rectángulo_456349" data-name="Rectángulo 456349" width="16.664" height="2.376" transform="translate(19.051 38.021)" fill="#fff"/>
          <rect id="Rectángulo_456350" data-name="Rectángulo 456350" width="16.664" height="2.376" transform="translate(19.051 28.517)" fill="#fff"/>
          <rect id="Rectángulo_456351" data-name="Rectángulo 456351" width="16.664" height="2.376" transform="translate(19.051 23.766)" fill="#fff"/>
          <rect id="Rectángulo_456352" data-name="Rectángulo 456352" width="11.903" height="2.376" transform="translate(19.051 19.014)" fill="#fff"/>
          <rect id="Rectángulo_456353" data-name="Rectángulo 456353" width="11.903" height="2.376" transform="translate(23.812 42.773)" fill="#fff"/>
          <rect id="Rectángulo_456354" data-name="Rectángulo 456354" width="11.903" height="2.376" transform="translate(19.051 33.27)" fill="#fff"/>
          <rect id="Rectángulo_456355" data-name="Rectángulo 456355" width="11.903" height="2.376" transform="translate(23.812 47.525)" fill="#fff"/>
          <rect id="Rectángulo_456356" data-name="Rectángulo 456356" width="11.903" height="2.376" transform="translate(23.812 52.277)" fill="#fff"/>
          <rect id="Rectángulo_456357" data-name="Rectángulo 456357" width="2.381" height="2.376" transform="translate(33.335 33.27)" fill="#fff"/>
          <rect id="Rectángulo_456358" data-name="Rectángulo 456358" width="2.381" height="2.376" transform="translate(19.051 42.773)" fill="#fff"/>
          <rect id="Rectángulo_456359" data-name="Rectángulo 456359" width="2.381" height="2.376" transform="translate(19.051 47.525)" fill="#fff"/>
          <rect id="Rectángulo_456360" data-name="Rectángulo 456360" width="2.381" height="2.376" transform="translate(33.335 19.014)" fill="#fff"/>
          <rect id="Rectángulo_456361" data-name="Rectángulo 456361" width="2.381" height="2.376" transform="translate(19.051 52.277)" fill="#fff"/>
          <rect id="Rectángulo_456362" data-name="Rectángulo 456362" width="2.381" height="2.376" transform="translate(4.768 4.758)" fill="#fff"/>
          <rect id="Rectángulo_456363" data-name="Rectángulo 456363" width="2.381" height="2.376" transform="translate(9.529 4.758)" fill="#fff"/>
          <rect id="Rectángulo_456364" data-name="Rectángulo 456364" width="2.381" height="2.376" transform="translate(14.29 4.758)" fill="#fff"/>
          <path id="Trazado_999005" data-name="Trazado 999005" d="M227.6,71.839c10.58-1.026,18.216,9.964,13,19.361a13.154,13.154,0,0,1-23.017-.1c-4.362-8.038.878-18.378,10.016-19.264m.745,2.377c-13.907.988-12.521,22.035,1.293,21.337,14.143-.715,12.941-22.348-1.293-21.337" transform="translate(-173.167 -57.534)" fill="#fff"/>
          <path id="Trazado_999006" data-name="Trazado 999006" d="M260.257,110.131c.316-.083,1.879,1.317,1.612,1.763-1.269.83-9.7,10.362-10.344,10.036-.179-.091-2.688-2.6-2.837-2.824-.4-.6.92-1.5,1.422-1.868.479,0,1.252,1.511,1.71,1.276Z" transform="translate(-199.292 -88.28)" fill="#fff"/>
        </g>
      </g>
    </g>
  </g>
</svg>
