<svg xmlns="http://www.w3.org/2000/svg" xmlns:xlink="http://www.w3.org/1999/xlink" width="69.323" height="69.323" viewBox="0 0 69.323 69.323">
  <defs>
    <clipPath id="clip-path">
      <rect id="Rectángulo_456495" data-name="Rectángulo 456495" width="42.446" height="39.513" fill="#fff"/>
    </clipPath>
  </defs>
  <g id="Grupo_1179950" data-name="Grupo 1179950" transform="translate(-304.677 -3054)">
    <path id="Trazado_998855" data-name="Trazado 998855" d="M0,0H69.323V69.323H0Z" transform="translate(304.677 3054)" fill="#19538d"/>
    <g id="Grupo_1179947" data-name="Grupo 1179947" transform="translate(318.677 3068.904)">
      <g id="Grupo_1179946" data-name="Grupo 1179946" clip-path="url(#clip-path)">
        <path id="Trazado_999394" data-name="Trazado 999394" d="M40.858,25.619,29.128,22.062a3.524,3.524,0,0,0-4.144,4.052l2.745,9.329H5.279A5.7,5.7,0,0,1,0,30.623V4.732A5.588,5.588,0,0,1,4.816,0L36.129,0c2.015.09,4.729,2.618,4.729,4.636ZM38.2,9.276V4.915a3.006,3.006,0,0,0-2.434-2.248L5.275,2.661A2.952,2.952,0,0,0,2.662,4.915V9.276Z" transform="translate(0 0.001)" fill="#fff"/>
        <path id="Trazado_999395" data-name="Trazado 999395" d="M150.488,133.116a2.193,2.193,0,0,1,.732.141c4.1.985,8.218,2.7,12.321,3.747a1.343,1.343,0,0,1,.309,2.5c-1.525.834-4.058,1.106-5.631,1.9-.527.265-.622.6-.827,1.1-.445,1.085-1.428,5.02-2.028,5.593a1.353,1.353,0,0,1-2.212-.616c-1.034-4.14-2.827-8.331-3.792-12.459a2.439,2.439,0,0,1-.13-.587,1.437,1.437,0,0,1,1.258-1.321" transform="translate(-122.136 -108.946)" fill="#fff"/>
        <path id="Trazado_999396" data-name="Trazado 999396" d="M33.826,26.278a1.2,1.2,0,1,1,.507,2.347,1.2,1.2,0,0,1-.507-2.347" transform="translate(-26.966 -21.479)" fill="#fff"/>
        <path id="Trazado_999397" data-name="Trazado 999397" d="M79.759,26.325a1.181,1.181,0,0,1,.881,2.166c-1.615,1-2.592-1.853-.881-2.166" transform="translate(-64.542 -21.525)" fill="#fff"/>
        <path id="Trazado_999398" data-name="Trazado 999398" d="M56.747,26.238a1.2,1.2,0,1,1,.429,2.363,1.2,1.2,0,0,1-.429-2.363" transform="translate(-45.757 -21.441)" fill="#fff"/>
      </g>
    </g>
  </g>
</svg>
