<svg xmlns="http://www.w3.org/2000/svg" xmlns:xlink="http://www.w3.org/1999/xlink" width="124" height="208" viewBox="0 0 124 208">
  <defs>
    <clipPath id="clip-path">
      <path id="Trazado_999485" data-name="Trazado 999485" d="M0,0H123.349V207.588H0Z" transform="translate(0 -2)" fill="none"/>
    </clipPath>
    <clipPath id="clip-path-2">
      <rect id="Rectángulo_456803" data-name="Rectángulo 456803" width="64.768" height="202.376" fill="none"/>
    </clipPath>
  </defs>
  <g id="Grupo_1180344" data-name="Grupo 1180344" transform="translate(-1121.711 -3285)">
    <g id="Grupo_1180335" data-name="Grupo 1180335" transform="translate(0 -3609.178)">
      <path id="Rectángulo_456313" data-name="Rectángulo 456313" d="M80,0h44a0,0,0,0,1,0,0V80a0,0,0,0,1,0,0H0a0,0,0,0,1,0,0v0A80,80,0,0,1,80,0Z" transform="translate(1121.711 7022)" fill="#dfefff"/>
      <g id="Grupo_1179957" data-name="Grupo 1179957" transform="translate(1122 6896.412)">
        <path id="Trazado_999407" data-name="Trazado 999407" d="M55.189,164.916l1.294,19.031,8.77-.378-.3-19.273Z" transform="translate(3.04 9.049)" fill="#edbc9c"/>
        <g id="Grupo_1179956" data-name="Grupo 1179956">
          <g id="Grupo_1178496" data-name="Grupo 1178496" clip-path="url(#clip-path)">
            <path id="Trazado_999408" data-name="Trazado 999408" d="M56.7,180.924l-15.983,7.288a2.533,2.533,0,0,0-1.33,2.84H67.583l-1.048-10.246Z" transform="translate(2.166 9.959)"/>
            <rect id="Rectángulo_456500" data-name="Rectángulo 456500" width="29.048" height="3.032" transform="translate(41.199 201.011)" fill="#fff"/>
            <line id="Línea_3254" data-name="Línea 3254" x2="1.733" y2="1.474" transform="translate(53.948 192.707)" fill="none" stroke="#fff" stroke-linecap="round" stroke-linejoin="round" stroke-width="1.023"/>
            <line id="Línea_3255" data-name="Línea 3255" x2="1.746" y2="1.486" transform="translate(51.622 193.825)" fill="none" stroke="#fff" stroke-linecap="round" stroke-linejoin="round" stroke-width="1.023"/>
            <line id="Línea_3256" data-name="Línea 3256" x2="1.845" y2="1.573" transform="translate(49.289 194.997)" fill="none" stroke="#fff" stroke-linecap="round" stroke-linejoin="round" stroke-width="1.023"/>
            <path id="Trazado_999409" data-name="Trazado 999409" d="M82.252,164.916l1.294,19.031,8.77-.378-.3-19.273Z" transform="translate(4.53 9.049)" fill="#edbc9c"/>
            <path id="Trazado_999410" data-name="Trazado 999410" d="M83.767,180.924l-15.983,7.288a2.533,2.533,0,0,0-1.33,2.84H94.646L93.6,180.807Z" transform="translate(3.657 9.959)"/>
            <rect id="Rectángulo_456501" data-name="Rectángulo 456501" width="29.048" height="3.032" transform="translate(69.751 201.011)" fill="#fff"/>
            <line id="Línea_3257" data-name="Línea 3257" x2="1.733" y2="1.474" transform="translate(82.501 192.707)" fill="none" stroke="#fff" stroke-linecap="round" stroke-linejoin="round" stroke-width="1.023"/>
            <line id="Línea_3258" data-name="Línea 3258" x2="1.746" y2="1.486" transform="translate(80.176 193.825)" fill="none" stroke="#fff" stroke-linecap="round" stroke-linejoin="round" stroke-width="1.023"/>
            <line id="Línea_3259" data-name="Línea 3259" x2="1.845" y2="1.573" transform="translate(77.842 194.997)" fill="none" stroke="#fff" stroke-linecap="round" stroke-linejoin="round" stroke-width="1.023"/>
            <path id="Trazado_999411" data-name="Trazado 999411" d="M60.653,80.176,94.3,82.74l2.793,94.514H80.329l-5.97-71.289-8,30.463,2.724,41.977-15.7.045-5.416-46.416Z" transform="translate(2.642 4.416)" fill="#c4b6a7"/>
            <line id="Línea_3260" data-name="Línea 3260" x2="7.524" y2="4.107" transform="translate(69.477 106.275)" fill="none" stroke="#a69382" stroke-miterlimit="10" stroke-width="0.75"/>
            <path id="Trazado_999412" data-name="Trazado 999412" d="M60.666,52.88l.217,9.277-5.266.068.388-9.985Z" transform="translate(3.063 2.877)" fill="#ebab9d"/>
            <path id="Trazado_999413" data-name="Trazado 999413" d="M60.427,37.925s-7.042,4.63-6.3,16.373l6.846.77Z" transform="translate(2.978 2.089)" fill="#808dff"/>
            <path id="Trazado_999414" data-name="Trazado 999414" d="M77.12,32.972c8.468,0,18.066,2.927,18.066,2.927l-.365,53.862L59.054,87.014,59.433,39.9a2.294,2.294,0,0,1,1.2-2l9.892-4.232s4.868-.706,6.6-.706" transform="translate(3.253 1.816)" fill="#808dff"/>
            <line id="Línea_3261" data-name="Línea 3261" y1="11.348" transform="translate(62.557 45.651)" fill="none" stroke="#667af1" stroke-miterlimit="10" stroke-width="0.764"/>
            <path id="Trazado_999415" data-name="Trazado 999415" d="M89.283,53l2.3,26.642s2.541,5.358,7.034-.215.648-27.343.648-27.343Z" transform="translate(4.918 2.869)" fill="#edbc9c"/>
            <path id="Trazado_999416" data-name="Trazado 999416" d="M87.23,56.535S85.31,36.869,91.535,35.713c6.455-1.2,10.2,10.969,10.8,19.686Z" transform="translate(4.789 1.963)" fill="#808dff"/>
            <path id="Trazado_999417" data-name="Trazado 999417" d="M89.631,55.859l-2.394.18a73.434,73.434,0,0,1-.28-11.41" transform="translate(4.782 2.458)" fill="none" stroke="#667af1" stroke-miterlimit="10" stroke-width="0.764"/>
            <path id="Trazado_999418" data-name="Trazado 999418" d="M75.4,54.828s-1.3-4.7-6-5.155-6.085,3.233-5.2,5.664,3.944,6.387,8.578,4.364S75.4,54.828,75.4,54.828" transform="translate(3.523 2.734)" fill="#edbc9c"/>
            <path id="Trazado_999419" data-name="Trazado 999419" d="M68.088,49.677a29.256,29.256,0,0,0-8.053,2.2.918.918,0,0,0,.587,1.72l6.372-1.191Z" transform="translate(3.279 2.736)" fill="#edbc9c"/>
            <path id="Trazado_999420" data-name="Trazado 999420" d="M93.513,80.86,72.323,59.429l2.619-4.872,20.611,13.1Z" transform="translate(3.983 3.005)" fill="#edbc9c"/>
            <line id="Línea_3262" data-name="Línea 3262" x2="4.294" y2="2.728" transform="translate(95.243 67.93)" fill="none" stroke="#dea888" stroke-miterlimit="10" stroke-width="0.764"/>
            <path id="Trazado_999421" data-name="Trazado 999421" d="M47.383,59.953l8.912,26.455a2.009,2.009,0,0,0,2.166,1.352l21.661-2.846a2.009,2.009,0,0,0,1.636-2.651l-9.174-26.42a2.008,2.008,0,0,0-2.16-1.334l-21.4,2.811a2.009,2.009,0,0,0-1.643,2.633" transform="translate(2.604 3.001)" fill="#121314"/>
            <path id="Trazado_999422" data-name="Trazado 999422" d="M47.8,57.809l-1.132,1.47L80.413,85.336l1.211-1.577Z" transform="translate(2.57 3.184)" fill="#121314"/>
            <path id="Trazado_999423" data-name="Trazado 999423" d="M46.416,61.2l8.912,26.455A2.009,2.009,0,0,0,57.494,89l21.661-2.846a2.009,2.009,0,0,0,1.636-2.651l-9.174-26.42a2.008,2.008,0,0,0-2.16-1.334l-21.4,2.811A2.009,2.009,0,0,0,46.416,61.2" transform="translate(2.551 3.07)" fill="#455157"/>
            <path id="Trazado_999424" data-name="Trazado 999424" d="M58.792,69.146A2.332,2.332,0,1,0,61.108,66.8a2.332,2.332,0,0,0-2.316,2.349" transform="translate(3.238 3.679)" fill="#86969c"/>
            <path id="Trazado_999425" data-name="Trazado 999425" d="M47.373,68.31,49.4,73.783a1.527,1.527,0,0,0,1.63.983,3.38,3.38,0,0,0,2.788-4.355l-.57-1.836A3.38,3.38,0,0,0,49.861,66.2l-1.129.053a1.527,1.527,0,0,0-1.359,2.055" transform="translate(2.604 3.646)" fill="#edbc9c"/>
            <path id="Trazado_999426" data-name="Trazado 999426" d="M68.491.754S88.658-5.08,81.306,15.685L78.041,8.422Z" transform="translate(3.772 0)" fill="#412424"/>
            <path id="Trazado_999427" data-name="Trazado 999427" d="M60.664,8.244s-4.962,2.241.578,9.172l1.77-9.507Z" transform="translate(3.229 0.436)" fill="#412424"/>
            <path id="Trazado_999428" data-name="Trazado 999428" d="M65.662,18.264A3.327,3.327,0,0,1,63.1,22.192a3.291,3.291,0,0,1-3.828-2.671,3.327,3.327,0,0,1,2.561-3.928,3.291,3.291,0,0,1,3.828,2.671" transform="translate(3.261 0.855)" fill="#dea888"/>
            <path id="Trazado_999429" data-name="Trazado 999429" d="M68.774,25.666l1.076,8.681c.371,3.049,2.39,4.45,5.293,4.061,2.477-.333,5.054-1.874,4.612-4.548l-1.28-13.631Z" transform="translate(3.788 1.114)" fill="#edbc9c"/>
            <path id="Trazado_999430" data-name="Trazado 999430" d="M69.69,33.166s9.78-3.549,8.958-12.311c-.246-2.61-9.995,3.922-9.995,3.922Z" transform="translate(3.781 1.115)" fill="#dea888"/>
            <path id="Trazado_999431" data-name="Trazado 999431" d="M72.15,29.954h0c-5.386.954-9-3.364-9.239-5.566L60.6,14.174A9.683,9.683,0,0,1,68.115,3.045c5.14-1.011,11.034,2.3,12.054,7.608l.962,6.8a10.989,10.989,0,0,1-8.982,12.5" transform="translate(3.331 0.158)" fill="#edbc9c"/>
            <path id="Trazado_999432" data-name="Trazado 999432" d="M66.561,20.349l.027,1.991,1.207-.1" transform="translate(3.666 1.121)" fill="none" stroke="#1f2326" stroke-linecap="round" stroke-linejoin="round" stroke-width="0.528"/>
            <path id="Trazado_999433" data-name="Trazado 999433" d="M70.9,14.906s-2.012.076-1.929.916c0,0,.072.567,1.822.465s2.186-.289,2.28-.841-1.239-.65-2.173-.54" transform="translate(3.799 0.819)" fill="#1f2326"/>
            <path id="Trazado_999434" data-name="Trazado 999434" d="M63.288,15.878s1.622-.378,1.853.392c0,0,.143.522-1.28.82s-1.916.166-2.1-.247c-.214-.468.752-.857,1.532-.965" transform="translate(3.4 0.869)" fill="#1f2326"/>
            <path id="Trazado_999435" data-name="Trazado 999435" d="M64.88,19.561a.843.843,0,1,1-.965-.728.859.859,0,0,1,.965.728" transform="translate(3.481 1.037)" fill="#1f2326"/>
            <path id="Trazado_999436" data-name="Trazado 999436" d="M71.791,18.468a.843.843,0,1,1-.965-.728.858.858,0,0,1,.965.728" transform="translate(3.862 0.977)" fill="#1f2326"/>
            <path id="Trazado_999437" data-name="Trazado 999437" d="M66.553,23.7l5.144-.57s-.154,1.807-2.84,1.808a2.446,2.446,0,0,1-2.3-1.239" transform="translate(3.666 1.274)" fill="#fff"/>
            <path id="Trazado_999438" data-name="Trazado 999438" d="M82.357,7.979l-.436,7.666L80.436,17.3c-1.145-.39-2.627-.367-3.577-1.659a8.25,8.25,0,0,1-1.423-3.92l-.034-1.65-4.041,2.982c-.633-1.477-1.348-3.444-1.348-3.444s-.964.068-2.276,3.271c0,0-10.42,3.149-10.415-3.2C57.327,2.976,69.106.716,69.106.716L79.243,4.175Z" transform="translate(3.157 0.039)" fill="#412424"/>
            <path id="Trazado_999439" data-name="Trazado 999439" d="M84.714,16.861A3.589,3.589,0,0,1,81.952,21.1a3.551,3.551,0,0,1-4.131-2.882,3.589,3.589,0,0,1,2.762-4.238,3.551,3.551,0,0,1,4.131,2.882" transform="translate(4.283 0.766)" fill="#edbc9c"/>
            <path id="Trazado_999440" data-name="Trazado 999440" d="M80.138,18.715s-.5-2.582,1.971-2.645" transform="translate(4.412 0.885)" fill="none" stroke="#1f2326" stroke-linecap="round" stroke-linejoin="round" stroke-width="0.539"/>
            <path id="Trazado_999441" data-name="Trazado 999441" d="M67.744,34.681l4.219-1.962,7.444.213,4.365.61s1.627,6.538-9.412,6.9c-8.825.291-6.615-5.763-6.615-5.763" transform="translate(3.718 1.802)" fill="#edbc9c"/>
          </g>
        </g>
      </g>
      <rect id="Rectángulo_456801" data-name="Rectángulo 456801" width="124" height="208" transform="translate(1121.711 6894.178)" fill="#fff"/>
    </g>
    <path id="Rectángulo_456799" data-name="Rectángulo 456799" d="M80,0h44a0,0,0,0,1,0,0V80a0,0,0,0,1,0,0H0a0,0,0,0,1,0,0v0A80,80,0,0,1,80,0Z" transform="translate(1121.711 3412.822)" fill="#dfefff"/>
    <g id="Grupo_1180337" data-name="Grupo 1180337" transform="translate(15 -8)">
      <path id="Trazado_1000311" data-name="Trazado 1000311" d="M5.978,32.339H41.067a1.772,1.772,0,0,0,1.771-1.771V18.878A1.772,1.772,0,0,0,41.067,17.1H5.978a1.771,1.771,0,0,0-1.771,1.773v11.69a1.772,1.772,0,0,0,1.771,1.771" transform="translate(1122.231 3288.176)" fill="#19538d"/>
      <line id="Línea_3355" data-name="Línea 3355" x1="25.674" transform="translate(1132.598 3311.119)" fill="none" stroke="#fff" stroke-linecap="round" stroke-linejoin="round" stroke-width="1.076"/>
      <line id="Línea_3356" data-name="Línea 3356" x1="8.791" transform="translate(1132.683 3315.168)" fill="none" stroke="#fff" stroke-linecap="round" stroke-linejoin="round" stroke-width="1.076"/>
      <path id="Trazado_1000312" data-name="Trazado 1000312" d="M36.136,29.623v6.89l-8.782-6.89Z" transform="translate(1123.507 3288.865)" fill="#19538d"/>
    </g>
    <g id="Grupo_1180340" data-name="Grupo 1180340" transform="translate(1133.081 3289.138)">
      <g id="Grupo_1180343" data-name="Grupo 1180343" transform="translate(39.387 -3.918)">
        <path id="Trazado_1000349" data-name="Trazado 1000349" d="M32.087,213.1h-9.7L6.356,221.675l27.571-.328Z" transform="translate(25.847 -19.917)" fill="#101010"/>
        <path id="Trazado_1000350" data-name="Trazado 1000350" d="M33.918,225.219l-27.572.329-.1-3.021,27.572-.329Z" transform="translate(25.953 -20.767)" fill="#b0c0d2"/>
        <line id="Línea_3360" data-name="Línea 3360" x2="3.177" y2="0.868" transform="translate(41.537 196.34)" fill="none" stroke="#fff" stroke-linecap="round" stroke-linejoin="round" stroke-width="0.673"/>
        <line id="Línea_3361" data-name="Línea 3361" x2="3.177" y2="0.868" transform="translate(44.642 194.746)" fill="none" stroke="#fff" stroke-linecap="round" stroke-linejoin="round" stroke-width="0.673"/>
        <path id="Trazado_1000351" data-name="Trazado 1000351" d="M8.386,198.9h9.883l1.386,12.868H9.772Z" transform="translate(38.28 -18.59)" fill="#ecaea4"/>
        <path id="Trazado_1000352" data-name="Trazado 1000352" d="M61.6,213.1h-9.7l-16.035,8.578,27.571-.328Z" transform="translate(-30.426 -19.917)" fill="#101010"/>
        <path id="Trazado_1000353" data-name="Trazado 1000353" d="M63.433,225.219l-27.572.329-.1-3.021,27.571-.329Z" transform="translate(-30.32 -20.767)" fill="#b0c0d2"/>
        <line id="Línea_3362" data-name="Línea 3362" x2="3.177" y2="0.868" transform="translate(14.78 196.34)" fill="none" stroke="#fff" stroke-linecap="round" stroke-linejoin="round" stroke-width="0.673"/>
        <line id="Línea_3363" data-name="Línea 3363" x2="3.177" y2="0.868" transform="translate(17.885 194.746)" fill="none" stroke="#fff" stroke-linecap="round" stroke-linejoin="round" stroke-width="0.673"/>
        <path id="Trazado_1000354" data-name="Trazado 1000354" d="M37.868,198.9h9.883l-.327,12.868H37.541Z" transform="translate(-16.246 -18.59)" fill="#ecaea4"/>
        <g id="Grupo_1180343-2" data-name="Grupo 1180343" transform="translate(0.77 2.405)">
          <g id="Grupo_1180342" data-name="Grupo 1180342" clip-path="url(#clip-path-2)">
            <path id="Trazado_1000355" data-name="Trazado 1000355" d="M9.106,89.848s-.723,1.545-2.05,15.769c-.272,2.924-.442,7-.411,9.934L5.968,194.59l15.675-.134-.758-73.631a.181.181,0,0,1,.36-.024l9.839,74.421,14.623-.474L37.559,92.065l-7.473-1.022Z" transform="translate(13.714 -9.354)" fill="#3a4b9e"/>
            <line id="Línea_3364" data-name="Línea 3364" x1="7.416" y1="2.784" transform="translate(27.522 108.374)" fill="none" stroke="#1e0a00" stroke-linecap="round" stroke-linejoin="round" stroke-width="0.417"/>
            <path id="Trazado_1000356" data-name="Trazado 1000356" d="M59.027,47.236S50.4,52.275,51.188,70.161l8.063.341Z" transform="translate(-40.297 -4.918)" fill="#c2b3a3"/>
            <path id="Trazado_1000357" data-name="Trazado 1000357" d="M55.508,40.474l-8.544,6.059s-3.687,3.651-3.74,5.674l-1.372,49.62a3.911,3.911,0,0,0,6.005,3.405l.862-.547Z" transform="translate(-28.233 -4.214)" fill="#c2b3a3"/>
            <path id="Trazado_1000358" data-name="Trazado 1000358" d="M53.809,56.387s-1.6,6.164-1.6,19.327" transform="translate(-35.814 -5.87)" fill="none" stroke="#1e0a00" stroke-linecap="round" stroke-linejoin="round" stroke-width="0.417"/>
            <path id="Trazado_1000359" data-name="Trazado 1000359" d="M30.551,40.3s-6.378,15.643-5.158,46.361h20.04L41.4,38.837Z" transform="translate(-3.276 -4.043)" fill="#fff"/>
            <path id="Trazado_1000360" data-name="Trazado 1000360" d="M12.646,38.837l14.562,10.4A5.477,5.477,0,0,1,29.5,53.522L31.121,100.2l-12.573,5.009c-5.506,1.369-8.163,1.488-8.5-3.653-1.069-16.272-2.171-41.532,2.6-62.719" transform="translate(25.477 -4.043)" fill="#c2b3a3"/>
            <path id="Trazado_1000361" data-name="Trazado 1000361" d="M13.254,53.026C18.182,63.906,23.343,86.46,23.343,86.46a7.22,7.22,0,1,1-14.311,1.9L.11,57.511c-1.517-9.161,13.145-4.485,13.145-4.485" transform="translate(41.339 -5.396)" fill="#c2b3a3"/>
            <line id="Línea_3365" data-name="Línea 3365" x2="1.867" y2="6.782" transform="translate(42.157 53.952)" fill="none" stroke="#1e0a00" stroke-linecap="round" stroke-linejoin="round" stroke-width="0.417"/>
            <path id="Trazado_1000362" data-name="Trazado 1000362" d="M42.559,64.625s-1.595-5.78-7.379-6.344-7.487,3.979-6.4,6.969,4.852,7.86,10.554,5.37,3.223-6,3.223-6" transform="translate(-3.836 -6.063)" fill="#ecaea4"/>
            <path id="Trazado_1000363" data-name="Trazado 1000363" d="M49.973,58.3a36,36,0,0,0-9.909,2.712,1.13,1.13,0,0,0,.721,2.117l7.841-1.466Z" transform="translate(-20.549 -6.069)" fill="#ecaea4"/>
            <path id="Trazado_1000364" data-name="Trazado 1000364" d="M28.739,93.6,12.895,77.487l1.386-15.2L29.661,74.894Z" transform="translate(23.554 -6.485)" fill="#c2b3a3"/>
            <line id="Línea_3366" data-name="Línea 3366" x2="15.523" y2="12.953" transform="translate(37.835 55.802)" fill="none" stroke="#1e0a00" stroke-linecap="round" stroke-linejoin="round" stroke-width="0.417"/>
            <path id="Trazado_1000365" data-name="Trazado 1000365" d="M10.183,71.411l-.641,7.026L25.387,94.548a12.8,12.8,0,0,0,3.926,2.273" transform="translate(26.906 -7.434)" fill="none" stroke="#1e0a00" stroke-linecap="round" stroke-linejoin="round" stroke-width="0.417"/>
            <path id="Trazado_1000366" data-name="Trazado 1000366" d="M35.1,68.146l5.884,27.341a2.013,2.013,0,0,0,2,1.589l21.883-.386A2.014,2.014,0,0,0,66.8,94.235L60.651,66.9a2.014,2.014,0,0,0-2-1.571l-21.619.382A2.013,2.013,0,0,0,35.1,68.146" transform="translate(-33.487 -6.801)" fill="#121314"/>
            <path id="Trazado_1000367" data-name="Trazado 1000367" d="M36.8,66.342l-1.293,1.335L66.16,97.427l1.384-1.434Z" transform="translate(-34.589 -6.907)" fill="#121314"/>
            <path id="Trazado_1000368" data-name="Trazado 1000368" d="M36.4,69.478l5.884,27.341a2.013,2.013,0,0,0,2,1.589l21.883-.386A2.013,2.013,0,0,0,68.1,95.567L61.95,68.231a2.014,2.014,0,0,0-2-1.571l-21.619.382A2.013,2.013,0,0,0,36.4,69.478" transform="translate(-35.95 -6.94)" fill="#445158"/>
            <path id="Trazado_1000369" data-name="Trazado 1000369" d="M53.167,80.716a2.337,2.337,0,1,0,2.57-2.077,2.337,2.337,0,0,0-2.57,2.077" transform="translate(-40.681 -8.186)" fill="#83949a"/>
            <path id="Trazado_1000370" data-name="Trazado 1000370" d="M64.1,78.592l1.648,6.674a1.8,1.8,0,0,0,1.777,1.367,3.982,3.982,0,0,0,3.841-4.727l-.424-2.224a3.98,3.98,0,0,0-3.65-3.227l-1.329-.088A1.8,1.8,0,0,0,64.1,78.592" transform="translate(-64.045 -7.95)" fill="#ecaea4"/>
            <path id="Trazado_1000371" data-name="Trazado 1000371" d="M53.168,22.422A3.191,3.191,0,1,1,50.35,18.9a3.191,3.191,0,0,1,2.818,3.525" transform="translate(-30.352 -1.965)" fill="#d9918a"/>
            <path id="Trazado_1000372" data-name="Trazado 1000372" d="M29.742,28.953l.778,9.466,2.141,4.991,8.707-6.457L37.03,20.745Z" transform="translate(-3.245 -2.16)" fill="#ecaea4"/>
            <path id="Trazado_1000373" data-name="Trazado 1000373" d="M35.2,36.359l6.677-7.371-7.216.823Z" transform="translate(-8.169 -3.018)" fill="#1e0a00"/>
            <path id="Trazado_1000374" data-name="Trazado 1000374" d="M37.53,3.642a7.406,7.406,0,0,0-5.882,7.58c.109,4.155.515,10.909,1.965,13.466,2.159,3.8,6.013,5.766,11.252,3.784,0,0,6.243-1.4,6.058-10.738-.2-10.1-7.431-15.164-13.394-14.092" transform="translate(-14.511 -0.364)" fill="#ecaea4"/>
            <path id="Trazado_1000375" data-name="Trazado 1000375" d="M34.641,17.262l-.8-4.617a14.129,14.129,0,0,1-5.308-7.581s.141-3.3,5.087-2.516S43.174,6.16,39.23,15.5Z" transform="translate(-1.515 -0.253)" fill="#d25648"/>
            <path id="Trazado_1000376" data-name="Trazado 1000376" d="M34.422,19.445A3.872,3.872,0,1,1,31,15.167a3.872,3.872,0,0,1,3.419,4.278" transform="translate(6.4 -1.576)" fill="#ecaea4"/>
            <path id="Trazado_1000377" data-name="Trazado 1000377" d="M32.449,17.868a2.836,2.836,0,0,0-3.113,2.924" transform="translate(6.036 -1.86)" fill="none" stroke="#1e0a00" stroke-linecap="round" stroke-linejoin="round" stroke-width="0.417"/>
            <path id="Trazado_1000378" data-name="Trazado 1000378" d="M47.271,13.833l-2.044,9.393s-7.469-1.329-11.99,1.207l.377,2.6c.5,3.48,3.357,4.626,7.444,4.131,3.135-.38,7.375-2.261,8.875-5.546l-.639-9.582Z" transform="translate(-14.942 -1.44)" fill="#d25648"/>
            <path id="Trazado_1000379" data-name="Trazado 1000379" d="M51.781,19.812a.73.73,0,1,1-.674-.782.73.73,0,0,1,.674.782" transform="translate(-32.099 -1.981)" fill="#171717"/>
            <path id="Trazado_1000380" data-name="Trazado 1000380" d="M44.742,18.658a.73.73,0,1,1-.675-.782.73.73,0,0,1,.675.782" transform="translate(-18.754 -1.861)" fill="#171717"/>
            <path id="Trazado_1000381" data-name="Trazado 1000381" d="M47.774,20.277l-.275,2.1a.445.445,0,0,0,.409.5l1,.071" transform="translate(-26.693 -2.111)" fill="none" stroke="#1e0a00" stroke-linecap="round" stroke-linejoin="round" stroke-width="0.417"/>
            <path id="Trazado_1000382" data-name="Trazado 1000382" d="M41.149,14.785l5.786.144a3.29,3.29,0,0,0-2.811-1.543,3.6,3.6,0,0,0-2.974,1.4" transform="translate(-19.032 -1.394)"/>
            <path id="Trazado_1000383" data-name="Trazado 1000383" d="M53.26,15.145l-2.945,1.011s0-1.285,1.027-1.629a2.038,2.038,0,0,1,1.918.617" transform="translate(-33.569 -1.505)"/>
            <path id="Trazado_1000384" data-name="Trazado 1000384" d="M48.352,25.213a4.952,4.952,0,0,1-3.683.534" transform="translate(-23.603 -2.625)" fill="none" stroke="#1e0a00" stroke-linecap="round" stroke-linejoin="round" stroke-width="0.417"/>
            <path id="Trazado_1000385" data-name="Trazado 1000385" d="M51.514,7.374S42.3,4.923,35.477,8.327c0,0,0-13.8,17.42-5.868Z" transform="translate(-19.913 0)" fill="#d25648"/>
          </g>
        </g>
      </g>
    </g>
  </g>
</svg>
