<svg xmlns="http://www.w3.org/2000/svg" xmlns:xlink="http://www.w3.org/1999/xlink" width="106.621" height="106.621" viewBox="0 0 106.621 106.621">
  <defs>
    <clipPath id="clip-path">
      <rect id="Rectángulo_455533" data-name="Rectángulo 455533" width="106.621" height="102.27" fill="#19538d"/>
    </clipPath>
    <clipPath id="clip-path-2">
      <rect id="Rectángulo_456499" data-name="Rectángulo 456499" width="54" height="54" fill="#19538d"/>
    </clipPath>
  </defs>
  <g id="Grupo_1179954" data-name="Grupo 1179954" transform="translate(-327.711 -4573.561)">
    <g id="Grupo_1179852" data-name="Grupo 1179852" transform="translate(-56.035 -3825.438)">
      <circle id="Elipse_13674" data-name="Elipse 13674" cx="45.136" cy="45.136" r="45.136" transform="translate(391.565 8407.528)" fill="#fff"/>
      <g id="Grupo_1179062" data-name="Grupo 1179062" transform="translate(383.746 8398.999)">
        <rect id="Rectángulo_455531" data-name="Rectángulo 455531" width="106.621" height="106.621" transform="translate(0 0)" fill="none"/>
        <g id="Grupo_1179061" data-name="Grupo 1179061" transform="translate(0 2.5)">
          <path id="Trazado_998445" data-name="Trazado 998445" d="M116.849,96.44H96.727l2.727-5.086h20.121Z" transform="translate(-16.155 -15.258)" fill="#62249e"/>
          <path id="Trazado_998446" data-name="Trazado 998446" d="M1.654,86.893,0,90.259H22.184l1.654-3.366Z" transform="translate(0 -14.513)" fill="#19538d"/>
          <path id="Trazado_998447" data-name="Trazado 998447" d="M120.054,31.739H98.809l1.666-3.773H121.72Z" transform="translate(-16.503 -4.671)" fill="#19538d"/>
          <path id="Trazado_998448" data-name="Trazado 998448" d="M31.392,11.993H3.483L5.149,8.221H33.058Z" transform="translate(-0.581 -1.373)" fill="#19538d"/>
          <g id="Grupo_1179060" data-name="Grupo 1179060" transform="translate(0)">
            <g id="Grupo_1179059" data-name="Grupo 1179059" clip-path="url(#clip-path)">
              <path id="Trazado_998449" data-name="Trazado 998449" d="M53.747,104.613a45.239,45.239,0,0,1-44.1-55.376H3.618A51.131,51.131,0,0,0,93.573,91.416H85.686a45.109,45.109,0,0,1-31.939,13.2" transform="translate(-0.436 -8.224)" fill="#19538d"/>
              <path id="Trazado_998450" data-name="Trazado 998450" d="M110.835,88.257h6.691c.537-1.07,1.025-2.167,1.489-3.277h-6.433c-.541,1.118-1.12,2.212-1.747,3.277" transform="translate(-18.512 -14.194)" fill="#19538d"/>
              <path id="Trazado_998451" data-name="Trazado 998451" d="M105.343,51.135A51.143,51.143,0,0,0,5.373,35.927H11.58A45.256,45.256,0,1,1,96.2,68.012h6.269a50.91,50.91,0,0,0,2.879-16.877" transform="translate(-0.897)" fill="#19538d"/>
              <path id="Trazado_998452" data-name="Trazado 998452" d="M108.562,81.649v2.775h3.64q.66-1.363,1.229-2.775Z" transform="translate(-18.132 -13.637)" fill="#19538d"/>
              <path id="Trazado_998453" data-name="Trazado 998453" d="M126.773,81.649h-5.055q-.494,1.407-1.064,2.775h6.118Z" transform="translate(-20.152 -13.637)" fill="#19538d"/>
            </g>
          </g>
          <path id="Trazado_998444" data-name="Trazado 998444" d="M2.5,37.025,0,42.111H15.1l2.5-5.086Z" transform="translate(0 -6.184)" fill="#62249e"/>
        </g>
      </g>
    </g>
    <g id="Grupo_1179953" data-name="Grupo 1179953" transform="translate(353.988 4603.278)">
      <g id="Grupo_1179952" data-name="Grupo 1179952" transform="translate(-0.278 -0.278)" clip-path="url(#clip-path-2)">
        <path id="Trazado_999399" data-name="Trazado 999399" d="M22.159,0a4.607,4.607,0,0,1,3.125,2.518,7.19,7.19,0,0,1,.4,1.261v6.472h1.657V3.78a7.19,7.19,0,0,1,.4-1.261A4.643,4.643,0,0,1,30.858,0H49.5a4.7,4.7,0,0,1,3.521,3.521V35.828a4.534,4.534,0,0,1-3.983,3.524c-3.993.314-8.388-.247-12.424,0A33.628,33.628,0,0,1,33.276,41.3c-.427.194-2.283.779-2.42.893-.114.095-.092.181-.108.306-.3,2.464.663,6.5-.634,8.582a4.809,4.809,0,0,1-2.881,1.934h-1.45A4.786,4.786,0,0,1,22.9,51.083c-1.3-2.086-.33-6.118-.634-8.582-.015-.125.006-.212-.108-.306-.137-.114-1.993-.7-2.42-.893a36.309,36.309,0,0,1-3.334-1.947c-4.019-.266-8.454.335-12.424,0A4.533,4.533,0,0,1,0,35.828V3.521A4.7,4.7,0,0,1,3.521,0ZM1.76,3.676V27.337h8.491V25.68H3.417V11.08h1.76V23.92H6.834V17.914h1.76V23.92h1.657V12.84h1.76v6.213l2.121-3.108a16.6,16.6,0,0,1,9.776-5.5l.011-6.462A2.645,2.645,0,0,0,21.8,1.76l-17.815,0A2.636,2.636,0,0,0,1.76,3.676m49.5,27.078V3.676a2.692,2.692,0,0,0-2.222-1.92l-17.815,0a2.612,2.612,0,0,0-2.127,2.326c-.183,2.016.137,4.317.015,6.362a15.973,15.973,0,0,1,6.772,2.805,6.872,6.872,0,1,1,10.437,6.3,8.352,8.352,0,0,1-2.568.952H41.782c-.019,0-.213-.259-.156.052.1.573.537,1.434.7,2.1a17.3,17.3,0,0,1-.073,8.1ZM41.834,8.7a5.019,5.019,0,0,0-4.147,5.648c.074.806.928,1.216,1.4,1.805l2.744-2.742Zm5.9,4.142A4.794,4.794,0,0,0,43.594,8.7V12.84Zm-22.594-.8c-9.961.783-16.036,11.7-11.754,20.7a14.528,14.528,0,1,0,11.754-20.7M47.736,14.6H43.024L40.1,17.55a6.208,6.208,0,0,0,.46.785,6.377,6.377,0,0,0,2.983.406A5.045,5.045,0,0,0,47.736,14.6M10.458,29.1H1.76v6.575A2.93,2.93,0,0,0,3.78,37.588H14.6A16.34,16.34,0,0,1,10.458,29.1m40.8,3.417H41.678L40.9,34.171h1.864v1.76H39.814l-1.4,1.657H49.237a2.93,2.93,0,0,0,2.019-1.916ZM29.1,42.559a15.471,15.471,0,0,1-5.177,0v6.368a2.71,2.71,0,0,0,1.961,2.284c1.449.3,3.216-.722,3.216-2.284Z" transform="translate(0.256 0.256)" fill="#19538d"/>
        <path id="Trazado_999400" data-name="Trazado 999400" d="M25.349,24.727a.879.879,0,1,1,.446,1.7c-1.077.213-1.461-1.478-.446-1.7" transform="translate(-21.082 -21.033)" fill="#19538d"/>
        <rect id="Rectángulo_456496" data-name="Rectángulo 456496" width="5.177" height="1.657" transform="translate(44.679 22.519)" fill="#19538d"/>
        <rect id="Rectángulo_456497" data-name="Rectángulo 456497" width="5.177" height="1.657" transform="translate(44.679 25.937)" fill="#19538d"/>
        <path id="Trazado_999401" data-name="Trazado 999401" d="M224.256,24.816a.88.88,0,0,1-1.216,1.268c-.92-.783.452-2.1,1.216-1.268" transform="translate(-191.726 -20.903)" fill="#19538d"/>
        <path id="Trazado_999402" data-name="Trazado 999402" d="M249.006,24.816a.88.88,0,0,1-1.216,1.268c-.92-.783.452-2.1,1.216-1.268" transform="translate(-213.059 -20.903)" fill="#19538d"/>
        <path id="Trazado_999403" data-name="Trazado 999403" d="M110.725,98.961a12.848,12.848,0,1,1-10.734,17.92,12.867,12.867,0,0,1,10.734-17.92m-.1,1.76a11.11,11.11,0,1,0,9.544,18.346,11.14,11.14,0,0,0-9.544-18.346" transform="translate(-85.016 -85.005)" fill="#19538d"/>
        <path id="Trazado_999404" data-name="Trazado 999404" d="M25.914,222.543a11.009,11.009,0,0,1,2.332,0c1.545.26,1.555,2.328,1.411,3.536a1.819,1.819,0,0,1-1.593,1.617c-1.227.138-3.319.181-3.566-1.4a13.472,13.472,0,0,1,.017-2.455,1.835,1.835,0,0,1,1.4-1.293m1.994,1.735H26.252v1.657h1.657Z" transform="translate(-20.818 -191.508)" fill="#19538d"/>
        <rect id="Rectángulo_456498" data-name="Rectángulo 456498" width="3.417" height="1.76" transform="translate(46.439 34.427)" fill="#19538d"/>
        <path id="Trazado_999405" data-name="Trazado 999405" d="M146.5,136.486l.33,1.018,1.234-.363,3.06,3.061c.255.283-.47,1.094-.364,1.238l1.04.38v4.627l-1.04.38c-.106.145.619.955.364,1.238l-3.06,3.061c-.355.159-.783-.38-1.178-.373l-.44,1.047H141.82l-.38-1.04c-.145-.106-.955.619-1.238.364l-3.059-3.059c-.255-.283.47-1.094.364-1.238l-1.04-.38v-4.627l1.04-.38c.106-.145-.619-.955-.364-1.238l3.059-3.059c.283-.255,1.094.47,1.238.364l.38-1.04Zm-.892,2.756c-.263-.228-.068-1.048-.693-1.12a11.3,11.3,0,0,0-1.75.023c-.33.112-.287.82-.431,1.018a6.782,6.782,0,0,1-.853.4c-.531.106-1.011-.476-1.266-.349l-1.436,1.47c-.038.2.4.665.4,1.021a4.927,4.927,0,0,1-.371.981c-.2.234-.978.208-1.07.483V145.1c.085.251.923.293,1.1.508.026.032.308.719.319.774.107.53-.476,1.01-.349,1.266l1.47,1.436c.2.038.665-.4,1.021-.4a7.106,7.106,0,0,1,.958.342c.181.156.189.989.508,1.1l1.936,0c.426-.749.339-1.279,1.388-1.418.458-.06.911.474,1.16.35l1.436-1.47c.038-.2-.4-.665-.4-1.021a7.107,7.107,0,0,1,.342-.958c.156-.181.988-.189,1.1-.508-.041-.466.187-1.854-.148-2.1-.2-.149-.834-.21-.95-.345-.027-.032-.306-.721-.317-.777-.107-.53.476-1.01.349-1.266l-1.47-1.436c-.2-.038-.639.376-.924.395a5.28,5.28,0,0,1-1.055-.333" transform="translate(-117.368 -117.369)" fill="#19538d"/>
        <path id="Trazado_999406" data-name="Trazado 999406" d="M164.783,161.04c6.692-.971,6.835,9.261.088,8.452-4.547-.545-4.643-7.791-.088-8.452m.729,1.653c-3.325.181-3.085,5.2.165,5.143,3.4-.061,3.216-5.327-.165-5.143" transform="translate(-138.872 -138.493)" fill="#19538d"/>
      </g>
    </g>
  </g>
</svg>
