<svg xmlns="http://www.w3.org/2000/svg" xmlns:xlink="http://www.w3.org/1999/xlink" width="124" height="208" viewBox="0 0 124 208">
  <defs>
    <clipPath id="clip-path">
      <rect id="Rectángulo_456503" data-name="Rectángulo 456503" width="87.172" height="204.059" fill="none"/>
    </clipPath>
  </defs>
  <g id="Grupo_1179961" data-name="Grupo 1179961" transform="translate(3571 4806)">
    <rect id="Rectángulo_456312" data-name="Rectángulo 456312" width="124" height="208" transform="translate(-3571 -4806)" fill="none"/>
    <g id="Grupo_1179959" data-name="Grupo 1179959" transform="translate(-4692.711 -11700)">
      <path id="Rectángulo_456313" data-name="Rectángulo 456313" d="M80,0h44a0,0,0,0,1,0,0V80a0,0,0,0,1,0,0H0a0,0,0,0,1,0,0v0A80,80,0,0,1,80,0Z" transform="translate(1121.711 7022)" fill="#dfefff"/>
      <g id="Grupo_1179960" data-name="Grupo 1179960" transform="translate(1142.711 6897.155)">
        <g id="Grupo_1179960-2" data-name="Grupo 1179960" transform="translate(0)" clip-path="url(#clip-path)">
          <path id="Trazado_999444" data-name="Trazado 999444" d="M29.633,116.338,32.459,183.9l5.069-.38s5.7-38.212,4.324-57.34Z" transform="translate(13.971 5.897)" fill="#edbc9c"/>
          <path id="Trazado_999445" data-name="Trazado 999445" d="M39.33,189.751s-6.339,2.426-6.977,5.169H46.139l2.17-4.275,1.468,4.275H51.26s1.391-11.09-1.323-14.637Z" transform="translate(1.562 9.138)" fill="#20202a"/>
          <path id="Trazado_999446" data-name="Trazado 999446" d="M39.66,178.384l.094,2.39-6.133,10.262s6.766,1.269,9.3-3.546,1.9-7.1,1.9-7.1l.347-2.305Z" transform="translate(6.676 9.027)" fill="#edbc9c"/>
          <path id="Trazado_999447" data-name="Trazado 999447" d="M16.129,116.338,18.955,183.9l5.069-.38s5.7-38.212,4.324-57.34Z" transform="translate(41.664 5.897)" fill="#edbc9c"/>
          <path id="Trazado_999448" data-name="Trazado 999448" d="M25.826,189.751s-6.339,2.426-6.977,5.169H32.636l2.169-4.275,1.468,4.275h1.484s1.391-11.09-1.323-14.637Z" transform="translate(29.254 9.138)" fill="#20202a"/>
          <path id="Trazado_999449" data-name="Trazado 999449" d="M26.156,178.384l.094,2.39-6.133,10.262s6.766,1.269,9.3-3.546,1.9-7.1,1.9-7.1l.347-2.305Z" transform="translate(34.369 9.027)" fill="#edbc9c"/>
          <path id="Trazado_999450" data-name="Trazado 999450" d="M39.969,71.354s7.066,1.245,11.36,45.877l1.524,17.679s-5.712-2.014-15.64,2.462-31.551-4.924-31.551-4.924S7.079,91.38,16.644,69.506Z" transform="translate(28.37 3.523)" fill="#c4b6a7"/>
          <path id="Trazado_999451" data-name="Trazado 999451" d="M39.912,8.723s-.444,6.963,1.632,10.659,3.656,5.219,4.21,9.233c0,0-17.417,5.2-34.859-.585L17.748,8.723Z" transform="translate(29.971 0.442)" fill="#412424"/>
          <path id="Trazado_999452" data-name="Trazado 999452" d="M16.455,1.193s16.318-4.42,20.933,3.761c3.349,5.936-.607,16.686-8.254,19.715C21.85,27.554,23.917,3.821,23.917,3.821Z" transform="translate(31.296 0)" fill="#412424"/>
          <path id="Trazado_999453" data-name="Trazado 999453" d="M43.136,15.338a3.561,3.561,0,1,1-3.848-3.249,3.56,3.56,0,0,1,3.848,3.249" transform="translate(6.17 0.612)" fill="#dea888"/>
          <path id="Trazado_999454" data-name="Trazado 999454" d="M25.3,24.863,25.9,32.6c.207,2.717,1.992,4.042,4.665,3.817,2.282-.192,4.326-1.55,4.418-3.838L33.445,20.449Z" transform="translate(25.609 1.037)" fill="#edbc9c"/>
          <path id="Trazado_999455" data-name="Trazado 999455" d="M26.115,30.361l8.931-8.131-9.434,1.75Z" transform="translate(25.216 1.127)" fill="#dea888"/>
          <path id="Trazado_999456" data-name="Trazado 999456" d="M32.3,27.021h0c-4.575.081-8.406-3.467-8.6-7.2l-.4-8.812a8.685,8.685,0,0,1,7.945-9.1c4.781-.4,9.82,3.074,10.222,7.855l.243,7.09c.188,5.485-3.947,9.706-9.415,10.166" transform="translate(20.983 0.095)" fill="#edbc9c"/>
          <path id="Trazado_999457" data-name="Trazado 999457" d="M19.693,5.555c-1.655,3.991,3.373,10.108,3.373,10.108L29.12,8.387s-8.255-5.656-9.427-2.832" transform="translate(37.711 0.242)" fill="#412424"/>
          <path id="Trazado_999458" data-name="Trazado 999458" d="M26.342,15.269A3.561,3.561,0,1,1,22.5,12.021a3.56,3.56,0,0,1,3.847,3.249" transform="translate(40.609 0.609)" fill="#edbc9c"/>
          <path id="Trazado_999459" data-name="Trazado 999459" d="M21.555,16.616s-.216-2.572,2.277-2.375" transform="translate(40.698 0.721)" fill="none" stroke="#1f2326" stroke-linecap="round" stroke-linejoin="round" stroke-width="0.539"/>
          <path id="Trazado_999460" data-name="Trazado 999460" d="M35.159,16.709,35,18.3l1.193.047" transform="translate(14.208 0.847)" fill="none" stroke="#1f2326" stroke-linecap="round" stroke-linejoin="round" stroke-width="0.539"/>
          <path id="Trazado_999461" data-name="Trazado 999461" d="M30.82,11.063s-1.976-.172-2,.659c0,0,0,.562,1.725.678s2.173-.014,2.331-.541-1.132-.788-2.058-.8" transform="translate(23.998 0.56)" fill="#1f2326"/>
          <path id="Trazado_999462" data-name="Trazado 999462" d="M38.612,11.271s1.632-.17,1.763.61c0,0,.077.528-1.352.645s-1.893-.074-2.027-.5c-.152-.483.841-.745,1.616-.755" transform="translate(7.941 0.571)" fill="#1f2326"/>
          <path id="Trazado_999463" data-name="Trazado 999463" d="M39.209,15.088a.83.83,0,1,1-.854-.83.847.847,0,0,1,.854.83" transform="translate(8.509 0.723)" fill="#1f2326"/>
          <path id="Trazado_999464" data-name="Trazado 999464" d="M32.29,14.866a.83.83,0,1,1-.854-.83.846.846,0,0,1,.854.83" transform="translate(22.698 0.711)" fill="#1f2326"/>
          <path id="Trazado_999465" data-name="Trazado 999465" d="M31.254,19.829H37.27A3.828,3.828,0,0,1,33.842,21.7a2.448,2.448,0,0,1-2.588-1.869" transform="translate(17.063 1.005)" fill="#fff"/>
          <path id="Trazado_999466" data-name="Trazado 999466" d="M38.291,5.774s-3.6,6.148-15.138,3.991c0,0-2.806-6.3,4.475-8.595S43.281,2.755,43.281,2.755V7.931Z" transform="translate(20.123 0.022)" fill="#412424"/>
          <path id="Trazado_999467" data-name="Trazado 999467" d="M48.758,33.112S38.439,35.559,36.619,49.205l6.619,5.664Z" transform="translate(-0.061 1.678)" fill="#808dff"/>
          <path id="Trazado_999468" data-name="Trazado 999468" d="M50.9,71.147c.186-.306.067,2.211.181,1.87A145.127,145.127,0,0,0,58.7,56.852c1.163-2.8-.4-11.362-3.425-11.6-2.218-.175-4.852,3.961-5.381,6.122L44.383,65.228Z" transform="translate(-18.543 2.293)" fill="#edbc9c"/>
          <path id="Trazado_999469" data-name="Trazado 999469" d="M74.92,65.976,53.447,54.4l-1.977,2.184L68.818,73.79a5,5,0,1,0,6.1-7.814" transform="translate(-44.259 2.757)" fill="#edbc9c"/>
          <path id="Trazado_999470" data-name="Trazado 999470" d="M73.759,53.62c-1.444,1.907-.7,4.9,1.668,6.694s5.451,1.694,6.895-.213.7-4.9-1.667-6.694-5.452-1.694-6.9.213" transform="translate(-72.612 2.642)" fill="#edbc9c"/>
          <path id="Trazado_999471" data-name="Trazado 999471" d="M42.734,74.685c-.871.017-26.309-.294-26.309-.294l1.893-37.573,18.808,3.2Z" transform="translate(27.18 1.866)" fill="#fff"/>
          <path id="Trazado_999472" data-name="Trazado 999472" d="M38.073,32.807l-7.547-1.323L24.953,32.49l-4.31,8.753s-1.289,4.007,5.579,4.643,11.64-4.2,12.784-7.187-.933-5.892-.933-5.892" transform="translate(26.232 1.596)" fill="#edbc9c"/>
          <path id="Trazado_999473" data-name="Trazado 999473" d="M44.078,32.441s-5.649,11.9-4.248,24.184-5.58,25.269-5.58,25.269v-33.9s.075-14.149,9.828-15.552" transform="translate(7.107 1.644)" fill="#808dff"/>
          <path id="Trazado_999474" data-name="Trazado 999474" d="M44.2,42.2s-2.3,5.656-.707,15.162" transform="translate(-2.137 2.139)" fill="none" stroke="#5f73e8" stroke-miterlimit="10" stroke-width="0.764"/>
          <path id="Trazado_999475" data-name="Trazado 999475" d="M18.18,32.743S.974,54,27.676,83.523l-2.82-49.014Z" transform="translate(46.125 1.66)" fill="#808dff"/>
          <path id="Trazado_999476" data-name="Trazado 999476" d="M6.73,34.409s12.693,2.682,13.318,28.274L4.857,61.249,2.776,40.438Z" transform="translate(64.208 1.744)" fill="#808dff"/>
          <path id="Trazado_999477" data-name="Trazado 999477" d="M1.6,66.215s-3.31-3.242-.409-6.245c0,0,10.819-1.682,17.124,2.277,0,0,2.639,4.5-.733,6.943,0,0-4.545-2.974-15.982-2.974" transform="translate(67.874 3.022)" fill="#9cabff"/>
          <line id="Línea_3266" data-name="Línea 3266" x1="2.513" y1="15.506" transform="translate(66.552 47.487)" fill="none" stroke="#5f73e8" stroke-miterlimit="10" stroke-width="0.764"/>
          <path id="Trazado_999478" data-name="Trazado 999478" d="M25.244,65.922,1.633,68.9,2.945,73.54l31.916.788A6.267,6.267,0,0,0,41.226,68.9a21.17,21.17,0,0,0-15.982-2.974" transform="translate(44.23 3.316)" fill="#edbc9c"/>
          <path id="Trazado_999479" data-name="Trazado 999479" d="M35.576,71.292c.123,2.947,3.185,5.212,6.838,5.06s6.516-2.665,6.393-5.612-3.185-5.212-6.838-5.06-6.516,2.665-6.393,5.612" transform="translate(0.985 3.329)" fill="#edbc9c"/>
          <path id="Trazado_999480" data-name="Trazado 999480" d="M41.3,68.544H16.1V65.7H41.3a1.422,1.422,0,0,1,0,2.844" transform="translate(27.534 3.33)" fill="#1c2123"/>
          <path id="Trazado_999481" data-name="Trazado 999481" d="M85.231,69.886H49.043a4.283,4.283,0,0,1-4.127-3.135L38.4,43.352a3.246,3.246,0,0,1,3.127-4.117H74.994a2.825,2.825,0,0,1,2.733,2.108Z" transform="translate(-38.282 1.989)" fill="#2e353a"/>
          <path id="Trazado_999482" data-name="Trazado 999482" d="M65.283,55.219a3.16,3.16,0,1,1-3.16-3.159,3.16,3.16,0,0,1,3.16,3.159" transform="translate(-40.063 2.639)" fill="#fff"/>
        </g>
      </g>
    </g>
    <path id="Trazado_999483" data-name="Trazado 999483" d="M5.978,32.339H41.067a1.772,1.772,0,0,0,1.771-1.771V18.878A1.772,1.772,0,0,0,41.067,17.1H5.978a1.771,1.771,0,0,0-1.771,1.773v11.69a1.772,1.772,0,0,0,1.771,1.771" transform="translate(-3561.479 -4808.536)" fill="#19538d"/>
    <line id="Línea_3267" data-name="Línea 3267" x1="25.674" transform="translate(-3551.113 -4785.593)" fill="none" stroke="#fff" stroke-linecap="round" stroke-linejoin="round" stroke-width="1.076"/>
    <line id="Línea_3268" data-name="Línea 3268" x1="8.791" transform="translate(-3551.028 -4781.544)" fill="none" stroke="#fff" stroke-linecap="round" stroke-linejoin="round" stroke-width="1.076"/>
    <path id="Trazado_999484" data-name="Trazado 999484" d="M36.136,29.623v6.89l-8.782-6.89Z" transform="translate(-3560.204 -4807.846)" fill="#19538d"/>
  </g>
</svg>
