<svg xmlns="http://www.w3.org/2000/svg" width="69.323" height="69.323" viewBox="0 0 69.323 69.323">
  <g id="Grupo_1179951" data-name="Grupo 1179951" transform="translate(-304.677 -3054.439)">
    <g id="Grupo_1180405" data-name="Grupo 1180405">
      <path id="Trazado_998855" data-name="Trazado 998855" d="M0,0H69.323V69.323H0Z" transform="translate(304.677 3054.439)" fill="#62249e"/>
      <g id="archivo" transform="translate(318.677 3068.43)">
        <path id="Trazado_1000672" data-name="Trazado 1000672" d="M284.353,8.8v8.868h8.868Z" transform="translate(-261.838 -8.094)" fill="#fff"/>
        <path id="Trazado_1000673" data-name="Trazado 1000673" d="M20.14,11.95V.01H0V39.267H22.466a11.874,11.874,0,0,1,8.558-20.112q.571,0,1.135.054V11.95ZM5.924,11.924h9.5V14.3h-9.5Zm9.5,16.628h-9.5V26.176h9.5ZM17.8,23.8H5.924V21.425H17.8Zm6.044-4.751H5.924V16.674H23.845Z" fill="#fff"/>
        <path id="Trazado_1000674" data-name="Trazado 1000674" d="M281.312,271.8a9.5,9.5,0,1,0,9.5,9.5A9.5,9.5,0,0,0,281.312,271.8Zm-1,13.046-3.375-3.474,1.7-1.656,1.789,1.842,3.739-3.334,1.58,1.773Z" transform="translate(-250.288 -250.269)" fill="#fff"/>
      </g>
    </g>
  </g>
</svg>
