<svg xmlns="http://www.w3.org/2000/svg" xmlns:xlink="http://www.w3.org/1999/xlink" width="133.45" height="133.45" viewBox="0 0 133.45 133.45">
  <defs>
    <clipPath id="clip-path">
      <rect id="Rectángulo_455533" data-name="Rectángulo 455533" width="133.293" height="127.782" fill="#62249e"/>
    </clipPath>
    <clipPath id="clip-path-2">
      <rect id="Rectángulo_456347" data-name="Rectángulo 456347" width="73.15" height="73.008" fill="#fff"/>
    </clipPath>
  </defs>
  <g id="Grupo_1179969" data-name="Grupo 1179969" transform="translate(-383.649 -8398.903)">
    <circle id="Elipse_13674" data-name="Elipse 13674" cx="57.576" cy="57.576" r="57.576" transform="translate(391.966 8408.884)" fill="#62249e"/>
    <g id="Grupo_1179062" data-name="Grupo 1179062" transform="translate(383.649 8398.903)">
      <rect id="Rectángulo_455531" data-name="Rectángulo 455531" width="133.45" height="133.45" transform="translate(0 0)" fill="none"/>
      <g id="Grupo_1179061" data-name="Grupo 1179061" transform="translate(0.078 3.243)">
        <path id="Trazado_998445" data-name="Trazado 998445" d="M122.211,97.8H96.727l3.454-6.442h25.484Z" transform="translate(3.574 3.657)" fill="#62249e"/>
        <path id="Trazado_998446" data-name="Trazado 998446" d="M2.095,86.893,0,91.156H28.1l2.1-4.263Z" transform="translate(0 3.501)" fill="#62249e"/>
        <path id="Trazado_998447" data-name="Trazado 998447" d="M125.716,32.745H98.809l2.11-4.778h26.907Z" transform="translate(3.689 1.125)" fill="#62249e"/>
        <path id="Trazado_998448" data-name="Trazado 998448" d="M38.83,13H3.483l2.11-4.778H40.94Z" transform="translate(0.192 0.452)" fill="#62249e"/>
        <g id="Grupo_1179060" data-name="Grupo 1179060" transform="translate(0)">
          <g id="Grupo_1179059" data-name="Grupo 1179059" clip-path="url(#clip-path)">
            <path id="Trazado_998449" data-name="Trazado 998449" d="M66.539,118.428A56.522,56.522,0,0,1,11.4,49.237H3.87a63.923,63.923,0,0,0,112.458,52.7h-9.861a56.409,56.409,0,0,1-39.929,16.489" transform="translate(0.108 2.008)" fill="#62249e"/>
            <path id="Trazado_998450" data-name="Trazado 998450" d="M110.835,89.074H119.2c.672-1.336,1.282-2.707,1.861-4.094h-8.042c-.676,1.4-1.4,2.764-2.184,4.094" transform="translate(4.583 3.465)" fill="#62249e"/>
            <path id="Trazado_998451" data-name="Trazado 998451" d="M130.351,63.891a63.941,63.941,0,0,0-124.978-19h7.76A56.573,56.573,0,1,1,118.915,84.978h7.837a63.577,63.577,0,0,0,3.6-21.087" transform="translate(0.222)" fill="#62249e"/>
            <path id="Trazado_998452" data-name="Trazado 998452" d="M108.562,81.649v3.467h4.551q.825-1.7,1.536-3.467Z" transform="translate(4.489 3.329)" fill="#62249e"/>
            <path id="Trazado_998453" data-name="Trazado 998453" d="M128.3,81.649h-6.319q-.617,1.758-1.33,3.467H128.3Z" transform="translate(4.99 3.329)" fill="#62249e"/>
          </g>
        </g>
        <path id="Trazado_998444" data-name="Trazado 998444" d="M3.165,37.025,0,43.467H19.131L22.3,37.025Z" transform="translate(0 1.482)" fill="#62249e"/>
      </g>
    </g>
    <g id="Grupo_1177669" data-name="Grupo 1177669" transform="translate(411.039 8426.538)">
      <g id="Grupo_1099618" data-name="Grupo 1099618" transform="translate(0)">
        <rect id="Rectángulo_401104" data-name="Rectángulo 401104" width="77.889" height="78.827" fill="none"/>
      </g>
      <g id="Grupo_1179875" data-name="Grupo 1179875" transform="translate(2.495 4.159)">
        <g id="Grupo_1179872" data-name="Grupo 1179872" clip-path="url(#clip-path-2)">
          <path id="Trazado_998996" data-name="Trazado 998996" d="M28.318,2.729A3.751,3.751,0,0,1,31.482,0L70.122.006A3.585,3.585,0,0,1,73.15,3.165l-.006,38.564c-.419,2.323-2.479,3.348-4.72,3.016-.2,3.274.263,6.848.006,10.087-.261,3.295-2.728,5.332-4.552,7.825L66.361,73H44.538l2.5-10.238-3.013-3.89H30.677v3.238c-.432.256-1.918.518-2.175.771-.583.571.734,1.939.779,2.617l-6.049,6.045c-.462.3-1.824-1.2-2.618-.751-.3.168-.7,2.158-.945,2.215H11.015c-.226-.054-.63-1.836-.824-2.113-.51-.732-2.328.865-2.668.713L1.4,65.5c.042-.68,1.446-2.141.715-2.662-.3-.211-2.069-.622-2.117-.822V53.379c.054-.224,2.02-.621,2.23-.932.439-.648-.768-1.845-.828-2.553a40.152,40.152,0,0,0,3.319-3.459l0-36.348c-.046-1.108,1.71-3.016,2.728-3.016H28.318c.154-1.316-.209-3.087,0-4.341m2.359.589V9.426H70.785V3.318c0-.489-.887-1.053-1.393-.965H32.071a1.367,1.367,0,0,0-1.393.965M28.318,9.426H8.043a1.594,1.594,0,0,0-.958.957V16.49H28.318ZM70.785,11.78H30.677V41.434c0,.435.784,1,1.25.961H42.39c.328-2.568,2.8-2.876,4.8-1.771V30.618H35.764c-.9,0-2.644-1.768-2.693-2.758.166-3.4-.34-7.219-.041-10.567a3.493,3.493,0,0,1,3.317-3.164H65.261a3.607,3.607,0,0,1,3.152,2.889c-.252,3.352.383,7.3.013,10.584-.124,1.1-1.6,3.017-2.728,3.017H54.27v5c3.626.925,7.4,1.566,10.974,2.661,2.155.66,3.323,1.675,3.181,4.109.578-.006,1.583.1,2.025-.335a5.289,5.289,0,0,0,.335-.622ZM51.911,16.49H36.354c-.52,0-.909.77-.962,1.248a64.235,64.235,0,0,0,0,9.278c.1.9.526,1.176,1.4,1.256l10.4-.007c-.487-3,1.656-5.387,4.718-4.563Zm13.2,0H54.27V28.263H65.108c.52,0,.909-.77.962-1.248a64.859,64.859,0,0,0,0-9.135c-.055-.607-.3-1.273-.966-1.391m-36.79,2.355H7.085V44.157c.769-1.038,1.961.895,2.912.493.391-.165.761-2.2,1.019-2.266l8.73.027c.237.432.6,2.1.942,2.239.767.323,2.094-1.093,2.544-.8l6.049,6.045c-.046.677-1.362,2.045-.779,2.617.258.252,1.744.515,2.175.771v3.238H42.769c.005-.591-.255-1.093-.3-1.687-.244-3.251.193-6.8.005-10.086H31.046c-.849,0-2.728-1.857-2.728-2.723Zm21.233,8.021V50.632H47.192V44.378a8.6,8.6,0,0,0-.411-.914,2.5,2.5,0,0,0-1.948-1.073V54.68a8.869,8.869,0,0,0,.911,2.475A36.432,36.432,0,0,0,49.066,61.2l12.365.04.589-.148c1.6-2.1,3.786-3.9,4.045-6.707.37-4.017-.264-8.571-.006-12.645-.16-1.016-1.493-1.162-2.351-1.259V50.632H61.348V39.742L58.989,39.3V50.632H56.629V38.565l-2.359-.442V50.632H51.911V26.865a5.317,5.317,0,0,0-.335-.622,1.25,1.25,0,0,0-2.024.622m-36.77,17.9c-.341.116-.41,1.253-.762,1.594a16.084,16.084,0,0,1-2.467,1.01c-.409-.061-1.23-.819-1.579-.645L4.349,50.342c-.174.349.585,1.168.647,1.576A20.951,20.951,0,0,1,4.054,54.3c-.333.444-1.546.478-1.668.837v5.111c.122.358,1.335.392,1.668.837A20.95,20.95,0,0,1,5,63.474c-.061.408-.82,1.227-.647,1.576l3.624,3.618c.35.173,1.171-.584,1.579-.645a16.085,16.085,0,0,1,2.467,1.01c.352.341.421,1.479.762,1.594H17.9c.359-.122.393-1.332.838-1.665a21,21,0,0,1,2.391-.939c.408.061,1.23.819,1.579.645l3.624-3.618c.174-.349-.585-1.168-.647-1.576A19.269,19.269,0,0,1,26.7,61.008c.3-.289,1.481-.407,1.6-.756V55.141c-.122-.359-1.335-.393-1.668-.837a20.951,20.951,0,0,1-.941-2.386c.061-.408.82-1.227.647-1.576l-3.624-3.618c-.35-.173-1.171.585-1.579.645a21.036,21.036,0,0,1-2.391-.939c-.445-.333-.479-1.543-.838-1.665ZM47.635,70.647h15.63L61.636,63.59l-12.294-.015Z" transform="translate(0 -0.001)" fill="#fff"/>
          <path id="Trazado_998997" data-name="Trazado 998997" d="M64.549,117.24H48.034v-9.419H64.549Zm-2.359-7.064h-11.8v4.709h11.8Z" transform="translate(-38.59 -86.623)" fill="#fff"/>
          <rect id="Rectángulo_456337" data-name="Rectángulo 456337" width="16.515" height="2.355" transform="translate(9.444 32.971)" fill="#fff"/>
          <rect id="Rectángulo_456338" data-name="Rectángulo 456338" width="16.515" height="2.355" transform="translate(9.444 37.681)" fill="#fff"/>
          <rect id="Rectángulo_456339" data-name="Rectángulo 456339" width="7.078" height="2.355" transform="translate(33.037 47.099)" fill="#fff"/>
          <rect id="Rectángulo_456340" data-name="Rectángulo 456340" width="7.078" height="2.355" transform="translate(33.037 51.809)" fill="#fff"/>
          <rect id="Rectángulo_456341" data-name="Rectángulo 456341" width="2.359" height="2.355" transform="translate(33.037 4.715)" fill="#fff"/>
          <rect id="Rectángulo_456342" data-name="Rectángulo 456342" width="2.359" height="2.355" transform="translate(37.755 4.715)" fill="#fff"/>
          <rect id="Rectángulo_456343" data-name="Rectángulo 456343" width="2.359" height="2.355" transform="translate(42.474 4.715)" fill="#fff"/>
          <path id="Trazado_998998" data-name="Trazado 998998" d="M38.71,245.472c12.854-1.393,14.337,17.559,2.3,18.776-12.65,1.279-14.207-17.486-2.3-18.776m.589,2.355c-9.926.848-7.473,16.384,2.487,13.813,8.1-2.09,6.106-14.547-2.487-13.813" transform="translate(-24.578 -197.152)" fill="#fff"/>
          <rect id="Rectángulo_456344" data-name="Rectángulo 456344" width="2.359" height="2.355" transform="translate(9.444 11.779)" fill="#fff"/>
          <rect id="Rectángulo_456345" data-name="Rectángulo 456345" width="2.359" height="2.355" transform="translate(14.162 11.779)" fill="#fff"/>
          <rect id="Rectángulo_456346" data-name="Rectángulo 456346" width="2.359" height="2.355" transform="translate(18.881 11.779)" fill="#fff"/>
          <path id="Trazado_998999" data-name="Trazado 998999" d="M287.892,101.5c.1.082.206.01.3-.093.376-.394,2.215-3.265,2.419-3.284l1.826,1.41-4.477,5.941c-.482-.987-4.269-5.186-4.331-5.838-.033-.341,1.5-1.23,1.826-1.512Z" transform="translate(-227.869 -78.835)" fill="#fff"/>
          <path id="Trazado_999000" data-name="Trazado 999000" d="M57.981,269.36c6.621-1.039,7.557,8.453,1.846,9.348-6.564,1.029-7.6-8.446-1.846-9.348m.592,2.351c-3.474.509-1.951,6.02,1.418,4.365a2.333,2.333,0,0,0-1.418-4.365" transform="translate(-43.562 -216.338)" fill="#fff"/>
        </g>
      </g>
    </g>
  </g>
</svg>
