<svg xmlns="http://www.w3.org/2000/svg" xmlns:xlink="http://www.w3.org/1999/xlink" width="128" height="128" viewBox="0 0 128 128">
  <defs>
    <clipPath id="clip-path">
      <rect id="Rectángulo_464979" data-name="Rectángulo 464979" width="60.823" height="60.839" fill="#19538d"/>
    </clipPath>
  </defs>
  <g id="Grupo_1215061" data-name="Grupo 1215061" transform="translate(-383.746 -8400)">
    <circle id="Elipse_13890" data-name="Elipse 13890" cx="64" cy="64" r="64" transform="translate(383.746 8400)" fill="#5a9ad7"/>
    <path id="Intersección_1" data-name="Intersección 1" d="M23204.689,11774.869a64,64,0,0,1,106.254-48.067l-104.787,61.753A64.213,64.213,0,0,1,23204.689,11774.869Z" transform="translate(-22820.941 -3310.872)" fill="#19538d"/>
    <circle id="Elipse_13891" data-name="Elipse 13891" cx="54" cy="54" r="54" transform="translate(393.746 8410)" fill="#fff"/>
    <g id="Grupo_1188343" data-name="Grupo 1188343" transform="translate(-0.994 -0.997)">
      <rect id="Rectángulo_459838" data-name="Rectángulo 459838" width="66" height="66" transform="translate(415.74 8431.997)" fill="#fff"/>
      <g id="Grupo_1215068" data-name="Grupo 1215068" transform="translate(418.74 8434.997)">
        <g id="Grupo_1215067" data-name="Grupo 1215067" clip-path="url(#clip-path)">
          <path id="Trazado_1283576" data-name="Trazado 1283576" d="M60.823,54.537a6.3,6.3,0,0,1-6.392,6.3H6.389A6.3,6.3,0,0,1,0,54.618V6.2A6.253,6.253,0,0,1,6.2,0H54.624a6.251,6.251,0,0,1,6.2,6.2ZM58.265,10.567l.032-4.4a3.844,3.844,0,0,0-3.488-3.627H6.01c-4.235.833-3.453,4.085-3.459,8.032ZM54.91,58.279a3.735,3.735,0,0,0,3.354-3.471l.014-41.686H2.536l.02,41.687A3.729,3.729,0,0,0,6,58.279Z" fill="#19538d"/>
          <path id="Trazado_1283577" data-name="Trazado 1283577" d="M140.3,212.583l-21.634.041a6.88,6.88,0,0,1-.127-13.754L140,198.854a6.84,6.84,0,0,1,6.75,6.7c.106,3.491-2.616,7.022-6.45,7.029m-.543-11.207-21.087.016a4.345,4.345,0,0,0-4.229,4.155c-.092,2.074,1.475,4.482,3.846,4.485l21.948.022a4.293,4.293,0,0,0,3.981-4.491,4.364,4.364,0,0,0-4.459-4.187" transform="translate(-90.542 -160.906)" fill="#19538d"/>
          <path id="Trazado_1283578" data-name="Trazado 1283578" d="M140.343,115.365l-21.857.024a6.869,6.869,0,0,1,.011-13.726l21.728,0a6.79,6.79,0,0,1,6.532,6.724c.049,3.484-2.577,6.971-6.415,6.975m-.1-2.517a4.3,4.3,0,0,0,3.976-4.617,4.4,4.4,0,0,0-4.4-4.071l-21.117.01a4.315,4.315,0,0,0-4.258,4.229,4.268,4.268,0,0,0,4.03,4.454Z" transform="translate(-90.553 -82.262)" fill="#19538d"/>
          <path id="Trazado_1283579" data-name="Trazado 1283579" d="M37.393,114.35H25.5a1.332,1.332,0,0,1-1.384-1.551,7.317,7.317,0,0,1,3.82-6.1,4.177,4.177,0,0,1,.471-5.6,4.232,4.232,0,0,1,6.3,5.6,7.182,7.182,0,0,1,3.8,6.3,1.274,1.274,0,0,1-1.119,1.348m-4.381-10.182a1.692,1.692,0,1,0-1.692,1.692,1.692,1.692,0,0,0,1.692-1.692m2.8,7.658a4.652,4.652,0,0,0-4.676-3.4,4.508,4.508,0,0,0-4.265,3.388Z" transform="translate(-19.509 -80.868)" fill="#19538d"/>
          <path id="Trazado_1283580" data-name="Trazado 1283580" d="M41.739,210.58l-6.084.014a2.615,2.615,0,0,1-2.421-2.268l-.064-3.852a2.958,2.958,0,0,1,1.163-2.315l.047-2.446a4.257,4.257,0,0,1,4.095-4.144,4.162,4.162,0,0,1,4.378,3.785l.125,2.8c.393.425,1.1,1.154,1.1,1.742l-.04,4.61a2.525,2.525,0,0,1-2.3,2.078M40.4,201.733l-.085-2.252a1.638,1.638,0,0,0-2.013-1.33,1.779,1.779,0,0,0-1.4,1.8l.017,1.8Zm1.18,2.552H35.718V208.1h5.863Z" transform="translate(-26.84 -158.245)" fill="#19538d"/>
          <path id="Trazado_1283581" data-name="Trazado 1283581" d="M43.75,27.952a1.248,1.248,0,0,1,.475,1.574,1.607,1.607,0,0,1-1.393.792,1.559,1.559,0,0,1-1.47-.893,1.256,1.256,0,0,1,.721-1.588,2.323,2.323,0,0,1,1.667.115" transform="translate(-33.412 -22.441)" fill="#19538d"/>
          <path id="Trazado_1283582" data-name="Trazado 1283582" d="M69.666,27.886a1.256,1.256,0,0,1,.649,1.5,1.618,1.618,0,0,1-2.91.049A1.278,1.278,0,0,1,68.23,27.8a2.7,2.7,0,0,1,1.435.089" transform="translate(-54.488 -22.445)" fill="#19538d"/>
          <path id="Trazado_1283583" data-name="Trazado 1283583" d="M95.607,27.882a1.258,1.258,0,0,1,.634,1.492,1.5,1.5,0,0,1-1.443.94,1.588,1.588,0,0,1-1.467-.892,1.265,1.265,0,0,1,.722-1.6,2.539,2.539,0,0,1,1.555.056" transform="translate(-75.464 -22.438)" fill="#19538d"/>
          <path id="Trazado_1283584" data-name="Trazado 1283584" d="M181.2,232.324l-1.548-.014c-.421,0-.993-.654-1.06-1.049-.075-.44.232-1.246.71-1.353a6.057,6.057,0,0,1,1.993-.1,1.265,1.265,0,0,1-.094,2.516" transform="translate(-144.505 -185.921)" fill="#19538d"/>
          <path id="Trazado_1283585" data-name="Trazado 1283585" d="M148.219,232.319a5.393,5.393,0,0,1-1.981-.02,1.393,1.393,0,0,1-.864-1.288,1.354,1.354,0,0,1,1.172-1.166l1.475,0a1.405,1.405,0,0,1,1.144.971,1.25,1.25,0,0,1-.946,1.506" transform="translate(-117.631 -185.981)" fill="#19538d"/>
          <path id="Trazado_1283586" data-name="Trazado 1283586" d="M214.6,232.293l-1.556.059a1.293,1.293,0,0,1-1.244-1.214,1.334,1.334,0,0,1,1.131-1.316l1.424-.026a1.371,1.371,0,0,1,1.216.967c.111.644-.1,1.5-.97,1.531" transform="translate(-171.384 -185.943)" fill="#19538d"/>
          <path id="Trazado_1283587" data-name="Trazado 1283587" d="M248,232.281l-1.672.048a1.318,1.318,0,0,1-1.162-1.035,1.259,1.259,0,0,1,.94-1.454,5.683,5.683,0,0,1,2.165.068c.347.07.687.834.68,1.187-.008.411-.51,1.173-.951,1.186" transform="translate(-198.367 -185.92)" fill="#19538d"/>
          <path id="Trazado_1283588" data-name="Trazado 1283588" d="M163.9,133.588l-21.532,0c-.652,0-1.083-.989-1-1.428a1.33,1.33,0,0,1,1.333-1.1l20.783,0a1.415,1.415,0,0,1,1.445.974c.134.457-.185,1.55-1.029,1.55" transform="translate(-114.378 -106.051)" fill="#19538d"/>
        </g>
      </g>
    </g>
  </g>
</svg>
