<svg xmlns="http://www.w3.org/2000/svg" xmlns:xlink="http://www.w3.org/1999/xlink" width="396" height="266" viewBox="0 0 396 266">
  <defs>
    <clipPath id="clip-path">
      <rect id="Rectángulo_464344" data-name="Rectángulo 464344" width="396" height="266" transform="translate(1017.711 2466)" fill="#fff" stroke="#707070" stroke-width="1"/>
    </clipPath>
    <clipPath id="clip-path-2">
      <rect id="Rectángulo_464343" data-name="Rectángulo 464343" width="372.855" height="280.961" fill="none"/>
    </clipPath>
    <clipPath id="clip-path-4">
      <rect id="Rectángulo_464315" data-name="Rectángulo 464315" width="239.789" height="134.726" fill="none"/>
    </clipPath>
    <clipPath id="clip-path-5">
      <rect id="Rectángulo_464316" data-name="Rectángulo 464316" width="90.034" height="16.07" fill="none"/>
    </clipPath>
    <clipPath id="clip-path-6">
      <rect id="Rectángulo_464320" data-name="Rectángulo 464320" width="211.53" height="109.985" fill="none"/>
    </clipPath>
    <clipPath id="clip-path-8">
      <path id="Trazado_1282322" data-name="Trazado 1282322" d="M107.8,160.116l-.617.281a1.6,1.6,0,0,0-.8,2.14l4.818,10.054-3.573-1.929a1.677,1.677,0,0,0-2.242.629l-.33.581a1.592,1.592,0,0,0,.645,2.187l11.16,6.024a1.692,1.692,0,0,0,.49.171,3.443,3.443,0,0,0,2.542-.126l3.328-1.516,3.327-1.517a4.58,4.58,0,0,0,1.994-2.246,1.57,1.57,0,0,0-.007-1.337l-5.4-11.271a1.672,1.672,0,0,0-2.193-.776l-.617.281a1.613,1.613,0,0,0-.934,1.246l-.458-.955a1.674,1.674,0,0,0-2.193-.777l-.617.282a1.612,1.612,0,0,0-.943,1.328l-.34-.71a1.675,1.675,0,0,0-2.194-.776l-.617.282a1.61,1.61,0,0,0-.949,1.5L110,160.893a1.674,1.674,0,0,0-2.193-.777" transform="translate(-104.858 -159.965)" fill="none"/>
    </clipPath>
    <clipPath id="clip-path-10">
      <path id="Trazado_1282333" data-name="Trazado 1282333" d="M312.052,292.88c0,14.78,8.442,23.415,18.855,23.415s18.855-8.635,18.855-23.415-8.442-23.414-18.855-23.414-18.855,8.634-18.855,23.414" transform="translate(-312.052 -269.466)" fill="none"/>
    </clipPath>
    <clipPath id="clip-path-12">
      <rect id="Rectángulo_464336" data-name="Rectángulo 464336" width="21.948" height="46.828" fill="none"/>
    </clipPath>
    <clipPath id="clip-path-13">
      <rect id="Rectángulo_464341" data-name="Rectángulo 464341" width="42.4" height="27.043" fill="none"/>
    </clipPath>
  </defs>
  <g id="Enmascarar_grupo_1184854" data-name="Enmascarar grupo 1184854" transform="translate(-1017.711 -2466)" clip-path="url(#clip-path)">
    <g id="Grupo_1214296" data-name="Grupo 1214296" transform="translate(1030 2450.667)">
      <g id="Grupo_1214295" data-name="Grupo 1214295" clip-path="url(#clip-path-2)">
        <g id="Grupo_1214275" data-name="Grupo 1214275">
          <g id="Grupo_1214274" data-name="Grupo 1214274" clip-path="url(#clip-path-2)">
            <path id="Trazado_1282295" data-name="Trazado 1282295" d="M414.334,127.574c-5.913.448-7.226-2.541-7.4-3.029a26.559,26.559,0,0,0-2.671-6.294l.006,0s-1.9-3.215,3-7.31l-2.954-2.881h0l-2.953-2.88c-4.2,4.783-7.5,2.928-7.5,2.928l.014.016a28,28,0,0,0-6.406-2.591l.013,0s-3.677-.961-3.177-7.239H375.96c.5,6.278-3.177,7.239-3.177,7.239h.016a27.98,27.98,0,0,0-6.406,2.59l.011-.014s-3.3,1.856-7.5-2.928l-2.953,2.88h0L353,110.946c4.906,4.094,3,7.31,3,7.31l.006-.006a26.586,26.586,0,0,0-2.671,6.3c-.174.489-1.486,3.477-7.4,3.029v4.074h0v4.073c5.664-.429,7.107,2.294,7.372,2.955a26.535,26.535,0,0,0,2.752,6.481c.279.606,1.3,3.551-3.061,7.193l2.954,2.881,2.953,2.88c3.662-4.173,6.638-3.294,7.339-3A27.984,27.984,0,0,0,373,157.835c.774.319,3.391,1.8,2.964,7.163h8.354c-.427-5.361,2.189-6.843,2.964-7.163a27.983,27.983,0,0,0,6.749-2.727c.7-.292,3.677-1.171,7.339,3l2.953-2.88,2.954-2.881c-4.364-3.642-3.34-6.587-3.061-7.193a26.538,26.538,0,0,0,2.752-6.481c.265-.661,1.709-3.384,7.372-2.955v-8.146Zm-34.2,15.455a11.374,11.374,0,1,1,11.659-11.37,11.518,11.518,0,0,1-11.659,11.37" transform="translate(-62.72 -19.814)" fill="#a7cdd3"/>
            <path id="Trazado_1282296" data-name="Trazado 1282296" d="M149.5,63.71c-5.914.448-7.227-2.54-7.4-3.029a26.542,26.542,0,0,0-2.671-6.294l.006,0s-1.9-3.215,3-7.31l-2.954-2.88-2.953-2.881c-4.2,4.784-7.5,2.929-7.5,2.929l.014.016a27.967,27.967,0,0,0-6.406-2.591l.013,0s-3.677-.961-3.177-7.239h-8.354c.5,6.277-3.177,7.239-3.177,7.239l.016,0a27.975,27.975,0,0,0-6.405,2.59l.011-.014s-3.3,1.856-7.5-2.929L91.123,44.2l-2.954,2.88c4.906,4.094,3,7.31,3,7.31l.007-.006a26.522,26.522,0,0,0-2.671,6.3c-.174.489-1.487,3.477-7.4,3.029v8.147c5.663-.43,7.106,2.294,7.372,2.955a26.548,26.548,0,0,0,2.752,6.481c.279.606,1.3,3.551-3.061,7.193l2.954,2.88,2.953,2.881c3.662-4.173,6.638-3.294,7.339-3a27.984,27.984,0,0,0,6.749,2.727c.774.319,3.391,1.8,2.964,7.163h8.354c-.427-5.361,2.19-6.844,2.964-7.163a27.984,27.984,0,0,0,6.749-2.727c.7-.292,3.677-1.171,7.339,3l2.953-2.881,2.954-2.88c-4.364-3.642-3.34-6.587-3.061-7.193a26.55,26.55,0,0,0,2.752-6.481c.265-.661,1.709-3.385,7.372-2.955V67.783h0Zm-34.2,24.8a20.72,20.72,0,1,1,21.239-20.713A20.981,20.981,0,0,1,115.3,88.508" transform="translate(-14.705 -6.941)" fill="#a7cdd3"/>
            <path id="Trazado_1282297" data-name="Trazado 1282297" d="M363.335,325.078c0,9.841-79.166,17.819-176.822,17.819S9.69,334.919,9.69,325.078s79.166-17.819,176.823-17.819,176.822,7.978,176.822,17.819" transform="translate(-1.757 -61.936)" fill="#cfe8ff"/>
            <rect id="Rectángulo_464313" data-name="Rectángulo 464313" width="260.547" height="169.115" rx="9.617" transform="translate(54.482 60.842)" fill="#2f475a"/>
            <rect id="Rectángulo_464314" data-name="Rectángulo 464314" width="239.789" height="134.726" transform="translate(64.861 68.92)" fill="#0d87b2"/>
            <g id="Grupo_1214270" data-name="Grupo 1214270" transform="translate(64.861 68.92)" opacity="0.2">
              <g id="Grupo_1214269" data-name="Grupo 1214269">
                <g id="Grupo_1214268" data-name="Grupo 1214268" clip-path="url(#clip-path-4)">
                  <path id="Trazado_1282298" data-name="Trazado 1282298" d="M79.225,221.046,319.014,86.32V221.046Z" transform="translate(-79.225 -86.32)" fill="#035aa6"/>
                </g>
              </g>
            </g>
            <path id="Trazado_1282299" data-name="Trazado 1282299" d="M270.278,320.155H155.685l18.757-32.139h77.079Z" transform="translate(-28.226 -58.057)" fill="#0d87b2"/>
            <g id="Grupo_1214273" data-name="Grupo 1214273" transform="translate(142.639 229.958)" opacity="0.4">
              <g id="Grupo_1214272" data-name="Grupo 1214272">
                <g id="Grupo_1214271" data-name="Grupo 1214271" clip-path="url(#clip-path-5)">
                  <path id="Trazado_1282300" data-name="Trazado 1282300" d="M177.8,288.015h77.079l9.378,16.07-90.034-9.94Z" transform="translate(-174.227 -288.015)" fill="#035aa6"/>
                </g>
              </g>
            </g>
            <rect id="Rectángulo_464317" data-name="Rectángulo 464317" width="211.529" height="109.985" transform="translate(78.991 79.384)" fill="#d1e6ed"/>
            <rect id="Rectángulo_464318" data-name="Rectángulo 464318" width="211.529" height="14.28" transform="translate(78.991 79.384)" fill="#57d1e5"/>
            <path id="Trazado_1282301" data-name="Trazado 1282301" d="M109.119,107.725a2.612,2.612,0,1,1-2.611-2.546,2.579,2.579,0,0,1,2.611,2.546" transform="translate(-18.837 -21.202)" fill="#fdffff"/>
            <path id="Trazado_1282302" data-name="Trazado 1282302" d="M121.72,107.725a2.612,2.612,0,1,1-2.611-2.546,2.579,2.579,0,0,1,2.611,2.546" transform="translate(-21.122 -21.202)" fill="#fdffff"/>
            <path id="Trazado_1282303" data-name="Trazado 1282303" d="M134.321,107.725a2.612,2.612,0,1,1-2.611-2.546,2.579,2.579,0,0,1,2.611,2.546" transform="translate(-23.406 -21.202)" fill="#fdffff"/>
          </g>
        </g>
        <g id="Grupo_1214277" data-name="Grupo 1214277" transform="translate(78.991 79.384)">
          <g id="Grupo_1214276" data-name="Grupo 1214276" clip-path="url(#clip-path-6)">
            <path id="Trazado_1282304" data-name="Trazado 1282304" d="M209.077,120.227c-41.318,0-74.933,32.782-74.933,73.078s33.615,73.076,74.933,73.076,74.932-32.782,74.932-73.076-33.614-73.078-74.932-73.078m44.974,71.883H210.3V157.2a152.266,152.266,0,0,0,37.015-4.541,106.478,106.478,0,0,1,6.734,39.453m-43.749-37.3V122.649a73.743,73.743,0,0,1,22.719,3.951,94.965,94.965,0,0,1,13.428,23.8,149.783,149.783,0,0,1-36.147,4.407m-2.451-.015A165.573,165.573,0,0,1,172,150.317a94.293,94.293,0,0,1,13.491-23.838,73.751,73.751,0,0,1,22.357-3.831Zm0,2.382V192.11H164.366a106.428,106.428,0,0,1,6.768-39.545,168.377,168.377,0,0,0,36.717,4.613m-42.58,5.9a110.39,110.39,0,0,0-3.358,29.033H136.627a69.361,69.361,0,0,1,17.448-44.764,127.308,127.308,0,0,0,14.659,4.621,111.412,111.412,0,0,0-3.463,11.11M161.976,194.5a125.915,125.915,0,0,0,8.158,39.632,144.1,144.1,0,0,0-16.045,5.146A69.36,69.36,0,0,1,136.627,194.5Zm2.454,0h43.42v34.913a152.546,152.546,0,0,0-35.329,4.125,123.779,123.779,0,0,1-8.091-39.038m43.42,37.3v32.163a73.751,73.751,0,0,1-22.242-3.794,159.715,159.715,0,0,1-12.219-24.374,150.086,150.086,0,0,1,34.461-3.994m2.451.015a165.555,165.555,0,0,1,34.638,4.195,159.684,159.684,0,0,1-12.068,24.05,73.74,73.74,0,0,1-22.571,3.9Zm0-2.382V194.5h43.684a123.854,123.854,0,0,1-8.174,39.259,168.314,168.314,0,0,0-35.51-4.33M256.441,194.5h25.086a69.364,69.364,0,0,1-17.448,44.762,129.549,129.549,0,0,0-15.87-4.927,125.989,125.989,0,0,0,8.233-39.835m.064-2.391a110.391,110.391,0,0,0-3.358-29.033,111.783,111.783,0,0,0-3.44-11.049,143.823,143.823,0,0,0,14.357-4.7,69.365,69.365,0,0,1,17.464,44.781Zm5.832-46.686a141.442,141.442,0,0,1-13.487,4.359A101.313,101.313,0,0,0,237.3,128.2a72.815,72.815,0,0,1,25.04,17.227m-81.111-17.37a101.014,101.014,0,0,0-11.633,21.67,129.446,129.446,0,0,1-13.793-4.281,72.816,72.816,0,0,1,25.426-17.389M155.817,241.185a141.858,141.858,0,0,1,15.177-4.8,160.2,160.2,0,0,0,11,22.468,72.81,72.81,0,0,1-26.175-17.666M236.5,258.719a160.273,160.273,0,0,0,10.84-22.139,131.773,131.773,0,0,1,15.011,4.586,72.825,72.825,0,0,1-25.85,17.553" transform="translate(-103.312 -103.619)" fill="#0d87b2"/>
            <path id="Trazado_1282305" data-name="Trazado 1282305" d="M183.465,161.483a9.191,9.191,0,0,0,2.332-6.114,9.6,9.6,0,0,0-19.2,0,9.191,9.191,0,0,0,2.332,6.114l7.269,8.95Z" transform="translate(-109.195 -108.815)" fill="#f5c037"/>
            <path id="Trazado_1282306" data-name="Trazado 1282306" d="M176.91,162.381a6.219,6.219,0,1,1,6.374-6.217,6.3,6.3,0,0,1-6.374,6.217m0-10.064a3.848,3.848,0,1,0,3.944,3.847,3.9,3.9,0,0,0-3.944-3.847" transform="translate(-109.91 -109.61)" fill="#ef8445"/>
            <path id="Trazado_1282307" data-name="Trazado 1282307" d="M288.191,217.109a9.191,9.191,0,0,0,2.332-6.114,9.6,9.6,0,0,0-19.2,0,9.191,9.191,0,0,0,2.332,6.114l7.269,8.95Z" transform="translate(-128.182 -120.028)" fill="#f5c037"/>
            <path id="Trazado_1282308" data-name="Trazado 1282308" d="M281.636,218.007a6.219,6.219,0,1,1,6.374-6.217,6.3,6.3,0,0,1-6.374,6.217m0-10.064a3.848,3.848,0,1,0,3.944,3.847,3.9,3.9,0,0,0-3.944-3.847" transform="translate(-128.897 -120.823)" fill="#ef8445"/>
            <path id="Trazado_1282309" data-name="Trazado 1282309" d="M229.83,266.137a9.191,9.191,0,0,0,2.332-6.114,9.6,9.6,0,0,0-19.2,0,9.191,9.191,0,0,0,2.332,6.114l7.269,8.95Z" transform="translate(-117.601 -129.911)" fill="#f5c037"/>
            <path id="Trazado_1282310" data-name="Trazado 1282310" d="M223.275,267.035a6.219,6.219,0,1,1,6.374-6.217,6.3,6.3,0,0,1-6.374,6.217m0-10.064a3.848,3.848,0,1,0,3.945,3.847,3.9,3.9,0,0,0-3.945-3.847" transform="translate(-118.316 -130.706)" fill="#ef8445"/>
          </g>
        </g>
        <g id="Grupo_1214279" data-name="Grupo 1214279">
          <g id="Grupo_1214278" data-name="Grupo 1214278" clip-path="url(#clip-path-2)">
            <path id="Trazado_1282359" data-name="Trazado 1282359" d="M0,0,19.674.246,20.78,88.9,1.106,88.654Z" transform="matrix(0.677, -0.736, 0.736, 0.677, 266.531, 119.983)" fill="#0d87b2"/>
            <path id="Trazado_1282360" data-name="Trazado 1282360" d="M0,0,14.227.178l.311,24.949L.311,24.949Z" transform="matrix(0.677, -0.736, 0.736, 0.677, 270.757, 120.117)" fill="#d1e6ed"/>
            <path id="Trazado_1282361" data-name="Trazado 1282361" d="M0,0,14.227.178l.311,24.949L.311,24.949Z" transform="matrix(0.677, -0.736, 0.736, 0.677, 292.111, 139.275)" fill="#d1e6ed"/>
            <path id="Trazado_1282362" data-name="Trazado 1282362" d="M0,0,14.227.178l.311,24.949L.311,24.949Z" transform="matrix(0.677, -0.736, 0.736, 0.677, 313.465, 158.433)" fill="#d1e6ed"/>
            <path id="Trazado_1282311" data-name="Trazado 1282311" d="M333.809,175.409s14.344-18.227,34.123-.482,2.346,33.2,2.346,33.2Z" transform="translate(-60.521 -33.696)" fill="#2f475a"/>
            <path id="Trazado_1282312" data-name="Trazado 1282312" d="M369.732,209.46c-4.052,4.3-11.734,3.892-17.07-.9L335.6,193.255c-5.337-4.788-6.388-12.22-2.336-16.515s11.733-3.892,17.07.9L367.4,192.944c5.336,4.788,6.387,12.22,2.336,16.515" transform="translate(-59.975 -35.027)" fill="#f5c037"/>
            <path id="Trazado_1282313" data-name="Trazado 1282313" d="M343.426,209.765l12.14-10.783-4.741-4.254-10.009,12.7a2.909,2.909,0,0,0-2.347.888,2.764,2.764,0,0,0,.17,3.975,2.936,2.936,0,0,0,4.075-.166,2.749,2.749,0,0,0,.711-2.355" transform="translate(-61.228 -39.253)" fill="#2f475a"/>
            <path id="Trazado_1282314" data-name="Trazado 1282314" d="M149.414,213.334a35.011,35.011,0,0,0-48.637,0,32.954,32.954,0,0,0,0,47.433,35.012,35.012,0,0,0,48.637,0,32.955,32.955,0,0,0,0-47.434m-44.945,43.832a27.952,27.952,0,0,1,0-40.231,29.7,29.7,0,0,1,41.252,0,27.953,27.953,0,0,1,0,40.231,29.7,29.7,0,0,1-41.252,0" transform="translate(-16.445 -41.023)" fill="#ef8445"/>
            <path id="Trazado_1282363" data-name="Trazado 1282363" d="M0,0,50.742.636l.053,4.237L.053,4.237Z" transform="translate(47.699 252.512) rotate(-45)" fill="#ef8445"/>
            <path id="Trazado_1282364" data-name="Trazado 1282364" d="M4.207-.113,41.026.348a4.509,4.509,0,0,1,4.429,4.429l0,.2A4.243,4.243,0,0,1,41.139,9.3L4.319,8.839a4.51,4.51,0,0,1-4.43-4.43l0-.2A4.244,4.244,0,0,1,4.207-.113Z" transform="translate(38.752 258.176) rotate(-45)" fill="#2f475a"/>
            <path id="Trazado_1282315" data-name="Trazado 1282315" d="M149.5,225.763a16.344,16.344,0,0,1,6.51,6.611,19.178,19.178,0,0,1,0,18.327,16.286,16.286,0,0,1-6.515,6.609,38.846,38.846,0,0,0,3.4-7.866,27.683,27.683,0,0,0,0-15.816,38.413,38.413,0,0,0-3.4-7.864" transform="translate(-27.106 -45.509)" fill="#ef8445"/>
            <path id="Trazado_1282316" data-name="Trazado 1282316" d="M254.59,149.88h47.88a5.09,5.09,0,0,0-4.8-3.3,5.145,5.145,0,0,0-1.472.22,15.77,15.77,0,0,0-30.728-2.367,9.709,9.709,0,0,0-3.722-.739,9.586,9.586,0,0,0-8.184,4.523A5.148,5.148,0,0,0,245,149.88h9.59Z" transform="translate(-44.419 -26.849)" fill="#fdffff"/>
            <path id="Trazado_1282317" data-name="Trazado 1282317" d="M221.421,202.773h-43.1a4.58,4.58,0,0,1,4.316-2.967,4.647,4.647,0,0,1,1.325.2,14.2,14.2,0,0,1,27.66-2.13,8.72,8.72,0,0,1,3.35-.665,8.631,8.631,0,0,1,7.367,4.072,4.633,4.633,0,0,1,7.713,1.492h-8.632Z" transform="translate(-32.33 -37.847)" fill="#fdffff"/>
            <rect id="Rectángulo_464327" data-name="Rectángulo 464327" width="97.76" height="31.407" rx="5.239" transform="translate(20.639 107.833)" fill="#fff"/>
            <path id="Trazado_1282318" data-name="Trazado 1282318" d="M35.684,148.387h2.7l1.736,5.994,1.678-5.994h1.87l1.574,6.008,1.722-6.008h2.7L46.8,158.507h-2.42l-1.707-5.878-1.693,5.878H38.551Z" transform="translate(-6.47 -29.912)" fill="#0d87b2"/>
            <path id="Trazado_1282319" data-name="Trazado 1282319" d="M54.762,148.387h2.7l1.736,5.994,1.678-5.994h1.87l1.574,6.008,1.722-6.008h2.7l-2.865,10.12h-2.42l-1.707-5.878-1.693,5.878H57.628Z" transform="translate(-9.929 -29.912)" fill="#0d87b2"/>
            <path id="Trazado_1282320" data-name="Trazado 1282320" d="M73.839,148.387h2.7l1.736,5.994,1.678-5.994h1.87L83.4,154.4l1.722-6.008h2.7l-2.865,10.12h-2.42l-1.707-5.878-1.693,5.878H76.705Z" transform="translate(-13.387 -29.912)" fill="#0d87b2"/>
            <rect id="Rectángulo_464328" data-name="Rectángulo 464328" width="0.858" height="19.598" transform="translate(77.957 113.737)" fill="#0d87b2"/>
            <path id="Trazado_1282321" data-name="Trazado 1282321" d="M120.947,161.465l-.617.281a1.614,1.614,0,0,0-.934,1.246l-.458-.955a1.672,1.672,0,0,0-2.193-.776l-.617.281a1.612,1.612,0,0,0-.943,1.328l-.341-.709a1.672,1.672,0,0,0-2.193-.776l-.616.281a1.611,1.611,0,0,0-.95,1.5L110,160.893a1.673,1.673,0,0,0-2.193-.777l-.617.282a1.6,1.6,0,0,0-.8,2.139l4.818,10.054-3.573-1.928a1.676,1.676,0,0,0-2.242.628l-.33.581a1.593,1.593,0,0,0,.644,2.187l11.161,6.024a1.639,1.639,0,0,0,.49.171,3.434,3.434,0,0,0,2.542-.126l3.327-1.516,3.328-1.517a4.576,4.576,0,0,0,1.994-2.245,1.571,1.571,0,0,0-.008-1.339l-5.4-11.27a1.673,1.673,0,0,0-2.193-.776" transform="translate(-19.011 -32.245)" fill="#2f475a"/>
          </g>
        </g>
        <g id="Grupo_1214281" data-name="Grupo 1214281" transform="translate(85.847 127.72)">
          <g id="Grupo_1214280" data-name="Grupo 1214280" clip-path="url(#clip-path-8)">
            <path id="Trazado_1282367" data-name="Trazado 1282367" d="M0,0,.776.008.89,11.235l-.776-.008Z" transform="translate(4.102 -1.322) rotate(-25.051)" fill="#fff"/>
            <path id="Trazado_1282368" data-name="Trazado 1282368" d="M0,0,.777.008.866,8.7.088,8.694Z" transform="translate(8.675 -0.623) rotate(-25.052)" fill="#fff"/>
            <path id="Trazado_1282369" data-name="Trazado 1282369" d="M0,0,.779.008.834,5.423.055,5.415Z" transform="translate(13.501 0.779) rotate(-25.051)" fill="#fff"/>
          </g>
        </g>
        <g id="Grupo_1214283" data-name="Grupo 1214283">
          <g id="Grupo_1214282" data-name="Grupo 1214282" clip-path="url(#clip-path-2)">
            <path id="Rectángulo_464333" data-name="Rectángulo 464333" d="M5.239,0H92.52a5.24,5.24,0,0,1,5.24,5.24V26.168a5.239,5.239,0,0,1-5.239,5.239H5.239A5.239,5.239,0,0,1,0,26.168V5.239A5.239,5.239,0,0,1,5.239,0Z" transform="translate(231.32 37.351)" fill="#fff"/>
            <rect id="Rectángulo_464334" data-name="Rectángulo 464334" width="0.858" height="19.598" transform="translate(303.322 43.255)" fill="#0d87b2"/>
            <path id="Trazado_1282323" data-name="Trazado 1282323" d="M292.083,60.646h2.726V64.7h4.22V60.646h2.725v10.5h-2.725V66.909h-4.22v4.235h-2.726Z" transform="translate(-52.956 -12.225)" fill="#0d87b2"/>
            <path id="Trazado_1282324" data-name="Trazado 1282324" d="M309.375,62.884h-3.033V60.646h8.808v2.238H312.1v8.26h-2.725Z" transform="translate(-55.541 -12.225)" fill="#0d87b2"/>
            <path id="Trazado_1282325" data-name="Trazado 1282325" d="M322.579,62.884h-3.033V60.646h8.808v2.238H325.3v8.26h-2.725Z" transform="translate(-57.935 -12.225)" fill="#0d87b2"/>
            <path id="Trazado_1282326" data-name="Trazado 1282326" d="M332.75,60.646h4.744a4.467,4.467,0,0,1,3,.961,3.347,3.347,0,0,1,1.124,2.688,3.431,3.431,0,0,1-1.117,2.741,4.433,4.433,0,0,1-3.01.969h-2.017v3.139H332.75Zm4.312,5.122a2.2,2.2,0,0,0,1.286-.331,1.3,1.3,0,0,0,.47-1.142,1.227,1.227,0,0,0-.462-1.111,2.36,2.36,0,0,0-1.294-.3h-1.586v2.884Z" transform="translate(-60.329 -12.225)" fill="#0d87b2"/>
            <path id="Trazado_1282327" data-name="Trazado 1282327" d="M346.142,66.609a1.247,1.247,0,0,1,0-1.817,1.326,1.326,0,0,1,1.863,0,1.247,1.247,0,0,1,0,1.817,1.324,1.324,0,0,1-1.863,0m0,4.776a1.247,1.247,0,0,1,0-1.817,1.326,1.326,0,0,1,1.863,0,1.247,1.247,0,0,1,0,1.817,1.324,1.324,0,0,1-1.863,0" transform="translate(-62.686 -12.983)" fill="#0d87b2"/>
            <path id="Trazado_1282328" data-name="Trazado 1282328" d="M355.725,60.364H358.5l-4.389,10.724h-2.772Z" transform="translate(-63.698 -12.168)" fill="#0d87b2"/>
            <path id="Trazado_1282329" data-name="Trazado 1282329" d="M363.177,60.364h2.771L361.56,71.088h-2.773Z" transform="translate(-65.049 -12.168)" fill="#0d87b2"/>
            <path id="Trazado_1282330" data-name="Trazado 1282330" d="M378.7,65.607l4.052,19.669,3.257-6.5,6.676,9.323,2.856-1.945-6.676-9.323,7.374-.745Z" transform="translate(-68.66 -13.225)" fill="#2f475a"/>
            <path id="Trazado_1282331" data-name="Trazado 1282331" d="M349.762,292.88c0,14.78-8.442,23.415-18.855,23.415s-18.855-8.635-18.855-23.415,8.442-23.415,18.855-23.415,18.855,8.635,18.855,23.415" transform="translate(-56.576 -54.318)" fill="#fff"/>
          </g>
        </g>
        <g id="Grupo_1214285" data-name="Grupo 1214285" transform="translate(255.476 215.148)">
          <g id="Grupo_1214284" data-name="Grupo 1214284" clip-path="url(#clip-path-10)">
            <path id="Trazado_1282332" data-name="Trazado 1282332" d="M346.625,283.743c-1.712.174-3.407.412-5.118.523l-2.557.212-2.561.132c-.851.061-1.705.081-2.559.1s-1.707.065-2.56.043h-.158V263.623h-.858v21.133l-1.545,0-2.56-.077c-1.707-.049-3.412-.16-5.118-.289a101.479,101.479,0,0,1-10.217-1.294,45.035,45.035,0,0,0,10.06,2.585,66.88,66.88,0,0,0,9.38.73v.014h.858v0l.169,0a68.881,68.881,0,0,0,10.393-.865c1.723-.225,3.414-.644,5.105-1.01,1.683-.407,3.339-.927,4.982-1.453-1.732.165-3.424.467-5.136.645" transform="translate(-311.828 -268.288)" fill="#0d87b2"/>
          </g>
        </g>
        <g id="Grupo_1214290" data-name="Grupo 1214290">
          <g id="Grupo_1214289" data-name="Grupo 1214289" clip-path="url(#clip-path-2)">
            <g id="Grupo_1214288" data-name="Grupo 1214288" transform="translate(271.237 215.147)" opacity="0.1">
              <g id="Grupo_1214287" data-name="Grupo 1214287">
                <g id="Grupo_1214286" data-name="Grupo 1214286" clip-path="url(#clip-path-12)">
                  <path id="Trazado_1282334" data-name="Trazado 1282334" d="M334.4,269.465a18.067,18.067,0,0,0-3.094.267c8.941,1.548,15.762,9.864,15.762,23.147s-6.821,21.6-15.762,23.146a18.064,18.064,0,0,0,3.094.267c10.413,0,18.855-8.634,18.855-23.414s-8.442-23.415-18.855-23.415" transform="translate(-331.304 -269.465)" fill="#035aa6"/>
                </g>
              </g>
            </g>
            <path id="Trazado_1282335" data-name="Trazado 1282335" d="M335.416,262.4h-.858v-8.887a7.212,7.212,0,0,1,7.292-7.112h39.055c3.548,0,6.434-2.5,6.434-5.571a5.6,5.6,0,0,0-5.612-5.571h-6.042v-.836h6.042a6.447,6.447,0,0,1,6.47,6.407c0,3.534-3.272,6.408-7.292,6.408H341.85a6.363,6.363,0,0,0-6.434,6.275Z" transform="translate(-60.657 -47.255)" fill="#fff"/>
            <path id="Trazado_1282336" data-name="Trazado 1282336" d="M41.123,132.126h-.858v-17.17a7.211,7.211,0,0,1,7.292-7.111H61.782v.836H47.557a6.363,6.363,0,0,0-6.434,6.275Z" transform="translate(-7.3 -21.739)" fill="#fff"/>
            <path id="Trazado_1282337" data-name="Trazado 1282337" d="M430.412,242.079l-3.522-9.616-3.521,9.616-8.171,3.572,8.171,3.571,3.521,9.617,3.522-9.617,8.171-3.571Z" transform="translate(-75.277 -46.859)" fill="#a7cdd3"/>
            <path id="Trazado_1282338" data-name="Trazado 1282338" d="M449.975,184.5l-1.438-3.927L447.1,184.5l-3.337,1.459,3.337,1.459,1.438,3.927,1.438-3.927,3.337-1.459Z" transform="translate(-80.456 -36.398)" fill="#a7cdd3"/>
            <path id="Trazado_1282339" data-name="Trazado 1282339" d="M426.863,80.8l-2.712-7.4-2.711,7.4-6.29,2.75,6.29,2.75,2.711,7.4,2.712-7.4,6.29-2.75Z" transform="translate(-75.268 -14.796)" fill="#a7cdd3"/>
            <path id="Trazado_1282340" data-name="Trazado 1282340" d="M444.142,49.834,442.7,45.907l-1.438,3.927-3.337,1.459,3.337,1.459,1.438,3.927,1.438-3.927,3.337-1.459Z" transform="translate(-79.398 -9.254)" fill="#a7cdd3"/>
            <path id="Trazado_1282341" data-name="Trazado 1282341" d="M63.684,57.827,62.245,53.9l-1.438,3.927-3.336,1.459,3.336,1.459,1.438,3.927,1.438-3.927,3.337-1.459Z" transform="translate(-10.42 -10.865)" fill="#a7cdd3"/>
            <path id="Trazado_1282342" data-name="Trazado 1282342" d="M40.983,29.119l-2.712-7.4-2.711,7.4-6.291,2.75,6.291,2.75,2.711,7.4,2.712-7.4,6.29-2.75Z" transform="translate(-5.307 -4.377)" fill="#a7cdd3"/>
            <path id="Trazado_1282343" data-name="Trazado 1282343" d="M23.769,89.329l-3.521-9.616-3.522,9.616L8.555,92.9l8.171,3.571,3.522,9.617,3.521-9.617L31.939,92.9Z" transform="translate(-1.551 -16.068)" fill="#a7cdd3"/>
            <path id="Trazado_1282344" data-name="Trazado 1282344" d="M23.217,216.08l-1.438-3.927L20.34,216.08,17,217.539,20.34,219l1.438,3.927L23.217,219l3.337-1.459Z" transform="translate(-3.083 -42.765)" fill="#a7cdd3"/>
            <path id="Trazado_1282345" data-name="Trazado 1282345" d="M42.57,240.485l-2.712-7.4-2.711,7.4-6.29,2.75,6.29,2.75,2.711,7.4,2.712-7.4,6.29-2.75Z" transform="translate(-5.595 -46.984)" fill="#a7cdd3"/>
            <path id="Trazado_1282346" data-name="Trazado 1282346" d="M452.062,125.06a3.171,3.171,0,1,1-3.17-3.091,3.131,3.131,0,0,1,3.17,3.091" transform="translate(-80.811 -24.586)" fill="#fdffff"/>
            <path id="Trazado_1282347" data-name="Trazado 1282347" d="M453.3,226.212a4.765,4.765,0,1,1-4.763-4.646,4.706,4.706,0,0,1,4.763,4.646" transform="translate(-80.458 -44.663)" fill="#fdffff"/>
            <path id="Trazado_1282348" data-name="Trazado 1282348" d="M427.593,181.363a1.93,1.93,0,1,1-1.93-1.882,1.906,1.906,0,0,1,1.93,1.882" transform="translate(-76.825 -36.179)" fill="#fdffff"/>
            <path id="Trazado_1282349" data-name="Trazado 1282349" d="M361.628,28.066a3.171,3.171,0,1,1-3.17-3.091,3.131,3.131,0,0,1,3.17,3.091" transform="translate(-64.415 -5.034)" fill="#fdffff"/>
            <path id="Trazado_1282350" data-name="Trazado 1282350" d="M403.458,7.7a1.93,1.93,0,1,1-1.93-1.881,1.907,1.907,0,0,1,1.93,1.881" transform="translate(-72.449 -1.173)" fill="#fdffff"/>
            <path id="Trazado_1282351" data-name="Trazado 1282351" d="M77.548,4.646a4.765,4.765,0,0,1-9.527,0,4.765,4.765,0,0,1,9.527,0" transform="translate(-12.332)" fill="#fdffff"/>
            <path id="Trazado_1282352" data-name="Trazado 1282352" d="M12.158,50.585a3.171,3.171,0,1,1-3.17-3.091,3.131,3.131,0,0,1,3.17,3.091" transform="translate(-1.055 -9.574)" fill="#fdffff"/>
            <path id="Trazado_1282353" data-name="Trazado 1282353" d="M43.354,78.247a1.93,1.93,0,1,1-1.93-1.882,1.906,1.906,0,0,1,1.93,1.882" transform="translate(-7.161 -15.393)" fill="#fdffff"/>
            <path id="Trazado_1282354" data-name="Trazado 1282354" d="M47.841,199.644a1.93,1.93,0,1,1-1.93-1.882,1.906,1.906,0,0,1,1.93,1.882" transform="translate(-7.974 -39.864)" fill="#fdffff"/>
            <path id="Trazado_1282355" data-name="Trazado 1282355" d="M9.527,253.887a4.706,4.706,0,0,1-4.763,4.646,4.647,4.647,0,1,1,0-9.292,4.706,4.706,0,0,1,4.763,4.646" transform="translate(0 -50.241)" fill="#fdffff"/>
            <rect id="Rectángulo_464337" data-name="Rectángulo 464337" width="42.4" height="27.043" transform="translate(152.201 44.027)" fill="#fff"/>
          </g>
        </g>
        <g id="Grupo_1214292" data-name="Grupo 1214292" transform="translate(152.201 44.027)">
          <g id="Grupo_1214291" data-name="Grupo 1214291" clip-path="url(#clip-path-13)">
            <path id="Trazado_1282356" data-name="Trazado 1282356" d="M206.686,69.416l-23.1-14.733.332-.494,22.77,14.522,22.769-14.522.332.494Z" transform="translate(-185.486 -54.951)" fill="#0d87b2"/>
            <path id="Trazado_1282365" data-name="Trazado 1282365" d="M0,0,24.908.308l.007.6L.007.6Z" transform="translate(-1.966 28.552) rotate(-50.155)" fill="#0d87b2"/>
            <path id="Trazado_1282366" data-name="Trazado 1282366" d="M0,0,.6.007.907,24.916l-.6-.007Z" transform="translate(27.703 10.005) rotate(-39.855)" fill="#0d87b2"/>
          </g>
        </g>
        <g id="Grupo_1214294" data-name="Grupo 1214294">
          <g id="Grupo_1214293" data-name="Grupo 1214293" clip-path="url(#clip-path-2)">
            <path id="Trazado_1282357" data-name="Trazado 1282357" d="M242.374,55.024a8.121,8.121,0,1,1-8.118-7.917,8.02,8.02,0,0,1,8.118,7.917" transform="translate(-41 -9.496)" fill="#ef8445"/>
            <path id="Trazado_1282358" data-name="Trazado 1282358" d="M233.662,59.84a4.2,4.2,0,0,1-1.143-.355V57.977a5.5,5.5,0,0,0,2.254.5q1.535,0,1.535-.893a.684.684,0,0,0-.376-.652,2.617,2.617,0,0,0-1.171-.2H233.69V55.273h1.027a1.962,1.962,0,0,0,1.01-.216.745.745,0,0,0,.039-1.25,1.622,1.622,0,0,0-.906-.215,4.1,4.1,0,0,0-2.187.6v-1.54a4.707,4.707,0,0,1,1.138-.4,5.984,5.984,0,0,1,1.325-.145,3.5,3.5,0,0,1,2.231.587,2.018,2.018,0,0,1,.718,1.654,1.872,1.872,0,0,1-.237.916,2.063,2.063,0,0,1-.7.732,1.718,1.718,0,0,1,1.159,1.681,2.021,2.021,0,0,1-.762,1.686,4.064,4.064,0,0,1-2.486.6,8,8,0,0,1-1.4-.118" transform="translate(-42.157 -10.503)" fill="#fff"/>
          </g>
        </g>
      </g>
    </g>
  </g>
</svg>
