<svg xmlns="http://www.w3.org/2000/svg" xmlns:xlink="http://www.w3.org/1999/xlink" width="128" height="128" viewBox="0 0 128 128">
  <defs>
    <clipPath id="clip-path">
      <rect id="Rectángulo_464975" data-name="Rectángulo 464975" width="60.332" height="66" fill="#19538d"/>
    </clipPath>
  </defs>
  <g id="Grupo_1215052" data-name="Grupo 1215052" transform="translate(-383.746 -8400)">
    <circle id="Elipse_13890" data-name="Elipse 13890" cx="64" cy="64" r="64" transform="translate(383.746 8400)" fill="#5a9ad7"/>
    <path id="Intersección_1" data-name="Intersección 1" d="M23204.689,11774.869a64,64,0,0,1,106.254-48.067l-104.787,61.753A64.213,64.213,0,0,1,23204.689,11774.869Z" transform="translate(-22820.941 -3310.872)" fill="#19538d"/>
    <circle id="Elipse_13891" data-name="Elipse 13891" cx="54" cy="54" r="54" transform="translate(393.746 8410)" fill="#fff"/>
    <g id="Grupo_1188343" data-name="Grupo 1188343" transform="translate(-0.994 -0.997)">
      <rect id="Rectángulo_459838" data-name="Rectángulo 459838" width="66" height="66" transform="translate(415.74 8431.997)" fill="#fff"/>
      <g id="Grupo_1215055" data-name="Grupo 1215055" transform="translate(418.74 8431.997)">
        <g id="Grupo_1215054" data-name="Grupo 1215054" clip-path="url(#clip-path)">
          <path id="Trazado_1283547" data-name="Trazado 1283547" d="M26.417,25.234l16.493.028a5.941,5.941,0,0,1,5.659,4.955,7.954,7.954,0,1,1-8.247,6.961l-13.751-.012-.009,3.961a3.41,3.41,0,0,1,3.6.726,3.292,3.292,0,0,1,4.579-.043,3.367,3.367,0,0,1,3.5-.671,3.28,3.28,0,0,1,2.049,2.911l.007,5.626,6.585.007c.446,0,.8.648.762,1.039a1.072,1.072,0,0,1-.965.874l-6.373.007-.069,2.962c-.047,2-2.014,3.648-3.77,3.989l-.139.6c1.258.026,2.044.692,2.038,1.773l-.023,3.552A1.586,1.586,0,0,1,36.723,66H23.612A1.623,1.623,0,0,1,21.974,64.3V60.948a1.626,1.626,0,0,1,1.815-1.723l-.037-.682a4.646,4.646,0,0,1-3.677-4.16L20.021,51.6l-17.594,0A2.335,2.335,0,0,1,0,49.1L.008,13.7a2.837,2.837,0,0,1,2.43-2.79l21.14-.044a7.947,7.947,0,0,1,13.161,0l3.416.007A7.957,7.957,0,0,1,51.215.9a1.077,1.077,0,0,1,.391,1.149c-.137.343-.8.792-1.176.6a6.074,6.074,0,0,0-7.566,1.545,6.011,6.011,0,0,0,8.118,8.689,6.064,6.064,0,0,0,1.98-7.568,1.114,1.114,0,0,1,.465-1.279c1.725-.833,2.749,3.94,1.517,6.82l2.806.056a2.824,2.824,0,0,1,2.572,2.8L60.332,49.1a2.341,2.341,0,0,1-2.415,2.5l-6.768-.007a1.124,1.124,0,0,1-.945-.87.926.926,0,0,1,.941-1.043l7.229-.018,0-30.1-21.5.007a7.936,7.936,0,0,1-13.421,0l-21.5,0,0,30.107,18.078.006v-12.5l-2.443-.012a5.983,5.983,0,0,1-5.876-5.769A5.875,5.875,0,0,1,17.4,25.268l4.364-.04a1.073,1.073,0,0,1,.982.912.947.947,0,0,1-1.016,1.008l-4.31.046a3.95,3.95,0,0,0-3.762,4.194,4.039,4.039,0,0,0,4.13,3.853h2.448a3.324,3.324,0,0,1,2.906-2.108,3.247,3.247,0,0,1,3.2,2.1l14.5,0a8.169,8.169,0,0,1,5.751-4.854A4.058,4.058,0,0,0,42.9,27.152l-16.638,0a.987.987,0,0,1-.925-.991.975.975,0,0,1,1.083-.924m9.753-9.916a6,6,0,1,0-6,6,6,6,0,0,0,6-6m-26.8,2.289,0-4.8L2.8,12.8a1.037,1.037,0,0,0-.855.838l.024,3.967Zm13.155-.014a8.207,8.207,0,0,1,.086-4.787l-11.268,0,.018,4.811ZM57.477,12.8l-3.665.007a7.891,7.891,0,0,1-12.526.016l-3.564-.016a7.986,7.986,0,0,1,.058,4.8l20.568.006.041-3.965a1.05,1.05,0,0,0-.912-.847m-3.242,25.38a6,6,0,1,0-6,6,6,6,0,0,0,6-6M38.358,53.9l0-9.808a1.427,1.427,0,0,0-1.34-1.259c-1.768.114-.839,2.3-2.263,2.317-1.391.013-.6-2.461-2.367-2.3-1.709.157-.873,2.41-2.307,2.306-1.24-.09-.5-2.334-2.268-2.317-1.695.016-.845,2.527-2.394,2.293a1.056,1.056,0,0,1-.821-1.072l0-7.695a1.278,1.278,0,0,0-1.447-1.294,1.343,1.343,0,0,0-1.188,1.348l.006,17.55a2.726,2.726,0,0,0,2.525,2.7,1.192,1.192,0,0,1,1.292,1.289l.035,1.267,8.5-.005.038-1.45a1.016,1.016,0,0,1,1.1-1.069,2.776,2.776,0,0,0,2.9-2.8m-1.934,7.261H23.908v2.944H36.424Z" transform="translate(0 0)" fill="#19538d"/>
          <path id="Trazado_1283548" data-name="Trazado 1283548" d="M121.667,163.2l-21.277-.008c-.476,0-.894-.614-.9-.948a.952.952,0,0,1,.863-.991l21.453.006c.4,0,.757.691.715.985a1.3,1.3,0,0,1-.851.957" transform="translate(-80.833 -131.015)" fill="#19538d"/>
          <path id="Trazado_1283549" data-name="Trazado 1283549" d="M240.431,22.77a1.924,1.924,0,0,1-.362,1.323,1.132,1.132,0,0,1-1.075.105,1.678,1.678,0,0,1-.553-1.374l-1.259-.1a1.215,1.215,0,0,1-.814-.865,1.02,1.02,0,0,1,.895-.993l3.09-.038c.174,0,.481-.356.473-.5a.811.811,0,0,0-.577-.519l-1.649-.01a2.433,2.433,0,0,1-2.436-2.43,2.615,2.615,0,0,1,2.3-2.544,1.956,1.956,0,0,1,.358-1.288,1.321,1.321,0,0,1,1.13-.031c.3.168.44.651.488,1.239.8.262,1.858-.066,2.038.933a1,1,0,0,1-.959,1.151l-2.776,0a1.241,1.241,0,0,0-.642.339c-.125.154.246.655.462.659l1.655.025a2.446,2.446,0,0,1,2.486,2.32,2.49,2.49,0,0,1-2.276,2.6" transform="translate(-191.883 -10.88)" fill="#19538d"/>
          <path id="Trazado_1283550" data-name="Trazado 1283550" d="M27.106,227a2.9,2.9,0,1,1-2.9-2.9,2.9,2.9,0,0,1,2.9,2.9m-1.954,0a.953.953,0,1,0-.953.953.953.953,0,0,0,.953-.953" transform="translate(-17.305 -182.083)" fill="#19538d"/>
          <path id="Trazado_1283551" data-name="Trazado 1283551" d="M65.274,227.016a2.9,2.9,0,1,1-2.9-2.9,2.9,2.9,0,0,1,2.9,2.9m-1.94,0a.961.961,0,1,0-.961.961.96.96,0,0,0,.961-.961" transform="translate(-48.321 -182.094)" fill="#19538d"/>
          <path id="Trazado_1283552" data-name="Trazado 1283552" d="M147.751,62.162a3.454,3.454,0,0,1-.411,1.281,1.136,1.136,0,0,1-1.131.067,1.809,1.809,0,0,1-.491-1.268c-.811-.245-1.844.088-2.029-.92a.987.987,0,0,1,1.016-1.135l2.883-.028c.179,0,.542-.368.514-.518s-.324-.471-.487-.472l-1.644-.006a2.473,2.473,0,0,1-2.521-2.32,2.619,2.619,0,0,1,2.3-2.693,2.265,2.265,0,0,1,.294-1.195,1.241,1.241,0,0,1,1.245-.075,1.938,1.938,0,0,1,.439,1.285l1.1.069a1.042,1.042,0,0,1,.937.9.985.985,0,0,1-.99,1.04l-2.932.021a.734.734,0,0,0-.514.457c-.013.154.317.487.481.495l1.9.086a2.4,2.4,0,0,1,2.274,2.4,2.541,2.541,0,0,1-2.23,2.534" transform="translate(-116.548 -42.858)" fill="#19538d"/>
          <path id="Trazado_1283553" data-name="Trazado 1283553" d="M244.116,183.829a6,6,0,0,1-.439,1.251c-.166.234-.829.27-1.089.155a1.472,1.472,0,0,1-.593-1.288l-.933-.117a1.209,1.209,0,0,1-1.1-.817.974.974,0,0,1,.959-1.141l2.964-.01a.5.5,0,0,0-.015-1l-1.967-.091a2.364,2.364,0,0,1-2.174-2.416,2.623,2.623,0,0,1,2.32-2.489c-.081-.729.145-1.4.863-1.487a1.066,1.066,0,0,1,1.08,1.064c0,.112-.006.468.075.465l.617-.025a1.671,1.671,0,0,1,1.326.653c.192.3-.111,1.219-.522,1.23l-3.321.083a.75.75,0,0,0-.533.491c-.007.182.354.537.544.539l1.649.019a2.438,2.438,0,0,1,2.452,2.273,2.6,2.6,0,0,1-2.158,2.661" transform="translate(-194.777 -141.677)" fill="#19538d"/>
        </g>
      </g>
    </g>
  </g>
</svg>
