<svg xmlns="http://www.w3.org/2000/svg" xmlns:xlink="http://www.w3.org/1999/xlink" width="128" height="128" viewBox="0 0 128 128">
  <defs>
    <clipPath id="clip-path">
      <rect id="Rectángulo_464978" data-name="Rectángulo 464978" width="66" height="55.303" fill="#19538d"/>
    </clipPath>
  </defs>
  <g id="Grupo_1215062" data-name="Grupo 1215062" transform="translate(-383.746 -8400)">
    <circle id="Elipse_13890" data-name="Elipse 13890" cx="64" cy="64" r="64" transform="translate(383.746 8400)" fill="#5a9ad7"/>
    <path id="Intersección_1" data-name="Intersección 1" d="M23204.689,11774.869a64,64,0,0,1,106.254-48.067l-104.787,61.753A64.213,64.213,0,0,1,23204.689,11774.869Z" transform="translate(-22820.941 -3310.872)" fill="#19538d"/>
    <circle id="Elipse_13891" data-name="Elipse 13891" cx="54" cy="54" r="54" transform="translate(393.746 8410)" fill="#fff"/>
    <g id="Grupo_1188343" data-name="Grupo 1188343" transform="translate(-0.994 -0.997)">
      <rect id="Rectángulo_459838" data-name="Rectángulo 459838" width="66" height="66" transform="translate(415.74 8431.997)" fill="#fff"/>
      <g id="Grupo_1215066" data-name="Grupo 1215066" transform="translate(415.74 8436.997)">
        <g id="Grupo_1215065" data-name="Grupo 1215065" clip-path="url(#clip-path)">
          <path id="Trazado_1283564" data-name="Trazado 1283564" d="M61.408,1.965H4.69A2.976,2.976,0,0,0,1.9,4.9L1.87,10.713l46.844,0a1.127,1.127,0,0,1,1.13.839c.084.339-.262,1.124-.8,1.124l-47.178.006.009,37.688a3.166,3.166,0,0,0,2.8,3.068l8.079,0a1.036,1.036,0,0,1,.938.841A1.013,1.013,0,0,1,12.75,55.3l-8.122-.036A4.808,4.808,0,0,1,0,50.576L.01,4.708C.011,2.1,2.155.39,4.559,0H61.449c2.394.376,4.544,2.113,4.544,4.7L66,50.584a4.8,4.8,0,0,1-4.493,4.681L15.957,55.3a1.023,1.023,0,0,1-.932-.861.977.977,0,0,1,.939-1l45.329-.021a3.045,3.045,0,0,0,2.825-3.037l.011-37.7-11.957-.009a1.06,1.06,0,0,1-.964-.97,1.12,1.12,0,0,1,.972-.984l11.978-.015L64.092,4.9a2.973,2.973,0,0,0-2.684-2.934" transform="translate(0)" fill="#19538d"/>
          <path id="Trazado_1283565" data-name="Trazado 1283565" d="M41.22,113.412H22.988V76.838H41.22Zm-16.295-1.906h14.39v-32.7H24.925Z" transform="translate(-18.664 -62.383)" fill="#19538d"/>
          <path id="Trazado_1283566" data-name="Trazado 1283566" d="M170.092,93.482H133.534V76.83h36.558ZM168.2,78.8H135.4V91.626h32.8Z" transform="translate(-108.414 -62.377)" fill="#19538d"/>
          <path id="Trazado_1283567" data-name="Trazado 1283567" d="M170.092,199.848H133.534V183.3h36.558ZM168.2,185.171H135.4v12.766h32.8Z" transform="translate(-108.414 -148.815)" fill="#19538d"/>
          <path id="Trazado_1283568" data-name="Trazado 1283568" d="M29.846,18.918a3.435,3.435,0,1,1-3.435-3.433,3.434,3.434,0,0,1,3.435,3.433m-1.915,0a1.516,1.516,0,1,0-1.516,1.515,1.516,1.516,0,0,0,1.516-1.515" transform="translate(-18.654 -12.572)" fill="#19538d"/>
          <path id="Trazado_1283569" data-name="Trazado 1283569" d="M112.6,18.936a3.431,3.431,0,1,1-3.431-3.429,3.43,3.43,0,0,1,3.431,3.429m-1.916,0a1.518,1.518,0,1,0-1.518,1.517,1.518,1.518,0,0,0,1.518-1.517" transform="translate(-85.844 -12.59)" fill="#19538d"/>
          <path id="Trazado_1283570" data-name="Trazado 1283570" d="M71.243,18.97a3.427,3.427,0,1,1-3.427-3.424,3.425,3.425,0,0,1,3.427,3.424m-1.894,0A1.53,1.53,0,1,0,67.82,20.5a1.529,1.529,0,0,0,1.53-1.529" transform="translate(-52.277 -12.622)" fill="#19538d"/>
          <path id="Trazado_1283571" data-name="Trazado 1283571" d="M53.811,232.4l-8.415-.005c-.446,0-.8-.594-.793-.98a1.109,1.109,0,0,1,1-.968l8.2,0a1.159,1.159,0,0,1,.956.974,1.094,1.094,0,0,1-.943.98" transform="translate(-36.212 -187.093)" fill="#19538d"/>
          <path id="Trazado_1283572" data-name="Trazado 1283572" d="M54.093,107.324l-8.7-.011c-.328,0-.764-.539-.77-.828a1.212,1.212,0,0,1,.584-1.021l8.85-.01a1.227,1.227,0,0,1,.725.878c.02.287-.335.741-.691.993" transform="translate(-36.231 -85.616)" fill="#19538d"/>
          <path id="Trazado_1283573" data-name="Trazado 1283573" d="M54.245,138.326l-9.076.021c-.321,0-.631-.736-.586-1.026a1.092,1.092,0,0,1,.952-.839l8.293,0c.3,0,.757.448.887.7s-.183,1.091-.47,1.144" transform="translate(-36.193 -110.807)" fill="#19538d"/>
          <path id="Trazado_1283574" data-name="Trazado 1283574" d="M54.052,169.94l-8.461.04a1.018,1.018,0,0,1-.955-1.022c.032-.6.5-.893,1.135-.893h7.914a1.154,1.154,0,0,1,1.088.719c.113.3-.249,1.154-.721,1.156" transform="translate(-36.238 -136.449)" fill="#19538d"/>
          <path id="Trazado_1283575" data-name="Trazado 1283575" d="M53.755,201.233l-8.562-.005a1.458,1.458,0,0,1-.591-.862,1.3,1.3,0,0,1,.628-1l8.78-.007a1.288,1.288,0,0,1,.75.99,1.052,1.052,0,0,1-1,.889" transform="translate(-36.211 -161.852)" fill="#19538d"/>
        </g>
      </g>
    </g>
  </g>
</svg>
