<svg xmlns="http://www.w3.org/2000/svg" xmlns:xlink="http://www.w3.org/1999/xlink" width="96" height="96" viewBox="0 0 96 96">
  <defs>
    <clipPath id="clip-path">
      <rect id="Rectángulo_464988" data-name="Rectángulo 464988" width="44.976" height="49.616" fill="#19538d"/>
    </clipPath>
  </defs>
  <g id="Grupo_1215076" data-name="Grupo 1215076" transform="translate(0 0)">
    <circle id="Elipse_13890" data-name="Elipse 13890" cx="48" cy="48" r="48" transform="translate(0 0)" fill="#5a9ad7"/>
    <path id="Intersección_1" data-name="Intersección 1" d="M0,47.89A47.893,47.893,0,0,1,79.511,11.92L1.1,58.131A48,48,0,0,1,0,47.89Z" transform="translate(0.109 0.108)" fill="#19538d"/>
    <path id="Trazado_1032916" data-name="Trazado 1032916" d="M40,0A40,40,0,1,1,0,40,40,40,0,0,1,40,0Z" transform="translate(8 8)" fill="#e6f3ff"/>
    <g id="Grupo_1188343" data-name="Grupo 1188343" transform="translate(22.001 22)">
      <rect id="Rectángulo_459838" data-name="Rectángulo 459838" width="52" height="52" transform="translate(-0.001 -0.124)" fill="none"/>
      <g id="Grupo_1215086" data-name="Grupo 1215086" transform="translate(3.999 0.876)">
        <g id="Grupo_1215085" data-name="Grupo 1215085" clip-path="url(#clip-path)">
          <path id="Trazado_1283641" data-name="Trazado 1283641" d="M6.221,44.966l-3.47-.052A2.979,2.979,0,0,1,.008,41.942L0,27.72a3.067,3.067,0,0,1,3.052-2.858l3.163-.01,0-20.335A1.479,1.479,0,0,1,7.531,3.14L9.324,3.1,9.31,1.69A1.576,1.576,0,0,1,10.952,0L43.468,0A1.483,1.483,0,0,1,44.975,1.49V45.024A1.474,1.474,0,0,1,43.5,46.492l-1.64.016,0,1.571a1.494,1.494,0,0,1-1.5,1.533l-32.512,0a1.543,1.543,0,0,1-1.639-1.54ZM6.182,26.312l-3.017-.006A1.607,1.607,0,1,0,3.2,29.513l28.658,0a2.25,2.25,0,0,1,2.237,2.192l.013,10.868a2.289,2.289,0,0,1-2.058,2.36l-24.353.015,0,3.214H40.384l.009-3.911a.726.726,0,0,1,.782-.742.786.786,0,0,1,.689.7l.008.851,1.622.009,0-43.623-32.678,0-.006,1.667H32.76a2.238,2.238,0,0,1,1.527.6l6.973,6.969a2.268,2.268,0,0,1,.6,1.46l0,28.857a.764.764,0,0,1-.712.85.774.774,0,0,1-.762-.715V13.117l-6.47,0a2.328,2.328,0,0,1-2.057-2.434l-.017-6.124H7.691V27.184a.781.781,0,0,1-.765.686.813.813,0,0,1-.709-.78ZM34.144,11.656l5.956-.034L33.328,4.846,33.3,10.854a.906.906,0,0,0,.845.8M32.63,42.629V31.854a.846.846,0,0,0-.862-.885H3.063a4.3,4.3,0,0,1-1.584-.4l.014,11.56c0,.743.705,1.184,1.367,1.379h29a.855.855,0,0,0,.774-.878" transform="translate(0 0.001)" fill="#19538d"/>
          <path id="Trazado_1283642" data-name="Trazado 1283642" d="M193.769,106.073a.773.773,0,0,1-.852-.678c-.08-1.069,1.546-.426,1.551-1.727l.009-2.483,1.2-1.27-1.2-1.265-.019-2.632c-.008-1.081-1.386-.488-1.551-1.506a.792.792,0,0,1,.652-.757,2.2,2.2,0,0,1,2.326,2.027l.046,2.262,1.328,1.355a.8.8,0,0,1-.068,1.114l-1.272,1.277-.007,2.008a2.249,2.249,0,0,1-2.145,2.276" transform="translate(-165.716 -80.538)" fill="#19538d"/>
          <path id="Trazado_1283643" data-name="Trazado 1283643" d="M118.977,103.754c.005,1.011,1.463.54,1.549,1.475a.768.768,0,0,1-.774.778,2.291,2.291,0,0,1-2.237-2.423l.013-1.845-1.366-1.381a.887.887,0,0,1-.066-.935l1.41-1.452.045-2.253a2.225,2.225,0,0,1,2.182-2.044.794.794,0,0,1,.791.693c.062,1.084-1.542.384-1.55,1.738l-.015,2.479-1.185,1.265,1.191,1.272Z" transform="translate(-99.642 -80.47)" fill="#19538d"/>
          <path id="Trazado_1283644" data-name="Trazado 1283644" d="M112.964,244.441a3.52,3.52,0,0,1-3.841-.908.8.8,0,0,1-.022-1c.833-.936,1.691,1.355,3.415.5a1.1,1.1,0,0,0,.438-.6.946.946,0,0,0-.472-.674l-2.29-.984a1.82,1.82,0,0,1-.857-2.072,2.123,2.123,0,0,1,1.508-1.56c1.576-.49,3.859.588,3.252,1.632a.739.739,0,0,1-1.082.166c-.929-.716-2.194-.545-2.31.146-.027.159.208.442.364.508l2.1.89a2.058,2.058,0,0,1,1.243,1.957,2.226,2.226,0,0,1-1.442,2" transform="translate(-93.583 -203.61)" fill="#19538d"/>
          <path id="Trazado_1283645" data-name="Trazado 1283645" d="M159.665,244.3a3.4,3.4,0,0,1-4.056-.972.744.744,0,0,1,.249-1.014c.844-.459,1.44,1.391,3.179.68a1.009,1.009,0,0,0,.475-.621.985.985,0,0,0-.441-.671l-2.373-1.026a1.819,1.819,0,0,1-.823-2,2.121,2.121,0,0,1,1.585-1.624,3.411,3.411,0,0,1,2.959.628.777.777,0,0,1,.207,1.055c-.634.979-1.684-.891-3.039-.159a.752.752,0,0,0-.3.548.863.863,0,0,0,.4.411l2.09.889a2.064,2.064,0,0,1,1.19,1.933,2.211,2.211,0,0,1-1.3,1.94" transform="translate(-133.58 -203.538)" fill="#19538d"/>
          <path id="Trazado_1283646" data-name="Trazado 1283646" d="M60.225,243.079c.658-.191.922-1.038,1.7-.685a.856.856,0,0,1,.285.9,2.73,2.73,0,0,1-1.537,1.175,3.823,3.823,0,0,1-3.778-6.393,3.837,3.837,0,0,1,4.741-.519.771.771,0,0,1,.3,1.05.788.788,0,0,1-1.118.187,2.341,2.341,0,0,0-2.833.25,2.365,2.365,0,0,0-.509,2.856,2.336,2.336,0,0,0,2.754,1.182" transform="translate(-47.888 -203.566)" fill="#19538d"/>
          <path id="Trazado_1283647" data-name="Trazado 1283647" d="M40.1,281.8a.725.725,0,1,1-.725-.725.725.725,0,0,1,.725.725" transform="translate(-33.204 -241.457)" fill="#19538d"/>
        </g>
      </g>
    </g>
  </g>
</svg>
