<svg xmlns="http://www.w3.org/2000/svg" xmlns:xlink="http://www.w3.org/1999/xlink" width="96" height="96" viewBox="0 0 96 96">
  <defs>
    <clipPath id="clip-path">
      <rect id="Rectángulo_464986" data-name="Rectángulo 464986" width="50.543" height="50" fill="#19538d"/>
    </clipPath>
  </defs>
  <g id="Grupo_1215078" data-name="Grupo 1215078" transform="translate(0 0)">
    <circle id="Elipse_13890" data-name="Elipse 13890" cx="48" cy="48" r="48" transform="translate(0 0)" fill="#5a9ad7"/>
    <path id="Intersección_1" data-name="Intersección 1" d="M0,47.89A47.893,47.893,0,0,1,79.511,11.92L1.1,58.131A48,48,0,0,1,0,47.89Z" transform="translate(0.109 0.108)" fill="#19538d"/>
    <path id="Trazado_1032916" data-name="Trazado 1032916" d="M40,0A40,40,0,1,1,0,40,40,40,0,0,1,40,0Z" transform="translate(8 8)" fill="#e6f3ff"/>
    <g id="Grupo_1188343" data-name="Grupo 1188343" transform="translate(22.001 22)">
      <rect id="Rectángulo_459838" data-name="Rectángulo 459838" width="52" height="52" transform="translate(-1.001 -0.124)" fill="none"/>
      <g id="Grupo_1215082" data-name="Grupo 1215082" transform="translate(-0.001 0.876)">
        <g id="Grupo_1215082-2" data-name="Grupo 1215082" clip-path="url(#clip-path)">
          <path id="Trazado_1283618" data-name="Trazado 1283618" d="M48.19,49.592a.849.849,0,0,1-1.16.052L42.086,44.7l-3.717,4.984a1.159,1.159,0,0,1-.676.321.869.869,0,0,1-.555-.479l-3.49-9.493L2.914,40.007A3.153,3.153,0,0,1,0,36.993l0-26.51A3.18,3.18,0,0,1,3.068,7.4l6.14-.037.008-4.089A3.242,3.242,0,0,1,12.618,0L46.656,0a3.168,3.168,0,0,1,3.261,2.969L49.91,29.819a3.122,3.122,0,0,1-2.894,2.808l-6.245.046a.549.549,0,0,0,.372.653L50.072,36.6a1,1,0,0,1,.469.55,1.05,1.05,0,0,1-.369.72l-4.956,3.714,5.111,5.109c.157.157.032.716-.112.879Zm.377-42.2.018-4.125a1.868,1.868,0,0,0-2.1-1.876H12.159a1.877,1.877,0,0,0-1.568,1.734l-.01,4.239ZM39.356,14.8l.026-4.029a1.968,1.968,0,0,0-1.816-2.03H3.244a1.906,1.906,0,0,0-1.866,1.731L1.356,14.8Zm7.251,16.491a1.88,1.88,0,0,0,1.971-1.93V8.765H40.221a5.116,5.116,0,0,1,.531,2.024v20.5Zm-16.49-.88a.761.761,0,0,1,.987-.773l8.269,3.034V16.18H1.354l0,20.52a1.844,1.844,0,0,0,1.888,1.949l29.889,0ZM48.757,47.016l-5.192-5.185A.877.877,0,0,1,44,40.782l4.394-3.328L31.957,31.418,38,47.867l3.413-4.541a.755.755,0,0,1,1.228-.081L47.6,48.21Z" transform="translate(0 0)" fill="#19538d"/>
          <path id="Trazado_1283619" data-name="Trazado 1283619" d="M88.377,121.727a9.541,9.541,0,1,1-9.541-9.541,9.541,9.541,0,0,1,9.541,9.541M71.584,125.5a8,8,0,0,0,8.014,4.31c-.294-2.623.469-3.028,1.962-4.52a2.742,2.742,0,0,1,2.943-2.2l2.327.358a8.26,8.26,0,0,0-.766-5.541,2.729,2.729,0,0,1-2.787,1.56,2.6,2.6,0,0,1-2.778-2.112,2.433,2.433,0,0,1,1.333-3.224,8.106,8.106,0,0,0-7.575.818l1.3.982a2.04,2.04,0,0,1,.564,2.538,1.169,1.169,0,0,0,.038.94c.509.576,2.724.257,2.958,2.151.214,1.729.174,3.549-1.286,4.036l-2.234.746a2.269,2.269,0,0,1-2.581-1.015,1.319,1.319,0,0,0-1.434.172m12.625-7.551a2.993,2.993,0,0,0,1-1.388,16.905,16.905,0,0,0-1.93-1.723,7.576,7.576,0,0,0-1.547,1.088,2.174,2.174,0,0,0,.713,2.009,2.414,2.414,0,0,0,1.76.013m-6.476,3.692c-.088-.656-2.113-.234-2.807-1.59-.826-1.616.593-2.529-.307-3.153l-1.455-1.009a8.074,8.074,0,0,0-2.148,8.24c2.913-1.186,3.2,1.281,4.272.9l2.457-.882a11.394,11.394,0,0,0-.012-2.5m3.217,7.969a8.205,8.205,0,0,0,5.452-4.8l-2.071-.369a1.239,1.239,0,0,0-1.3.9c-.505,1.561-2.139,1.823-2.105,3.192Z" transform="translate(-58.464 -94.652)" fill="#19538d"/>
          <path id="Trazado_1283620" data-name="Trazado 1283620" d="M155.812,63.582a2.229,2.229,0,1,1-2.229-2.229,2.229,2.229,0,0,1,2.229,2.229m-1.378.023a.853.853,0,1,0-.853.853.853.853,0,0,0,.853-.853" transform="translate(-127.699 -51.764)" fill="#19538d"/>
          <path id="Trazado_1283621" data-name="Trazado 1283621" d="M216.267,63.657a2.229,2.229,0,1,1-2.229-2.228,2.229,2.229,0,0,1,2.229,2.228m-1.381-.006a.85.85,0,1,0-.85.85.85.85,0,0,0,.85-.85" transform="translate(-178.706 -51.828)" fill="#19538d"/>
          <path id="Trazado_1283622" data-name="Trazado 1283622" d="M186.054,63.616a2.228,2.228,0,1,1-2.228-2.229,2.228,2.228,0,0,1,2.228,2.229m-1.374,0a.851.851,0,1,0-.851.851.851.851,0,0,0,.851-.851" transform="translate(-153.215 -51.793)" fill="#19538d"/>
          <path id="Trazado_1283623" data-name="Trazado 1283623" d="M216.265,17.762a2.229,2.229,0,1,1-2.229-2.229,2.229,2.229,0,0,1,2.229,2.229m-1.377,0a.855.855,0,1,0-.855.855.855.855,0,0,0,.855-.855" transform="translate(-178.702 -13.105)" fill="#19538d"/>
          <path id="Trazado_1283624" data-name="Trazado 1283624" d="M276.753,17.742a2.23,2.23,0,1,1-2.23-2.23,2.23,2.23,0,0,1,2.23,2.23m-1.372.007a.853.853,0,1,0-.853.853.853.853,0,0,0,.853-.853" transform="translate(-229.736 -13.088)" fill="#19538d"/>
          <path id="Trazado_1283625" data-name="Trazado 1283625" d="M246.48,17.745a2.232,2.232,0,1,1-2.232-2.232,2.232,2.232,0,0,1,2.232,2.232m-1.368,0a.86.86,0,1,0-.86.86.86.86,0,0,0,.86-.86" transform="translate(-204.191 -13.088)" fill="#19538d"/>
        </g>
      </g>
    </g>
  </g>
</svg>
