<svg xmlns="http://www.w3.org/2000/svg" xmlns:xlink="http://www.w3.org/1999/xlink" width="96" height="96" viewBox="0 0 96 96">
  <defs>
    <clipPath id="clip-path">
      <rect id="Rectángulo_464980" data-name="Rectángulo 464980" width="51.983" height="52" fill="#19538d"/>
    </clipPath>
  </defs>
  <g id="Grupo_1215070" data-name="Grupo 1215070" transform="translate(0 0)">
    <circle id="Elipse_13890" data-name="Elipse 13890" cx="48" cy="48" r="48" transform="translate(0 0)" fill="#5a9ad7"/>
    <path id="Intersección_1" data-name="Intersección 1" d="M0,47.89A47.893,47.893,0,0,1,79.511,11.92L1.1,58.131A48,48,0,0,1,0,47.89Z" transform="translate(0.109 0.108)" fill="#19538d"/>
    <path id="Trazado_1032916" data-name="Trazado 1032916" d="M40,0A40,40,0,1,1,0,40,40,40,0,0,1,40,0Z" transform="translate(8 8)" fill="#e6f3ff"/>
    <g id="Grupo_1188343" data-name="Grupo 1188343" transform="translate(22.001 22)">
      <rect id="Rectángulo_459838" data-name="Rectángulo 459838" width="52" height="52" transform="translate(-0.001 -0.124)" fill="none"/>
      <g id="Grupo_1215073" data-name="Grupo 1215073" transform="translate(-0.001 -0.124)">
        <g id="Grupo_1215072" data-name="Grupo 1215072" clip-path="url(#clip-path)">
          <path id="Trazado_1283595" data-name="Trazado 1283595" d="M3.617,52A2.615,2.615,0,0,1,.875,49.54a2.588,2.588,0,0,1,2.516-2.731L6.946,46.8V39.865c-1.045-.021-2.045.024-3.066-.053A4.294,4.294,0,0,1,.024,35.017a1.716,1.716,0,0,1,1.6-2.068l5.32-.012V6.955L1.627,6.939A1.739,1.739,0,0,1,.021,4.916,4.4,4.4,0,0,1,4.607,0L43.992,0a4.46,4.46,0,0,1,4.534,5.207,3.425,3.425,0,0,1,3.456,3.378V31.311a3.487,3.487,0,0,1-3.452,3.375,4.543,4.543,0,0,1-3.71,5.162l-30.957,0-.014,6.933,3.449.009a2.6,2.6,0,1,1-.015,5.2ZM46.744,5.206A2.743,2.743,0,0,0,44.438,1.75L4.155,1.763a2.622,2.622,0,0,0-2.3,3.444ZM12.14,9.2l0-2.25H8.682l.032,1.121ZM15.6,31.075l0-22.48a5.609,5.609,0,0,1,.392-1.645l-2.14.017V32.928l2.212.018a4.333,4.333,0,0,1-.466-1.87m3.6,1.872,4.192-.01V6.958L19.2,6.942a1.74,1.74,0,0,0-1.854,1.683V31.25a1.759,1.759,0,0,0,1.853,1.7m23.247-26H25.128v4.318H42.446Zm7.806,24.142V8.737A1.7,1.7,0,0,0,48.6,6.956l-4.4-.006V32.942l4.395-.012a1.705,1.705,0,0,0,1.661-1.841m-38.107-16.7,0-3.376L8.669,9.876l0,3.384Zm30.3-1.388H25.128v13.87H42.446ZM12.138,19.58l.012-3.347L8.671,15.086l0,3.369Zm0,5.2.016-3.354L8.67,20.284v3.374Zm0,5.185.016-3.352L8.676,25.483l-.009,3.372Zm12.992,2.978H42.446V28.61H25.127Zm-12.976,0-.039-1.127L8.677,30.682l-.005,2.26Zm31.835,5.21a2.788,2.788,0,0,0,2.249-1.018,2.967,2.967,0,0,0,.48-2.469l-44.857,0c-.482,1.34.44,3.441,2.175,3.443ZM12.143,42.978l0-3.122H8.667l.041,2.015Zm.014,3.821-.027-1.988L8.674,43.679l0,3.121Zm5.194,3.447a.856.856,0,0,0,.833-.977.889.889,0,0,0-.9-.727l-14.025.009c-.473,0-.691.672-.626.991a.864.864,0,0,0,.925.707Z" transform="translate(0.001 0)" fill="#19538d"/>
          <path id="Trazado_1283596" data-name="Trazado 1283596" d="M213.345,106.508,208.4,109.9a1.916,1.916,0,0,1-2.023.116,1.971,1.971,0,0,1-1-1.724l.006-6.608a1.951,1.951,0,0,1,.9-1.547,1.977,1.977,0,0,1,2.042,0l4.865,3.277a1.924,1.924,0,0,1,.168,3.087m-.945-1.485c-1.993-1.377-3.476-2.416-5.3-3.537l.023,7.155c1.956-1.291,3.574-2.354,5.272-3.618" transform="translate(-175.039 -85.11)" fill="#19538d"/>
          <path id="Trazado_1283597" data-name="Trazado 1283597" d="M312.737,72.11l-1.206-.041c-.232-.008-.555-.447-.6-.672-.048-.252.171-.853.439-.919a3.627,3.627,0,0,1,1.566-.051,1,1,0,0,1,.616.841.925.925,0,0,1-.817.843" transform="translate(-265.007 -59.972)" fill="#19538d"/>
          <path id="Trazado_1283598" data-name="Trazado 1283598" d="M312.847,119.079l-1.37-.017c-.261,0-.59-.526-.6-.781-.016-.293.331-.865.643-.874l1.181-.036a1.036,1.036,0,0,1,.808.79c.032.314-.339.921-.659.917" transform="translate(-264.961 -100.037)" fill="#19538d"/>
          <path id="Trazado_1283599" data-name="Trazado 1283599" d="M313.044,95.551a3.04,3.04,0,0,1-1.595.053c-.3-.056-.553-.55-.551-.843s.4-.809.7-.813l1.136-.016a1.069,1.069,0,0,1,.759.626.9.9,0,0,1-.453.993" transform="translate(-264.983 -80.059)" fill="#19538d"/>
          <path id="Trazado_1283600" data-name="Trazado 1283600" d="M313.037,142.509a2.919,2.919,0,0,1-1.445.079.946.946,0,0,1-.694-.873c0-.3.4-.815.707-.82l1.131-.017a1.1,1.1,0,0,1,.763.632.92.92,0,0,1-.461,1" transform="translate(-264.982 -120.073)" fill="#19538d"/>
          <path id="Trazado_1283601" data-name="Trazado 1283601" d="M312.788,165.945l-.956,0a.906.906,0,0,1-.874-.806.883.883,0,0,1,.9-.945l1.134.076c.269.018.617.581.59.855a1.014,1.014,0,0,1-.793.816" transform="translate(-265.034 -139.947)" fill="#19538d"/>
          <path id="Trazado_1283602" data-name="Trazado 1283602" d="M313.1,189.33a3.375,3.375,0,0,1-1.686.007c-.3-.073-.521-.635-.465-.911.159-.777,1.093-.858,2.169-.612.213.049.442.544.452.758s-.246.7-.47.758" transform="translate(-265.018 -159.971)" fill="#19538d"/>
          <path id="Trazado_1283603" data-name="Trazado 1283603" d="M131.093,71.987a5.016,5.016,0,0,1-1.548.039c-.27-.033-.592-.536-.6-.79s.276-.8.549-.841c1.082-.176,1.959-.107,2.085.727.036.242-.228.822-.49.865" transform="translate(-109.905 -59.93)" fill="#19538d"/>
          <path id="Trazado_1283604" data-name="Trazado 1283604" d="M131.029,95.759l-1.53-.088c-.273-.016-.559-.589-.552-.842s.331-.779.592-.786l1.349-.036c.262-.007.67.467.686.716a1.474,1.474,0,0,1-.545,1.037" transform="translate(-109.903 -80.123)" fill="#19538d"/>
          <path id="Trazado_1283605" data-name="Trazado 1283605" d="M131.245,140.9a.847.847,0,0,1,.305,1.14,1.684,1.684,0,0,1-2.378.038.845.845,0,0,1,.292-1.171,2.492,2.492,0,0,1,1.78-.007" transform="translate(-109.99 -119.954)" fill="#19538d"/>
          <path id="Trazado_1283606" data-name="Trazado 1283606" d="M131.1,118.882c-1.082.206-1.96.124-2.1-.619-.047-.25.179-.85.438-.916.961-.244,1.8-.221,2.126.462.134.28-.048.994-.464,1.073" transform="translate(-109.945 -99.896)" fill="#19538d"/>
          <path id="Trazado_1283607" data-name="Trazado 1283607" d="M131.261,165.6a2.564,2.564,0,0,1-1.734,0,.872.872,0,0,1-.33-1.17,1.667,1.667,0,0,1,2.4.046.847.847,0,0,1-.339,1.123" transform="translate(-110.029 -139.733)" fill="#19538d"/>
          <path id="Trazado_1283608" data-name="Trazado 1283608" d="M131.127,189.565l-1.64.005a1.622,1.622,0,0,1-.572-.861.994.994,0,0,1,.6-.808,4.689,4.689,0,0,1,1.565.047.923.923,0,0,1,.473.766,3.38,3.38,0,0,1-.425.851" transform="translate(-109.874 -160.115)" fill="#19538d"/>
        </g>
      </g>
    </g>
  </g>
</svg>
