<svg xmlns="http://www.w3.org/2000/svg" xmlns:xlink="http://www.w3.org/1999/xlink" width="86" height="86" viewBox="0 0 86 86">
  <defs>
    <clipPath id="clip-path">
      <rect id="Rectángulo_456060" data-name="Rectángulo 456060" width="55.762" height="50.632" fill="none"/>
    </clipPath>
    <clipPath id="clip-path-2">
      <rect id="Rectángulo_456059" data-name="Rectángulo 456059" width="55.763" height="50.632" fill="none"/>
    </clipPath>
    <clipPath id="clip-path-3">
      <rect id="Rectángulo_456040" data-name="Rectángulo 456040" width="9.572" height="9.576" fill="none"/>
    </clipPath>
    <clipPath id="clip-path-4">
      <rect id="Rectángulo_456042" data-name="Rectángulo 456042" width="32.604" height="1.589" fill="none"/>
    </clipPath>
    <clipPath id="clip-path-5">
      <rect id="Rectángulo_456044" data-name="Rectángulo 456044" width="26.564" height="1.589" fill="none"/>
    </clipPath>
    <clipPath id="clip-path-6">
      <rect id="Rectángulo_456046" data-name="Rectángulo 456046" width="22.535" height="1.589" fill="none"/>
    </clipPath>
    <clipPath id="clip-path-7">
      <rect id="Rectángulo_456048" data-name="Rectángulo 456048" width="23.853" height="1.59" fill="none"/>
    </clipPath>
    <clipPath id="clip-path-8">
      <rect id="Rectángulo_456049" data-name="Rectángulo 456049" width="29.278" height="17.573" fill="none"/>
    </clipPath>
    <clipPath id="clip-path-9">
      <rect id="Rectángulo_456056" data-name="Rectángulo 456056" width="17.049" height="1.928" fill="none"/>
    </clipPath>
  </defs>
  <g id="Grupo_1184594" data-name="Grupo 1184594" transform="translate(-308 -3052.06)">
    <g id="Grupo_1184591" data-name="Grupo 1184591" transform="translate(-586.718 -4231.599)">
      <g id="Grupo_1180176" data-name="Grupo 1180176" transform="translate(894.718 7283.659)">
        <g id="Grupo_1180053" data-name="Grupo 1180053" transform="translate(18.067 17.767)">
          <rect id="Rectángulo_401104" data-name="Rectángulo 401104" width="49.866" height="50.466" transform="translate(0 0)" fill="none"/>
        </g>
        <g id="Trazado_1283648" data-name="Trazado 1283648" fill="#19538d" stroke-linecap="round">
          <path d="M 43 84.5 C 37.39687347412109 84.5 31.96215057373047 83.40294647216797 26.84678840637207 81.23933410644531 C 21.90517425537109 79.14921569824219 17.46683692932129 76.15670013427734 13.65507507324219 72.34494018554688 C 9.843299865722656 68.53316497802734 6.85078763961792 64.09482574462891 4.76066255569458 59.15321350097656 C 2.597049951553345 54.03784942626953 1.5 48.60312652587891 1.5 43 C 1.5 37.39687347412109 2.597049951553345 31.96215057373047 4.76066255569458 26.84678840637207 C 6.85078763961792 21.90517425537109 9.843299865722656 17.46683692932129 13.65507507324219 13.65507507324219 C 17.46683692932129 9.843299865722656 21.90517425537109 6.85078763961792 26.84678840637207 4.76066255569458 C 31.96215057373047 2.597049951553345 37.39687347412109 1.5 43 1.5 C 48.60312652587891 1.5 54.03784942626953 2.597049951553345 59.15321350097656 4.76066255569458 C 64.09482574462891 6.85078763961792 68.53316497802734 9.843299865722656 72.34494018554688 13.65507507324219 C 76.15670013427734 17.46683692932129 79.14921569824219 21.90517425537109 81.23933410644531 26.84678840637207 C 83.40294647216797 31.96215057373047 84.5 37.39687347412109 84.5 43 C 84.5 48.60312652587891 83.40294647216797 54.03784942626953 81.23933410644531 59.15321350097656 C 79.14921569824219 64.09482574462891 76.15670013427734 68.53316497802734 72.34494018554688 72.34494018554688 C 68.53316497802734 76.15670013427734 64.09482574462891 79.14921569824219 59.15321350097656 81.23933410644531 C 54.03784942626953 83.40294647216797 48.60312652587891 84.5 43 84.5 Z" stroke="none"/>
          <path d="M 43 3 C 37.59872055053711 3 32.36058807373047 4.057174682617188 27.43112182617188 6.142173767089844 C 22.66830825805664 8.156669616699219 18.39022827148438 11.04122924804688 14.71573638916016 14.71573638916016 C 11.04122924804688 18.39022827148438 8.156669616699219 22.66830825805664 6.142173767089844 27.43112182617188 C 4.057174682617188 32.36058807373047 3 37.59872055053711 3 43 C 3 48.40127944946289 4.057174682617188 53.63941192626953 6.142173767089844 58.56887817382812 C 8.156669616699219 63.33169555664062 11.04122924804688 67.60977172851562 14.71573638916016 71.28426361083984 C 18.39022827148438 74.95877075195312 22.66830825805664 77.84333038330078 27.43112182617188 79.85782623291016 C 32.36058807373047 81.94282531738281 37.59872055053711 83 43 83 C 48.40127944946289 83 53.63941192626953 81.94282531738281 58.56887817382812 79.85782623291016 C 63.33169555664062 77.84333038330078 67.60977172851562 74.95877075195312 71.28426361083984 71.28426361083984 C 74.95877075195312 67.60977172851562 77.84333038330078 63.33169555664062 79.85782623291016 58.56887817382812 C 81.94282531738281 53.63941192626953 83 48.40127944946289 83 43 C 83 37.59872055053711 81.94282531738281 32.36058807373047 79.85782623291016 27.43112182617188 C 77.84333038330078 22.66830825805664 74.95877075195312 18.39022827148438 71.28426361083984 14.71573638916016 C 67.60977172851562 11.04122924804688 63.33169555664062 8.156669616699219 58.56887817382812 6.142173767089844 C 53.63941192626953 4.057174682617188 48.40127944946289 3 43 3 M 43 0 C 66.74823760986328 0 86 19.25176239013672 86 43 C 86 66.74823760986328 66.74823760986328 86 43 86 C 19.25176239013672 86 0 66.74823760986328 0 43 C 0 19.25176239013672 19.25176239013672 0 43 0 Z" stroke="none" fill="#4dd0e1"/>
        </g>
      </g>
    </g>
    <g id="Grupo_1184592" data-name="Grupo 1184592" transform="translate(322.999 3070.061)">
      <g id="Grupo_1179647" data-name="Grupo 1179647" clip-path="url(#clip-path)">
        <rect id="Rectángulo_456036" data-name="Rectángulo 456036" width="17.049" height="6.027" transform="translate(20.36 42.457)" fill="#d6d6d6"/>
        <g id="Grupo_1179646" data-name="Grupo 1179646" transform="translate(0 0)">
          <g id="Grupo_1179645" data-name="Grupo 1179645" clip-path="url(#clip-path-2)">
            <path id="Trazado_998706" data-name="Trazado 998706" d="M55.944,7.661v28.6H2.188V7.661a1,1,0,0,1,1-.993H54.95a.992.992,0,0,1,.994.993" transform="translate(-0.181 -0.552)" fill="#d6d6d6"/>
            <rect id="Rectángulo_456037" data-name="Rectángulo 456037" width="48.601" height="24.387" transform="translate(4.585 8.682)" fill="#7dbfff"/>
            <rect id="Rectángulo_456038" data-name="Rectángulo 456038" width="24.932" height="2.477" transform="translate(16.418 48.155)" fill="#f0f0f0"/>
            <rect id="Rectángulo_456039" data-name="Rectángulo 456039" width="45.999" height="12.197" transform="translate(5.885 9.92)" fill="#f08b19"/>
            <g id="Grupo_1179623" data-name="Grupo 1179623" transform="translate(40.764 11.32)" style="mix-blend-mode: multiply;isolation: isolate">
              <g id="Grupo_1179622" data-name="Grupo 1179622">
                <g id="Grupo_1179621" data-name="Grupo 1179621" clip-path="url(#clip-path-3)">
                  <path id="Trazado_998707" data-name="Trazado 998707" d="M54.017,17.128a4.781,4.781,0,0,1-1.892,3.815,4.718,4.718,0,0,1-2.615.967c-.094,0-.185.009-.28.009-.159,0-.311-.009-.46-.024a4.7,4.7,0,0,1-2.523-1.022,4.787,4.787,0,1,1,7.769-3.746" transform="translate(-44.445 -12.343)" fill="#c09f53"/>
                </g>
              </g>
            </g>
            <path id="Trazado_998708" data-name="Trazado 998708" d="M52.258,19.926v1.319a4.715,4.715,0,0,1-2.616.967c-.094,0-.188.01-.28.01-.157,0-.311-.01-.46-.024a4.7,4.7,0,0,1-2.524-1.023V19.926a.3.3,0,0,1,.2-.266h.006l.008,0,.167-.06,1.344-.5v0l.208-.432h.088v-.483a2.18,2.18,0,0,1-.706-1.255.031.031,0,0,0,0-.019.763.763,0,0,1-.233-.47c-.046-.316.051-.593.219-.621-.006-.02.014-.1.009-.131a.675.675,0,0,0-.07-.191c-.023-.055-.06-.111-.088-.172v0h0a.4.4,0,0,1-.052-.176c-.01-.117.1-.218.149-.317A1.911,1.911,0,0,1,49.2,13.89c.517,0,1.223.2,1.18.925a.31.31,0,0,1,.392-.024.551.551,0,0,1,.207.391,1.223,1.223,0,0,1,.024.175,1.014,1.014,0,0,1-.016.28,1.584,1.584,0,0,1-.049.178h.024c.161.037.253.311.207.621a.612.612,0,0,1-.3.508.132.132,0,0,1-.021,0,2.177,2.177,0,0,1-.661,1.2.016.016,0,0,1-.009,0v.512h.066l.209.432,1.579.561a.3.3,0,0,1,.228.271" transform="translate(-3.842 -1.151)" fill="#f08b19"/>
            <g id="Grupo_1179626" data-name="Grupo 1179626" transform="translate(7.201 11.32)" style="mix-blend-mode: multiply;isolation: isolate">
              <g id="Grupo_1179625" data-name="Grupo 1179625">
                <g id="Grupo_1179624" data-name="Grupo 1179624" clip-path="url(#clip-path-4)">
                  <rect id="Rectángulo_456041" data-name="Rectángulo 456041" width="32.604" height="1.589" transform="translate(0 0)" fill="#c09f53"/>
                </g>
              </g>
            </g>
            <g id="Grupo_1179629" data-name="Grupo 1179629" transform="translate(7.201 13.768)" style="mix-blend-mode: multiply;isolation: isolate">
              <g id="Grupo_1179628" data-name="Grupo 1179628">
                <g id="Grupo_1179627" data-name="Grupo 1179627" clip-path="url(#clip-path-5)">
                  <rect id="Rectángulo_456043" data-name="Rectángulo 456043" width="26.564" height="1.589" transform="translate(0 0)" fill="#c09f53"/>
                </g>
              </g>
            </g>
            <g id="Grupo_1179632" data-name="Grupo 1179632" transform="translate(7.201 16.216)" style="mix-blend-mode: multiply;isolation: isolate">
              <g id="Grupo_1179631" data-name="Grupo 1179631">
                <g id="Grupo_1179630" data-name="Grupo 1179630" clip-path="url(#clip-path-6)">
                  <rect id="Rectángulo_456045" data-name="Rectángulo 456045" width="22.535" height="1.589" transform="translate(0 0)" fill="#c09f53"/>
                </g>
              </g>
            </g>
            <g id="Grupo_1179635" data-name="Grupo 1179635" transform="translate(7.201 18.664)" style="mix-blend-mode: multiply;isolation: isolate">
              <g id="Grupo_1179634" data-name="Grupo 1179634">
                <g id="Grupo_1179633" data-name="Grupo 1179633" clip-path="url(#clip-path-7)">
                  <rect id="Rectángulo_456047" data-name="Rectángulo 456047" width="23.854" height="1.589" transform="translate(0 0)" fill="#c09f53"/>
                </g>
              </g>
            </g>
            <g id="Grupo_1179638" data-name="Grupo 1179638" transform="translate(2.006 6.116)" opacity="0.25" style="mix-blend-mode: multiply;isolation: isolate">
              <g id="Grupo_1179637" data-name="Grupo 1179637">
                <g id="Grupo_1179636" data-name="Grupo 1179636" clip-path="url(#clip-path-8)">
                  <path id="Trazado_998709" data-name="Trazado 998709" d="M31.466,6.668V18.255a.929.929,0,0,1-.93.929H29.57v5.056l-6.119-5.056H2.657a.9.9,0,0,1-.47-.129V7.661a1,1,0,0,1,1-.993Z" transform="translate(-2.187 -6.668)" fill="#1f6386"/>
                </g>
              </g>
            </g>
            <path id="Trazado_998710" data-name="Trazado 998710" d="M29.736.93V13.861a.929.929,0,0,1-.928.929h-.966v5.056L21.723,14.79H.928A.929.929,0,0,1,0,13.861V.93A.929.929,0,0,1,.928,0h27.88a.929.929,0,0,1,.928.93" transform="translate(0 0)" fill="#fff"/>
            <rect id="Rectángulo_456050" data-name="Rectángulo 456050" width="7.417" height="7.416" transform="translate(7.424 23.54)" fill="#32a7ab"/>
            <rect id="Rectángulo_456051" data-name="Rectángulo 456051" width="7.415" height="7.416" transform="translate(16.301 23.54)" fill="#f2f2f2"/>
            <rect id="Rectángulo_456052" data-name="Rectángulo 456052" width="7.414" height="7.416" transform="translate(25.178 23.54)" fill="#32a7ab"/>
            <rect id="Rectángulo_456053" data-name="Rectángulo 456053" width="7.414" height="7.416" transform="translate(34.055 23.54)" fill="#f2f2f2"/>
            <rect id="Rectángulo_456054" data-name="Rectángulo 456054" width="7.415" height="7.416" transform="translate(42.932 23.54)" fill="#32a7ab"/>
            <g id="Grupo_1179641" data-name="Grupo 1179641" transform="translate(20.36 42.822)" opacity="0.25" style="mix-blend-mode: multiply;isolation: isolate">
              <g id="Grupo_1179640" data-name="Grupo 1179640">
                <g id="Grupo_1179639" data-name="Grupo 1179639" clip-path="url(#clip-path-9)">
                  <rect id="Rectángulo_456055" data-name="Rectángulo 456055" width="17.049" height="1.928" transform="translate(0 0.001)" fill="#1f6386"/>
                </g>
              </g>
            </g>
            <path id="Trazado_998711" data-name="Trazado 998711" d="M55.944,38.929v6.126a.992.992,0,0,1-.994.993H3.183a1,1,0,0,1-1-.993V38.929Z" transform="translate(-0.181 -3.225)" fill="#f0f0f0"/>
            <path id="Trazado_998712" data-name="Trazado 998712" d="M33.021,42.654a1.679,1.679,0,1,1-1.678-1.679,1.679,1.679,0,0,1,1.678,1.679" transform="translate(-2.457 -3.394)" fill="#ccc"/>
            <path id="Rectángulo_456057" data-name="Rectángulo 456057" d="M1.061,0H16.2a1.063,1.063,0,0,1,1.063,1.063V6.027A1.064,1.064,0,0,1,16.2,7.091H1.061A1.061,1.061,0,0,1,0,6.03V1.061A1.061,1.061,0,0,1,1.061,0Z" transform="translate(6.206 2.621)" fill="#f39c14"/>
            <path id="Trazado_998717" data-name="Trazado 998717" d="M8.127,11.533l.42.852.94.137-.681.662.161.937-.84-.441-.84.441.16-.937-.68-.662.94-.137Z" transform="translate(-0.561 -0.955)" fill="#f39c14"/>
            <path id="Trazado_998718" data-name="Trazado 998718" d="M11.943,11.533l.42.852.941.137-.681.662.159.937-.839-.441-.841.441.159-.937-.678-.662.938-.137Z" transform="translate(-0.877 -0.955)" fill="#f39c14"/>
            <path id="Trazado_998719" data-name="Trazado 998719" d="M15.661,11.533l.421.852.939.137-.681.662.163.937-.843-.441-.841.441.162-.937-.681-.662.94-.137Z" transform="translate(-1.185 -0.955)" fill="#f39c14"/>
            <path id="Trazado_998720" data-name="Trazado 998720" d="M19.382,11.533l.42.852.94.137-.68.662.16.937-.841-.441-.841.441.161-.937-.681-.662.941-.137Z" transform="translate(-1.493 -0.955)" fill="#f39c14"/>
            <path id="Trazado_998721" data-name="Trazado 998721" d="M23.1,11.533l.419.852.941.137-.681.662.161.937-.84-.441-.843.441.162-.937-.681-.662.94-.137Z" transform="translate(-1.801 -0.955)" fill="#f39c14"/>
            <path id="Trazado_998722" data-name="Trazado 998722" d="M23.9,13.183l.161.936-.837-.437V11.53l.417.854.941.136Z" transform="translate(-1.924 -0.955)" fill="#4bb3c1"/>
          </g>
        </g>
      </g>
    </g>
  </g>
</svg>
