<svg xmlns="http://www.w3.org/2000/svg" xmlns:xlink="http://www.w3.org/1999/xlink" width="395" height="316.448" viewBox="0 0 395 316.448">
  <defs>
    <clipPath id="clip-path">
      <path id="Trazado_1000654" data-name="Trazado 1000654" d="M0,0H354.709l1.022,290.552L0,290.678Z" fill="none"/>
    </clipPath>
  </defs>
  <g id="Grupo_1180396" data-name="Grupo 1180396" transform="translate(-236.711 -2277.084)">
    <g id="Grupo_1180380" data-name="Grupo 1180380">
      <g id="Grupo_1180376" data-name="Grupo 1180376">
        <circle id="Elipse_13860" data-name="Elipse 13860" cx="149.5" cy="149.5" r="149.5" transform="translate(236.711 2285.084)" fill="#9ecfff"/>
        <g id="Grupo_1180375" data-name="Grupo 1180375" transform="translate(-0.26 -2.615)">
          <rect id="Rectángulo_456677" data-name="Rectángulo 456677" width="395" height="316.448" transform="translate(236.971 2279.699)" fill="none"/>
          <g id="Grupo_1180370" data-name="Grupo 1180370" transform="translate(263.711 2305.469)">
            <g id="Enmascarar_grupo_1178533" data-name="Enmascarar grupo 1178533" clip-path="url(#clip-path)">
              <path id="Trazado_1000506" data-name="Trazado 1000506" d="M85.691,173.282h65.1a6.743,6.743,0,0,0,6.376-8.68L126.079,57.435a6.664,6.664,0,0,0-6.376-4.849H54.6a6.743,6.743,0,0,0-6.376,8.68L79.314,168.433a6.665,6.665,0,0,0,6.376,4.849" transform="translate(20.925 22.949)" fill="#101010"/>
              <path id="Trazado_1000507" data-name="Trazado 1000507" d="M91.927,173.282h56.706a6.743,6.743,0,0,0,6.376-8.68L123.919,57.435a6.664,6.664,0,0,0-6.376-4.849H60.837a6.743,6.743,0,0,0-6.376,8.68L85.55,168.433a6.665,6.665,0,0,0,6.376,4.849" transform="translate(23.646 22.949)" fill="#c2b3a3"/>
              <rect id="Rectángulo_456813" data-name="Rectángulo 456813" width="61.084" height="5.861" transform="translate(115.495 277.701)" fill="#101010"/>
              <path id="Trazado_1000508" data-name="Trazado 1000508" d="M119.119,198.012a5.585,5.585,0,1,0,6.424-4.6,5.586,5.586,0,0,0-6.424,4.6" transform="translate(51.95 84.373)" fill="#101010"/>
              <rect id="Rectángulo_456814" data-name="Rectángulo 456814" width="5.861" height="84.775" transform="translate(142.942 195.325)" fill="#101010"/>
              <path id="Trazado_1000509" data-name="Trazado 1000509" d="M76.593,198.012a5.585,5.585,0,1,0,6.424-4.6,5.586,5.586,0,0,0-6.424,4.6" transform="translate(33.392 84.373)" fill="#101010"/>
              <path id="Trazado_1000510" data-name="Trazado 1000510" d="M77.267,140.149h68.906a5.819,5.819,0,1,0,0-11.638H77.267a5.819,5.819,0,1,0,0,11.638" transform="translate(31.18 56.082)" fill="#101010"/>
              <path id="Trazado_1000511" data-name="Trazado 1000511" d="M145.765,186.541h17.841l29.507,16.348-50.735-.626Z" transform="translate(62.134 81.406)" fill="#101010"/>
              <path id="Trazado_1000512" data-name="Trazado 1000512" d="M142.256,203.245l.177-5.759,50.734.626-.177,5.759Z" transform="translate(62.08 86.183)" fill="#fff"/>
              <line id="Línea_3377" data-name="Línea 3377" x1="5.846" y2="1.655" transform="translate(232.226 273.968)" fill="none" stroke="#fff" stroke-linecap="round" stroke-linejoin="round" stroke-width="0.795"/>
              <line id="Línea_3378" data-name="Línea 3378" x1="5.846" y2="1.655" transform="translate(226.512 270.931)" fill="none" stroke="#fff" stroke-linecap="round" stroke-linejoin="round" stroke-width="0.795"/>
              <path id="Trazado_1000513" data-name="Trazado 1000513" d="M165.472,169.467H147.287l-2.551,24.525h18.186Z" transform="translate(63.163 73.955)" fill="#ecaea4"/>
              <path id="Trazado_1000514" data-name="Trazado 1000514" d="M107.332,110.2s-1.906,26.493,25.5,26.493h29.1l-6.092,76.823H190.05l8.511-83.949c1.833-10.059-5.615-19.367-15.5-19.367Z" transform="translate(46.827 48.093)" fill="#273780"/>
              <path id="Trazado_1000515" data-name="Trazado 1000515" d="M111.9,186.1H129.74l29.507,16.348-50.735-.626Z" transform="translate(47.354 81.214)" fill="#101010"/>
              <path id="Trazado_1000516" data-name="Trazado 1000516" d="M108.388,202.8l.177-5.759,50.734.626-.177,5.759Z" transform="translate(47.301 85.991)" fill="#fff"/>
              <line id="Línea_3379" data-name="Línea 3379" x1="5.846" y2="1.655" transform="translate(183.58 273.336)" fill="none" stroke="#fff" stroke-linecap="round" stroke-linejoin="round" stroke-width="0.795"/>
              <line id="Línea_3380" data-name="Línea 3380" x1="5.846" y2="1.655" transform="translate(177.865 270.299)" fill="none" stroke="#fff" stroke-linecap="round" stroke-linejoin="round" stroke-width="0.795"/>
              <path id="Trazado_1000517" data-name="Trazado 1000517" d="M136.081,169.027H117.9l-7.027,24.525h18.186Z" transform="translate(48.383 73.763)" fill="#ecaea4"/>
              <path id="Trazado_1000518" data-name="Trazado 1000518" d="M78.842,110.2s-1.906,26.493,25.5,26.493h29.1l-12.88,76.823h34.214l15.3-83.949c1.833-10.059-5.615-19.367-15.5-19.367Z" transform="translate(34.394 48.093)" fill="#3a4b9e"/>
              <path id="Trazado_1000519" data-name="Trazado 1000519" d="M113.329,62.2c20.279,14.367,41.548,42.675,41.548,42.675l1.757,12.55H134.982l-23.161-25.1Z" transform="translate(48.799 27.144)" fill="#508b5f"/>
              <path id="Trazado_1000520" data-name="Trazado 1000520" d="M141.853,65.261s11.385,5.2,13.955,2.744c4.493-4.292,7.26-18.828,7.26-18.828s-20.96-5.908-20.743-5.626-.471,21.711-.471,21.711" transform="translate(61.905 19.001)" fill="#d38580"/>
              <path id="Trazado_1000521" data-name="Trazado 1000521" d="M144.01,64.6c.1-1.11-5.134-12.538-6.961-16.836a1.959,1.959,0,0,1,1.333-2.59,2.263,2.263,0,0,1,2.6.813l5.842,8.266Z" transform="translate(59.747 19.664)" fill="#d38580"/>
              <path id="Trazado_1000522" data-name="Trazado 1000522" d="M141.349,55.739l2-17.7a2.2,2.2,0,0,1,2.382-1.954,1.893,1.893,0,0,1,1.728,1.958l-.411,13.084Z" transform="translate(61.685 15.745)" fill="#d38580"/>
              <path id="Trazado_1000523" data-name="Trazado 1000523" d="M145.8,49.272l3.68-12.83a2.187,2.187,0,0,1,2.583-1.56A1.885,1.885,0,0,1,153.5,37l-2.29,14.656Z" transform="translate(63.629 15.198)" fill="#d38580"/>
              <path id="Trazado_1000524" data-name="Trazado 1000524" d="M149.577,51.462l4.957-12.721a2.4,2.4,0,0,1,2.949-1.432,2.088,2.088,0,0,1,1.31,2.656l-3.8,11.934Z" transform="translate(65.275 16.231)" fill="#d38580"/>
              <path id="Trazado_1000525" data-name="Trazado 1000525" d="M158.051,50.554l4.071-7.882a1.7,1.7,0,0,0-1.018-2.185,1.936,1.936,0,0,0-2.3.888l-5.458,9.131Z" transform="translate(66.921 17.623)" fill="#d38580"/>
              <path id="Trazado_1000526" data-name="Trazado 1000526" d="M141.555,48.445a8.261,8.261,0,0,1,7.508,7.04" transform="translate(61.775 21.141)" fill="none" stroke="#1e0a00" stroke-linecap="round" stroke-linejoin="round" stroke-width="0.393"/>
              <path id="Trazado_1000527" data-name="Trazado 1000527" d="M142.789,58.662l-3.08,21.464,15.464,3.421,1.505-24.886Z" transform="translate(60.969 25.6)" fill="#d38580"/>
              <path id="Trazado_1000528" data-name="Trazado 1000528" d="M140.36,62.9l-6.777,40.41,13.554,13.805h8.534l6.276-52.207Z" transform="translate(58.296 27.451)" fill="#508b5f"/>
              <path id="Trazado_1000529" data-name="Trazado 1000529" d="M99.309,58.93,83.3,63.627a10.685,10.685,0,0,0-8.129,9.983l5.257,58.971h59.787l-6.956-61.413c-.773-4.663-2.777-8.254-7.471-8.809l-8.909-1.053Z" transform="translate(32.805 25.717)" fill="#508b5f"/>
              <line id="Línea_3381" data-name="Línea 3381" x1="3.001" y1="25.694" transform="translate(166.744 103.664)" fill="none" stroke="#1e0a00" stroke-linecap="round" stroke-linejoin="round" stroke-width="0.421"/>
              <path id="Trazado_1000530" data-name="Trazado 1000530" d="M92.277,63c-18.5,13.109-36.513,35.8-42.1,42.947a9.7,9.7,0,0,0,7.643,15.66h8.035a9.693,9.693,0,0,0,7.125-3.12L95.163,94.447Z" transform="translate(21.003 27.492)" fill="#508b5f"/>
              <line id="Línea_3382" data-name="Línea 3382" y1="11.299" x2="11.141" transform="translate(110.535 116.703)" fill="none" stroke="#1e0a00" stroke-linecap="round" stroke-linejoin="round" stroke-width="0.421"/>
              <path id="Trazado_1000531" data-name="Trazado 1000531" d="M83.682,94.13s26.13-5.085,32.239,14.174H86.413Z" transform="translate(36.519 40.814)" fill="#d38580"/>
              <path id="Trazado_1000532" data-name="Trazado 1000532" d="M105.912,90.358,67.859,88.419a6.527,6.527,0,0,0-5.372,2.511l-8.166,8.96a6.531,6.531,0,0,0,5.233,10.547l47.213.075Z" transform="translate(23.103 38.584)" fill="#508b5f"/>
              <path id="Trazado_1000533" data-name="Trazado 1000533" d="M68.09,88.661,99.3,90.252l.23,5.424" transform="translate(29.714 38.692)" fill="none" stroke="#1e0a00" stroke-linecap="round" stroke-linejoin="round" stroke-width="0.421"/>
              <path id="Trazado_1000534" data-name="Trazado 1000534" d="M90.339,40.651s.6,10.269,8.414,8.2l2.07-2.406Z" transform="translate(39.424 17.74)"/>
              <path id="Trazado_1000535" data-name="Trazado 1000535" d="M109.818,42.217a5.168,5.168,0,1,0,4.563-5.708,5.165,5.165,0,0,0-4.563,5.708" transform="translate(47.91 15.918)" fill="#c16e6a"/>
              <path id="Trazado_1000536" data-name="Trazado 1000536" d="M110.808,53.948l-1.26,15.334-2.033,10.957L91.976,66.907,99,40.651Z" transform="translate(40.138 17.74)" fill="#d38580"/>
              <path id="Trazado_1000537" data-name="Trazado 1000537" d="M107.766,60.92,96.95,48.979l11.688,1.334Z" transform="translate(42.309 21.374)" fill="#1e0a00"/>
              <path id="Trazado_1000538" data-name="Trazado 1000538" d="M115.6,23.457c5.754,1.034,9.681,6.434,9.528,12.278-.178,6.731-.835,17.671-3.183,21.813-3.5,6.164-9.74,9.341-18.226,6.131,0,0-10.112-2.277-9.813-17.393.323-16.359,12.037-24.564,21.7-22.829" transform="translate(40.978 10.137)" fill="#d38580"/>
              <path id="Trazado_1000539" data-name="Trazado 1000539" d="M100,46.287l1.89-7.545s1.435-14.768,6.29-14.995c0,0,2.08-2.626-5.932-1.359s-15.471,5.846-9.082,20.986Z" transform="translate(39.607 9.619)"/>
              <path id="Trazado_1000540" data-name="Trazado 1000540" d="M112.884,40a1.182,1.182,0,1,0,1-1.342,1.184,1.184,0,0,0-1,1.342" transform="translate(49.257 16.864)" fill="#171717"/>
              <path id="Trazado_1000541" data-name="Trazado 1000541" d="M105.708,39.338a1.182,1.182,0,1,0,1-1.342,1.184,1.184,0,0,0-1,1.342" transform="translate(46.125 16.576)" fill="#171717"/>
              <path id="Trazado_1000542" data-name="Trazado 1000542" d="M111.807,40.074l.687,3.365a.718.718,0,0,1-.6.856l-1.642-.194" transform="translate(48.112 17.488)" fill="none" stroke="#1e0a00" stroke-linecap="round" stroke-linejoin="round" stroke-width="0.421"/>
              <path id="Trazado_1000543" data-name="Trazado 1000543" d="M112.621,35.376l-9.332.9a5.331,5.331,0,0,1,4.365-2.814,5.827,5.827,0,0,1,4.967,1.916" transform="translate(45.075 14.59)"/>
              <path id="Trazado_1000544" data-name="Trazado 1000544" d="M112.535,35.264l4.872,1.3s-.152-2.076-1.846-2.514-3.026,1.218-3.026,1.218" transform="translate(49.11 14.826)"/>
              <path id="Trazado_1000545" data-name="Trazado 1000545" d="M105.834,43.726a4.785,4.785,0,0,0,5.33,2.116" transform="translate(46.186 19.082)" fill="none" stroke="#1e0a00" stroke-linecap="round" stroke-linejoin="round" stroke-width="0.421"/>
              <path id="Trazado_1000546" data-name="Trazado 1000546" d="M100.616,45.171s6.128-6.439,5.18-10.954c-.774-3.689,2.4-3.482,4.115-3.018a32.55,32.55,0,0,0,4.17.881c3.383.452,8.934.974,12.724.213,0,0,1.587-1.142-.6-5.842s-6.9-6.7-16.315-6.7c-7.785,0-12.5.771-16.955,3.985-3.169,2.285-9.6,11.079-1.824,24.177Z" transform="translate(38.148 8.62)"/>
              <path id="Trazado_1000547" data-name="Trazado 1000547" d="M89.36,41.71a5.669,5.669,0,1,0,5.006-6.263A5.671,5.671,0,0,0,89.36,41.71" transform="translate(38.981 15.453)" fill="#d38580"/>
              <path id="Trazado_1000548" data-name="Trazado 1000548" d="M91.73,37.9a4.153,4.153,0,0,1,4.558,4.282" transform="translate(40.031 16.537)" fill="none" stroke="#1e0a00" stroke-linecap="round" stroke-linejoin="round" stroke-width="0.38"/>
              <path id="Trazado_1000549" data-name="Trazado 1000549" d="M128.518,105.212h41.217v-4.651H128.518a2.326,2.326,0,0,0,0,4.651" transform="translate(55.07 43.885)" fill="#121314"/>
              <path id="Trazado_1000550" data-name="Trazado 1000550" d="M152.729,119.027h56.133a7.008,7.008,0,0,0,6.75-5.128l11.672-41.933a2.414,2.414,0,0,0-2.326-3.061H168.124a2.88,2.88,0,0,0-2.784,2.147Z" transform="translate(66.651 30.07)" fill="#445158"/>
              <path id="Trazado_1000551" data-name="Trazado 1000551" d="M177.227,87.754a4.329,4.329,0,1,0,4.329-4.328,4.328,4.328,0,0,0-4.329,4.328" transform="translate(77.342 36.407)" fill="#83949a"/>
              <rect id="Rectángulo_456815" data-name="Rectángulo 456815" width="294.926" height="9.202" transform="translate(35.696 149.097)" fill="#fff"/>
              <line id="Línea_3383" data-name="Línea 3383" y2="131.123" transform="translate(81.843 158.298)" fill="none" stroke="#221913" stroke-miterlimit="10" stroke-width="1.952"/>
              <line id="Línea_3384" data-name="Línea 3384" y2="131.123" transform="translate(289.768 158.298)" fill="none" stroke="#221913" stroke-miterlimit="10" stroke-width="1.952"/>
              <path id="Trazado_1000552" data-name="Trazado 1000552" d="M51.377,54.131H7.683A7.684,7.684,0,0,1,0,46.446V5.825A5.826,5.826,0,0,1,5.826,0H51.377A5.826,5.826,0,0,1,57.2,5.825v42.48a5.826,5.826,0,0,1-5.826,5.826" transform="translate(0 0)" fill="#fff"/>
            </g>
          </g>
          <path id="codigo" d="M31.141,8.424,16.867.188a1.4,1.4,0,0,0-1.4,0L1.2,8.424A1.4,1.4,0,0,0,.5,9.633V26.105a1.4,1.4,0,0,0,.7,1.209l14.274,8.236a1.4,1.4,0,0,0,1.4,0l14.274-8.236a1.4,1.4,0,0,0,.7-1.209V9.633a1.4,1.4,0,0,0-.7-1.209ZM29.047,25.3,16.169,32.73,3.292,25.3V10.439L16.169,3.009l12.878,7.431Zm-18.53-9.96-2.531,2.53,2.531,2.53a1.4,1.4,0,0,1-1.974,1.974L5.025,18.856a1.4,1.4,0,0,1,0-1.974l3.518-3.518a1.4,1.4,0,1,1,1.974,1.974ZM21.822,20.4l2.531-2.53-2.531-2.53A1.4,1.4,0,1,1,23.8,13.365l3.518,3.518a1.4,1.4,0,0,1,0,1.974L23.8,22.374A1.4,1.4,0,1,1,21.822,20.4Zm-9.34,1.722,4.877-9.754a1.4,1.4,0,0,1,2.5,1.248L14.98,23.371a1.4,1.4,0,0,1-2.5-1.249Zm0,0" transform="translate(276.471 2314.614)" fill="#19538d"/>
        </g>
      </g>
      <g id="Grupo_1180379" data-name="Grupo 1180379" transform="translate(-18.916 -7.036)">
        <path id="Trazado_1000657" data-name="Trazado 1000657" d="M277.648,51.214h-104a3.675,3.675,0,0,1-3.676-3.676V16.285a3.674,3.674,0,0,1,3.676-3.673h104a3.676,3.676,0,0,1,3.676,3.673V47.538a3.676,3.676,0,0,1-3.676,3.676" transform="translate(334.933 2271.508)" fill="#3a4b9e"/>
        <line id="Línea_3398" data-name="Línea 3398" x2="73.298" transform="translate(522.536 2297.361)" fill="none" stroke="#fff" stroke-miterlimit="10" stroke-width="2"/>
        <line id="Línea_3399" data-name="Línea 3399" x2="26.247" transform="translate(522.536 2307.714)" fill="none" stroke="#fff" stroke-miterlimit="10" stroke-width="2"/>
        <path id="Trazado_1000658" data-name="Trazado 1000658" d="M176.151,27.688V42.172l18.216-14.483Z" transform="translate(342.852 2290.83)" fill="#3a4b9e"/>
      </g>
    </g>
  </g>
</svg>
