<svg xmlns="http://www.w3.org/2000/svg" xmlns:xlink="http://www.w3.org/1999/xlink" width="395.26" height="378.674" viewBox="0 0 395.26 378.674">
  <defs>
    <clipPath id="clip-path">
      <rect id="Rectángulo_456832" data-name="Rectángulo 456832" width="368.893" height="334.813" fill="none"/>
    </clipPath>
    <clipPath id="clip-path-2">
      <path id="path99" d="M0-682.665H34.966V-647.7H0Z" transform="translate(0 682.665)" fill="#19538d" stroke="#707070" stroke-width="1.333"/>
    </clipPath>
  </defs>
  <g id="Grupo_1180395" data-name="Grupo 1180395" transform="translate(-10873 9420.301)">
    <g id="Grupo_1180378" data-name="Grupo 1180378">
      <rect id="Rectángulo_456683" data-name="Rectángulo 456683" width="395" height="378.674" transform="translate(10873.26 -9420.301)" fill="none"/>
      <circle id="Elipse_13861" data-name="Elipse 13861" cx="158" cy="158" r="158" transform="translate(10873 -9387)" fill="#9ecfff"/>
      <g id="Grupo_1180374" data-name="Grupo 1180374" transform="translate(10886.361 -9386.907)">
        <g id="Enmascarar_grupo_1180373" data-name="Enmascarar grupo 1180373" clip-path="url(#clip-path)">
          <path id="Trazado_1000597" data-name="Trazado 1000597" d="M58.585,189.351h69.092a7.157,7.157,0,0,0,6.768-9.212l-33-113.735a7.071,7.071,0,0,0-6.766-5.147H25.59a7.156,7.156,0,0,0-6.766,9.212L51.819,184.2a7.071,7.071,0,0,0,6.766,5.147" transform="translate(14.913 49.298)" fill="#1c2123"/>
          <path id="Trazado_1000598" data-name="Trazado 1000598" d="M63.852,189.351h60.182a7.155,7.155,0,0,0,6.766-9.212L97.8,66.4a7.071,7.071,0,0,0-6.766-5.147H30.857a7.156,7.156,0,0,0-6.766,9.212L57.086,184.2a7.071,7.071,0,0,0,6.766,5.147" transform="translate(19.152 49.298)" fill="#edbc9c"/>
          <path id="Trazado_1000599" data-name="Trazado 1000599" d="M55.163,137.74h73.13a6.176,6.176,0,0,0,0-12.352H55.163a6.176,6.176,0,0,0,0,12.352" transform="translate(39.424 100.909)" fill="#1c2123"/>
          <rect id="Rectángulo_456825" data-name="Rectángulo 456825" width="59.106" height="6.219" transform="translate(84.83 321.299)" fill="#1c2123"/>
          <path id="Trazado_1000600" data-name="Trazado 1000600" d="M76.548,182.992a5.927,5.927,0,1,0,6.817-4.878,5.927,5.927,0,0,0-6.817,4.878" transform="translate(61.539 143.277)" fill="#1c2123"/>
          <rect id="Rectángulo_456826" data-name="Rectángulo 456826" width="6.219" height="86.156" transform="translate(112.051 237.687)" fill="#1c2123"/>
          <path id="Trazado_1000601" data-name="Trazado 1000601" d="M43.8,182.992a5.927,5.927,0,1,0,6.815-4.878,5.924,5.924,0,0,0-6.815,4.878" transform="translate(35.183 143.277)" fill="#1c2123"/>
          <path id="Trazado_1000602" data-name="Trazado 1000602" d="M44.555,137.74h73.13a6.176,6.176,0,1,0,0-12.352H44.555a6.176,6.176,0,0,0,0,12.352" transform="translate(30.886 100.909)" fill="#1c2123"/>
          <path id="Trazado_1000603" data-name="Trazado 1000603" d="M149.166,192.9,138.175,158l-17.483-.928,10.964,37.46,16.862.106Z" transform="translate(97.13 126.405)" fill="#edbc9c"/>
          <path id="Trazado_1000604" data-name="Trazado 1000604" d="M127.412,175.34s14.458,5.947,21.249-3.425L178.426,190l-55.5-.357Z" transform="translate(98.932 138.353)"/>
          <rect id="Rectángulo_456827" data-name="Rectángulo 456827" width="5.111" height="55.496" transform="matrix(0.006, -1, 1, 0.006, 221.827, 333.103)" fill="#fff"/>
          <path id="Trazado_1000605" data-name="Trazado 1000605" d="M137.6,179.184a.967.967,0,0,0,.406-.309,20.253,20.253,0,0,1,4.573-4.46.906.906,0,0,0,.271-1.294,1.021,1.021,0,0,0-1.357-.26,21.761,21.761,0,0,0-5.075,4.916.907.907,0,0,0,.217,1.3,1.023,1.023,0,0,0,.966.1" transform="translate(109.633 138.993)" fill="#fff"/>
          <path id="Trazado_1000606" data-name="Trazado 1000606" d="M140.244,180.509a.967.967,0,0,0,.406-.309,20.253,20.253,0,0,1,4.573-4.46.906.906,0,0,0,.271-1.294,1.018,1.018,0,0,0-1.357-.26,21.762,21.762,0,0,0-5.075,4.916.906.906,0,0,0,.217,1.3,1.023,1.023,0,0,0,.966.1" transform="translate(111.763 140.057)" fill="#fff"/>
          <path id="Trazado_1000607" data-name="Trazado 1000607" d="M142.89,181.831a.973.973,0,0,0,.4-.309,20.294,20.294,0,0,1,4.575-4.46.905.905,0,0,0,.271-1.292,1.016,1.016,0,0,0-1.357-.26,21.714,21.714,0,0,0-5.077,4.914.908.908,0,0,0,.217,1.3,1.026,1.026,0,0,0,.967.1" transform="translate(113.891 141.123)" fill="#fff"/>
          <path id="Trazado_1000608" data-name="Trazado 1000608" d="M102.343,101.551l15.194.966a25.216,25.216,0,0,1,22.691,18.389l23.814,91.721-30.221,1.447-31.479-85.088Z" transform="translate(82.363 81.726)" fill="#6f82e8"/>
          <path id="Trazado_1000609" data-name="Trazado 1000609" d="M118.054,172.017h39.851l-2.765-14.693H115.291Z" transform="translate(92.783 126.611)" fill="#a0b0ff"/>
          <path id="Trazado_1000610" data-name="Trazado 1000610" d="M111.5,192.7,111,158.253l-17.485-.928.482,37,16.862.106Z" transform="translate(75.256 126.611)" fill="#edbc9c"/>
          <path id="Trazado_1000611" data-name="Trazado 1000611" d="M94.424,175.34s14.458,5.947,21.249-3.425L145.438,190l-55.5-.357Z" transform="translate(72.384 138.353)"/>
          <rect id="Rectángulo_456828" data-name="Rectángulo 456828" width="5.111" height="55.496" transform="matrix(0.006, -1, 1, 0.006, 162.292, 333.103)" fill="#fff"/>
          <path id="Trazado_1000612" data-name="Trazado 1000612" d="M104.608,179.184a.967.967,0,0,0,.406-.309,20.252,20.252,0,0,1,4.573-4.46.906.906,0,0,0,.271-1.294,1.021,1.021,0,0,0-1.357-.26,21.76,21.76,0,0,0-5.075,4.916.907.907,0,0,0,.217,1.3,1.023,1.023,0,0,0,.966.1" transform="translate(83.085 138.993)" fill="#fff"/>
          <path id="Trazado_1000613" data-name="Trazado 1000613" d="M107.255,180.509a.967.967,0,0,0,.406-.309,20.194,20.194,0,0,1,4.575-4.46.906.906,0,0,0,.269-1.294,1.018,1.018,0,0,0-1.357-.26,21.762,21.762,0,0,0-5.075,4.916.907.907,0,0,0,.217,1.3,1.023,1.023,0,0,0,.966.1" transform="translate(85.215 140.057)" fill="#fff"/>
          <path id="Trazado_1000614" data-name="Trazado 1000614" d="M109.9,181.831a.967.967,0,0,0,.406-.309,20.3,20.3,0,0,1,4.575-4.46.905.905,0,0,0,.271-1.292,1.016,1.016,0,0,0-1.357-.26,21.675,21.675,0,0,0-5.077,4.914.906.906,0,0,0,.217,1.3,1.023,1.023,0,0,0,.966.1" transform="translate(87.344 141.123)" fill="#fff"/>
          <path id="Trazado_1000615" data-name="Trazado 1000615" d="M49.809,97.23l55.717,6.734h35.545a18.947,18.947,0,0,1,18.957,18.663c.475,31.852-1.989,98.052-3.487,97.752-2.021-.4-31.12,0-31.12,0l-2.958-72.328-48.489.4c-5-1.408-37.918-6.288-24.166-51.227" transform="translate(37.402 78.248)" fill="#8292fd"/>
          <rect id="Rectángulo_456829" data-name="Rectángulo 456829" width="39.851" height="14.693" transform="translate(159.418 283.936)" fill="#a0b0ff"/>
          <path id="Trazado_1000616" data-name="Trazado 1000616" d="M122.132,84.584,90.157,79.972,95.875,96.1l28.936,1.355Z" transform="translate(72.556 64.36)" fill="#e3b99a"/>
          <path id="Trazado_1000617" data-name="Trazado 1000617" d="M110.127,82.708c-5.521,3.559-7.28,8.815-2.025,13.076s13.994,4.831,19.515,1.271,5.709-8.815.451-13.076a15.255,15.255,0,0,0-17.941-1.271" transform="translate(84.462 64.68)" fill="#e3b99a"/>
          <path id="Trazado_1000618" data-name="Trazado 1000618" d="M123.657,80.6,92.145,77.7c-5.736-.966-12.543,3.55-13.888,9.21a11.048,11.048,0,0,0,9.542,13.53l32.627-1.6Z" transform="translate(62.737 62.424)" fill="#fff"/>
          <path id="Trazado_1000619" data-name="Trazado 1000619" d="M95.844,55.437s11.518,19.452,10.637,58.435L79,119.525l3.1-57.578Z" transform="translate(63.573 44.614)" fill="#fff"/>
          <path id="Trazado_1000620" data-name="Trazado 1000620" d="M93.711,46.175S68.6,45.385,60.3,63.5s-14.7,78.764-14.7,78.764,23.3,13.807,66.192,2.81l10.923-82.161S111.192,45.288,93.711,46.175" transform="translate(36.7 37.135)" fill="#fff"/>
          <path id="Trazado_1000621" data-name="Trazado 1000621" d="M88.525,62.13c-.383,26.9-6.371,42.43-6.371,42.43" transform="translate(66.116 50.001)" fill="none" stroke="#dddada" stroke-miterlimit="10" stroke-width="0.976"/>
          <path id="Trazado_1000622" data-name="Trazado 1000622" d="M45.67,100.808l16.187-41.6c.043-.083,2-2.572,2.045-2.655l.014-.025,0,0A12.357,12.357,0,0,1,87.1,62.5c0,2.061,2.5,2.749,1.606,4.458-.032.061-1.327,3.283-1.361,3.342L71.284,111.924c-3.039,5.324-15.12,7.338-20.6,4.588a11.533,11.533,0,0,1-5.015-15.7" transform="translate(35.673 40.354)" fill="#fff"/>
          <line id="Línea_3393" data-name="Línea 3393" y1="25.406" x2="9.874" transform="translate(110.853 111.506)" fill="none" stroke="#dddada" stroke-miterlimit="10" stroke-width="0.976"/>
          <path id="Trazado_1000623" data-name="Trazado 1000623" d="M99.566,82.845,67.591,78.236l5.718,16.129,28.936,1.355Z" transform="translate(54.396 62.962)" fill="#e3b99a"/>
          <path id="Trazado_1000624" data-name="Trazado 1000624" d="M87.561,80.97c-5.521,3.559-7.28,8.815-2.025,13.076s13.994,4.831,19.515,1.271,5.709-8.815.451-13.076A15.255,15.255,0,0,0,87.561,80.97" transform="translate(66.301 63.282)" fill="#e3b99a"/>
          <path id="Trazado_1000625" data-name="Trazado 1000625" d="M109.994,79.524,58.516,75.131c-5.737-.966-12.545,3.548-13.888,9.208A11.048,11.048,0,0,0,54.17,97.871l52.593-.11Z" transform="translate(35.673 60.359)" fill="#fff"/>
          <path id="Trazado_1000626" data-name="Trazado 1000626" d="M98.991,83.778l.662-4.654L57.629,75.537" transform="translate(46.378 60.791)" fill="none" stroke="#dddada" stroke-miterlimit="10" stroke-width="0.976"/>
          <path id="Trazado_1000627" data-name="Trazado 1000627" d="M92.656,38.1s14.473-10.775,7.856-20.759S81.887,16,81.887,16Z" transform="translate(65.901 10.081)" fill="#1f2326"/>
          <path id="Trazado_1000628" data-name="Trazado 1000628" d="M93.633,13.17S52.857,7.4,70.808,38.977l4.64-12.81Z" transform="translate(53.31 10.266)" fill="#1f2326"/>
          <path id="Trazado_1000629" data-name="Trazado 1000629" d="M90.077,17.762S96.907,23.469,88.341,36l-2.283-15.99Z" transform="translate(69.257 14.294)" fill="#1f2326"/>
          <path id="Trazado_1000630" data-name="Trazado 1000630" d="M84.056,32.389a6.2,6.2,0,0,0,5.308,6.945,6.136,6.136,0,0,0,6.743-5.5A6.2,6.2,0,0,0,90.8,26.888a6.137,6.137,0,0,0-6.743,5.5" transform="translate(67.612 21.605)" fill="#d39d7e"/>
          <path id="Trazado_1000631" data-name="Trazado 1000631" d="M90.992,40.466,85.772,60.16c-1.254,5.4-4.887,4.182-7.631,4.09-4.27-.251-9.067-2.171-8.656-6.79L75.7,32.433Z" transform="translate(55.901 26.101)" fill="#edbc9c"/>
          <path id="Trazado_1000632" data-name="Trazado 1000632" d="M86.436,60.992h0c8.535.433,15.915-6.172,16.514-13.359l1.169-15.039A16.564,16.564,0,0,0,89.872,14.57c-8.9-1.067-18.53,5.331-19.589,14.523l-.771,11.731c-.7,10.56,6.744,18.948,16.923,20.168" transform="translate(55.905 11.632)" fill="#edbc9c"/>
          <path id="Trazado_1000633" data-name="Trazado 1000633" d="M83.878,30.969l.253,4.243-2.243,0" transform="translate(65.901 24.923)" fill="none" stroke="#000" stroke-linecap="round" stroke-linejoin="round" stroke-width="0.523"/>
          <path id="Trazado_1000634" data-name="Trazado 1000634" d="M79.377,25.258s3.723-.17,3.7,1.391c0,0-.043,1.058-3.29,1.139s-4.079-.195-4.337-1.2,2.186-1.39,3.927-1.332" transform="translate(60.705 20.323)" fill="#1f2326"/>
          <path id="Trazado_1000635" data-name="Trazado 1000635" d="M87.7,25.868s-3.052-.446-3.359,1.009c0,0-.184.987,2.489,1.316s3.561.011,3.846-.78c.321-.9-1.521-1.464-2.976-1.545" transform="translate(67.877 20.766)" fill="#1f2326"/>
          <path id="Trazado_1000636" data-name="Trazado 1000636" d="M84.824,30.585a1.56,1.56,0,1,0,1.669-1.493,1.59,1.59,0,0,0-1.669,1.493" transform="translate(68.261 23.41)" fill="#1f2326"/>
          <path id="Trazado_1000637" data-name="Trazado 1000637" d="M77.271,30.03a1.56,1.56,0,1,0,1.669-1.493,1.591,1.591,0,0,0-1.669,1.493" transform="translate(62.182 22.963)" fill="#1f2326"/>
          <path id="Trazado_1000638" data-name="Trazado 1000638" d="M105.416,30.2s.563-3.949-7.188-4.911-17.73-.312-23.255,6.6l-.123,10.87-6.921-6.831,3.642-16.187,20.7-6.75,12.39,8.621Z" transform="translate(54.668 10.451)" fill="#1f2326"/>
          <path id="Trazado_1000639" data-name="Trazado 1000639" d="M65.172,31.136a6.142,6.142,0,0,0,5.256,6.878,6.078,6.078,0,0,0,6.678-5.447,6.143,6.143,0,0,0-5.255-6.878,6.076,6.076,0,0,0-6.678,5.447" transform="translate(52.415 20.64)" fill="#edbc9c"/>
          <path id="Trazado_1000640" data-name="Trazado 1000640" d="M70.858,32.141s.514-4.467-3.7-4.261" transform="translate(54.046 22.432)" fill="none" stroke="#000" stroke-linecap="round" stroke-linejoin="round" stroke-width="0.523"/>
          <path id="Trazado_1000641" data-name="Trazado 1000641" d="M97.522,18.463s1.846-4.718-4.651-7.336c-5.588-2.252-11.365-1.292-23.834,7.149Z" transform="translate(55.559 8.114)" fill="#1f2326"/>
          <path id="Trazado_1000642" data-name="Trazado 1000642" d="M101.241,48.732a2.461,2.461,0,0,0-1.489-2.223,25.048,25.048,0,0,0-6.3-1.738c-3.75-.587-9.159.6-12.074,1.372a2.751,2.751,0,0,1-3.157-1.415c-1.937-3.868-5.479-12.92-2.788-23.435l-4.312,3.122.565,6.629s3.364,7.172-1.9,10.358c0,0-.251,14.846,13.5,17.524A20.6,20.6,0,0,0,95.463,57.31a10.027,10.027,0,0,0,5.779-8.578" transform="translate(56.16 17.135)" fill="#1f2326"/>
          <path id="Trazado_1000643" data-name="Trazado 1000643" d="M87.956,47.912s1.415.309,5.943,2.96c0,0,2.256,7.089-10.765,6.142-12.574-.915-17.284-9.461-17.284-9.461A29.992,29.992,0,0,1,76.8,46.174a78.284,78.284,0,0,1,11.154,1.738" transform="translate(52.994 37.105)" fill="#edbc9c"/>
          <path id="Trazado_1000644" data-name="Trazado 1000644" d="M73,31.638s9.044-2.11,5.557-10.937-7.737,2.4-7.737,2.4Z" transform="translate(56.996 13.936)" fill="#1f2326"/>
          <path id="Trazado_1000645" data-name="Trazado 1000645" d="M107.859,85.805h45.06a1.814,1.814,0,1,1,0,3.628h-45.06a1.814,1.814,0,1,1,0-3.628" transform="translate(85.342 69.054)" fill="#121314"/>
          <path id="Trazado_1000646" data-name="Trazado 1000646" d="M95.034,85.805h32.417a1.814,1.814,0,1,1,0,3.628H95.034a1.814,1.814,0,0,1,0-3.628" transform="translate(75.021 69.054)" fill="#455157"/>
          <path id="Trazado_1000647" data-name="Trazado 1000647" d="M112.275,109.1h95.088a4.24,4.24,0,0,0,4.239-4.239V44.1a4.24,4.24,0,0,0-4.239-4.239H112.275a4.24,4.24,0,0,0-4.239,4.239v60.765a4.24,4.24,0,0,0,4.239,4.239" transform="translate(86.945 32.078)" fill="#455157"/>
          <path id="Trazado_1000648" data-name="Trazado 1000648" d="M113.534,109.1h95.088a4.24,4.24,0,0,0,4.239-4.239V44.1a4.24,4.24,0,0,0-4.239-4.239H113.534A4.24,4.24,0,0,0,109.3,44.1v60.765a4.24,4.24,0,0,0,4.239,4.239" transform="translate(87.958 32.078)" fill="#2e353a"/>
          <path id="Trazado_1000649" data-name="Trazado 1000649" d="M145.358,57.7,120.541,94.746h35.7Z" transform="translate(97.008 46.435)" fill="#121314"/>
          <path id="Trazado_1000650" data-name="Trazado 1000650" d="M152.28,57.175H136.315a2.264,2.264,0,0,0-2.218,2.714l10.309,50.77a2.264,2.264,0,0,0,2.218,1.814h16.759a2.265,2.265,0,0,0,2.211-2.749l-11.1-50.77a2.262,2.262,0,0,0-2.211-1.78" transform="translate(107.881 46.013)" fill="#455157"/>
          <path id="Trazado_1000651" data-name="Trazado 1000651" d="M132.043,85.805h29.452v3.628H132.043a1.814,1.814,0,0,1,0-3.628" transform="translate(104.805 69.054)" fill="#455157"/>
          <line id="Línea_3394" data-name="Línea 3394" y2="168.983" transform="translate(286.192 164.139)" fill="none" stroke="#e8e2df" stroke-miterlimit="10" stroke-width="1.952"/>
          <line id="Línea_3395" data-name="Línea 3395" y2="168.983" transform="translate(128.943 164.139)" fill="none" stroke="#e8e2df" stroke-miterlimit="10" stroke-width="1.952"/>
          <rect id="Rectángulo_456830" data-name="Rectángulo 456830" width="169.799" height="11.305" transform="translate(156.22 158.486)" fill="#baaea7"/>
          <rect id="Rectángulo_456831" data-name="Rectángulo 456831" width="63.36" height="11.305" transform="translate(92.859 158.486)" fill="#e8e2df"/>
          <circle id="Elipse_13862" data-name="Elipse 13862" cx="31" cy="31" r="31" transform="translate(7.639 0.907)" fill="#fff"/>
          <g id="g95" transform="translate(20.488 13.757)">
            <g id="g97" clip-path="url(#clip-path-2)">
              <g id="g103" transform="translate(12.067 3.737)">
                <path id="path105" d="M-187.979-135.314a.683.683,0,0,1-.683-.683v-1.926a4.054,4.054,0,0,0-4.05-4.05,4.054,4.054,0,0,0-4.05,4.05V-136a.683.683,0,0,1-.683.683.683.683,0,0,1-.683-.683v-1.926a5.422,5.422,0,0,1,5.415-5.415,5.422,5.422,0,0,1,5.415,5.415V-136A.683.683,0,0,1-187.979-135.314Z" transform="translate(198.127 143.338)" fill="#19538d"/>
              </g>
              <g id="g107" transform="translate(7.192 10.464)">
                <path id="path109" d="M-250.635,10.107A10.3,10.3,0,0,1-260.926-.184V-9.712a3.626,3.626,0,0,1,3.621-3.621h3.6a.683.683,0,0,1,.683.683.683.683,0,0,1-.683.683h-3.6a2.258,2.258,0,0,0-2.256,2.256V-.184a8.936,8.936,0,0,0,8.926,8.925,8.936,8.936,0,0,0,8.926-8.925V-9.712a2.258,2.258,0,0,0-2.255-2.256h-3.6a.683.683,0,0,1-.683-.683.683.683,0,0,1,.683-.683h3.6a3.625,3.625,0,0,1,3.621,3.621V-.184A10.3,10.3,0,0,1-250.635,10.107Z" transform="translate(260.926 13.333)" fill="#19538d"/>
              </g>
              <g id="g111" transform="translate(25.218 0.793)">
                <path id="path113" d="M-11.148-42.668a2.188,2.188,0,0,1,2.185,2.185A2.188,2.188,0,0,1-11.148-38.3a2.188,2.188,0,0,1-2.185-2.185A2.188,2.188,0,0,1-11.148-42.668Zm0,3.005a.82.82,0,0,0,.82-.82.82.82,0,0,0-.82-.82.82.82,0,0,0-.82.82A.82.82,0,0,0-11.148-39.663Z" transform="translate(13.333 42.668)" fill="#19538d"/>
              </g>
              <g id="g115" transform="translate(20.739 2.333)">
                <path id="path117" d="M-98.625-8.463a.68.68,0,0,1-.39-.122.683.683,0,0,1-.17-.951l2.439-3.5a.683.683,0,0,1,.561-.293h1.964a.683.683,0,0,1,.683.683.683.683,0,0,1-.683.683h-1.607l-2.236,3.212A.682.682,0,0,1-98.625-8.463Z" transform="translate(99.308 13.333)" fill="#19538d"/>
              </g>
              <g id="g119" transform="translate(5.377 0.793)">
                <path id="path121" d="M-69.814-42.668a2.188,2.188,0,0,1,2.185,2.185A2.188,2.188,0,0,1-69.814-38.3,2.188,2.188,0,0,1-72-40.482,2.188,2.188,0,0,1-69.814-42.668Zm0,3.005a.82.82,0,0,0,.82-.82.82.82,0,0,0-.82-.82.82.82,0,0,0-.82.82A.82.82,0,0,0-69.814-39.663Z" transform="translate(72 42.668)" fill="#19538d"/>
              </g>
              <g id="g123" transform="translate(15.298 15.09)">
                <path id="path125" d="M-69.814-42.668a2.188,2.188,0,0,1,2.185,2.185A2.188,2.188,0,0,1-69.814-38.3,2.188,2.188,0,0,1-72-40.482,2.188,2.188,0,0,1-69.814-42.668Zm0,3.005a.82.82,0,0,0,.82-.82.82.82,0,0,0-.82-.82.82.82,0,0,0-.82.82A.82.82,0,0,0-69.814-39.663Z" transform="translate(72 42.668)" fill="#19538d"/>
              </g>
              <g id="g127" transform="translate(19.805 21.242)">
                <path id="path129" d="M-69.814-42.668a2.188,2.188,0,0,1,2.185,2.185A2.188,2.188,0,0,1-69.814-38.3,2.188,2.188,0,0,1-72-40.482,2.188,2.188,0,0,1-69.814-42.668Zm0,3.005a.82.82,0,0,0,.82-.82.82.82,0,0,0-.82-.82.82.82,0,0,0-.82.82A.82.82,0,0,0-69.814-39.663Z" transform="translate(72 42.668)" fill="#19538d"/>
              </g>
              <g id="g131" transform="translate(8.457 2.333)">
                <path id="path133" d="M-8.246-8.463a.682.682,0,0,1-.561-.293l-2.236-3.212H-12.65a.683.683,0,0,1-.683-.683.683.683,0,0,1,.683-.683h1.964a.683.683,0,0,1,.561.293l2.439,3.5a.683.683,0,0,1-.17.951A.68.68,0,0,1-8.246-8.463Z" transform="translate(13.333 13.333)" fill="#19538d"/>
              </g>
              <g id="g135" transform="translate(26.408 12.121)">
                <path id="path137" d="M-9.055-54.1h-3.6a.683.683,0,0,1-.683-.683.683.683,0,0,1,.683-.683h3.313l2.074-2.074a.683.683,0,0,1,.966,0,.683.683,0,0,1,0,.966L-8.572-54.3A.683.683,0,0,1-9.055-54.1Z" transform="translate(13.333 57.736)" fill="#19538d"/>
              </g>
              <g id="g139" transform="translate(25.714 26.821)">
                <path id="path141" d="M-7.974-5.984a.683.683,0,0,1-.683-.683V-9.931l-4.3-2.109a.683.683,0,0,1-.312-.914.683.683,0,0,1,.914-.312l4.679,2.3a.683.683,0,0,1,.382.613v3.69A.683.683,0,0,1-7.974-5.984Z" transform="translate(13.336 13.336)" fill="#19538d"/>
              </g>
              <g id="g143" transform="translate(16.8 4.085)">
                <path id="path145" d="M-12.65-9.177a.683.683,0,0,1-.683-.683v-2.79a.683.683,0,0,1,.683-.683.683.683,0,0,1,.683.683v2.79A.683.683,0,0,1-12.65-9.177Z" transform="translate(13.333 13.333)" fill="#19538d"/>
              </g>
              <g id="g147" transform="translate(1.322 12.121)">
                <path id="path149" d="M-121.385-54.1h-3.6a.683.683,0,0,1-.483-.2l-2.274-2.274a.683.683,0,0,1,0-.966.683.683,0,0,1,.966,0l2.074,2.074h3.313a.683.683,0,0,1,.683.683A.683.683,0,0,1-121.385-54.1Z" transform="translate(127.938 57.736)" fill="#19538d"/>
              </g>
              <g id="g151" transform="translate(3.207 26.821)">
                <path id="path153" d="M-104-5.984a.683.683,0,0,1-.683-.683v-3.69a.683.683,0,0,1,.382-.613l4.679-2.3a.683.683,0,0,1,.914.312.683.683,0,0,1-.312.914l-4.3,2.109v3.264A.683.683,0,0,1-104-5.984Z" transform="translate(104.68 13.336)" fill="#19538d"/>
              </g>
              <g id="g155" transform="translate(0 20.708)">
                <path id="path157" d="M-150.7-9.63h-2.362a.683.683,0,0,1-.683-.683.683.683,0,0,1,.683-.683h1.964l1.13-1.991a.683.683,0,0,1,.594-.346h3.5a.683.683,0,0,1,.683.683.683.683,0,0,1-.683.683h-3.106l-1.13,1.991A.683.683,0,0,1-150.7-9.63Z" transform="translate(153.74 13.333)" fill="#19538d"/>
              </g>
              <g id="g159" transform="translate(26.408 20.708)">
                <path id="path161" d="M-5.459-9.63H-7.82a.683.683,0,0,1-.594-.346l-1.13-1.991H-12.65a.683.683,0,0,1-.683-.683.683.683,0,0,1,.683-.683h3.5a.683.683,0,0,1,.594.346L-7.423-11h1.964a.683.683,0,0,1,.683.683A.683.683,0,0,1-5.459-9.63Z" transform="translate(13.333 13.333)" fill="#19538d"/>
              </g>
              <g id="g163" transform="translate(16.8 18.417)">
                <path id="path165" d="M-12.65,2.154a.683.683,0,0,1-.683-.683V-12.65a.683.683,0,0,1,.683-.683.683.683,0,0,1,.683.683V1.471A.683.683,0,0,1-12.65,2.154Z" transform="translate(13.333 13.333)" fill="#19538d"/>
              </g>
              <g id="g167" transform="translate(19.805 24.247)">
                <path id="path169" d="M-41.984-4.4a.683.683,0,0,1-.683-.683V-8.672a.683.683,0,0,1,.217-.5l1.286-1.2V-12.65a.683.683,0,0,1,.683-.683.683.683,0,0,1,.683.683v2.574a.683.683,0,0,1-.217.5l-1.286,1.2v3.291A.683.683,0,0,1-41.984-4.4Z" transform="translate(42.667 13.333)" fill="#19538d"/>
              </g>
              <g id="g171" transform="translate(10.79 21.242)">
                <path id="path173" d="M-11.148-42.668a2.188,2.188,0,0,1,2.185,2.185A2.188,2.188,0,0,1-11.148-38.3a2.188,2.188,0,0,1-2.185-2.185A2.188,2.188,0,0,1-11.148-42.668Zm0,3.005a.82.82,0,0,0,.82-.82.82.82,0,0,0-.82-.82.82.82,0,0,0-.82.82A.82.82,0,0,0-11.148-39.663Z" transform="translate(13.333 42.668)" fill="#19538d"/>
              </g>
              <g id="g175" transform="translate(12.293 24.247)">
                <path id="path177" d="M-11.148-4.4a.683.683,0,0,1-.683-.683V-8.376l-1.286-1.2a.683.683,0,0,1-.217-.5V-12.65a.683.683,0,0,1,.683-.683.683.683,0,0,1,.683.683v2.278l1.286,1.2a.683.683,0,0,1,.217.5v3.588A.683.683,0,0,1-11.148-4.4Z" transform="translate(13.333 13.333)" fill="#19538d"/>
              </g>
              <g id="g179" transform="translate(17.483 11.147)">
                <path id="path181" transform="translate(0 0)" fill="#19538d"/>
              </g>
            </g>
          </g>
        </g>
      </g>
      <g id="Grupo_1180377" data-name="Grupo 1180377" transform="translate(-31.709 -36)">
        <g id="Grupo_1180381" data-name="Grupo 1180381" transform="translate(0 -7.195)">
          <path id="Trazado_1000655" data-name="Trazado 1000655" d="M293.811,68.485H181.47a4.988,4.988,0,0,1-4.989-4.989v-32.8a4.988,4.988,0,0,1,4.989-4.989H293.811a4.989,4.989,0,0,1,4.989,4.989V63.5a4.989,4.989,0,0,1-4.989,4.989" transform="translate(10991.149 -9397.874)" fill="#62249e"/>
          <path id="Trazado_1000656" data-name="Trazado 1000656" d="M183.194,38.161V59.477l24.735-21.315Z" transform="translate(11003.584 -9374.803)" fill="#62249e"/>
          <line id="Línea_3396" data-name="Línea 3396" x2="82.991" transform="translate(11186.778 -9356.352)" fill="none" stroke="#fff" stroke-linecap="round" stroke-linejoin="round" stroke-width="2"/>
          <line id="Línea_3397" data-name="Línea 3397" x2="29.265" transform="translate(11186.778 -9345.209)" fill="none" stroke="#fff" stroke-linecap="round" stroke-linejoin="round" stroke-width="2"/>
        </g>
      </g>
    </g>
  </g>
</svg>
