<svg xmlns="http://www.w3.org/2000/svg" xmlns:xlink="http://www.w3.org/1999/xlink" width="129" height="127" viewBox="0 0 129 127">
  <defs>
    <clipPath id="clip-path">
      <rect id="Rectángulo_454807" data-name="Rectángulo 454807" width="129" height="127" transform="translate(399.059 5904)" fill="#9ecfff"/>
    </clipPath>
    <clipPath id="clip-path-2">
      <path id="path3015" d="M0-682.665H71.654v71.654H0Z" transform="translate(0 682.665)" fill="#19538d"/>
    </clipPath>
  </defs>
  <g id="Grupo_1180144" data-name="Grupo 1180144" transform="translate(-399.059 -4700)">
    <g id="Grupo_1177492" data-name="Grupo 1177492" transform="translate(0 -1204)">
      <rect id="Rectángulo_454806" data-name="Rectángulo 454806" width="129" height="127" transform="translate(399.059 5904)" fill="#9ecfff"/>
      <path id="Rectángulo_454808" data-name="Rectángulo 454808" d="M0,0H79A12,12,0,0,1,91,12V91a0,0,0,0,1,0,0H12A12,12,0,0,1,0,79V0A0,0,0,0,1,0,0Z" transform="translate(418.059 5922)" fill="#fff"/>
      <g id="Grupo_1177491" data-name="Grupo 1177491" transform="translate(13.443 -2497.801)">
        <g id="Grupo_1099776" data-name="Grupo 1099776" transform="translate(412.387 8428.781)">
          <g id="Grupo_1099618" data-name="Grupo 1099618" transform="translate(0 0)">
            <rect id="Rectángulo_401104" data-name="Rectángulo 401104" width="72.17" height="73.039" transform="translate(0)" fill="none"/>
          </g>
          <g id="g3009" transform="translate(1.901 682.885)">
            <g id="g3011" transform="translate(0 -682.665)">
              <g id="g3013" transform="translate(0 0)" clip-path="url(#clip-path-2)">
                <g id="g3019" transform="translate(20.632 60.09)">
                  <path id="path3021" d="M-255.858,1.618h-26.586a1.05,1.05,0,0,1-1.05-1.05,1.05,1.05,0,0,1,1.05-1.05h26.586a1.072,1.072,0,0,0,1.071-1.071v-7.4a1.05,1.05,0,0,1,1.05-1.05,1.05,1.05,0,0,1,1.05,1.05v7.4A3.174,3.174,0,0,1-255.858,1.618Z" transform="translate(283.494 10)" fill="#19538d"/>
                </g>
                <g id="g3023" transform="translate(38.08 9.198)">
                  <path id="path3025" d="M2.309,5.03a1.05,1.05,0,0,1-1.05-1.05V-6.83A1.072,1.072,0,0,0,.188-7.9H-8.95A1.05,1.05,0,0,1-10-8.95,1.05,1.05,0,0,1-8.95-10H.188a3.174,3.174,0,0,1,3.17,3.17V3.98A1.05,1.05,0,0,1,2.309,5.03Z" transform="translate(10 10)" fill="#19538d"/>
                </g>
                <g id="g3027" transform="translate(6.018 9.198)">
                  <path id="path3029" d="M-92.143-523.037h-7.636a3.174,3.174,0,0,1-3.17-3.17v-56.169a3.174,3.174,0,0,1,3.17-3.17h9.139a1.05,1.05,0,0,1,1.05,1.05,1.05,1.05,0,0,1-1.05,1.05h-9.139a1.072,1.072,0,0,0-1.071,1.071v56.169a1.072,1.072,0,0,0,1.071,1.071h7.636a1.05,1.05,0,0,1,1.05,1.05A1.05,1.05,0,0,1-92.143-523.037Z" transform="translate(102.949 585.547)" fill="#19538d"/>
                </g>
                <g id="g3031" transform="translate(17.277 -0.053)">
                  <path id="path3033" d="M-137.5-64.8a5.258,5.258,0,0,1,5.233,5.272v.48h4.328a1.9,1.9,0,0,1,1.89,1.9v5.3a1.9,1.9,0,0,1-1.89,1.9H-147.06a1.9,1.9,0,0,1-1.89-1.9v-5.3a1.9,1.9,0,0,1,1.89-1.9h4.328v-.48A5.258,5.258,0,0,1-137.5-64.8Zm9.352,7.851h-5.168a1.05,1.05,0,0,1-1.05-1.05v-1.53A3.157,3.157,0,0,0-137.5-62.7a3.157,3.157,0,0,0-3.134,3.173V-58a1.05,1.05,0,0,1-1.05,1.05h-5.168v4.9h18.7Z" transform="translate(148.95 64.8)" fill="#19538d"/>
                </g>
                <g id="g3035" transform="translate(12.431 19.733)">
                  <path id="path3037" d="M21.544-7.9H-8.95A1.05,1.05,0,0,1-10-8.95,1.05,1.05,0,0,1-8.95-10H21.544a1.05,1.05,0,0,1,1.05,1.05A1.05,1.05,0,0,1,21.544-7.9Z" transform="translate(10 10)" fill="#19538d"/>
                </g>
                <g id="g3039" transform="translate(12.431 25.827)">
                  <path id="path3041" d="M11.585-7.9H-8.95A1.05,1.05,0,0,1-10-8.95,1.05,1.05,0,0,1-8.95-10H11.585a1.05,1.05,0,0,1,1.05,1.05A1.05,1.05,0,0,1,11.585-7.9Z" transform="translate(10 10)" fill="#19538d"/>
                </g>
                <g id="g3043" transform="translate(12.431 31.921)">
                  <path id="path3045" d="M7.464-7.9H-8.95A1.05,1.05,0,0,1-10-8.95,1.05,1.05,0,0,1-8.95-10H7.464a1.05,1.05,0,0,1,1.05,1.05A1.05,1.05,0,0,1,7.464-7.9Z" transform="translate(10 10)" fill="#19538d"/>
                </g>
                <g id="g3047" transform="translate(12.431 38.015)">
                  <path id="path3049" d="M7.464-7.9H-8.95A1.05,1.05,0,0,1-10-8.95,1.05,1.05,0,0,1-8.95-10H7.464a1.05,1.05,0,0,1,1.05,1.05A1.05,1.05,0,0,1,7.464-7.9Z" transform="translate(10 10)" fill="#19538d"/>
                </g>
                <g id="g3051" transform="translate(12.431 44.109)">
                  <path id="path3053" d="M7.464-7.9H-8.95A1.05,1.05,0,0,1-10-8.95,1.05,1.05,0,0,1-8.95-10H7.464a1.05,1.05,0,0,1,1.05,1.05A1.05,1.05,0,0,1,7.464-7.9Z" transform="translate(10 10)" fill="#19538d"/>
                </g>
                <g id="g3055" transform="translate(12.431 50.203)">
                  <path id="path3057" d="M11.585-7.9H-8.95A1.05,1.05,0,0,1-10-8.95,1.05,1.05,0,0,1-8.95-10H11.585a1.05,1.05,0,0,1,1.05,1.05A1.05,1.05,0,0,1,11.585-7.9Z" transform="translate(10 10)" fill="#19538d"/>
                </g>
                <g id="g3059" transform="translate(12.431 56.297)">
                  <path id="path3061" d="M13.759-7.9H-8.95A1.05,1.05,0,0,1-10-8.95,1.05,1.05,0,0,1-8.95-10h22.71a1.05,1.05,0,0,1,1.05,1.05A1.05,1.05,0,0,1,13.759-7.9Z" transform="translate(10 10)" fill="#19538d"/>
                </g>
                <g id="g3063" transform="translate(12.431 62.391)">
                  <path id="path3065" d="M13.759-7.9H-8.95A1.05,1.05,0,0,1-10-8.95,1.05,1.05,0,0,1-8.95-10h22.71a1.05,1.05,0,0,1,1.05,1.05A1.05,1.05,0,0,1,13.759-7.9Z" transform="translate(10 10)" fill="#19538d"/>
                </g>
                <g id="g3067" transform="translate(43.598 49.362)">
                  <path id="path3069" d="M-8.212,5.124a1.783,1.783,0,0,1-.931-.264A1.776,1.776,0,0,1-10,3.334V-8.954A1.05,1.05,0,0,1-8.95-10,1.05,1.05,0,0,1-7.9-8.954V2.826L-4.026.839a1.793,1.793,0,0,1,1.632,0L1.481,2.826V-8.954A1.05,1.05,0,0,1,2.53-10a1.05,1.05,0,0,1,1.05,1.05V3.334a1.788,1.788,0,0,1-2.6,1.591L-3.21,2.78-7.4,4.926A1.787,1.787,0,0,1-8.212,5.124Z" transform="translate(10 10.004)" fill="#19538d"/>
                </g>
                <g id="g3071" transform="translate(35.14 22.596)">
                  <path id="path3073" d="M-265.289-145.269a4.6,4.6,0,0,1,2.549,1.028,4.386,4.386,0,0,0,1.1.611,2.335,2.335,0,0,0,.589.059c.239,0,.484-.017.729-.033.289-.019.578-.037.858-.037a3.566,3.566,0,0,1,1.8.412,4.572,4.572,0,0,1,1.668,2.139,4.477,4.477,0,0,0,.666,1.108,4.478,4.478,0,0,0,1.108.666,4.573,4.573,0,0,1,2.139,1.668,4.543,4.543,0,0,1,.375,2.662,4.562,4.562,0,0,0,.027,1.318,4.385,4.385,0,0,0,.611,1.1,4.6,4.6,0,0,1,1.028,2.549,4.6,4.6,0,0,1-1.028,2.549,4.386,4.386,0,0,0-.611,1.1,4.562,4.562,0,0,0-.027,1.318,4.543,4.543,0,0,1-.376,2.662,4.572,4.572,0,0,1-2.139,1.668,4.48,4.48,0,0,0-1.108.665,4.48,4.48,0,0,0-.665,1.107,4.571,4.571,0,0,1-1.668,2.139,3.567,3.567,0,0,1-1.8.412c-.28,0-.569-.018-.858-.037-.245-.016-.49-.033-.728-.033a2.336,2.336,0,0,0-.589.06,4.387,4.387,0,0,0-1.1.611,4.6,4.6,0,0,1-2.549,1.028,4.6,4.6,0,0,1-2.549-1.028,4.387,4.387,0,0,0-1.1-.611,2.337,2.337,0,0,0-.589-.059c-.239,0-.484.017-.728.033-.289.019-.578.037-.858.037a3.567,3.567,0,0,1-1.8-.412,4.571,4.571,0,0,1-1.668-2.139,4.481,4.481,0,0,0-.666-1.108,4.48,4.48,0,0,0-1.108-.665A4.572,4.572,0,0,1-278.5-122.4a4.544,4.544,0,0,1-.375-2.662,4.564,4.564,0,0,0-.027-1.318,4.386,4.386,0,0,0-.611-1.1,4.6,4.6,0,0,1-1.028-2.549,4.6,4.6,0,0,1,1.028-2.549,4.388,4.388,0,0,0,.611-1.1,4.565,4.565,0,0,0,.027-1.318,4.543,4.543,0,0,1,.376-2.662,4.571,4.571,0,0,1,2.139-1.668,4.479,4.479,0,0,0,1.108-.665,4.48,4.48,0,0,0,.665-1.107,4.572,4.572,0,0,1,1.668-2.139,3.566,3.566,0,0,1,1.8-.412c.28,0,.569.018.858.037.245.016.49.033.729.033a2.337,2.337,0,0,0,.589-.059,4.386,4.386,0,0,0,1.1-.611A4.6,4.6,0,0,1-265.289-145.269Zm4.235,3.8a4.3,4.3,0,0,1-1.131-.131,5.856,5.856,0,0,1-1.725-.9,3.17,3.17,0,0,0-1.379-.672,3.17,3.17,0,0,0-1.379.671,5.857,5.857,0,0,1-1.725.9,4.3,4.3,0,0,1-1.131.131c-.283,0-.574-.018-.865-.037-.243-.016-.487-.032-.722-.032a1.555,1.555,0,0,0-.752.13,3.172,3.172,0,0,0-.835,1.247,6.06,6.06,0,0,1-1.065,1.667,6.059,6.059,0,0,1-1.667,1.065,3.171,3.171,0,0,0-1.247.835,3.165,3.165,0,0,0-.1,1.475,6.164,6.164,0,0,1-.094,2,5.857,5.857,0,0,1-.9,1.726,3.17,3.17,0,0,0-.671,1.379,3.17,3.17,0,0,0,.671,1.379,5.856,5.856,0,0,1,.9,1.725,6.164,6.164,0,0,1,.094,2,3.167,3.167,0,0,0,.1,1.475,3.173,3.173,0,0,0,1.247.835,6.06,6.06,0,0,1,1.667,1.065,6.061,6.061,0,0,1,1.066,1.667,3.172,3.172,0,0,0,.835,1.247,1.556,1.556,0,0,0,.753.13c.236,0,.479-.017.722-.032.29-.019.581-.037.864-.037a4.3,4.3,0,0,1,1.131.131,5.857,5.857,0,0,1,1.725.9,3.17,3.17,0,0,0,1.379.671,3.17,3.17,0,0,0,1.379-.672,5.857,5.857,0,0,1,1.725-.9,4.3,4.3,0,0,1,1.132-.131c.283,0,.574.018.864.037.243.016.486.032.722.032a1.556,1.556,0,0,0,.753-.13,3.172,3.172,0,0,0,.835-1.247,6.059,6.059,0,0,1,1.065-1.667,6.06,6.06,0,0,1,1.667-1.065,3.173,3.173,0,0,0,1.247-.835,3.165,3.165,0,0,0,.1-1.475,6.162,6.162,0,0,1,.094-2,5.856,5.856,0,0,1,.9-1.726,3.169,3.169,0,0,0,.671-1.379,3.17,3.17,0,0,0-.671-1.379,5.855,5.855,0,0,1-.9-1.726,6.162,6.162,0,0,1-.094-2,3.166,3.166,0,0,0-.1-1.475,3.173,3.173,0,0,0-1.247-.835,6.059,6.059,0,0,1-1.667-1.066,6.058,6.058,0,0,1-1.065-1.667,3.173,3.173,0,0,0-.835-1.247,1.556,1.556,0,0,0-.752-.13c-.236,0-.479.017-.722.032C-260.479-141.489-260.77-141.471-261.054-141.471Z" transform="translate(280.537 145.269)" fill="#19538d"/>
                </g>
                <g id="g3075" transform="translate(41.329 28.785)">
                  <path id="path3077" d="M-36.119-3.9a9.069,9.069,0,0,1-9.058-9.058,9.019,9.019,0,0,1,.62-3.3,1.05,1.05,0,0,1,1.36-.6,1.05,1.05,0,0,1,.6,1.36,6.928,6.928,0,0,0-.475,2.534A6.967,6.967,0,0,0-36.119-6a6.967,6.967,0,0,0,6.959-6.959,6.967,6.967,0,0,0-6.959-6.959,6.933,6.933,0,0,0-3.75,1.1,1.05,1.05,0,0,1-1.45-.317A1.05,1.05,0,0,1-41-20.593a9.029,9.029,0,0,1,4.883-1.428,9.069,9.069,0,0,1,9.058,9.058A9.069,9.069,0,0,1-36.119-3.9Z" transform="translate(45.177 22.021)" fill="#19538d"/>
                </g>
              </g>
            </g>
          </g>
        </g>
      </g>
    </g>
    <path id="Trazado_998457" data-name="Trazado 998457" d="M21.193,13.724H3.483l2.43-5.5h17.71Z" transform="translate(406.088 4714.021)" fill="#fff"/>
    <path id="Trazado_998459" data-name="Trazado 998459" d="M21.193,13.724H3.483l2.43-5.5h17.71Z" transform="translate(497.088 4790.021)" fill="#fff"/>
    <path id="Trazado_998458" data-name="Trazado 998458" d="M21.193,13.724H3.483l2.43-5.5h17.71Z" transform="translate(401.088 4719.524)" fill="#9ecfff"/>
    <path id="Trazado_998461" data-name="Trazado 998461" d="M18.607,11.366H3.483L4.872,8.221H20Z" transform="translate(494.518 4795.524)" fill="#9ecfff"/>
    <path id="Trazado_998462" data-name="Trazado 998462" d="M18.607,11.366H3.483L4.872,8.221H20Z" transform="translate(497.088 4734.779)" fill="#9ecfff"/>
    <path id="Trazado_998463" data-name="Trazado 998463" d="M18.607,11.366H3.483L4.872,8.221H20Z" transform="translate(402.902 4780.779)" fill="#9ecfff"/>
  </g>
</svg>
