<svg xmlns="http://www.w3.org/2000/svg" xmlns:xlink="http://www.w3.org/1999/xlink" width="129" height="127" viewBox="0 0 129 127">
  <defs>
    <clipPath id="clip-path">
      <rect id="Rectángulo_454807" data-name="Rectángulo 454807" width="129" height="127" transform="translate(399.059 5904)" fill="#9ecfff"/>
    </clipPath>
  </defs>
  <g id="Grupo_1180142" data-name="Grupo 1180142" transform="translate(-399.059 -4700)">
    <g id="Grupo_1177492" data-name="Grupo 1177492" transform="translate(0 -1204)">
      <rect id="Rectángulo_454806" data-name="Rectángulo 454806" width="129" height="127" transform="translate(399.059 5904)" fill="#9ecfff"/>
      <path id="Rectángulo_454808" data-name="Rectángulo 454808" d="M0,0H79A12,12,0,0,1,91,12V91a0,0,0,0,1,0,0H12A12,12,0,0,1,0,79V0A0,0,0,0,1,0,0Z" transform="translate(418.059 5922)" fill="#fff"/>
      <g id="proceso" transform="translate(428.711 5936.043)">
        <path id="_x31_1" d="M15.018,45.251a1.047,1.047,0,1,1-2.094,0V33.871a7.3,7.3,0,0,1,7.282-7.282H31.453A1.038,1.038,0,0,1,32.5,27.621a1.051,1.051,0,0,1-1.047,1.047H20.207a5.183,5.183,0,0,0-5.189,5.2Zm5.675,7.65a1.038,1.038,0,0,1-1.032-1.046,1.025,1.025,0,0,1,1.032-1.032H30.776a1.026,1.026,0,0,1,1.032,1.032A1.038,1.038,0,0,1,30.776,52.9Zm26.946,0a1.051,1.051,0,0,1-1.046-1.046,1.038,1.038,0,0,1,1.046-1.032h13.1a5.36,5.36,0,0,1,3.729,1.519,5.146,5.146,0,0,1,1.563,3.671v2.049A1.038,1.038,0,0,1,65,59.107a1.051,1.051,0,0,1-1.047-1.046V56.012a3.094,3.094,0,0,0-.943-2.182,3.26,3.26,0,0,0-2.27-.929H47.639ZM58.267,64.473A1.039,1.039,0,0,1,59.314,65.5a1.051,1.051,0,0,1-1.047,1.047H55.024A1.038,1.038,0,0,1,53.993,65.5a1.025,1.025,0,0,1,1.032-1.032Zm-7.871,0A1.039,1.039,0,0,1,51.443,65.5,1.051,1.051,0,0,1,50.4,66.551H35.36A1.038,1.038,0,0,1,34.329,65.5a1.025,1.025,0,0,1,1.032-1.032ZM48.037,28.667A1.051,1.051,0,0,1,46.99,27.62a1.037,1.037,0,0,1,1.046-1.031h10.23a1.038,1.038,0,0,1,1.047,1.031,1.051,1.051,0,0,1-1.047,1.047Zm18-9.11A1.026,1.026,0,0,1,65,20.589a1.039,1.039,0,0,1-1.047-1.032v-1.43a3.11,3.11,0,0,0-.914-2.2,3.048,3.048,0,0,0-2.2-.914H28.889a1.047,1.047,0,0,1,0-2.093H60.847a5.209,5.209,0,0,1,5.189,5.2ZM23.965,12.924a1.047,1.047,0,1,1,0,2.093H20.693a1.047,1.047,0,0,1,0-2.093Z" transform="translate(-6.203 -6.203)" fill="#19538d"/>
        <path id="_x31_0" d="M8.423,13.481a1.037,1.037,0,0,1,1.106-1.755l1.533.988,2.226-3.685A1.042,1.042,0,0,1,15.071,10.1l-2.8,4.614a1.038,1.038,0,0,1-1.43.309Z" transform="translate(-3.809 -4.091)" fill="#19538d"/>
        <path id="_x39_" d="M106.534,38.511a1.041,1.041,0,0,1,1.12-1.754l1.533.987,2.226-3.685a1.041,1.041,0,1,1,1.783,1.076l-2.8,4.614a1.028,1.028,0,0,1-1.43.31Z" transform="translate(-50.902 -16.105)" fill="#19538d"/>
        <path id="_x38_" d="M8.423,86.553A1.031,1.031,0,0,1,8.1,85.124a1.042,1.042,0,0,1,1.43-.31l1.533.973L13.287,82.1a1.042,1.042,0,0,1,1.784,1.076l-2.8,4.614a1.041,1.041,0,0,1-1.43.324Z" transform="translate(-3.809 -39.162)" fill="#19538d"/>
        <path id="_x37_" d="M101.237,98.126h9.3a3.132,3.132,0,0,1,3.125,3.11v9.3a3.146,3.146,0,0,1-3.125,3.126h-9.3a3.132,3.132,0,0,1-3.11-3.126v-9.3A3.119,3.119,0,0,1,101.237,98.126Zm9.3,2.078h-9.3a1.025,1.025,0,0,0-1.031,1.032v9.3a1.038,1.038,0,0,0,1.031,1.047h9.3a1.051,1.051,0,0,0,1.047-1.047v-9.3A1.038,1.038,0,0,0,110.538,100.2Z" transform="translate(-47.094 -47.093)" fill="#19538d"/>
        <path id="_x36_" d="M106.534,111.586a1.034,1.034,0,0,1,1.12-1.74l1.533.973,2.226-3.671a1.022,1.022,0,0,1,1.43-.354,1.033,1.033,0,0,1,.354,1.416l-2.8,4.614a1.031,1.031,0,0,1-1.43.325Z" transform="translate(-50.902 -51.178)" fill="#19538d"/>
        <path id="_x35_" d="M60.09,104.313a1.033,1.033,0,1,1,1.223,1.666l-4.467,3.287,4.467,3.3a1.033,1.033,0,1,1-1.223,1.666L54.5,110.122a1.135,1.135,0,0,1-.222-.236,1.021,1.021,0,0,1,.206-1.445Z" transform="translate(-25.95 -49.964)" fill="#19538d"/>
        <path id="_x34_" d="M55.231,40.789a11.259,11.259,0,0,1,1.961.885,10.591,10.591,0,0,1,1.755,1.268L61.7,41.924a1.053,1.053,0,0,1,1.253.457s1.768,3.066,1.931,3.346a1.017,1.017,0,0,1-.236,1.3l-2.255,1.9c.059.236.088.472.133.722a11.37,11.37,0,0,1,0,2.83c-.044.236-.074.487-.133.723l2.255,1.886a1.048,1.048,0,0,1,.191,1.386c-.633,1.091-1.252,2.167-1.886,3.257a1.052,1.052,0,0,1-1.283.457l-2.726-1a11.577,11.577,0,0,1-1.755,1.268,11.2,11.2,0,0,1-1.961.884l-.5,2.89a1.043,1.043,0,0,1-1.031.854H49.85a1.06,1.06,0,0,1-1.032-.9l-.5-2.846a11.637,11.637,0,0,1-1.946-.884,10.86,10.86,0,0,1-1.754-1.268l-2.771,1a1.015,1.015,0,0,1-1.268-.5c-.634-1.091-1.268-2.181-1.9-3.287a1.04,1.04,0,0,1,.236-1.312L41.154,53.2c-.044-.236-.088-.487-.118-.723a11.37,11.37,0,0,1,0-2.83c.03-.251.074-.486.118-.722L38.913,47.04a1.049,1.049,0,0,1-.191-1.386c.619-1.091,1.253-2.182,1.887-3.272a1.04,1.04,0,0,1,1.283-.443l2.727,1a10.035,10.035,0,0,1,1.754-1.268,11.128,11.128,0,0,1,1.946-.885l.516-2.889a1.041,1.041,0,0,1,1.017-.856H53.7a1.024,1.024,0,0,1,1.031.9Zm.928,2.683a8.721,8.721,0,0,0-2.063-.855,1.04,1.04,0,0,1-.8-.84l-.472-2.653H50.735l-.471,2.653a1.051,1.051,0,0,1-.752.825,9.185,9.185,0,0,0-2.108.87,9.087,9.087,0,0,0-1.8,1.371,1.047,1.047,0,0,1-1.105.265l-2.536-.929L40.9,45.992l2.078,1.739a1.055,1.055,0,0,1,.339,1.061,7.561,7.561,0,0,0-.221,1.12,7.2,7.2,0,0,0-.074,1.15A6.966,6.966,0,0,0,43.1,52.2a9.6,9.6,0,0,0,.206,1.091,1.029,1.029,0,0,1-.324,1.091l-2.064,1.74c.339.6.693,1.224,1.046,1.828l2.536-.928a1.068,1.068,0,0,1,1.091.236,8.773,8.773,0,0,0,1.813,1.4,8.253,8.253,0,0,0,2.064.854,1.04,1.04,0,0,1,.8.84L50.734,63h2.094L53.3,60.35a1.051,1.051,0,0,1,.752-.826,9.2,9.2,0,0,0,2.107-.869,8.966,8.966,0,0,0,1.784-1.371,1.027,1.027,0,0,1,1.106-.265l2.549.928c.354-.6.693-1.209,1.047-1.828l-2.064-1.74a1.031,1.031,0,0,1-.339-1.046,7.742,7.742,0,0,0,.221-1.135,9.193,9.193,0,0,0,.074-1.135,9,9,0,0,0-.28-2.226,1.035,1.035,0,0,1,.324-1.106l2.064-1.739c-.339-.6-.693-1.209-1.047-1.813l-2.549.929a1.027,1.027,0,0,1-1.076-.251,9.313,9.313,0,0,0-1.815-1.384Zm-4.378,1.385a6.19,6.19,0,1,1-4.393,1.813A6.231,6.231,0,0,1,51.781,44.858ZM54.7,48.145a4.128,4.128,0,1,0,1.209,2.919A4.109,4.109,0,0,0,54.7,48.145Z" transform="translate(-18.497 -17.779)" fill="#19538d"/>
        <path id="_x33_" d="M3.125,73.1h9.286a3.134,3.134,0,0,1,3.126,3.111v9.3a3.134,3.134,0,0,1-3.126,3.11H3.125A3.133,3.133,0,0,1,0,85.51v-9.3A3.133,3.133,0,0,1,3.125,73.1Zm9.286,2.079H3.125a1.038,1.038,0,0,0-1.046,1.032v9.3a1.038,1.038,0,0,0,1.046,1.032h9.286a1.039,1.039,0,0,0,1.047-1.032v-9.3A1.038,1.038,0,0,0,12.412,75.177Z" transform="translate(0 -35.082)" fill="#19538d"/>
        <path id="_x32_" d="M101.237,25.027h9.3a3.146,3.146,0,0,1,3.125,3.125v9.3a3.133,3.133,0,0,1-3.125,3.11h-9.3a3.12,3.12,0,0,1-3.11-3.11v-9.3a3.132,3.132,0,0,1,3.11-3.125Zm9.3,2.078h-9.3a1.038,1.038,0,0,0-1.031,1.046v9.3a1.025,1.025,0,0,0,1.031,1.032h9.3a1.039,1.039,0,0,0,1.047-1.032v-9.3A1.051,1.051,0,0,0,110.538,27.105Z" transform="translate(-47.094 -12.011)" fill="#19538d"/>
        <path id="_x31_" d="M3.125,0h9.286a3.146,3.146,0,0,1,3.126,3.125v9.287a3.146,3.146,0,0,1-3.126,3.125H3.125A3.146,3.146,0,0,1,0,12.412V3.125A3.146,3.146,0,0,1,3.125,0Zm9.286,2.078H3.125A1.051,1.051,0,0,0,2.079,3.125v9.287a1.05,1.05,0,0,0,1.046,1.046h9.286a1.051,1.051,0,0,0,1.047-1.046V3.125a1.051,1.051,0,0,0-1.047-1.046Z" fill="#19538d"/>
      </g>
    </g>
    <path id="Trazado_998457" data-name="Trazado 998457" d="M21.193,13.724H3.483l2.43-5.5h17.71Z" transform="translate(406.088 4714.021)" fill="#fff"/>
    <path id="Trazado_998459" data-name="Trazado 998459" d="M21.193,13.724H3.483l2.43-5.5h17.71Z" transform="translate(497.088 4790.021)" fill="#fff"/>
    <path id="Trazado_998458" data-name="Trazado 998458" d="M21.193,13.724H3.483l2.43-5.5h17.71Z" transform="translate(401.088 4719.524)" fill="#9ecfff"/>
    <path id="Trazado_998461" data-name="Trazado 998461" d="M18.607,11.366H3.483L4.872,8.221H20Z" transform="translate(494.518 4795.524)" fill="#9ecfff"/>
    <path id="Trazado_998462" data-name="Trazado 998462" d="M18.607,11.366H3.483L4.872,8.221H20Z" transform="translate(497.088 4734.779)" fill="#9ecfff"/>
    <path id="Trazado_998463" data-name="Trazado 998463" d="M18.607,11.366H3.483L4.872,8.221H20Z" transform="translate(402.902 4780.779)" fill="#9ecfff"/>
  </g>
</svg>
