<svg xmlns="http://www.w3.org/2000/svg" xmlns:xlink="http://www.w3.org/1999/xlink" width="129" height="127" viewBox="0 0 129 127">
  <defs>
    <clipPath id="clip-path">
      <rect id="Rectángulo_454807" data-name="Rectángulo 454807" width="129" height="127" transform="translate(399.059 5904)" fill="#9ecfff"/>
    </clipPath>
  </defs>
  <g id="Grupo_1180143" data-name="Grupo 1180143" transform="translate(-399.059 -4700)">
    <g id="Grupo_1177492" data-name="Grupo 1177492" transform="translate(0 -1204)">
      <rect id="Rectángulo_454806" data-name="Rectángulo 454806" width="129" height="127" transform="translate(399.059 5904)" fill="#9ecfff"/>
      <path id="Rectángulo_454808" data-name="Rectángulo 454808" d="M0,0H79A12,12,0,0,1,91,12V91a0,0,0,0,1,0,0H12A12,12,0,0,1,0,79V0A0,0,0,0,1,0,0Z" transform="translate(418.059 5922)" fill="#fff"/>
      <g id="Grupo_1177491" data-name="Grupo 1177491" transform="translate(13.443 -2497.801)">
        <g id="Grupo_1099776" data-name="Grupo 1099776" transform="translate(412.387 8428.781)">
          <g id="Grupo_1099618" data-name="Grupo 1099618" transform="translate(0 0)">
            <rect id="Rectángulo_401104" data-name="Rectángulo 401104" width="72.17" height="73.039" transform="translate(0)" fill="none"/>
          </g>
          <g id="gestion-de-contenido" transform="translate(-45.408 -11.263)">
            <path id="Trazado_1000267" data-name="Trazado 1000267" d="M111.024,27.229a1.123,1.123,0,0,0,1.123-1.123V21.615A5.621,5.621,0,0,0,106.532,16H61.615A5.621,5.621,0,0,0,56,21.615V82.253a1.123,1.123,0,0,0,1.123,1.123H102.04a1.123,1.123,0,0,0,1.123-1.123v-17.5l7.464-7.464a5.19,5.19,0,0,0,0-7.339l-3.232-3.232a5.156,5.156,0,0,0-3.67-1.52,5.282,5.282,0,0,0-.561.031v-18Zm-4.492-8.983a3.373,3.373,0,0,1,3.369,3.369v3.369h-6.738V21.615A3.373,3.373,0,0,1,106.532,18.246ZM82.081,72.865l2.4,2.4-3.3.9Zm4.892,1.716-4.212-4.212.645-2.363a7.875,7.875,0,0,1,1.287-2.635l7.279,7.279a7.872,7.872,0,0,1-2.635,1.287ZM97.548,52.4l1.219,1.219L87.442,64.944l-1.219-1.219ZM89.03,66.532l11.325-11.325,1.781,1.781L90.811,68.312ZM99.137,50.811l.658-.658,7.4,7.4-.658.658ZM93.618,71.12,92.4,69.9l11.325-11.325,1.219,1.219ZM105.806,48.3l3.232,3.232a2.943,2.943,0,0,1,0,4.163l-.261.261-7.4-7.4.261-.261A2.943,2.943,0,0,1,105.806,48.3Zm-5.751-1.588L83.843,62.928a10.125,10.125,0,0,0-2.6,4.487l-2.515,9.222H66.106a1.123,1.123,0,1,1,0-2.246h2.246a1.123,1.123,0,0,0,1.123-1.123V67.655h3.369a1.123,1.123,0,0,0,1.123-1.123V57.548a1.123,1.123,0,0,0-1.123-1.123H69.475V51.934h3.369a1.123,1.123,0,0,0,1.123-1.123V47.442h4.492v3.369a1.123,1.123,0,0,0,1.123,1.123h8.983a1.123,1.123,0,0,0,1.123-1.123V41.827A1.123,1.123,0,0,0,88.565,40.7H79.582a1.123,1.123,0,0,0-1.123,1.123V45.2H73.967V41.827A1.123,1.123,0,0,0,72.844,40.7H69.475V36.213h3.369a1.123,1.123,0,0,0,1.123-1.123V26.106a1.123,1.123,0,0,0-1.123-1.123H63.861a1.123,1.123,0,0,0-1.123,1.123V35.09a1.123,1.123,0,0,0,1.123,1.123h3.369V40.7H63.861a1.123,1.123,0,0,0-1.123,1.123v8.983a1.123,1.123,0,0,0,1.123,1.123h3.369v4.492H63.861a1.123,1.123,0,0,0-1.123,1.123v8.983a1.123,1.123,0,0,0,1.123,1.123h3.369v4.492H66.106a3.369,3.369,0,0,0,0,6.738H79.582a1.118,1.118,0,0,0,.295-.04L89.927,76.1a10.126,10.126,0,0,0,4.487-2.6l6.5-6.5V81.13H58.246V21.615a3.373,3.373,0,0,1,3.369-3.369h40.428a5.586,5.586,0,0,0-1.126,3.369V46.021A5.241,5.241,0,0,0,100.055,46.716ZM71.721,58.671v6.738H64.983V58.671Zm0-15.721v6.738H64.983V42.95ZM80.7,49.688V42.95h6.738v6.738ZM64.983,33.967V27.229h6.738v6.738Z" fill="#19538d"/>
            <path id="Trazado_1000268" data-name="Trazado 1000268" d="M233.123,82.246h4.492a1.123,1.123,0,0,0,0-2.246h-4.492a1.123,1.123,0,0,0,0,2.246Z" transform="translate(-151.296 -55.017)" fill="#19538d"/>
            <path id="Trazado_1000269" data-name="Trazado 1000269" d="M232.844,112H217.123a1.123,1.123,0,0,0,0,2.246h15.721a1.123,1.123,0,0,0,0-2.246Z" transform="translate(-137.541 -82.525)" fill="#19538d"/>
            <path id="Trazado_1000270" data-name="Trazado 1000270" d="M232.844,144H217.123a1.123,1.123,0,0,0,0,2.246h15.721a1.123,1.123,0,0,0,0-2.246Z" transform="translate(-137.541 -110.033)" fill="#19538d"/>
            <path id="Trazado_1000271" data-name="Trazado 1000271" d="M301.615,80h-4.492a1.123,1.123,0,1,0,0,2.246h4.492a1.123,1.123,0,0,0,0-2.246Z" transform="translate(-206.312 -55.017)" fill="#19538d"/>
          </g>
        </g>
      </g>
    </g>
    <path id="Trazado_998457" data-name="Trazado 998457" d="M21.193,13.724H3.483l2.43-5.5h17.71Z" transform="translate(406.088 4714.021)" fill="#fff"/>
    <path id="Trazado_998459" data-name="Trazado 998459" d="M21.193,13.724H3.483l2.43-5.5h17.71Z" transform="translate(497.088 4790.021)" fill="#fff"/>
    <path id="Trazado_998458" data-name="Trazado 998458" d="M21.193,13.724H3.483l2.43-5.5h17.71Z" transform="translate(401.088 4719.524)" fill="#9ecfff"/>
    <path id="Trazado_998461" data-name="Trazado 998461" d="M18.607,11.366H3.483L4.872,8.221H20Z" transform="translate(494.518 4795.524)" fill="#9ecfff"/>
    <path id="Trazado_998462" data-name="Trazado 998462" d="M18.607,11.366H3.483L4.872,8.221H20Z" transform="translate(497.088 4734.779)" fill="#9ecfff"/>
    <path id="Trazado_998463" data-name="Trazado 998463" d="M18.607,11.366H3.483L4.872,8.221H20Z" transform="translate(402.902 4780.779)" fill="#9ecfff"/>
  </g>
</svg>
