<svg xmlns="http://www.w3.org/2000/svg" xmlns:xlink="http://www.w3.org/1999/xlink" width="129" height="127" viewBox="0 0 129 127">
  <defs>
    <clipPath id="clip-path">
      <rect id="Rectángulo_454807" data-name="Rectángulo 454807" width="129" height="127" transform="translate(399.059 5904)" fill="#9ecfff"/>
    </clipPath>
  </defs>
  <g id="Grupo_1180146" data-name="Grupo 1180146" transform="translate(-399.059 -4700)">
    <g id="Grupo_1177492" data-name="Grupo 1177492" transform="translate(0 -1204)">
      <rect id="Rectángulo_454806" data-name="Rectángulo 454806" width="129" height="127" transform="translate(399.059 5904)" fill="#9ecfff"/>
      <path id="Rectángulo_454808" data-name="Rectángulo 454808" d="M0,0H79A12,12,0,0,1,91,12V91a0,0,0,0,1,0,0H12A12,12,0,0,1,0,79V0A0,0,0,0,1,0,0Z" transform="translate(418.059 5922)" fill="#fff"/>
      <g id="Grupo_1177491" data-name="Grupo 1177491" transform="translate(13.443 -2497.801)">
        <g id="Grupo_1099776" data-name="Grupo 1099776" transform="translate(412.387 8428.781)">
          <g id="Grupo_1099618" data-name="Grupo 1099618" transform="translate(0 0)">
            <rect id="Rectángulo_401104" data-name="Rectángulo 401104" width="72.17" height="73.039" transform="translate(0)" fill="none"/>
          </g>
          <path id="inventario-ciclico" d="M74.553,48.332v2.6a1.017,1.017,0,0,1-1.017,1.017H61.069a1.016,1.016,0,0,1-1.016-1.017v-2.6h-5.88a2.027,2.027,0,0,0-2.024,2.024V84.4a2.027,2.027,0,0,0,2.024,2.025h26.26A2.027,2.027,0,0,0,82.457,84.4V50.356a2.027,2.027,0,0,0-2.024-2.024ZM62.086,49.917V46.265H64.05a1.018,1.018,0,0,0,1.016-1.042,2.237,2.237,0,1,1,4.472,0,1.019,1.019,0,0,0,1.016,1.042h1.965v3.653Zm12.466-4.67V46.3h5.88a4.063,4.063,0,0,1,4.057,4.058V84.4a4.063,4.063,0,0,1-4.057,4.059H54.172A4.062,4.062,0,0,1,50.115,84.4V50.356A4.062,4.062,0,0,1,54.172,46.3h5.88V45.248a1.015,1.015,0,0,1,1.016-1.016h2.067a4.27,4.27,0,0,1,8.334,0h2.066A1.016,1.016,0,0,1,74.553,45.248ZM77.48,79.624a1.017,1.017,0,0,1,0,2.034H66.248a1.017,1.017,0,1,1,0-2.034Zm0-10.993a1.017,1.017,0,0,1,0,2.034H66.248a1.017,1.017,0,1,1,0-2.034ZM65.231,58.655a1.017,1.017,0,0,1,1.017-1.016H77.48a1.017,1.017,0,0,1,0,2.034H66.248A1.016,1.016,0,0,1,65.231,58.655ZM60.465,77.507A1.017,1.017,0,0,1,61.9,78.945l-2.415,2.416a1.02,1.02,0,0,1-1.438,0L56.6,79.912a1.017,1.017,0,1,1,1.437-1.438l.731.73Zm0-10.993A1.017,1.017,0,0,1,61.9,67.952l-2.415,2.415a1.015,1.015,0,0,1-1.438,0L56.6,68.918a1.017,1.017,0,1,1,1.437-1.438l.731.731Zm0-10.994A1.017,1.017,0,1,1,61.9,56.959l-2.415,2.416a1.019,1.019,0,0,1-1.438,0L56.6,57.926a1.017,1.017,0,1,1,1.437-1.439l.731.731ZM88.381,92.893l-.019.235-2.255,6.742a1.017,1.017,0,0,1-1.929-.648l1.229-3.658A33.56,33.56,0,0,1,40.883,46.614a1.017,1.017,0,1,1,1.6,1.256,31.525,31.525,0,0,0,42.2,45.736l-4.375-.564a1.016,1.016,0,0,1,.259-2.016l6.926.891a1.009,1.009,0,0,1,.886.976ZM93.72,88a1.017,1.017,0,1,1-1.6-1.257,31.525,31.525,0,0,0-42.2-45.734l4.377.563a1.017,1.017,0,1,1-.261,2.017l-6.917-.89a1.058,1.058,0,0,1-.676-.378s0,0,0,0l-.061-.09a1.075,1.075,0,0,1-.154-.508,1.089,1.089,0,0,1,.051-.355l2.222-6.62a1.017,1.017,0,1,1,1.928.647L49.2,39.047A33.56,33.56,0,0,1,93.72,88Z" transform="translate(-31.877 -29.089)" fill="#19538d" fill-rule="evenodd"/>
        </g>
      </g>
    </g>
    <path id="Trazado_998457" data-name="Trazado 998457" d="M21.193,13.724H3.483l2.43-5.5h17.71Z" transform="translate(406.088 4714.021)" fill="#fff"/>
    <path id="Trazado_998459" data-name="Trazado 998459" d="M21.193,13.724H3.483l2.43-5.5h17.71Z" transform="translate(497.088 4790.021)" fill="#fff"/>
    <path id="Trazado_998458" data-name="Trazado 998458" d="M21.193,13.724H3.483l2.43-5.5h17.71Z" transform="translate(401.088 4719.524)" fill="#9ecfff"/>
    <path id="Trazado_998461" data-name="Trazado 998461" d="M18.607,11.366H3.483L4.872,8.221H20Z" transform="translate(494.518 4795.524)" fill="#9ecfff"/>
    <path id="Trazado_998462" data-name="Trazado 998462" d="M18.607,11.366H3.483L4.872,8.221H20Z" transform="translate(497.088 4734.779)" fill="#9ecfff"/>
    <path id="Trazado_998463" data-name="Trazado 998463" d="M18.607,11.366H3.483L4.872,8.221H20Z" transform="translate(402.902 4780.779)" fill="#9ecfff"/>
  </g>
</svg>
