<svg xmlns="http://www.w3.org/2000/svg" xmlns:xlink="http://www.w3.org/1999/xlink" width="68.179" height="69.001" viewBox="0 0 68.179 69.001">
  <defs>
    <clipPath id="clip-path">
      <path id="path4599" d="M0-682.665H65.627v65.627H0Z" transform="translate(0 682.665)"/>
    </clipPath>
  </defs>
  <g id="Grupo_1177669" data-name="Grupo 1177669" transform="translate(0.033 0.191)">
    <g id="Grupo_1099618" data-name="Grupo 1099618" transform="translate(-0.033 -0.191)">
      <rect id="Rectángulo_401104" data-name="Rectángulo 401104" width="68.179" height="69.001" transform="translate(0)" fill="none"/>
    </g>
    <g id="g4593" transform="translate(0.967 684.474)">
      <g id="g4595" transform="translate(0 -682.665)">
        <g id="g4597" clip-path="url(#clip-path)">
          <g id="g4603" transform="translate(17.769 57.708)">
            <path id="path4605" d="M-262.07-64.462h-25.658a2.217,2.217,0,0,1-2.215-2.215,5.711,5.711,0,0,1,5.7-5.7h18.679a5.711,5.711,0,0,1,5.7,5.7A2.218,2.218,0,0,1-262.07-64.462Zm-22.169-6a3.786,3.786,0,0,0-3.782,3.782.293.293,0,0,0,.292.292h25.658a.293.293,0,0,0,.292-.292,3.786,3.786,0,0,0-3.782-3.782Z" transform="translate(289.943 72.381)"/>
          </g>
          <g id="g4607" transform="translate(3.107 44.121)">
            <path id="path4609" d="M-549.571-8.077h-57.49a.961.961,0,0,1-.961-.961.961.961,0,0,1,.961-.961h57.49a.961.961,0,0,1,.961.961A.961.961,0,0,1-549.571-8.077Z" transform="translate(608.022 10)"/>
          </g>
          <g id="g4611" transform="translate(18.629 6.115)">
            <path id="path4613" d="M-78.078-8.077h-7.343a.961.961,0,0,1-.961-.961A.961.961,0,0,1-85.421-10h7.343a.961.961,0,0,1,.961.961A.961.961,0,0,1-78.078-8.077Z" transform="translate(86.382 10)"/>
          </g>
          <g id="g4615" transform="translate(31.12 6.115)">
            <path id="path4617" d="M-286.192-68.531a.961.961,0,0,1-.961-.961V-72.3a2.664,2.664,0,0,0-2.661-2.661H-315.67a.961.961,0,0,1-.961-.961.961.961,0,0,1,.961-.961h25.855a4.589,4.589,0,0,1,4.584,4.584v2.808A.961.961,0,0,1-286.192-68.531Z" transform="translate(316.631 76.884)"/>
          </g>
          <g id="g4619" transform="translate(3.107 6.115)">
            <path id="path4621" d="M-94.073,36.777h-50.246a4.589,4.589,0,0,1-4.584-4.584V-5.416A4.589,4.589,0,0,1-144.319-10h9.731a.961.961,0,0,1,.961.961.961.961,0,0,1-.961.961h-9.731a2.664,2.664,0,0,0-2.661,2.661v37.61a2.664,2.664,0,0,0,2.661,2.661h50.246a2.664,2.664,0,0,0,2.661-2.661V1.97a.961.961,0,0,1,.961-.961.961.961,0,0,1,.961.961V32.194A4.589,4.589,0,0,1-94.073,36.777Z" transform="translate(148.902 10)"/>
          </g>
          <g id="g4623" transform="translate(42.336 25.866)">
            <path id="path4625" d="M-4.422-54.55A4.573,4.573,0,0,1-7.677-55.9L-9.718-57.94a.961.961,0,0,1,0-1.36.961.961,0,0,1,1.36,0l2.042,2.042a2.683,2.683,0,0,0,3.791,0,2.663,2.663,0,0,0,.785-1.9,2.663,2.663,0,0,0-.785-1.9l-2.165-2.165a.961.961,0,0,1,0-1.36.961.961,0,0,1,1.36,0l2.165,2.165A4.573,4.573,0,0,1,.181-59.153,4.573,4.573,0,0,1-1.167-55.9,4.573,4.573,0,0,1-4.422-54.55Z" transform="translate(10 64.854)"/>
          </g>
          <g id="g4627" transform="translate(16.349 0.002)">
            <path id="path4629" d="M-199.189-139.1a7.157,7.157,0,0,0-4.1-1.909l-.161-.015a8.382,8.382,0,0,1-5.464-2.446,8.514,8.514,0,0,1-2.289-7.785,1.791,1.791,0,0,1,1.248-1.332,1.8,1.8,0,0,1,1.779.455l3.6,3.6a1.751,1.751,0,0,0,2.474,0,1.738,1.738,0,0,0,.512-1.237,1.738,1.738,0,0,0-.512-1.237l-3.6-3.6a1.8,1.8,0,0,1-.455-1.779,1.791,1.791,0,0,1,1.332-1.248,8.513,8.513,0,0,1,7.785,2.289,8.382,8.382,0,0,1,2.446,5.465l.015.162a7.16,7.16,0,0,0,2.056,4.254l2.13,2.13a.961.961,0,0,1,0,1.36.961.961,0,0,1-1.36,0l-2.13-2.13a9.089,9.089,0,0,1-2.607-5.4c-.012-.105-.019-.194-.023-.265a6.462,6.462,0,0,0-1.886-4.213,6.582,6.582,0,0,0-5.78-1.818l3.436,3.436a3.648,3.648,0,0,1,1.076,2.6,3.648,3.648,0,0,1-1.076,2.6,3.676,3.676,0,0,1-5.193,0l-3.437-3.436a6.582,6.582,0,0,0,1.818,5.78,6.462,6.462,0,0,0,4.213,1.886c.071,0,.161.012.266.023a9.1,9.1,0,0,1,5.23,2.439l-.659.7Z" transform="translate(211.401 157.827)"/>
          </g>
          <g id="g4631" transform="translate(20.838 26.804)">
            <path id="path4633" d="M-12.994-15.907a2.881,2.881,0,0,1,2.051.849L-1.3-5.41A2.881,2.881,0,0,1-.446-3.36,2.881,2.881,0,0,1-1.3-1.309,2.881,2.881,0,0,1-3.347-.46,2.881,2.881,0,0,1-5.4-1.309l-9.647-9.647a2.9,2.9,0,0,1,0-4.1A2.881,2.881,0,0,1-12.994-15.907ZM-3.347-2.382a.971.971,0,0,0,.691-.286.971.971,0,0,0,.286-.691.971.971,0,0,0-.286-.691L-12.3-13.7a.971.971,0,0,0-.691-.286.971.971,0,0,0-.691.286.979.979,0,0,0,0,1.383l9.647,9.647A.971.971,0,0,0-3.347-2.382Z" transform="translate(15.892 15.907)"/>
          </g>
          <g id="g4635" transform="translate(24.568 12.532)">
            <path id="path4637" d="M-94.267-236.8a.958.958,0,0,1-.68-.282.961.961,0,0,1,0-1.36l2.248-2.248a4.6,4.6,0,0,1,1.441-.977l2.986-1.285a14.34,14.34,0,0,0,3.789-2.722l2.688-2.645a1.132,1.132,0,0,0,.33-.832,1.139,1.139,0,0,0-.376-.822,1.105,1.105,0,0,0-.886-.274,1.224,1.224,0,0,1-1.029-.363,1.231,1.231,0,0,1-.088-1.641,2.3,2.3,0,0,0,.175-.234,1.047,1.047,0,0,0-.175-1.218,1.211,1.211,0,0,0-1.364-.306,1.048,1.048,0,0,1-1.271-.257,1.046,1.046,0,0,1-.021-1.292,1.169,1.169,0,0,0-.065-1.474,1.135,1.135,0,0,0-1.335-.251,1.021,1.021,0,0,1-1.261-.242,1.033,1.033,0,0,1,.09-1.4l.208-.208a1.191,1.191,0,0,0,.082-1.623,1.135,1.135,0,0,0-.82-.374,1.142,1.142,0,0,0-.842.337l-5.126,5.118c-.05.051-.1.1-.159.146a2.3,2.3,0,0,1-1.639.676,2.338,2.338,0,0,1-1.628-.7l-.548-.546a4.667,4.667,0,0,0-.817,3.124l.218,1.83a4.594,4.594,0,0,1-1.321,3.813l-1.187,1.187a.961.961,0,0,1-1.36,0,.961.961,0,0,1,0-1.36l1.187-1.187a2.683,2.683,0,0,0,.771-2.226l-.218-1.83a6.823,6.823,0,0,1,1.949-5.448.961.961,0,0,1,.684-.3.962.962,0,0,1,.693.28l1.307,1.3a.427.427,0,0,0,.292.142.373.373,0,0,0,.269-.125c.026-.026.079-.076.107-.1l5.167-5.154a3.089,3.089,0,0,1,2.246-.9,3.041,3.041,0,0,1,2.2,1,3.047,3.047,0,0,1,.692,2.813,3.076,3.076,0,0,1,1.506.889,3.045,3.045,0,0,1,.8,2.338,3.254,3.254,0,0,1,1.877.946,2.953,2.953,0,0,1,.713,2.993,3,3,0,0,1,1.222.672,3.044,3.044,0,0,1,1,2.2,3.082,3.082,0,0,1-.9,2.242l-2.687,2.645a16.282,16.282,0,0,1-4.339,3.1L-90.5-239.9a2.684,2.684,0,0,0-.841.57l-2.248,2.248A.958.958,0,0,1-94.267-236.8Z" transform="translate(104.293 263.052)"/>
          </g>
          <g id="g4639" transform="translate(7.391 37.657)">
            <path id="path4641" d="M-76.277-1.613a.958.958,0,0,1-.68-.282.961.961,0,0,1,0-1.36l6.464-6.464a.961.961,0,0,1,1.36,0,.961.961,0,0,1,0,1.36L-75.6-1.895A.958.958,0,0,1-76.277-1.613Z" transform="translate(77.238 10)"/>
          </g>
          <g id="g4643" transform="translate(22.365 31.075)">
            <path id="path4645"/>
          </g>
          <g id="g4647" transform="translate(27.471 40.094)">
            <path id="path4649" d="M-9.039-45.935a.958.958,0,0,1-.68-.282.961.961,0,0,1,0-1.36L-5.692-51.6a.961.961,0,0,1,1.36,0,.961.961,0,0,1,0,1.36l-4.026,4.026A.958.958,0,0,1-9.039-45.935Z" transform="translate(10 51.884)"/>
          </g>
          <g id="g4651" transform="translate(25.414 50.97)">
            <path id="path4653" d="M-27.232-1.342a.963.963,0,0,1-.242-.031.961.961,0,0,1-.689-1.172l1.749-6.738a.961.961,0,0,1,1.172-.689A.961.961,0,0,1-24.553-8.8L-26.3-2.062A.962.962,0,0,1-27.232-1.342Z" transform="translate(28.194 10.002)"/>
          </g>
          <g id="g4655" transform="translate(36.541 50.97)">
            <path id="path4657" d="M-25.485-71.427a.962.962,0,0,1-.93-.72l-1.749-6.738a.961.961,0,0,1,.689-1.172.961.961,0,0,1,1.172.689l1.749,6.738a.961.961,0,0,1-.689,1.172A.963.963,0,0,1-25.485-71.427Z" transform="translate(28.194 80.088)"/>
          </g>
        </g>
      </g>
    </g>
  </g>
</svg>
