<svg xmlns="http://www.w3.org/2000/svg" width="68.179" height="69.001" viewBox="0 0 68.179 69.001">
  <g id="Grupo_1177669" data-name="Grupo 1177669" transform="translate(-0.025 0.191)">
    <g id="Grupo_1099618" data-name="Grupo 1099618" transform="translate(0.025 -0.191)">
      <rect id="Rectángulo_401104" data-name="Rectángulo 401104" width="68.179" height="69.001" transform="translate(0)" fill="none"/>
    </g>
    <path id="diagrama-de-flujo" d="M60.534,26.573H5.858A1.725,1.725,0,0,0,4.135,28.3V59.051a1.037,1.037,0,0,0,1.037,1.037H61.219a1.037,1.037,0,0,0,1.037-1.037V28.3A1.725,1.725,0,0,0,60.534,26.573Zm-.352,31.441H6.209V28.647H60.182V58.013Zm.228-35.575H5.982A5.989,5.989,0,0,0,0,28.42V62.435a5.989,5.989,0,0,0,5.982,5.982h16.07V74.2H15.563c-2.9,0-5.254,1.977-5.254,4.406v3.369a1.037,1.037,0,0,0,1.037,1.037h43.7a1.037,1.037,0,0,0,1.037-1.037V78.6c0-2.43-2.357-4.406-5.254-4.406H44.34V68.417H60.41a5.988,5.988,0,0,0,5.982-5.982V28.42A5.989,5.989,0,0,0,60.41,22.438ZM54.008,78.6v2.332H12.384V78.6c0-1.264,1.456-2.331,3.179-2.331H50.829C52.552,76.272,54.008,77.34,54.008,78.6ZM42.265,74.2H24.126V68.417H42.265ZM64.317,62.435a3.912,3.912,0,0,1-3.907,3.907H5.982a3.911,3.911,0,0,1-3.907-3.907V28.42a3.911,3.911,0,0,1,3.907-3.907H60.41a3.911,3.911,0,0,1,3.907,3.907Zm-29.6-6.721h7.34a1.831,1.831,0,0,0,1.828-1.828v-2.3a1.831,1.831,0,0,0-1.828-1.828H39.426V47.92l3.552-3.552h6.333V49.76H46.679a1.831,1.831,0,0,0-1.828,1.828v2.3a1.831,1.831,0,0,0,1.828,1.828h7.34a1.831,1.831,0,0,0,1.828-1.828v-2.3a1.831,1.831,0,0,0-1.828-1.828H51.387V43.33a1.037,1.037,0,0,0-1.037-1.037H42.979l-3.552-3.552V36.9h2.632a1.831,1.831,0,0,0,1.828-1.828v-2.3a1.831,1.831,0,0,0-1.828-1.828h-7.34a1.831,1.831,0,0,0-1.828,1.828v2.3A1.831,1.831,0,0,0,34.719,36.9h2.632v1.84L33.5,42.6a1.037,1.037,0,0,0,0,1.467l3.856,3.856v1.84H34.719a1.831,1.831,0,0,0-1.828,1.828v2.3A1.831,1.831,0,0,0,34.719,55.714Zm19.054-2.075H46.926v-1.8h6.847ZM34.965,33.022h6.847v1.8H34.965Zm3.424,7.616,2.693,2.693-2.693,2.693L35.7,43.33Zm-3.424,11.2h6.847v1.8H34.965ZM47.694,40.788h5.748a1.916,1.916,0,0,0,1.914-1.914V33.7a1.916,1.916,0,0,0-1.914-1.914H47.694A1.916,1.916,0,0,0,45.781,33.7v5.179A1.916,1.916,0,0,0,47.694,40.788Zm.161-6.931h5.425v4.857H47.855Zm-28,14.3a4.824,4.824,0,1,0-4.824-4.824A4.829,4.829,0,0,0,19.857,48.154Zm0-7.573a2.749,2.749,0,1,1-2.749,2.749A2.752,2.752,0,0,1,19.857,40.581Zm-9.644,5.055,2.121.339a7.923,7.923,0,0,0,.333.8l-1.26,1.74a1.037,1.037,0,0,0,.107,1.342l1.812,1.812a1.037,1.037,0,0,0,1.342.107l1.74-1.26a7.909,7.909,0,0,0,.8.333l.339,2.12a1.037,1.037,0,0,0,1.024.873h2.563a1.037,1.037,0,0,0,1.024-.873l.339-2.121a7.924,7.924,0,0,0,.8-.333l1.74,1.26a1.037,1.037,0,0,0,1.342-.107L28.2,49.861a1.037,1.037,0,0,0,.107-1.342l-1.259-1.74a7.937,7.937,0,0,0,.333-.8l2.12-.339a1.037,1.037,0,0,0,.873-1.024V42.049a1.037,1.037,0,0,0-.873-1.024l-2.121-.339a7.924,7.924,0,0,0-.333-.8l1.26-1.74A1.037,1.037,0,0,0,28.2,36.8l-1.812-1.812a1.037,1.037,0,0,0-1.342-.107l-1.74,1.259a7.938,7.938,0,0,0-.8-.333l-.339-2.12a1.037,1.037,0,0,0-1.024-.873H18.575a1.037,1.037,0,0,0-1.024.873l-.339,2.12a7.971,7.971,0,0,0-.8.333l-1.74-1.259a1.037,1.037,0,0,0-1.342.107L11.514,36.8a1.037,1.037,0,0,0-.107,1.342l1.26,1.74a7.934,7.934,0,0,0-.333.8l-2.121.339a1.037,1.037,0,0,0-.873,1.024v2.563a1.037,1.037,0,0,0,.873,1.024Zm1.2-2.7,1.887-.3a1.037,1.037,0,0,0,.841-.767,5.857,5.857,0,0,1,.637-1.537,1.037,1.037,0,0,0-.052-1.137l-1.121-1.548.561-.561L15.716,38.2a1.037,1.037,0,0,0,1.137.052,5.856,5.856,0,0,1,1.537-.637,1.037,1.037,0,0,0,.767-.841l.3-1.886h.794l.3,1.887a1.037,1.037,0,0,0,.767.841,5.857,5.857,0,0,1,1.537.637A1.037,1.037,0,0,0,24,38.2l1.548-1.121.561.561L24.986,39.19a1.037,1.037,0,0,0-.052,1.137,5.858,5.858,0,0,1,.637,1.537,1.037,1.037,0,0,0,.841.767l1.887.3v.794l-1.886.3a1.037,1.037,0,0,0-.841.767,5.857,5.857,0,0,1-.637,1.537,1.037,1.037,0,0,0,.052,1.137l1.121,1.548-.561.561L24,48.46a1.037,1.037,0,0,0-1.137-.052,5.861,5.861,0,0,1-1.537.637,1.037,1.037,0,0,0-.767.841l-.3,1.887H19.46l-.3-1.886a1.037,1.037,0,0,0-.767-.841,5.86,5.86,0,0,1-1.537-.637,1.037,1.037,0,0,0-1.137.052l-1.548,1.121-.561-.561,1.121-1.548a1.037,1.037,0,0,0,.052-1.137,5.863,5.863,0,0,1-.637-1.537,1.037,1.037,0,0,0-.841-.767l-1.887-.3v-.794Z" transform="translate(1.025 -18.629)"/>
  </g>
</svg>
