<svg xmlns="http://www.w3.org/2000/svg" width="68.179" height="69.001" viewBox="0 0 68.179 69.001">
  <g id="Grupo_1177669" data-name="Grupo 1177669" transform="translate(-0.025 0.191)">
    <g id="Grupo_1099618" data-name="Grupo 1099618" transform="translate(0.025 -0.191)">
      <rect id="Rectángulo_401104" data-name="Rectángulo 401104" width="68.179" height="69.001" transform="translate(0)" fill="none"/>
    </g>
    <g id="money-finnancial-marketing-seo-business" transform="translate(1.025 1.809)">
      <path id="Trazado_999783" data-name="Trazado 999783" d="M61.152,12.378H60.115V5.113A3.123,3.123,0,0,0,57,2H9.264A3.123,3.123,0,0,0,6.151,5.113v7.264H5.113A3.123,3.123,0,0,0,2,15.491V48.7a3.123,3.123,0,0,0,3.113,3.113H25.868v4.151H21.717A3.123,3.123,0,0,0,18.6,59.077v4.151a1.038,1.038,0,0,0,1.038,1.038H46.624a1.038,1.038,0,0,0,1.038-1.038V59.077a3.123,3.123,0,0,0-3.113-3.113H40.4V51.813H61.152A3.123,3.123,0,0,0,64.266,48.7V15.491a3.123,3.123,0,0,0-3.113-3.113ZM8.227,5.113A1.038,1.038,0,0,1,9.264,4.076H57a1.038,1.038,0,0,1,1.038,1.038V8.227H8.227Zm0,5.189H58.039v28.02A1.038,1.038,0,0,1,57,39.359H9.264a1.038,1.038,0,0,1-1.038-1.038ZM44.548,58.039a1.038,1.038,0,0,1,1.038,1.038V62.19H20.68V59.077a1.038,1.038,0,0,1,1.038-1.038Zm-16.6-2.076V51.813H38.322v4.151ZM62.19,48.7a1.038,1.038,0,0,1-1.038,1.038H5.113A1.038,1.038,0,0,1,4.076,48.7V45.586H62.19Zm0-5.189H4.076V15.491a1.038,1.038,0,0,1,1.038-1.038H6.151V38.322a3.123,3.123,0,0,0,3.113,3.113H57a3.123,3.123,0,0,0,3.113-3.113V14.453h1.038a1.038,1.038,0,0,1,1.038,1.038Z" transform="translate(0 0)"/>
      <path id="Trazado_999784" data-name="Trazado 999784" d="M31.038,47.076h2.076a1.038,1.038,0,0,0,0-2.076H31.038a1.038,1.038,0,1,0,0,2.076Z" transform="translate(1.057 1.624)"/>
      <path id="Trazado_999785" data-name="Trazado 999785" d="M32.453,36.906a12.514,12.514,0,0,0,9.8-4.774l.09.544a1.038,1.038,0,0,0,1.758.562l1.467-1.467,5.871,5.871a1.038,1.038,0,0,0,1.467,0l2.936-2.936a1.038,1.038,0,0,0,0-1.467l-5.871-5.87L51.437,25.9a1.038,1.038,0,0,0-.564-1.76l-6.05-1.009a12.447,12.447,0,1,0-12.37,13.773ZM48.538,25.858l-.775.775a1.038,1.038,0,0,0,0,1.467l5.872,5.87-1.464,1.468L46.3,29.568a1.038,1.038,0,0,0-1.467,0l-.775.775-.9-5.383ZM32.453,14.075a10.323,10.323,0,0,1,10.233,8.7l-.623-.1a1.038,1.038,0,0,0-1.194,1.194l.865,5.189a10.378,10.378,0,1,1-9.282-14.981Z" transform="translate(0.68 0.378)"/>
      <path id="Trazado_999786" data-name="Trazado 999786" d="M32.189,29.529c-1.687,0-3.113-.951-3.113-2.076a1.038,1.038,0,0,0-2.076,0c0,2,1.786,3.681,4.151,4.067v1.122a1.038,1.038,0,0,0,2.076,0V31.52c2.365-.386,4.151-2.062,4.151-4.067,0-2.289-2.328-4.151-5.189-4.151-1.687,0-3.113-.951-3.113-2.076s1.426-2.076,3.113-2.076S35.3,20.1,35.3,21.227a1.038,1.038,0,1,0,2.076,0c0-2-1.786-3.681-4.151-4.067V16.038a1.038,1.038,0,0,0-2.076,0V17.16C28.786,17.546,27,19.222,27,21.227c0,2.289,2.328,4.151,5.189,4.151,1.687,0,3.113.951,3.113,2.076S33.876,29.529,32.189,29.529Z" transform="translate(0.944 0.491)"/>
      <path id="Trazado_999787" data-name="Trazado 999787" d="M12.076,5H11.038a1.038,1.038,0,1,0,0,2.076h1.038a1.038,1.038,0,0,0,0-2.076Z" transform="translate(0.302 0.113)"/>
      <path id="Trazado_999788" data-name="Trazado 999788" d="M16.076,5H15.038a1.038,1.038,0,0,0,0,2.076h1.038a1.038,1.038,0,0,0,0-2.076Z" transform="translate(0.453 0.113)"/>
      <path id="Trazado_999789" data-name="Trazado 999789" d="M20.076,5H19.038a1.038,1.038,0,0,0,0,2.076h1.038a1.038,1.038,0,1,0,0-2.076Z" transform="translate(0.604 0.113)"/>
      <path id="Trazado_999790" data-name="Trazado 999790" d="M54.133,5h-30.1a1.038,1.038,0,1,0,0,2.076h30.1a1.038,1.038,0,0,0,0-2.076Z" transform="translate(0.793 0.113)"/>
    </g>
  </g>
</svg>
