<svg xmlns="http://www.w3.org/2000/svg" width="68.179" height="69.001" viewBox="0 0 68.179 69.001">
  <g id="Grupo_1177669" data-name="Grupo 1177669" transform="translate(-0.025 0.191)">
    <g id="Grupo_1099618" data-name="Grupo 1099618" transform="translate(0.025 -0.191)">
      <rect id="Rectángulo_401104" data-name="Rectángulo 401104" width="68.179" height="69.001" transform="translate(0)" fill="none"/>
    </g>
    <g id="ordenador-portatil" transform="translate(0.025 2.469)">
      <path id="Trazado_999791" data-name="Trazado 999791" d="M68.064,50.931a1.11,1.11,0,0,0-.059-.292,1.02,1.02,0,0,0-.036-.1,1.1,1.1,0,0,0-.21-.311l-6.27-6.271V10.367a3.294,3.294,0,0,0-3.294-3.294H47.214V1.582a1.1,1.1,0,0,0-1.1-1.1H21.958a1.1,1.1,0,0,0-1.1,1.1v5.49H9.879a3.294,3.294,0,0,0-3.294,3.294V43.953L.318,50.219a1.084,1.084,0,0,0-.21.311.976.976,0,0,0-.036.1,1.1,1.1,0,0,0-.059.291c0,.024-.013.044-.013.067V57.58a1.1,1.1,0,0,0,1.1,1.1H66.98a1.1,1.1,0,0,0,1.1-1.1V51c0-.023-.012-.043-.013-.066ZM21.958,34.525H46.116a1.1,1.1,0,0,0,1.1-1.1V13.661H54.9V38.917H13.173V13.661H20.86V33.427A1.1,1.1,0,0,0,21.958,34.525Zm1.1-31.845H45.018V32.329H23.056ZM8.78,10.367a1.1,1.1,0,0,1,1.1-1.1H20.86v2.2H12.075a1.1,1.1,0,0,0-1.1,1.1V40.016a1.1,1.1,0,0,0,1.1,1.1H56a1.1,1.1,0,0,0,1.1-1.1V12.563a1.1,1.1,0,0,0-1.1-1.1H47.214v-2.2H58.195a1.1,1.1,0,0,1,1.1,1.1V43.31H8.78ZM8.137,45.506h51.8L64.329,49.9H3.745Zm31.535,6.589-.732,1.1H29.133l-.732-1.1Zm26.21,4.392H2.192V52.095H25.762L27.629,54.9a1.1,1.1,0,0,0,.917.488H39.527a1.1,1.1,0,0,0,.914-.488l1.87-2.806H65.882Zm0,0" transform="translate(0)"/>
      <path id="Trazado_999792" data-name="Trazado 999792" d="M377.067,122.054a1.1,1.1,0,0,0,1.1-1.1V105.582a1.1,1.1,0,0,0-2.2,0v15.373A1.1,1.1,0,0,0,377.067,122.054Zm0,0" transform="translate(-324.363 -89.725)"/>
      <path id="Trazado_999793" data-name="Trazado 999793" d="M353.067,244.876h3.294a1.1,1.1,0,0,0,1.1-1.1v-2.2a1.1,1.1,0,0,0-2.2,0v1.1h-2.2a1.1,1.1,0,1,0,0,2.2Zm0,0" transform="translate(-303.657 -207.057)"/>
      <path id="Trazado_999794" data-name="Trazado 999794" d="M177.067,42.681h17.57a1.1,1.1,0,1,0,0-2.2h-17.57a1.1,1.1,0,1,0,0,2.2Zm0,0" transform="translate(-151.815 -34.51)"/>
      <path id="Trazado_999795" data-name="Trazado 999795" d="M177.067,122.68h12.079a1.1,1.1,0,1,0,0-2.2H177.067a1.1,1.1,0,1,0,0,2.2Zm0,0" transform="translate(-151.815 -103.529)"/>
      <path id="Trazado_999796" data-name="Trazado 999796" d="M177.067,162.68h5.49a1.1,1.1,0,1,0,0-2.2h-5.49a1.1,1.1,0,1,0,0,2.2Zm0,0" transform="translate(-151.815 -138.038)"/>
      <path id="Trazado_999797" data-name="Trazado 999797" d="M246.558,160.484h-5.491a1.1,1.1,0,1,0,0,2.2h5.491a1.1,1.1,0,1,0,0-2.2Zm0,0" transform="translate(-207.03 -138.038)"/>
      <path id="Trazado_999798" data-name="Trazado 999798" d="M177.067,82.681h5.49a1.1,1.1,0,1,0,0-2.2h-5.49a1.1,1.1,0,1,0,0,2.2Zm0,0" transform="translate(-151.815 -69.019)"/>
      <path id="Trazado_999799" data-name="Trazado 999799" d="M249.852,80.484h-8.785a1.1,1.1,0,1,0,0,2.2h8.785a1.1,1.1,0,1,0,0-2.2Zm0,0" transform="translate(-207.03 -69.019)"/>
      <path id="Trazado_999800" data-name="Trazado 999800" d="M291.263,120.484h-2.2a1.1,1.1,0,1,0,0,2.2h2.2a1.1,1.1,0,0,0,0-2.2Zm0,0" transform="translate(-248.442 -103.529)"/>
    </g>
  </g>
</svg>
