<svg xmlns="http://www.w3.org/2000/svg" xmlns:xlink="http://www.w3.org/1999/xlink" width="396" height="205" viewBox="0 0 396 205">
  <defs>
    <clipPath id="clip-path">
      <rect id="Rectángulo_456763" data-name="Rectángulo 456763" width="383.906" height="195.243" transform="translate(-32)" fill="none"/>
    </clipPath>
    <clipPath id="clip-path-2">
      <rect id="Rectángulo_456762" data-name="Rectángulo 456762" width="378.406" height="195.243" transform="translate(-31.5)" fill="none"/>
    </clipPath>
    <clipPath id="clip-path-3">
      <rect id="Rectángulo_456745" data-name="Rectángulo 456745" width="81.064" height="2.805" fill="none"/>
    </clipPath>
    <clipPath id="clip-path-5">
      <rect id="Rectángulo_456753" data-name="Rectángulo 456753" width="4.247" height="4.461" fill="none"/>
    </clipPath>
    <clipPath id="clip-path-6">
      <rect id="Rectángulo_456754" data-name="Rectángulo 456754" width="10.054" height="13.652" fill="none"/>
    </clipPath>
    <clipPath id="clip-path-7">
      <rect id="Rectángulo_456755" data-name="Rectángulo 456755" width="21.073" height="2.632" fill="none"/>
    </clipPath>
    <clipPath id="clip-path-8">
      <rect id="Rectángulo_456756" data-name="Rectángulo 456756" width="42.592" height="14.195" fill="none"/>
    </clipPath>
    <clipPath id="clip-path-9">
      <rect id="Rectángulo_456757" data-name="Rectángulo 456757" width="4.175" height="8.741" fill="none"/>
    </clipPath>
    <clipPath id="clip-path-10">
      <rect id="Rectángulo_456758" data-name="Rectángulo 456758" width="3.766" height="7.899" fill="none"/>
    </clipPath>
  </defs>
  <g id="Grupo_1180233" data-name="Grupo 1180233" transform="translate(-185.711 -3558)">
    <rect id="Rectángulo_456647" data-name="Rectángulo 456647" width="396" height="205" rx="102.5" transform="translate(185.711 3558)" fill="#f1e2ff"/>
    <g id="Grupo_1180232" data-name="Grupo 1180232" transform="translate(223.711 3563.778)">
      <g id="Grupo_1180231" data-name="Grupo 1180231" transform="translate(0 0)" clip-path="url(#clip-path)">
        <g id="Grupo_1180230" data-name="Grupo 1180230">
          <g id="Grupo_1180229" data-name="Grupo 1180229" clip-path="url(#clip-path-2)">
            <path id="Trazado_999859" data-name="Trazado 999859" d="M20.182,189.357a141.665,141.665,0,1,1,266.857,0Z" transform="translate(15.03)" fill="#7dbfff"/>
            <rect id="Rectángulo_456741" data-name="Rectángulo 456741" width="89.946" height="129.98" transform="translate(170.342 21.347)" fill="#bba189"/>
            <rect id="Rectángulo_456742" data-name="Rectángulo 456742" width="83.159" height="124.071" transform="translate(173.659 24.086)" fill="#695c4d"/>
            <rect id="Rectángulo_456743" data-name="Rectángulo 456743" width="81.065" height="121.074" transform="translate(174.782 25.799)" fill="#d8eff3"/>
            <g id="Grupo_1180207" data-name="Grupo 1180207" transform="translate(174.782 86.568)" style="mix-blend-mode: multiply;isolation: isolate">
              <g id="Grupo_1180206" data-name="Grupo 1180206">
                <g id="Grupo_1180205" data-name="Grupo 1180205" clip-path="url(#clip-path-3)">
                  <rect id="Rectángulo_456744" data-name="Rectángulo 456744" width="81.064" height="2.806" transform="translate(0 -0.001)" fill="#d8eff3"/>
                </g>
              </g>
            </g>
            <rect id="Rectángulo_456746" data-name="Rectángulo 456746" width="85.029" height="2.485" transform="translate(172.799 88.605)" fill="#bba189"/>
            <path id="Trazado_999860" data-name="Trazado 999860" d="M63.016,21.806h99.76a1.3,1.3,0,0,0,0-2.6H63.016a1.3,1.3,0,0,0,0,2.6" transform="translate(102.058 -2.161)" fill="#8c8e90"/>
            <path id="Trazado_999861" data-name="Trazado 999861" d="M89.882,17.943V156.422s-.921-1.152-3.8,0a8.677,8.677,0,0,1-7.373,0c-2.419-1.037-4.839-.807-5.875.231s-4.724,1.267-7.028-.346V17.943Z" transform="translate(172.624 -2.019)" fill="#dbd7d5"/>
            <path id="Trazado_999862" data-name="Trazado 999862" d="M89.882,17.943V156.422s-.921-1.152-3.8,0a8.677,8.677,0,0,1-7.373,0c-2.419-1.037-4.839-.807-5.875.231s-4.724,1.267-7.028-.346V17.943Z" transform="translate(172.624 -2.019)" fill="#90b1b8"/>
            <path id="Trazado_999863" data-name="Trazado 999863" d="M71.34,156.621a6.888,6.888,0,0,0-1.844.488,13.016,13.016,0,0,1-1.486.5l.971-133.557Z" transform="translate(189.208 -2.706)" fill="#7a969c"/>
            <path id="Trazado_999864" data-name="Trazado 999864" d="M84.058,156.634a5.2,5.2,0,0,0-3.324.457L81.7,25.082Z" transform="translate(165.198 -2.822)" fill="#7a969c"/>
            <path id="Trazado_999865" data-name="Trazado 999865" d="M69.511,22.577h0a.3.3,0,0,0,.3-.3V18.729a.3.3,0,0,0-.6,0v3.549a.3.3,0,0,0,.3.3" transform="translate(189.671 -2.074)" fill="#8c8e90"/>
            <path id="Trazado_999866" data-name="Trazado 999866" d="M73.524,22.577h0a.3.3,0,0,0,.3-.3V18.729a.3.3,0,0,0-.6,0v3.549a.3.3,0,0,0,.3.3" transform="translate(182.097 -2.074)" fill="#8c8e90"/>
            <path id="Trazado_999867" data-name="Trazado 999867" d="M77.535,22.577h0a.3.3,0,0,0,.3-.3V18.729a.3.3,0,0,0-.6,0v3.549a.3.3,0,0,0,.3.3" transform="translate(174.524 -2.074)" fill="#8c8e90"/>
            <path id="Trazado_999868" data-name="Trazado 999868" d="M81.549,22.577h0a.3.3,0,0,0,.3-.3V18.729a.3.3,0,0,0-.6,0v3.549a.3.3,0,0,0,.3.3" transform="translate(166.95 -2.074)" fill="#8c8e90"/>
            <path id="Trazado_999869" data-name="Trazado 999869" d="M85.562,22.577h0a.3.3,0,0,0,.3-.3V18.729a.3.3,0,1,0-.6,0v3.549a.3.3,0,0,0,.3.3" transform="translate(159.375 -2.074)" fill="#8c8e90"/>
            <path id="Trazado_999870" data-name="Trazado 999870" d="M89.575,22.577h0a.3.3,0,0,0,.3-.3V18.729a.3.3,0,1,0-.6,0v3.549a.3.3,0,0,0,.3.3" transform="translate(151.801 -2.074)" fill="#8c8e90"/>
            <path id="Trazado_999871" data-name="Trazado 999871" d="M145.835,17.943V156.422s.922-1.152,3.8,0a8.677,8.677,0,0,0,7.373,0c2.419-1.037,4.839-.807,5.875.231s4.724,1.267,7.028-.346V17.943Z" transform="translate(21.567 -2.019)" fill="#dbd7d5"/>
            <path id="Trazado_999872" data-name="Trazado 999872" d="M145.835,17.943V156.422s.922-1.152,3.8,0a8.677,8.677,0,0,0,7.373,0c2.419-1.037,4.839-.807,5.875.231s4.724,1.267,7.028-.346V17.943Z" transform="translate(21.567 -2.019)" fill="#90b1b8"/>
            <path id="Trazado_999873" data-name="Trazado 999873" d="M167.008,156.621a6.888,6.888,0,0,1,1.844.488,13.136,13.136,0,0,0,1.486.5l-.971-133.557Z" transform="translate(2.351 -2.706)" fill="#7a969c"/>
            <path id="Trazado_999874" data-name="Trazado 999874" d="M154.291,156.634a5.2,5.2,0,0,1,3.324.457l-.966-132.009Z" transform="translate(26.361 -2.822)" fill="#7a969c"/>
            <path id="Trazado_999875" data-name="Trazado 999875" d="M169.183,22.577h0a.3.3,0,0,1-.3-.3V18.729a.3.3,0,1,1,.6,0v3.549a.3.3,0,0,1-.3.3" transform="translate(1.542 -2.074)" fill="#8c8e90"/>
            <path id="Trazado_999876" data-name="Trazado 999876" d="M165.17,22.577h0a.3.3,0,0,1-.3-.3V18.729a.3.3,0,1,1,.6,0v3.549a.3.3,0,0,1-.3.3" transform="translate(9.117 -2.074)" fill="#8c8e90"/>
            <path id="Trazado_999877" data-name="Trazado 999877" d="M161.157,22.577h0a.3.3,0,0,1-.3-.3V18.729a.3.3,0,1,1,.6,0v3.549a.3.3,0,0,1-.3.3" transform="translate(16.691 -2.074)" fill="#8c8e90"/>
            <path id="Trazado_999878" data-name="Trazado 999878" d="M157.145,22.577h0a.3.3,0,0,1-.3-.3V18.729a.3.3,0,0,1,.6,0v3.549a.3.3,0,0,1-.3.3" transform="translate(24.264 -2.074)" fill="#8c8e90"/>
            <path id="Trazado_999879" data-name="Trazado 999879" d="M153.132,22.577h0a.3.3,0,0,1-.3-.3V18.729a.3.3,0,0,1,.6,0v3.549a.3.3,0,0,1-.3.3" transform="translate(31.838 -2.074)" fill="#8c8e90"/>
            <path id="Trazado_999880" data-name="Trazado 999880" d="M149.119,22.577h0a.3.3,0,0,1-.3-.3V18.729a.3.3,0,1,1,.6,0v3.549a.3.3,0,0,1-.3.3" transform="translate(39.413 -2.074)" fill="#8c8e90"/>
            <rect id="Rectángulo_456747" data-name="Rectángulo 456747" width="89.946" height="129.98" transform="translate(67.822 21.347)" fill="#bba189"/>
            <rect id="Rectángulo_456748" data-name="Rectángulo 456748" width="83.159" height="124.071" transform="translate(71.14 24.086)" fill="#695c4d"/>
            <rect id="Rectángulo_456749" data-name="Rectángulo 456749" width="81.065" height="121.074" transform="translate(72.263 25.799)" fill="#d8eff3"/>
            <g id="Grupo_1180210" data-name="Grupo 1180210" transform="translate(72.263 86.568)" style="mix-blend-mode: multiply;isolation: isolate">
              <g id="Grupo_1180209" data-name="Grupo 1180209">
                <g id="Grupo_1180208" data-name="Grupo 1180208" clip-path="url(#clip-path-3)">
                  <rect id="Rectángulo_456750" data-name="Rectángulo 456750" width="81.065" height="2.806" transform="translate(0 -0.001)" fill="#d8eff3"/>
                </g>
              </g>
            </g>
            <rect id="Rectángulo_456752" data-name="Rectángulo 456752" width="85.029" height="2.485" transform="translate(70.281 88.605)" fill="#bba189"/>
            <path id="Trazado_999881" data-name="Trazado 999881" d="M178.532,21.806h99.76a1.3,1.3,0,1,0,0-2.6h-99.76a1.3,1.3,0,0,0,0,2.6" transform="translate(-115.977 -2.161)" fill="#8c8e90"/>
            <path id="Trazado_999882" data-name="Trazado 999882" d="M205.4,17.943V156.422s-.921-1.152-3.8,0a8.677,8.677,0,0,1-7.373,0c-2.419-1.037-4.839-.807-5.875.231s-4.724,1.267-7.028-.346V17.943Z" transform="translate(-45.413 -2.019)" fill="#dbd7d5"/>
            <path id="Trazado_999883" data-name="Trazado 999883" d="M205.4,17.943V156.422s-.921-1.152-3.8,0a8.677,8.677,0,0,1-7.373,0c-2.419-1.037-4.839-.807-5.875.231s-4.724,1.267-7.028-.346V17.943Z" transform="translate(-45.413 -2.019)" fill="#90b1b8"/>
            <path id="Trazado_999884" data-name="Trazado 999884" d="M186.856,156.621a6.888,6.888,0,0,0-1.844.488,13.134,13.134,0,0,1-1.486.5l.97-133.557Z" transform="translate(-28.826 -2.706)" fill="#7a969c"/>
            <path id="Trazado_999885" data-name="Trazado 999885" d="M199.574,156.634a5.2,5.2,0,0,0-3.324.457l.966-132.009Z" transform="translate(-52.836 -2.822)" fill="#7a969c"/>
            <path id="Trazado_999886" data-name="Trazado 999886" d="M185.027,22.577h0a.3.3,0,0,0,.3-.3V18.729a.3.3,0,1,0-.6,0v3.549a.3.3,0,0,0,.3.3" transform="translate(-28.364 -2.074)" fill="#8c8e90"/>
            <path id="Trazado_999887" data-name="Trazado 999887" d="M189.04,22.577h0a.3.3,0,0,0,.3-.3V18.729a.3.3,0,1,0-.6,0v3.549a.3.3,0,0,0,.3.3" transform="translate(-35.938 -2.074)" fill="#8c8e90"/>
            <path id="Trazado_999888" data-name="Trazado 999888" d="M193.053,22.577h0a.3.3,0,0,0,.3-.3V18.729a.3.3,0,1,0-.6,0v3.549a.3.3,0,0,0,.3.3" transform="translate(-43.512 -2.074)" fill="#8c8e90"/>
            <path id="Trazado_999889" data-name="Trazado 999889" d="M197.066,22.577h0a.3.3,0,0,0,.3-.3V18.729a.3.3,0,1,0-.6,0v3.549a.3.3,0,0,0,.3.3" transform="translate(-51.087 -2.074)" fill="#8c8e90"/>
            <path id="Trazado_999890" data-name="Trazado 999890" d="M201.078,22.577h0a.3.3,0,0,0,.3-.3V18.729a.3.3,0,1,0-.6,0v3.549a.3.3,0,0,0,.3.3" transform="translate(-58.659 -2.074)" fill="#8c8e90"/>
            <path id="Trazado_999891" data-name="Trazado 999891" d="M205.091,22.577h0a.3.3,0,0,0,.3-.3V18.729a.3.3,0,1,0-.6,0v3.549a.3.3,0,0,0,.3.3" transform="translate(-66.234 -2.074)" fill="#8c8e90"/>
            <path id="Trazado_999892" data-name="Trazado 999892" d="M261.351,17.943V156.422s.922-1.152,3.8,0a8.677,8.677,0,0,0,7.373,0c2.419-1.037,4.839-.807,5.875.231s4.724,1.267,7.028-.346V17.943Z" transform="translate(-196.468 -2.019)" fill="#dbd7d5"/>
            <path id="Trazado_999893" data-name="Trazado 999893" d="M261.351,17.943V156.422s.922-1.152,3.8,0a8.677,8.677,0,0,0,7.373,0c2.419-1.037,4.839-.807,5.875.231s4.724,1.267,7.028-.346V17.943Z" transform="translate(-196.468 -2.019)" fill="#90b1b8"/>
            <path id="Trazado_999894" data-name="Trazado 999894" d="M282.524,156.621a6.888,6.888,0,0,1,1.844.488,13.075,13.075,0,0,0,1.486.5l-.971-133.557Z" transform="translate(-215.683 -2.706)" fill="#7a969c"/>
            <path id="Trazado_999895" data-name="Trazado 999895" d="M269.808,156.634a5.2,5.2,0,0,1,3.324.457l-.966-132.009Z" transform="translate(-191.676 -2.822)" fill="#7a969c"/>
            <path id="Trazado_999896" data-name="Trazado 999896" d="M284.7,22.577h0a.3.3,0,0,1-.3-.3V18.729a.3.3,0,0,1,.6,0v3.549a.3.3,0,0,1-.3.3" transform="translate(-216.492 -2.074)" fill="#8c8e90"/>
            <path id="Trazado_999897" data-name="Trazado 999897" d="M280.687,22.577h0a.3.3,0,0,1-.3-.3V18.729a.3.3,0,1,1,.6,0v3.549a.3.3,0,0,1-.3.3" transform="translate(-208.92 -2.074)" fill="#8c8e90"/>
            <path id="Trazado_999898" data-name="Trazado 999898" d="M276.674,22.577h0a.3.3,0,0,1-.3-.3V18.729a.3.3,0,0,1,.6,0v3.549a.3.3,0,0,1-.3.3" transform="translate(-201.345 -2.074)" fill="#8c8e90"/>
            <path id="Trazado_999899" data-name="Trazado 999899" d="M272.661,22.577h0a.3.3,0,0,1-.3-.3V18.729a.3.3,0,0,1,.6,0v3.549a.3.3,0,0,1-.3.3" transform="translate(-193.771 -2.074)" fill="#8c8e90"/>
            <path id="Trazado_999900" data-name="Trazado 999900" d="M268.649,22.577h0a.3.3,0,0,1-.3-.3V18.729a.3.3,0,1,1,.6,0v3.549a.3.3,0,0,1-.3.3" transform="translate(-186.198 -2.074)" fill="#8c8e90"/>
            <path id="Trazado_999901" data-name="Trazado 999901" d="M264.636,22.577h0a.3.3,0,0,1-.3-.3V18.729a.3.3,0,1,1,.6,0v3.549a.3.3,0,0,1-.3.3" transform="translate(-178.624 -2.074)" fill="#8c8e90"/>
            <path id="Trazado_999902" data-name="Trazado 999902" d="M236.256,52.61h52.9l10.75,12.524L296.2,52.61h13.367a6.431,6.431,0,0,0,6.431-6.431V7.965a6.431,6.431,0,0,0-6.431-6.431H236.256a6.431,6.431,0,0,0-6.431,6.431V46.179a6.431,6.431,0,0,0,6.431,6.431" transform="translate(-199.053 -0.173)" fill="#62249e"/>
            <path id="Trazado_999903" data-name="Trazado 999903" d="M237.905,12.044h45.657a1.758,1.758,0,0,0,0-3.516H237.905a1.758,1.758,0,0,0,0,3.516" transform="translate(-173.99 -0.96)" fill="#fff"/>
            <path id="Trazado_999904" data-name="Trazado 999904" d="M237.906,46.989h56.76a1.758,1.758,0,0,0,0-3.516h-56.76a1.758,1.758,0,1,0,0,3.516" transform="translate(-185.096 -4.891)" fill="#fff"/>
            <path id="Trazado_999905" data-name="Trazado 999905" d="M237.906,35.34h64.13a1.758,1.758,0,0,0,0-3.516h-64.13a1.758,1.758,0,0,0,0,3.516" transform="translate(-192.465 -3.581)" fill="#fff"/>
            <path id="Trazado_999906" data-name="Trazado 999906" d="M237.905,23.692H277.22a1.758,1.758,0,0,0,0-3.516H237.905a1.758,1.758,0,0,0,0,3.516" transform="translate(-167.648 -2.27)" fill="#fff"/>
            <path id="Trazado_999907" data-name="Trazado 999907" d="M290.173,23.692H307.99a1.758,1.758,0,0,0,0-3.516H290.173a1.758,1.758,0,1,0,0,3.516" transform="translate(-244.806 -2.27)" fill="#fff"/>
            <path id="Trazado_999908" data-name="Trazado 999908" d="M7.966,203.444v2.228c0,1.077,8.455,1.95,18.886,1.95s18.887-.873,18.887-1.95v-2.228Z" transform="translate(268.098 -22.891)" fill="#5f6163"/>
            <path id="Trazado_999909" data-name="Trazado 999909" d="M45.739,203.2c0,1.077-8.456,1.95-18.886,1.95s-18.887-.873-18.887-1.95,8.456-1.95,18.887-1.95,18.886.872,18.886,1.95" transform="translate(268.096 -22.644)" fill="#d8804e"/>
            <path id="Trazado_999910" data-name="Trazado 999910" d="M19.956,165.85a2.016,2.016,0,0,0-2.319,1.656l-5.013,30.036a1.985,1.985,0,0,0-.014.5h4.017l4.986-29.869a2.015,2.015,0,0,0-1.656-2.319" transform="translate(288.083 -18.658)" fill="#d8804e"/>
            <g id="Grupo_1180213" data-name="Grupo 1180213" transform="translate(305.476 147.165)" style="mix-blend-mode: multiply;isolation: isolate">
              <g id="Grupo_1180212" data-name="Grupo 1180212">
                <g id="Grupo_1180211" data-name="Grupo 1180211" clip-path="url(#clip-path-5)">
                  <path id="Trazado_999911" data-name="Trazado 999911" d="M15.356,170.235a3.255,3.255,0,0,0,1.207-.525l.257-1.542a2.015,2.015,0,1,0-3.974-.663l-.245,1.463a2.757,2.757,0,0,0,2.755,1.266" transform="translate(-12.602 -165.822)" fill="#7b7c7f"/>
                </g>
              </g>
            </g>
            <path id="Trazado_999912" data-name="Trazado 999912" d="M55.733,161.611a2.013,2.013,0,0,1-1.7-.938L12.913,95.667a2.015,2.015,0,1,1,3.406-2.154l41.114,65.006a2.015,2.015,0,0,1-1.7,3.092" transform="translate(251.976 -10.416)" fill="#d8804e"/>
            <g id="Grupo_1180216" data-name="Grupo 1180216" transform="translate(264.578 82.158)" style="mix-blend-mode: multiply;isolation: isolate">
              <g id="Grupo_1180215" data-name="Grupo 1180215">
                <g id="Grupo_1180214" data-name="Grupo 1180214" clip-path="url(#clip-path-6)">
                  <path id="Trazado_999913" data-name="Trazado 999913" d="M62.194,103.531,55.858,93.512a2.015,2.015,0,0,0-3.406,2.154l6.679,10.56q1.488-1.4,3.064-2.7" transform="translate(-52.14 -92.574)" fill="#7b7c7f"/>
                </g>
              </g>
            </g>
            <path id="Trazado_999914" data-name="Trazado 999914" d="M15.665,168.059a.585.585,0,1,1-.585-.585.585.585,0,0,1,.585.585" transform="translate(292.377 -18.844)" fill="#3e4042"/>
            <path id="Trazado_999915" data-name="Trazado 999915" d="M101.16,98.134c.024,0,.051.01.067,0,.423-.252-1.667-4.533-4.668-9.563s-5.776-8.9-6.2-8.649l-.014-.024L49.1,94.91,68.11,126.772Z" transform="translate(176.052 -8.99)" fill="#d8804e"/>
            <path id="Trazado_999916" data-name="Trazado 999916" d="M105.483,128.675c-.422.252-5.021-6.676-10.272-15.474S86.048,97.065,86.47,96.812s5.021,6.677,10.272,15.475,9.163,16.135,8.741,16.387" transform="translate(138.679 -10.892)" fill="#8b522e"/>
            <path id="Trazado_999917" data-name="Trazado 999917" d="M61.707,178.346H72.243L70.258,203.3c0,.427-3.829.773-8.551.773s-8.551-.346-8.551-.773l-1.985-24.955Z" transform="translate(203.249 -20.067)" fill="#c9c7c6"/>
            <g id="Grupo_1180219" data-name="Grupo 1180219" transform="translate(254.42 158.279)" style="mix-blend-mode: multiply;isolation: isolate">
              <g id="Grupo_1180218" data-name="Grupo 1180218">
                <g id="Grupo_1180217" data-name="Grupo 1180217" clip-path="url(#clip-path-7)">
                  <path id="Trazado_999918" data-name="Trazado 999918" d="M68.84,180.636c-.881.062-1.759.158-2.639.217q-1.452.1-2.908.119c-1.847.028-3.694-.033-5.536-.158-1.5-.1-3.013-.118-4.513-.284a16.118,16.118,0,0,1-1.925-.319l-.148-1.865H72.243l-.16,2c-1.074.159-2.169.21-3.244.286" transform="translate(-51.17 -178.346)" fill="#e2dfca"/>
                </g>
              </g>
            </g>
            <path id="Trazado_999919" data-name="Trazado 999919" d="M51.171,177.416c0,.41,4.717.742,10.536.742s10.536-.332,10.536-.742-4.717-.742-10.536-.742-10.536.332-10.536.742" transform="translate(203.249 -19.879)" fill="#90a5a5"/>
            <path id="Trazado_999920" data-name="Trazado 999920" d="M51.307,174.024H71.864l1.223,4.622c0,.447-5.149.81-11.5.81s-11.5-.363-11.5-.81Z" transform="translate(203.371 -19.581)" fill="#794b29"/>
            <path id="Trazado_999921" data-name="Trazado 999921" d="M51.461,173.932c0,.4,4.6.723,10.278.723s10.279-.324,10.279-.723-4.6-.723-10.279-.723-10.278.324-10.278.723" transform="translate(203.217 -19.489)" fill="#633b1d"/>
            <path id="Trazado_999922" data-name="Trazado 999922" d="M196.488,210.171c-8.022-25.7-10.021-62.352-9.554-67.084.168-1.7,6.74-3.986,10.632-4.764,11.675-2.334,31.33.357,38.423,4.764,8.665,5.383,9.623,49.351,18.741,67.084Z" transform="translate(-99.668 -15.467)" fill="#2a4047"/>
            <path id="Trazado_999923" data-name="Trazado 999923" d="M189.214,210.28c-8.022-25.7-10.021-62.352-9.554-67.084.672-6.81,39.6-5.876,49.055,0,8.665,5.383,9.623,49.351,18.741,67.084Z" transform="translate(-85.938 -15.576)" fill="#445e68"/>
            <path id="Trazado_999924" data-name="Trazado 999924" d="M153,130.755c-.194-.186-10.346-3.3-10.046-3.317,3.476-.215.508-25.971.031-28.65-.849-4.769,16.024-7.607,18.642-11.262a25.35,25.35,0,0,0,3.686-7.3c.878-2.863.981-5.847,1.547-8.771a20.466,20.466,0,0,1,3.368-8.36c.09-.122.186-.237.28-.356l.093.036a25.842,25.842,0,0,1,11.336,7.983,23.463,23.463,0,0,1,4.734,11.7c-.173.482-.332.969-.469,1.462a18.371,18.371,0,0,0-.689,5.6,16.671,16.671,0,0,0,1.282,5.616c.7,1.755,1.551,3.449,2.315,5.178a22.52,22.52,0,0,1,1.761,5.217,9.061,9.061,0,0,1-.535,5.184,11.873,11.873,0,0,1-3.054,3.861,13.705,13.705,0,0,0-3.588,4.258,7.62,7.62,0,0,0-.657,3.1,5.55,5.55,0,0,0,.2,1.61c.079.286.155.572.207.861.871,1.845,1.994,3.629,2.757,5.533a9.925,9.925,0,0,1,.456,7.347,7.131,7.131,0,0,1-2.134,2.914,13.088,13.088,0,0,1-3.147,1.755c-.2.084-.579-.19-.487-.415a8.473,8.473,0,0,1,1.63-2.226,4.265,4.265,0,0,0,.906-1.632,4.48,4.48,0,0,1-.31.382,11,11,0,0,1-1.41,1.557c-.367.341-.754.658-1.129.988a6.381,6.381,0,0,0-.842,1.5c-.033.084-.064.169-.093.256a2.989,2.989,0,0,0,.02.7c.013.063.029.124.041.187a1.431,1.431,0,0,0,.822,1.038c.139.059.293.271.136.395-1.747,1.375-4.017.651-5.957.162a11.679,11.679,0,0,1-2.212-.8,10.793,10.793,0,0,1-2.581-1.346c.091.114.184.225.281.331a7.132,7.132,0,0,0,1.4,1.171c.119.076.192.287.02.346a7.566,7.566,0,0,1-3.582.248,11.6,11.6,0,0,1-3.481-1.023,8.718,8.718,0,0,1-2.134-1.542,2.617,2.617,0,0,0,.524.782c.121.122.107.335-.093.344a6.852,6.852,0,0,1-5.607-2.99,8.444,8.444,0,0,1-1.6-3.191,6.622,6.622,0,0,1,.2-3.27,6.765,6.765,0,0,1,.914-2.189c.012-.028.024-.057.037-.086-.107.016-.216.035-.318.047a4.273,4.273,0,0,1-3.473-.926m29.535-8.692a8.155,8.155,0,0,1,.35-2.7,10.244,10.244,0,0,1,2.785-4.09,22.187,22.187,0,0,0,3.557-3.709,8.239,8.239,0,0,0,1.233-5.22,17.8,17.8,0,0,0-1.608-5.454c-.761-1.777-1.632-3.5-2.377-5.287a16.772,16.772,0,0,1-1.007-11.086,16.5,16.5,0,0,0-.44,12.654c.83,2.061,2.147,3.875,2.887,5.982a8.9,8.9,0,0,1,.374,5.2c-1.029,3.853-5.233,5.515-5.992,9.642a8.754,8.754,0,0,0,.24,4.074" transform="translate(3.014 -7.059)" fill="#ae5946"/>
            <path id="Trazado_999925" data-name="Trazado 999925" d="M95.4,217.106a59.581,59.581,0,0,1,5.349-16.674c33.742,4.071,41.474-1.33,41.474-1.33l-.517,7.5c40.392-10.644,49.312-4.979,53.514,5.294.539,1.316,1.27,3.1,2.134,5.206Z" transform="translate(38.893 -22.402)" fill="#1571a0"/>
            <path id="Trazado_999926" data-name="Trazado 999926" d="M201.143,201.977s-3.272,7.082-13.118,8.813c0,0,8.043-2.314,13.118-8.813" transform="translate(-47.106 -22.726)" fill="#034f82"/>
            <path id="Trazado_999927" data-name="Trazado 999927" d="M140.044,123.923s7.11.378,11.126,8.116,16.352,52.573,16.352,52.573L151.7,186.7Z" transform="translate(29.098 -13.943)" fill="#f2d1b8"/>
            <g id="Grupo_1180222" data-name="Grupo 1180222" transform="translate(138.202 170.783)" style="mix-blend-mode: multiply;isolation: isolate">
              <g id="Grupo_1180221" data-name="Grupo 1180221">
                <g id="Grupo_1180220" data-name="Grupo 1180220" clip-path="url(#clip-path-8)">
                  <path id="Trazado_999928" data-name="Trazado 999928" d="M192.774,205.12a48.468,48.468,0,0,1-20.736.729,52.114,52.114,0,0,1-11.334-3.242c-.957-.4-1.9-.852-2.829-1.339a62.378,62.378,0,0,1,2.654-8.832l36.763.675.517,7.171,2.659,1.408a22.332,22.332,0,0,1-7.693,3.431" transform="translate(-157.875 -192.435)" fill="#1571a0"/>
                </g>
              </g>
            </g>
            <path id="Trazado_999929" data-name="Trazado 999929" d="M189.283,194.039a42.45,42.45,0,0,1-9.712,1.391,78.222,78.222,0,0,1-10.31-.17,38.735,38.735,0,0,1-14.98-4.042c.869-7.674,2.467-10.816,2.824-17.77.552-10.753-1.382-44.178.353-48.606l.009-.011a38.375,38.375,0,0,1,3.721-2.5,15.915,15.915,0,0,1,5.95-2.154,34.907,34.907,0,0,1,7.943.121c1.839.194,3.66.509,5.476.856a18.711,18.711,0,0,1,2.8.64,7.122,7.122,0,0,1,2.394,1.5,19.286,19.286,0,0,1,3.357,4.626c1.136,1.951,2.365,3.831,3.6,5.722,1.758,2.7,3.495,5.425,5.056,8.245a68.025,68.025,0,0,1,1.937,7.237c.642,3.145-4.4,29.592-5.792,43.008a21.223,21.223,0,0,1-4.62,1.907" transform="translate(-15.768 -13.502)" fill="#fbaf17"/>
            <path id="Trazado_999930" data-name="Trazado 999930" d="M187.484,121.564c1.171,2.109,4.07,4.968.836,6.95-2.2,1.346-5.688.291-7.977-.462a21.5,21.5,0,0,1-7.612-4.392,5.571,5.571,0,0,1-1.546-1.952c-.762-1.868,1.129-3.078,1.216-4.85.257-5.286.695-10.834.118-16.158a5.814,5.814,0,0,0-.346-1.733.942.942,0,0,1,.417-.4,3.6,3.6,0,0,1,2.213-.094c.81.162,1.593.441,2.39.656a29.174,29.174,0,0,1,5.554,2.076,30.181,30.181,0,0,1,4.712,3.225,12.8,12.8,0,0,1,1.509,1.172,1.117,1.117,0,0,1,.381.646c.015.34-.359.558-.529.808-1.132,1.668-1.518,4.19-1.8,6.21a20.591,20.591,0,0,0-.1,6.8,5.1,5.1,0,0,0,.558,1.5" transform="translate(-20.658 -11.065)" fill="#efcbb1"/>
            <path id="Trazado_999931" data-name="Trazado 999931" d="M156.219,65.728a22.786,22.786,0,0,1,12.893-9.267,19.905,19.905,0,0,1,14.9,1.958A18.069,18.069,0,0,1,192.1,69.633c.14.541.258,1.087.362,1.637a12.757,12.757,0,0,1,.469,1.757c.561,3.039-.328,6.075-1.171,8.972a25.768,25.768,0,0,0-1.043,4.829,32.378,32.378,0,0,0,.065,5c.194,3.044.3,5.984-1.079,8.795a17.892,17.892,0,0,1-10.877,9.436c-4.809,1.306-9.956-.128-14.269-2.362a26.825,26.825,0,0,1-11.122-10.577c-2.693-4.835-3.042-10.281-2.452-15.691.6-5.511,2.081-11.071,5.241-15.7" transform="translate(-5.968 -6.28)" fill="#f2d1b8"/>
            <path id="Trazado_999932" data-name="Trazado 999932" d="M153.976,89.108a5.749,5.749,0,0,1,.741-1.21,5.285,5.285,0,0,1,2.552-1.234c.062-.011.121-.005.181-.012,1,.159,1.454,1.055,1.743,1.986a2.267,2.267,0,0,0-.169-.231A1,1,0,0,0,158.45,88a2.01,2.01,0,0,0-.965.059,7.618,7.618,0,0,0-3.847,2.692.174.174,0,0,1-.243.026,11.136,11.136,0,0,1,.581-1.67" transform="translate(25.577 -9.75)" fill="#492717"/>
            <path id="Trazado_999933" data-name="Trazado 999933" d="M169.9,86.7a6.424,6.424,0,0,1,6.643-1.4,6.989,6.989,0,0,1,4.149,4.419.42.42,0,0,1-.154-.138,7.628,7.628,0,0,0-5.169-3.265,7.4,7.4,0,0,0-3.574.541,12.934,12.934,0,0,0-1.787.779c-.564.318-1.071.737-1.6,1.108l-.008,0a6.908,6.908,0,0,1,1.5-2.047" transform="translate(-9.231 -9.554)" fill="#492717"/>
            <path id="Trazado_999934" data-name="Trazado 999934" d="M194.41,85.8c.389-1.192,1.408-2.446,2.8-2.333,1.7.138,2.652,2.046,3.067,3.493.1.361.24.829.335,1.318a9.923,9.923,0,0,1,.567,1.82,19.76,19.76,0,0,1,.208,4.273c-.024,1.085-.042,2.7-1.264,3.138-1.116.4-2.22-.369-2.991-1.1a10.618,10.618,0,0,1-2.9-6.464,9.307,9.307,0,0,1,.185-4.141" transform="translate(-52.743 -9.39)" fill="#f6dfc9"/>
            <g id="Grupo_1180225" data-name="Grupo 1180225" transform="translate(142.263 77.154)" style="mix-blend-mode: multiply;isolation: isolate">
              <g id="Grupo_1180224" data-name="Grupo 1180224">
                <g id="Grupo_1180223" data-name="Grupo 1180223" clip-path="url(#clip-path-9)">
                  <path id="Trazado_999935" data-name="Trazado 999935" d="M196.911,87.412a1.026,1.026,0,0,1,1.5-.27,3.981,3.981,0,0,1,1.483,1.98,12.341,12.341,0,0,1,.706,2.529,10.024,10.024,0,0,1-.058,3.922c-.054.239-.366.015-.351-.162.065-.785.122-1.558.11-2.331a1.227,1.227,0,0,1-.271-.075,2.179,2.179,0,0,1-.41-.222,3.789,3.789,0,0,1-.734-.666c-.418-.475-.724-1.021-1.1-1.528-.083-.114.078-.2.158-.1.346.458.694.92,1.083,1.343a3.7,3.7,0,0,0,.643.569,1.878,1.878,0,0,0,.362.19c.085.033.171.057.256.085a8.3,8.3,0,0,0-.122-1.077,10.711,10.711,0,0,0-.837-2.73c-.277-.568-.986-1.788-1.793-1.444-.62.264-.8,1.216-.776,1.809,0,.094-.114.037-.125-.026a2.59,2.59,0,0,1,.272-1.8" transform="translate(-196.589 -86.936)" fill="#f6dfc9"/>
                </g>
              </g>
            </g>
            <g id="Grupo_1180228" data-name="Grupo 1180228" transform="translate(175.205 84.895)" style="mix-blend-mode: multiply;isolation: isolate">
              <g id="Grupo_1180227" data-name="Grupo 1180227">
                <g id="Grupo_1180226" data-name="Grupo 1180226" clip-path="url(#clip-path-10)">
                  <path id="Trazado_999936" data-name="Trazado 999936" d="M160.923,101.681c.327-.224.72-.323,1.065-.513.4-.218.734-.528,1.113-.765a3.034,3.034,0,0,0-.389-.459,4.8,4.8,0,0,1-.334-.467,4.868,4.868,0,0,1-.544-1.236,3.78,3.78,0,0,1,.052-2.527c.054-.129.28-.013.241.106a4.035,4.035,0,0,0,.018,2.416,5.912,5.912,0,0,0,.493,1.166c.111.2.433.884.689.9.163.009.422.169.358.369-.268.83-1.272,1.2-1.987,1.532a2.541,2.541,0,0,0-.722.432,8.884,8.884,0,0,0-.634.862c-.141.172-.446-.04-.411-.233a2.482,2.482,0,0,1,.991-1.581" transform="translate(-159.929 -95.658)" fill="#f6dfc9"/>
                </g>
              </g>
            </g>
            <path id="Trazado_999937" data-name="Trazado 999937" d="M174.269,92.107c0,1.282.547,2.321,1.22,2.321s1.22-1.039,1.22-2.321-.547-2.321-1.22-2.321-1.22,1.039-1.22,2.321" transform="translate(-10.464 -10.102)" fill="#492717"/>
            <path id="Trazado_999938" data-name="Trazado 999938" d="M176.075,91.319c0,.251.107.454.239.454s.24-.2.24-.454-.107-.454-.24-.454-.239.2-.239.454" transform="translate(-11.911 -10.224)" fill="#fff"/>
            <path id="Trazado_999939" data-name="Trazado 999939" d="M156.661,93.644c0,1.282.547,2.321,1.22,2.321s1.22-1.039,1.22-2.321-.547-2.321-1.22-2.321-1.22,1.039-1.22,2.321" transform="translate(22.77 -10.275)" fill="#492717"/>
            <path id="Trazado_999940" data-name="Trazado 999940" d="M158.468,92.856c0,.251.107.454.239.454s.24-.2.24-.454-.107-.454-.24-.454-.239.2-.239.454" transform="translate(21.322 -10.397)" fill="#fff"/>
            <path id="Trazado_999941" data-name="Trazado 999941" d="M170.1,110.848a7.293,7.293,0,0,1-7.459-.849,3.93,3.93,0,0,1-1.436-3.434c1.762.443,3.525.88,5.3,1.275,1.5.335,3,.674,4.5,1.007.371.083.742.157,1.113.232a5.37,5.37,0,0,1-2.026,1.769" transform="translate(5.729 -11.99)" fill="#fff"/>
            <path id="Trazado_999942" data-name="Trazado 999942" d="M143.071,132.63c-.2-.186-.158-.511.143-.53,3.475-.214,6.3-3.285,7.735-6.322,2.2-5.333.841-11.283-1.221-16.433a39.9,39.9,0,0,1-2.692-7.686c-.849-4.769,2.043-8.6,4.66-12.258a25.351,25.351,0,0,0,3.686-7.3c.878-2.863.981-5.847,1.548-8.771a20.452,20.452,0,0,1,3.367-8.36,13.287,13.287,0,0,1,5.809-4.548,12.394,12.394,0,0,1,2.575-.692c2.54-3.607,7.88-4.68,11.945-5.3,7.081-1.083,15.487-.637,21.254,4.082a13.649,13.649,0,0,1,3.971,5.154c.055.027.112.051.165.078a12.693,12.693,0,0,1,3.676,2.867A12.328,12.328,0,0,1,213.1,75.2a11.566,11.566,0,0,1-.524,3.02,10.439,10.439,0,0,1-.99,2.307c-.114-.04-.229-.077-.343-.115.234-.625.493-1.24.68-1.883a13,13,0,0,0,.5-2.637,11.117,11.117,0,0,0-.632-4.742c-.034-.091-.075-.18-.111-.27a8.056,8.056,0,0,1,.247,1.224,13.52,13.52,0,0,1,0,2.536,19.37,19.37,0,0,1-.361,2.741,9.713,9.713,0,0,1-.816,2.505c-.049.093-.11.2-.176.311a27.863,27.863,0,0,0-6.944-1.222,45.21,45.21,0,0,0-9.232.669c-1.6.256-3.2.557-4.789.867a25.256,25.256,0,0,1-4.729.7,21.024,21.024,0,0,1-2.786.146c-.74-.012-1.495-.051-2.243-.13-.28-.009-.56-.019-.84-.019a.39.39,0,0,1-.248-.13c-.059-.01-.121-.017-.18-.028a6.205,6.205,0,0,0-.8.961l-.012.019a16.963,16.963,0,0,0-1.5,3.767,18.371,18.371,0,0,0-.689,5.6,16.692,16.692,0,0,0,1.282,5.616c.7,1.755,1.551,3.449,2.315,5.178a22.512,22.512,0,0,1,1.761,5.216,9.06,9.06,0,0,1-.535,5.184,11.851,11.851,0,0,1-3.054,3.861,13.728,13.728,0,0,0-3.588,4.258,7.62,7.62,0,0,0-.657,3.1,5.549,5.549,0,0,0,.2,1.61c.079.286.155.572.207.861.871,1.845,1.994,3.629,2.757,5.533a9.925,9.925,0,0,1,.456,7.347,7.131,7.131,0,0,1-2.134,2.914,13.088,13.088,0,0,1-3.147,1.755c-.2.084-.579-.19-.486-.415a8.449,8.449,0,0,1,1.629-2.226,4.264,4.264,0,0,0,.906-1.632,4.476,4.476,0,0,1-.31.382,11.058,11.058,0,0,1-1.41,1.558c-.367.34-.754.657-1.129.987a6.4,6.4,0,0,0-.842,1.5c-.033.084-.064.17-.093.256a2.99,2.99,0,0,0,.02.7c.013.063.029.124.041.187a1.431,1.431,0,0,0,.822,1.038c.139.059.293.271.136.395-1.747,1.375-4.017.651-5.956.162a11.666,11.666,0,0,1-2.213-.8,10.793,10.793,0,0,1-2.581-1.346c.091.114.184.225.281.331a7.1,7.1,0,0,0,1.4,1.171c.119.077.193.287.02.346a7.555,7.555,0,0,1-3.582.249,11.6,11.6,0,0,1-3.481-1.023,8.718,8.718,0,0,1-2.134-1.542,2.617,2.617,0,0,0,.524.782c.121.122.107.335-.093.344a6.852,6.852,0,0,1-5.607-2.99,8.447,8.447,0,0,1-1.6-3.19,6.625,6.625,0,0,1,.2-3.271,6.765,6.765,0,0,1,.914-2.189c.013-.028.024-.057.037-.086-.107.017-.215.035-.318.047a4.271,4.271,0,0,1-3.472-.926m29.535-8.692a8.177,8.177,0,0,1,.35-2.7,10.235,10.235,0,0,1,2.785-4.09,22.226,22.226,0,0,0,3.557-3.71,8.232,8.232,0,0,0,1.233-5.22,17.8,17.8,0,0,0-1.608-5.454c-.761-1.777-1.632-3.5-2.377-5.287a16.772,16.772,0,0,1-1.007-11.086,16.5,16.5,0,0,0-.44,12.654c.831,2.061,2.147,3.875,2.887,5.982a8.9,8.9,0,0,1,.375,5.2c-1.029,3.853-5.234,5.515-5.993,9.642a8.753,8.753,0,0,0,.24,4.074" transform="translate(-19.064 -6.069)" fill="#954c3a"/>
            <path id="Trazado_999943" data-name="Trazado 999943" d="M146.407,189.774a7.621,7.621,0,0,1,1.368-2.115,6.252,6.252,0,0,1,2.008-1.371c1-.446,2.066-.784,3.1-1.166,1.055-.393,2.112-.78,3.176-1.148a25.056,25.056,0,0,1,2.82-.895,2.6,2.6,0,0,1,1.1-.036c.88-.02,1.765.006,2.642.043,1.16.051,2.32.13,3.472.274a14.914,14.914,0,0,1,2.83.572,7.7,7.7,0,0,1,2.442,1.368,20.441,20.441,0,0,1,1.84,1.387,1.153,1.153,0,0,1,.414.785.667.667,0,0,1-.452.57,2.455,2.455,0,0,1-.886.185,16.515,16.515,0,0,1-4.292-1.449,7.705,7.705,0,0,0-1.417-.354,14.1,14.1,0,0,0-2.159-.21c-.493-.012-.984,0-1.475.03.151.039.3.079.448.124a18.94,18.94,0,0,1,2.075.906A9.557,9.557,0,0,1,167.4,188.3l.016.012a7.1,7.1,0,0,1,1.279.791,13.077,13.077,0,0,1,1.972,2c.226.276.464.54.7.806.406.34.807.686,1.181,1.057a3.3,3.3,0,0,1,.933,1.394c.164.635-.385.909-.935.943a2.784,2.784,0,0,1-2.155-1.146,16.808,16.808,0,0,0-2.45-2.164c-.205-.147-.415-.281-.629-.408-1.225-1.03-5.019-1.322-4.563-1.153.084.031.169.053.253.084a.356.356,0,0,0,.176.02,10.564,10.564,0,0,1,2.815,1.053c.059.074.118.148.175.223.823,1.069,1.762,2.043,2.651,3.057.455.519.919,1.021,1.387,1.526.308.331,2.1,2.158.892,2.383a2.3,2.3,0,0,1-1.052-.136,4.235,4.235,0,0,1-1.242-.665,13.483,13.483,0,0,1-2.175-2.2,12.618,12.618,0,0,0-1.109-1.253,4.746,4.746,0,0,0-1.861-.974,13.914,13.914,0,0,0-3.272-.506c.38.122.761.241,1.137.372a9.327,9.327,0,0,1,3.751,2.923c.547.585,1.25,1,1.774,1.6.312.361.618.938.233,1.367-.282.315-.767.217-1.114.085a12.4,12.4,0,0,1-2.983-2.1,17.224,17.224,0,0,0-3.7-1.929c-1.453-.641-2.627-.255-4.112.017-.726.133-1.458.235-2.191.312a25.463,25.463,0,0,1-4.5.121,3.409,3.409,0,0,1-1.632-.482,2.375,2.375,0,0,1-.827-.955c-.827-1.35-.439-3.244.182-4.6" transform="translate(17.933 -20.591)" fill="#f2d1b8"/>
            <path id="Trazado_999944" data-name="Trazado 999944" d="M192.378,170.512a33.347,33.347,0,0,1,1.537-5.778c1.621-4.792,2.991-9.654,4.661-14.434,2.525-7.221,4.845-16.023,9.927-22.127a14.332,14.332,0,0,1,4.95-3.946c.23-.075.461-.143.695-.2a3.2,3.2,0,0,1,2.552.381,7,7,0,0,1,1.23,1.052,6.9,6.9,0,0,1,1.121,1.543,11.307,11.307,0,0,1,1.15,3.727,21.188,21.188,0,0,1-.209,7.38,39.139,39.139,0,0,1-1.923,6.219,81.6,81.6,0,0,0-5.936,10.782c-1.076,2.591-2.222,5.156-3.261,7.76-.972,2.439-1.864,4.909-2.622,7.416a19.909,19.909,0,0,1-2.557,6.061,6.043,6.043,0,0,1-2.488,2.066,6.119,6.119,0,0,1-3.345.353,6.631,6.631,0,0,1-4.873-3.025,8.362,8.362,0,0,1-.61-5.232" transform="translate(-70.124 -13.943)" fill="#f2d1b8"/>
            <path id="Trazado_999945" data-name="Trazado 999945" d="M216.417,192.571s-31.806-2.564-38.76-7-5.808-11.921-1.917-14.048,9.52-1.482,14.6,1.82,27.934,13.06,27.934,13.06Z" transform="translate(-50.574 -19.16)" fill="#f2d1b8"/>
            <rect id="Rectángulo_456759" data-name="Rectángulo 456759" width="50.024" height="1.676" transform="translate(148.464 179.772)" fill="#646669"/>
            <path id="Trazado_999946" data-name="Trazado 999946" d="M85.961,197.846h45.393a2.077,2.077,0,0,0,1.985-1.469l14.673-47.961a2.076,2.076,0,0,0-1.985-2.684H100.634a2.075,2.075,0,0,0-1.985,1.469L83.975,195.162a2.076,2.076,0,0,0,1.985,2.684" transform="translate(98.357 -16.397)" fill="#646669"/>
            <path id="Trazado_999947" data-name="Trazado 999947" d="M84.676,197.846h45.393a2.077,2.077,0,0,0,1.985-1.469l14.673-47.961a2.076,2.076,0,0,0-1.985-2.684H99.349a2.075,2.075,0,0,0-1.985,1.469L82.69,195.162a2.076,2.076,0,0,0,1.985,2.684" transform="translate(100.783 -16.397)" fill="#959b9a"/>
            <path id="Trazado_999948" data-name="Trazado 999948" d="M110.2,175.368a3.028,3.028,0,0,0,2.979,4.122,5.836,5.836,0,0,0,5.265-4.122,3.028,3.028,0,0,0-2.979-4.122,5.837,5.837,0,0,0-5.265,4.122" transform="translate(104.639 -19.268)" fill="#646669"/>
            <path id="Trazado_999949" data-name="Trazado 999949" d="M295.916,176.136H307.2L305.07,202.85c0,.457-4.1.828-9.154.828s-9.153-.371-9.153-.828l-2.126-26.714Z" transform="translate(-238.9 -19.818)" fill="#d8804e"/>
            <path id="Trazado_999950" data-name="Trazado 999950" d="M284.637,176.035c0,.438,5.05.794,11.279.794s11.28-.356,11.28-.794-5.05-.794-11.28-.794-11.279.356-11.279.794" transform="translate(-238.9 -19.718)" fill="#8b522e"/>
            <path id="Trazado_999951" data-name="Trazado 999951" d="M304.181,183.7c-.012-.01-.023-.022-.035-.031a3.9,3.9,0,0,1-1.224-1.19.556.556,0,0,1,.034-.623.513.513,0,0,1,.5-.173,1.512,1.512,0,0,1,.7.384c0-.018,0-.035,0-.053-.012-.576-.035-1.15-.064-1.724a5.366,5.366,0,0,0-1.2-1.227c-.4-.293-.813-.573-1.2-.887a2.721,2.721,0,0,1-.912-1.032.742.742,0,0,1,.364-.861.937.937,0,0,1,.91.013,3.48,3.48,0,0,1,.976.771,10.748,10.748,0,0,1,.917,1.117c-.053-.613-.115-1.227-.191-1.839a7.125,7.125,0,0,0-.9-1.317,10.769,10.769,0,0,0-1.716-1.542c-.271-.2-.542-.406-.828-.587-.24-.151-.485-.293-.714-.459a1.544,1.544,0,0,1-.771-1.229.614.614,0,0,1,.541-.658,2.361,2.361,0,0,1,1.148.217,6.891,6.891,0,0,1,1.059.521,6.8,6.8,0,0,1,1.555,1.275c-.118-.57-.243-1.139-.384-1.7a8.929,8.929,0,0,0-1.4-1.667,10.8,10.8,0,0,0-2.054-1.478c-.4-.228-.816-.438-1.231-.646-.271-.136-.56-.213-.841-.323-.512-.2-1.04-.489-1.132-1.082a.667.667,0,0,1,.5-.774,2.767,2.767,0,0,1,1.284.008,5.581,5.581,0,0,1,1.128.312,11.139,11.139,0,0,1,2.337,1.268c-.261-.635-.544-1.262-.857-1.873a9.051,9.051,0,0,0-1.986-1.6,10.813,10.813,0,0,0-1.408-.7,4.729,4.729,0,0,0-1.007-.319c-.736-.123-1.477-.2-2.207-.352a6.573,6.573,0,0,1-1.072-.3,1.763,1.763,0,0,1-.728-.45.869.869,0,0,1,.215-1.27,2.7,2.7,0,0,1,1.763-.083,12.569,12.569,0,0,1,2,.559,10.437,10.437,0,0,1,2.317,1.217,13.847,13.847,0,0,0-7.325-4.845,6.722,6.722,0,0,0-5.013.534,5.258,5.258,0,0,0-1.866,2.015,3,3,0,0,0-.386,1.372,4.387,4.387,0,0,0,.19,1.048,10.617,10.617,0,0,0-5.094-1.636,6.438,6.438,0,0,0-4.947,1.993,7.706,7.706,0,0,0-1.67,4.386c-.018.179-.03.36-.041.54a14.02,14.02,0,0,0,.394,2.681,5.922,5.922,0,0,1,2.966-4.07,8.775,8.775,0,0,1,2.331-.837,2.452,2.452,0,0,1,2.031.268.972.972,0,0,1,.383.769.842.842,0,0,1-.52.61,9.369,9.369,0,0,1-2.008.554,3.833,3.833,0,0,0-1.066.525,5.668,5.668,0,0,0-1.1.931,6.075,6.075,0,0,0-1.341,2.437,7.214,7.214,0,0,0-.245,2.474,17.075,17.075,0,0,0,1.371,2.108,7.3,7.3,0,0,1,.478-2.566,7.148,7.148,0,0,1,2.68-3.643,3.082,3.082,0,0,1,1.952-.5.867.867,0,0,1,.751.38.8.8,0,0,1-.145.746A13.849,13.849,0,0,1,279.6,171.2a7.275,7.275,0,0,0-1.479,2.581,6.266,6.266,0,0,0,.185,4.434q.362.3.738.587a16.9,16.9,0,0,0,2.291,1.448,5.729,5.729,0,0,1-.494-2.078,6.988,6.988,0,0,1,.2-2.276,9.536,9.536,0,0,1,.56-1.553,2.2,2.2,0,0,1,.951-1.145.853.853,0,0,1,1.107.425,2.754,2.754,0,0,1-.08,1.666c-.147.59-.368,1.164-.492,1.761a3.684,3.684,0,0,0-.012,1.017,6.186,6.186,0,0,0,.227,1.238,5.963,5.963,0,0,0,1.291,2.321c.837.277,1.689.507,2.547.7a8.068,8.068,0,0,1-.825-3.235,4.7,4.7,0,0,1,.09-1.215,1.527,1.527,0,0,1,.52-1.023.772.772,0,0,1,.994.314,3.02,3.02,0,0,1,.339,1.461c.036.531.019,1.068.079,1.6a3.057,3.057,0,0,0,.264.836,6.542,6.542,0,0,0,1.112,1.755c.911.138,1.828.236,2.747.324-.083-.137-.166-.274-.243-.414a6.79,6.79,0,0,1-.649-1.643,6.511,6.511,0,0,1-.191-1.085,1.2,1.2,0,0,1,.185-.925.59.59,0,0,1,.8.066,2.193,2.193,0,0,1,.5,1.039c.11.406.175.82.273,1.227a4.131,4.131,0,0,0,.632,1.305,5.287,5.287,0,0,0,.478.6c.718.069,1.435.146,2.149.241a2.947,2.947,0,0,1-.637-2.234.169.169,0,0,1,.208-.117c1,.354,1.439,1.469,2.056,2.244.125.157.259.3.4.446a10.918,10.918,0,0,1,5.853,2.8c.008-.059.015-.117.019-.169a11.454,11.454,0,0,0-.068-1.91c-.027-.306-.039-.614-.047-.922" transform="translate(-224.988 -17.577)" fill="#8ab676"/>
            <path id="Trazado_999952" data-name="Trazado 999952" d="M286.537,180.545c.016-.013.03-.028.047-.041a5.1,5.1,0,0,0,1.6-1.559.727.727,0,0,0-.044-.816.674.674,0,0,0-.654-.226,1.982,1.982,0,0,0-.921.5c0-.023,0-.047,0-.07.017-.754.047-1.507.084-2.259a7.006,7.006,0,0,1,1.568-1.607c.527-.384,1.065-.751,1.572-1.162a3.553,3.553,0,0,0,1.2-1.353.973.973,0,0,0-.477-1.127,1.224,1.224,0,0,0-1.191.018,4.547,4.547,0,0,0-1.279,1.01,14.164,14.164,0,0,0-1.2,1.463c.07-.8.149-1.606.25-2.409a9.264,9.264,0,0,1,1.178-1.725,14.168,14.168,0,0,1,2.249-2.019c.355-.264.71-.532,1.084-.769.314-.2.635-.383.936-.6a2.023,2.023,0,0,0,1.01-1.611.8.8,0,0,0-.71-.86,3.076,3.076,0,0,0-1.5.284,9.026,9.026,0,0,0-1.388.682,8.92,8.92,0,0,0-2.036,1.67c.154-.746.319-1.492.5-2.232a11.658,11.658,0,0,1,1.835-2.182,14.063,14.063,0,0,1,2.69-1.936c.529-.3,1.069-.574,1.612-.846.355-.178.734-.28,1.1-.423.671-.261,1.362-.642,1.483-1.417a.874.874,0,0,0-.649-1.014,3.642,3.642,0,0,0-1.683.012,7.231,7.231,0,0,0-1.477.408,14.484,14.484,0,0,0-3.061,1.661c.342-.833.713-1.654,1.123-2.454a11.869,11.869,0,0,1,2.6-2.1,14.257,14.257,0,0,1,1.844-.915,6.141,6.141,0,0,1,1.319-.417c.963-.162,1.935-.264,2.891-.462a8.529,8.529,0,0,0,1.4-.39,2.318,2.318,0,0,0,.953-.589,1.138,1.138,0,0,0-.281-1.664,3.531,3.531,0,0,0-2.31-.108,16.425,16.425,0,0,0-2.616.733,13.635,13.635,0,0,0-3.035,1.593,18.133,18.133,0,0,1,9.6-6.346,8.8,8.8,0,0,1,6.566.7,6.875,6.875,0,0,1,2.445,2.639,3.938,3.938,0,0,1,.506,1.8,5.722,5.722,0,0,1-.248,1.373,13.9,13.9,0,0,1,6.673-2.142,8.426,8.426,0,0,1,6.479,2.611,10.089,10.089,0,0,1,2.189,5.745c.023.235.039.471.052.708a18.424,18.424,0,0,1-.515,3.513,7.758,7.758,0,0,0-3.886-5.332,11.448,11.448,0,0,0-3.053-1.1,3.214,3.214,0,0,0-2.66.351,1.273,1.273,0,0,0-.5,1.008,1.1,1.1,0,0,0,.681.8,12.306,12.306,0,0,0,2.632.725,5.015,5.015,0,0,1,1.394.689,7.382,7.382,0,0,1,1.443,1.219,7.952,7.952,0,0,1,1.757,3.192,9.445,9.445,0,0,1,.32,3.24,22.254,22.254,0,0,1-1.8,2.762,9.591,9.591,0,0,0-.627-3.361,9.361,9.361,0,0,0-3.511-4.772,4.035,4.035,0,0,0-2.558-.656,1.139,1.139,0,0,0-.984.5,1.049,1.049,0,0,0,.19.977,18.262,18.262,0,0,0,1.992,2.119,9.525,9.525,0,0,1,1.938,3.38,8.208,8.208,0,0,1-.241,5.808q-.475.4-.967.769a22.045,22.045,0,0,1-3,1.9,7.515,7.515,0,0,0,.649-2.723,9.16,9.16,0,0,0-.268-2.981,12.612,12.612,0,0,0-.733-2.034,2.893,2.893,0,0,0-1.246-1.5,1.118,1.118,0,0,0-1.45.557,3.615,3.615,0,0,0,.1,2.181c.193.774.483,1.526.643,2.307a4.783,4.783,0,0,1,.017,1.332,8.181,8.181,0,0,1-.3,1.621,7.825,7.825,0,0,1-1.692,3.04c-1.1.364-2.212.665-3.337.924a10.586,10.586,0,0,0,1.082-4.237,6.218,6.218,0,0,0-.117-1.591,2,2,0,0,0-.682-1.341,1.011,1.011,0,0,0-1.3.412,3.954,3.954,0,0,0-.445,1.913c-.047.7-.024,1.4-.1,2.093a4.023,4.023,0,0,1-.346,1.1,8.537,8.537,0,0,1-.657,1.24,8.626,8.626,0,0,1-.8,1.058c-1.195.182-2.4.309-3.6.424.108-.179.217-.359.318-.542a8.907,8.907,0,0,0,.85-2.152,8.678,8.678,0,0,0,.25-1.421,1.578,1.578,0,0,0-.243-1.212.772.772,0,0,0-1.053.086,2.865,2.865,0,0,0-.659,1.361c-.144.531-.229,1.074-.358,1.607a5.409,5.409,0,0,1-.829,1.71,6.863,6.863,0,0,1-.625.786c-.941.091-1.879.192-2.815.316a3.858,3.858,0,0,0,.834-2.926.222.222,0,0,0-.272-.154c-1.307.464-1.885,1.924-2.694,2.938a7.812,7.812,0,0,1-.52.584c-2.754.573-5.727,1.577-7.667,3.672-.011-.078-.019-.154-.025-.222a15.011,15.011,0,0,1,.091-2.5c.035-.4.051-.8.061-1.208" transform="translate(-261.654 -16.265)" fill="#5b895d"/>
            <path id="Trazado_999953" data-name="Trazado 999953" d="M312.171,163.688c-.011-.012-.02-.025-.03-.036a3.886,3.886,0,0,1-1.022-1.367.554.554,0,0,1,.13-.61.512.512,0,0,1,.52-.093,1.509,1.509,0,0,1,.635.49l.008-.053c.077-.571.145-1.141.206-1.713a5.356,5.356,0,0,0-.99-1.4c-.351-.352-.714-.693-1.046-1.063a2.727,2.727,0,0,1-.74-1.163.743.743,0,0,1,.494-.793.934.934,0,0,1,.9.155,3.471,3.471,0,0,1,.844.915,10.659,10.659,0,0,1,.73,1.246c.043-.614.079-1.228.1-1.845a7.073,7.073,0,0,0-.682-1.442,10.754,10.754,0,0,0-1.455-1.791c-.236-.241-.471-.486-.726-.709-.213-.186-.433-.365-.634-.564a1.546,1.546,0,0,1-.57-1.336.614.614,0,0,1,.638-.564,2.36,2.36,0,0,1,1.1.394,6.951,6.951,0,0,1,2.3,2.183c-.027-.582-.063-1.163-.114-1.744a8.883,8.883,0,0,0-1.124-1.865,10.731,10.731,0,0,0-1.8-1.781c-.363-.288-.738-.56-1.115-.831-.246-.177-.519-.3-.78-.451a1.529,1.529,0,0,1-.95-1.245.667.667,0,0,1,.611-.687,2.766,2.766,0,0,1,1.267.209,5.568,5.568,0,0,1,1.065.485,11.075,11.075,0,0,1,2.11,1.618c-.159-.669-.34-1.332-.554-1.984a9.031,9.031,0,0,0-1.711-1.895,10.867,10.867,0,0,0-1.281-.911,4.725,4.725,0,0,0-.945-.472c-.706-.237-1.427-.43-2.126-.693a6.709,6.709,0,0,1-1.012-.462,1.775,1.775,0,0,1-.648-.558.868.868,0,0,1,.411-1.221,2.69,2.69,0,0,1,1.755.194,12.466,12.466,0,0,1,1.885.864,10.468,10.468,0,0,1,2.1,1.564,13.847,13.847,0,0,0-6.478-5.93,6.716,6.716,0,0,0-5.036-.256,5.249,5.249,0,0,0-2.157,1.7,2.99,2.99,0,0,0-.6,1.294,4.363,4.363,0,0,0,.024,1.065,10.623,10.623,0,0,0-4.776-2.412,6.438,6.438,0,0,0-5.2,1.2,7.7,7.7,0,0,0-2.336,4.07c-.045.175-.086.351-.124.528a13.958,13.958,0,0,0-.031,2.709,5.921,5.921,0,0,1,3.567-3.556,8.753,8.753,0,0,1,2.433-.461,2.454,2.454,0,0,1,1.964.582.975.975,0,0,1,.258.82.846.846,0,0,1-.609.521,9.424,9.424,0,0,1-2.071.233,3.825,3.825,0,0,0-1.134.352,5.675,5.675,0,0,0-1.234.747,6.08,6.08,0,0,0-1.706,2.2,7.2,7.2,0,0,0-.629,2.405,17.072,17.072,0,0,0,1.024,2.3,7.315,7.315,0,0,1,.874-2.459,7.139,7.139,0,0,1,3.217-3.179,3.083,3.083,0,0,1,2.007-.19c.271.072.6.2.682.493a.8.8,0,0,1-.259.714,13.9,13.9,0,0,1-1.755,1.36,7.268,7.268,0,0,0-1.865,2.318,6.266,6.266,0,0,0-.511,4.408q.31.355.637.695a16.852,16.852,0,0,0,2.037,1.788,5.736,5.736,0,0,1-.164-2.13,7,7,0,0,1,.558-2.216,9.5,9.5,0,0,1,.8-1.446,2.21,2.21,0,0,1,1.118-.982.854.854,0,0,1,1.027.593,2.762,2.762,0,0,1-.339,1.633c-.239.56-.547,1.093-.761,1.663a3.684,3.684,0,0,0-.172,1,6.275,6.275,0,0,0,.031,1.258,5.979,5.979,0,0,0,.913,2.495c.783.4,1.589.765,2.405,1.094a8.086,8.086,0,0,1-.31-3.324,4.746,4.746,0,0,1,.279-1.186,1.531,1.531,0,0,1,.674-.93.772.772,0,0,1,.933.466,3.014,3.014,0,0,1,.107,1.5c-.047.531-.149,1.059-.172,1.59a3.071,3.071,0,0,0,.13.868,6.492,6.492,0,0,0,.347,1.013,6.622,6.622,0,0,0,.477.894c.879.28,1.77.519,2.662.75-.06-.148-.12-.3-.175-.447a6.8,6.8,0,0,1-.383-1.724,6.524,6.524,0,0,1-.02-1.1,1.2,1.2,0,0,1,.328-.885.59.59,0,0,1,.785.191,2.193,2.193,0,0,1,.334,1.1c.045.417.044.837.078,1.255a4.128,4.128,0,0,0,.421,1.389,5.294,5.294,0,0,0,.377.666c.7.181,1.394.369,2.085.575a2.949,2.949,0,0,1-.28-2.306.169.169,0,0,1,.223-.084c.931.507,1.192,1.676,1.681,2.538.1.175.209.341.322.5a10.91,10.91,0,0,1,5.343,3.684c.017-.058.033-.114.044-.164a11.452,11.452,0,0,0,.231-1.9c.022-.307.059-.613.1-.919" transform="translate(-243.302 -15.088)" fill="#a6d17a"/>
            <path id="Trazado_999954" data-name="Trazado 999954" d="M289.227,197.536h1l-.208-.809-.485-.057Z" transform="translate(-226.002 -22.129)" fill="#b29e7a"/>
            <path id="Trazado_999955" data-name="Trazado 999955" d="M294.043,201.507l.127-.308-.277-.039-.08.143Z" transform="translate(-234.018 -22.634)" fill="#afa0ab"/>
            <path id="Trazado_999956" data-name="Trazado 999956" d="M287.184,201.681l.188-.456-.41-.058-.118.211Z" transform="translate(-221.036 -22.635)" fill="#c1a280"/>
            <path id="Trazado_999957" data-name="Trazado 999957" d="M294.972,195.645l.264-.641-.575-.081-.166.3Z" transform="translate(-235.688 -21.932)" fill="#adc1bd"/>
            <path id="Trazado_999958" data-name="Trazado 999958" d="M290.967,204.878l.264-.641-.575-.081-.166.3Z" transform="translate(-228.13 -22.971)" fill="#ebe9a2"/>
            <path id="Trazado_999959" data-name="Trazado 999959" d="M304.255,201.151l-.76-.643-.365.752.333.357Z" transform="translate(-252.372 -22.561)" fill="#b29e7a"/>
            <path id="Trazado_999960" data-name="Trazado 999960" d="M298.1,200.583l-.3.154.186.209.153-.058Z" transform="translate(-241.538 -22.569)" fill="#afa0ab"/>
            <path id="Trazado_999961" data-name="Trazado 999961" d="M303.361,195.976l-.438.227.276.309.226-.085Z" transform="translate(-251.357 -22.051)" fill="#c1a280"/>
            <path id="Trazado_999962" data-name="Trazado 999962" d="M301.489,205.56l-.616.319.388.434.318-.12Z" transform="translate(-247.693 -23.129)" fill="#adc1bd"/>
            <path id="Trazado_999963" data-name="Trazado 999963" d="M298.579,195.926l-.616.319.388.434.318-.12Z" transform="translate(-242.2 -22.045)" fill="#ebe9a2"/>
            <path id="Trazado_999964" data-name="Trazado 999964" d="M306.69,198.9l-.76-.643-.365.752.333.357Z" transform="translate(-256.968 -22.307)" fill="#adc1bd"/>
            <path id="Trazado_999965" data-name="Trazado 999965" d="M306.035,192.13l-.3.154.185.209.153-.058Z" transform="translate(-256.51 -21.618)" fill="#afa0ab"/>
            <path id="Trazado_999966" data-name="Trazado 999966" d="M303.919,186.333l-.438.227.276.309.226-.085Z" transform="translate(-252.412 -20.966)" fill="#c1a280"/>
            <path id="Trazado_999967" data-name="Trazado 999967" d="M306.114,203.733l-.616.319.388.434.318-.12Z" transform="translate(-256.423 -22.923)" fill="#dbca74"/>
            <path id="Trazado_999968" data-name="Trazado 999968" d="M306.511,187.472l-.616.319.388.434.318-.12Z" transform="translate(-257.172 -21.094)" fill="#ebe9a2"/>
            <path id="Trazado_999969" data-name="Trazado 999969" d="M289.085,189.666l-.76-.643-.365.752.333.357Z" transform="translate(-223.739 -21.268)" fill="#adc1bd"/>
            <path id="Trazado_999970" data-name="Trazado 999970" d="M288.19,184.491l-.438.227.276.309.226-.085Z" transform="translate(-222.723 -20.758)" fill="#c1a280"/>
            <path id="Trazado_999971" data-name="Trazado 999971" d="M287.971,192.9l-.616.319.388.434.318-.12Z" transform="translate(-222.177 -21.705)" fill="#dbca74"/>
            <path id="Trazado_999972" data-name="Trazado 999972" d="M299.568,186.944l-.995-.051.166.818.481.082Z" transform="translate(-243.641 -21.029)" fill="#84b5bc"/>
            <path id="Trazado_999973" data-name="Trazado 999973" d="M294.668,183.235l-.142.3.274.053.086-.138Z" transform="translate(-235.367 -20.617)" fill="#afa0ab"/>
            <path id="Trazado_999974" data-name="Trazado 999974" d="M301.5,182.687l-.211.446.406.078.129-.205Z" transform="translate(-248.305 -20.555)" fill="#c1a280"/>
            <path id="Trazado_999975" data-name="Trazado 999975" d="M294.019,189.084l-.3.627.571.11.18-.288Z" transform="translate(-234.241 -21.275)" fill="#dbca74"/>
            <path id="Trazado_999976" data-name="Trazado 999976" d="M297.547,179.658l-.3.627.571.11.18-.288Z" transform="translate(-240.901 -20.215)" fill="#ebe9a2"/>
            <path id="Trazado_999977" data-name="Trazado 999977" d="M305.676,182.671l-.064.994.821-.155.088-.48Z" transform="translate(-256.841 -20.554)" fill="#adc1bd"/>
            <path id="Trazado_999978" data-name="Trazado 999978" d="M308.42,184.266l.3.146.057-.274-.138-.088Z" transform="translate(-261.587 -20.709)" fill="#afa0ab"/>
            <path id="Trazado_999979" data-name="Trazado 999979" d="M307.571,190.579l.444.217.083-.406-.2-.13Z" transform="translate(-260.157 -21.407)" fill="#c1a280"/>
            <path id="Trazado_999980" data-name="Trazado 999980" d="M303.54,178.3l.623.3.117-.569-.286-.185Z" transform="translate(-252.762 -20.012)" fill="#dbca74"/>
            <path id="Trazado_999981" data-name="Trazado 999981" d="M308.2,178.3l.623.3.117-.569-.286-.185Z" transform="translate(-261.563 -20.012)" fill="#ebe9a2"/>
            <path id="Trazado_999982" data-name="Trazado 999982" d="M252.078,163.251a6.68,6.68,0,0,0-2.661-7.5l10.833-.052v-.011l1.148,0,1.148,0v.011l10.833.052a6.68,6.68,0,0,0-2.661,7.5c1.314,5.131,6.925,7.071,5.831,19.842s-8.736,17.9-8.736,17.9h-.034c0,.21-2.686.381-6,.381l-.383,0-.382,0c-3.314,0-6-.17-6-.381h-.034s-7.64-5.131-8.736-17.9,4.516-14.711,5.831-19.842" transform="translate(-174.201 -17.517)" fill="#d8804e"/>
            <path id="Trazado_999983" data-name="Trazado 999983" d="M249.838,155.591c0,.42,5.373.761,12,.761s12-.341,12-.761-5.373-.761-12-.761-12,.341-12,.761" transform="translate(-174.66 -17.421)" fill="#8b522e"/>
            <path id="Trazado_999984" data-name="Trazado 999984" d="M255.141,197.269h1l-.208-.809-.485-.057Z" transform="translate(-161.664 -22.099)" fill="#b29e7a"/>
            <path id="Trazado_999985" data-name="Trazado 999985" d="M259.956,201.24l.127-.308-.277-.039-.079.143Z" transform="translate(-169.68 -22.604)" fill="#afa0ab"/>
            <path id="Trazado_999986" data-name="Trazado 999986" d="M253.1,201.414l.188-.456-.41-.058-.118.211Z" transform="translate(-156.698 -22.605)" fill="#c1a280"/>
            <path id="Trazado_999987" data-name="Trazado 999987" d="M260.885,195.378l.264-.641-.576-.081-.165.3Z" transform="translate(-171.35 -21.902)" fill="#adc1bd"/>
            <path id="Trazado_999988" data-name="Trazado 999988" d="M256.881,204.611l.264-.641-.575-.081-.166.3Z" transform="translate(-163.792 -22.941)" fill="#ebe9a2"/>
            <path id="Trazado_999989" data-name="Trazado 999989" d="M270.169,200.884l-.76-.643-.365.752.333.357Z" transform="translate(-188.035 -22.531)" fill="#b29e7a"/>
            <path id="Trazado_999990" data-name="Trazado 999990" d="M264.016,200.316l-.3.154.185.209.153-.058Z" transform="translate(-177.199 -22.539)" fill="#afa0ab"/>
            <path id="Trazado_999991" data-name="Trazado 999991" d="M269.274,195.708l-.438.227.276.309.226-.085Z" transform="translate(-187.019 -22.021)" fill="#c1a280"/>
            <path id="Trazado_999992" data-name="Trazado 999992" d="M267.4,205.293l-.616.319.388.434.318-.12Z" transform="translate(-183.355 -23.099)" fill="#adc1bd"/>
            <path id="Trazado_999993" data-name="Trazado 999993" d="M264.492,195.659l-.615.319.387.434.318-.12Z" transform="translate(-177.861 -22.015)" fill="#ebe9a2"/>
            <path id="Trazado_999994" data-name="Trazado 999994" d="M278.1,192.431l-.76-.643-.365.752.333.357Z" transform="translate(-203.007 -21.579)" fill="#adc1bd"/>
            <path id="Trazado_999995" data-name="Trazado 999995" d="M271.949,191.862l-.3.154.186.209.153-.058Z" transform="translate(-192.173 -21.588)" fill="#afa0ab"/>
            <path id="Trazado_999996" data-name="Trazado 999996" d="M277.206,187.255l-.438.227.276.309.226-.085Z" transform="translate(-201.991 -21.069)" fill="#c1a280"/>
            <path id="Trazado_999997" data-name="Trazado 999997" d="M275.334,196.84l-.615.319.387.434.318-.12Z" transform="translate(-198.326 -22.148)" fill="#dbca74"/>
            <path id="Trazado_999998" data-name="Trazado 999998" d="M272.425,187.205l-.616.319.388.434.318-.12Z" transform="translate(-192.834 -21.064)" fill="#ebe9a2"/>
            <path id="Trazado_999999" data-name="Trazado 999999" d="M255,189.4l-.76-.643-.365.752.333.357Z" transform="translate(-159.401 -21.238)" fill="#adc1bd"/>
            <path id="Trazado_1000000" data-name="Trazado 1000000" d="M248.846,188.831l-.3.154.186.209.153-.058Z" transform="translate(-148.567 -21.247)" fill="#afa0ab"/>
            <path id="Trazado_1000001" data-name="Trazado 1000001" d="M254.1,184.223l-.438.227.276.309.226-.085Z" transform="translate(-158.385 -20.728)" fill="#c1a280"/>
            <path id="Trazado_1000002" data-name="Trazado 1000002" d="M252.231,193.808l-.615.319.387.434.318-.12Z" transform="translate(-154.72 -21.807)" fill="#dbca74"/>
            <path id="Trazado_1000003" data-name="Trazado 1000003" d="M249.322,184.174l-.616.319.388.434.318-.12Z" transform="translate(-149.229 -20.723)" fill="#ebe9a2"/>
            <path id="Trazado_1000004" data-name="Trazado 1000004" d="M255.427,174.9l-.995-.051.166.818.481.082Z" transform="translate(-160.326 -19.673)" fill="#84b5bc"/>
            <path id="Trazado_1000005" data-name="Trazado 1000005" d="M250.528,171.189l-.143.3.275.052.086-.138Z" transform="translate(-152.053 -19.262)" fill="#afa0ab"/>
            <path id="Trazado_1000006" data-name="Trazado 1000006" d="M257.358,170.642l-.211.446.406.078.129-.205Z" transform="translate(-164.99 -19.2)" fill="#c1a280"/>
            <path id="Trazado_1000007" data-name="Trazado 1000007" d="M249.878,177.038l-.3.627.571.11.18-.288Z" transform="translate(-150.926 -19.92)" fill="#dbca74"/>
            <path id="Trazado_1000008" data-name="Trazado 1000008" d="M253.406,167.612l-.3.627.571.11.18-.288Z" transform="translate(-157.586 -18.859)" fill="#ebe9a2"/>
            <path id="Trazado_1000009" data-name="Trazado 1000009" d="M266.57,169.505l.74.667.387-.74-.322-.367Z" transform="translate(-183.368 -19.023)" fill="#84b5bc"/>
            <path id="Trazado_1000010" data-name="Trazado 1000010" d="M272.828,170.006l.3-.145-.18-.214-.154.053Z" transform="translate(-194.323 -19.088)" fill="#afa0ab"/>
            <path id="Trazado_1000011" data-name="Trazado 1000011" d="M267.685,174.745l.445-.214-.265-.317-.229.078Z" transform="translate(-184.745 -19.602)" fill="#c1a280"/>
            <path id="Trazado_1000012" data-name="Trazado 1000012" d="M269.231,165.076l.625-.3-.374-.446-.321.111Z" transform="translate(-187.825 -18.49)" fill="#dbca74"/>
            <path id="Trazado_1000013" data-name="Trazado 1000013" d="M272.431,174.618l.625-.3-.374-.446-.321.111Z" transform="translate(-193.866 -19.564)" fill="#ebe9a2"/>
            <path id="Trazado_1000014" data-name="Trazado 1000014" d="M264.4,164.116l-.694-.714-.436.713.3.387Z" transform="translate(-177.14 -18.386)" fill="#84b5bc"/>
            <path id="Trazado_1000015" data-name="Trazado 1000015" d="M258.25,164.069l-.31.124.165.225.158-.043Z" transform="translate(-166.274 -18.461)" fill="#afa0ab"/>
            <path id="Trazado_1000016" data-name="Trazado 1000016" d="M263.062,158.987l-.458.184.244.334.233-.063Z" transform="translate(-175.232 -17.889)" fill="#c1a280"/>
            <path id="Trazado_1000017" data-name="Trazado 1000017" d="M262.152,168.722l-.643.257.343.469.328-.089Z" transform="translate(-173.358 -18.984)" fill="#dbca74"/>
            <path id="Trazado_1000018" data-name="Trazado 1000018" d="M258.325,159.413l-.643.257.343.469.328-.089Z" transform="translate(-166.136 -17.937)" fill="#ebe9a2"/>
            <path id="Trazado_1000019" data-name="Trazado 1000019" d="M265.481,186.677l-.995-.051.166.818.482.082Z" transform="translate(-179.303 -20.999)" fill="#84b5bc"/>
            <path id="Trazado_1000020" data-name="Trazado 1000020" d="M260.581,182.967l-.142.3.274.053.086-.138Z" transform="translate(-171.029 -20.587)" fill="#afa0ab"/>
            <path id="Trazado_1000021" data-name="Trazado 1000021" d="M267.412,182.42l-.211.446.406.078.129-.205Z" transform="translate(-183.967 -20.525)" fill="#c1a280"/>
            <path id="Trazado_1000022" data-name="Trazado 1000022" d="M259.932,188.817l-.3.627.572.11.179-.288Z" transform="translate(-169.903 -21.245)" fill="#dbca74"/>
            <path id="Trazado_1000023" data-name="Trazado 1000023" d="M263.461,179.391l-.3.627.571.11.18-.288Z" transform="translate(-176.563 -20.185)" fill="#ebe9a2"/>
            <path id="Trazado_1000024" data-name="Trazado 1000024" d="M271.59,182.4l-.064.994.821-.155.088-.48Z" transform="translate(-192.503 -20.524)" fill="#adc1bd"/>
            <path id="Trazado_1000025" data-name="Trazado 1000025" d="M275.743,178.527l.3.146.057-.274-.138-.088Z" transform="translate(-199.91 -20.063)" fill="#afa0ab"/>
            <path id="Trazado_1000026" data-name="Trazado 1000026" d="M276.187,185.387l.444.217.083-.406-.2-.13Z" transform="translate(-200.92 -20.823)" fill="#c1a280"/>
            <path id="Trazado_1000027" data-name="Trazado 1000027" d="M269.454,178.037l.623.3.117-.569-.286-.185Z" transform="translate(-188.424 -19.982)" fill="#dbca74"/>
            <path id="Trazado_1000028" data-name="Trazado 1000028" d="M278.925,181.441l.623.3.117-.57-.286-.184Z" transform="translate(-206.3 -20.365)" fill="#ebe9a2"/>
            <path id="Trazado_1000029" data-name="Trazado 1000029" d="M267.91,96.984a5.037,5.037,0,0,0,1.072-1.6c.062-.176.12-.351.175-.525a7.469,7.469,0,0,0,.152-4.054,6.563,6.563,0,0,0-.957-2.118.128.128,0,0,0-.2-.02,6.651,6.651,0,0,0-1.887,3.422,8.945,8.945,0,0,0-.112,4.08,5.959,5.959,0,0,0,.692,1.534,3.647,3.647,0,0,0,1.068-.721" transform="translate(-184.654 -9.972)" fill="#78a067"/>
            <path id="Trazado_1000030" data-name="Trazado 1000030" d="M265.85,102.468a5.037,5.037,0,0,0,1.072-1.6c.062-.176.12-.351.175-.524a7.469,7.469,0,0,0,.152-4.054,6.537,6.537,0,0,0-.958-2.118.127.127,0,0,0-.2-.02,6.651,6.651,0,0,0-1.887,3.422,8.945,8.945,0,0,0-.112,4.08,5.941,5.941,0,0,0,.692,1.534,3.627,3.627,0,0,0,1.068-.72" transform="translate(-180.766 -10.589)" fill="#5b895d"/>
            <path id="Trazado_1000031" data-name="Trazado 1000031" d="M262.637,107.577a5.031,5.031,0,0,0,1.368-1.354c.1-.159.187-.32.276-.479a7.453,7.453,0,0,0,.955-3.942,6.54,6.54,0,0,0-.517-2.266.127.127,0,0,0-.194-.06,6.652,6.652,0,0,0-2.53,2.978,8.95,8.95,0,0,0-.921,3.976,5.993,5.993,0,0,0,.373,1.641,3.644,3.644,0,0,0,1.19-.493" transform="translate(-176.036 -11.19)" fill="#78a067"/>
            <path id="Trazado_1000032" data-name="Trazado 1000032" d="M260.066,112.68a5.04,5.04,0,0,0,1.587-1.09c.122-.14.241-.282.357-.422a7.467,7.467,0,0,0,1.638-3.711,6.552,6.552,0,0,0-.107-2.321.128.128,0,0,0-.181-.095,6.655,6.655,0,0,0-3.017,2.483,8.941,8.941,0,0,0-1.612,3.75,5.964,5.964,0,0,0,.076,1.681,3.653,3.653,0,0,0,1.258-.274" transform="translate(-172.395 -11.818)" fill="#5b895d"/>
            <path id="Trazado_1000033" data-name="Trazado 1000033" d="M258.574,119.051a6.188,6.188,0,0,0,1.891-1.213c.146-.154.289-.312.428-.467a8.093,8.093,0,0,0,1.988-4.079,6.6,6.6,0,0,0-.095-2.536.149.149,0,0,0-.212-.1,8.027,8.027,0,0,0-3.6,2.756,9.674,9.674,0,0,0-1.957,4.121,6.044,6.044,0,0,0,.067,1.837,4.7,4.7,0,0,0,1.492-.318" transform="translate(-170.116 -12.449)" fill="#78a067"/>
            <path id="Trazado_1000034" data-name="Trazado 1000034" d="M257.265,124.564a5.563,5.563,0,0,0,1.894-.953c.155-.135.305-.272.453-.408a8.222,8.222,0,0,0,2.341-3.806,7.227,7.227,0,0,0,.229-2.55.141.141,0,0,0-.183-.13,7.33,7.33,0,0,0-3.664,2.26,9.857,9.857,0,0,0-2.317,3.852,6.621,6.621,0,0,0-.168,1.846,4.008,4.008,0,0,0,1.415-.112" transform="translate(-168.359 -13.132)" fill="#5b895d"/>
            <path id="Trazado_1000035" data-name="Trazado 1000035" d="M256.708,130.073a5.547,5.547,0,0,0,1.894-.953c.154-.135.305-.272.453-.408a8.223,8.223,0,0,0,2.341-3.806,7.227,7.227,0,0,0,.229-2.55.141.141,0,0,0-.183-.13,7.33,7.33,0,0,0-3.664,2.26,9.859,9.859,0,0,0-2.318,3.852,6.655,6.655,0,0,0-.167,1.846,4.008,4.008,0,0,0,1.415-.112" transform="translate(-167.307 -13.752)" fill="#8ab676"/>
            <path id="Trazado_1000036" data-name="Trazado 1000036" d="M255.89,135.942a5.55,5.55,0,0,0,2.008-.68c.172-.112.34-.227.5-.342a8.216,8.216,0,0,0,2.848-3.443,7.2,7.2,0,0,0,.582-2.492.141.141,0,0,0-.163-.154,7.325,7.325,0,0,0-3.942,1.728,9.863,9.863,0,0,0-2.832,3.492,6.6,6.6,0,0,0-.422,1.8,4,4,0,0,0,1.416.086" transform="translate(-166.769 -14.496)" fill="#5b895d"/>
            <path id="Trazado_1000037" data-name="Trazado 1000037" d="M255.63,140.993a5.556,5.556,0,0,0,2.008-.68c.172-.112.341-.227.5-.342a8.215,8.215,0,0,0,2.848-3.443,7.2,7.2,0,0,0,.583-2.492.141.141,0,0,0-.164-.154,7.323,7.323,0,0,0-3.941,1.728,9.875,9.875,0,0,0-2.833,3.492,6.6,6.6,0,0,0-.422,1.8,3.993,3.993,0,0,0,1.416.086" transform="translate(-166.28 -15.064)" fill="#8ab676"/>
            <path id="Trazado_1000038" data-name="Trazado 1000038" d="M256.172,147.915a5.606,5.606,0,0,0,2.088-.766c.179-.124.355-.252.526-.38a9.152,9.152,0,0,0,2.983-3.814,8.439,8.439,0,0,0,.624-2.749.147.147,0,0,0-.168-.168,7.517,7.517,0,0,0-4.1,1.936,11,11,0,0,0-2.965,3.869,7.71,7.71,0,0,0-.453,1.991,3.906,3.906,0,0,0,1.468.083" transform="translate(-167.534 -15.757)" fill="#5b895d"/>
            <path id="Trazado_1000039" data-name="Trazado 1000039" d="M262.189,90.684a30.676,30.676,0,0,1,6.113,9.564,55.313,55.313,0,0,1,3.206,11.394c.688,3.791,1.116,7.628,1.441,11.466a91.108,91.108,0,0,1,.014,14.926,97.539,97.539,0,0,1-1.516,11.06c-.191.018-.382.032-.572.051.135-.659.264-1.319.383-1.982q.646-3.652,1.021-7.345a91.764,91.764,0,0,0,.308-14.856c-.243-3.929-.662-7.868-1.28-11.756A62.769,62.769,0,0,0,268.5,101.79,32.746,32.746,0,0,0,263,91.8c-.294-.351-.6-.689-.92-1.021-.084-.09.025-.182.109-.094" transform="translate(-184.92 -10.199)" fill="#446b47"/>
            <path id="Trazado_1000040" data-name="Trazado 1000040" d="M270.738,146.587a7.813,7.813,0,0,1-2.725-.978c-.233-.154-.46-.313-.682-.47a11.278,11.278,0,0,1-3.836-4.667,9.427,9.427,0,0,1-.764-3.321c-.006-.137.089-.208.224-.2a10.325,10.325,0,0,1,5.343,2.44,13.5,13.5,0,0,1,3.813,4.731,8.665,8.665,0,0,1,.556,2.405,5.6,5.6,0,0,1-1.928.059" transform="translate(-184.929 -15.409)" fill="#8ab676"/>
            <path id="Trazado_1000041" data-name="Trazado 1000041" d="M271.779,140.253a7.812,7.812,0,0,1-2.844-.535c-.254-.115-.5-.236-.749-.357a11.285,11.285,0,0,1-4.525-4,9.442,9.442,0,0,1-1.279-3.159.184.184,0,0,1,.189-.231,10.33,10.33,0,0,1,5.661,1.565,13.512,13.512,0,0,1,4.513,4.069,8.655,8.655,0,0,1,.928,2.287,5.585,5.585,0,0,1-1.894.363" transform="translate(-185.621 -14.846)" fill="#5b895d"/>
            <path id="Trazado_1000042" data-name="Trazado 1000042" d="M270.8,134.179a6.51,6.51,0,0,1-2.463-.309c-.223-.088-.442-.18-.657-.273a9.51,9.51,0,0,1-4.049-3.275,8.325,8.325,0,0,1-1.23-2.717.165.165,0,0,1,.154-.214,8.562,8.562,0,0,1,4.921,1.057,11.4,11.4,0,0,1,4.042,3.334,7.613,7.613,0,0,1,.891,1.968,4.753,4.753,0,0,1-1.609.429" transform="translate(-184.376 -14.327)" fill="#8ab676"/>
            <path id="Trazado_1000043" data-name="Trazado 1000043" d="M270.13,129.409a6.5,6.5,0,0,1-2.4-.635c-.209-.117-.415-.238-.616-.359a9.616,9.616,0,0,1-3.6-3.793,8.412,8.412,0,0,1-.877-2.862.164.164,0,0,1,.178-.193,8.565,8.565,0,0,1,4.738,1.7,11.523,11.523,0,0,1,3.581,3.851,7.7,7.7,0,0,1,.636,2.073,4.684,4.684,0,0,1-1.646.212" transform="translate(-183.96 -13.678)" fill="#5b895d"/>
            <path id="Trazado_1000044" data-name="Trazado 1000044" d="M270.428,123.737a6.5,6.5,0,0,1-2.4-.635c-.209-.117-.414-.238-.616-.359a9.622,9.622,0,0,1-3.6-3.793,8.391,8.391,0,0,1-.876-2.862.163.163,0,0,1,.177-.193,8.566,8.566,0,0,1,4.738,1.7,11.523,11.523,0,0,1,3.581,3.851,7.7,7.7,0,0,1,.636,2.073,4.684,4.684,0,0,1-1.646.212" transform="translate(-184.522 -13.04)" fill="#8ab676"/>
            <path id="Trazado_1000045" data-name="Trazado 1000045" d="M271.226,117.929a6.5,6.5,0,0,1-2.4-.635c-.209-.117-.415-.238-.616-.359a9.622,9.622,0,0,1-3.6-3.793,8.391,8.391,0,0,1-.876-2.862.163.163,0,0,1,.177-.193,8.563,8.563,0,0,1,4.738,1.7,11.523,11.523,0,0,1,3.581,3.851,7.7,7.7,0,0,1,.636,2.073,4.687,4.687,0,0,1-1.646.212" transform="translate(-186.028 -12.387)" fill="#5b895d"/>
            <path id="Trazado_1000046" data-name="Trazado 1000046" d="M271.888,113.568a6.494,6.494,0,0,1-2.4-.635c-.209-.117-.415-.238-.616-.359a9.616,9.616,0,0,1-3.6-3.793,8.418,8.418,0,0,1-.877-2.862.164.164,0,0,1,.178-.193,8.566,8.566,0,0,1,4.738,1.7,11.523,11.523,0,0,1,3.581,3.851,7.7,7.7,0,0,1,.636,2.073,4.687,4.687,0,0,1-1.646.212" transform="translate(-187.278 -11.896)" fill="#8ab676"/>
            <path id="Trazado_1000047" data-name="Trazado 1000047" d="M272.864,108.773a6.5,6.5,0,0,1-2.4-.635c-.209-.117-.415-.238-.616-.359a9.615,9.615,0,0,1-3.6-3.793,8.411,8.411,0,0,1-.877-2.862.164.164,0,0,1,.178-.193,8.566,8.566,0,0,1,4.738,1.7,11.522,11.522,0,0,1,3.581,3.851,7.7,7.7,0,0,1,.636,2.073,4.684,4.684,0,0,1-1.646.212" transform="translate(-189.121 -11.356)" fill="#5b895d"/>
            <path id="Trazado_1000048" data-name="Trazado 1000048" d="M272.426,94.974a5.722,5.722,0,0,1-1.518-1.557c-.1-.181-.2-.364-.3-.545a8.353,8.353,0,0,1-1-4.449,7.247,7.247,0,0,1,.63-2.527.144.144,0,0,1,.222-.063,7.54,7.54,0,0,1,2.8,3.411,10,10,0,0,1,.958,4.485,6.652,6.652,0,0,1-.455,1.83,4.142,4.142,0,0,1-1.335-.586" transform="translate(-192.571 -9.655)" fill="#8ab676"/>
            <path id="Trazado_1000049" data-name="Trazado 1000049" d="M275.254,97.679a5.041,5.041,0,0,1-1.861-.493c-.162-.091-.322-.185-.478-.278a7.47,7.47,0,0,1-2.791-2.944,6.548,6.548,0,0,1-.681-2.222.127.127,0,0,1,.138-.149,6.655,6.655,0,0,1,3.678,1.323,8.94,8.94,0,0,1,2.779,2.989,6,6,0,0,1,.494,1.608,3.635,3.635,0,0,1-1.278.165" transform="translate(-194.752 -10.306)" fill="#5b895d"/>
            <path id="Trazado_1000050" data-name="Trazado 1000050" d="M274.576,103.378a6.5,6.5,0,0,1-2.4-.635c-.209-.117-.415-.238-.616-.359a9.615,9.615,0,0,1-3.6-3.793,8.417,8.417,0,0,1-.877-2.862.164.164,0,0,1,.178-.193,8.566,8.566,0,0,1,4.738,1.7,11.532,11.532,0,0,1,3.581,3.851,7.7,7.7,0,0,1,.636,2.073,4.684,4.684,0,0,1-1.646.212" transform="translate(-192.352 -10.749)" fill="#8ab676"/>
            <path id="Trazado_1000051" data-name="Trazado 1000051" d="M284.642,114.346a3.771,3.771,0,0,0,.485-1.355c.013-.138.023-.277.031-.413a5.572,5.572,0,0,0-.632-2.967,4.885,4.885,0,0,0-1.08-1.36.1.1,0,0,0-.151.022,4.964,4.964,0,0,0-.742,2.826,6.688,6.688,0,0,0,.664,2.978,4.487,4.487,0,0,0,.783.985,2.728,2.728,0,0,0,.643-.717" transform="translate(-215.023 -12.177)" fill="#78a067"/>
            <path id="Trazado_1000052" data-name="Trazado 1000052" d="M282.145,117.946a3.772,3.772,0,0,0,.485-1.355c.013-.138.023-.277.031-.413a5.581,5.581,0,0,0-.631-2.967,4.892,4.892,0,0,0-1.081-1.36.1.1,0,0,0-.151.022,4.964,4.964,0,0,0-.742,2.826,6.687,6.687,0,0,0,.664,2.978,4.484,4.484,0,0,0,.783.985,2.729,2.729,0,0,0,.643-.717" transform="translate(-210.31 -12.582)" fill="#5b895d"/>
            <path id="Trazado_1000053" data-name="Trazado 1000053" d="M278.845,121.3a3.769,3.769,0,0,0,.745-1.232c.04-.133.077-.266.113-.4a5.589,5.589,0,0,0-.028-3.033,4.9,4.9,0,0,0-.789-1.548.1.1,0,0,0-.152-.009,4.97,4.97,0,0,0-1.29,2.623,6.69,6.69,0,0,0,.059,3.051,4.451,4.451,0,0,0,.571,1.121,2.732,2.732,0,0,0,.772-.575" transform="translate(-205.087 -12.945)" fill="#78a067"/>
            <path id="Trazado_1000054" data-name="Trazado 1000054" d="M276.039,124.747a3.785,3.785,0,0,0,.951-1.08q.095-.186.181-.372a5.583,5.583,0,0,0,.509-2.99,4.878,4.878,0,0,0-.5-1.663.1.1,0,0,0-.148-.035,4.967,4.967,0,0,0-1.733,2.352,6.678,6.678,0,0,0-.483,3.013,4.479,4.479,0,0,0,.362,1.205,2.72,2.72,0,0,0,.863-.43" transform="translate(-200.686 -13.343)" fill="#5b895d"/>
            <path id="Trazado_1000055" data-name="Trazado 1000055" d="M273.919,129.186a4.614,4.614,0,0,0,1.149-1.226c.078-.138.153-.279.225-.416a6.05,6.05,0,0,0,.695-3.321,4.938,4.938,0,0,0-.532-1.821.112.112,0,0,0-.172-.034,6,6,0,0,0-2.108,2.656,7.232,7.232,0,0,0-.666,3.345,4.5,4.5,0,0,0,.385,1.32,3.478,3.478,0,0,0,1.023-.5" transform="translate(-196.947 -13.766)" fill="#78a067"/>
            <path id="Trazado_1000056" data-name="Trazado 1000056" d="M271.954,133.074a4.158,4.158,0,0,0,1.2-1.037c.088-.126.171-.253.254-.379a6.147,6.147,0,0,0,1-3.187,5.366,5.366,0,0,0-.3-1.889.106.106,0,0,0-.157-.061,5.477,5.477,0,0,0-2.242,2.308,7.367,7.367,0,0,0-.976,3.217,4.907,4.907,0,0,0,.217,1.368,2.993,2.993,0,0,0,1-.34" transform="translate(-193.773 -14.234)" fill="#5b895d"/>
            <path id="Trazado_1000057" data-name="Trazado 1000057" d="M270.543,136.966a4.158,4.158,0,0,0,1.2-1.037c.087-.126.171-.253.254-.378a6.152,6.152,0,0,0,1-3.188,5.367,5.367,0,0,0-.3-1.889.106.106,0,0,0-.157-.061,5.478,5.478,0,0,0-2.242,2.308,7.368,7.368,0,0,0-.976,3.217,4.908,4.908,0,0,0,.217,1.368,2.993,2.993,0,0,0,1-.34" transform="translate(-191.109 -14.672)" fill="#8ab676"/>
            <path id="Trazado_1000058" data-name="Trazado 1000058" d="M268.824,141.256a4.169,4.169,0,0,0,1.332-.86c.1-.113.2-.227.3-.34a6.149,6.149,0,0,0,1.435-3.017,5.4,5.4,0,0,0-.034-1.913.1.1,0,0,0-.146-.082,5.48,5.48,0,0,0-2.543,1.974,7.36,7.36,0,0,0-1.414,3.049,4.934,4.934,0,0,0,.023,1.386,3.006,3.006,0,0,0,1.043-.2" transform="translate(-188.656 -15.194)" fill="#5b895d"/>
            <path id="Trazado_1000059" data-name="Trazado 1000059" d="M267.714,144.871a4.149,4.149,0,0,0,1.332-.86c.1-.113.205-.227.3-.34a6.149,6.149,0,0,0,1.435-3.017,5.376,5.376,0,0,0-.034-1.913.1.1,0,0,0-.146-.082,5.48,5.48,0,0,0-2.543,1.974,7.361,7.361,0,0,0-1.414,3.048,4.936,4.936,0,0,0,.023,1.386,3.006,3.006,0,0,0,1.043-.2" transform="translate(-186.561 -15.601)" fill="#8ab676"/>
            <path id="Trazado_1000060" data-name="Trazado 1000060" d="M266.972,150.029a4.2,4.2,0,0,0,1.374-.937c.107-.122.211-.248.312-.371a6.853,6.853,0,0,0,1.464-3.311,6.3,6.3,0,0,0-.05-2.107.11.11,0,0,0-.153-.091,5.624,5.624,0,0,0-2.621,2.153,8.219,8.219,0,0,0-1.442,3.347,5.75,5.75,0,0,0,.035,1.526,2.939,2.939,0,0,0,1.079-.209" transform="translate(-185.196 -16.113)" fill="#5b895d"/>
            <path id="Trazado_1000061" data-name="Trazado 1000061" d="M269.91,111.022a22.929,22.929,0,0,1,6.18,5.816,41.433,41.433,0,0,1,4.407,7.674c1.192,2.623,2.2,5.327,3.142,8.049a68.194,68.194,0,0,1,2.74,10.818,73.289,73.289,0,0,1,.9,7.888h-.01c-.073.008-.146.012-.219.013s-.121.005-.18.009c-.017-.327-.034-.655-.057-.982q-.2-2.766-.6-5.511a68.543,68.543,0,0,0-2.493-10.826c-.895-2.8-1.918-5.583-3.077-8.289a46.987,46.987,0,0,0-4.121-7.763,24.51,24.51,0,0,0-5.816-6.239c-.277-.2-.564-.389-.854-.572-.077-.049-.015-.136.062-.088" transform="translate(-205.824 -12.49)" fill="#446b47"/>
            <path id="Trazado_1000062" data-name="Trazado 1000062" d="M277.936,149.962a5.854,5.854,0,0,1-2.154-.21q-.3-.105-.581-.217a8.43,8.43,0,0,1-3.634-2.682,7.053,7.053,0,0,1-1.161-2.268.138.138,0,0,1,.126-.185,7.723,7.723,0,0,1,4.319.792,10.107,10.107,0,0,1,3.629,2.733,6.482,6.482,0,0,1,.842,1.643,4.163,4.163,0,0,1-1.386.395" transform="translate(-198.39 -16.239)" fill="#8ab676"/>
            <path id="Trazado_1000063" data-name="Trazado 1000063" d="M279.7,145.306a5.861,5.861,0,0,1-2.16.132c-.205-.037-.408-.079-.608-.122a8.439,8.439,0,0,1-4.012-2.075,7.038,7.038,0,0,1-1.505-2.055.138.138,0,0,1,.095-.2,7.723,7.723,0,0,1,4.39.1,10.111,10.111,0,0,1,4.016,2.125A6.475,6.475,0,0,1,281,144.7a4.152,4.152,0,0,1-1.306.61" transform="translate(-200.953 -15.832)" fill="#5b895d"/>
            <path id="Trazado_1000064" data-name="Trazado 1000064" d="M279.874,140.82a4.868,4.868,0,0,1-1.842.226c-.178-.023-.354-.05-.526-.078a7.121,7.121,0,0,1-3.535-1.634,6.242,6.242,0,0,1-1.388-1.744.124.124,0,0,1,.072-.184,6.409,6.409,0,0,1,3.762-.134,8.538,8.538,0,0,1,3.539,1.679,5.716,5.716,0,0,1,1.006,1.263,3.539,3.539,0,0,1-1.088.605" transform="translate(-201.953 -15.421)" fill="#8ab676"/>
            <path id="Trazado_1000065" data-name="Trazado 1000065" d="M280.385,137.412a4.867,4.867,0,0,1-1.855-.021c-.173-.047-.344-.1-.512-.147a7.186,7.186,0,0,1-3.3-2.093,6.278,6.278,0,0,1-1.159-1.915.123.123,0,0,1,.094-.172,6.411,6.411,0,0,1,3.746.37,8.615,8.615,0,0,1,3.3,2.137,5.774,5.774,0,0,1,.84,1.386,3.509,3.509,0,0,1-1.155.455" transform="translate(-203.402 -14.955)" fill="#5b895d"/>
            <path id="Trazado_1000066" data-name="Trazado 1000066" d="M281.637,133.355a4.849,4.849,0,0,1-1.855-.022c-.173-.046-.344-.1-.512-.146a7.186,7.186,0,0,1-3.3-2.093,6.3,6.3,0,0,1-1.159-1.915.123.123,0,0,1,.094-.172,6.4,6.4,0,0,1,3.746.37,8.614,8.614,0,0,1,3.3,2.137,5.772,5.772,0,0,1,.84,1.386,3.5,3.5,0,0,1-1.155.455" transform="translate(-205.767 -14.499)" fill="#8ab676"/>
            <path id="Trazado_1000067" data-name="Trazado 1000067" d="M283.279,129.29a4.867,4.867,0,0,1-1.855-.021c-.173-.047-.344-.1-.512-.147a7.185,7.185,0,0,1-3.3-2.093,6.277,6.277,0,0,1-1.159-1.915.123.123,0,0,1,.094-.172,6.4,6.4,0,0,1,3.746.37,8.614,8.614,0,0,1,3.3,2.137,5.771,5.771,0,0,1,.84,1.386,3.517,3.517,0,0,1-1.155.455" transform="translate(-208.864 -14.042)" fill="#5b895d"/>
            <path id="Trazado_1000068" data-name="Trazado 1000068" d="M284.555,126.249a4.849,4.849,0,0,1-1.855-.022c-.173-.046-.344-.1-.512-.146a7.186,7.186,0,0,1-3.3-2.093,6.278,6.278,0,0,1-1.159-1.915.123.123,0,0,1,.094-.172,6.4,6.4,0,0,1,3.746.37,8.624,8.624,0,0,1,3.3,2.137,5.8,5.8,0,0,1,.84,1.386,3.5,3.5,0,0,1-1.155.455" transform="translate(-211.274 -13.699)" fill="#8ab676"/>
            <path id="Trazado_1000069" data-name="Trazado 1000069" d="M286.141,122.951a4.867,4.867,0,0,1-1.855-.021c-.173-.047-.344-.1-.512-.147a7.193,7.193,0,0,1-3.3-2.093,6.278,6.278,0,0,1-1.159-1.915.123.123,0,0,1,.094-.172,6.4,6.4,0,0,1,3.746.37,8.614,8.614,0,0,1,3.3,2.137,5.771,5.771,0,0,1,.84,1.386,3.5,3.5,0,0,1-1.155.455" transform="translate(-214.266 -13.328)" fill="#5b895d"/>
            <path id="Trazado_1000070" data-name="Trazado 1000070" d="M288.338,113.646a4.278,4.278,0,0,1-1.385-.851c-.109-.112-.216-.226-.319-.34a6.252,6.252,0,0,1-1.536-3.043,5.417,5.417,0,0,1,0-1.947.107.107,0,0,1,.148-.086,5.634,5.634,0,0,1,2.652,1.961,7.5,7.5,0,0,1,1.515,3.077,4.972,4.972,0,0,1,0,1.41,3.112,3.112,0,0,1-1.075-.181" transform="translate(-221.495 -12.081)" fill="#8ab676"/>
            <path id="Trazado_1000071" data-name="Trazado 1000071" d="M289.617,115.544a3.777,3.777,0,0,1-1.439-.017c-.134-.036-.267-.075-.4-.114a5.581,5.581,0,0,1-2.561-1.623,4.88,4.88,0,0,1-.9-1.487.1.1,0,0,1,.073-.134,4.975,4.975,0,0,1,2.908.288,6.687,6.687,0,0,1,2.561,1.659,4.494,4.494,0,0,1,.652,1.076,2.715,2.715,0,0,1-.9.353" transform="translate(-221.927 -12.608)" fill="#5b895d"/>
            <path id="Trazado_1000072" data-name="Trazado 1000072" d="M288.368,119.354a4.867,4.867,0,0,1-1.855-.021c-.173-.047-.344-.1-.512-.147a7.186,7.186,0,0,1-3.3-2.093,6.3,6.3,0,0,1-1.159-1.915.123.123,0,0,1,.094-.172,6.4,6.4,0,0,1,3.746.37,8.614,8.614,0,0,1,3.3,2.137,5.772,5.772,0,0,1,.84,1.386,3.5,3.5,0,0,1-1.155.455" transform="translate(-218.469 -12.924)" fill="#8ab676"/>
            <path id="Trazado_1000073" data-name="Trazado 1000073" d="M238.81,104.848a5.03,5.03,0,0,1-.648-1.813c-.018-.185-.031-.369-.042-.551a7.459,7.459,0,0,1,.845-3.968A6.515,6.515,0,0,1,240.41,96.7a.127.127,0,0,1,.2.029,6.653,6.653,0,0,1,.992,3.779,8.941,8.941,0,0,1-.889,3.984,6,6,0,0,1-1.045,1.318,3.627,3.627,0,0,1-.86-.959" transform="translate(-132.014 -10.876)" fill="#78a067"/>
            <path id="Trazado_1000074" data-name="Trazado 1000074" d="M242.15,109.663a5.031,5.031,0,0,1-.648-1.813c-.018-.185-.031-.369-.043-.551a7.476,7.476,0,0,1,.845-3.968,6.535,6.535,0,0,1,1.446-1.818.127.127,0,0,1,.2.029,6.652,6.652,0,0,1,.992,3.779,8.95,8.95,0,0,1-.889,3.984,5.977,5.977,0,0,1-1.046,1.318,3.639,3.639,0,0,1-.859-.959" transform="translate(-138.317 -11.418)" fill="#5b895d"/>
            <path id="Trazado_1000075" data-name="Trazado 1000075" d="M246.565,114.148a5.045,5.045,0,0,1-1-1.647c-.054-.178-.1-.357-.151-.532a7.475,7.475,0,0,1,.038-4.057,6.56,6.56,0,0,1,1.055-2.07.127.127,0,0,1,.2-.011,6.641,6.641,0,0,1,1.724,3.506,8.933,8.933,0,0,1-.078,4.081,6.006,6.006,0,0,1-.763,1.5,3.647,3.647,0,0,1-1.033-.769" transform="translate(-145.305 -11.903)" fill="#78a067"/>
            <path id="Trazado_1000076" data-name="Trazado 1000076" d="M250.266,118.759a5.063,5.063,0,0,1-1.273-1.445c-.084-.166-.164-.333-.242-.5a7.467,7.467,0,0,1-.681-4,6.537,6.537,0,0,1,.671-2.224.128.128,0,0,1,.2-.047,6.652,6.652,0,0,1,2.318,3.145,8.947,8.947,0,0,1,.646,4.03,5.961,5.961,0,0,1-.485,1.612,3.628,3.628,0,0,1-1.153-.574" transform="translate(-151.138 -12.435)" fill="#5b895d"/>
            <path id="Trazado_1000077" data-name="Trazado 1000077" d="M253,124.7a6.19,6.19,0,0,1-1.537-1.639c-.1-.185-.2-.373-.3-.557a8.091,8.091,0,0,1-.929-4.441,6.588,6.588,0,0,1,.712-2.436.15.15,0,0,1,.231-.045A8.029,8.029,0,0,1,254,119.13a9.684,9.684,0,0,1,.89,4.475,6.075,6.075,0,0,1-.515,1.764A4.652,4.652,0,0,1,253,124.7" transform="translate(-156.042 -13.001)" fill="#78a067"/>
            <path id="Trazado_1000078" data-name="Trazado 1000078" d="M255.6,129.9a5.56,5.56,0,0,1-1.6-1.387c-.117-.169-.229-.338-.339-.507a8.221,8.221,0,0,1-1.338-4.263,7.173,7.173,0,0,1,.4-2.528.14.14,0,0,1,.209-.082,7.331,7.331,0,0,1,3,3.088,9.874,9.874,0,0,1,1.305,4.3,6.6,6.6,0,0,1-.289,1.831,4,4,0,0,1-1.345-.454" transform="translate(-160.257 -13.627)" fill="#5b895d"/>
            <path id="Trazado_1000079" data-name="Trazado 1000079" d="M257.488,135.1a5.56,5.56,0,0,1-1.6-1.387c-.117-.169-.23-.339-.339-.507a8.221,8.221,0,0,1-1.338-4.263,7.17,7.17,0,0,1,.4-2.528.14.14,0,0,1,.209-.082,7.333,7.333,0,0,1,3,3.088,9.874,9.874,0,0,1,1.305,4.3,6.569,6.569,0,0,1-.29,1.831,4,4,0,0,1-1.344-.454" transform="translate(-163.818 -14.213)" fill="#8ab676"/>
            <path id="Trazado_1000080" data-name="Trazado 1000080" d="M259.69,140.84a5.558,5.558,0,0,1-1.781-1.15c-.139-.151-.274-.3-.406-.454a8.236,8.236,0,0,1-1.92-4.035,7.21,7.21,0,0,1,.045-2.559.14.14,0,0,1,.2-.109,7.325,7.325,0,0,1,3.4,2.639,9.864,9.864,0,0,1,1.892,4.078,6.614,6.614,0,0,1-.032,1.853,4,4,0,0,1-1.394-.263" transform="translate(-167.003 -14.911)" fill="#5b895d"/>
            <path id="Trazado_1000081" data-name="Trazado 1000081" d="M261.175,145.673a5.546,5.546,0,0,1-1.781-1.151c-.139-.15-.274-.3-.406-.453a8.236,8.236,0,0,1-1.92-4.035,7.211,7.211,0,0,1,.045-2.559.14.14,0,0,1,.2-.109,7.32,7.32,0,0,1,3.4,2.639,9.865,9.865,0,0,1,1.892,4.078,6.615,6.615,0,0,1-.032,1.853,4,4,0,0,1-1.394-.263" transform="translate(-169.806 -15.455)" fill="#8ab676"/>
            <path id="Trazado_1000082" data-name="Trazado 1000082" d="M262.147,152.573a5.615,5.615,0,0,1-1.838-1.253c-.143-.164-.282-.331-.417-.5a9.156,9.156,0,0,1-1.959-4.429,8.423,8.423,0,0,1,.067-2.818.148.148,0,0,1,.2-.122,7.521,7.521,0,0,1,3.5,2.881,11,11,0,0,1,1.929,4.476,7.747,7.747,0,0,1-.047,2.041,3.912,3.912,0,0,1-1.444-.279" transform="translate(-171.611 -16.14)" fill="#5b895d"/>
            <path id="Trazado_1000083" data-name="Trazado 1000083" d="M232.769,150.207q.331-3.277.878-6.527a91.277,91.277,0,0,1,3.664-14.47c1.255-3.641,2.608-7.257,4.2-10.765a55.365,55.365,0,0,1,5.895-10.264,30.69,30.69,0,0,1,8.266-7.779c.1-.065.187.052.083.118-.387.244-.77.5-1.141.764a32.762,32.762,0,0,0-7.778,8.344,62.8,62.8,0,0,0-5.511,10.383c-1.55,3.618-2.919,7.336-4.115,11.086a91.677,91.677,0,0,0-3.334,14.48c-.225,1.517-.408,3.039-.561,4.564a2.968,2.968,0,0,1-.546.066" transform="translate(-141.476 -11.295)" fill="#446b47"/>
            <path id="Trazado_1000084" data-name="Trazado 1000084" d="M246.709,152.483a7.847,7.847,0,0,0,2.881-.282c.264-.092.523-.191.777-.289a11.285,11.285,0,0,0,4.861-3.587,9.464,9.464,0,0,0,1.553-3.033.185.185,0,0,0-.169-.247,10.331,10.331,0,0,0-5.778,1.059,13.5,13.5,0,0,0-4.854,3.656,8.642,8.642,0,0,0-1.126,2.2,5.58,5.58,0,0,0,1.854.529" transform="translate(-153.191 -16.309)" fill="#8ab676"/>
            <path id="Trazado_1000085" data-name="Trazado 1000085" d="M244.24,146.256a7.835,7.835,0,0,0,2.889.177c.275-.05.547-.106.814-.162a11.29,11.29,0,0,0,5.367-2.774,9.443,9.443,0,0,0,2.013-2.75.185.185,0,0,0-.128-.27,10.314,10.314,0,0,0-5.872.133,13.5,13.5,0,0,0-5.371,2.842,8.655,8.655,0,0,0-1.459,1.991,5.6,5.6,0,0,0,1.747.815" transform="translate(-149.648 -15.764)" fill="#5b895d"/>
            <path id="Trazado_1000086" data-name="Trazado 1000086" d="M244.208,140.256a6.513,6.513,0,0,0,2.464.3c.238-.031.473-.067.7-.1a9.516,9.516,0,0,0,4.728-2.186,8.317,8.317,0,0,0,1.857-2.333.165.165,0,0,0-.1-.245,8.555,8.555,0,0,0-5.03-.178,11.4,11.4,0,0,0-4.734,2.245,7.624,7.624,0,0,0-1.346,1.689,4.764,4.764,0,0,0,1.455.809" transform="translate(-148.517 -15.215)" fill="#8ab676"/>
            <path id="Trazado_1000087" data-name="Trazado 1000087" d="M243.594,135.7a6.481,6.481,0,0,0,2.481-.029c.232-.062.461-.129.685-.2a9.626,9.626,0,0,0,4.415-2.8,8.415,8.415,0,0,0,1.55-2.562.163.163,0,0,0-.126-.23,8.569,8.569,0,0,0-5.011.494,11.528,11.528,0,0,0-4.414,2.859,7.736,7.736,0,0,0-1.124,1.854,4.685,4.685,0,0,0,1.544.609" transform="translate(-146.648 -14.592)" fill="#5b895d"/>
            <path id="Trazado_1000088" data-name="Trazado 1000088" d="M241.918,130.273a6.48,6.48,0,0,0,2.481-.029c.232-.062.461-.129.685-.2a9.626,9.626,0,0,0,4.415-2.8,8.432,8.432,0,0,0,1.55-2.562.163.163,0,0,0-.126-.23,8.569,8.569,0,0,0-5.011.494,11.528,11.528,0,0,0-4.414,2.859,7.719,7.719,0,0,0-1.124,1.854,4.686,4.686,0,0,0,1.544.609" transform="translate(-143.484 -13.982)" fill="#8ab676"/>
            <path id="Trazado_1000089" data-name="Trazado 1000089" d="M239.723,124.836a6.481,6.481,0,0,0,2.481-.029c.232-.062.461-.129.685-.2a9.626,9.626,0,0,0,4.415-2.8,8.432,8.432,0,0,0,1.55-2.562.163.163,0,0,0-.126-.23,8.569,8.569,0,0,0-5.011.494,11.528,11.528,0,0,0-4.414,2.859,7.736,7.736,0,0,0-1.124,1.854,4.686,4.686,0,0,0,1.544.609" transform="translate(-139.341 -13.37)" fill="#5b895d"/>
            <path id="Trazado_1000090" data-name="Trazado 1000090" d="M238.015,120.769a6.481,6.481,0,0,0,2.481-.029c.232-.062.461-.129.685-.2a9.626,9.626,0,0,0,4.415-2.8,8.414,8.414,0,0,0,1.55-2.562.163.163,0,0,0-.126-.23,8.569,8.569,0,0,0-5.011.494,11.528,11.528,0,0,0-4.414,2.859,7.719,7.719,0,0,0-1.124,1.854,4.686,4.686,0,0,0,1.544.609" transform="translate(-136.118 -12.912)" fill="#8ab676"/>
            <path id="Trazado_1000091" data-name="Trazado 1000091" d="M235.894,116.358a6.485,6.485,0,0,0,2.481-.029c.232-.062.461-.129.684-.2a9.614,9.614,0,0,0,4.414-2.8,8.42,8.42,0,0,0,1.551-2.562.163.163,0,0,0-.126-.23,8.572,8.572,0,0,0-5.012.494,11.535,11.535,0,0,0-4.414,2.859,7.744,7.744,0,0,0-1.123,1.854,4.688,4.688,0,0,0,1.543.609" transform="translate(-132.116 -12.416)" fill="#5b895d"/>
            <path id="Trazado_1000092" data-name="Trazado 1000092" d="M233.556,103.911a5.729,5.729,0,0,0,1.853-1.138c.146-.151.288-.3.426-.454a8.36,8.36,0,0,0,2.055-4.071,7.252,7.252,0,0,0,.006-2.6.144.144,0,0,0-.2-.115,7.545,7.545,0,0,0-3.546,2.623,10.013,10.013,0,0,0-2.026,4.114,6.652,6.652,0,0,0-.006,1.887,4.173,4.173,0,0,0,1.438-.242" transform="translate(-123.048 -10.748)" fill="#8ab676"/>
            <path id="Trazado_1000093" data-name="Trazado 1000093" d="M231.549,106.449a5.054,5.054,0,0,0,1.925-.022c.18-.049.358-.1.532-.153a7.465,7.465,0,0,0,3.427-2.173,6.525,6.525,0,0,0,1.2-1.987.127.127,0,0,0-.1-.179,6.659,6.659,0,0,0-3.889.383,8.964,8.964,0,0,0-3.426,2.219,6,6,0,0,0-.872,1.44,3.644,3.644,0,0,0,1.2.472" transform="translate(-122.172 -11.452)" fill="#5b895d"/>
            <path id="Trazado_1000094" data-name="Trazado 1000094" d="M232.917,111.546a6.481,6.481,0,0,0,2.481-.029c.232-.062.461-.129.685-.2a9.619,9.619,0,0,0,4.414-2.8,8.423,8.423,0,0,0,1.55-2.561.164.164,0,0,0-.126-.231,8.569,8.569,0,0,0-5.011.494,11.532,11.532,0,0,0-4.414,2.859,7.737,7.737,0,0,0-1.124,1.854,4.686,4.686,0,0,0,1.544.609" transform="translate(-126.495 -11.874)" fill="#8ab676"/>
            <rect id="Rectángulo_456760" data-name="Rectángulo 456760" width="366.088" height="7.138" transform="translate(-24.412 188.104)" fill="#87543a"/>
            <rect id="Rectángulo_456761" data-name="Rectángulo 456761" width="376.906" height="6.459" transform="translate(-30 181.65)" fill="#a4775a"/>
          </g>
        </g>
      </g>
    </g>
  </g>
</svg>
