<svg xmlns="http://www.w3.org/2000/svg" xmlns:xlink="http://www.w3.org/1999/xlink" width="133.45" height="133.449" viewBox="0 0 133.45 133.449">
  <defs>
    <clipPath id="clip-path">
      <rect id="Rectángulo_455533" data-name="Rectángulo 455533" width="133.292" height="127.766" fill="#62249e"/>
    </clipPath>
    <clipPath id="clip-path-2">
      <path id="path147" d="M0-682.665H84.518v84.518H0Z" transform="translate(0 682.665)" fill="#fff"/>
    </clipPath>
  </defs>
  <g id="Grupo_1180189" data-name="Grupo 1180189" transform="translate(-383.649 -8398.903)">
    <circle id="Elipse_13674" data-name="Elipse 13674" cx="58.05" cy="58.05" r="58.05" transform="translate(391.989 8407.91)" fill="#62249e"/>
    <g id="Grupo_1179062" data-name="Grupo 1179062" transform="translate(383.649 8398.903)">
      <rect id="Rectángulo_455531" data-name="Rectángulo 455531" width="133.45" height="133.45" transform="translate(0 0)" fill="none"/>
      <g id="Grupo_1179061" data-name="Grupo 1179061" transform="translate(0.078 3.252)">
        <path id="Trazado_998445" data-name="Trazado 998445" d="M122.283,97.814H96.727l3.464-6.46h25.555Z" transform="translate(3.481 3.63)" fill="#62249e"/>
        <path id="Trazado_998446" data-name="Trazado 998446" d="M2.1,86.893,0,91.168H28.175l2.1-4.275Z" transform="translate(0 3.48)" fill="#62249e"/>
        <path id="Trazado_998447" data-name="Trazado 998447" d="M125.792,32.758H98.809l2.116-4.791h26.983Z" transform="translate(3.602 1.118)" fill="#62249e"/>
        <path id="Trazado_998448" data-name="Trazado 998448" d="M38.929,13.012H3.483L5.6,8.221H41.045Z" transform="translate(0.202 0.476)" fill="#62249e"/>
        <g id="Grupo_1179060" data-name="Grupo 1179060" transform="translate(0)">
          <g id="Grupo_1179059" data-name="Grupo 1179059" clip-path="url(#clip-path)">
            <path id="Trazado_998449" data-name="Trazado 998449" d="M66.538,118.419A56.514,56.514,0,0,1,11.4,49.237H3.87a63.923,63.923,0,0,0,112.457,52.695h-9.86a56.412,56.412,0,0,1-39.928,16.487" transform="translate(0.108 2.001)" fill="#62249e"/>
            <path id="Trazado_998450" data-name="Trazado 998450" d="M110.835,89.074H119.2c.672-1.336,1.282-2.707,1.861-4.094h-8.042c-.676,1.4-1.4,2.764-2.184,4.094" transform="translate(4.583 3.454)" fill="#62249e"/>
            <path id="Trazado_998451" data-name="Trazado 998451" d="M130.35,63.883a63.942,63.942,0,0,0-124.977-19h7.76A56.572,56.572,0,1,1,118.914,84.967h7.837a63.562,63.562,0,0,0,3.6-21.084" transform="translate(0.222)" fill="#62249e"/>
            <path id="Trazado_998452" data-name="Trazado 998452" d="M108.562,81.649v3.466h4.551q.825-1.7,1.536-3.466Z" transform="translate(4.489 3.318)" fill="#62249e"/>
            <path id="Trazado_998453" data-name="Trazado 998453" d="M128.3,81.649h-6.319q-.617,1.758-1.33,3.466H128.3Z" transform="translate(4.989 3.318)" fill="#62249e"/>
          </g>
        </g>
        <path id="Trazado_998444" data-name="Trazado 998444" d="M3.174,37.025,0,43.485H19.184l3.174-6.46Z" transform="translate(0 1.471)" fill="#62249e"/>
      </g>
    </g>
    <g id="g141" transform="translate(407.683 9106.575)">
      <g id="g143" transform="translate(0 -682.665)">
        <g id="g145" clip-path="url(#clip-path-2)">
          <g id="g151" transform="translate(10.472 67.157)">
            <path id="path153" d="M23.084-2.261H-6.136A3.87,3.87,0,0,1-10-6.127V-8.762A1.238,1.238,0,0,1-8.762-10,1.238,1.238,0,0,1-7.524-8.762v2.635a1.391,1.391,0,0,0,1.388,1.39h29.22A1.238,1.238,0,0,1,24.322-3.5,1.238,1.238,0,0,1,23.084-2.261Z" transform="translate(10 10)" fill="#fff"/>
          </g>
          <g id="g155" transform="translate(57.987 5.263)">
            <path id="path157" d="M-3.326,28.791a1.238,1.238,0,0,1-1.238-1.238V-6.134a1.391,1.391,0,0,0-1.39-1.39H-8.762A1.238,1.238,0,0,1-10-8.762,1.238,1.238,0,0,1-8.762-10h2.808A3.87,3.87,0,0,1-2.088-6.134V27.553A1.238,1.238,0,0,1-3.326,28.791Z" transform="translate(10 10)" fill="#fff"/>
          </g>
          <g id="g159" transform="translate(24.709 0)">
            <path id="path161" d="M24.517,39.829a1.238,1.238,0,0,1-1.238-1.238V-6.134a1.391,1.391,0,0,0-1.39-1.39H-8.762A1.238,1.238,0,0,1-10-8.762,1.238,1.238,0,0,1-8.762-10h30.65a3.87,3.87,0,0,1,3.866,3.866V38.591A1.238,1.238,0,0,1,24.517,39.829Z" transform="translate(10 10)" fill="#fff"/>
          </g>
          <g id="g163" transform="translate(5.035 13.861)">
            <path id="path165" d="M-272.624-384.707H-307.28a3.87,3.87,0,0,1-3.866-3.866v-50.668a1.238,1.238,0,0,1,1.238-1.238,1.238,1.238,0,0,1,1.238,1.238v50.668a1.392,1.392,0,0,0,1.39,1.39h34.655a1.238,1.238,0,0,1,1.238,1.238A1.238,1.238,0,0,1-272.624-384.707Z" transform="translate(311.146 440.479)" fill="#fff"/>
          </g>
          <g id="g167" transform="translate(42.318 47.353)">
            <path id="path169" d="M-205.536-253.023h-20.919a8.132,8.132,0,0,1-8.123-8.123v-20.919a8.132,8.132,0,0,1,8.123-8.123h20.919a8.132,8.132,0,0,1,8.123,8.123v20.919A8.132,8.132,0,0,1-205.536-253.023Zm-20.919-34.689a5.653,5.653,0,0,0-5.647,5.647v20.919a5.653,5.653,0,0,0,5.647,5.647h20.919a5.653,5.653,0,0,0,5.647-5.647v-20.919a5.653,5.653,0,0,0-5.647-5.647Z" transform="translate(234.578 290.187)" fill="#fff"/>
          </g>
          <g id="g171" transform="translate(50.35 53.228)">
            <path id="path173" d="M-144.694-82.05a4.368,4.368,0,0,1,3.423,1.642l6.212,7.742a4.042,4.042,0,0,1,.51,4.347,4.05,4.05,0,0,1-3.674,2.422h-1.253v6.452a2.813,2.813,0,0,1-2.81,2.81H-147.1a2.813,2.813,0,0,1-2.81-2.81V-65.9h-1.171a4.076,4.076,0,0,1-3.756-2.42,4.054,4.054,0,0,1,.53-4.373l6.191-7.716A4.368,4.368,0,0,1-144.694-82.05Zm6.391,13.675a1.638,1.638,0,0,0,1.507-.986,1.62,1.62,0,0,0-.173-1.731l-6.233-7.767a1.9,1.9,0,0,0-1.492-.715,1.9,1.9,0,0,0-1.492.715l-6.212,7.742a1.634,1.634,0,0,0-.194,1.756,1.613,1.613,0,0,0,1.428.987h2.491a1.238,1.238,0,0,1,1.238,1.238v7.691a.335.335,0,0,0,.334.334h4.814a.335.335,0,0,0,.334-.334v-7.691a1.238,1.238,0,0,1,1.238-1.238h2.412Z" transform="translate(155.244 82.05)" fill="#fff"/>
          </g>
          <g id="g175" transform="translate(5.035 0)">
            <path id="path177" d="M2.494-105.62H-8.762a1.238,1.238,0,0,1-1.144-.765,1.238,1.238,0,0,1,.269-1.349L4.247-121.6a1.238,1.238,0,0,1,1.349-.267,1.238,1.238,0,0,1,.764,1.144v11.233A3.87,3.87,0,0,1,2.494-105.62ZM-5.77-108.1H2.494a1.391,1.391,0,0,0,1.389-1.389v-8.248Z" transform="translate(10 121.957)" fill="#fff"/>
          </g>
          <g id="g179" transform="translate(25.039 7.306)">
            <path id="path181" d="M-110.185-45.856h-11.626a3.948,3.948,0,0,1-3.943-3.943,3.949,3.949,0,0,1,3.943-3.949h11.626a3.948,3.948,0,0,1,3.943,3.943A3.949,3.949,0,0,1-110.185-45.856Zm-11.626-5.416a1.469,1.469,0,0,0-1.467,1.467,1.47,1.47,0,0,0,1.467,1.473h11.626a1.469,1.469,0,0,0,1.467-1.467,1.47,1.47,0,0,0-1.467-1.473Z" transform="translate(125.754 53.748)" fill="#fff"/>
          </g>
          <g id="g183" transform="translate(14.384 23.205)">
            <path id="path185" d="M25.546-7.524H-8.762A1.238,1.238,0,0,1-10-8.762,1.238,1.238,0,0,1-8.762-10H25.546a1.238,1.238,0,0,1,1.238,1.238A1.238,1.238,0,0,1,25.546-7.524Z" transform="translate(10 10)" fill="#fff"/>
          </g>
          <g id="g187" transform="translate(14.384 30.547)">
            <path id="path189" d="M25.546-7.524H-8.762A1.238,1.238,0,0,1-10-8.762,1.238,1.238,0,0,1-8.762-10H25.546a1.238,1.238,0,0,1,1.238,1.238A1.238,1.238,0,0,1,25.546-7.524Z" transform="translate(10 10)" fill="#fff"/>
          </g>
          <g id="g191" transform="translate(42.285 37.888)">
            <path id="path193" d="M-2.355-7.524H-8.762A1.238,1.238,0,0,1-10-8.762,1.238,1.238,0,0,1-8.762-10h6.407A1.238,1.238,0,0,1-1.117-8.762,1.238,1.238,0,0,1-2.355-7.524Z" transform="translate(10 10)" fill="#fff"/>
          </g>
          <g id="g195" transform="translate(14.384 37.888)">
            <path id="path197" d="M13.328-7.524H-8.762A1.238,1.238,0,0,1-10-8.762,1.238,1.238,0,0,1-8.762-10h22.09a1.238,1.238,0,0,1,1.238,1.238A1.238,1.238,0,0,1,13.328-7.524Z" transform="translate(10 10)" fill="#fff"/>
          </g>
          <g id="g199" transform="translate(14.384 45.229)">
            <path id="path201" d="M6.2-7.524H-8.762A1.238,1.238,0,0,1-10-8.762,1.238,1.238,0,0,1-8.762-10H6.2A1.238,1.238,0,0,1,7.436-8.762,1.238,1.238,0,0,1,6.2-7.524Z" transform="translate(10 10)" fill="#fff"/>
          </g>
          <g id="g203" transform="translate(14.384 52.57)">
            <path id="path205" d="M6.2-7.524H-8.762A1.238,1.238,0,0,1-10-8.762,1.238,1.238,0,0,1-8.762-10H6.2A1.238,1.238,0,0,1,7.436-8.762,1.238,1.238,0,0,1,6.2-7.524Z" transform="translate(10 10)" fill="#fff"/>
          </g>
        </g>
      </g>
    </g>
  </g>
</svg>
