<svg xmlns="http://www.w3.org/2000/svg" width="151.921" height="150.32" viewBox="0 0 151.921 150.32">
  <g id="analisis-de-riesgo" transform="translate(-16 -18.527)">
    <g id="Grupo_1180190" data-name="Grupo 1180190" transform="translate(20.903 27.778)">
      <path id="Trazado_999745" data-name="Trazado 999745" d="M135.99,174.771a2.481,2.481,0,0,1,2.51,4.28,71.29,71.29,0,0,1-74.044-1.166,2.483,2.483,0,1,1,2.646-4.2,66.425,66.425,0,0,0,68.887,1.088ZM36.447,109.839a2.486,2.486,0,0,1-4.942-.545A71.228,71.228,0,0,1,47.937,71.316a2.485,2.485,0,0,1,3.794,3.211,65.991,65.991,0,0,0-15.284,35.313Zm80.794-57.178a2.483,2.483,0,1,1,1.09-4.845,71.422,71.422,0,0,1,55.5,69.613,2.491,2.491,0,1,1-4.981,0,66.441,66.441,0,0,0-51.613-64.768Z" transform="translate(-31.49 -47.755)" fill="#19538d" fill-rule="evenodd"/>
      <path id="Trazado_999746" data-name="Trazado 999746" d="M57.4,127.681a2.48,2.48,0,0,1-1.829-4.611l8.736-3.465a2.482,2.482,0,0,1,3.394,2.4h0l-.37,9.392a2.483,2.483,0,1,1-4.961-.194l.22-5.582Z" transform="translate(-46.88 -96.745)" fill="#19538d" fill-rule="evenodd"/>
      <path id="Trazado_999747" data-name="Trazado 999747" d="M143.626,442a2.489,2.489,0,0,1,.389,4.962l-5.556.453,2.665,4.9a2.481,2.481,0,1,1-4.358,2.374l-4.4-8.088a2.489,2.489,0,0,1,1.893-3.835Z" transform="translate(-100.164 -317.217)" fill="#19538d" fill-rule="evenodd"/>
      <path id="Trazado_999748" data-name="Trazado 999748" d="M448.423,238.8a2.485,2.485,0,0,1,4.008-2.938l3.3,4.494,2.774-4.838a2.488,2.488,0,0,1,4.32,2.471l-4.675,8.154,0,0a2.486,2.486,0,0,1-4.161.235Z" transform="translate(-316.135 -175.237)" fill="#19538d" fill-rule="evenodd"/>
    </g>
    <g id="Grupo_1180192" data-name="Grupo 1180192" transform="translate(34.731 58.139)">
      <g id="Grupo_1180191" data-name="Grupo 1180191" transform="translate(0)">
        <path id="Trazado_999749" data-name="Trazado 999749" d="M124.811,149.8,151.6,196.2a12.233,12.233,0,0,1-10.594,18.35H87.429A12.233,12.233,0,0,1,76.835,196.2l26.788-46.4a12.233,12.233,0,0,1,21.188,0Z" transform="translate(-75.183 -143.684)" fill="#ffe177" fill-rule="evenodd"/>
        <path id="Trazado_999750" data-name="Trazado 999750" d="M131.37,149.876l26.788,46.4a12.233,12.233,0,0,1-10.594,18.349H93.988a12.137,12.137,0,0,1-9.209-4.174c.308.023.619.035.932.035h53.576a12.233,12.233,0,0,0,10.594-18.35l-26.788-46.4a12.428,12.428,0,0,0-1.385-1.943A12.142,12.142,0,0,1,131.37,149.876Z" transform="translate(-81.742 -143.759)" fill="#ffd064" fill-rule="evenodd"/>
      </g>
      <path id="Trazado_999751" data-name="Trazado 999751" d="M189.654,235.571a4.1,4.1,0,1,1-4.1,4.1A4.1,4.1,0,0,1,189.654,235.571Zm0-7.324a3.2,3.2,0,0,1-3.2-3.087l-.81-22.418a3.2,3.2,0,0,1,3.2-3.318h1.619a3.2,3.2,0,0,1,3.2,3.318l-.81,22.418A3.2,3.2,0,0,1,189.654,228.247Z" transform="translate(-150.619 -181.782)" fill="#fe646f" fill-rule="evenodd"/>
    </g>
    <g id="Grupo_1180193" data-name="Grupo 1180193" transform="translate(77.225 64.012)">
      <path id="Trazado_999752" data-name="Trazado 999752" d="M381.9,356.078a29.461,29.461,0,0,1-6.219,4l9.629,16.3,6.344-3.791Z" transform="translate(-323.07 -294.727)" fill="#a79ba7" fill-rule="evenodd"/>
      <path id="Trazado_999753" data-name="Trazado 999753" d="M391.515,355.874a3.4,3.4,0,0,1-1.932,1.525l9.519,16.363,2.055-1.315Z" transform="translate(-332.569 -294.588)" fill="#837683" fill-rule="evenodd"/>
      <path id="Trazado_999754" data-name="Trazado 999754" d="M410.755,425.231l7.16-4.279a2.671,2.671,0,0,0,.92-3.652l-11.5-19.243a2.671,2.671,0,0,0-3.652-.92l-7.16,4.279a2.672,2.672,0,0,0-.92,3.652l11.5,19.243A2.672,2.672,0,0,0,410.755,425.231Z" transform="translate(-336.428 -322.535)" fill="#f1ba84" fill-rule="evenodd"/>
      <path id="Trazado_999755" data-name="Trazado 999755" d="M425.1,397.439l11.5,19.243a2.671,2.671,0,0,1-.92,3.652l-7.16,4.279a2.644,2.644,0,0,1-.833.323,2.674,2.674,0,0,0,3.132.293l7.16-4.279a2.671,2.671,0,0,0,.92-3.652l-11.5-19.243a2.674,2.674,0,0,0-2.819-1.243A2.65,2.65,0,0,1,425.1,397.439Z" transform="translate(-356.487 -322.533)" fill="#e3a76f" fill-rule="evenodd"/>
      <circle id="Elipse_13849" data-name="Elipse 13849" cx="29.296" cy="29.296" r="29.296" transform="translate(0 41.424) rotate(-45)" fill="#9151d1"/>
      <path id="Trazado_999756" data-name="Trazado 999756" d="M328.655,202.986a29.3,29.3,0,0,1-15.165,56.6q-.691-.185-1.365-.4a29.3,29.3,0,0,0,15.147-56.528q.691.15,1.382.334Z" transform="translate(-279.627 -189.861)" fill="#541691" fill-rule="evenodd"/>
      <circle id="Elipse_13850" data-name="Elipse 13850" cx="21.036" cy="21.036" r="21.036" transform="matrix(0.211, -0.978, 0.978, 0.211, 16.482, 57.503)" fill="#eceff1"/>
      <path id="Trazado_999757" data-name="Trazado 999757" d="M300.4,227.357c.462.124.915.263,1.361.415A21.035,21.035,0,0,0,290.9,268.316c-.462-.091-.924-.2-1.386-.321A21.036,21.036,0,1,1,300.4,227.357Z" transform="translate(-253.509 -206.253)" fill="#d1d1d6" fill-rule="evenodd"/>
    </g>
    <g id="Grupo_1180194" data-name="Grupo 1180194" transform="translate(49.51 18.527)">
      <path id="Trazado_999758" data-name="Trazado 999758" d="M150.961,22.547a20.694,20.694,0,0,1,6.062,2.513l3.939-1.749,4.642,4.642-1.749,3.938a20.7,20.7,0,0,1,2.513,6.063l4.019,1.547v6.565l-4.02,1.547a20.694,20.694,0,0,1-2.513,6.062l1.749,3.939-4.642,4.643-3.938-1.749a20.7,20.7,0,0,1-6.063,2.513l-1.547,4.019h-6.565l-1.547-4.02a20.7,20.7,0,0,1-6.062-2.513L131.3,62.256l-4.642-4.642,1.749-3.938a20.71,20.71,0,0,1-2.513-6.064l-4.019-1.547V39.5l4.019-1.547a20.7,20.7,0,0,1,2.513-6.062l-1.749-3.939L131.3,23.31l3.939,1.75a20.708,20.708,0,0,1,6.062-2.513l1.547-4.02h6.565Z" transform="translate(-121.875 -18.527)" fill="#a79ba7" fill-rule="evenodd"/>
      <path id="Trazado_999759" data-name="Trazado 999759" d="M154.278,60.507l-3.939,1.749-.61-.61,3.692-1.639q.423.26.857.5ZM170,22.547a20.7,20.7,0,0,1,5.986,2.466q.037.025.076.047l-1.125.5a27.335,27.335,0,0,0-6.919-3.013l-1.547-4.02h1.982Zm-20.27,1.373.61-.61,3.939,1.75q-.434.239-.857.5Zm28.9,0L180,23.31l4.642,4.642-1.749,3.938a20.7,20.7,0,0,1,2.513,6.063l4.019,1.547v6.565l-4.02,1.547a20.7,20.7,0,0,1-2.513,6.062l1.749,3.939L180,62.256l-1.373-.61,4.033-4.033-1.749-3.939a20.694,20.694,0,0,0,2.513-6.062l4.02-1.547V39.5l-4.019-1.547a20.708,20.708,0,0,0-2.513-6.063l1.749-3.938Zm-2.642,36.635A20.711,20.711,0,0,1,170,63.021l-1.547,4.019H166.47l1.547-4.019a27.362,27.362,0,0,0,6.92-3.013l1.125.5a.875.875,0,0,0-.077.047Z" transform="translate(-140.913 -18.527)" fill="#837683" fill-rule="evenodd"/>
      <circle id="Elipse_13851" data-name="Elipse 13851" cx="14.102" cy="14.102" r="14.102" transform="matrix(0.987, -0.16, 0.16, 0.987, 8.07, 12.602)" fill="#eceff1"/>
      <path id="Trazado_999760" data-name="Trazado 999760" d="M168.058,50.608c.333,0,.664.012.991.035a14.1,14.1,0,0,0,0,28.134c-.328.023-.658.035-.991.035a14.1,14.1,0,0,1,0-28.2Z" transform="translate(-143.802 -40.454)" fill="#d1d1d6" fill-rule="evenodd"/>
    </g>
    <g id="Grupo_1180196" data-name="Grupo 1180196" transform="translate(16 98.804)">
      <g id="Grupo_1180195" data-name="Grupo 1180195" transform="translate(0)">
        <path id="Trazado_999761" data-name="Trazado 999761" d="M37.609,272.428l17.836,7.644a2.14,2.14,0,0,1,1.321,2V297.12c0,12.1-8.662,21.436-20.383,23.479C24.662,318.556,16,309.218,16,297.12V282.075a2.14,2.14,0,0,1,1.321-2l17.836-7.644A3.01,3.01,0,0,1,37.609,272.428Z" transform="translate(-16 -272.167)" fill="#cf9eff" fill-rule="evenodd"/>
        <path id="Trazado_999762" data-name="Trazado 999762" d="M78.267,272.428,96.1,280.072a2.14,2.14,0,0,1,1.321,2V297.12c0,12.1-8.662,21.436-20.383,23.479q-.788-.137-1.557-.319c10.923-2.567,18.826-11.605,18.826-23.16V282.075a2.14,2.14,0,0,0-1.321-2l-17.506-7.5.33-.141A3.008,3.008,0,0,1,78.267,272.428Z" transform="translate(-56.657 -272.167)" fill="#9151d1" fill-rule="evenodd"/>
      </g>
      <path id="Trazado_999763" data-name="Trazado 999763" d="M48.186,333.929a2.49,2.49,0,0,1,3.522-3.522l3.332,3.332,9.107-8.265a2.486,2.486,0,0,1,3.347,3.677l-10.765,9.77-.014.014a2.491,2.491,0,0,1-3.522,0Z" transform="translate(-37.5 -308.16)" fill="#eceff1" fill-rule="evenodd"/>
    </g>
  </g>
</svg>
