<svg xmlns="http://www.w3.org/2000/svg" xmlns:xlink="http://www.w3.org/1999/xlink" width="292" height="205" viewBox="0 0 292 205">
  <defs>
    <clipPath id="clip-path">
      <rect id="Rectángulo_456650" data-name="Rectángulo 456650" width="292" height="205" transform="translate(185.711 4493)" fill="#7a4f1e" stroke="#707070" stroke-width="1"/>
    </clipPath>
    <clipPath id="clip-path-2">
      <rect id="Rectángulo_456771" data-name="Rectángulo 456771" width="360.074" height="326.809" fill="none"/>
    </clipPath>
  </defs>
  <g id="Grupo_1180237" data-name="Grupo 1180237" transform="translate(-185.711 -4493)">
    <rect id="Rectángulo_456772" data-name="Rectángulo 456772" width="292" height="197" rx="53" transform="translate(185.711 4493)" fill="#f1e2ff"/>
    <g id="Enmascarar_grupo_1178516" data-name="Enmascarar grupo 1178516" clip-path="url(#clip-path)">
      <circle id="Elipse_13853" data-name="Elipse 13853" cx="131.5" cy="131.5" r="131.5" transform="translate(200.711 4516)" fill="#9ecfff"/>
      <g id="Grupo_1180235" data-name="Grupo 1180235" transform="translate(160.191 4493)">
        <g id="Grupo_1180234" data-name="Grupo 1180234" clip-path="url(#clip-path-2)">
          <path id="Trazado_1000095" data-name="Trazado 1000095" d="M57.627,186.289h67.441a6.986,6.986,0,0,0,6.606-8.991L99.466,66.281a6.9,6.9,0,0,0-6.6-5.024H25.421a6.985,6.985,0,0,0-6.6,8.991L51.023,181.265a6.9,6.9,0,0,0,6.6,5.024" transform="translate(14.113 46.655)" fill="#1c2123"/>
          <path id="Trazado_1000096" data-name="Trazado 1000096" d="M62.894,186.289h58.743a6.984,6.984,0,0,0,6.6-8.991L96.036,66.281a6.9,6.9,0,0,0-6.6-5.024H30.688a6.985,6.985,0,0,0-6.6,8.991L56.29,181.265a6.9,6.9,0,0,0,6.6,5.024" transform="translate(18.125 46.655)" fill="#edbc9c"/>
          <path id="Trazado_1000097" data-name="Trazado 1000097" d="M55.015,137.445H126.4a6.028,6.028,0,0,0,0-12.057H55.015a6.028,6.028,0,0,0,0,12.057" transform="translate(37.31 95.5)" fill="#1c2123"/>
          <rect id="Rectángulo_456764" data-name="Rectángulo 456764" width="57.693" height="6.071" transform="translate(82.802 313.618)" fill="#1c2123"/>
          <path id="Trazado_1000098" data-name="Trazado 1000098" d="M76.546,182.874a5.786,5.786,0,1,0,6.654-4.762,5.785,5.785,0,0,0-6.654,4.762" transform="translate(58.24 135.596)" fill="#1c2123"/>
          <rect id="Rectángulo_456765" data-name="Rectángulo 456765" width="6.071" height="84.097" transform="translate(109.373 232.005)" fill="#1c2123"/>
          <path id="Trazado_1000099" data-name="Trazado 1000099" d="M43.8,182.874a5.786,5.786,0,1,0,6.652-4.762,5.782,5.782,0,0,0-6.652,4.762" transform="translate(33.297 135.596)" fill="#1c2123"/>
          <path id="Trazado_1000100" data-name="Trazado 1000100" d="M44.407,137.445h71.381a6.028,6.028,0,0,0,0-12.057H44.407a6.028,6.028,0,0,0,0,12.057" transform="translate(29.231 95.5)" fill="#1c2123"/>
          <path id="Trazado_1000101" data-name="Trazado 1000101" d="M148.485,192.047l-10.728-34.074-17.065-.905,10.7,36.564,16.459.1Z" transform="translate(91.923 119.628)" fill="#edbc9c"/>
          <path id="Trazado_1000102" data-name="Trazado 1000102" d="M127.305,175.259s14.112,5.8,20.741-3.344L177.1,189.563l-54.168-.349Z" transform="translate(93.628 130.936)"/>
          <rect id="Rectángulo_456766" data-name="Rectángulo 456766" width="4.989" height="54.17" transform="matrix(0.006, -1, 1, 0.006, 216.525, 325.14)" fill="#fff"/>
          <path id="Trazado_1000103" data-name="Trazado 1000103" d="M137.564,179.029a.944.944,0,0,0,.4-.3,19.769,19.769,0,0,1,4.464-4.353.884.884,0,0,0,.264-1.263,1,1,0,0,0-1.325-.254,21.24,21.24,0,0,0-4.954,4.8.886.886,0,0,0,.211,1.274,1,1,0,0,0,.942.1" transform="translate(103.755 131.542)" fill="#fff"/>
          <path id="Trazado_1000104" data-name="Trazado 1000104" d="M140.211,180.354a.944.944,0,0,0,.4-.3,19.768,19.768,0,0,1,4.464-4.353.884.884,0,0,0,.264-1.263.993.993,0,0,0-1.325-.254,21.242,21.242,0,0,0-4.954,4.8.884.884,0,0,0,.211,1.274,1,1,0,0,0,.942.1" transform="translate(105.771 132.549)" fill="#fff"/>
          <path id="Trazado_1000105" data-name="Trazado 1000105" d="M142.857,181.676a.95.95,0,0,0,.395-.3,19.811,19.811,0,0,1,4.466-4.353.883.883,0,0,0,.264-1.261.992.992,0,0,0-1.325-.254,21.2,21.2,0,0,0-4.956,4.8.886.886,0,0,0,.211,1.274,1,1,0,0,0,.944.1" transform="translate(107.786 133.557)" fill="#fff"/>
          <path id="Trazado_1000106" data-name="Trazado 1000106" d="M102.343,101.551l14.831.942a24.613,24.613,0,0,1,22.149,17.949l23.245,89.528-29.5,1.413L102.343,128.33Z" transform="translate(77.948 77.345)" fill="#6f82e8"/>
          <path id="Trazado_1000107" data-name="Trazado 1000107" d="M117.988,171.666h38.9l-2.7-14.341h-38.9Z" transform="translate(87.809 119.823)" fill="#a0b0ff"/>
          <path id="Trazado_1000108" data-name="Trazado 1000108" d="M111.074,191.851l-.5-33.621-17.067-.905.47,36.112,16.459.1Z" transform="translate(71.222 119.824)" fill="#edbc9c"/>
          <path id="Trazado_1000109" data-name="Trazado 1000109" d="M94.317,175.259s14.112,5.8,20.741-3.344l29.053,17.648-54.168-.349Z" transform="translate(68.504 130.936)"/>
          <rect id="Rectángulo_456767" data-name="Rectángulo 456767" width="4.989" height="54.17" transform="matrix(0.006, -1, 1, 0.006, 158.412, 325.14)" fill="#fff"/>
          <path id="Trazado_1000110" data-name="Trazado 1000110" d="M104.576,179.029a.944.944,0,0,0,.4-.3,19.769,19.769,0,0,1,4.464-4.353.884.884,0,0,0,.264-1.263,1,1,0,0,0-1.325-.254,21.241,21.241,0,0,0-4.954,4.8.886.886,0,0,0,.211,1.274,1,1,0,0,0,.942.1" transform="translate(78.631 131.542)" fill="#fff"/>
          <path id="Trazado_1000111" data-name="Trazado 1000111" d="M107.223,180.354a.944.944,0,0,0,.4-.3,19.71,19.71,0,0,1,4.466-4.353.884.884,0,0,0,.262-1.263.993.993,0,0,0-1.325-.254,21.242,21.242,0,0,0-4.954,4.8.886.886,0,0,0,.211,1.274,1,1,0,0,0,.942.1" transform="translate(80.647 132.549)" fill="#fff"/>
          <path id="Trazado_1000112" data-name="Trazado 1000112" d="M109.869,181.676a.944.944,0,0,0,.4-.3,19.811,19.811,0,0,1,4.466-4.353.883.883,0,0,0,.264-1.261.992.992,0,0,0-1.325-.254,21.157,21.157,0,0,0-4.955,4.8.884.884,0,0,0,.211,1.274,1,1,0,0,0,.942.1" transform="translate(82.662 133.557)" fill="#fff"/>
          <path id="Trazado_1000113" data-name="Trazado 1000113" d="M49.729,97.23l54.385,6.573h34.7a18.494,18.494,0,0,1,18.5,18.217c.463,31.091-1.941,95.708-3.4,95.415-1.973-.395-30.376,0-30.376,0l-2.887-70.6-47.33.395c-4.883-1.374-37.012-6.138-23.588-50" transform="translate(35.397 74.054)" fill="#8292fd"/>
          <rect id="Rectángulo_456768" data-name="Rectángulo 456768" width="38.899" height="14.341" transform="translate(155.607 277.149)" fill="#a0b0ff"/>
          <path id="Trazado_1000114" data-name="Trazado 1000114" d="M121.368,84.473l-31.211-4.5,5.581,15.745,28.244,1.323Z" transform="translate(68.667 60.91)" fill="#e3b99a"/>
          <path id="Trazado_1000115" data-name="Trazado 1000115" d="M110,82.653c-5.389,3.474-7.106,8.6-1.977,12.763s13.66,4.716,19.049,1.24,5.572-8.6.44-12.763A14.891,14.891,0,0,0,110,82.653" transform="translate(79.934 61.213)" fill="#e3b99a"/>
          <path id="Trazado_1000116" data-name="Trazado 1000116" d="M122.564,80.523,91.806,77.694c-5.6-.942-12.243,3.465-13.556,8.99a10.784,10.784,0,0,0,9.314,13.207l31.847-1.566Z" transform="translate(59.374 59.077)" fill="#fff"/>
          <path id="Trazado_1000117" data-name="Trazado 1000117" d="M95.442,55.437s11.243,18.987,10.383,57.038L79,117.993l3.025-56.2Z" transform="translate(60.165 42.223)" fill="#fff"/>
          <path id="Trazado_1000118" data-name="Trazado 1000118" d="M92.561,46.175S68.051,45.4,59.953,63.086,45.6,139.968,45.6,139.968s22.739,13.477,64.61,2.743l10.661-80.2s-11.25-17.206-28.313-16.339" transform="translate(34.733 35.144)" fill="#fff"/>
          <path id="Trazado_1000119" data-name="Trazado 1000119" d="M88.373,62.13c-.373,26.257-6.219,41.416-6.219,41.416" transform="translate(62.571 47.32)" fill="none" stroke="#dddada" stroke-miterlimit="10" stroke-width="0.976"/>
          <path id="Trazado_1000120" data-name="Trazado 1000120" d="M45.638,99.6l15.8-40.606c.042-.081,1.952-2.51,2-2.591l.014-.025,0,0a12.062,12.062,0,0,1,22.623,5.829c0,2.012,2.442,2.683,1.568,4.351-.032.06-1.295,3.2-1.328,3.263L70.639,110.447c-2.967,5.2-14.759,7.163-20.106,4.478a11.257,11.257,0,0,1-4.9-15.328" transform="translate(33.761 38.191)" fill="#fff"/>
          <line id="Línea_3351" data-name="Línea 3351" y1="24.798" x2="9.638" transform="translate(108.203 108.841)" fill="none" stroke="#dddada" stroke-miterlimit="10" stroke-width="0.976"/>
          <path id="Trazado_1000121" data-name="Trazado 1000121" d="M98.8,82.735l-31.211-4.5,5.581,15.744L101.416,95.3Z" transform="translate(51.48 59.587)" fill="#e3b99a"/>
          <path id="Trazado_1000122" data-name="Trazado 1000122" d="M87.437,80.915c-5.389,3.474-7.106,8.6-1.977,12.763s13.66,4.716,19.049,1.24,5.572-8.6.44-12.763a14.891,14.891,0,0,0-17.512-1.24" transform="translate(62.747 59.889)" fill="#e3b99a"/>
          <path id="Trazado_1000123" data-name="Trazado 1000123" d="M108.424,79.416,58.177,75.128c-5.6-.942-12.245,3.463-13.556,8.988a10.783,10.783,0,0,0,9.314,13.209l51.336-.107Z" transform="translate(33.761 57.123)" fill="#fff"/>
          <path id="Trazado_1000124" data-name="Trazado 1000124" d="M98,83.581l.647-4.543-41.02-3.5" transform="translate(43.892 57.532)" fill="none" stroke="#dddada" stroke-miterlimit="10" stroke-width="0.976"/>
          <path id="Trazado_1000125" data-name="Trazado 1000125" d="M92.4,37.486s14.127-10.517,7.668-20.262-18.18-1.3-18.18-1.3Z" transform="translate(62.368 9.541)" fill="#1f2326"/>
          <path id="Trazado_1000126" data-name="Trazado 1000126" d="M92.978,13.161S53.177,7.527,70.7,38.35l4.529-12.5Z" transform="translate(50.452 9.716)" fill="#1f2326"/>
          <path id="Trazado_1000127" data-name="Trazado 1000127" d="M89.981,17.762s6.666,5.57-1.695,17.8L86.058,19.957Z" transform="translate(65.545 13.528)" fill="#1f2326"/>
          <path id="Trazado_1000128" data-name="Trazado 1000128" d="M84.055,32.256a6.053,6.053,0,0,0,5.181,6.779,5.989,5.989,0,0,0,6.581-5.369,6.054,6.054,0,0,0-5.181-6.779,5.99,5.99,0,0,0-6.581,5.369" transform="translate(63.987 20.446)" fill="#d39d7e"/>
          <path id="Trazado_1000129" data-name="Trazado 1000129" d="M90.477,40.274,85.382,59.5c-1.224,5.267-4.77,4.082-7.448,3.992-4.168-.245-8.85-2.119-8.449-6.627l6.064-24.429Z" transform="translate(52.904 24.702)" fill="#edbc9c"/>
          <path id="Trazado_1000130" data-name="Trazado 1000130" d="M86.03,59.88h0c8.331.423,15.534-6.025,16.119-13.04l1.142-14.68A16.168,16.168,0,0,0,89.384,14.567C80.7,13.526,71.3,19.771,70.264,28.743l-.752,11.451A18.352,18.352,0,0,0,86.03,59.88" transform="translate(52.908 11.008)" fill="#edbc9c"/>
          <path id="Trazado_1000131" data-name="Trazado 1000131" d="M83.83,30.969l.247,4.142-2.19,0" transform="translate(62.368 23.587)" fill="none" stroke="#000" stroke-linecap="round" stroke-linejoin="round" stroke-width="0.523"/>
          <path id="Trazado_1000132" data-name="Trazado 1000132" d="M79.282,25.258s3.634-.166,3.611,1.358c0,0-.042,1.032-3.211,1.112s-3.981-.19-4.233-1.17,2.133-1.356,3.833-1.3" transform="translate(57.45 19.233)" fill="#1f2326"/>
          <path id="Trazado_1000133" data-name="Trazado 1000133" d="M87.624,25.866s-2.979-.435-3.278.985c0,0-.18.964,2.429,1.284s3.476.011,3.754-.761c.314-.876-1.485-1.429-2.9-1.508" transform="translate(64.238 19.653)" fill="#1f2326"/>
          <path id="Trazado_1000134" data-name="Trazado 1000134" d="M84.824,30.55a1.523,1.523,0,1,0,1.63-1.457,1.552,1.552,0,0,0-1.63,1.457" transform="translate(64.601 22.155)" fill="#1f2326"/>
          <path id="Trazado_1000135" data-name="Trazado 1000135" d="M77.271,29.995a1.522,1.522,0,1,0,1.63-1.457,1.553,1.553,0,0,0-1.63,1.457" transform="translate(58.849 21.732)" fill="#1f2326"/>
          <path id="Trazado_1000136" data-name="Trazado 1000136" d="M104.52,29.787s.55-3.854-7.017-4.793-17.306-.3-22.7,6.439l-.12,10.61-6.756-6.668,3.555-15.8,20.209-6.589L103.787,21.4Z" transform="translate(51.737 9.891)" fill="#1f2326"/>
          <path id="Trazado_1000137" data-name="Trazado 1000137" d="M65.171,31a6,6,0,0,0,5.13,6.714A5.933,5.933,0,0,0,76.819,32.4a6,6,0,0,0-5.13-6.714A5.93,5.93,0,0,0,65.171,31" transform="translate(49.605 19.533)" fill="#edbc9c"/>
          <path id="Trazado_1000138" data-name="Trazado 1000138" d="M70.769,32.039s.5-4.36-3.613-4.159" transform="translate(51.148 21.229)" fill="none" stroke="#000" stroke-linecap="round" stroke-linejoin="round" stroke-width="0.523"/>
          <path id="Trazado_1000139" data-name="Trazado 1000139" d="M96.841,18.263s1.8-4.6-4.54-7.161C86.847,8.9,81.208,9.841,69.037,18.08Z" transform="translate(52.581 7.679)" fill="#1f2326"/>
          <path id="Trazado_1000140" data-name="Trazado 1000140" d="M100.489,48.076a2.4,2.4,0,0,0-1.453-2.17,24.448,24.448,0,0,0-6.15-1.7c-3.661-.573-8.94.588-11.785,1.339a2.686,2.686,0,0,1-3.081-1.381c-1.89-3.775-5.348-12.612-2.722-22.875L71.09,24.34l.551,6.47s3.284,7-1.857,10.11c0,0-.245,14.491,13.181,17.105a20.1,20.1,0,0,0,11.884-1.577,9.787,9.787,0,0,0,5.641-8.373" transform="translate(53.15 16.217)" fill="#1f2326"/>
          <path id="Trazado_1000141" data-name="Trazado 1000141" d="M87.427,47.869s1.381.3,5.8,2.889c0,0,2.2,6.92-10.508,5.995-12.273-.893-16.871-9.234-16.871-9.234A29.275,29.275,0,0,1,76.54,46.173a76.414,76.414,0,0,1,10.887,1.7" transform="translate(50.153 35.116)" fill="#edbc9c"/>
          <path id="Trazado_1000142" data-name="Trazado 1000142" d="M72.95,31.3s8.828-2.059,5.424-10.675-7.552,2.341-7.552,2.341Z" transform="translate(53.94 13.189)" fill="#1f2326"/>
          <path id="Trazado_1000143" data-name="Trazado 1000143" d="M107.815,85.805H151.8a1.77,1.77,0,1,1,0,3.541H107.815a1.77,1.77,0,1,1,0-3.541" transform="translate(80.767 65.352)" fill="#121314"/>
          <path id="Trazado_1000144" data-name="Trazado 1000144" d="M94.99,85.805h31.642a1.77,1.77,0,1,1,0,3.541H94.99a1.77,1.77,0,0,1,0-3.541" transform="translate(70.999 65.352)" fill="#455157"/>
          <path id="Trazado_1000145" data-name="Trazado 1000145" d="M112.174,107.449h92.815a4.139,4.139,0,0,0,4.138-4.138V44a4.139,4.139,0,0,0-4.138-4.138H112.174A4.139,4.139,0,0,0,108.036,44V103.31a4.139,4.139,0,0,0,4.138,4.138" transform="translate(82.284 30.359)" fill="#455157"/>
          <path id="Trazado_1000146" data-name="Trazado 1000146" d="M113.433,107.449h92.815a4.139,4.139,0,0,0,4.138-4.138V44a4.139,4.139,0,0,0-4.138-4.138H113.433A4.139,4.139,0,0,0,109.295,44V103.31a4.139,4.139,0,0,0,4.138,4.138" transform="translate(83.243 30.359)" fill="#2e353a"/>
          <path id="Trazado_1000147" data-name="Trazado 1000147" d="M144.765,57.7,120.541,93.861h34.845Z" transform="translate(91.808 43.946)" fill="#121314"/>
          <path id="Trazado_1000148" data-name="Trazado 1000148" d="M151.844,57.175H136.261a2.209,2.209,0,0,0-2.165,2.65l10.062,49.556a2.21,2.21,0,0,0,2.165,1.77h16.359a2.21,2.21,0,0,0,2.158-2.683L154,58.912a2.208,2.208,0,0,0-2.158-1.737" transform="translate(102.097 43.546)" fill="#455157"/>
          <path id="Trazado_1000149" data-name="Trazado 1000149" d="M132,85.805h28.748v3.541H132a1.77,1.77,0,0,1,0-3.541" transform="translate(99.187 65.352)" fill="#455157"/>
          <line id="Línea_3352" data-name="Línea 3352" y2="164.943" transform="translate(279.35 160.215)" fill="none" stroke="#e8e2df" stroke-miterlimit="10" stroke-width="1.952"/>
          <line id="Línea_3353" data-name="Línea 3353" y2="164.943" transform="translate(125.861 160.215)" fill="none" stroke="#e8e2df" stroke-miterlimit="10" stroke-width="1.952"/>
          <rect id="Rectángulo_456769" data-name="Rectángulo 456769" width="165.74" height="11.035" transform="translate(152.485 154.698)" fill="#baaea7"/>
          <rect id="Rectángulo_456770" data-name="Rectángulo 456770" width="61.846" height="11.035" transform="translate(90.64 154.698)" fill="#e8e2df"/>
          <line id="Línea_3354" data-name="Línea 3354" x1="360.065" y2="1.719" transform="translate(0.004 324.23)" fill="none" stroke="#baaea7" stroke-miterlimit="10" stroke-width="0.976"/>
          <circle id="Elipse_13852" data-name="Elipse 13852" cx="26.717" cy="26.717" r="26.717" transform="translate(43.558 13.475)" fill="none" stroke="#baaea7" stroke-miterlimit="10" stroke-width="0.976"/>
          <path id="Trazado_1000150" data-name="Trazado 1000150" d="M22.862,9.171V20.593H40.9" transform="translate(47.413 19.599)" fill="none" stroke="#baaea7" stroke-miterlimit="10" stroke-width="0.976"/>
        </g>
      </g>
    </g>
  </g>
</svg>
