<svg xmlns="http://www.w3.org/2000/svg" xmlns:xlink="http://www.w3.org/1999/xlink" width="96" height="96" viewBox="0 0 96 96">
  <defs>
    <clipPath id="clip-path">
      <rect id="Rectángulo_465018" data-name="Rectángulo 465018" width="50" height="49.997" fill="#19538d"/>
    </clipPath>
  </defs>
  <g id="Grupo_1215076" data-name="Grupo 1215076" transform="translate(0 -0.001)">
    <circle id="Elipse_13890" data-name="Elipse 13890" cx="48" cy="48" r="48" transform="translate(0 0)" fill="#5a9ad7"/>
    <path id="Intersección_1" data-name="Intersección 1" d="M0,47.89A47.893,47.893,0,0,1,79.511,11.92L1.1,58.131A48,48,0,0,1,0,47.89Z" transform="translate(0.109 0.108)" fill="#19538d"/>
    <path id="Trazado_1032916" data-name="Trazado 1032916" d="M40,0A40,40,0,1,1,0,40,40,40,0,0,1,40,0Z" transform="translate(8 8)" fill="#e6f3ff"/>
    <g id="Grupo_1188343" data-name="Grupo 1188343" transform="translate(22.001 22)">
      <rect id="Rectángulo_459838" data-name="Rectángulo 459838" width="52" height="52" transform="translate(-0.036 -0.472)" fill="none"/>
      <g id="Grupo_1215120" data-name="Grupo 1215120" transform="translate(0.964 0.528)">
        <g id="Grupo_1215119" data-name="Grupo 1215119" clip-path="url(#clip-path)">
          <path id="Trazado_1283713" data-name="Trazado 1283713" d="M40.308,48.386H16.125l.018-1.847a3.157,3.157,0,0,1,3.306-2.991l1.521.007,0-3.226-10.6-.018A4.069,4.069,0,0,1,6.429,36.1l.018-5.431-4.158-.041A2.377,2.377,0,0,1,0,28.116L0,2.43A2.39,2.39,0,0,1,2.435.006L32.94,0a2.4,2.4,0,0,1,2.534,2.278l.038,2.553,10.5.016A4.008,4.008,0,0,1,50,8.961V36.21a4,4,0,0,1-3.981,4.105L35.5,40.333V43.55l2.152.067a2.946,2.946,0,0,1,2.639,2.826ZM33.867,1.618l-32.244,0V6.447l32.244,0Zm1.624,37.075.009-3.2h4.822v3.2l1.616-.009.013-3.194,4.808.005.024,3.04a2.362,2.362,0,0,0,1.59-2.1l0-27.575A2.355,2.355,0,0,0,46.1,6.466l-10.6-.021v1.61l9.659,0a1.642,1.642,0,0,1,1.6,1.757V32.095c0,.79-.47,1.784-1.431,1.784l-34.152,0a1.655,1.655,0,0,1-1.519-1.741l.016-1.494-1.635.018.022,5.711a2.368,2.368,0,0,0,2.31,2.313ZM33.867,8.061H1.623V29.027H33.867ZM42,23.825l.479,1.083L39.395,28l-1.174-.591-.916.377L36.893,29l-1.583.057a2.34,2.34,0,0,1-2.1,1.592l-21.867.009.012,1.61h33.81l0-22.592H35.507l.012,1.612,1.35.008.441,1.255.962.354,1.145-.558,3.072,3.091-.518,1.106a1.393,1.393,0,0,0,.509,1.037l1.086.447-.012,4.319-1.183.425A1.468,1.468,0,0,0,42,23.825m-.966-2.316.905-.338-.006-1.991-.948-.432-.863-2.154L40.5,15.7,39.1,14.325l-.879.4L36.062,13.8l-.524-1-.047,3.412a4.03,4.03,0,0,1,0,7.893l.047,3.422.52-1,2.162-.914.908.386,1.4-1.426-.409-.925ZM35.52,22.4a2.387,2.387,0,0,0-.028-4.493Zm3.174,14.678H37.079V38.7h1.615Zm4.866,0V38.7h1.6V37.08Zm-9.691,3.248H22.59v3.226H33.868Zm4.808,6.43a1.577,1.577,0,0,0-1.342-1.588l-17.717-.007a1.681,1.681,0,0,0-1.881,1.6Z" transform="translate(0 0)" fill="#19538d"/>
          <path id="Trazado_1283714" data-name="Trazado 1283714" d="M9.038,303.308l-6.6.021a2.4,2.4,0,0,1-2.412-2.554,5.651,5.651,0,0,1,11.29-.2,2.4,2.4,0,0,1-2.276,2.729m-.05-1.6a.814.814,0,0,0,.7-.8,4.023,4.023,0,0,0-8.045-.089.832.832,0,0,0,.841.889Z" transform="translate(-0.02 -253.332)" fill="#19538d"/>
          <path id="Trazado_1283715" data-name="Trazado 1283715" d="M51.866,85.837l-6.459.009-.029-1.6H43.8l-.028,1.594-6.445,0-.016-1.6-1.579-.005-.017,1.6-6.445.009-.018-1.606-4.826,0-.006-11.468a2.287,2.287,0,0,1-1.566-2.6,2.386,2.386,0,0,1,2.082-2.034,2.443,2.443,0,0,1,2.58,1.589l8.164,0,.034-1.61,9.679,0v4.831H41.36v1.6l4.02.007.031,1.61,4.015.012,0,4.855h2.439Zm-25.834-15.3a.8.8,0,1,0-.8.8.8.8,0,0,0,.8-.8m17.754-.8H37.316v1.616h6.469ZM39.758,81.026l-.011-1.6-4.044-.01V74.547l4.045-.009v-1.6H35.708l-.035-1.585-8.124,0a3.319,3.319,0,0,1-1.511,1.474v9.8l3.22,0,.011-1.6,6.444.007.021,1.6,1.577-.007.01-1.6Zm4.027-4.864H37.317v1.625h6.469Zm.025,6.484,1.573-.032.013-1.59h2.423V77.783l-2.425.009-.01,1.625-4.024,0,0,1.6h2.419Zm-9.72-.008h-3.2v1.624h3.2Zm8.091,0H38.94v1.626h3.241Zm8.057,0H47v1.627h3.242Z" transform="translate(-19.588 -58.432)" fill="#19538d"/>
          <rect id="Rectángulo_465015" data-name="Rectángulo 465015" width="1.62" height="1.613" transform="translate(6.438 3.231)" fill="#19538d"/>
          <rect id="Rectángulo_465016" data-name="Rectángulo 465016" width="1.632" height="1.614" transform="translate(9.675 3.23)" fill="#19538d"/>
          <rect id="Rectángulo_465017" data-name="Rectángulo 465017" width="1.607" height="1.613" transform="translate(3.231 3.232)" fill="#19538d"/>
        </g>
      </g>
    </g>
  </g>
</svg>
