<svg xmlns="http://www.w3.org/2000/svg" xmlns:xlink="http://www.w3.org/1999/xlink" width="96" height="96" viewBox="0 0 96 96">
  <defs>
    <clipPath id="clip-path">
      <rect id="Rectángulo_465019" data-name="Rectángulo 465019" width="40.529" height="48.64" fill="#19538d"/>
    </clipPath>
  </defs>
  <g id="Grupo_1215111" data-name="Grupo 1215111" transform="translate(0 0)">
    <circle id="Elipse_13890" data-name="Elipse 13890" cx="48" cy="48" r="48" transform="translate(0 0)" fill="#5a9ad7"/>
    <path id="Intersección_1" data-name="Intersección 1" d="M0,47.89A47.893,47.893,0,0,1,79.511,11.92L1.1,58.131A48,48,0,0,1,0,47.89Z" transform="translate(0.109 0.108)" fill="#19538d"/>
    <path id="Trazado_1032916" data-name="Trazado 1032916" d="M40,0A40,40,0,1,1,0,40,40,40,0,0,1,40,0Z" transform="translate(8 8)" fill="#e6f3ff"/>
    <g id="Grupo_1188343" data-name="Grupo 1188343" transform="translate(22.001 22)">
      <rect id="Rectángulo_459838" data-name="Rectángulo 459838" width="52" height="52" transform="translate(-0.036 0.151)" fill="none"/>
      <g id="Grupo_1215122" data-name="Grupo 1215122" transform="translate(5.964 1.15)">
        <g id="Grupo_1215121" data-name="Grupo 1215121" clip-path="url(#clip-path)">
          <path id="Trazado_1283716" data-name="Trazado 1283716" d="M4.861,44.615l-1.717-.041A3.207,3.207,0,0,1,0,41.306V25.159a3.156,3.156,0,0,1,3.023-3.252l1.841-.032V4.021A4.036,4.036,0,0,1,8.808,0L31.125,0l9.4,9.395,0,35.073a4.047,4.047,0,0,1-4.115,4.168l-27.6-.013a4.01,4.01,0,0,1-3.951-4.012m1.613-.053A2.428,2.428,0,0,0,8.806,47L36.7,46.994a2.371,2.371,0,0,0,2.207-2.254l.012-34.223-7.47,0a1.63,1.63,0,0,1-1.462-1.685l-.006-7.2H8.939A2.429,2.429,0,0,0,6.471,4.041L6.457,21.878l27.707.015a3.2,3.2,0,0,1,3.122,3.25V36.472a3.238,3.238,0,0,1-3.359,3.247l-27.468,0Zm31.3-35.657L31.646,2.784,31.61,8.929ZM33.983,38.1a1.578,1.578,0,0,0,1.668-1.626l0-11.328a1.591,1.591,0,0,0-1.608-1.639L3.425,23.5a1.666,1.666,0,0,0-1.812,1.659l0,13.3A5.683,5.683,0,0,1,3.294,38.1ZM4.868,42.956l0-3.239-1.57,0a1.622,1.622,0,0,0-.166,3.24Z" fill="#19538d"/>
          <path id="Trazado_1283717" data-name="Trazado 1283717" d="M145.657,192.743l-.841,1.854a1.037,1.037,0,0,1-.733.49.981.981,0,0,1-.781-.613l-.806-1.78-.047,3.958a.814.814,0,0,1-.721.841.8.8,0,0,1-.871-.854l.01-8.276c0-.286.5-.594.736-.6a.981.981,0,0,1,.852.594l1.629,3.792,1.755-4.022c.107-.245.618-.388.844-.353a.892.892,0,0,1,.637.7l.006,8.171a.833.833,0,0,1-.757.839.8.8,0,0,1-.847-.845Z" transform="translate(-121.394 -161.821)" fill="#19538d"/>
          <path id="Trazado_1283718" data-name="Trazado 1283718" d="M29.914,196.595a.855.855,0,0,1-.737.921.824.824,0,0,1-.893-.836v-3.218l-3.228,0v3.19a.862.862,0,0,1-.724.855.841.841,0,0,1-.917-.838l.006-8.154a.822.822,0,0,1,.783-.722.791.791,0,0,1,.842.76l.019,3.276,3.22,0,0-3.195a.824.824,0,0,1,.756-.841.814.814,0,0,1,.873.863Z" transform="translate(-20.18 -161.846)" fill="#19538d"/>
          <path id="Trazado_1283719" data-name="Trazado 1283719" d="M204.995,197.55l-4.728-.009a.853.853,0,0,1-.845-.841v-8.016a.807.807,0,0,1,.924-.85c.481.042.717.451.717,1l0,7.069,4.159.025c.373,0,.741.549.709.842a.9.9,0,0,1-.933.781" transform="translate(-171.867 -161.876)" fill="#19538d"/>
          <path id="Trazado_1283720" data-name="Trazado 1283720" d="M86.056,196.671a.809.809,0,0,1-.866.8.859.859,0,0,1-.763-.842l0-7.247-1.693-.041a.807.807,0,1,1,.161-1.6h4.721a.8.8,0,0,1,.851.658.776.776,0,0,1-.706.949l-1.7.009Z" transform="translate(-70.659 -161.796)" fill="#19538d"/>
        </g>
      </g>
    </g>
  </g>
</svg>
