<svg xmlns="http://www.w3.org/2000/svg" xmlns:xlink="http://www.w3.org/1999/xlink" width="96" height="96" viewBox="0 0 96 96">
  <defs>
    <clipPath id="clip-path">
      <rect id="Rectángulo_465013" data-name="Rectángulo 465013" width="49.554" height="34.898" fill="#19538d"/>
    </clipPath>
  </defs>
  <g id="Grupo_1215114" data-name="Grupo 1215114" transform="translate(0 -0.001)">
    <circle id="Elipse_13890" data-name="Elipse 13890" cx="48" cy="48" r="48" transform="translate(0 0)" fill="#5a9ad7"/>
    <path id="Intersección_1" data-name="Intersección 1" d="M0,47.89A47.893,47.893,0,0,1,79.511,11.92L1.1,58.131A48,48,0,0,1,0,47.89Z" transform="translate(0.109 0.108)" fill="#19538d"/>
    <path id="Trazado_1032916" data-name="Trazado 1032916" d="M40,0A40,40,0,1,1,0,40,40,40,0,0,1,40,0Z" transform="translate(8 8)" fill="#e6f3ff"/>
    <g id="Grupo_1188343" data-name="Grupo 1188343" transform="translate(22.001 22)">
      <rect id="Rectángulo_459838" data-name="Rectángulo 459838" width="52" height="52" transform="translate(-0.036 -1.472)" fill="none"/>
      <g id="Grupo_1215116" data-name="Grupo 1215116" transform="translate(0.964 6.528)">
        <g id="Grupo_1215115" data-name="Grupo 1215115" clip-path="url(#clip-path)">
          <path id="Trazado_1283690" data-name="Trazado 1283690" d="M48.711,34.9H.888a.856.856,0,0,1-.881-.844L0,27.3a.908.908,0,0,1,1-.928l1.3-.043,0-25.6C2.3.284,2.827,0,3.268,0H46.286c.441,0,.966.284.966.733l0,25.6,1.428.052a.875.875,0,0,1,.871.912l-.007,6.761a.848.848,0,0,1-.836.839M3.962,1.714V26.371l41.63,0V1.716Zm31.1,29.059c0,.4-.516.714-.876.714H15.366a.863.863,0,0,1-.875-.8l-.043-2.6-12.758,0L1.7,33.182H47.862l-.016-5.1-12.759.005Zm-1.7-2.687H16.19v1.726H33.365Z" transform="translate(0)" fill="#19538d"/>
          <path id="Trazado_1283691" data-name="Trazado 1283691" d="M140.042,164.108l-26.3,0a.848.848,0,0,1-.82-.848.877.877,0,0,1,.936-.857h26.03a.953.953,0,0,1,.9.722c.054.44-.183.783-.742.987" transform="translate(-97.025 -139.54)" fill="#19538d"/>
          <path id="Trazado_1283692" data-name="Trazado 1283692" d="M58.116,111.486l-16.116,0a.868.868,0,0,1-.858-.755c-.045-.322.244-.913.69-.913l16.314,0a.836.836,0,0,1-.029,1.667" transform="translate(-35.346 -94.361)" fill="#19538d"/>
          <path id="Trazado_1283693" data-name="Trazado 1283693" d="M201.569,84.934H185.611a.846.846,0,1,1,.011-1.689l16.111.007c.42,0,.775.576.748.868a.884.884,0,0,1-.912.816" transform="translate(-158.714 -71.526)" fill="#19538d"/>
          <path id="Trazado_1283694" data-name="Trazado 1283694" d="M127.291,137.723l-13.5,0a.855.855,0,0,1-.861-.787.839.839,0,0,1,.872-.906h13.623a.838.838,0,0,1,.839.893.846.846,0,0,1-.97.8" transform="translate(-97.029 -116.88)" fill="#19538d"/>
          <path id="Trazado_1283695" data-name="Trazado 1283695" d="M250.727,137.714l-8.1.011a.9.9,0,0,1-.87-.791.867.867,0,0,1,.885-.908h8.014a.883.883,0,0,1,.832.777.851.851,0,0,1-.766.909" transform="translate(-207.729 -116.88)" fill="#19538d"/>
          <path id="Trazado_1283696" data-name="Trazado 1283696" d="M103.676,31.25a.925.925,0,0,1-1.367.054c-.4-.469-.167-.972.264-1.363l1.759-1.595-1.943-1.741a.962.962,0,0,1-.143-1.14.879.879,0,0,1,1.2-.183l2.612,2.333a.875.875,0,0,1,.139,1.32Z" transform="translate(-87.73 -21.584)" fill="#19538d"/>
          <path id="Trazado_1283697" data-name="Trazado 1283697" d="M44.775,30.006a1.2,1.2,0,0,1,.5.871,1,1,0,0,1-.53.762,1.3,1.3,0,0,1-1.07-.327l-2.547-2.366c-.554-.514.089-1.128.418-1.428L43.7,25.551a1,1,0,0,1,1.217-.207.877.877,0,0,1,.132,1.273l-1.99,1.817Z" transform="translate(-35.148 -21.666)" fill="#19538d"/>
          <path id="Trazado_1283698" data-name="Trazado 1283698" d="M47.928,164.091l-6.126,0a.849.849,0,0,1,0-1.693l6.078-.009a.954.954,0,0,1,.841.745.876.876,0,0,1-.79.959" transform="translate(-35.247 -139.53)" fill="#19538d"/>
          <path id="Trazado_1283699" data-name="Trazado 1283699" d="M47.948,137.7l-6,0a.877.877,0,0,1-.825-.792.867.867,0,0,1,.829-.9l6.18.016c.359,0,.71.611.683.9a.915.915,0,0,1-.868.779" transform="translate(-35.335 -116.855)" fill="#19538d"/>
          <path id="Trazado_1283700" data-name="Trazado 1283700" d="M263.2,111.5l-6.09,0a.962.962,0,0,1-.814-.766c-.046-.314.257-.9.646-.9l6.368,0c.336,0,.667.523.673.8a.866.866,0,0,1-.784.868" transform="translate(-220.214 -94.374)" fill="#19538d"/>
          <path id="Trazado_1283701" data-name="Trazado 1283701" d="M47.838,85,41.9,84.988a.915.915,0,0,1-.821-.808c-.023-.3.354-.869.732-.869l6.255,0c.384,0,.736.584.708.878a.9.9,0,0,1-.936.805" transform="translate(-35.296 -71.583)" fill="#19538d"/>
          <path id="Trazado_1283702" data-name="Trazado 1283702" d="M119.694,84.919l-5.927,0a.865.865,0,0,1-.85-.809.845.845,0,0,1,.732-.871l6.039-.011a.885.885,0,0,1,.886.738.85.85,0,0,1-.88.955" transform="translate(-97.022 -71.511)" fill="#19538d"/>
          <path id="Trazado_1283703" data-name="Trazado 1283703" d="M191.475,111.444l-5.9,0a.949.949,0,0,1-.866-.615c-.1-.346.155-1.042.591-1.044l6.205-.021a.863.863,0,0,1,.84.794.838.838,0,0,1-.875.882" transform="translate(-158.694 -94.317)" fill="#19538d"/>
          <path id="Trazado_1283704" data-name="Trazado 1283704" d="M73.343,43.883l-3.354-.009a.953.953,0,0,1-.8-.8c-.024-.286.339-.881.685-.881l3.653,0c.34,0,.692.6.673.891a.925.925,0,0,1-.852.8" transform="translate(-59.446 -36.253)" fill="#19538d"/>
        </g>
      </g>
    </g>
  </g>
</svg>
