<svg id="Grupo_1215128" data-name="Grupo 1215128" xmlns="http://www.w3.org/2000/svg" xmlns:xlink="http://www.w3.org/1999/xlink" width="96" height="96" viewBox="0 0 96 96">
  <defs>
    <clipPath id="clip-path">
      <rect id="Rectángulo_465026" data-name="Rectángulo 465026" width="53.685" height="40.665" fill="#19538d"/>
    </clipPath>
  </defs>
  <circle id="Elipse_13890" data-name="Elipse 13890" cx="48" cy="48" r="48" transform="translate(0 0)" fill="#5a9ad7"/>
  <path id="Intersección_1" data-name="Intersección 1" d="M0,47.89A47.893,47.893,0,0,1,79.511,11.92L1.1,58.131A48,48,0,0,1,0,47.89Z" transform="translate(0.109 0.108)" fill="#19538d"/>
  <path id="Trazado_1032916" data-name="Trazado 1032916" d="M40,0A40,40,0,1,1,0,40,40,40,0,0,1,40,0Z" transform="translate(8 8)" fill="#e6f3ff"/>
  <g id="Grupo_1188343" data-name="Grupo 1188343" transform="translate(22.001 22)">
    <rect id="Rectángulo_459838" data-name="Rectángulo 459838" width="52" height="52" transform="translate(-1.036 -0.001)" fill="none"/>
    <g id="Grupo_1215133" data-name="Grupo 1215133" transform="translate(-1.036 3.999)">
      <g id="Grupo_1215132" data-name="Grupo 1215132" clip-path="url(#clip-path)">
        <path id="Trazado_1283759" data-name="Trazado 1283759" d="M50.768,27.719a1.879,1.879,0,0,0,1.789,1.331,2.151,2.151,0,0,0,2.37-2.888L51.8,17.986a1.111,1.111,0,0,1,.478-1.426,1.083,1.083,0,0,1,1.515.668l3.149,8.294a4.3,4.3,0,0,1-.64,4.034,4.369,4.369,0,0,1-3.737,1.625,4.015,4.015,0,0,1-3.808-2.814l-.924-2.917-9.567-.011a26.838,26.838,0,0,0-.854,2.6,4.082,4.082,0,0,1-3.96,3.145,4.346,4.346,0,0,1-3.639-1.572,4.247,4.247,0,0,1-.742-3.987L37.536,3.617A5.969,5.969,0,0,1,48.544,3.7l3.838,9.885a1.057,1.057,0,0,1-.753,1.4,1.123,1.123,0,0,1-1.28-.761L46.568,4.459a3.869,3.869,0,0,0-7.058-.08L31.073,26.267a2.216,2.216,0,0,0,.389,2.024,2.309,2.309,0,0,0,2.005.76,1.843,1.843,0,0,0,1.757-1.2l.751-2.439a2.733,2.733,0,0,1,2.7-2.095l8.816.013a2.6,2.6,0,0,1,2.529,1.931Z" transform="translate(-24.436 0)" fill="#19538d"/>
        <path id="Trazado_1283760" data-name="Trazado 1283760" d="M29.725,220.189l0-2.129-5.856-.014-.016,2.331c0,.358-.526.727-.845.7a.834.834,0,0,1-.727-.867l0-2.162H16.4l0,2.162a.824.824,0,0,1-.729.861c-.325.024-.84-.331-.842-.7l-.013-2.325H8.971l-.015,2.123a.811.811,0,1,1-1.616.039l0-2.164-5.835,0L1.5,222.46l21.866,0a.812.812,0,0,1,.817.7.789.789,0,0,1-.807.9l-21.525,0c-.757,0-1.762-.464-1.8-1.3-.072-1.671-.073-3.329,0-5,.038-.833,1.018-1.289,1.816-1.289h49.9a1.808,1.808,0,0,1,1.907,1.873v3.831a1.827,1.827,0,0,1-1.9,1.884l-25.177-.005c-.415,0-.652-.615-.606-.879a.891.891,0,0,1,.911-.72H52.073l.014-4.4-5.834-.015-.012,2.131a.813.813,0,1,1-1.62.038l0-2.163-5.831,0-.007,2.152a.846.846,0,0,1-.8.863c-.587-.013-.817-.45-.817-1.019v-1.993l-5.831,0v2.173a.9.9,0,0,1-.723.84.815.815,0,0,1-.894-.874" transform="translate(0 -183.402)" fill="#19538d"/>
        <path id="Trazado_1283761" data-name="Trazado 1283761" d="M99.828,58.135c-1.77.1-3.386.083-5.091.021a2.156,2.156,0,0,1-1.477-.791,2.347,2.347,0,0,1-.327-1.785l3.214-9.429a1.286,1.286,0,0,1,1.244-.715,1.313,1.313,0,0,1,1.071.911l3.094,9.106a2,2,0,0,1-1.728,2.682m-.316-2.106-2.254-6.523-2.264,6.542Z" transform="translate(-78.677 -38.49)" fill="#19538d"/>
        <path id="Trazado_1283762" data-name="Trazado 1283762" d="M251.717,141.148l-3.024-.03c-1.447-.014-.573,2.269-2.378,1.992a1.124,1.124,0,0,1-.883-1.453l2.836-7.4a1.71,1.71,0,0,1,1.589-1.239,1.684,1.684,0,0,1,1.688,1.082l2.88,7.477a1.108,1.108,0,0,1-.783,1.514,1.121,1.121,0,0,1-1.44-.987,2.362,2.362,0,0,0-.485-.956m-.528-2.181-1.245-3.614-1.242,3.7a5.975,5.975,0,0,0,2.486-.086" transform="translate(-207.873 -112.691)" fill="#19538d"/>
      </g>
    </g>
  </g>
</svg>
