<svg xmlns="http://www.w3.org/2000/svg" xmlns:xlink="http://www.w3.org/1999/xlink" width="96" height="96" viewBox="0 0 96 96">
  <defs>
    <clipPath id="clip-path">
      <rect id="Rectángulo_465027" data-name="Rectángulo 465027" width="39.259" height="52" fill="#19538d"/>
    </clipPath>
  </defs>
  <g id="Grupo_1215136" data-name="Grupo 1215136" transform="translate(0 0)">
    <circle id="Elipse_13890" data-name="Elipse 13890" cx="48" cy="48" r="48" transform="translate(0 0)" fill="#5a9ad7"/>
    <path id="Intersección_1" data-name="Intersección 1" d="M0,47.89A47.893,47.893,0,0,1,79.511,11.92L1.1,58.131A48,48,0,0,1,0,47.89Z" transform="translate(0.109 0.108)" fill="#19538d"/>
    <path id="Trazado_1032916" data-name="Trazado 1032916" d="M40,0A40,40,0,1,1,0,40,40,40,0,0,1,40,0Z" transform="translate(8 8)" fill="#e6f3ff"/>
    <g id="Grupo_1188343" data-name="Grupo 1188343" transform="translate(22.001 22)">
      <rect id="Rectángulo_459838" data-name="Rectángulo 459838" width="52" height="52" transform="translate(-0.036 0)" fill="none"/>
      <g id="Grupo_1215138" data-name="Grupo 1215138" transform="translate(5.964 0)">
        <g id="Grupo_1215137" data-name="Grupo 1215137" clip-path="url(#clip-path)">
          <path id="Trazado_1283763" data-name="Trazado 1283763" d="M37.373,27.634l.009,15.546,1.19.05a.886.886,0,0,1,.685.748.842.842,0,0,1-.858.8l-1.022.012.005,3.725a2.174,2.174,0,0,1-2.227,2.2l-3.155,0a2.6,2.6,0,0,1-.212,1.089.848.848,0,0,1-1.016.126c-.259-.244-.332-.6-.29-1.207H8.786a1.693,1.693,0,0,1-.21,1.135.9.9,0,0,1-.985.061c-.26-.217-.331-.611-.309-1.185l-3.187-.016c-.956,0-2.147-.7-2.16-1.772l-.051-4.155L.725,44.77A.857.857,0,0,1,0,44a.871.871,0,0,1,.7-.77l1.188-.063V8.923L.693,8.869A.914.914,0,0,1,0,8.1a.824.824,0,0,1,.873-.774l1-.031.035-4.009a2.142,2.142,0,0,1,2.329-1.9L7.274,1.37A1.774,1.774,0,0,1,7.5.248a.913.913,0,0,1,.985-.09c.273.243.336.588.292,1.228l8.935,0a.81.81,0,0,1,.876.642c.054.562-.313.872-.88.872H8.8a1.932,1.932,0,0,1-.219,1.073.916.916,0,0,1-1.012.062,1.6,1.6,0,0,1-.318-1.133L4.013,2.9c-.193,0-.6.348-.6.55l.008,3.893c.67-.135,1.259.089,1.312.678.057.629-.586.975-1.318.833l0,34.344c.575-.069,1.25.123,1.333.732a.913.913,0,0,1-.325.7,4.328,4.328,0,0,1-1,.143L3.4,48.53c0,.238.353.659.594.658l3.265,0a2.023,2.023,0,0,1,.234-1.066.906.906,0,0,1,1.012-.077A1.477,1.477,0,0,1,8.8,49.187H30.464a1.845,1.845,0,0,1,.219-1.084A.983.983,0,0,1,31.619,48a1.27,1.27,0,0,1,.342,1.173l3.193.033c.223,0,.694-.336.693-.568l-.011-3.851c-.586-.014-1.028-.324-1.02-.783s.412-.792,1.029-.792V27.973a.914.914,0,0,1,.572-.883c.259-.079.955.078.955.544" transform="translate(0 -0.044)" fill="#19538d"/>
          <path id="Trazado_1283764" data-name="Trazado 1283764" d="M154.92,24.4l-.015-15.525c-.464-.06-.955-.341-1.013-.678-.1-.6.382-.908,1.007-.945l.014-3.825a.863.863,0,0,0-.59-.576l-3.28.02a1.726,1.726,0,0,1-.268,1.112.963.963,0,0,1-.945.022,1.374,1.374,0,0,1-.3-1.147l-8.919,0a.875.875,0,0,1-.889-.581c-.07-.255.143-.918.494-.919l9.326-.03c-.047-.627.031-.981.288-1.22a.846.846,0,0,1,1.016.127,2.4,2.4,0,0,1,.2,1.088l3.436.04a2.1,2.1,0,0,1,1.959,2.144l-.006,3.741,1.3.053c.249.01.575.458.583.751a.894.894,0,0,1-.685.765l-1.2.041.005,15.21a.909.909,0,0,1-.54.883c-.248.09-.986-.079-.986-.556" transform="translate(-119.064 0)" fill="#19538d"/>
          <path id="Trazado_1283765" data-name="Trazado 1283765" d="M50.754,43.681a.856.856,0,0,1-.67.891.79.79,0,0,1-.871-.732V41.094a.836.836,0,0,1,.747-.694.769.769,0,0,1,.784.825Z" transform="translate(-41.939 -34.429)" fill="#19538d"/>
          <path id="Trazado_1283766" data-name="Trazado 1283766" d="M50.727,286.443a.837.837,0,0,1-.63.874.8.8,0,0,1-.9-.7l-.009-2.746a.85.85,0,0,1,.754-.73.813.813,0,0,1,.787.842Z" transform="translate(-41.916 -241.291)" fill="#19538d"/>
          <path id="Trazado_1283767" data-name="Trazado 1283767" d="M50.714,84.081a.833.833,0,0,1-.779.818.844.844,0,0,1-.762-.765l0-2.631a.768.768,0,1,1,1.535-.032Z" transform="translate(-41.905 -68.777)" fill="#19538d"/>
          <path id="Trazado_1283768" data-name="Trazado 1283768" d="M50.685,124.606a.8.8,0,0,1-.788.885.824.824,0,0,1-.763-.841l.016-2.623a.818.818,0,0,1,.741-.707.773.773,0,0,1,.789.819Z" transform="translate(-41.872 -103.388)" fill="#19538d"/>
          <path id="Trazado_1283769" data-name="Trazado 1283769" d="M50.687,205.873c0,.375-.575.64-.918.576a.908.908,0,0,1-.61-.812l0-2.507a.843.843,0,0,1,.666-.827.8.8,0,0,1,.874.667Z" transform="translate(-41.891 -172.395)" fill="#19538d"/>
          <path id="Trazado_1283770" data-name="Trazado 1283770" d="M50.711,246.1a.851.851,0,0,1-.781.821.867.867,0,0,1-.757-.795l0-2.632a.853.853,0,0,1,.765-.769.817.817,0,0,1,.772.768Z" transform="translate(-41.903 -206.847)" fill="#19538d"/>
          <path id="Trazado_1283771" data-name="Trazado 1283771" d="M50.724,165.081a.843.843,0,0,1-.781.82.855.855,0,0,1-.757-.795v-2.6a.768.768,0,1,1,1.535-.032Z" transform="translate(-41.914 -137.805)" fill="#19538d"/>
          <path id="Trazado_1283772" data-name="Trazado 1283772" d="M122.269,50.828l-2.753.01a.91.91,0,0,1-.741-.781.841.841,0,0,1,.773-.773h2.619a.927.927,0,0,1,.746.634c.068.273-.285.907-.644.908" transform="translate(-101.218 -42)" fill="#19538d"/>
          <path id="Trazado_1283773" data-name="Trazado 1283773" d="M122.241,293.644l-2.7.019a.911.911,0,0,1-.766-.795.87.87,0,0,1,.744-.772l2.683-.006c.267,0,.664.42.71.669.059.321-.28.882-.671.885" transform="translate(-101.219 -248.918)" fill="#19538d"/>
          <path id="Trazado_1283774" data-name="Trazado 1283774" d="M161.763,50.8l-2.747-.009c-.277,0-.685-.529-.678-.792s.4-.743.676-.745l2.66-.017a.925.925,0,0,1,.8.625.878.878,0,0,1-.706.938" transform="translate(-134.935 -41.96)" fill="#19538d"/>
          <path id="Trazado_1283775" data-name="Trazado 1283775" d="M161.752,293.688l-2.725-.008c-.292,0-.686-.518-.689-.781s.4-.767.676-.768l2.817-.009c.274,0,.655.521.659.785s-.415.782-.738.781" transform="translate(-134.935 -248.946)" fill="#19538d"/>
          <path id="Trazado_1283776" data-name="Trazado 1283776" d="M83.4,50.846l-2.738.042c-.264,0-.659-.438-.7-.686-.049-.316.265-.865.618-.865h2.713c.271,0,.628.4.694.619.074.25-.289.884-.589.889" transform="translate(-68.141 -42.045)" fill="#19538d"/>
          <path id="Trazado_1283777" data-name="Trazado 1283777" d="M83.4,293.645l-2.7.026a.786.786,0,0,1-.016-1.568l2.643.011c.233,0,.6.422.665.644.076.25-.3.885-.59.888" transform="translate(-68.14 -248.928)" fill="#19538d"/>
          <path id="Trazado_1283778" data-name="Trazado 1283778" d="M207.587,84.07a.765.765,0,1,1-1.529.029l.016-2.8c0-.286.515-.654.778-.639a.9.9,0,0,1,.732.735Z" transform="translate(-175.602 -68.74)" fill="#19538d"/>
          <path id="Trazado_1283779" data-name="Trazado 1283779" d="M207.656,165.092a.867.867,0,0,1-.74.8c-.264.01-.779-.347-.779-.636v-2.936c0-.287.516-.65.786-.635a.877.877,0,0,1,.727.734Z" transform="translate(-175.668 -137.784)" fill="#19538d"/>
          <path id="Trazado_1283780" data-name="Trazado 1283780" d="M207.578,246.147a.9.9,0,0,1-.738.794c-.264.011-.777-.345-.779-.633l-.019-2.809a.9.9,0,0,1,.652-.748.8.8,0,0,1,.875.732Z" transform="translate(-175.588 -206.867)" fill="#19538d"/>
          <path id="Trazado_1283781" data-name="Trazado 1283781" d="M207.569,43.851a.875.875,0,0,1-.857.717.846.846,0,0,1-.666-.827V41.191a.815.815,0,0,1,.639-.79.8.8,0,0,1,.892.787Z" transform="translate(-175.592 -34.425)" fill="#19538d"/>
          <path id="Trazado_1283782" data-name="Trazado 1283782" d="M207.538,286.508a.987.987,0,0,1-.605.823c-.3.076-.906-.191-.91-.528l-.035-2.813a.862.862,0,0,1,.677-.827c.3-.047.844.338.847.657Z" transform="translate(-175.543 -241.308)" fill="#19538d"/>
          <path id="Trazado_1283783" data-name="Trazado 1283783" d="M207.587,124.647a.894.894,0,0,1-.748.862.834.834,0,0,1-.786-.674l.018-2.967c0-.265.526-.56.773-.532a.876.876,0,0,1,.739.787Z" transform="translate(-175.598 -103.4)" fill="#19538d"/>
          <path id="Trazado_1283784" data-name="Trazado 1283784" d="M207.657,205.592a.949.949,0,0,1-.6.822c-.3.078-.917-.171-.918-.53l0-3.068c0-.268.537-.58.786-.553a.919.919,0,0,1,.734.791Z" transform="translate(-175.668 -172.367)" fill="#19538d"/>
        </g>
      </g>
    </g>
  </g>
</svg>
