<svg xmlns="http://www.w3.org/2000/svg" xmlns:xlink="http://www.w3.org/1999/xlink" width="96" height="96" viewBox="0 0 96 96">
  <defs>
    <clipPath id="clip-path">
      <rect id="Rectángulo_465028" data-name="Rectángulo 465028" width="52" height="42.651" fill="#19538d"/>
    </clipPath>
  </defs>
  <g id="Grupo_1215135" data-name="Grupo 1215135" transform="translate(0 0)">
    <circle id="Elipse_13890" data-name="Elipse 13890" cx="48" cy="48" r="48" transform="translate(0 0)" fill="#5a9ad7"/>
    <path id="Intersección_1" data-name="Intersección 1" d="M0,47.89A47.893,47.893,0,0,1,79.511,11.92L1.1,58.131A48,48,0,0,1,0,47.89Z" transform="translate(0.109 0.108)" fill="#19538d"/>
    <path id="Trazado_1032916" data-name="Trazado 1032916" d="M40,0A40,40,0,1,1,0,40,40,40,0,0,1,40,0Z" transform="translate(8 8)" fill="#e6f3ff"/>
    <g id="Grupo_1188343" data-name="Grupo 1188343" transform="translate(22.001 22)">
      <rect id="Rectángulo_459838" data-name="Rectángulo 459838" width="52" height="52" transform="translate(-0.036 0)" fill="none"/>
      <g id="Grupo_1215140" data-name="Grupo 1215140" transform="translate(-0.036 4.999)">
        <g id="Grupo_1215139" data-name="Grupo 1215139" clip-path="url(#clip-path)">
          <path id="Trazado_1283785" data-name="Trazado 1283785" d="M30.465,94.849a4.081,4.081,0,0,1,4.52,4.1,1.231,1.231,0,0,1-1.3,1.254H18.335a1.232,1.232,0,0,1-1.3-1.255,4.076,4.076,0,0,1,4.519-4.1l0-2.383L1.2,92.47A1.229,1.229,0,0,1,.012,91.264l0-23a.789.789,0,0,1,.8-.731.771.771,0,0,1,.721.873v19.5H50.486l0-3.878a.789.789,0,0,1,.7-.772.761.761,0,0,1,.82.793v7.1c0,.537-.387,1.313-1.049,1.313l-20.488.006ZM1.526,90.983H50.49V89.452H1.526Zm27.425,1.489H23.066v2.374h5.886Zm4.5,6.2a2.623,2.623,0,0,0-2.574-2.335l-9.595,0a2.642,2.642,0,0,0-2.715,2.338Z" transform="translate(-0.008 -57.555)" fill="#19538d"/>
          <path id="Trazado_1283786" data-name="Trazado 1283786" d="M50.465,1.53H1.532l0,1.5H26.422a.85.85,0,0,1,.788.651.8.8,0,0,1-.684.894l-24.98,0L1.513,7.171a.78.78,0,0,1-.694.764A.755.755,0,0,1,0,7.143L.007,1.236A1.237,1.237,0,0,1,1.363,0L50.787,0A1.213,1.213,0,0,1,52,1.252v21.68a.828.828,0,0,1-.8.746.79.79,0,0,1-.722-.885l0-18.214H30.026a.777.777,0,1,1,.121-1.548l20.3,0Z" transform="translate(0 0.001)" fill="#19538d"/>
          <path id="Trazado_1283787" data-name="Trazado 1283787" d="M64.478,53.291c-.189.685-1.872.282-1.88.445l-.031.616c-.025.489-.243.919-.718.971a.813.813,0,0,1-.794-.977c.02-.138.059-.639-.08-.638l-.686,0c-.487,0-1.281-.019-1.284-.722l-.019-4.115a.832.832,0,0,1,.878-.778l4.408.036c.607.761.174,1.973.412,1.973h.5a.933.933,0,0,1,1.022.647.809.809,0,0,1-.7.905l-.891.033a6.369,6.369,0,0,1-.139,1.6m-3.946-1.137h2.54V49.612h-2.54Z" transform="translate(-50.272 -40.99)" fill="#19538d"/>
          <path id="Trazado_1283788" data-name="Trazado 1283788" d="M247.885,54.528l0-.779-1.546-.115c-.509-.038-.523-.947-.52-1.316l.005-.559c0-.221-1.059.144-1.483-.43a1.014,1.014,0,0,1,.013-.9,1.408,1.408,0,0,1,.864-.325l.533,0c.243,0-.194-1.208.414-1.971l4.408-.034a.828.828,0,0,1,.877.777l-.039,4.236c-.006.606-.892.6-1.246.6l-.7,0c-.205,0,.235,1.523-.765,1.6a.818.818,0,0,1-.813-.8m2.022-4.912h-2.54v2.536h2.54Z" transform="translate(-208.165 -40.994)" fill="#19538d"/>
          <path id="Trazado_1283789" data-name="Trazado 1283789" d="M64.669,144.806c-.208-.005.158,1.93-.577,1.975-1.436.088-2.792.065-4.251.074a.869.869,0,0,1-.881-.885c.01-1.444-.027-2.825.081-4.231.042-.552,1.014-.5,1.38-.5l.538,0c.209,0-.139-.956.339-1.432a.886.886,0,0,1,.867-.069,1.365,1.365,0,0,1,.378.856l-.008.562c0,.269,1.663-.192,1.913.482a4.6,4.6,0,0,1,.125,1.619l1.058.089a.771.771,0,0,1,.547.89c-.136.474-.5.6-1,.59Zm-1.616-2.014H60.511v2.564h2.543Z" transform="translate(-50.251 -119.02)" fill="#19538d"/>
          <path id="Trazado_1283790" data-name="Trazado 1283790" d="M246.253,146.787c-.65-.01-.554-1.024-.559-1.4l-.006-.529c0-.213-1.368.293-1.582-.628a.748.748,0,0,1,.695-.925l.888-.032a5.849,5.849,0,0,1,.139-1.645c.145-.448.966-.393,1.309-.4l.546-.01c.2,0-.144-.921.346-1.427a.87.87,0,0,1,.866-.065,1.294,1.294,0,0,1,.369.856l-.009.563c0,.221,1.934-.158,1.986.575.1,1.429.071,2.787.079,4.241a.867.867,0,0,1-.884.884Zm.977-1.437h2.542v-2.56H247.23Z" transform="translate(-208.029 -119.018)" fill="#19538d"/>
          <path id="Trazado_1283791" data-name="Trazado 1283791" d="M153.952,135.22h-15.3a.764.764,0,1,1,0-1.526l15.164,0a.816.816,0,0,1,.86.648.778.778,0,0,1-.73.88" transform="translate(-117.497 -113.942)" fill="#19538d"/>
          <path id="Trazado_1283792" data-name="Trazado 1283792" d="M168.826,93.931l-12.842,0c-.291,0-.66-.518-.667-.762a.836.836,0,0,1,.694-.782l12.7,0a.845.845,0,0,1,.852.7.826.826,0,0,1-.742.853" transform="translate(-132.373 -78.733)" fill="#19538d"/>
          <path id="Trazado_1283793" data-name="Trazado 1283793" d="M104.252,99.074a.818.818,0,0,1-.782.923.788.788,0,0,1-.748-.836l.006-5.222-1.761-.035a.9.9,0,0,1-.767-.718.827.827,0,0,1,.841-.824l5.06.01c.358,0,.688.49.668.784a.858.858,0,0,1-.875.759l-1.646.025Z" transform="translate(-85.398 -78.718)" fill="#19538d"/>
          <path id="Trazado_1283794" data-name="Trazado 1283794" d="M144.938,114.533l-6.32,0a.873.873,0,0,1-.736-.681.783.783,0,0,1,.74-.854l6.237,0a.881.881,0,0,1,.817.73.8.8,0,0,1-.737.807" transform="translate(-117.51 -96.304)" fill="#19538d"/>
          <path id="Trazado_1283795" data-name="Trazado 1283795" d="M210.622,114.549l-5.656,0c-.285,0-.64-.437-.669-.7-.031-.276.345-.836.67-.836l5.657,0c.3,0,.686.473.7.723a.858.858,0,0,1-.7.806" transform="translate(-174.116 -96.322)" fill="#19538d"/>
          <path id="Trazado_1283796" data-name="Trazado 1283796" d="M121.118,63.322l-1.786.031a.9.9,0,0,1-.763-.661c-.049-.353.3-.886.669-.888l1.744-.011a.975.975,0,0,1,.746.628c.078.3-.271.9-.61.9" transform="translate(-101.049 -52.666)" fill="#19538d"/>
          <path id="Trazado_1283797" data-name="Trazado 1283797" d="M184.256,63.3l-1.88-.006c-.286,0-.65-.53-.635-.787a.884.884,0,0,1,.767-.746h1.656a.978.978,0,0,1,.742.618c.081.313-.28.924-.651.923" transform="translate(-154.893 -52.64)" fill="#19538d"/>
          <path id="Trazado_1283798" data-name="Trazado 1283798" d="M152.554,63.365l-1.669-.021a.851.851,0,0,1-.695-.786.836.836,0,0,1,.732-.749l1.742,0a.951.951,0,0,1,.692.749.88.88,0,0,1-.8.8" transform="translate(-128.003 -52.678)" fill="#19538d"/>
          <path id="Trazado_1283799" data-name="Trazado 1283799" d="M215.946,63.293l-1.768.041a.914.914,0,0,1-.789-.717.888.888,0,0,1,.691-.838l1.756-.012a.938.938,0,0,1,.71.636c.07.3-.261.883-.6.89" transform="translate(-181.863 -52.643)" fill="#19538d"/>
          <path id="Trazado_1283800" data-name="Trazado 1283800" d="M184.538,166.073l-2.275-.055c-.24-.006-.5-.461-.511-.663-.01-.23.263-.763.494-.764l2.142-.007c.231,0,.56.461.538.661a2.226,2.226,0,0,1-.387.827" transform="translate(-154.902 -140.272)" fill="#19538d"/>
          <path id="Trazado_1283801" data-name="Trazado 1283801" d="M121.207,165.795c-1.471.084-2.6.23-2.674-.655-.02-.236.257-.773.5-.777l1.977-.035a1.051,1.051,0,0,1,.683.563c.087.238-.17.887-.481.9" transform="translate(-101.022 -140.053)" fill="#19538d"/>
          <path id="Trazado_1283802" data-name="Trazado 1283802" d="M152.857,165.8l-2.167.028c-.282,0-.574-.539-.547-.808.025-.251.4-.682.685-.678l1.934.029c.246,0,.511.437.542.645s-.22.781-.447.784" transform="translate(-127.962 -140.066)" fill="#19538d"/>
          <path id="Trazado_1283803" data-name="Trazado 1283803" d="M215.838,165.867h-1.561a.948.948,0,0,1-.744-.551c-.081-.277.191-.925.471-.929l1.987-.03a.838.838,0,0,1,.678.8.81.81,0,0,1-.831.711" transform="translate(-181.977 -140.077)" fill="#19538d"/>
          <path id="Trazado_1283804" data-name="Trazado 1283804" d="M74.448,110.1c0,.246-.457.555-.665.564-.238.011-.78-.264-.784-.5l-.03-1.98c0-.277.429-.659.681-.679a.833.833,0,0,1,.813.687Z" transform="translate(-62.19 -91.621)" fill="#19538d"/>
          <path id="Trazado_1283805" data-name="Trazado 1283805" d="M270.376,110.112c0,.212-.455.513-.662.537-.237.027-.783-.248-.787-.511l-.032-1.974c0-.263.441-.656.691-.676a.83.83,0,0,1,.8.691Z" transform="translate(-229.173 -91.609)" fill="#19538d"/>
        </g>
      </g>
    </g>
  </g>
</svg>
