<svg id="Grupo_1215131" data-name="Grupo 1215131" xmlns="http://www.w3.org/2000/svg" xmlns:xlink="http://www.w3.org/1999/xlink" width="96" height="96" viewBox="0 0 96 96">
  <defs>
    <clipPath id="clip-path">
      <rect id="Rectángulo_465025" data-name="Rectángulo 465025" width="51.529" height="52" fill="#19538d"/>
    </clipPath>
  </defs>
  <circle id="Elipse_13890" data-name="Elipse 13890" cx="48" cy="48" r="48" transform="translate(0 0)" fill="#5a9ad7"/>
  <path id="Intersección_1" data-name="Intersección 1" d="M0,47.89A47.893,47.893,0,0,1,79.511,11.92L1.1,58.131A48,48,0,0,1,0,47.89Z" transform="translate(0.109 0.108)" fill="#19538d"/>
  <path id="Trazado_1032916" data-name="Trazado 1032916" d="M40,0A40,40,0,1,1,0,40,40,40,0,0,1,40,0Z" transform="translate(8 8)" fill="#e6f3ff"/>
  <g id="Grupo_1188343" data-name="Grupo 1188343" transform="translate(22.001 22)">
    <rect id="Rectángulo_459838" data-name="Rectángulo 459838" width="52" height="52" transform="translate(-0.036 -0.001)" fill="none"/>
    <g id="Grupo_1215130" data-name="Grupo 1215130" transform="translate(-0.036 0)">
      <g id="Grupo_1215129" data-name="Grupo 1215129" clip-path="url(#clip-path)">
        <path id="Trazado_1283751" data-name="Trazado 1283751" d="M35.984,50.475l12.828-.017a1.3,1.3,0,0,0,1.131-1.1l.009-5.343a.842.842,0,0,1,.8-.834.822.822,0,0,1,.781.839l-.035,5.285A2.8,2.8,0,0,1,48.612,52H35.623a2.912,2.912,0,0,1-2.728-3.1l.018-6.144H27.033l0,1.561a1.666,1.666,0,0,1-1.753,1.694l-4.6,0a1.574,1.574,0,0,1-1.672-1.48l-.034-1.77-10.912,0,0,1.582A1.6,1.6,0,0,1,6.513,46l-5.031-.014A1.671,1.671,0,0,1,0,44.191l.017-4.6a1.614,1.614,0,0,1,1.615-1.628l1.635-.011V27.065L1.5,27.015a1.584,1.584,0,0,1-1.48-1.6L0,20.831a1.73,1.73,0,0,1,1.807-1.867l1.462,0,0-10.924a13.737,13.737,0,0,1-2.06-.07,1.667,1.667,0,0,1-1.2-1.74l.011-4.6A1.607,1.607,0,0,1,1.637.006l4.875,0a1.6,1.6,0,0,1,1.542,1.6l.012,1.661,10.9,0,.019-1.6A1.629,1.629,0,0,1,20.688,0L25.42.006a1.6,1.6,0,0,1,1.6,1.619l.018,1.641H37.946l.026-1.8A1.592,1.592,0,0,1,39.592,0L44.616.03c.851,0,1.4.98,1.4,1.726L45.992,6.5A1.649,1.649,0,0,1,44.2,8.056l-1.446-.01,0,10.9,1.668.051A1.585,1.585,0,0,1,46,20.532l.017,4.739a1.71,1.71,0,0,1-1.686,1.776l-1.574.009v6.321h5.861a2.873,2.873,0,0,1,2.9,2.959l.005,4a.8.8,0,0,1-.775.843.833.833,0,0,1-.8-.841V36.181a1.254,1.254,0,0,0-1.258-1.251H35.666a1.317,1.317,0,0,0-1.243,1.284l0,12.952a1.387,1.387,0,0,0,1.559,1.308M6.524,1.533H1.549v5H6.524Zm18.973,0-4.98,0,0,4.994,4.98,0Zm18.962,0H39.5v4.99h4.957ZM32.91,41.2V36.336a2.848,2.848,0,0,1,2.842-2.963l5.452,0,0-6.321-1.633-.012a1.625,1.625,0,0,1-1.612-1.478l0-5.028a1.61,1.61,0,0,1,1.66-1.562l1.59-.033,0-10.887L39.284,8a1.541,1.541,0,0,1-1.316-1.476l-.04-1.742-10.89,0,0,1.452a1.667,1.667,0,0,1-1.465,1.789l-4.887.024a1.608,1.608,0,0,1-1.694-1.6l-.015-1.658H8.063l-.02,1.72a1.579,1.579,0,0,1-1.669,1.54L4.8,8.05V18.967l1.648.02a1.623,1.623,0,0,1,1.613,1.689l-.021,4.9a1.644,1.644,0,0,1-1.655,1.474L4.8,27.054V37.916l1.731.051a1.561,1.561,0,0,1,1.481,1.311l.052,1.92,10.888,0,.037-1.6a1.6,1.6,0,0,1,1.427-1.622l5-.023a1.612,1.612,0,0,1,1.6,1.631l.018,1.62ZM6.524,20.536H1.549v4.957H6.524Zm32.949,5h4.986v-5H39.473ZM6.525,44.46,6.52,39.5l-4.97,0v4.95ZM25.5,39.5H20.521v4.967H25.5Z" transform="translate(0 0)" fill="#19538d"/>
        <path id="Trazado_1283752" data-name="Trazado 1283752" d="M258.227,262.339l-3.027-.01c-.268,0-.6-.407-.648-.706a.885.885,0,0,1,.592-.8l1.169-.135-6.865-6.865-.1,1.021a.988.988,0,0,1-.533.712c-.264.069-.948-.159-.952-.469l-.043-3.281a.821.821,0,0,1,.622-.673l3.144-.008a1.023,1.023,0,0,1,.679.547c.086.236-.153.887-.43.9l-1.356.081,6.937,6.936.1-1.133a.921.921,0,0,1,.751-.6c.261-.007.753.383.754.66l.01,3.073a.828.828,0,0,1-.8.748" transform="translate(-211.21 -214.031)" fill="#19538d"/>
        <path id="Trazado_1283753" data-name="Trazado 1283753" d="M99.4,159.321l-21.6,0c-.376,0-.622-.556-.591-.817s.369-.709.733-.71l21.391,0a.85.85,0,0,1,.844.714.76.76,0,0,1-.777.819" transform="translate(-65.799 -134.48)" fill="#19538d"/>
        <path id="Trazado_1283754" data-name="Trazado 1283754" d="M147.6,128.014l-12.992,0a.779.779,0,1,1,.054-1.557l12.9,0a.785.785,0,1,1,.034,1.564" transform="translate(-114.057 -107.771)" fill="#19538d"/>
        <path id="Trazado_1283755" data-name="Trazado 1283755" d="M147.595,96.689l-13,0a.821.821,0,0,1-.776-.72.8.8,0,0,1,.784-.8l12.99,0a.785.785,0,0,1,.832.678.75.75,0,0,1-.834.847" transform="translate(-114.054 -81.107)" fill="#19538d"/>
        <path id="Trazado_1283756" data-name="Trazado 1283756" d="M85.669,98.006l-2.431.009-.306.954c-.084.263-.661.422-.952.264a.86.86,0,0,1-.334-.972l1.874-4.988a1.1,1.1,0,0,1,1.024-.53,1.146,1.146,0,0,1,.961.774l1.79,4.895a.741.741,0,0,1-.532.888.8.8,0,0,1-.843-.546Zm-.407-1.294-.806-2.4-.821,2.4Z" transform="translate(-69.549 -79.042)" fill="#19538d"/>
        <path id="Trazado_1283757" data-name="Trazado 1283757" d="M87.423,190.859l-9.283,0a.772.772,0,1,1,0-1.533l9.274,0a.764.764,0,1,1,.005,1.526" transform="translate(-65.864 -161.362)" fill="#19538d"/>
        <path id="Trazado_1283758" data-name="Trazado 1283758" d="M174.08,190.86l-8.4,0a.818.818,0,0,1-.782-.763.83.83,0,0,1,.783-.762l8.394,0a.791.791,0,0,1,.846.767.776.776,0,0,1-.846.766" transform="translate(-140.544 -161.361)" fill="#19538d"/>
      </g>
    </g>
  </g>
</svg>
