<svg xmlns="http://www.w3.org/2000/svg" xmlns:xlink="http://www.w3.org/1999/xlink" width="96" height="96" viewBox="0 0 96 96">
  <defs>
    <clipPath id="clip-path">
      <rect id="Rectángulo_465029" data-name="Rectángulo 465029" width="49.983" height="53.188" fill="#19538d"/>
    </clipPath>
  </defs>
  <g id="Grupo_1215134" data-name="Grupo 1215134" transform="translate(0 0)">
    <circle id="Elipse_13890" data-name="Elipse 13890" cx="48" cy="48" r="48" transform="translate(0 0)" fill="#5a9ad7"/>
    <path id="Intersección_1" data-name="Intersección 1" d="M0,47.89A47.893,47.893,0,0,1,79.511,11.92L1.1,58.131A48,48,0,0,1,0,47.89Z" transform="translate(0.109 0.108)" fill="#19538d"/>
    <path id="Trazado_1032916" data-name="Trazado 1032916" d="M40,0A40,40,0,1,1,0,40,40,40,0,0,1,40,0Z" transform="translate(8 8)" fill="#e6f3ff"/>
    <g id="Grupo_1188343" data-name="Grupo 1188343" transform="translate(22.001 22)">
      <rect id="Rectángulo_459838" data-name="Rectángulo 459838" width="52" height="52" transform="translate(-0.036 -1.001)" fill="none"/>
      <g id="Grupo_1215142" data-name="Grupo 1215142" transform="translate(-4.036 -14)">
        <g id="Grupo_1215141" data-name="Grupo 1215141" transform="translate(5 13)" clip-path="url(#clip-path)">
          <path id="Trazado_1283808" data-name="Trazado 1283808" d="M105.017,147.115l-17.882-.01a2.166,2.166,0,0,1-2.12-2.118V127.368a2.185,2.185,0,0,1,2.121-2.124l17.411-.01a2.213,2.213,0,0,1,2.317,2.143l0,17.6a2.257,2.257,0,0,1-1.848,2.136m-7.632-12.393a4.994,4.994,0,0,1,7.24-.034l.011-7.209-17.394,0,0,10.169,2.855,1.76a2.148,2.148,0,0,0,2.783-.478ZM87.291,144.874l17.344,0,0-7.389-2.385-1.78a2.813,2.813,0,0,0-3.339.659L94,140.913c-2,1.85-4.436,1.062-6.756-.656Z" transform="translate(-71.42 -110.523)" fill="#19538d"/>
          <path id="Trazado_1283809" data-name="Trazado 1283809" d="M36.408,246.669a1.254,1.254,0,0,1-1,1.08,1.151,1.151,0,0,1-1.161-1.048l-.022-1.546-1.558-.009a1.446,1.446,0,0,1-1.014-.8c-.123-.376.215-1.3.611-1.323l1.969-.117,0-4.884a1.115,1.115,0,0,1,1.165-1.08,1.146,1.146,0,0,1,1.015,1.284l-.017,4.714,4.756-.012a1.166,1.166,0,0,1,1.265,1.052,1.217,1.217,0,0,1-1.052,1.158l-4.956.009Z" transform="translate(-29.531 -198.168)" fill="#19538d"/>
          <path id="Trazado_1283810" data-name="Trazado 1283810" d="M36.381,74.648a1.089,1.089,0,1,1-2.176.069L34.2,69.835l-1.947-.117c-.33-.02-.7-.822-.662-1.151a1.352,1.352,0,0,1,1.032-.966l1.578-.011.008-1.577A1.28,1.28,0,0,1,35.184,65c.418-.043,1.139.429,1.15.8l.052,1.788,4.947.008a1.21,1.21,0,0,1,1.055,1.158,1.169,1.169,0,0,1-1.266,1.052L36.368,69.8Z" transform="translate(-29.498 -63.263)" fill="#19538d"/>
          <path id="Trazado_1283811" data-name="Trazado 1283811" d="M197.9,74.641a1.19,1.19,0,0,1-.982,1.17,1.12,1.12,0,0,1-1.192-1.08V69.809l-4.749.01a1.168,1.168,0,0,1-1.267-1.053,1.214,1.214,0,0,1,1.052-1.159l4.955,0,.015-1.577a1.213,1.213,0,0,1,.988-1.015,1.143,1.143,0,0,1,1.167,1.036l.017,1.547,1.572.016a1.313,1.313,0,0,1,1.033.973c.045.427-.41,1.18-.806,1.19l-1.807.048Z" transform="translate(-153.562 -63.27)" fill="#19538d"/>
          <path id="Trazado_1283812" data-name="Trazado 1283812" d="M197.905,246.676a1.292,1.292,0,0,1-.978,1.063,1.133,1.133,0,0,1-1.187-1.041l-.022-1.55-4.953-.007a1.216,1.216,0,0,1-1.052-1.16,1.172,1.172,0,0,1,1.267-1.056l4.749.018,0-4.94a1.191,1.191,0,0,1,.991-1.063,1.121,1.121,0,0,1,1.178,1.084l.009,4.886,1.932.11c.342.02.716.824.676,1.154a1.358,1.358,0,0,1-1.03.966l-1.583.012Z" transform="translate(-153.563 -198.165)" fill="#19538d"/>
          <path id="Trazado_1283813" data-name="Trazado 1283813" d="M109.166,146.513a3.332,3.332,0,1,1-3.332-3.332,3.332,3.332,0,0,1,3.332,3.332m-2.233,0a1.107,1.107,0,1,0-1.107,1.107,1.107,1.107,0,0,0,1.107-1.107" transform="translate(-85.14 -124.604)" fill="#19538d"/>
        </g>
      </g>
    </g>
  </g>
</svg>
