<svg xmlns="http://www.w3.org/2000/svg" xmlns:xlink="http://www.w3.org/1999/xlink" width="312" height="206.69" viewBox="0 0 312 206.69">
  <defs>
    <clipPath id="clip-path">
      <rect id="Rectángulo_464170" data-name="Rectángulo 464170" width="312" height="206.69" fill="none"/>
    </clipPath>
  </defs>
  <g id="Grupo_1213950" data-name="Grupo 1213950" transform="translate(-1015.422 -3335.146)">
    <path id="Trazado_1273937" data-name="Trazado 1273937" d="M0,0H292V206.691H0Z" transform="translate(1015.422 3335.146)" fill="none"/>
    <g id="Grupo_1214148" data-name="Grupo 1214148" transform="translate(1015.422 3335.146)">
      <g id="Grupo_1214147" data-name="Grupo 1214147" clip-path="url(#clip-path)">
        <path id="Trazado_1281569" data-name="Trazado 1281569" d="M19.336,105.02A68.539,68.539,0,0,1,15.8,92.766C11.717,73.675,5.035,54.409,6.212,34.555,8.012,4.213,32.459.786,55.782,2.2,101.153,4.945,146.641-1.4,192.059.292c18.259.681,36.759,2.735,53.707,9.885,7.841,3.308,15.6,8,20.012,15.557,7.625,13.051,2.971,30.187-4.313,43.451-20.657,37.619-60.231,61.228-101.148,68.02S77.3,135.54,38.419,120.563c-5.639-2.172-11.454-4.64-15.432-9.357a24.221,24.221,0,0,1-3.65-6.185" transform="translate(-4.283 0)" fill="#ffe79e"/>
        <path id="Trazado_1281570" data-name="Trazado 1281570" d="M291.377,165.918H107.382a9.883,9.883,0,0,1-9.646-10.1V45.848a9.883,9.883,0,0,1,9.646-10.1H291.377a9.883,9.883,0,0,1,9.645,10.1V155.813a9.883,9.883,0,0,1-9.645,10.1" transform="translate(-68.905 -24.697)" fill="#fff"/>
        <path id="Trazado_1281571" data-name="Trazado 1281571" d="M291.024,165.727H107.029a10.046,10.046,0,0,1-9.793-10.259V45.5a10.046,10.046,0,0,1,9.793-10.259H291.024A10.046,10.046,0,0,1,300.817,45.5V155.468a10.046,10.046,0,0,1-9.793,10.259M107.029,35.552a9.743,9.743,0,0,0-9.5,9.95V155.468a9.743,9.743,0,0,0,9.5,9.95H291.024a9.743,9.743,0,0,0,9.5-9.95V45.5a9.743,9.743,0,0,0-9.5-9.95Z" transform="translate(-68.553 -24.352)" fill="#3b3638"/>
        <path id="Trazado_1281572" data-name="Trazado 1281572" d="M426.584,94.27c-.03.145-.065.292-.1.437l-37.057,137.6a7.612,7.612,0,0,1-7.266,5.759H170.339c-5,0-8.622-5.01-7.263-10.054L199.1,94.27l1.037-3.855a7.611,7.611,0,0,1,7.263-5.762H419.218a7.818,7.818,0,0,1,7.366,9.617" transform="translate(-114.767 -58.493)" fill="#fff7df"/>
        <path id="Trazado_1281573" data-name="Trazado 1281573" d="M222.1,183.277h210.62l-10.156,37.34L401.6,297.706H190.975Z" transform="translate(-134.64 -126.64)" fill="#fff"/>
        <path id="Trazado_1281574" data-name="Trazado 1281574" d="M401,302.191H312.022a5.277,5.277,0,0,1-4.879-6.8l26.208-95.025a5.117,5.117,0,0,1,4.879-3.843H427.2a5.277,5.277,0,0,1,4.879,6.8l-26.206,95.025A5.117,5.117,0,0,1,401,302.191" transform="translate(-216.397 -135.794)" fill="#d5f4f8"/>
        <path id="Trazado_1281575" data-name="Trazado 1281575" d="M904.63,297.514a.147.147,0,0,1-.041-.006.156.156,0,0,1-.1-.191l31.124-114.428a.145.145,0,0,1,.182-.106.155.155,0,0,1,.1.191L904.772,297.4a.148.148,0,0,1-.142.112" transform="translate(-637.672 -126.293)" fill="#3b3638"/>
        <path id="Trazado_1281576" data-name="Trazado 1281576" d="M885.179,297.514a.147.147,0,0,1-.041-.006.156.156,0,0,1-.1-.191l31.124-114.428a.145.145,0,0,1,.182-.106.155.155,0,0,1,.1.191L885.321,297.4a.149.149,0,0,1-.142.112" transform="translate(-623.959 -126.293)" fill="#3b3638"/>
        <path id="Trazado_1281577" data-name="Trazado 1281577" d="M314.077,147.252l-1.714,6.3a.858.858,0,0,1-.819.647h-8.492a1.7,1.7,0,0,1-1.57-2.181l1.267-4.655a1.648,1.648,0,0,1,1.571-1.243h8.938a.884.884,0,0,1,.819,1.136" transform="translate(-212.504 -100.962)" fill="#fff"/>
        <path id="Trazado_1281578" data-name="Trazado 1281578" d="M541.5,148.3l-1.265,4.655a1.649,1.649,0,0,1-1.573,1.243H342.787a1.143,1.143,0,0,1-1.058-1.469l1.463-5.377a1.636,1.636,0,0,1,1.56-1.234h195.18A1.7,1.7,0,0,1,541.5,148.3" transform="translate(-240.893 -100.962)" fill="#d5f4f8"/>
        <path id="Trazado_1281579" data-name="Trazado 1281579" d="M513.36,94.27H285.872l1.037-3.855a7.611,7.611,0,0,1,7.263-5.762H505.994a7.818,7.818,0,0,1,7.366,9.617" transform="translate(-201.544 -58.493)" fill="#1e535a"/>
        <path id="Trazado_1281580" data-name="Trazado 1281580" d="M1018.858,96.47a1.6,1.6,0,1,1-1.6-1.675,1.638,1.638,0,0,1,1.6,1.675" transform="translate(-716.054 -65.501)" fill="#fff"/>
        <path id="Trazado_1281581" data-name="Trazado 1281581" d="M995.4,96.47a1.6,1.6,0,1,1-1.6-1.675,1.638,1.638,0,0,1,1.6,1.675" transform="translate(-699.519 -65.501)" fill="#fff"/>
        <path id="Trazado_1281582" data-name="Trazado 1281582" d="M971.949,96.47a1.6,1.6,0,1,1-1.6-1.675,1.638,1.638,0,0,1,1.6,1.675" transform="translate(-682.983 -65.501)" fill="#fff"/>
        <path id="Trazado_1281583" data-name="Trazado 1281583" d="M319.255,152.27a3,3,0,0,0-.684-4.046,2.7,2.7,0,0,0-3.862.717,3,3,0,0,0,.577,3.959l-1.12,1.678a.146.146,0,0,0,.033.2.131.131,0,0,0,.189-.035l1.12-1.678a2.7,2.7,0,0,0,3.748-.792m-3.707.484a2.7,2.7,0,0,1-.617-3.651,2.434,2.434,0,0,1,3.485-.647,2.7,2.7,0,0,1,.617,3.651,2.434,2.434,0,0,1-3.485.646" transform="translate(-221.474 -102.057)" fill="#3b3638"/>
        <path id="Trazado_1281584" data-name="Trazado 1281584" d="M319.814,150.125a2.12,2.12,0,0,0-3.035.563,2.356,2.356,0,0,0,.538,3.179,2.12,2.12,0,0,0,3.035-.563,2.356,2.356,0,0,0-.538-3.179m-2.342,3.51a2.062,2.062,0,0,1-.47-2.784,1.856,1.856,0,0,1,2.657-.493,2.063,2.063,0,0,1,.47,2.784,1.856,1.856,0,0,1-2.657.493" transform="translate(-223.057 -103.448)" fill="#3b3638"/>
        <path id="Trazado_1281585" data-name="Trazado 1281585" d="M987.663,191.157h3.1a.637.637,0,0,1,.588.822l-1.5,5.361a.617.617,0,0,1-.588.461h-3.054a.637.637,0,0,1-.589-.817l1.457-5.361a.617.617,0,0,1,.589-.466" transform="translate(-694.857 -132.084)" fill="#b6b6ce"/>
        <path id="Trazado_1281586" data-name="Trazado 1281586" d="M289.749,335.141H266.683a.619.619,0,0,1,0-1.236h23.066a.619.619,0,0,1,0,1.236" transform="translate(-187.599 -230.72)" fill="#b6b6ce"/>
        <path id="Trazado_1281587" data-name="Trazado 1281587" d="M285.491,349.463H262.425a.619.619,0,0,1,0-1.236h23.066a.619.619,0,0,1,0,1.236" transform="translate(-184.597 -240.616)" fill="#b6b6ce"/>
        <path id="Trazado_1281588" data-name="Trazado 1281588" d="M281.232,363.786H258.166a.619.619,0,0,1,0-1.236h23.066a.619.619,0,0,1,0,1.236" transform="translate(-181.595 -250.512)" fill="#b6b6ce"/>
        <path id="Trazado_1281589" data-name="Trazado 1281589" d="M276.975,378.108H253.909a.619.619,0,0,1,0-1.236h23.066a.619.619,0,0,1,0,1.236" transform="translate(-178.593 -260.409)" fill="#b6b6ce"/>
        <path id="Trazado_1281590" data-name="Trazado 1281590" d="M326.716,202.617H303.65a.619.619,0,0,1,0-1.236h23.066a.619.619,0,0,1,0,1.236" transform="translate(-213.661 -139.149)" fill="#b6b6ce"/>
        <path id="Trazado_1281591" data-name="Trazado 1281591" d="M322.459,216.94H299.393a.619.619,0,0,1,0-1.236h23.066a.619.619,0,0,1,0,1.236" transform="translate(-210.66 -149.046)" fill="#b6b6ce"/>
        <path id="Trazado_1281592" data-name="Trazado 1281592" d="M318.2,231.262H295.134a.619.619,0,0,1,0-1.236H318.2a.619.619,0,0,1,0,1.236" transform="translate(-207.658 -158.942)" fill="#b6b6ce"/>
        <path id="Trazado_1281593" data-name="Trazado 1281593" d="M313.943,245.585H290.877a.619.619,0,0,1,0-1.236h23.066a.619.619,0,0,1,0,1.236" transform="translate(-204.656 -168.839)" fill="#b6b6ce"/>
        <path id="Trazado_1281594" data-name="Trazado 1281594" d="M494.6,244.656H408.161a.629.629,0,0,1,0-1.257H494.6a.629.629,0,0,1,0,1.257" transform="translate(-287.336 -168.182)" fill="#fff"/>
        <path id="Trazado_1281595" data-name="Trazado 1281595" d="M490.341,259.477H403.9a.629.629,0,0,1,0-1.257h86.438a.629.629,0,0,1,0,1.257" transform="translate(-284.334 -178.423)" fill="#fff"/>
        <path id="Trazado_1281596" data-name="Trazado 1281596" d="M486.082,274.3H399.644a.629.629,0,0,1,0-1.257h86.438a.629.629,0,0,1,0,1.257" transform="translate(-281.331 -188.665)" fill="#fff"/>
        <path id="Trazado_1281597" data-name="Trazado 1281597" d="M482.307,289.122h-86.92a.629.629,0,0,1,0-1.257h86.92a.629.629,0,0,1,0,1.257" transform="translate(-278.33 -198.907)" fill="#fff"/>
        <path id="Trazado_1281598" data-name="Trazado 1281598" d="M477.27,302.129H390.024a.629.629,0,0,1,0-1.257H477.27a.629.629,0,0,1,0,1.257" transform="translate(-274.549 -207.895)" fill="#fff"/>
        <path id="Trazado_1281599" data-name="Trazado 1281599" d="M472.841,316.952H385.766a.629.629,0,0,1,0-1.257h87.075a.629.629,0,0,1,0,1.257" transform="translate(-271.547 -218.137)" fill="#fff"/>
        <path id="Trazado_1281600" data-name="Trazado 1281600" d="M468.5,331.773H381.508a.629.629,0,0,1,0-1.257H468.5a.629.629,0,0,1,0,1.257" transform="translate(-268.545 -228.378)" fill="#fff"/>
        <path id="Trazado_1281601" data-name="Trazado 1281601" d="M464.468,346.6H377.25a.629.629,0,0,1,0-1.257h87.217a.629.629,0,0,1,0,1.257" transform="translate(-265.543 -238.62)" fill="#fff"/>
        <path id="Trazado_1281602" data-name="Trazado 1281602" d="M459.546,359.6H371.888a.629.629,0,0,1,0-1.257h87.658a.629.629,0,0,1,0,1.257" transform="translate(-261.763 -247.608)" fill="#fff"/>
        <path id="Trazado_1281603" data-name="Trazado 1281603" d="M454.944,374.425H367.629a.629.629,0,0,1,0-1.257h87.315a.629.629,0,0,1,0,1.257" transform="translate(-258.76 -257.849)" fill="#fff"/>
        <path id="Trazado_1281604" data-name="Trazado 1281604" d="M450.8,389.247H363.372a.629.629,0,0,1,0-1.257H450.8a.629.629,0,0,1,0,1.257" transform="translate(-255.759 -268.091)" fill="#fff"/>
        <path id="Trazado_1281605" data-name="Trazado 1281605" d="M446.807,404.069H359.113a.629.629,0,0,1,0-1.257h87.694a.629.629,0,0,1,0,1.257" transform="translate(-252.756 -278.332)" fill="#fff"/>
        <path id="Trazado_1281606" data-name="Trazado 1281606" d="M441.851,417.077h-88.1a.629.629,0,0,1,0-1.257h88.1a.629.629,0,0,1,0,1.257" transform="translate(-248.976 -287.321)" fill="#fff"/>
        <path id="Trazado_1281607" data-name="Trazado 1281607" d="M441.142,431.9H354.7a.629.629,0,0,1,0-1.257h86.438a.629.629,0,0,1,0,1.257" transform="translate(-249.648 -297.562)" fill="#fff"/>
        <path id="Trazado_1281608" data-name="Trazado 1281608" d="M433.39,446.721H345.235a.629.629,0,0,1,0-1.257H433.39a.629.629,0,0,1,0,1.257" transform="translate(-242.972 -307.804)" fill="#fff"/>
        <path id="Trazado_1281609" data-name="Trazado 1281609" d="M429.417,461.543h-88.44a.629.629,0,0,1,0-1.257h88.44a.629.629,0,0,1,0,1.257" transform="translate(-239.97 -318.046)" fill="#fff"/>
        <path id="Trazado_1281610" data-name="Trazado 1281610" d="M75.479,313.93H16.866a4.747,4.747,0,0,1-4.624-4.208L.508,222.619.047,219.2a4.818,4.818,0,0,1,4.622-5.573H63.284a4.749,4.749,0,0,1,4.624,4.208l.643,4.781L80.1,308.354a4.821,4.821,0,0,1-4.624,5.576" transform="translate(0 -147.613)" fill="#b6b6ce"/>
        <path id="Trazado_1281611" data-name="Trazado 1281611" d="M92.291,276.362H29.58a5.079,5.079,0,0,1-4.948-4.5L12.078,178.666l-.493-3.654a5.155,5.155,0,0,1,4.945-5.963H79.243a5.081,5.081,0,0,1,4.948,4.5l.688,5.115L97.238,270.4a5.158,5.158,0,0,1-4.948,5.966" transform="translate(-8.132 -116.808)" fill="#f2f0f7"/>
        <path id="Trazado_1281612" data-name="Trazado 1281612" d="M96.99,234.017h-59.8a1.789,1.789,0,0,1-1.743-1.588l-.731-5.463a1.817,1.817,0,0,1,1.743-2.1H96.3a1.791,1.791,0,0,1,1.746,1.6l.685,5.463a1.816,1.816,0,0,1-1.745,2.085" transform="translate(-24.46 -155.376)" fill="#a4e7f0"/>
        <path id="Trazado_1281613" data-name="Trazado 1281613" d="M103.606,282.11H43.925a1.789,1.789,0,0,1-1.743-1.588l-.731-5.461a1.817,1.817,0,0,1,1.743-2.1h59.727a1.79,1.79,0,0,1,1.745,1.6l.685,5.46a1.816,1.816,0,0,1-1.745,2.085" transform="translate(-29.211 -188.609)" fill="#a4e7f0"/>
        <path id="Trazado_1281614" data-name="Trazado 1281614" d="M110.223,330.2H50.664a1.789,1.789,0,0,1-1.743-1.588l-.731-5.463a1.817,1.817,0,0,1,1.743-2.1h59.6a1.791,1.791,0,0,1,1.746,1.6l.685,5.463a1.816,1.816,0,0,1-1.745,2.085" transform="translate(-33.962 -221.835)" fill="#a4e7f0"/>
        <path id="Trazado_1281615" data-name="Trazado 1281615" d="M116.839,378.294H57.4a1.789,1.789,0,0,1-1.743-1.588l-.731-5.463a1.817,1.817,0,0,1,1.743-2.1h59.481a1.79,1.79,0,0,1,1.745,1.6l.687,5.463a1.816,1.816,0,0,1-1.745,2.085" transform="translate(-38.712 -255.067)" fill="#a4e7f0"/>
        <path id="Trazado_1281616" data-name="Trazado 1281616" d="M123.453,426.39H64.14A1.789,1.789,0,0,1,62.4,424.8l-.731-5.463a1.817,1.817,0,0,1,1.744-2.1h59.358a1.791,1.791,0,0,1,1.746,1.6l.685,5.463a1.816,1.816,0,0,1-1.745,2.085" transform="translate(-43.463 -288.3)" fill="#a4e7f0"/>
        <path id="Trazado_1281617" data-name="Trazado 1281617" d="M130.069,474.476H70.878a1.79,1.79,0,0,1-1.744-1.588l-.731-5.463a1.817,1.817,0,0,1,1.744-2.1h59.237a1.791,1.791,0,0,1,1.746,1.6l.685,5.463a1.816,1.816,0,0,1-1.745,2.084" transform="translate(-48.213 -321.527)" fill="#a4e7f0"/>
        <path id="Trazado_1281618" data-name="Trazado 1281618" d="M84.879,178.666h-72.8l-.493-3.654a5.155,5.155,0,0,1,4.945-5.963H79.244a5.08,5.08,0,0,1,4.948,4.5Z" transform="translate(-8.132 -116.808)" fill="#1e535a"/>
        <path id="Trazado_1281619" data-name="Trazado 1281619" d="M233.115,179.882a2.02,2.02,0,1,1-2.018-2.114,2.068,2.068,0,0,1,2.018,2.114" transform="translate(-161.504 -122.833)" fill="#fff"/>
        <path id="Trazado_1281620" data-name="Trazado 1281620" d="M47.281,229.455H41.842a1.891,1.891,0,0,0-1.814,2.186l.331,2.476a1.863,1.863,0,0,0,1.815,1.653h5.439a1.891,1.891,0,0,0,1.814-2.186l-.331-2.476a1.862,1.862,0,0,0-1.814-1.653" transform="translate(-28.207 -158.547)" fill="#fff"/>
        <path id="Trazado_1281621" data-name="Trazado 1281621" d="M54.02,277.551H48.581a1.891,1.891,0,0,0-1.814,2.186l.331,2.473a1.862,1.862,0,0,0,1.815,1.653h5.439a1.891,1.891,0,0,0,1.815-2.186l-.331-2.473a1.862,1.862,0,0,0-1.814-1.653" transform="translate(-32.958 -191.78)" fill="#fff"/>
        <path id="Trazado_1281622" data-name="Trazado 1281622" d="M60.757,325.637H55.319a1.891,1.891,0,0,0-1.815,2.186l.331,2.476a1.863,1.863,0,0,0,1.815,1.653h5.439a1.891,1.891,0,0,0,1.814-2.186l-.331-2.476a1.862,1.862,0,0,0-1.814-1.653" transform="translate(-37.708 -225.007)" fill="#fff"/>
        <path id="Trazado_1281623" data-name="Trazado 1281623" d="M67.5,373.733H62.057a1.891,1.891,0,0,0-1.814,2.186l.331,2.476a1.862,1.862,0,0,0,1.815,1.653h5.439a1.891,1.891,0,0,0,1.814-2.186l-.331-2.476a1.862,1.862,0,0,0-1.814-1.653" transform="translate(-42.459 -258.24)" fill="#fff"/>
        <path id="Trazado_1281624" data-name="Trazado 1281624" d="M74.234,421.829H68.8a1.891,1.891,0,0,0-1.814,2.186l.331,2.476a1.862,1.862,0,0,0,1.814,1.653h5.439a1.891,1.891,0,0,0,1.814-2.186l-.331-2.476a1.862,1.862,0,0,0-1.814-1.653" transform="translate(-47.21 -291.473)" fill="#fff"/>
        <path id="Trazado_1281625" data-name="Trazado 1281625" d="M73.719,472.1l.331,2.476a1.862,1.862,0,0,0,1.814,1.653H81.3a1.891,1.891,0,0,0,1.814-2.186l-.331-2.476a1.863,1.863,0,0,0-1.815-1.653H75.533a1.891,1.891,0,0,0-1.814,2.186" transform="translate(-51.96 -324.699)" fill="#fff"/>
        <path id="Trazado_1281626" data-name="Trazado 1281626" d="M51.151,236.778l-2.241-1.816.663-.9,1.28,1.038,1.673-2.9.927.587Z" transform="translate(-34.482 -160.448)" fill="#69d7e5"/>
        <path id="Trazado_1281627" data-name="Trazado 1281627" d="M64.243,333.91,62,332.093l.663-.9,1.28,1.038,1.673-2.9.927.587Z" transform="translate(-43.712 -227.563)" fill="#69d7e5"/>
        <path id="Trazado_1281628" data-name="Trazado 1281628" d="M70.982,382.005l-2.241-1.816.663-.9,1.28,1.038,1.673-2.9.927.588Z" transform="translate(-48.463 -260.796)" fill="#69d7e5"/>
        <path id="Trazado_1281629" data-name="Trazado 1281629" d="M77.72,430.1l-2.241-1.816.663-.9,1.28,1.038,1.673-2.9.927.587Z" transform="translate(-53.214 -294.026)" fill="#69d7e5"/>
        <path id="Trazado_1281682" data-name="Trazado 1281682" d="M.012.062,5.325-.061,5.3,1.048l-5.312.123Z" transform="translate(16.391 90.412) rotate(-45)" fill="#ffbd63"/>
        <path id="Trazado_1281683" data-name="Trazado 1281683" d="M.062.012,1.171-.013,1.048,5.3l-1.109.026Z" transform="translate(16.391 87.441) rotate(-45)" fill="#ffbd63"/>
        <path id="Trazado_1281684" data-name="Trazado 1281684" d="M.012.062,5.325-.061,5.3,1.048l-5.312.123Z" transform="translate(24.188 149.859) rotate(-45)" fill="#ffbd63"/>
        <path id="Trazado_1281685" data-name="Trazado 1281685" d="M.062.012,1.171-.013,1.048,5.3l-1.109.026Z" transform="translate(24.188 146.888) rotate(-45)" fill="#ffbd63"/>
        <path id="Trazado_1281630" data-name="Trazado 1281630" d="M352.318,557.094s7.021,6.913,71.047,6.913c62.263,0,71.047-6.913,71.047-6.913a11.559,11.559,0,0,0-2.906-7.42c-9.929-12.126-36.243-25.633-71.028-31.631-33.109-5.711-61.488,16.337-66.8,31.514a22.851,22.851,0,0,0-1.36,7.537" transform="translate(-248.389 -357.316)" fill="#b6b6ce"/>
        <path id="Trazado_1281631" data-name="Trazado 1281631" d="M352.318,629.621s7.021,6.913,71.047,6.913c62.263,0,71.047-6.913,71.047-6.913a11.559,11.559,0,0,0-2.906-7.42c-14.717,2.75-75.1,12.448-137.829-.117a22.851,22.851,0,0,0-1.36,7.537" transform="translate(-248.389 -429.844)" fill="#6b6b82"/>
        <path id="Trazado_1281632" data-name="Trazado 1281632" d="M706.972,562.141c-.745,1.1-6.243.8-9.931-.666-4.8-1.906-7.982-5.758-7.029-7.868s5.844-2.072,10.48.227,7.768,6.4,6.48,8.307" transform="translate(-486.349 -381.463)" fill="#6b6b82"/>
        <path id="Trazado_1281633" data-name="Trazado 1281633" d="M661.924,558.845a.148.148,0,0,1-.092-.032c-.257-.206-26.058-20.609-56.646-25.568a.158.158,0,0,1-.127-.181.154.154,0,0,1,.173-.133c30.665,4.973,56.526,25.424,56.784,25.63a.164.164,0,0,1,.029.223.148.148,0,0,1-.121.062" transform="translate(-426.574 -368.239)" fill="#6b6b82"/>
        <path id="Trazado_1281634" data-name="Trazado 1281634" d="M472.267,267.189c-3.462-.983-6.355,1.706-7.851,4.728-2,4.041-.5,7.619-1.127,11.8-.46,3.053-1.518,6.839-.391,9.855,1.144,3.061,4.557,3.771,7.324,3.049,4.508-1.176,6.157-6.2,4.959-10.528-1.4-5.077-3.088-9.508-.9-14.741a3,3,0,0,0-1.758-4.083c-.085-.032-.17-.06-.256-.084" transform="translate(-325.995 -184.478)" fill="#3b3638"/>
        <path id="Trazado_1281635" data-name="Trazado 1281635" d="M411.623,652.994c.877-1.5.052-5.249-1.089-7.089H404.58c-2.07,3.207-13.145,5.549-10.9,7.089Z" transform="translate(-277.34 -446.303)" fill="#3b3638"/>
        <path id="Trazado_1281636" data-name="Trazado 1281636" d="M321.96,579.98c.665-.481,1.761-3.475.722-7.17l-5.908-.771c-2.432,2.915-13.743,3.8-11.694,5.617Z" transform="translate(-214.912 -395.264)" fill="#3b3638"/>
        <path id="Trazado_1281637" data-name="Trazado 1281637" d="M339.305,266.1c-.391-.358-9.788-12.252-11.354-11.6s4.385,5.785,4.385,5.785-5.09,3.055-4.15,5.772,7.047,5.622,7.047,5.622Z" transform="translate(-231.025 -175.84)" fill="#ba6d50"/>
        <path id="Trazado_1281638" data-name="Trazado 1281638" d="M394.825,344.956c8.714,5.277,24.128,6.824,24.128,6.824s5.608.8,8.876-1.859c4.818-3.921-4.89-24.326-9.618-33.436a12.348,12.348,0,0,0-10.349-6.774c-.88-.04-2.427-.364-3.387-.4-6.127-.217-12.045-.877-12.045-.877-22-4.083-37.664-20.7-37.664-20.7-2.5,2.34-5.032,7.22-5.032,7.22,5.638,8.42,35.006,28.955,35.006,28.955s5.837,16.98,10.085,21.041" transform="translate(-246.567 -198.821)" fill="#ffb851"/>
        <path id="Trazado_1281639" data-name="Trazado 1281639" d="M461.361,434.277H438.444a1.064,1.064,0,0,1-1.024-.848L433.5,416.12a1.092,1.092,0,0,1,1.024-1.357h22.917a1.064,1.064,0,0,1,1.025.848l3.917,17.309a1.092,1.092,0,0,1-1.025,1.357" transform="translate(-305.604 -286.59)" fill="#b6b6ce"/>
        <path id="Trazado_1281640" data-name="Trazado 1281640" d="M409.1,486.6c-19.883.493-37.124-11.564-37.124-11.564l-20.751,19.841a7.513,7.513,0,0,1-5.908-.769s19.811-34.024,26.774-34.778,19.62,4.135,19.62,4.135c8.714,5.28,24.128,6.825,24.128,6.825,3.122,7.619,4.084,16.043-6.739,16.31" transform="translate(-243.453 -317.327)" fill="#1e535a"/>
        <path id="Trazado_1281641" data-name="Trazado 1281641" d="M418.03,534.059l-5.569-42.534,4.648-7.487,31.5,19.058a89.419,89.419,0,0,1-22.227-1.1,183.55,183.55,0,0,1-2.4,32.064s-4.433,1.221-5.953,0" transform="translate(-290.791 -334.457)" fill="#1e535a"/>
        <path id="Trazado_1281642" data-name="Trazado 1281642" d="M471.463,520.239c-3.691,0-25.256-.519-37.964-12.209a.164.164,0,0,1-.014-.224.146.146,0,0,1,.214-.015c13.771,12.669,38.057,12.132,38.3,12.125a.159.159,0,0,1,.008.318c-.021,0-.209.005-.544.005" transform="translate(-305.586 -350.843)" fill="#3b3638"/>
        <path id="Trazado_1281643" data-name="Trazado 1281643" d="M379.317,527.048A.149.149,0,0,1,379.2,527a.164.164,0,0,1,.011-.224l16.248-15.3a.146.146,0,0,1,.214.012.164.164,0,0,1-.011.224l-16.248,15.3a.147.147,0,0,1-.1.041" transform="translate(-267.316 -353.388)" fill="#3b3638"/>
        <path id="Trazado_1281644" data-name="Trazado 1281644" d="M521.03,446.705c-.822-.646-3.406-1.62-3.964-2.02s-.529.862.264,1.476a10.279,10.279,0,0,1,1.1,1.028c-3.45-1.186-7.7-2.534-8.144-2.133-.3.277.884,1.241,1.479,1.446,0,0-2.549-.854-2.772-.39-.284.591,3.776,2.379,3.776,2.379s-2.933-.87-3.01-.369,2.574,1.876,4.475,2.522c0,0-3.3-1.138-3.6-.461-.438.976,7.565,3.558,12.278,3.025.505-1.521,1.2-3.4.666-4.821,0,0-1.723-1.036-2.545-1.682" transform="translate(-358.838 -307.213)" fill="#ba6d50"/>
        <path id="Trazado_1281645" data-name="Trazado 1281645" d="M563.909,480.775a.141.141,0,0,1-.052-.01c-2.961-1.138-7.664-4.743-7.711-4.779a.164.164,0,0,1-.033-.222.147.147,0,0,1,.212-.034c.047.036,4.715,3.613,7.636,4.737a.161.161,0,0,1,.09.2.153.153,0,0,1-.143.1" transform="translate(-392.046 -328.695)" fill="#3b3638"/>
        <path id="Trazado_1281646" data-name="Trazado 1281646" d="M576.005,458.266a.135.135,0,0,1-.038-.005c-.109-.029-10.928-2.948-12.182-2.948a.159.159,0,0,1,0-.318c1.292,0,11.81,2.837,12.258,2.958a.16.16,0,0,1,.109.194.154.154,0,0,1-.147.119" transform="translate(-397.37 -314.39)" fill="#3b3638"/>
        <path id="Trazado_1281647" data-name="Trazado 1281647" d="M551.365,374.537a.154.154,0,0,1-.15-.141,5.128,5.128,0,0,1,2.975-5.4.15.15,0,0,1,.2.093.161.161,0,0,1-.089.2,4.734,4.734,0,0,0-2.781,5.062.157.157,0,0,1-.133.176h-.018" transform="translate(-388.586 -254.963)" fill="#3b3638"/>
        <path id="Trazado_1281648" data-name="Trazado 1281648" d="M561.054,416.339a.154.154,0,0,1-.149-.131c-.345-2.048-5.748-14.418-5.8-14.542a.162.162,0,0,1,.075-.211.149.149,0,0,1,.2.078c.223.511,5.474,12.532,5.825,14.619a.158.158,0,0,1-.123.184.128.128,0,0,1-.027,0" transform="translate(-391.345 -277.385)" fill="#3b3638"/>
        <path id="Trazado_1281649" data-name="Trazado 1281649" d="M464.2,393.012a.152.152,0,0,1-.144-.109l-2.163-6.783a.161.161,0,0,1,.1-.2.15.15,0,0,1,.192.1l2.163,6.783a.161.161,0,0,1-.1.2.147.147,0,0,1-.048.008" transform="translate(-325.633 -266.654)" fill="#3b3638"/>
        <path id="Trazado_1281650" data-name="Trazado 1281650" d="M494.3,328.855a3,3,0,0,0,2.757,3.748c3.09.453,9.287-2.871,9.287-2.871-4.488-2.243-2.931-12.441-2.931-12.441l-8.222,7.576a5.588,5.588,0,0,1-.892,3.987" transform="translate(-348.437 -219.24)" fill="#ba6d50"/>
        <path id="Trazado_1281651" data-name="Trazado 1281651" d="M474.287,284.825c.427,6.49,3,10.882,5.488,11.1,5,.433,10.933-5.7,10.506-12.191s-3.836-9.963-8.4-9.633-8.022,4.237-7.6,10.728" transform="translate(-334.353 -189.38)" fill="#ba6d50"/>
        <path id="Trazado_1281652" data-name="Trazado 1281652" d="M503.712,299.253c-.045.459-.862.746-1.825.643s-1.708-.56-1.663-1.018.862-.746,1.825-.643,1.707.56,1.662,1.018" transform="translate(-352.663 -206.058)" fill="#3b3638"/>
        <path id="Trazado_1281653" data-name="Trazado 1281653" d="M504.253,308.31c-.056.573-.386,1.007-.736.97s-.589-.533-.532-1.106.386-1.007.736-.97.589.533.532,1.106" transform="translate(-354.605 -212.268)" fill="#3b3638"/>
        <path id="Trazado_1281654" data-name="Trazado 1281654" d="M501.754,307.433a2.2,2.2,0,0,1,.8-.764c.571-.118,1.1.506,1.554.837a.068.068,0,0,0,.1-.01.077.077,0,0,0,.009-.075,2.59,2.59,0,0,0-.494-.748c-.44-.517-1.258-.8-1.744-.151-.128.086-.573,1.112-.231.91" transform="translate(-353.654 -211.538)" fill="#3b3638"/>
        <path id="Trazado_1281655" data-name="Trazado 1281655" d="M479.525,296.768c-.045.459-.862.746-1.825.643s-1.708-.56-1.663-1.018.862-.746,1.825-.643,1.707.56,1.663,1.018" transform="translate(-335.611 -204.341)" fill="#3b3638"/>
        <path id="Trazado_1281656" data-name="Trazado 1281656" d="M479.171,305.733c-.056.573-.386,1.007-.736.97s-.588-.533-.532-1.106.386-1.007.736-.97.589.533.532,1.106" transform="translate(-336.922 -210.488)" fill="#3b3638"/>
        <path id="Trazado_1281657" data-name="Trazado 1281657" d="M476.671,304.855a2.2,2.2,0,0,1,.8-.764c.571-.118,1.1.506,1.554.837a.068.068,0,0,0,.1-.01.077.077,0,0,0,.009-.075,2.587,2.587,0,0,0-.494-.748c-.44-.517-1.258-.8-1.744-.151-.128.086-.573,1.112-.231.91" transform="translate(-335.97 -209.757)" fill="#3b3638"/>
        <path id="Trazado_1281658" data-name="Trazado 1281658" d="M488.175,327.274a2.266,2.266,0,0,1-2.647.228,2.641,2.641,0,0,0-.463-.176.1.1,0,0,0-.122.076,1.759,1.759,0,0,0,3.153.473,1.622,1.622,0,0,0,.232-.494.1.1,0,0,0-.066-.125.1.1,0,0,0-.088.019" transform="translate(-341.891 -226.123)" fill="#91563f"/>
        <path id="Trazado_1281659" data-name="Trazado 1281659" d="M488.441,303.829l-1.034,4.532c-.291.9,1.851,1.047,2.065.148.041-.173-.849-4.534-.848-4.687-.015-.095-.165-.089-.183.007" transform="translate(-343.609 -209.886)" fill="#91563f"/>
        <path id="Trazado_1281660" data-name="Trazado 1281660" d="M483.276,268.719c1.408,2.624,4.325,3.751,6.666,5.486,3.71,2.751,4.255,6.383,4.264,10.529.005,2.49-.932,5.864.719,8.007.722.937,1.107,1.993,2.373,2.414,2.542.844,5.858-.22,7.817-1.887,2.326-1.98,5.066-5.351,3.471-7.592a29.128,29.128,0,0,1-3.68-6.513c-2.235-6.07-6.619-12.517-13.768-15.288a9.117,9.117,0,0,0-3.453-.64c-2.071.05-4.207,1.26-4.7,3.233a3.029,3.029,0,0,0,.293,2.251" transform="translate(-340.441 -181.887)" fill="#3b3638"/>
        <path id="Trazado_1281661" data-name="Trazado 1281661" d="M501.473,338.215a.153.153,0,0,1-.145-.111.161.161,0,0,1,.1-.2,14.3,14.3,0,0,0,3.83-2.335.146.146,0,0,1,.214,0,.164.164,0,0,1,0,.225,14.719,14.719,0,0,1-3.953,2.414.144.144,0,0,1-.045.007" transform="translate(-353.438 -231.837)" fill="#91563f"/>
        <path id="Trazado_1281662" data-name="Trazado 1281662" d="M711.438,239.281l10.2-36.442a3.572,3.572,0,0,1,3.4-2.669H784.1a3.685,3.685,0,0,1,3.4,4.759l-10.2,36.442a3.572,3.572,0,0,1-3.4,2.669H714.841a3.685,3.685,0,0,1-3.4-4.759" transform="translate(-501.471 -138.312)" fill="#cfe8ff"/>
        <path id="Trazado_1281663" data-name="Trazado 1281663" d="M780.506,377.95l5.786-20.672a2.027,2.027,0,0,1,1.93-1.515h33.5a2.09,2.09,0,0,1,1.93,2.7l-5.786,20.672a2.027,2.027,0,0,1-1.93,1.515h-33.5a2.091,2.091,0,0,1-1.93-2.7" transform="translate(-550.209 -245.823)" fill="#b6b6ce"/>
        <path id="Trazado_1281664" data-name="Trazado 1281664" d="M653.925,462.725l5.786-20.672a2.027,2.027,0,0,1,1.93-1.514h33.5a2.09,2.09,0,0,1,1.93,2.7l-5.786,20.672a2.026,2.026,0,0,1-1.93,1.514h-33.5a2.09,2.09,0,0,1-1.93-2.7" transform="translate(-460.968 -304.4)" fill="#6b6b82"/>
        <path id="Trazado_1281665" data-name="Trazado 1281665" d="M823.262,241.73c0,7.267-5.624,13.159-12.561,13.159s-12.56-5.891-12.56-13.159,5.624-13.159,12.56-13.159,12.561,5.891,12.561,13.159" transform="translate(-562.7 -157.937)" fill="#fff"/>
        <path id="Trazado_1281666" data-name="Trazado 1281666" d="M840.7,255.137l-11.842-7.163V262.3Z" transform="translate(-584.357 -171.344)" fill="#6b6b82"/>
        <path id="Trazado_1281667" data-name="Trazado 1281667" d="M837.766,370.871H806.231a.619.619,0,0,1,0-1.236h31.535a.619.619,0,0,1,0,1.236" transform="translate(-567.988 -255.408)" fill="#fff"/>
        <path id="Trazado_1281668" data-name="Trazado 1281668" d="M833.508,385.193H801.973a.619.619,0,0,1,0-1.236h31.535a.619.619,0,0,1,0,1.236" transform="translate(-564.986 -265.304)" fill="#fff"/>
        <path id="Trazado_1281669" data-name="Trazado 1281669" d="M829.25,399.516H797.715a.619.619,0,0,1,0-1.236H829.25a.619.619,0,0,1,0,1.236" transform="translate(-561.984 -275.201)" fill="#fff"/>
        <path id="Trazado_1281670" data-name="Trazado 1281670" d="M824.992,413.838H793.457a.619.619,0,0,1,0-1.236h31.535a.619.619,0,0,1,0,1.236" transform="translate(-558.982 -285.097)" fill="#fff"/>
        <path id="Trazado_1281671" data-name="Trazado 1281671" d="M710.323,458.556H678.788a.619.619,0,0,1,0-1.236h31.535a.619.619,0,0,1,0,1.236" transform="translate(-478.139 -315.996)" fill="#fff"/>
        <path id="Trazado_1281672" data-name="Trazado 1281672" d="M706.065,472.878H674.53a.619.619,0,0,1,0-1.236h31.535a.619.619,0,0,1,0,1.236" transform="translate(-475.137 -325.892)" fill="#fff"/>
        <path id="Trazado_1281673" data-name="Trazado 1281673" d="M701.807,487.2H670.272a.619.619,0,0,1,0-1.236h31.535a.619.619,0,0,1,0,1.236" transform="translate(-472.135 -335.789)" fill="#fff"/>
        <path id="Trazado_1281674" data-name="Trazado 1281674" d="M697.549,501.523H666.014a.619.619,0,0,1,0-1.236h31.535a.619.619,0,0,1,0,1.236" transform="translate(-469.133 -345.685)" fill="#fff"/>
        <path id="Trazado_1281675" data-name="Trazado 1281675" d="M719.318,384.973a8.955,8.955,0,1,1,8.539-8.945,8.759,8.759,0,0,1-8.539,8.945m0-17.573a8.637,8.637,0,1,0,8.235,8.628,8.448,8.448,0,0,0-8.235-8.628" transform="translate(-501.109 -253.645)" fill="#3b3638"/>
        <path id="Trazado_1281676" data-name="Trazado 1281676" d="M825.641,472.982a8.955,8.955,0,1,1,8.539-8.945,8.759,8.759,0,0,1-8.539,8.945m0-17.572a8.637,8.637,0,1,0,8.235,8.627,8.448,8.448,0,0,0-8.235-8.627" transform="translate(-576.068 -314.457)" fill="#3b3638"/>
        <path id="Trazado_1281677" data-name="Trazado 1281677" d="M727.575,391.186l-5.04-4.085,1.083-1.466,3.47,2.813,4.29-7.427,1.514.96Z" transform="translate(-509.397 -263.275)" fill="#69d7e5"/>
        <path id="Trazado_1281678" data-name="Trazado 1281678" d="M839.015,468.2l-1.252-1.311-3.808,3.989-3.808-3.989L828.9,468.2l3.808,3.989-3.808,3.989,1.252,1.311,3.808-3.989,3.808,3.989,1.252-1.311-3.808-3.989Z" transform="translate(-584.383 -322.606)" fill="#ffbd63"/>
        <path id="Trazado_1281679" data-name="Trazado 1281679" d="M508.1,205.805l1.029-3.678a.793.793,0,0,1,.756-.593h4.078a.818.818,0,0,1,.756,1.057l-1.03,3.678a.793.793,0,0,1-.755.593h-4.079a.818.818,0,0,1-.755-1.057" transform="translate(-358.196 -139.255)" fill="#6b6b82"/>
        <path id="Trazado_1281680" data-name="Trazado 1281680" d="M537.875,205.805l1.029-3.678a.793.793,0,0,1,.756-.593h4.078a.818.818,0,0,1,.756,1.057l-1.03,3.678a.793.793,0,0,1-.756.593h-4.078a.819.819,0,0,1-.756-1.057" transform="translate(-379.186 -139.255)" fill="#b6b6ce"/>
        <path id="Trazado_1281681" data-name="Trazado 1281681" d="M567.647,205.805l1.029-3.678a.793.793,0,0,1,.756-.593h4.078a.818.818,0,0,1,.756,1.057l-1.03,3.678a.793.793,0,0,1-.756.593H568.4a.819.819,0,0,1-.756-1.057" transform="translate(-400.176 -139.255)" fill="#fff"/>
      </g>
    </g>
  </g>
</svg>
