<svg xmlns="http://www.w3.org/2000/svg" xmlns:xlink="http://www.w3.org/1999/xlink" width="149.854" height="63.253" viewBox="0 0 149.854 63.253">
  <defs>
    <clipPath id="clip-path">
      <rect id="Rectángulo_456184" data-name="Rectángulo 456184" width="58.917" height="58.596" fill="#fff"/>
    </clipPath>
  </defs>
  <g id="Grupo_1179806" data-name="Grupo 1179806" transform="translate(-1189.406 -493.247)">
    <g id="Grupo_1178807" data-name="Grupo 1178807" transform="translate(14.928 -4)">
      <path id="Trazado_998133" data-name="Trazado 998133" d="M49.7-29.171h105.16L110.165,18.695H5Z" transform="translate(1169.474 541.806)" fill="#19538d"/>
    </g>
    <rect id="Rectángulo_456185" data-name="Rectángulo 456185" width="50" height="27" transform="translate(1239.549 499)" fill="#19538d"/>
    <g id="Grupo_1179805" data-name="Grupo 1179805" transform="translate(1234.875 493.247)">
      <g id="Grupo_1179805-2" data-name="Grupo 1179805" clip-path="url(#clip-path)">
        <path id="Trazado_998831" data-name="Trazado 998831" d="M58.849,182.042c.4,3.237-.937,6.149-4.292,6.861l-50.545-.074C.854,187.95-.3,185.142.064,182.042Z" transform="translate(0 -144.094)" fill="#fff"/>
        <path id="Trazado_998832" data-name="Trazado 998832" d="M91.1,232.042v3.335c2.263-.125,4.36.112,5.832,1.986,1.015,1.292,1.852,3.866.016,4.8l-28.059.1c-2.629-.16-1.928-3.279-.805-4.786,1.435-1.926,3.645-2.236,5.923-2.1v-3.335Z" transform="translate(-53.094 -183.671)" fill="#fff"/>
        <path id="Trazado_998833" data-name="Trazado 998833" d="M58.226,2.231A5.424,5.424,0,0,0,54,0L5,.008A5.349,5.349,0,0,0,.97,2.652C.859,2.861.308,4.194.308,4.282V34.613H59.093V4.282a17.076,17.076,0,0,0-.867-2.051M20.67,27.043a1.95,1.95,0,0,1-1.071.492,54.691,54.691,0,0,1-7.717-.014A1.713,1.713,0,0,1,12.1,24.2a54.669,54.669,0,0,1,7.7-.007,1.775,1.775,0,0,1,.876,2.848m-8.748-9.687a58.849,58.849,0,0,1,7.872-.04c1.6.3,1.829,3.027-.009,3.317a56.513,56.513,0,0,1-7.9.009c-1.55-.3-1.581-2.924.04-3.286m7.864-3.6a56.513,56.513,0,0,1-7.9.009c-1.55-.3-1.581-2.924.04-3.286a54.847,54.847,0,0,1,7.833,0,1.677,1.677,0,0,1,.031,3.278M48.68,23.887c-.134,1.475-1.01,1.738-2.112,2.474a64.309,64.309,0,0,1-7.3,4.369c-1.014.443-1.147.338-2.126-.117-2.831-1.317-5.724-3.752-8.555-5.2-.507-.319-.511-.779-.561-1.315a74.951,74.951,0,0,1,0-10.234c.11-1.22.393-1.214,1.279-1.848,2.591-1.852,5.781-3.325,8.468-5.082l1.3.073c2.49,1.924,6.675,3.451,8.968,5.414a2.141,2.141,0,0,1,.639,1.654,71.672,71.672,0,0,1,0,9.815" transform="translate(-0.244)" fill="#fff"/>
        <path id="Trazado_998834" data-name="Trazado 998834" d="M168.445,54.01c.03.036.083.451-.128.427l-4.976,2.9-5.107-2.915c-.067-.3.029-.337.216-.509a44.978,44.978,0,0,1,4.89-2.811Z" transform="translate(-125.231 -40.448)" fill="#fff"/>
        <path id="Trazado_998835" data-name="Trazado 998835" d="M154.52,90.423l-5.211-3.231v-6.15l5.211,3.023Z" transform="translate(-118.184 -64.148)" fill="#fff"/>
        <path id="Trazado_998836" data-name="Trazado 998836" d="M196.311,87.5l-5,2.71v-6.15l5-3.023Z" transform="translate(-151.428 -64.148)" fill="#fff"/>
      </g>
    </g>
  </g>
</svg>
