<svg xmlns="http://www.w3.org/2000/svg" xmlns:xlink="http://www.w3.org/1999/xlink" width="84" height="84" viewBox="0 0 84 84">
  <defs>
    <clipPath id="clip-path">
      <rect id="Rectángulo_464182" data-name="Rectángulo 464182" width="60.683" height="68.565" fill="#344866"/>
    </clipPath>
  </defs>
  <g id="Grupo_1214970" data-name="Grupo 1214970" transform="translate(-185.711 -2097)">
    <g id="Grupo_1213765" data-name="Grupo 1213765" transform="translate(186 2097.611)">
      <g id="Grupo_1119665" data-name="Grupo 1119665" transform="translate(-0.289 -0.611)">
        <rect id="Rectángulo_402006" data-name="Rectángulo 402006" width="84" height="84" rx="5" fill="#ffe79e"/>
      </g>
      <g id="Grupo_1214158" data-name="Grupo 1214158" transform="translate(10.711 7.388)">
        <g id="Grupo_1214157" data-name="Grupo 1214157" clip-path="url(#clip-path)">
          <path id="Trazado_1281707" data-name="Trazado 1281707" d="M45.513,68.563l-30.248,0a1.2,1.2,0,0,1-1.227-1.139l-.017-4.235c0-.934.543-1.347,1.424-1.348l8.567-.013.015-3.613-19.58-.008A4.4,4.4,0,0,1,.01,53.818L0,26.1a4.288,4.288,0,0,1,4.115-4.455l6.29-.049a20,20,0,1,1,39.88-.036l6.332.084a4.273,4.273,0,0,1,4.05,4.056l.015,28.115a4.385,4.385,0,0,1-4.431,4.38L36.7,58.2l-.017,3.626,9.028.022c.424,0,.965.7.964,1.1l-.011,4.488a1.218,1.218,0,0,1-1.146,1.123M38.26,10.095a14.76,14.76,0,0,0-4.315-6.411,5.563,5.563,0,0,0-7.2.006,13.692,13.692,0,0,0-4.274,6.478,17.713,17.713,0,0,0,15.788-.072M20.33,8.843a42.59,42.59,0,0,1,2.714-4.922,20.5,20.5,0,0,0-4.835,3.241c.761.65,1.478,1.222,2.121,1.681M42.477,7.119a23.228,23.228,0,0,0-4.823-3.2,46.542,46.542,0,0,1,2.726,4.977ZM18.447,21.558a33.121,33.121,0,0,1,1.117-10.326l-2.938-2.3A17.637,17.637,0,0,0,12.746,21.6ZM43.9,21.6l4.05-.076a17.666,17.666,0,0,0-3.9-12.621c-1.036.893-1.883,1.558-2.918,2.309A31.819,31.819,0,0,1,42.24,20.9a2.923,2.923,0,0,0,1.658.7M30.664,16.336l9.254,3.783a29.638,29.638,0,0,0-.926-7.733,19.982,19.982,0,0,1-17.288,0,30.79,30.79,0,0,0-.907,9.2l8.389,0,.007-4.187a1.136,1.136,0,0,1,1.471-1.054m14.8,26.341,0-17.753-13.93-5.693,0,21.107,3.917-.654Zm-32.631.939,0-13.692a1.351,1.351,0,0,1,.9-1.08L29.3,24.033l-24.96-.07a2.066,2.066,0,0,0-1.981,2.129V49.583l7.885,0,.063-5.292a9.288,9.288,0,0,1,2.529-.676M50.475,49.59l7.868-.01V26.27A2.143,2.143,0,0,0,56.2,23.953l-8.377-.013.008,19.485,2.064.613c.293.087.574.913.575,1.167ZM23.381,41.749l-.01-6.041,2.364.011.009,5.636,3.443-.6-.008-14.122L15.2,30.868l.01,12.334,3.4-.575.014-6.912,2.348.013.005,6.473ZM12.668,49.587l21.48,0-.01-7.307L12.621,46.046Zm35.441,0-.03-3.662L36.489,42.459l0,7.117ZM56.1,55.843a2.112,2.112,0,0,0,2.234-2.179l-.013-1.718H2.372L2.4,54.012a2.043,2.043,0,0,0,2.29,1.833ZM34.33,58.2H26.377v3.642H34.33Zm9.975,5.964H16.379v2.074H44.305Z" transform="translate(0 -0.001)" fill="#344866"/>
          <rect id="Rectángulo_464179" data-name="Rectángulo 464179" width="10.591" height="2.373" transform="translate(33.21 26.728)" fill="#344866"/>
          <rect id="Rectángulo_464180" data-name="Rectángulo 464180" width="10.591" height="2.368" transform="translate(33.21 31.109)" fill="#344866"/>
          <rect id="Rectángulo_464181" data-name="Rectángulo 464181" width="10.591" height="2.407" transform="translate(33.21 35.469)" fill="#344866"/>
        </g>
      </g>
    </g>
  </g>
</svg>
