<svg xmlns="http://www.w3.org/2000/svg" xmlns:xlink="http://www.w3.org/1999/xlink" width="128" height="128" viewBox="0 0 128 128">
  <defs>
    <clipPath id="clip-path">
      <rect id="Rectángulo_464974" data-name="Rectángulo 464974" width="66" height="62.444" fill="#19538d"/>
    </clipPath>
  </defs>
  <g id="Grupo_1215047" data-name="Grupo 1215047" transform="translate(-383.746 -8400)">
    <circle id="Elipse_13890" data-name="Elipse 13890" cx="64" cy="64" r="64" transform="translate(383.746 8400)" fill="#5a9ad7"/>
    <path id="Intersección_1" data-name="Intersección 1" d="M23204.689,11774.869a64,64,0,0,1,106.254-48.067l-104.787,61.753A64.213,64.213,0,0,1,23204.689,11774.869Z" transform="translate(-22820.941 -3310.872)" fill="#19538d"/>
    <circle id="Elipse_13891" data-name="Elipse 13891" cx="54" cy="54" r="54" transform="translate(393.746 8410)" fill="#fff"/>
    <g id="Grupo_1188343" data-name="Grupo 1188343" transform="translate(-0.994 -0.997)">
      <rect id="Rectángulo_459838" data-name="Rectángulo 459838" width="66" height="66" transform="translate(415.74 8431.997)" fill="#fff"/>
      <g id="Grupo_1215051" data-name="Grupo 1215051" transform="translate(415.74 8433.997)">
        <g id="Grupo_1215050" data-name="Grupo 1215050" clip-path="url(#clip-path)">
          <path id="Trazado_1283529" data-name="Trazado 1283529" d="M41.488,58.412a2.51,2.51,0,0,1,.526,2.685,2.342,2.342,0,0,1-2.1,1.348H26.084a2.325,2.325,0,0,1-2.1-1.351,2.46,2.46,0,0,1,.488-2.621,15.789,15.789,0,0,0,2.5-6.282H19.291a1.134,1.134,0,0,1-.891-.855,1.012,1.012,0,0,1,.944-1.052l44.7,0,.023-5.948H1.928l.011,5.944,13.262.008a.952.952,0,1,1-.019,1.9l-12.749.008A2.29,2.29,0,0,1,0,49.909L0,8.528A2.9,2.9,0,0,1,2.811,5.479l4.317-.021-.007-3.15A2.212,2.212,0,0,1,9.408,0H56.591a2.213,2.213,0,0,1,2.286,2.307L58.87,5.442,63,5.454a2.99,2.99,0,0,1,3,3.035l0,5.281a1.046,1.046,0,0,1-.839,1,.993.993,0,0,1-1.088-.986l0-5.464a1.154,1.154,0,0,0-.888-.914l-4.313,0V42.438h5.2l0-15.745c0-.661.305-1.1.9-1.143a.98.98,0,0,1,1.03.975l0,23.208a2.319,2.319,0,0,1-2.457,2.457l-24.493,0a15.084,15.084,0,0,0,2.438,6.223M21.735,1.944H9.026V6.489H21.735Zm35.237,0H23.693V6.489h33.28ZM7.128,42.434V7.408L2.995,7.4a1.068,1.068,0,0,0-1.067.977V42.438ZM56.975,8.4H9.026v6.462H56.975ZM27.92,22.455l2.474,2.455a7.254,7.254,0,0,1,12.646,6.1H56.973V16.754H9.024l.008,7.363,3.684-3.657a2.31,2.31,0,0,1,3.058.039l5.58,5.559L25,22.459a2.252,2.252,0,0,1,2.915,0m-1.473,1.311-4.375,4.381a1.008,1.008,0,0,1-1.5-.1l-6.339-6.329L9,26.968l.036,4.044L33.679,31Zm10.027,7.247L41.041,31A5.282,5.282,0,0,0,31.8,26.321ZM9.017,42.445H56.972V32.991H9.017ZM40.452,60.462A18.682,18.682,0,0,1,37.1,52.19H28.9a18.825,18.825,0,0,1-3.352,8.281Z" transform="translate(0 -0.001)" fill="#19538d"/>
          <path id="Trazado_1283530" data-name="Trazado 1283530" d="M343.642,96.087a1.067,1.067,0,0,1-1.041.955,1.052,1.052,0,0,1-.887-1.068v-4.2a1.119,1.119,0,0,1,.887-1,1.05,1.05,0,0,1,1.046,1.028Z" transform="translate(-277.646 -73.753)" fill="#19538d"/>
          <path id="Trazado_1283531" data-name="Trazado 1283531" d="M168.169,248.95l-2.865.027c-.394,0-.819-.669-.774-1.047a1.126,1.126,0,0,1,.965-.9l2.386,0a1.349,1.349,0,0,1,.922.727c.121.351-.25,1.2-.634,1.2" transform="translate(-133.68 -200.709)" fill="#19538d"/>
          <path id="Trazado_1283532" data-name="Trazado 1283532" d="M243,111.869l-7.344,0a1.119,1.119,0,0,1-.978-.835.984.984,0,0,1,.977-1.091l7.158-.013a1.007,1.007,0,0,1,1.1.939,1.047,1.047,0,0,1-.911,1" transform="translate(-190.671 -89.323)" fill="#19538d"/>
          <path id="Trazado_1283533" data-name="Trazado 1283533" d="M268.228,140.57l-1.74.01c-.311,0-.776-.511-.85-.794-.083-.319.305-1.1.634-1.1l2.051-.031c.355-.005.765.657.754.975-.011.34-.475.944-.849.946" transform="translate(-215.825 -112.655)" fill="#19538d"/>
          <path id="Trazado_1283534" data-name="Trazado 1283534" d="M268.415,128.713l-2.129.01c-.267,0-.626-.54-.664-.8s.237-.9.5-.95c1.528-.315,2.846-.254,2.946.791.027.28-.343.946-.654.947" transform="translate(-215.818 -103.033)" fill="#19538d"/>
          <path id="Trazado_1283535" data-name="Trazado 1283535" d="M84.8,192.307c-2.887.12-5.716.1-8.5.023-1.491-.041-2.035-1.548-2.022-2.807.013-1.283.581-2.747,2.06-2.746l8.337,0c1.461,0,2.014,1.48,2.005,2.738-.007,1.118-.356,2.724-1.875,2.787m-.178-1.839a6.332,6.332,0,0,0,0-1.809l-8.244-.005a3.975,3.975,0,0,0,.035,1.813Z" transform="translate(-60.351 -151.759)" fill="#19538d"/>
          <path id="Trazado_1283536" data-name="Trazado 1283536" d="M222.1,192.223l-7.964.075a2.591,2.591,0,0,1-1.9-.707,3.224,3.224,0,0,1-.6-2.18,2.346,2.346,0,0,1,2.152-2.743l8.179.019c1.467,0,2.054,1.461,2.053,2.747,0,1.134-.42,2.774-1.919,2.788m-.11-1.846.007-1.8-8.323-.011-.023,1.808Z" transform="translate(-171.948 -151.671)" fill="#19538d"/>
          <path id="Trazado_1283537" data-name="Trazado 1283537" d="M172.787,188.718a1.02,1.02,0,0,1-.864,1.136c-.712.048-1.074-.426-1.073-1.142l.008-4.551a1.1,1.1,0,0,1,.871-.924,1.025,1.025,0,0,1,1.043.932Z" transform="translate(-138.818 -148.881)" fill="#19538d"/>
          <path id="Trazado_1283538" data-name="Trazado 1283538" d="M80.85,56.813l-15.7,0a1.006,1.006,0,0,1-.929-.992.962.962,0,0,1,1.085-.932l15.568,0a1.036,1.036,0,0,1,1.034.924,1.009,1.009,0,0,1-1.055,1.008" transform="translate(-52.177 -44.592)" fill="#19538d"/>
          <path id="Trazado_1283539" data-name="Trazado 1283539" d="M214.706,56.956l-2.147.006a1.2,1.2,0,0,1-.941-.653c-.115-.361.179-1.236.551-1.239l2.943-.019c.318,0,.688.741.628,1.048a1.146,1.146,0,0,1-1.034.856" transform="translate(-171.922 -44.73)" fill="#19538d"/>
          <path id="Trazado_1283540" data-name="Trazado 1283540" d="M187.45,56.729l-2.126.016a1.3,1.3,0,0,1-.991-.709c-.117-.293.148-1.123.491-1.138l2.646-.115a1.033,1.033,0,0,1,.985.935.963.963,0,0,1-1,1.012" transform="translate(-149.75 -44.511)" fill="#19538d"/>
          <path id="Trazado_1283541" data-name="Trazado 1283541" d="M241.96,56.688l-2.335.011a1.2,1.2,0,0,1-.926-.653c-.113-.36.158-1.166.588-1.208,1.972-.2,3.745-.226,3.534,1.021-.053.315-.546.827-.861.829" transform="translate(-193.925 -44.474)" fill="#19538d"/>
          <path id="Trazado_1283542" data-name="Trazado 1283542" d="M268.7,56.915l-2.287-.027c-.3,0-.746-.535-.8-.827-.066-.346.377-1.068.761-1.068h2.755c.336,0,.693.743.64,1.061a1.111,1.111,0,0,1-1.067.86" transform="translate(-215.805 -44.683)" fill="#19538d"/>
          <path id="Trazado_1283543" data-name="Trazado 1283543" d="M78.231,135.523a1.051,1.051,0,0,1,.054,1.459,1,1,0,0,1-1.389-.029l-2-2.022a1.114,1.114,0,0,1,.147-1.348,1.246,1.246,0,0,1,1.329.072Z" transform="translate(-60.715 -108.409)" fill="#19538d"/>
          <path id="Trazado_1283544" data-name="Trazado 1283544" d="M64.686,18.458a.967.967,0,1,1-.967-.967.967.967,0,0,1,.967.967" transform="translate(-50.987 -14.212)" fill="#19538d"/>
          <path id="Trazado_1283545" data-name="Trazado 1283545" d="M79.4,18.48a.967.967,0,1,1-.967-.967.967.967,0,0,1,.967.967" transform="translate(-62.939 -14.23)" fill="#19538d"/>
          <path id="Trazado_1283546" data-name="Trazado 1283546" d="M94.092,18.511a.964.964,0,1,1-.964-.964.964.964,0,0,1,.964.964" transform="translate(-74.885 -14.257)" fill="#19538d"/>
        </g>
      </g>
    </g>
  </g>
</svg>
