<svg xmlns="http://www.w3.org/2000/svg" xmlns:xlink="http://www.w3.org/1999/xlink" width="96" height="96" viewBox="0 0 96 96">
  <defs>
    <clipPath id="clip-path">
      <rect id="Rectángulo_465020" data-name="Rectángulo 465020" width="49.264" height="46.399" fill="#19538d"/>
    </clipPath>
  </defs>
  <g id="Grupo_1215112" data-name="Grupo 1215112" transform="translate(0 0)">
    <circle id="Elipse_13890" data-name="Elipse 13890" cx="48" cy="48" r="48" transform="translate(0 0)" fill="#5a9ad7"/>
    <path id="Intersección_1" data-name="Intersección 1" d="M0,47.89A47.893,47.893,0,0,1,79.511,11.92L1.1,58.131A48,48,0,0,1,0,47.89Z" transform="translate(0.109 0.108)" fill="#19538d"/>
    <path id="Trazado_1032916" data-name="Trazado 1032916" d="M40,0A40,40,0,1,1,0,40,40,40,0,0,1,40,0Z" transform="translate(8 8)" fill="#e6f3ff"/>
    <g id="Grupo_1188343" data-name="Grupo 1188343" transform="translate(22.001 22)">
      <rect id="Rectángulo_459838" data-name="Rectángulo 459838" width="52" height="52" transform="translate(-0.29 0.151)" fill="none"/>
      <g id="Grupo_1215124" data-name="Grupo 1215124" transform="translate(1.71 3.151)">
        <g id="Grupo_1215123" data-name="Grupo 1215123" clip-path="url(#clip-path)">
          <path id="Trazado_1283721" data-name="Trazado 1283721" d="M5.633,32.56a.873.873,0,0,1-.836-.647c-.054-.259.269-.833.633-.833l18.485-.006,0-18.868-3.635-.029a.729.729,0,0,1-.825-.672.746.746,0,0,1,.722-.785H47.813l.008-4.548-19.254,0a3.166,3.166,0,0,1-2.5-1.08l-2.343-2.83a2.016,2.016,0,0,0-1.605-.815h-6.16a2.122,2.122,0,0,0-1.694.876l-2.491,2.95a3.161,3.161,0,0,1-2.245.9H1.449l-.007,4.549H16.649a.856.856,0,0,1,.719.655.751.751,0,0,1-.716.807H1.444v17c0,.5-.234.814-.677.856a.749.749,0,0,1-.762-.728l0-25.579A3.64,3.64,0,0,1,3.551,0H45.715a3.635,3.635,0,0,1,3.543,3.741l.005,31.176a3.69,3.69,0,0,1-3.786,3.813l-4.212-.015-.025,5.324a2.4,2.4,0,0,1-2.225,2.351L10.382,46.4a2.37,2.37,0,0,1-2.34-2.25L8,38.726,3.5,38.7A3.636,3.636,0,0,1,0,34.96l.007-2a.763.763,0,0,1,.629-.8c.541-.036.8.275.8.814l.028,2.206a2.19,2.19,0,0,0,2.308,2.106l4.229-.014,0-1.9-4.119-.008c-.286,0-.558-.51-.523-.768a.817.817,0,0,1,.826-.655l3.785.008.177-1.4ZM9.6,4.737A2.191,2.191,0,0,0,11.087,3.9l2-2.443L3.924,1.439A2.248,2.248,0,0,0,1.484,3.39c-.043.369-.039.867-.042,1.34Zm38.213-.005L47.8,3.575a2.18,2.18,0,0,0-2.045-2.118l-20.785,0,1.989,2.473a2.118,2.118,0,0,0,1.463.805ZM34.708,31.071l2.254,0,0-6.221a.769.769,0,0,1,.683-.71l6.869,0a.71.71,0,0,1,.717.725l0,12.4a2.262,2.262,0,0,0,2.6-2.354l0-22.729-22.462,0v1.818l19.077,0a.763.763,0,0,1,.79.768v6.738a.793.793,0,0,1-.763.787l-19.107.01V24.14h8.652a.68.68,0,0,1,.7.706Zm.809-13.927c.181-.177.759-.071.921.091l3.608,3.614,3.76,0,0-5.392H25.347l.009,5.4,2.645,0,3.59-3.6a.811.811,0,0,1,.967-.071l1.451,1.447ZM31.782,20.85l1.208-1.183-.928-.9-2.013,2.04ZM38,20.84l-2.046-2.08-2.042,2.078Zm-4.7,4.718H25.35v5.523H33.3ZM10.529,44.945H38.807a1.013,1.013,0,0,0,1-1.047l0-6.832a.742.742,0,0,1,.851-.836c.4.037.614.47.6,1.029l2.546.017V25.557l-5.415,0,.008,5.526a2.585,2.585,0,0,1,2.864,2.88,1.169,1.169,0,0,1-.339.815,1.049,1.049,0,0,1-.815-.013c-.539-.32.042-2.213-1.228-2.213l-28.36,0a1.023,1.023,0,0,0-1.063.988l0,10.351a1.016,1.016,0,0,0,1.073,1.056" transform="translate(0)" fill="#19538d"/>
          <path id="Trazado_1283722" data-name="Trazado 1283722" d="M91.678,56.97l-24.464,0c-.388,0-.558-.664-.476-.908a.829.829,0,0,1,.883-.517H91.233a.921.921,0,0,1,.808.413.833.833,0,0,1-.364,1.015" transform="translate(-57.383 -47.769)" fill="#19538d"/>
          <path id="Trazado_1283723" data-name="Trazado 1283723" d="M109.386,162.554l-7.466,0a.774.774,0,0,1-.816-.609.753.753,0,0,1,.736-.836h7.32a.867.867,0,0,1,.747.571.885.885,0,0,1-.522.87" transform="translate(-86.951 -138.569)" fill="#19538d"/>
          <path id="Trazado_1283724" data-name="Trazado 1283724" d="M42.951,122.024l-7.99,0c-.282,0-.632-.446-.651-.68a.794.794,0,0,1,.649-.762l8.14,0c.37,0,.6.473.58.782a.791.791,0,0,1-.729.659" transform="translate(-29.509 -103.708)" fill="#19538d"/>
          <path id="Trazado_1283725" data-name="Trazado 1283725" d="M41.044,203.231h-6.07a.844.844,0,0,1-.713-.71.806.806,0,0,1,.81-.764H40.95a.819.819,0,0,1,.795.645.759.759,0,0,1-.7.829" transform="translate(-29.467 -173.526)" fill="#19538d"/>
          <path id="Trazado_1283726" data-name="Trazado 1283726" d="M75.471,142.192H69.678a.784.784,0,0,1-.761-.714.827.827,0,0,1,.709-.76h5.9a.813.813,0,0,1,.688.752.785.785,0,0,1-.739.722" transform="translate(-59.274 -121.028)" fill="#19538d"/>
          <path id="Trazado_1283727" data-name="Trazado 1283727" d="M62.763,183.084H56.734a.8.8,0,0,1-.692-.648.726.726,0,0,1,.695-.764l6.03,0a.708.708,0,1,1,0,1.415" transform="translate(-48.199 -156.249)" fill="#19538d"/>
          <path id="Trazado_1283728" data-name="Trazado 1283728" d="M117.315,23.121l-5.48.012a.8.8,0,0,1-.831-.706.825.825,0,0,1,.692-.765h5.626a.887.887,0,0,1,.676.651.8.8,0,0,1-.682.809" transform="translate(-95.47 -18.63)" fill="#19538d"/>
          <path id="Trazado_1283729" data-name="Trazado 1283729" d="M60.41,162.558l-3.871.017a.972.972,0,0,1-.561-.745.8.8,0,0,1,.748-.707l3.676,0a.847.847,0,0,1,.733.694.759.759,0,0,1-.726.739" transform="translate(-48.145 -138.577)" fill="#19538d"/>
          <path id="Trazado_1283730" data-name="Trazado 1283730" d="M99.375,203.243l-3.684.008a.781.781,0,0,1-.719-.722.81.81,0,0,1,.692-.753h3.681a.913.913,0,0,1,.693.626.777.777,0,0,1-.663.842" transform="translate(-81.683 -173.541)" fill="#19538d"/>
          <path id="Trazado_1283731" data-name="Trazado 1283731" d="M26.3,101.556H22.81a.721.721,0,0,1,.031-1.441h3.428a.752.752,0,0,1,.713.71.766.766,0,0,1-.68.732" transform="translate(-19.021 -86.105)" fill="#19538d"/>
          <path id="Trazado_1283732" data-name="Trazado 1283732" d="M37.473,142.217l-2.54.016a.89.89,0,0,1-.694-.715c-.006-.286.354-.757.659-.757H37.45c.234,0,.6.419.65.648.051.257-.3.806-.627.808" transform="translate(-29.448 -121.065)" fill="#19538d"/>
          <path id="Trazado_1283733" data-name="Trazado 1283733" d="M22.088,53.911c.017.209-.446.534-.63.491a1.7,1.7,0,0,1-1.305-1.23c-.023-.5.91-1.462,1.529-1.256.484.161.5.684.332,1.1Z" transform="translate(-17.333 -44.628)" fill="#19538d"/>
          <path id="Trazado_1283734" data-name="Trazado 1283734" d="M42.668,53.882c-.424.445-.947.7-1.414.3-.216-.183-.086-.787-.1-1.06-.017-.452-.186-.922.257-1.163.547-.3,1.314.361,1.621,1,.1.212-.169.709-.368.918" transform="translate(-35.359 -44.628)" fill="#19538d"/>
          <path id="Trazado_1283735" data-name="Trazado 1283735" d="M118.623,182.986l-1.455.042a.831.831,0,0,1-.738-.668.754.754,0,0,1,.753-.765l1.2,0a.9.9,0,0,1,.734.555c.086.245-.233.833-.5.841" transform="translate(-100.138 -156.182)" fill="#19538d"/>
          <path id="Trazado_1283736" data-name="Trazado 1283736" d="M323.783,56.3a.72.72,0,1,1-.72-.72.72.72,0,0,1,.72.72" transform="translate(-277.238 -47.802)" fill="#19538d"/>
          <path id="Trazado_1283737" data-name="Trazado 1283737" d="M302.877,56.32a.717.717,0,1,1-.717-.717.717.717,0,0,1,.717.717" transform="translate(-259.263 -47.823)" fill="#19538d"/>
          <path id="Trazado_1283738" data-name="Trazado 1283738" d="M185.928,251.878l-1.267,2.112a.837.837,0,0,1-.455.316.761.761,0,0,1-.473-.3l-1.266-2.284-.041,4.923a1.127,1.127,0,0,1-1.367,0l.006-7.355a1,1,0,0,1,.766-.419,1.363,1.363,0,0,1,.836.44l1.541,2.784,1.427-2.619a1.382,1.382,0,0,1,.738-.576,1.3,1.3,0,0,1,.974.3l.008,7.441a1.172,1.172,0,0,1-1.365.021Z" transform="translate(-155.724 -214.044)" fill="#19538d"/>
          <path id="Trazado_1283739" data-name="Trazado 1283739" d="M97.625,256.584a1.153,1.153,0,0,1-1.429.038l-.025-3.327-2.44,0-.059,3.242c-.008.431-1.163.455-1.364.02l-.011-7.277c0-.209.444-.409.628-.433.21-.027.77.163.772.382l.038,2.922,2.435.023c.008-1.055-.006-2.01.074-3.027.068-.428,1.35-.389,1.352.082Z" transform="translate(-79.382 -214.022)" fill="#19538d"/>
          <path id="Trazado_1283740" data-name="Trazado 1283740" d="M139.147,256.717c-.077.41-1.145.425-1.382.074l-.031-6.481L136,250.25c-.18-.006-.358-.445-.348-.614s.223-.588.4-.587l4.868.01c.336.1.358,1.1.069,1.148l-1.81.087Z" transform="translate(-116.674 -214.201)" fill="#19538d"/>
          <path id="Trazado_1283741" data-name="Trazado 1283741" d="M239.782,256.906l-3.7.037a.686.686,0,0,1-.551-.63l.046-7.022c0-.488,1.246-.493,1.364-.061l.024,6.438,2.733.026c.445,0,.489,1.055.086,1.212" transform="translate(-202.572 -214.085)" fill="#19538d"/>
          <path id="Trazado_1283742" data-name="Trazado 1283742" d="M239.634,114.53a.724.724,0,1,1-.724-.724.724.724,0,0,1,.724.724" transform="translate(-204.858 -97.882)" fill="#19538d"/>
          <path id="Trazado_1283743" data-name="Trazado 1283743" d="M40.974,18.519a.726.726,0,1,1-.726-.726.725.725,0,0,1,.726.726" transform="translate(-33.993 -15.303)" fill="#19538d"/>
          <path id="Trazado_1283744" data-name="Trazado 1283744" d="M60.268,18.568a.726.726,0,1,1-.726-.726.726.726,0,0,1,.726.726" transform="translate(-50.586 -15.345)" fill="#19538d"/>
          <path id="Trazado_1283745" data-name="Trazado 1283745" d="M24.1,18.55a.724.724,0,1,1-.724-.724.724.724,0,0,1,.724.724" transform="translate(-19.481 -15.332)" fill="#19538d"/>
        </g>
      </g>
    </g>
  </g>
</svg>
