<svg xmlns="http://www.w3.org/2000/svg" xmlns:xlink="http://www.w3.org/1999/xlink" width="128" height="128" viewBox="0 0 128 128">
  <defs>
    <clipPath id="clip-path">
      <rect id="Rectángulo_464976" data-name="Rectángulo 464976" width="56.505" height="66" fill="#19538d"/>
    </clipPath>
  </defs>
  <g id="Grupo_1215053" data-name="Grupo 1215053" transform="translate(-383.746 -8400)">
    <circle id="Elipse_13890" data-name="Elipse 13890" cx="64" cy="64" r="64" transform="translate(383.746 8400)" fill="#5a9ad7"/>
    <path id="Intersección_1" data-name="Intersección 1" d="M23204.689,11774.869a64,64,0,0,1,106.254-48.067l-104.787,61.753A64.213,64.213,0,0,1,23204.689,11774.869Z" transform="translate(-22820.941 -3310.872)" fill="#19538d"/>
    <circle id="Elipse_13891" data-name="Elipse 13891" cx="54" cy="54" r="54" transform="translate(393.746 8410)" fill="#fff"/>
    <g id="Grupo_1188343" data-name="Grupo 1188343" transform="translate(-0.994 -0.997)">
      <rect id="Rectángulo_459838" data-name="Rectángulo 459838" width="66" height="66" transform="translate(415.74 8431.997)" fill="#fff"/>
      <g id="Grupo_1215057" data-name="Grupo 1215057" transform="translate(420.74 8431.997)">
        <g id="Grupo_1215056" data-name="Grupo 1215056" clip-path="url(#clip-path)">
          <path id="Trazado_1283554" data-name="Trazado 1283554" d="M54.023,54.17a3,3,0,0,1,1.954,1.755c.478.807.963,2.131-.149,2.772L43.46,65.832a1.7,1.7,0,0,1-2.271-1.07,4.245,4.245,0,0,1-2.983,1.2L3.445,65.935A3.683,3.683,0,0,1,0,62.113V3.858A3.769,3.769,0,0,1,4.018,0l34.2.006a3.647,3.647,0,0,1,3.828,3.473l.023,39.086a3.061,3.061,0,0,1,3.115.635,2.474,2.474,0,0,1,3.885.4l2.905,5a22.508,22.508,0,0,1,2.046,5.575M40.111,43.3V3.665a1.7,1.7,0,0,0-1.7-1.714l-7.419-.009-1.2,3.034a1.5,1.5,0,0,1-.775.545L12.562,5.51,11.091,1.961,3.818,1.94A1.812,1.812,0,0,0,1.946,3.86V54.975h28.05a2.921,2.921,0,0,1,.094-3.9,3.111,3.111,0,0,1,3.945-.4l-3.866-6.794a2.881,2.881,0,0,1,5.1-2.679l1.747,3.015a3.238,3.238,0,0,1,3.1-.927M28.248,3.581l.625-1.639H13.194l.642,1.645Zm17.758,43.1a1.187,1.187,0,0,1-1.15-.333l-.954-1.6a.938.938,0,0,0-1.648.884l1.063,1.9a1.14,1.14,0,0,1-.51,1.238,1.293,1.293,0,0,1-1.179-.329l-1.619-2.8a1.094,1.094,0,0,0-1.347-.324,1.144,1.144,0,0,0-.314,1.206l1.549,2.7a.968.968,0,1,1-1.638,1.03l-4.765-8.218a1.055,1.055,0,0,0-1.211-.226,1.018,1.018,0,0,0-.371,1.239l5.729,9.912A.966.966,0,0,1,36.4,54.39l-3.867-2.2a1.011,1.011,0,0,0-1.223.482,1.112,1.112,0,0,0,.473,1.245l8.225,4.754A7.052,7.052,0,0,1,42.26,60.82l9.982-5.763A21.855,21.855,0,0,0,50.4,49.79l-2.921-5.115a.807.807,0,0,0-.93-.134c-.413.484.557,1.67-.538,2.144m7.919,9.605-11.574,6.7.561.969,11.574-6.7ZM40.15,62.05a1.579,1.579,0,0,0-.735-1.477l-6.446-3.7-31.025.007.015,5.438a1.787,1.787,0,0,0,1.7,1.709l34.717-.005A1.806,1.806,0,0,0,40.15,62.05" transform="translate(0 0)" fill="#19538d"/>
          <path id="Trazado_1283555" data-name="Trazado 1283555" d="M42.092,47.432,19.535,47.41a3,3,0,0,1-2.755-3.122V22.839c0-1.484,1.07-3.172,2.709-3.173l22.193-.018a2.979,2.979,0,0,1,2.918,2.9l.01,21.865a3.123,3.123,0,0,1-2.517,3.014m.545-25.849H18.726V45.494H42.637Z" transform="translate(-9.654 -11.305)" fill="#19538d"/>
          <path id="Trazado_1283556" data-name="Trazado 1283556" d="M45.725,114.534l-14.575-.006a.985.985,0,0,1-.955-.981v-4.186a1.076,1.076,0,0,1,1.145-1.1l14.292,0a1.076,1.076,0,0,1,1.007,1.093v4.2a1.1,1.1,0,0,1-.915.982m-13.562-1.955H44.678v-2.336H32.163Z" transform="translate(-17.373 -62.29)" fill="#19538d"/>
          <path id="Trazado_1283557" data-name="Trazado 1283557" d="M45.723,96.354l-14.581,0a1.016,1.016,0,0,1-.946-.985l-.005-4.179a1.094,1.094,0,0,1,1.145-1.107l14.292,0a1.1,1.1,0,0,1,1.009,1.1v4.2a1.085,1.085,0,0,1-.915.976m-1.047-4.3H32.163v2.386H44.676Z" transform="translate(-17.371 -51.829)" fill="#19538d"/>
          <path id="Trazado_1283558" data-name="Trazado 1283558" d="M45.411,141.466l-4.208.03a2.585,2.585,0,0,1-2.692-2.324,2.487,2.487,0,0,1,2.3-2.748l4.343-.044a2.546,2.546,0,0,1,2.727,2.46,2.509,2.509,0,0,1-2.467,2.626m-.047-1.937c.263,0,.659-.461.612-.691a.9.9,0,0,0-.639-.516H40.975A.819.819,0,0,0,40.4,139a.888.888,0,0,0,.589.528Z" transform="translate(-22.153 -78.469)" fill="#19538d"/>
          <path id="Trazado_1283559" data-name="Trazado 1283559" d="M36.183,48.281a11.026,11.026,0,0,1-3.425.026c-1.713-.255-.684-2.954-1.551-3.261s-2.028,2.323-3.388,1.222A15.8,15.8,0,0,1,25.5,43.947c-1.065-1.346,1.372-2.516,1.232-3.3-.2-1.093-3.209.191-3.377-1.926a18.233,18.233,0,0,1,0-2.808c.175-2.076,2.914-.939,3.335-1.786s-2.121-1.8-1.26-3.326a8.409,8.409,0,0,1,2.355-2.436c1.53-1.072,2.473,1.488,3.423,1.217.86-.245-.142-2.994,1.51-3.26a11.447,11.447,0,0,1,3.408,0c1.733.283.726,2.916,1.5,3.253.915.4,2.062-2.505,3.69-1.087a19.924,19.924,0,0,1,1.95,1.958,1.782,1.782,0,0,1-.635,2.6,1.335,1.335,0,0,0-.448,1.021c.2.949,3.2-.238,3.34,1.808a22.4,22.4,0,0,1,0,2.89c-.135,1.976-2.926.933-3.29,1.687-.425.879,1.064,1.383,1.332,2.3a2.077,2.077,0,0,1-.434,1.631l-1.447,1.48a2.121,2.121,0,0,1-1.546.632c-1.2-.249-1.559-1.51-2.349-1.485-1.02.033.113,2.951-1.6,3.281m-.852-1.85a2.661,2.661,0,0,1,1.65-3.166,2.858,2.858,0,0,1,3.343,1.128l1.252-1.252a2.713,2.713,0,0,1-1.206-3.255,2.669,2.669,0,0,1,3.159-1.679l.068-1.8a2.739,2.739,0,0,1-3.211-1.657,2.814,2.814,0,0,1,1.135-3.321l-1.2-1.189A2.755,2.755,0,0,1,35.313,28.1l-1.78.049a2.662,2.662,0,0,1-1.545,3.175A2.634,2.634,0,0,1,28.651,30.2l-1.317,1.215a2.743,2.743,0,0,1-2.054,5.029l.026,1.727a2.832,2.832,0,0,1,3.211,1.691,2.874,2.874,0,0,1-1.2,3.354l1.268,1.159a2.808,2.808,0,0,1,3.56-1.013,2.778,2.778,0,0,1,1.406,3.148Z" transform="translate(-13.405 -15.07)" fill="#19538d"/>
          <path id="Trazado_1283560" data-name="Trazado 1283560" d="M47.541,44.69a5.664,5.664,0,1,1-5.664-5.664,5.664,5.664,0,0,1,5.664,5.664m-1.946.005a3.72,3.72,0,1,0-3.721,3.721A3.721,3.721,0,0,0,45.594,44.7" transform="translate(-20.836 -22.455)" fill="#19538d"/>
        </g>
      </g>
    </g>
  </g>
</svg>
