<svg xmlns="http://www.w3.org/2000/svg" xmlns:xlink="http://www.w3.org/1999/xlink" width="128" height="128" viewBox="0 0 128 128">
  <defs>
    <clipPath id="clip-path">
      <rect id="Rectángulo_464977" data-name="Rectángulo 464977" width="54.133" height="54.129" fill="#19538d"/>
    </clipPath>
  </defs>
  <g id="Grupo_1215063" data-name="Grupo 1215063" transform="translate(-383.746 -8400)">
    <circle id="Elipse_13890" data-name="Elipse 13890" cx="64" cy="64" r="64" transform="translate(383.746 8400)" fill="#5a9ad7"/>
    <path id="Intersección_1" data-name="Intersección 1" d="M23204.689,11774.869a64,64,0,0,1,106.254-48.067l-104.787,61.753A64.213,64.213,0,0,1,23204.689,11774.869Z" transform="translate(-22820.941 -3310.872)" fill="#19538d"/>
    <circle id="Elipse_13891" data-name="Elipse 13891" cx="54" cy="54" r="54" transform="translate(393.746 8410)" fill="#fff"/>
    <g id="Grupo_1188343" data-name="Grupo 1188343" transform="translate(-0.994 -0.997)">
      <rect id="Rectángulo_459838" data-name="Rectángulo 459838" width="66" height="66" transform="translate(415.74 8431.997)" fill="#fff"/>
      <g id="Grupo_1215064" data-name="Grupo 1215064" transform="translate(421.74 8437.997)" clip-path="url(#clip-path)">
        <path id="Trazado_1283561" data-name="Trazado 1283561" d="M5.712,37.981l.045-5.66a4,4,0,0,1,3.618-3.744c3.613-.088,7.05-.094,10.633,0a4.136,4.136,0,0,1,3.735,4.283l-.019,5.108,3.615-.015a13.495,13.495,0,1,1-.266,2.935l-3.34-.012L23.7,50.153a4.21,4.21,0,0,1-4.192,3.977l-9.615,0a4.124,4.124,0,0,1-4.122-3.81L5.72,40.886c-3,.37-5.714-1.437-5.714-4.183L0,8A4.151,4.151,0,0,1,3.966,3.852l5.549-.046A4.3,4.3,0,0,1,13.754,0L34.8.008a4.283,4.283,0,0,1,4.134,3.8l5.667.057a4.033,4.033,0,0,1,3.775,3.777l.035,16.54a1.38,1.38,0,0,1-1.323,1.448,1.359,1.359,0,0,1-1.472-1.283L45.608,8.178a1.522,1.522,0,0,0-1.555-1.549l-5.1,0-.024,15.8A4.236,4.236,0,0,1,34.8,26.588l-21.224,0a4.122,4.122,0,0,1-4.013-3.777L9.509,6.632l-5.162,0a1.442,1.442,0,0,0-1.5,1.441V36.649c0,.463.567,1.233.957,1.25ZM34.719,23.729a1.388,1.388,0,0,0,1.347-1.286l.007-18.106a1.409,1.409,0,0,0-1.338-1.488L13.949,2.84a1.456,1.456,0,0,0-1.6,1.511v17.9a1.427,1.427,0,0,0,1.579,1.483ZM19.374,51.311a1.488,1.488,0,0,0,1.511-1.535l0-17.036a1.426,1.426,0,0,0-1.249-1.4L10.25,31.33a1.538,1.538,0,0,0-1.724,1.418L8.519,49.77a1.552,1.552,0,0,0,1.6,1.553ZM37.586,45.2a1.4,1.4,0,0,0,1.97.261l7.663-7.811a1.367,1.367,0,0,0-.265-1.86,1.521,1.521,0,0,0-1.9.042l-6.2,6.331-2.625-3.373a1.4,1.4,0,0,0-2.005-.13,1.46,1.46,0,0,0-.1,2.059Z" transform="translate(0 -0.001)" fill="#19538d"/>
        <path id="Trazado_1283562" data-name="Trazado 1283562" d="M88.815,39.563l-5.522-.025A1.37,1.37,0,0,1,81.9,38.124l.014-9.765a1.508,1.508,0,0,1,1.227-1.149l9.708,0a1.441,1.441,0,0,1,1.38,1.335l.038,2.519a6.653,6.653,0,1,1-5.452,8.5m2.575-7.382L91.355,30.1l-6.642.005,0,6.64,3.908-.014a6.543,6.543,0,0,1,2.767-4.545m7.581,5.477a3.793,3.793,0,1,0-3.793,3.793,3.793,3.793,0,0,0,3.793-3.793" transform="translate(-67.638 -22.468)" fill="#19538d"/>
        <path id="Trazado_1283563" data-name="Trazado 1283563" d="M72.512,269.948l-2.994.021a1.447,1.447,0,1,1,.134-2.891l2.794.013a1.465,1.465,0,0,1,1.374,1.284,1.42,1.42,0,0,1-1.307,1.572" transform="translate(-56.263 -220.57)" fill="#19538d"/>
      </g>
    </g>
  </g>
</svg>
