<svg xmlns="http://www.w3.org/2000/svg" xmlns:xlink="http://www.w3.org/1999/xlink" width="84" height="84" viewBox="0 0 84 84">
  <defs>
    <clipPath id="clip-path">
      <rect id="Rectángulo_464186" data-name="Rectángulo 464186" width="61.728" height="72.611" fill="#344866"/>
    </clipPath>
  </defs>
  <g id="Grupo_1214972" data-name="Grupo 1214972" transform="translate(-1017.711 -2097)">
    <g id="Grupo_1213767" data-name="Grupo 1213767" transform="translate(1018.289 2097.611)">
      <g id="Grupo_1119665" data-name="Grupo 1119665" transform="translate(-0.578 -0.611)">
        <rect id="Rectángulo_402006" data-name="Rectángulo 402006" width="84" height="84" rx="5" fill="#ffe79e"/>
      </g>
      <g id="Grupo_1214162" data-name="Grupo 1214162" transform="translate(10.422 5.389)">
        <g id="Grupo_1214161" data-name="Grupo 1214161" clip-path="url(#clip-path)">
          <path id="Trazado_1281724" data-name="Trazado 1281724" d="M2.11,69.18A1.192,1.192,0,0,0,3.357,70.5H58.391a1.181,1.181,0,0,0,1.249-1.28l0-59.018-57.526,0V59.665a1.194,1.194,0,0,1-1.117.987,1.113,1.113,0,0,1-.986-1.208L.019,2.95A3.133,3.133,0,0,1,3.127,0L58.417,0a3.161,3.161,0,0,1,3.31,2.956V69.636a3.193,3.193,0,0,1-3.313,2.974H3.336a3.16,3.16,0,0,1-3.287-2.93L0,64.451a1.251,1.251,0,0,1,.937-.981A1.129,1.129,0,0,1,2.1,64.46Zm0-61.079H59.639V2.087H2.111Z" transform="translate(0 0)" fill="#344866"/>
          <path id="Trazado_1281725" data-name="Trazado 1281725" d="M65.938,57.111l5.36-.017a1.157,1.157,0,0,1,1.143,1.09v19.4a1.106,1.106,0,0,1-1.023,1.056H19.342a1.1,1.1,0,0,1-1.031-1.055v-19.4a1.119,1.119,0,0,1,1.014-1.08l41.906,0c.527,0,.954.757.919,1.121a1.133,1.133,0,0,1-1.065,1l-20.83,0,7.7,17.272H70.3l0-17.262-4.271-.01a1.177,1.177,0,0,1-1.052-1.015c-.041-.373.453-1.107.956-1.108M45.593,76.484,37.92,59.228l-17.475,0v17.28Z" transform="translate(-14.501 -45.216)" fill="#344866"/>
          <rect id="Rectángulo_464184" data-name="Rectángulo 464184" width="54.199" height="2.187" transform="translate(3.775 55.409)" fill="#344866"/>
          <rect id="Rectángulo_464185" data-name="Rectángulo 464185" width="54.156" height="2.157" transform="translate(3.775 63.464)" fill="#344866"/>
          <path id="Trazado_1281726" data-name="Trazado 1281726" d="M220.9,203.119l-12.514,0a1.193,1.193,0,0,1-1.163-1.133l0-12.174c.11-.424.536-.908.962-.909l12.72,0a1.181,1.181,0,0,1,1.153.916l0,12.171a1.191,1.191,0,0,1-1.152,1.132m-.987-12.137h-10.56v10h10.56Z" transform="translate(-164.104 -149.6)" fill="#344866"/>
          <path id="Trazado_1281727" data-name="Trazado 1281727" d="M139.6,203.121l-12.8,0a1.142,1.142,0,0,1-1.059-1.1V189.958A1.049,1.049,0,0,1,126.8,188.9l12.934.007c.393,0,.842.635.842,1.041v12.076a1.32,1.32,0,0,1-.971,1.1m-1.152-12.129H127.853v9.994h10.594Z" transform="translate(-99.577 -149.599)" fill="#344866"/>
          <path id="Trazado_1281728" data-name="Trazado 1281728" d="M168.184,90.262c-1.785.765-2.7-1.262-2.823-1.123l-.311.348a2,2,0,0,1-2.309.832,1.963,1.963,0,0,1-1.12-2.13l.054-.436c.039-.315-2.011.416-2.71-1.185a1.891,1.891,0,0,1,.7-2.245l.4-.346c.249-.216-1.826-1.226-1.116-2.76a2.032,2.032,0,0,1,2.161-1.09l.5.035c.141.01-.43-2.116,1.09-2.7a2.027,2.027,0,0,1,2.286.684l.376.431c.1.119,1.181-1.771,2.687-1.125a1.937,1.937,0,0,1,1.08,2.166l-.044.42c-.036.34,2.112-.436,2.72,1.158a2,2,0,0,1-.719,2.279l-.39.328c-.212.178,1.7,1.037,1.156,2.624a1.984,1.984,0,0,1-2.224,1.23l-.486-.032c-.123-.008.4,2.056-.956,2.636m-1.369-2.823a4.825,4.825,0,0,1,.374-1.7c.324-.49,2.11-.23,1.813-.465l-.329-.261c-.337-.268-.836-.907-.677-1.367a4.877,4.877,0,0,1,1.108-1.286,3.411,3.411,0,0,1-1.818-.243c-.387-.312-.388-1.207-.406-1.82-.386.319-.972.973-1.446,1-.593.037-1.175-.715-1.55-1.141a8.808,8.808,0,0,1-.232,1.768c-.124.4-1.251.5-1.738.517a5.246,5.246,0,0,1,.858,1.279c.171.658-.607,1.242-1.084,1.651.6.051,1.581-.032,1.9.406a4.033,4.033,0,0,1,.276,1.859c.345-.409.865-1.105,1.442-1.17s1.2.653,1.511.972" transform="translate(-125.762 -61.232)" fill="#344866"/>
          <path id="Trazado_1281729" data-name="Trazado 1281729" d="M36.926,249.118l-17.691-.007c-.437,0-.942-.672-.962-1.015a1.142,1.142,0,0,1,.961-1.116l18.077.01c.417,0,.784.812.74,1.149a1.217,1.217,0,0,1-1.125.978" transform="translate(-14.471 -195.596)" fill="#344866"/>
          <path id="Trazado_1281730" data-name="Trazado 1281730" d="M36.948,190.992l-17.467,0a1.145,1.145,0,0,1-1.156-.965A1.08,1.08,0,0,1,19.48,188.9l17.687.008a1.05,1.05,0,0,1,.916,1.149,1.129,1.129,0,0,1-1.135.933" transform="translate(-14.511 -149.601)" fill="#344866"/>
          <path id="Trazado_1281731" data-name="Trazado 1281731" d="M36.916,210.313,19.229,210.3c-.538,0-1.028-.783-.961-1.166a1.136,1.136,0,0,1,1.181-.931l17.815.014c.448,0,.815.748.777,1.086a1.165,1.165,0,0,1-1.125,1.005" transform="translate(-14.462 -164.89)" fill="#344866"/>
          <path id="Trazado_1281732" data-name="Trazado 1281732" d="M37.015,229.749l-17.527.006a1.25,1.25,0,0,1-1.176-.959,1.141,1.141,0,0,1,1.159-1.185l17.483,0a1.122,1.122,0,0,1,1.118,1,1.1,1.1,0,0,1-1.057,1.136" transform="translate(-14.5 -180.256)" fill="#344866"/>
          <path id="Trazado_1281733" data-name="Trazado 1281733" d="M234.454,99.258c-.807-.1-.139,1.782-1.428,1.777a1.217,1.217,0,0,1-1.173-1.135l-.015-.519c0-.1-1.91-.031-1.751-1.265a1.094,1.094,0,0,1,1.511-.9l.258-.449a1.7,1.7,0,0,1,.539-1.294,1.326,1.326,0,0,1,1.226.115,3.061,3.061,0,0,1,.441,1.488,4.489,4.489,0,0,1,1.387.339,1.277,1.277,0,0,1,.269,1.154,1.393,1.393,0,0,1-1.266.693" transform="translate(-182.211 -75.526)" fill="#344866"/>
          <path id="Trazado_1281734" data-name="Trazado 1281734" d="M256.967,287.885l-3.39.016a1.374,1.374,0,0,1-1.023-.769c-.123-.4.234-1.315.64-1.322l3.631-.063a1.071,1.071,0,0,1,.142,2.137" transform="translate(-199.991 -226.298)" fill="#344866"/>
          <path id="Trazado_1281735" data-name="Trazado 1281735" d="M22.656,171.4l-3.405.044a1.315,1.315,0,0,1-.973-1.068,1.2,1.2,0,0,1,1.186-1.084l3.069.029c.335,0,.829.556.913.866.094.349-.407,1.208-.789,1.213" transform="translate(-14.475 -134.071)" fill="#344866"/>
          <path id="Trazado_1281736" data-name="Trazado 1281736" d="M223.819,21.439H212.7c-.459,0-.921-.686-.909-1.055a1.144,1.144,0,0,1,1.093-1.077l10.931,0a1.064,1.064,0,0,1,0,2.126" transform="translate(-167.729 -15.291)" fill="#344866"/>
          <path id="Trazado_1281737" data-name="Trazado 1281737" d="M25.755,21.436l-2.555.046a1.174,1.174,0,0,1-1.005-1.071,1.155,1.155,0,0,1,1.018-1.064l2.408.012c.349,0,.845.565.926.875.091.35-.391,1.195-.793,1.2" transform="translate(-17.577 -15.322)" fill="#344866"/>
          <path id="Trazado_1281738" data-name="Trazado 1281738" d="M51.758,88.757,50.45,87.113l-6.72-.018a4.409,4.409,0,0,1-4.463-4.229l-.025-2.924a4.329,4.329,0,0,1,4.07-4.375L50,75.5a4.475,4.475,0,0,1,4.65,4.467l.009,7.92a1.7,1.7,0,0,1-1.069,1.428,1.782,1.782,0,0,1-1.831-.562m-.436-3.8,1.219,1.313V79.928A2.293,2.293,0,0,0,50.609,77.7l-7.266,0c-1.246,0-1.973,1.387-1.972,2.421l0,2.376a2.36,2.36,0,0,0,2.157,2.448Z" transform="translate(-31.078 -59.795)" fill="#344866"/>
        </g>
      </g>
    </g>
  </g>
</svg>
