<svg xmlns="http://www.w3.org/2000/svg" xmlns:xlink="http://www.w3.org/1999/xlink" width="84" height="84" viewBox="0 0 84 84">
  <defs>
    <clipPath id="clip-path">
      <rect id="Rectángulo_464200" data-name="Rectángulo 464200" width="65" height="64.441" fill="#344866"/>
    </clipPath>
  </defs>
  <g id="Grupo_1213779" data-name="Grupo 1213779" transform="translate(0.578 0.611)">
    <g id="Grupo_1119665" data-name="Grupo 1119665" transform="translate(-0.578 -0.611)">
      <rect id="Rectángulo_402006" data-name="Rectángulo 402006" width="84" height="84" rx="5" fill="#ffe79e"/>
    </g>
    <g id="Grupo_1214170" data-name="Grupo 1214170" transform="translate(9.422 9.389)">
      <g id="Grupo_1214169" data-name="Grupo 1214169" clip-path="url(#clip-path)">
        <path id="Trazado_1281783" data-name="Trazado 1281783" d="M0,47.032V41.8a11.987,11.987,0,0,1,12.364-9.257l.037-2.057A11.831,11.831,0,0,1,2.519,12.046a.967.967,0,0,1,1.392-.2,1.03,1.03,0,0,1,.133,1.3,9.929,9.929,0,1,0,2.786-2.8.972.972,0,0,1-1.294-.524c-.65-1.592,4.276-3.005,6.9-3.072C12.033,3.42,14.458,0,17.946,0L47.619.007c3.511,0,5.82,3.513,5.462,6.8a11.839,11.839,0,1,1,.047,23.677L53.1,32.521a11.84,11.84,0,1,1,.01,23.68l-.014,2.26a5.972,5.972,0,0,1-5.851,5.973l-28.927.007a5.923,5.923,0,0,1-5.883-5.658l-.081-2.606A12.09,12.09,0,0,1,0,47.032m40.2-40.6a.99.99,0,0,0,.893-.873,1.826,1.826,0,0,1,1.529-1.782,29.26,29.26,0,0,1,4.4.026c1.738.177,2.554,2.032,2.216,3.611l1.864-.4a4.158,4.158,0,0,0-3.866-5.188l-29.282.054c-2.615,0-4.088,2.887-3.573,5.075l1.83.461c-.295-1.788.667-3.567,2.476-3.651,1.307-.06,2.594-.045,3.9-.034a1.87,1.87,0,0,1,1.833,1.873.873.873,0,0,0,.825.831ZM43.52,41.9a9.956,9.956,0,1,0,1.752-3.6.976.976,0,0,1-1.5-.029c-.829-1.1,1.829-3.226,3.647-4.277l0-5.01A11.828,11.828,0,0,1,47.4,8.31l.015-1.991c0-.285-.632-.727-.923-.724l-3.557.031a2.662,2.662,0,0,1-2.8,2.709l-14.894,0a2.754,2.754,0,0,1-2.731-2.717L18.894,5.6c-.25,0-.823.465-.819.725l.036,2.006a11.818,11.818,0,0,1-.035,20.645l.006,5.461A11.814,11.814,0,0,1,18.067,54.3l0,3.6a1.073,1.073,0,0,0,1.011.891l27.216,0A1.077,1.077,0,0,0,47.443,57.7l-.019-3a11.807,11.807,0,0,1-5.7-13.4,1.054,1.054,0,0,1,1.122-.636A.964.964,0,0,1,43.52,41.9M63.105,18.649a9.946,9.946,0,1,0-9.946,9.946,9.946,9.946,0,0,0,9.946-9.946M16.169,33.375l.014-3.5-1.884.475.015,2.458Zm35.043-.735-.036-2.318-1.891-.462.01,3.264Zm-29.6,11.728A9.952,9.952,0,1,0,11.66,54.32a9.952,9.952,0,0,0,9.952-9.952M49.3,55.589l-.01,2.638A2.853,2.853,0,0,1,46.3,60.661l-27.049,0a2.828,2.828,0,0,1-3.062-2.812l-.035-2.523-1.871.611a29.5,29.5,0,0,0,.111,3.285,3.931,3.931,0,0,0,3.544,3.289l29.117.033a3.95,3.95,0,0,0,4.1-3.747l.044-2.749Z" transform="translate(0 0.001)" fill="#344866"/>
        <path id="Trazado_1281784" data-name="Trazado 1281784" d="M41.139,77.7l-7.8.011a2.859,2.859,0,0,1-2.765-2.871V67.348A2.835,2.835,0,0,1,33.444,64.5l7.509,0a2.745,2.745,0,0,1,2.81,2.473l0,8.259A2.744,2.744,0,0,1,41.139,77.7m-.092-1.882a1.059,1.059,0,0,0,.88-.974V67.328c0-.381-.413-.932-.789-.932l-7.7,0a.952.952,0,0,0-.965.947l0,7.5a.985.985,0,0,0,.961.976Z" transform="translate(-24.865 -52.447)" fill="#344866"/>
        <path id="Trazado_1281785" data-name="Trazado 1281785" d="M128.058,142.617a1.459,1.459,0,0,1-1.769-2l.965-2.756a8.56,8.56,0,1,1,16.382-4.947,8.583,8.583,0,0,1-13.548,8.991Zm.335-2.136c.825-.306,1.888-.8,2.623-.225a6.7,6.7,0,1,0-1.83-2.563Z" transform="translate(-102.62 -102.969)" fill="#344866"/>
        <path id="Trazado_1281786" data-name="Trazado 1281786" d="M273.942,217.1l-6.815,3.939a1.311,1.311,0,0,1-1.835-1l-.014-8.008a1.542,1.542,0,0,1,.631-.983,2.092,2.092,0,0,1,1.25-.044l6.54,3.778a1.673,1.673,0,0,1,.8.974,1.5,1.5,0,0,1-.561,1.343m-1.924-1.095-4.853-2.8,0,5.636Z" transform="translate(-215.728 -171.535)" fill="#344866"/>
        <path id="Trazado_1281787" data-name="Trazado 1281787" d="M266.1,70.786l.012,5.858a1.006,1.006,0,0,1-.89,1.037,1.037,1.037,0,0,1-.992-.859l-.008-6.045-1.655-.041a1.072,1.072,0,0,1-.806-1.106,1.163,1.163,0,0,1,1.128-.805l1.334.012.006-2.7a2.838,2.838,0,0,1,2.838-2.881l2.372-.008c.347,0,.838.609.834.944s-.492.943-.823.948l-2.494.044c-.3.005-.839.427-.84.756l-.01,2.879,1.333-.006a1.1,1.1,0,0,1,1.126.8.986.986,0,0,1-.993,1.131Z" transform="translate(-212.856 -51.437)" fill="#344866"/>
        <path id="Trazado_1281788" data-name="Trazado 1281788" d="M34.317,216.09c-2.89,1.939-7.589,2-8.661.318a1.792,1.792,0,0,1-.027-1.744,3.17,3.17,0,0,1,1.4-.585c-2.82-1.9-2.419-6.887-1.2-7.339,1.638-.607,1.841,1.467,4.385,1.915a3.312,3.312,0,0,1,2.139-2.708,3.511,3.511,0,0,1,3.583.711l1.18-.357a1.761,1.761,0,0,1,1.438.458,2.426,2.426,0,0,1,.351,1.523,8.877,8.877,0,0,1-1.365,2.633,8.118,8.118,0,0,1-3.219,5.175m-5.844-.486a6.808,6.808,0,0,0,5.357-1.5,8,8,0,0,0,1.976-4.016l1.078-1.676c-2.314.481-2.589-1.285-3.925-.7a1.855,1.855,0,0,0-.905,1.582c.3,2.143-3.227,1.344-5.249-.2-.358,3.875,3.245,3.845,3.138,5.122a1.569,1.569,0,0,1-.635.9Z" transform="translate(-20.245 -167.304)" fill="#344866"/>
        <path id="Trazado_1281789" data-name="Trazado 1281789" d="M172.179,17.947a.94.94,0,1,1-.94-.94.94.94,0,0,1,.94.94" transform="translate(-138.49 -13.83)" fill="#344866"/>
        <path id="Trazado_1281790" data-name="Trazado 1281790" d="M56.513,87.482a2.838,2.838,0,1,1-2.838-2.838,2.838,2.838,0,0,1,2.838,2.838m-1.9,0a.939.939,0,1,0-.939.939.939.939,0,0,0,.939-.939" transform="translate(-41.342 -68.834)" fill="#344866"/>
        <path id="Trazado_1281791" data-name="Trazado 1281791" d="M162.183,158.7c.938.6,1.55-1.416,2.561-1.217a.956.956,0,0,1,.675,1.242,3.337,3.337,0,0,1-2.987,1.96,5.482,5.482,0,0,1-2.11-.884,3.126,3.126,0,0,1-1.475-4.491,1.079,1.079,0,0,1,1.409-.606c1.228.476-.507,2.451.3,2.963Z" transform="translate(-128.826 -125.74)" fill="#344866"/>
      </g>
    </g>
  </g>
</svg>
