<svg xmlns="http://www.w3.org/2000/svg" xmlns:xlink="http://www.w3.org/1999/xlink" width="96" height="96" viewBox="0 0 96 96">
  <defs>
    <clipPath id="clip-path">
      <rect id="Rectángulo_464987" data-name="Rectángulo 464987" width="47.9" height="48.977" fill="#19538d"/>
    </clipPath>
  </defs>
  <g id="Grupo_1215077" data-name="Grupo 1215077" transform="translate(0 0)">
    <circle id="Elipse_13890" data-name="Elipse 13890" cx="48" cy="48" r="48" transform="translate(0 0)" fill="#5a9ad7"/>
    <path id="Intersección_1" data-name="Intersección 1" d="M0,47.89A47.893,47.893,0,0,1,79.511,11.92L1.1,58.131A48,48,0,0,1,0,47.89Z" transform="translate(0.109 0.108)" fill="#19538d"/>
    <path id="Trazado_1032916" data-name="Trazado 1032916" d="M40,0A40,40,0,1,1,0,40,40,40,0,0,1,40,0Z" transform="translate(8 8)" fill="#e6f3ff"/>
    <g id="Grupo_1188343" data-name="Grupo 1188343" transform="translate(22.001 22)">
      <rect id="Rectángulo_459838" data-name="Rectángulo 459838" width="52" height="52" transform="translate(-0.001 -0.124)" fill="none"/>
      <g id="Grupo_1215084" data-name="Grupo 1215084" transform="translate(1.999 1.876)">
        <g id="Grupo_1215083" data-name="Grupo 1215083" clip-path="url(#clip-path)">
          <path id="Trazado_1283626" data-name="Trazado 1283626" d="M42.555,48.977,10.07,48.912c-2.948-.006-4.95-2.839-4.768-5.554A5.265,5.265,0,0,1,0,38.049V5.218A5.2,5.2,0,0,1,5.168,0L37.452.013a5.193,5.193,0,0,1,5.156,5.629A5.228,5.228,0,0,1,47.9,10.914V43.746a5.211,5.211,0,0,1-5.346,5.231M41.088,8.752l.027-3.828a3.764,3.764,0,0,0-4.037-3.413l-31.51,0c-2.179,0-4.058,1.253-4.053,3.6l.008,3.649ZM10.747,47.474l31.887-.011A3.635,3.635,0,0,0,46.4,43.87l.017-32.958a3.661,3.661,0,0,0-3.8-3.745L42.607,38.2a5.158,5.158,0,0,1-5.226,5.112H6.823a3.708,3.708,0,0,0,3.924,4.163M37.462,41.8a3.631,3.631,0,0,0,3.644-3.608l0-27.957H1.509L1.5,38.045A3.646,3.646,0,0,0,5.187,41.8Z" transform="translate(-0.001)" fill="#19538d"/>
          <path id="Trazado_1283627" data-name="Trazado 1283627" d="M58.644,113.5l-28.251,0a3.305,3.305,0,0,1-3.359-3.223l.018-20.421A3.25,3.25,0,0,1,30.388,86.8L58.276,86.8A3.288,3.288,0,0,1,61.745,90l0,20.269a3.305,3.305,0,0,1-3.1,3.235M58.2,112a1.912,1.912,0,0,0,2.1-1.888V90.15A1.9,1.9,0,0,0,58.4,88.271H30.41A1.9,1.9,0,0,0,28.508,90L28.5,110.125a1.825,1.825,0,0,0,1.783,1.865Z" transform="translate(-23.085 -74.117)" fill="#19538d"/>
          <path id="Trazado_1283628" data-name="Trazado 1283628" d="M188.841,31.51l-10.947,0a.835.835,0,0,1-.864-.645c-.065-.286.231-.852.61-.852l11.006,0a.851.851,0,0,1,.747.621.918.918,0,0,1-.552.877" transform="translate(-151.161 -25.628)" fill="#19538d"/>
          <path id="Trazado_1283629" data-name="Trazado 1283629" d="M34.776,21.424a2.33,2.33,0,1,1-2.33-2.33,2.33,2.33,0,0,1,2.33,2.33m-1.5.013a.841.841,0,1,0-.841.841.841.841,0,0,0,.841-.841" transform="translate(-25.717 -16.305)" fill="#19538d"/>
          <path id="Trazado_1283630" data-name="Trazado 1283630" d="M78.776,21.422a2.33,2.33,0,1,1-2.33-2.33,2.33,2.33,0,0,1,2.33,2.33m-1.5.014a.841.841,0,1,0-.841.841.841.841,0,0,0,.841-.841" transform="translate(-63.289 -16.303)" fill="#19538d"/>
          <path id="Trazado_1283631" data-name="Trazado 1283631" d="M122.826,21.437a2.329,2.329,0,1,1-2.329-2.329,2.329,2.329,0,0,1,2.329,2.329m-1.5.012a.841.841,0,1,0-.841.841.841.841,0,0,0,.841-.841" transform="translate(-100.907 -16.317)" fill="#19538d"/>
          <path id="Trazado_1283632" data-name="Trazado 1283632" d="M88.818,206.865H72.226a3.085,3.085,0,0,1-2.858-3.26,3.178,3.178,0,0,1,3.3-3.037l16.054.021a3.145,3.145,0,0,1,.093,6.275m-6.2-1.454,1-3.372-11.218,0a1.712,1.712,0,0,0-1.539,1.824,1.694,1.694,0,0,0,1.67,1.545Zm5.831,0a1.657,1.657,0,0,0,1.758-1.7,1.679,1.679,0,0,0-1.758-1.682l-3.294.018-.992,3.359Z" transform="translate(-59.232 -171.27)" fill="#19538d"/>
          <path id="Trazado_1283633" data-name="Trazado 1283633" d="M119.9,123.478a.9.9,0,0,1-.1,1.042.859.859,0,0,1-1.025-.025l-1.07-1.073a.887.887,0,0,1-.047-.938c.162-.239.847-.389,1.036-.2Z" transform="translate(-100.37 -104.347)" fill="#19538d"/>
          <path id="Trazado_1283634" data-name="Trazado 1283634" d="M159.559,163.049a1.353,1.353,0,0,1-.168,1.007.97.97,0,0,1-1.041-.039l-1.063-1.067a.75.75,0,0,1,.976-1.123Z" transform="translate(-134.183 -138.106)" fill="#19538d"/>
          <path id="Trazado_1283635" data-name="Trazado 1283635" d="M166.055,146.7l-1.543.005a.96.96,0,0,1-.693-.538c-.09-.278.118-.879.436-.911,1.4-.143,2.589-.14,2.475.788a.942.942,0,0,1-.675.656" transform="translate(-139.87 -123.982)" fill="#19538d"/>
          <path id="Trazado_1283636" data-name="Trazado 1283636" d="M142.253,170.643a.98.98,0,0,1-.672.7.848.848,0,0,1-.8-.674l-.02-1.38a.767.767,0,0,1,.687-.88.74.74,0,0,1,.794.739Z" transform="translate(-120.198 -143.801)" fill="#19538d"/>
          <path id="Trazado_1283637" data-name="Trazado 1283637" d="M142.271,114.808c0,.307-.532.659-.78.627a.866.866,0,0,1-.68-.685l.016-1.711c0-.273.507-.566.8-.541a.873.873,0,0,1,.667.7Z" transform="translate(-120.24 -96.064)" fill="#19538d"/>
          <path id="Trazado_1283638" data-name="Trazado 1283638" d="M110.213,146.758l-1.833.031c-.246,0-.572-.436-.613-.657s.22-.771.453-.777l1.786-.049a1.014,1.014,0,0,1,.7.573c.078.24-.221.874-.5.878" transform="translate(-92.02 -124.08)" fill="#19538d"/>
          <path id="Trazado_1283639" data-name="Trazado 1283639" d="M158.23,124.669a.834.834,0,0,1-.945-.115.906.906,0,0,1-.037-.968l1.138-1.133a.943.943,0,0,1,1,.013.894.894,0,0,1,.068,1.018Z" transform="translate(-134.171 -104.448)" fill="#19538d"/>
          <path id="Trazado_1283640" data-name="Trazado 1283640" d="M118.788,163.978a.943.943,0,0,1-.948.023c-.194-.153-.352-.8-.175-.975l1.271-1.281c.187-.189.823-.052.981.164a.834.834,0,0,1-.079,1.014Z" transform="translate(-100.411 -138.041)" fill="#19538d"/>
        </g>
      </g>
    </g>
  </g>
</svg>
