<svg xmlns="http://www.w3.org/2000/svg" xmlns:xlink="http://www.w3.org/1999/xlink" width="96" height="96" viewBox="0 0 96 96">
  <defs>
    <clipPath id="clip-path">
      <rect id="Rectángulo_464985" data-name="Rectángulo 464985" width="47.023" height="47.01" fill="#19538d"/>
    </clipPath>
  </defs>
  <g id="Grupo_1215079" data-name="Grupo 1215079" transform="translate(0 0)">
    <circle id="Elipse_13890" data-name="Elipse 13890" cx="48" cy="48" r="48" transform="translate(0 0)" fill="#5a9ad7"/>
    <path id="Intersección_1" data-name="Intersección 1" d="M0,47.89A47.893,47.893,0,0,1,79.511,11.92L1.1,58.131A48,48,0,0,1,0,47.89Z" transform="translate(0.109 0.108)" fill="#19538d"/>
    <path id="Trazado_1032916" data-name="Trazado 1032916" d="M40,0A40,40,0,1,1,0,40,40,40,0,0,1,40,0Z" transform="translate(8 8)" fill="#e6f3ff"/>
    <g id="Grupo_1188343" data-name="Grupo 1188343" transform="translate(22.001 22)">
      <rect id="Rectángulo_459838" data-name="Rectángulo 459838" width="52" height="52" transform="translate(-0.001 -0.124)" fill="none"/>
      <g id="Grupo_1215081" data-name="Grupo 1215081" transform="translate(1.999 1.876)">
        <g id="Grupo_1215080" data-name="Grupo 1215080" clip-path="url(#clip-path)">
          <path id="Trazado_1283610" data-name="Trazado 1283610" d="M31.1,39.422l-.02,3.042a4.175,4.175,0,0,1,3.383,1.029,4.124,4.124,0,0,1,1.154,3.517H11.392a4.139,4.139,0,0,1,1.081-3.443,4.052,4.052,0,0,1,3.433-1.089l.023-3.054-8.958.01a3.822,3.822,0,0,1-3.928-3.728l-.032-6.223A6.028,6.028,0,0,1,0,24.255,6.1,6.1,0,0,1,3.023,19l.019-4.68a3.816,3.816,0,0,1,3.925-3.726l3.64,0,0-8.3A2.28,2.28,0,0,1,12.906,0h21.2A2.276,2.276,0,0,1,36.4,2.294L36.41,10.6l3.628-.009A3.877,3.877,0,0,1,44,14.553l-.009,2.107,3.032.007v13.64l-3.038.037L44,35.472a3.874,3.874,0,0,1-3.964,3.963ZM21.882,15.078l4.41-2.942,7.683,0a.8.8,0,0,0,.9-.764l0-9.108a.755.755,0,0,0-.762-.734H12.9a.753.753,0,0,0-.761.735v9.108a.8.8,0,0,0,.891.769l8.2-.008.01,2.532a1.065,1.065,0,0,0,.144.426c.055.078.413.047.495-.008M31.868,23.5h4.523V16.665h6.058l.01-2.574a2.243,2.243,0,0,0-1.986-1.932l-4.192-.04a2.319,2.319,0,0,1-2.3,1.546l-7.2-.013L22.625,16.4a1.864,1.864,0,0,1-2.071-.068,2.134,2.134,0,0,1-.861-1.8l-.022-.879-6.642.007a2.319,2.319,0,0,1-2.289-1.533l-4.212,0a2.22,2.22,0,0,0-1.941,1.984L4.571,18.37a6.072,6.072,0,0,1,7.515,5.123l3.078,0,0-2.277h4.565l0,7.567,1.5-.006V18.18h4.565V28.772l1.5,0,.008-9.085,4.556.007Zm13.621-5.3H37.923V28.8h7.566ZM10.611,24.254A4.542,4.542,0,1,0,6.068,28.8a4.542,4.542,0,0,0,4.542-4.542m13.648-4.541h-1.5V28.8h1.5Zm6.066,1.516h-1.5V28.8h1.5ZM18.192,22.746h-1.5V28.8h1.5Zm13.669,6.048,1.518,0-.019,1.53h-19.7L13.638,28.8l1.518-.013.009-3.764-3.081-.008a6.071,6.071,0,0,1-7.517,5.127l.048,1.687H42.4l.043-1.5-6.054,0V25.013H31.856Zm8.522,9.1A2.137,2.137,0,0,0,42.424,35.9V33.362H4.594l-.035,2.29a2.219,2.219,0,0,0,2.147,2.241ZM29.574,39.428H17.442v3.019H29.574Zm2.412,4.555-17.018,0a2.134,2.134,0,0,0-1.905,1.492l20.92,0a2.234,2.234,0,0,0-2-1.493" transform="translate(0)" fill="#19538d"/>
          <path id="Trazado_1283611" data-name="Trazado 1283611" d="M144.532,253.685a.76.76,0,1,1-.76-.76.76.76,0,0,1,.76.76" transform="translate(-123.297 -218.056)" fill="#19538d"/>
          <path id="Trazado_1283612" data-name="Trazado 1283612" d="M166.532,253.685a.76.76,0,1,1-.76-.76.76.76,0,0,1,.76.76" transform="translate(-142.264 -218.056)" fill="#19538d"/>
          <path id="Trazado_1283613" data-name="Trazado 1283613" d="M188.532,253.685a.76.76,0,1,1-.76-.76.76.76,0,0,1,.76.76" transform="translate(-161.231 -218.056)" fill="#19538d"/>
          <path id="Trazado_1283614" data-name="Trazado 1283614" d="M201.815,29.618l-1.575.011a2.255,2.255,0,0,1-2.273-2.206l-.011-3.1a2.28,2.28,0,0,1,2.274-2.284h1.533a2.273,2.273,0,0,1,2.274,2.285l0,2.983a2.259,2.259,0,0,1-2.224,2.306m-.057-1.513a.815.815,0,0,0,.75-.741V24.273a.805.805,0,0,0-.712-.711l-1.6,0a.811.811,0,0,0-.712.717l0,3.081a.824.824,0,0,0,.874.766Z" transform="translate(-170.665 -19.005)" fill="#19538d"/>
          <path id="Trazado_1283615" data-name="Trazado 1283615" d="M102.828,29.617l-1.564.006a2.247,2.247,0,0,1-2.293-2.246l1.486.01c.1.231.393.7.619.7l1.8,0c.312,0,.646-.451.657-.7a.8.8,0,0,0-.731-.8l-1.411.015a2.3,2.3,0,0,1-2.413-2.164,2.275,2.275,0,0,1,2.271-2.4h1.524a2.281,2.281,0,0,1,2.284,2.281l-1.52-.016a.827.827,0,0,0-.728-.743l-1.443-.015a.835.835,0,0,0-.872.682.818.818,0,0,0,.644.823l1.78.042a2.263,2.263,0,0,1-.088,4.522" transform="translate(-85.327 -19.002)" fill="#19538d"/>
          <path id="Trazado_1283616" data-name="Trazado 1283616" d="M155.669,26.468c-.422.2-.214,1.447.357,1.457l2.487.048,0,1.514-2.154.008a2.288,2.288,0,0,1-2.4-2.226l-.012-3.093a2.254,2.254,0,0,1,2.135-2.261l2.428-.042v1.55a25.033,25.033,0,0,0-2.557.055c-.506.049-.583.938-.426,1.434l2.98.015.006,1.523Z" transform="translate(-132.727 -18.859)" fill="#19538d"/>
          <rect id="Rectángulo_464982" data-name="Rectángulo 464982" width="4.566" height="1.533" transform="translate(39.424 19.697)" fill="#19538d"/>
          <rect id="Rectángulo_464983" data-name="Rectángulo 464983" width="4.566" height="1.533" transform="translate(39.424 22.73)" fill="#19538d"/>
          <rect id="Rectángulo_464984" data-name="Rectángulo 464984" width="4.566" height="1.533" transform="translate(39.424 25.763)" fill="#19538d"/>
          <path id="Trazado_1283617" data-name="Trazado 1283617" d="M28.071,156.953a3.036,3.036,0,1,1-3.036-3.036,3.036,3.036,0,0,1,3.036,3.036m-1.522,0a1.516,1.516,0,1,0-1.516,1.516,1.516,1.516,0,0,0,1.516-1.516" transform="translate(-18.965 -132.697)" fill="#19538d"/>
        </g>
      </g>
    </g>
  </g>
</svg>
