<svg xmlns="http://www.w3.org/2000/svg" xmlns:xlink="http://www.w3.org/1999/xlink" width="96" height="96" viewBox="0 0 96 96">
  <defs>
    <clipPath id="clip-path">
      <rect id="Rectángulo_464981" data-name="Rectángulo 464981" width="52" height="49.518" fill="#19538d"/>
    </clipPath>
  </defs>
  <g id="Grupo_1215071" data-name="Grupo 1215071" transform="translate(0 0)">
    <circle id="Elipse_13890" data-name="Elipse 13890" cx="48" cy="48" r="48" transform="translate(0 0)" fill="#5a9ad7"/>
    <path id="Intersección_1" data-name="Intersección 1" d="M0,47.89A47.893,47.893,0,0,1,79.511,11.92L1.1,58.131A48,48,0,0,1,0,47.89Z" transform="translate(0.109 0.108)" fill="#19538d"/>
    <path id="Trazado_1032916" data-name="Trazado 1032916" d="M40,0A40,40,0,1,1,0,40,40,40,0,0,1,40,0Z" transform="translate(8 8)" fill="#e6f3ff"/>
    <g id="Grupo_1188343" data-name="Grupo 1188343" transform="translate(22.001 22)">
      <rect id="Rectángulo_459838" data-name="Rectángulo 459838" width="52" height="52" transform="translate(-0.001 -0.124)" fill="none"/>
      <g id="Grupo_1215075" data-name="Grupo 1215075" transform="translate(-0.001 0.876)">
        <g id="Grupo_1215074" data-name="Grupo 1215074" clip-path="url(#clip-path)">
          <path id="Trazado_1283609" data-name="Trazado 1283609" d="M44.28,41.725l-2.666,7.269a1.09,1.09,0,0,1-.736.523,1.072,1.072,0,0,1-.769-.493L38.688,45.19a24.748,24.748,0,1,1,8.145-9.29l4.482,1.6a.866.866,0,0,1,.038,1.684Zm-32.037-27.6A28.409,28.409,0,0,1,21.4,1.95,23.009,23.009,0,0,0,4.275,14.124ZM45.2,14.116A23.071,23.071,0,0,0,28.031,1.927a28.516,28.516,0,0,1,9.239,12.216Zm-21.275.02-.014-11.81a26.145,26.145,0,0,0-9.884,11.809Zm11.521-.007A26.212,26.212,0,0,0,25.586,2.313l-.008,11.829Zm-25.1,9.779a29.514,29.514,0,0,1,1.268-8.1l-8.149.006a22.609,22.609,0,0,0-1.744,8.1Zm13.573.006,0-8.1-10.527,0A28.179,28.179,0,0,0,12,23.917Zm13.571,0a28.022,28.022,0,0,0-1.416-8.1l-10.5,0,.013,8.1Zm10.269,0a22.239,22.239,0,0,0-1.765-8.1l-8.124,0a29.78,29.78,0,0,1,1.285,8.1ZM11.6,33.656a29.8,29.8,0,0,1-1.259-8.075l-8.622,0a22.771,22.771,0,0,0,1.747,8.112Zm12.317.025,0-8.1L12,25.583a28.239,28.239,0,0,0,1.412,8.093Zm11.361-1.971,1.258.428A29.6,29.6,0,0,0,37.5,25.58l-11.925,0,0,8.1,8.892,0-.257-.921a1.191,1.191,0,0,1,.167-.88,1.29,1.29,0,0,1,.9-.168M46,33.68a22.4,22.4,0,0,0,1.759-8.1l-8.6,0a32.4,32.4,0,0,1-.991,7.146,12.79,12.79,0,0,0,2.637.9c1.769.1,3.406.053,5.193.059m-3.032,6.746,5.7-2.081L36.429,33.917l4.42,12.217ZM12.189,35.312l-7.913.054A22.994,22.994,0,0,0,21.406,47.544a28.876,28.876,0,0,1-9.216-12.233m11.725.011-9.865.03a25.978,25.978,0,0,0,9.864,11.821Zm11.486.056-9.83-.045.021,11.835A25.775,25.775,0,0,0,35.4,35.379m2.722,8.126-2.038-5.45a29.255,29.255,0,0,1-8.046,9.5,21.971,21.971,0,0,0,10.084-4.046" transform="translate(0 0)" fill="#19538d"/>
        </g>
      </g>
    </g>
  </g>
</svg>
