<svg xmlns="http://www.w3.org/2000/svg" xmlns:xlink="http://www.w3.org/1999/xlink" width="128" height="128" viewBox="0 0 128 128">
  <defs>
    <clipPath id="clip-path">
      <rect id="Rectángulo_465031" data-name="Rectángulo 465031" width="58.274" height="58.278" fill="#19538d"/>
    </clipPath>
  </defs>
  <g id="Grupo_1215154" data-name="Grupo 1215154" transform="translate(-383.746 -8400)">
    <circle id="Elipse_13890" data-name="Elipse 13890" cx="64" cy="64" r="64" transform="translate(383.746 8400)" fill="#5a9ad7"/>
    <path id="Intersección_1" data-name="Intersección 1" d="M23204.689,11774.869a64,64,0,0,1,106.254-48.067l-104.787,61.753A64.213,64.213,0,0,1,23204.689,11774.869Z" transform="translate(-22820.941 -3310.872)" fill="#19538d"/>
    <circle id="Elipse_13891" data-name="Elipse 13891" cx="54" cy="54" r="54" transform="translate(393.746 8410)" fill="#fff"/>
    <g id="Grupo_1188343" data-name="Grupo 1188343" transform="translate(-0.994 -0.997)">
      <rect id="Rectángulo_459838" data-name="Rectángulo 459838" width="66" height="66" transform="translate(415.74 8431.997)" fill="#fff"/>
      <g id="Grupo_1215161" data-name="Grupo 1215161" transform="translate(419.74 8435.997)">
        <g id="Grupo_1215160" data-name="Grupo 1215160" clip-path="url(#clip-path)">
          <path id="Trazado_1283827" data-name="Trazado 1283827" d="M43.613,58.274l-28.86,0a2.922,2.922,0,1,1-.024-5.835l3.113.013,1.923-3.882H3.154A3.023,3.023,0,0,1,0,45.5L.005,2.846A2.886,2.886,0,0,1,3.006,0L55.428,0a2.889,2.889,0,0,1,2.846,3V45.5a3.022,3.022,0,0,1-3.151,3.072H38.51l1.92,3.875,3.118,0a2.918,2.918,0,1,1,.066,5.83M56.3,1.951H1.951v9.7H56.3ZM31.936,23.984l8.072,16.8,16.321-.007L56.32,13.594H1.95V40.781l16.33-.008,8.083-16.847a3.214,3.214,0,0,1,5.572.058m.114,24.579V42.526a1.773,1.773,0,0,1,.568-1.23c1.3-.91,3.709,1.109,6.141,1.45L30.226,24.926a1.431,1.431,0,0,0-1.012-.655,1.408,1.408,0,0,0-1.11.551l-8.585,17.92c2.336-.322,4.715-2.239,6.023-1.526a1.558,1.558,0,0,1,.675,1.147l.015,6.2Zm-7.8-5.357-3.793,1.43a2.337,2.337,0,0,1-2.752-1.9H1.972L1.94,45.354c-.011.908.545,1.269,1.388,1.268l20.937-.006Zm31.057,3.411a1.112,1.112,0,0,0,.994-.885l-.009-3-15.709,0a2.866,2.866,0,0,1-1.243,1.7,2.508,2.508,0,0,1-2.247-.061L34.01,43.18v3.439Zm-21.3,1.962A1.938,1.938,0,0,1,31.958,50.5l-5.641,0a1.976,1.976,0,0,1-2.059-1.918l-2.274-.022L20.038,52.44l18.2.006-1.921-3.865Zm9.752,7.737a.931.931,0,0,0,.9-1.076.993.993,0,0,0-.967-.833H14.754a1.017,1.017,0,0,0-1.137.845c-.069.348.23,1.064.806,1.064Z" transform="translate(0 0)" fill="#19538d"/>
          <path id="Trazado_1283828" data-name="Trazado 1283828" d="M172.131,97.613a.991.991,0,0,1-.88,1.082.954.954,0,0,1-1.04-1.016l0-2.827a.986.986,0,0,1,.873-1.008.957.957,0,0,1,1.042,1.016Z" transform="translate(-142.031 -78.307)" fill="#19538d"/>
          <path id="Trazado_1283829" data-name="Trazado 1283829" d="M132.833,113.552c.255.253.045.992-.188,1.184a1.1,1.1,0,0,1-1.293.022l-2.114-2.1a1.158,1.158,0,0,1-.124-1.289c.167-.287.947-.569,1.214-.3Z" transform="translate(-107.623 -92.591)" fill="#19538d"/>
          <path id="Trazado_1283830" data-name="Trazado 1283830" d="M200.722,114.644a1.168,1.168,0,0,1-1.32.158c-.281-.173-.571-.946-.3-1.213l2.521-2.524c.272-.272,1.045.016,1.215.3a1.165,1.165,0,0,1-.125,1.284Z" transform="translate(-166.049 -92.588)" fill="#19538d"/>
          <path id="Trazado_1283831" data-name="Trazado 1283831" d="M115.535,154.391l-3.469.023c-.431,0-.792-.719-.723-1.061a1.05,1.05,0,0,1,1.068-.846l2.71-.009a1.156,1.156,0,0,1,1.062.714c.129.335-.15,1.176-.648,1.179" transform="translate(-92.903 -127.252)" fill="#19538d"/>
          <path id="Trazado_1283832" data-name="Trazado 1283832" d="M215.411,154.421l-3.49.034c-.364,0-.765-.615-.753-.936a1.028,1.028,0,0,1,.932-.973l2.882-.007a1.144,1.144,0,0,1,1.042.715c.128.321-.182,1.163-.612,1.167" transform="translate(-176.208 -127.286)" fill="#19538d"/>
          <path id="Trazado_1283833" data-name="Trazado 1283833" d="M253.127,29.24l-9.81-.017a2.909,2.909,0,0,1,0-5.812l9.867-.014a2.922,2.922,0,1,1-.062,5.843m.153-1.938a1.053,1.053,0,0,0,.863-1.061,1.078,1.078,0,0,0-.955-.886l-9.854.011c-.471,0-.887.673-.852,1.016a1.032,1.032,0,0,0,.961.92Z" transform="translate(-200.732 -19.524)" fill="#19538d"/>
          <path id="Trazado_1283834" data-name="Trazado 1283834" d="M29.286,26.385a2.912,2.912,0,1,1-2.912-2.913,2.912,2.912,0,0,1,2.912,2.913m-1.939.005a.967.967,0,1,0-.967.967.967.967,0,0,0,.967-.967" transform="translate(-19.577 -19.586)" fill="#19538d"/>
          <path id="Trazado_1283835" data-name="Trazado 1283835" d="M123.183,26.386a2.913,2.913,0,1,1-2.913-2.913,2.913,2.913,0,0,1,2.913,2.913m-1.95,0a.968.968,0,1,0-.968.968.968.968,0,0,0,.968-.968" transform="translate(-97.929 -19.587)" fill="#19538d"/>
          <path id="Trazado_1283836" data-name="Trazado 1283836" d="M76.25,26.386a2.909,2.909,0,1,1-2.909-2.909,2.909,2.909,0,0,1,2.909,2.909m-1.94.009a.97.97,0,1,0-.969.969.97.97,0,0,0,.969-.969" transform="translate(-58.772 -19.59)" fill="#19538d"/>
        </g>
      </g>
    </g>
  </g>
</svg>
