<svg id="Grupo_1215126" data-name="Grupo 1215126" xmlns="http://www.w3.org/2000/svg" xmlns:xlink="http://www.w3.org/1999/xlink" width="96" height="96" viewBox="0 0 96 96">
  <defs>
    <clipPath id="clip-path">
      <rect id="Rectángulo_465024" data-name="Rectángulo 465024" width="48.404" height="51.999" fill="#19538d"/>
    </clipPath>
  </defs>
  <circle id="Elipse_13890" data-name="Elipse 13890" cx="48" cy="48" r="48" transform="translate(0 0)" fill="#5a9ad7"/>
  <path id="Intersección_1" data-name="Intersección 1" d="M0,47.89A47.893,47.893,0,0,1,79.511,11.92L1.1,58.131A48,48,0,0,1,0,47.89Z" transform="translate(0.109 0.108)" fill="#19538d"/>
  <path id="Trazado_1032916" data-name="Trazado 1032916" d="M40,0A40,40,0,1,1,0,40,40,40,0,0,1,40,0Z" transform="translate(8 8)" fill="#e6f3ff"/>
  <g id="Grupo_1188343" data-name="Grupo 1188343" transform="translate(22.001 22)">
    <rect id="Rectángulo_459838" data-name="Rectángulo 459838" width="52" height="52" transform="translate(-0.036 -0.001)" fill="none"/>
    <g id="Grupo_1215127" data-name="Grupo 1215127" transform="translate(1.964 -0.001)">
      <g id="Grupo_1215127-2" data-name="Grupo 1215127" clip-path="url(#clip-path)">
        <path id="Trazado_1283746" data-name="Trazado 1283746" d="M23.9,36.779l.015-2.489-22.379,0,.029,12.682a3.778,3.778,0,0,0,3.348,3.508l15.408-.022a3.722,3.722,0,0,0,3.589-3.6l.033-2.133A.857.857,0,0,1,24.579,44a.768.768,0,0,1,.869.73l-.008,1.946A5.3,5.3,0,0,1,20.065,52L5.434,52A5.31,5.31,0,0,1,.011,46.826L0,31.45a4.987,4.987,0,0,1,4.7-5L20.35,26.4a5.267,5.267,0,0,1,3.522,1.389l-.015-2.613a12.57,12.57,0,1,1,1.528.006l.07,9.65,5.175-5.356,4.28-4.441c-.491-.36-1.223-.967-.9-1.5a15.224,15.224,0,0,1,1.908-2.079,1.274,1.274,0,0,1,.631-.311,1.613,1.613,0,0,1,.775.449l4.209-4.54A3.99,3.99,0,0,1,44.223,15.6a3.853,3.853,0,0,1,3,1.248A3.646,3.646,0,0,1,47.1,22.33l-4.718,4.357a.839.839,0,0,1,.229,1.325l-1.863,1.86a.887.887,0,0,1-1.037.025l-.8-.755L28.181,39.409a36.785,36.785,0,0,1-4.43,3.12,1.613,1.613,0,0,1-1.978.007,1.578,1.578,0,0,1-.335-2.016Zm-.019-30.01L23.861,1.55a11.127,11.127,0,0,0-6.473,2.676l3.7,3.71a7.4,7.4,0,0,1,2.8-1.168m4.3,1.188L31.9,4.231a10.942,10.942,0,0,0-6.512-2.664l0,5.221a6.6,6.6,0,0,1,2.792,1.169m-9.345,3.868a7.2,7.2,0,0,1,1.158-2.8L16.287,5.314A11.12,11.12,0,0,0,13.6,11.826Zm11.615,0,5.239,0a11.1,11.1,0,0,0-2.706-6.5L29.275,9.055a6.529,6.529,0,0,1,1.176,2.772M25.395,23.66a11.157,11.157,0,0,0,6.518-2.719l-4.289-4.292a.891.891,0,0,1,.068-1.018,4.3,4.3,0,1,0-3.825,1.193l.011-1.615a2.722,2.722,0,1,1,1.5.033Zm.484-11.052a1.19,1.19,0,1,0-1.19,1.19,1.19,1.19,0,0,0,1.19-1.19m-5.89,3.526a6.338,6.338,0,0,1-1.151-2.748l-5.232-.015A10.607,10.607,0,0,0,16.3,19.838Zm13.018,3.7a10.926,10.926,0,0,0,2.675-6.466l-5.246.012a6.557,6.557,0,0,1-1.143,2.766ZM41.32,25.6l4.989-4.656a2.1,2.1,0,0,0-.218-3.069,2.09,2.09,0,0,0-3.185-.035l-4.494,4.851ZM23.877,23.634,23.871,18.4a6.982,6.982,0,0,1-2.8-1.156l-3.693,3.69a10.743,10.743,0,0,0,6.5,2.7m12.715-.66-.809.809,4.441,4.441.809-.809Zm-9.351,15.3,1.478-1.412,4.954-4.787,4.188-4.019L35.944,26.14l-5.237,5.477c-1.657,1.733-3.365,3.3-4.894,5.148a33.045,33.045,0,0,0-2.866,4.4c1.547-.957,2.845-1.883,4.294-2.885m-3.332-5.515a10.807,10.807,0,0,0-.066-1.869,3.563,3.563,0,0,0-3.486-2.977L5.01,27.923a3.53,3.53,0,0,0-3.379,2.8,7.025,7.025,0,0,0-.049,2.04Z" transform="translate(0 -0.001)" fill="#19538d"/>
        <path id="Trazado_1283747" data-name="Trazado 1283747" d="M97.526,254.348l2.456.016a.946.946,0,0,0,.828-.868l-.012-2.386a.836.836,0,0,1,.743-.872.871.871,0,0,1,.809.72l-.022,2.7a2.353,2.353,0,0,1-2.327,2.22l-2.4-.009a2.324,2.324,0,0,1-2.274-2.262l.01-7.733a2.3,2.3,0,0,1,2.257-2.176l2.564.007a2.294,2.294,0,0,1,2.16,2.086l.035,1.678c.006.285-.436.665-.689.69a.851.851,0,0,1-.837-.685l-.025-1.487a.835.835,0,0,0-.8-.763l-2.27-.007c-.349,0-.864.328-.864.73l-.009,7.565c0,.3.338.829.671.831" transform="translate(-81.242 -207.706)" fill="#19538d"/>
        <path id="Trazado_1283748" data-name="Trazado 1283748" d="M38.052,246.394a2.314,2.314,0,0,1-2.223,2.242l-2.491.013A2.409,2.409,0,0,1,31,246.033a2.436,2.436,0,0,1,2.487-2.438h2.071a2.461,2.461,0,0,1,2.5,2.8m-2,.6c.662-.12.63-1.646.02-1.752a10.9,10.9,0,0,0-3-.041c-.3.029-.538.63-.548.9s.2.92.5.945A11.058,11.058,0,0,0,36.05,247" transform="translate(-26.415 -207.614)" fill="#19538d"/>
        <path id="Trazado_1283749" data-name="Trazado 1283749" d="M36.324,296.118a10.246,10.246,0,0,1-3.51.016,2.327,2.327,0,0,1-1.8-2.391,2.352,2.352,0,0,1,1.876-2.447,13.183,13.183,0,0,1,3.311,0,2.511,2.511,0,0,1,.118,4.827m-.282-1.49c.682-.117.677-1.624.071-1.752a9.065,9.065,0,0,0-3.17-.021c-.272.039-.415.763-.388,1.034s.307.792.641.81a12.263,12.263,0,0,0,2.846-.07" transform="translate(-26.437 -248.179)" fill="#19538d"/>
        <path id="Trazado_1283750" data-name="Trazado 1283750" d="M71.911,202.326l-4.261,0a.829.829,0,0,1-.7-.8.807.807,0,0,1,.851-.708h4.033a.818.818,0,0,1,.786.69.781.781,0,0,1-.708.816" transform="translate(-57.058 -171.157)" fill="#19538d"/>
      </g>
    </g>
  </g>
</svg>
