<svg xmlns="http://www.w3.org/2000/svg" xmlns:xlink="http://www.w3.org/1999/xlink" width="84" height="84" viewBox="0 0 84 84">
  <defs>
    <clipPath id="clip-path">
      <rect id="Rectángulo_464203" data-name="Rectángulo 464203" width="65" height="59.145" fill="#344866"/>
    </clipPath>
  </defs>
  <g id="Grupo_1213777" data-name="Grupo 1213777" transform="translate(0.289 0.611)">
    <g id="Grupo_1119665" data-name="Grupo 1119665" transform="translate(-0.289 -0.611)">
      <rect id="Rectángulo_402006" data-name="Rectángulo 402006" width="84" height="84" rx="5" fill="#ffe79e"/>
    </g>
    <g id="Grupo_1214176" data-name="Grupo 1214176" transform="translate(8.711 11.389)">
      <g id="Grupo_1214175" data-name="Grupo 1214175" clip-path="url(#clip-path)">
        <path id="Trazado_1281812" data-name="Trazado 1281812" d="M61.508,59.145,3.594,59.131A3.789,3.789,0,0,1,0,55.336V3.756A3.683,3.683,0,0,1,3.4.016L61.786,0A3.8,3.8,0,0,1,65,3.767V55.323a3.852,3.852,0,0,1-3.491,3.822m1.636-47.371.006-8.068A2.029,2.029,0,0,0,61,1.785H3.994A1.994,1.994,0,0,0,1.862,3.708l-.009,8.068ZM1.852,57.3h61.3V13.605H1.852Z" fill="#344866"/>
        <path id="Trazado_1281813" data-name="Trazado 1281813" d="M100.257,95.6l1.03-.46-.009-7.737-6.671,2.259-.017,7.366a1.1,1.1,0,0,1-.883,1.006,43.588,43.588,0,0,1-21.13-.011,1.22,1.22,0,0,1-.8-.951l.008-7.413-7.687-2.6a1.614,1.614,0,0,1-.757-.545c-.147-.231,0-1.085.271-1.177l19.555-6.65L102.3,85.157a3.081,3.081,0,0,1,.806.607l.01,9.474c.306.024.962.2,1.049.472l1.315,4.015a2.285,2.285,0,0,1-.245,1.41,1.865,1.865,0,0,1-1.3.6l-3.726-.03a1.546,1.546,0,0,1-1.292-1.918Zm-1.043-9.5L83.192,80.627l-16.05,5.479L83.25,91.59Zm-6.49,4.21-9.542,3.224-9.519-3.237-.007,6.082a41.752,41.752,0,0,0,19.085-.012Zm10.844,9.555-.875-2.759-1,.044-.872,2.723Z" transform="translate(-51.115 -63.56)" fill="#344866"/>
        <path id="Trazado_1281814" data-name="Trazado 1281814" d="M101.314,204.392a3.135,3.135,0,0,1-.824,6.133,3.134,3.134,0,0,1-1-6.126l.006-4.014a1.051,1.051,0,0,1,.741-.9l6.76-1.558.031-4.979c0-.383.641-.848.968-.81a1.131,1.131,0,0,1,.888.944l.012,5.44a1.14,1.14,0,0,1-.844,1.059l-6.726,1.546Zm.368,3a1.279,1.279,0,1,0-1.279,1.279,1.279,1.279,0,0,0,1.279-1.279" transform="translate(-78.586 -155.201)" fill="#344866"/>
        <path id="Trazado_1281815" data-name="Trazado 1281815" d="M188.994,204.422a3.171,3.171,0,0,1,2.146,3.585,3.127,3.127,0,1,1-4.026-3.562l.015-3.3-6.724-1.539a1.115,1.115,0,0,1-.819-1.055l.01-5.454a1.312,1.312,0,0,1,.7-.907c.307-.117,1.112.264,1.116.649l.056,5.113,6.751,1.556a1.152,1.152,0,0,1,.79.891Zm.357,3a1.28,1.28,0,1,0-1.28,1.28,1.28,1.28,0,0,0,1.28-1.28" transform="translate(-145.063 -155.227)" fill="#344866"/>
        <path id="Trazado_1281816" data-name="Trazado 1281816" d="M59.212,197.3a3.136,3.136,0,1,1-1.871.008l0-2.485a1.1,1.1,0,0,1,.987-1.107l9.3-1.837.006-2.212a1.144,1.144,0,0,1,.961-.847,1.024,1.024,0,0,1,.9.985l0,2.791a1.1,1.1,0,0,1-.774.942l-9.477,1.878Zm.335,2.995a1.28,1.28,0,1,0-1.28,1.28,1.28,1.28,0,0,0,1.28-1.28" transform="translate(-44.557 -152.523)" fill="#344866"/>
        <path id="Trazado_1281817" data-name="Trazado 1281817" d="M220.49,197.3a3.17,3.17,0,0,1,2.151,3.594,3.125,3.125,0,1,1-4.037-3.556l0-1.912-9.486-1.873a1.119,1.119,0,0,1-.776-.941l.019-3.006c0-.306.562-.772.882-.773.378,0,.967.478.968.845l.007,2.215,9.305,1.834a1.108,1.108,0,0,1,.99,1.105Zm.373,3.006a1.281,1.281,0,1,0-1.28,1.281,1.281,1.281,0,0,0,1.28-1.281" transform="translate(-168.294 -152.532)" fill="#344866"/>
        <path id="Trazado_1281818" data-name="Trazado 1281818" d="M238.754,27.884a1.769,1.769,0,1,1-1.769-1.769,1.769,1.769,0,0,1,1.769,1.769" transform="translate(-189.998 -21.095)" fill="#344866"/>
        <path id="Trazado_1281819" data-name="Trazado 1281819" d="M293.011,27.872A1.772,1.772,0,1,1,291.24,26.1a1.772,1.772,0,0,1,1.772,1.771" transform="translate(-233.822 -21.083)" fill="#344866"/>
        <path id="Trazado_1281820" data-name="Trazado 1281820" d="M265.924,27.893a1.765,1.765,0,1,1-1.765-1.765,1.765,1.765,0,0,1,1.765,1.765" transform="translate(-211.952 -21.105)" fill="#344866"/>
      </g>
    </g>
  </g>
</svg>
