<svg xmlns="http://www.w3.org/2000/svg" xmlns:xlink="http://www.w3.org/1999/xlink" width="128" height="128" viewBox="0 0 128 128">
  <defs>
    <clipPath id="clip-path">
      <rect id="Rectángulo_465030" data-name="Rectángulo 465030" width="57.436" height="60.168" fill="#19538d"/>
    </clipPath>
  </defs>
  <g id="Grupo_1215153" data-name="Grupo 1215153" transform="translate(-383.746 -8400)">
    <circle id="Elipse_13890" data-name="Elipse 13890" cx="64" cy="64" r="64" transform="translate(383.746 8400)" fill="#5a9ad7"/>
    <path id="Intersección_1" data-name="Intersección 1" d="M23204.689,11774.869a64,64,0,0,1,106.254-48.067l-104.787,61.753A64.213,64.213,0,0,1,23204.689,11774.869Z" transform="translate(-22820.941 -3310.872)" fill="#19538d"/>
    <circle id="Elipse_13891" data-name="Elipse 13891" cx="54" cy="54" r="54" transform="translate(393.746 8410)" fill="#fff"/>
    <g id="Grupo_1188343" data-name="Grupo 1188343" transform="translate(-0.994 -0.997)">
      <rect id="Rectángulo_459838" data-name="Rectángulo 459838" width="66" height="66" transform="translate(415.74 8431.997)" fill="#fff"/>
      <g id="Grupo_1215159" data-name="Grupo 1215159" transform="translate(419.74 8434.997)">
        <g id="Grupo_1215158" data-name="Grupo 1215158" clip-path="url(#clip-path)">
          <path id="Trazado_1283815" data-name="Trazado 1283815" d="M57.436,53.265a7.064,7.064,0,0,1-7.253,6.9l-43.457-.06A6.954,6.954,0,0,1,0,53.177l.015-46.4A6.967,6.967,0,0,1,6.9,0L50.549,0a6.972,6.972,0,0,1,6.884,6.786ZM55.643,10.544,55.66,7.1a5.273,5.273,0,0,0-5.116-5.273L7.277,1.806A5.331,5.331,0,0,0,1.79,7.137L1.8,10.544ZM50.662,58.327a5.273,5.273,0,0,0,4.969-5l.035-40.979H1.785L1.8,53.157a5.312,5.312,0,0,0,5.466,5.17Z" transform="translate(0 0)" fill="#19538d"/>
          <path id="Trazado_1283816" data-name="Trazado 1283816" d="M33.414,127.66l-6.945.009a2.728,2.728,0,0,1-2.746-2.822V92.492a2.773,2.773,0,0,1,2.8-2.855l6.832.011a2.7,2.7,0,0,1,2.694,2.709l-.007,32.774a2.63,2.63,0,0,1-2.624,2.529m-.182-1.807a1.026,1.026,0,0,0,1-1.039V92.379a1.027,1.027,0,0,0-1-.882l-6.779.007a.913.913,0,0,0-.9.816v32.7a.943.943,0,0,0,.9.831Z" transform="translate(-19.407 -73.325)" fill="#19538d"/>
          <path id="Trazado_1283817" data-name="Trazado 1283817" d="M138.886,102.394a2.747,2.747,0,0,1-2.779,2.868h-28.53a2.734,2.734,0,0,1-2.752-2.8l.02-6.919a2.674,2.674,0,0,1,2.73-2.6H136.11a2.714,2.714,0,0,1,2.769,2.772Zm-2.533,1.041a1.034,1.034,0,0,0,.7-.954V95.708a.918.918,0,0,0-.943-.948l-28.533,0a1.019,1.019,0,0,0-.922.8v7.078a1,1,0,0,0,.921.8Z" transform="translate(-85.749 -76.031)" fill="#19538d"/>
          <path id="Trazado_1283818" data-name="Trazado 1283818" d="M138.714,181.854H107.831a1.057,1.057,0,0,1-.921-.828.978.978,0,0,1,.924-1.027l30.7,0c.678,0,1.086.286,1.127.86a.918.918,0,0,1-.952,1" transform="translate(-87.453 -147.24)" fill="#19538d"/>
          <path id="Trazado_1283819" data-name="Trazado 1283819" d="M138.8,211.4l-30.973,0a.938.938,0,0,1-.916-.894.952.952,0,0,1,.955-.931h30.824a1,1,0,0,1,.975.765.886.886,0,0,1-.865,1.059" transform="translate(-87.452 -171.434)" fill="#19538d"/>
          <path id="Trazado_1283820" data-name="Trazado 1283820" d="M246,245.487l-3.976.01a2.779,2.779,0,0,1-2.831-2.766l.017-4.121a2.7,2.7,0,0,1,2.813-2.641l3.858,0a2.685,2.685,0,0,1,2.831,2.62l0,4.333A2.683,2.683,0,0,1,246,245.487m-.1-1.818a1.052,1.052,0,0,0,1.028-.931l0-4.017a1.056,1.056,0,0,0-1.023-.942l-3.883,0a1.01,1.01,0,0,0-.993.971l0,3.98a.971.971,0,0,0,.987.934Z" transform="translate(-195.665 -193.025)" fill="#19538d"/>
          <path id="Trazado_1283821" data-name="Trazado 1283821" d="M112.7,245.5l-4.139.008a2.7,2.7,0,0,1-2.721-2.73l0-4.025A2.691,2.691,0,0,1,108.566,236l4.022-.007a2.75,2.75,0,0,1,2.8,2.767l-.031,4.2A2.67,2.67,0,0,1,112.7,245.5m.014-1.822a.944.944,0,0,0,.826-.877l0-4.075a.979.979,0,0,0-.932-.932l-4.068.013a1.057,1.057,0,0,0-.9.929l.015,4.046a1.061,1.061,0,0,0,1.056.912Z" transform="translate(-86.58 -193.047)" fill="#19538d"/>
          <path id="Trazado_1283822" data-name="Trazado 1283822" d="M179.378,245.5l-4.139.023a2.692,2.692,0,0,1-2.743-2.566l-.032-4.208a2.73,2.73,0,0,1,2.6-2.735l4.227-.017A2.678,2.678,0,0,1,182,238.575l.015,4.221a2.671,2.671,0,0,1-2.633,2.708m.031-1.814c.359,0,.779-.566.777-.883l-.019-4.227c0-.347-.521-.766-.856-.767l-4.079-.008a.957.957,0,0,0-.914.934l0,4.074a.953.953,0,0,0,.918.883Z" transform="translate(-141.08 -193.056)" fill="#19538d"/>
          <path id="Trazado_1283823" data-name="Trazado 1283823" d="M187.965,30.687l-20.176.009c-.637,0-1.029-.209-1.126-.787a.909.909,0,0,1,.941-1.035l20.007,0a1.072,1.072,0,0,1,.974.7,1.044,1.044,0,0,1-.619,1.119" transform="translate(-136.325 -23.617)" fill="#19538d"/>
          <path id="Trazado_1283824" data-name="Trazado 1283824" d="M35.365,23.749A2.245,2.245,0,1,1,33.119,21.5a2.245,2.245,0,0,1,2.245,2.245" transform="translate(-25.256 -17.591)" fill="#19538d"/>
          <path id="Trazado_1283825" data-name="Trazado 1283825" d="M104.49,23.731a2.245,2.245,0,1,1-2.245-2.245,2.245,2.245,0,0,1,2.245,2.245" transform="translate(-81.803 -17.576)" fill="#19538d"/>
          <path id="Trazado_1283826" data-name="Trazado 1283826" d="M70,23.8a2.238,2.238,0,1,1-2.238-2.238A2.238,2.238,0,0,1,70,23.8" transform="translate(-53.597 -17.634)" fill="#19538d"/>
        </g>
      </g>
    </g>
  </g>
</svg>
