<svg xmlns="http://www.w3.org/2000/svg" xmlns:xlink="http://www.w3.org/1999/xlink" width="96" height="96" viewBox="0 0 96 96">
  <defs>
    <clipPath id="clip-path">
      <rect id="Rectángulo_465035" data-name="Rectángulo 465035" width="50.633" height="52" fill="#19538d"/>
    </clipPath>
  </defs>
  <g id="Grupo_1215169" data-name="Grupo 1215169" transform="translate(0 0)">
    <circle id="Elipse_13890" data-name="Elipse 13890" cx="48" cy="48" r="48" transform="translate(0 0)" fill="#5a9ad7"/>
    <path id="Intersección_1" data-name="Intersección 1" d="M0,47.89A47.893,47.893,0,0,1,79.511,11.92L1.1,58.131A48,48,0,0,1,0,47.89Z" transform="translate(0.109 0.108)" fill="#19538d"/>
    <path id="Trazado_1032916" data-name="Trazado 1032916" d="M40,0A40,40,0,1,1,0,40,40,40,0,0,1,40,0Z" transform="translate(8 8)" fill="#e6f3ff"/>
    <g id="Grupo_1188343" data-name="Grupo 1188343" transform="translate(22.036 22.001)">
      <rect id="Rectángulo_459838" data-name="Rectángulo 459838" width="52" height="52" transform="translate(-0.036 -0.001)" fill="none"/>
      <g id="Grupo_1215177" data-name="Grupo 1215177" transform="translate(-0.036 -0.001)">
        <g id="Grupo_1215176" data-name="Grupo 1215176" clip-path="url(#clip-path)">
          <path id="Trazado_1283867" data-name="Trazado 1283867" d="M20.473,200.949a4.22,4.22,0,0,0,3.477-5.12l-1.926-11.813a4.15,4.15,0,0,0-4.891-3.5L5.185,182.442a4.089,4.089,0,0,0-3.627,4.482l.672,4.444a.83.83,0,0,1-.651.83.789.789,0,0,1-.867-.745l-.63-3.817a5.656,5.656,0,0,1,4.545-6.628l12.567-2.023a5.484,5.484,0,0,1,6.222,4.336l2.071,12.465a5.594,5.594,0,0,1-4.361,6.565L8.681,204.405a5.789,5.789,0,0,1-6.72-5.074l-.663-4.2a.8.8,0,0,1,.63-.929.8.8,0,0,1,.889.724L3.54,199.4a4.164,4.164,0,0,0,4.8,3.517Z" transform="translate(0 -152.49)" fill="#19538d"/>
          <path id="Trazado_1283868" data-name="Trazado 1283868" d="M72.848,16.66a4.033,4.033,0,0,0,2.9,4.95l12.137,3.484a4.046,4.046,0,0,0,4.882-2.908L96.209,10.28a4.042,4.042,0,0,0-2.644-5.026l-12-3.514a4.153,4.153,0,0,0-5.244,2.832L75.19,8.455a.889.889,0,0,1-.966.47.859.859,0,0,1-.487-.888l1.047-3.7A5.644,5.644,0,0,1,81.668.213L94.113,3.84a5.491,5.491,0,0,1,3.59,6.748L94.141,22.827A5.618,5.618,0,0,1,87.107,26.5L75.3,23.075a5.591,5.591,0,0,1-3.944-6.806l1.34-4.71a.8.8,0,0,1,1.047-.613.859.859,0,0,1,.433,1.038Z" transform="translate(-60.645 0)" fill="#19538d"/>
          <path id="Trazado_1283869" data-name="Trazado 1283869" d="M187.426,204.48l12.538.021a4.071,4.071,0,0,0,4.149-3.943V187.735a4.066,4.066,0,0,0-4.153-3.931H187.626a4.142,4.142,0,0,0-4.186,4.207l.007,4.018a.87.87,0,0,1-.692.818c-.273.047-.841-.343-.842-.669L181.9,188a5.637,5.637,0,0,1,5.536-5.715l12.836.018a5.572,5.572,0,0,1,5.392,5.7V200.29a5.571,5.571,0,0,1-5.386,5.691l-13.132-.013a5.518,5.518,0,0,1-5.234-5.511l0-4.929c0-.333.57-.714.843-.67a.856.856,0,0,1,.688.821l.029,4.91a4,4,0,0,0,3.953,3.893" transform="translate(-155.034 -155.359)" fill="#19538d"/>
          <path id="Trazado_1283870" data-name="Trazado 1283870" d="M62.711,241.378c-1.119.182-1.205-2.106-.943-2.772.643-1.632,2.406-2.571,3.365-4.3a1.436,1.436,0,0,0-.7-2.029,1.314,1.314,0,0,0-1.831,1.069,1.2,1.2,0,0,1-.4,1.027c-.244.166-.922.162-1.077-.12a2.17,2.17,0,0,1,.325-2.486,3.3,3.3,0,0,1,4.66-.344,3.018,3.018,0,0,1,.209,4.058c-1.49,2-3.367,2.966-2.862,4.23l4.007-.63c.23-.036.6.39.651.6.058.24-.118.839-.366.88Z" transform="translate(-51.873 -196.549)" fill="#19538d"/>
          <path id="Trazado_1283871" data-name="Trazado 1283871" d="M242.226,235.686a1.968,1.968,0,0,0,2.538.026,2.224,2.224,0,0,0,.139-2.364c-.391-.759-1.842-.194-1.938-1.088a.7.7,0,0,1,.744-.856,1.211,1.211,0,0,0,1.193-1.462,2.245,2.245,0,0,0-.281-.945,1.788,1.788,0,0,0-1-.371c-.934-.046-1.351.468-1.449,1.314-.063.546-1.28.673-1.474.125a2.2,2.2,0,0,1,1.588-2.732,6.063,6.063,0,0,1,2.5-.078,2.3,2.3,0,0,1,1.747,2.263,3.01,3.01,0,0,1-.984,2.548,2.486,2.486,0,0,1,1.307,2.464,2.967,2.967,0,0,1-3.133,3.136,3.384,3.384,0,0,1-2.872-1.128,1.857,1.857,0,0,1-.375-1.931c.162-.313,1.014-.269,1.337-.095Z" transform="translate(-204.83 -193.61)" fill="#19538d"/>
          <path id="Trazado_1283872" data-name="Trazado 1283872" d="M151.348,67.5l2.12-7.363c-.4.228-.774.329-1.013.152-.2-.148-.265-.863-.021-1.013,1.1-.677,2.442-1.578,2.978-1.08a.941.941,0,0,1,.2.717l-2.637,9.018a1.109,1.109,0,0,1-1.623-.43" transform="translate(-128.993 -49.474)" fill="#19538d"/>
        </g>
      </g>
    </g>
  </g>
</svg>
