<svg xmlns="http://www.w3.org/2000/svg" xmlns:xlink="http://www.w3.org/1999/xlink" width="96" height="96" viewBox="0 0 96 96">
  <defs>
    <clipPath id="clip-path">
      <rect id="Rectángulo_465051" data-name="Rectángulo 465051" width="43.951" height="43.956" fill="#19538d"/>
    </clipPath>
  </defs>
  <g id="Grupo_1215171" data-name="Grupo 1215171" transform="translate(0 0)">
    <circle id="Elipse_13890" data-name="Elipse 13890" cx="48" cy="48" r="48" transform="translate(0 0)" fill="#5a9ad7"/>
    <path id="Intersección_1" data-name="Intersección 1" d="M0,47.89A47.893,47.893,0,0,1,79.511,11.92L1.1,58.131A48,48,0,0,1,0,47.89Z" transform="translate(0.109 0.108)" fill="#19538d"/>
    <path id="Trazado_1032916" data-name="Trazado 1032916" d="M40,0A40,40,0,1,1,0,40,40,40,0,0,1,40,0Z" transform="translate(8 8)" fill="#e6f3ff"/>
    <g id="Grupo_1188343" data-name="Grupo 1188343" transform="translate(22.001 22)">
      <rect id="Rectángulo_459838" data-name="Rectángulo 459838" width="52" height="52" transform="translate(-0.036 -0.001)" fill="none"/>
      <g id="Grupo_1215180" data-name="Grupo 1215180" transform="translate(-20.018 0)">
        <g id="Grupo_1215179" data-name="Grupo 1215179" transform="translate(24 5)" clip-path="url(#clip-path)">
          <path id="Trazado_1283876" data-name="Trazado 1283876" d="M91.641,88.529l3.471.041c.385,0,.655.509.661.816.007.328-.312.864-.739.866l-4.726.022.008,3.065H105.75l.006-3.068-3.743-.01a.859.859,0,1,1,.072-1.714l2.9.008,1.112-3.607a16.932,16.932,0,0,0,.76-5l.014-7.611a1.163,1.163,0,0,0-1.2-1.183,1.211,1.211,0,0,0-1.186,1.3l-.014,2.505a.862.862,0,0,1-1.719-.13l-.007-3.992a1.191,1.191,0,1,0-2.382,0l-.006,4.007a.934.934,0,0,1-.824.884.889.889,0,0,1-.9-.79l-.012-5.351a1.209,1.209,0,0,0-1.2-1.265,1.193,1.193,0,0,0-1.19,1.264v5.245a.933.933,0,0,1-.811.894.9.9,0,0,1-.933-.909l0-13.458a1.192,1.192,0,1,0-2.383-.011l-.009,4.368a.864.864,0,0,1-1.727,0l.016-4.488A2.9,2.9,0,0,1,93.291,58.4a2.936,2.936,0,0,1,2.923,2.94l.015,5.526a2.873,2.873,0,0,1,3.839,1.423,2.968,2.968,0,0,1,4.224,1.488,2.833,2.833,0,0,1,2.915.089,2.911,2.911,0,0,1,1.389,2.347l0,7.609a20.364,20.364,0,0,1-.976,6.036l-.814,2.658a1.1,1.1,0,0,1,.689.916l-.006,4.76a.891.891,0,0,1-.912.87H89.5a.9.9,0,0,1-.9-.991l.013-4.752a.846.846,0,0,1,.908-.781l-2.149-2.976A11.606,11.606,0,0,1,85.5,81.439l-1.565-6.52a3.024,3.024,0,0,1,5.288-2.579,14.948,14.948,0,0,1,1.106,1.9l.041-1.777a.893.893,0,0,1,.817-.831.865.865,0,0,1,.9.856l.008,5.225a.977.977,0,0,1-.6.821.921.921,0,0,1-1.03-.423l-2.409-4.451a1.286,1.286,0,0,0-1.573-.637,1.312,1.312,0,0,0-.867,1.565l1.556,6.442a9.972,9.972,0,0,0,1.593,3.52Z" transform="translate(-73.376 -51.11)" fill="#19538d"/>
          <path id="Trazado_1283877" data-name="Trazado 1283877" d="M15.445,7.723A7.723,7.723,0,1,1,7.722,0a7.723,7.723,0,0,1,7.723,7.723m-1.723,0a6,6,0,1,0-6,6,6,6,0,0,0,6-6" transform="translate(0.001)" fill="#19538d"/>
          <path id="Trazado_1283878" data-name="Trazado 1283878" d="M243.683,7.723A7.723,7.723,0,1,1,235.96,0a7.723,7.723,0,0,1,7.723,7.723m-1.72,0a6,6,0,1,0-6,6,6,6,0,0,0,6-6" transform="translate(-199.732)" fill="#19538d"/>
          <path id="Trazado_1283879" data-name="Trazado 1283879" d="M137.8,137.824a.849.849,0,1,1-.849-.848.849.849,0,0,1,.849.848" transform="translate(-119.102 -119.869)" fill="#19538d"/>
          <path id="Trazado_1283880" data-name="Trazado 1283880" d="M194.24,300.617a.849.849,0,1,1-.849-.849.849.849,0,0,1,.849.849" transform="translate(-168.495 -262.33)" fill="#19538d"/>
          <path id="Trazado_1283881" data-name="Trazado 1283881" d="M43.048,41.877a.847.847,0,0,1-1.227,1.16l-1.663-1.66L38.5,43.029a.862.862,0,0,1-1.214-1.222l1.639-1.663-1.614-1.612a.846.846,0,0,1-.037-1.167.835.835,0,0,1,1.239-.027l1.612,1.609,1.591-1.581a.884.884,0,0,1,1.314,0,.905.905,0,0,1-.149,1.289l-1.526,1.513Z" transform="translate(-32.427 -32.445)" fill="#19538d"/>
          <path id="Trazado_1283882" data-name="Trazado 1283882" d="M258.658,42.856,256.307,40.5a.865.865,0,0,1,.035-1.1c.191-.213.821-.4,1.083-.149l1.806,1.757L263.253,37a.853.853,0,0,1,1.193,1.2l-4.617,4.625a.839.839,0,0,1-1.17.04" transform="translate(-224.139 -32.231)" fill="#19538d"/>
        </g>
      </g>
    </g>
  </g>
</svg>
