<svg xmlns="http://www.w3.org/2000/svg" xmlns:xlink="http://www.w3.org/1999/xlink" width="84" height="84" viewBox="0 0 84 84">
  <defs>
    <clipPath id="clip-path">
      <rect id="Rectángulo_464817" data-name="Rectángulo 464817" width="53.826" height="59.602" fill="none" stroke="#344866" stroke-width="3"/>
    </clipPath>
  </defs>
  <g id="Grupo_1214984" data-name="Grupo 1214984" transform="translate(-1018 -6423.064)">
    <g id="Grupo_1213724" data-name="Grupo 1213724" transform="translate(1018.578 6423.611)">
      <g id="Grupo_1119665" data-name="Grupo 1119665" transform="translate(-0.578 -0.547)">
        <rect id="Rectángulo_402006" data-name="Rectángulo 402006" width="84" height="84" rx="5" fill="#ffe79e"/>
      </g>
      <g id="Grupo_1214910" data-name="Grupo 1214910" transform="translate(14.509 11.652)">
        <g id="Grupo_1214909" data-name="Grupo 1214909" clip-path="url(#clip-path)">
          <g id="Trazado_1283261" data-name="Trazado 1283261" transform="translate(0 -0.001)" fill="none">
            <path d="M22.2,50.73a2.576,2.576,0,0,1,2.364,2.353l-.028,4.072a2.5,2.5,0,0,1-2.43,2.447L4.272,59.591A4.348,4.348,0,0,1,0,55.1V4.518A4.4,4.4,0,0,1,4.5,0L21.885,0A2.539,2.539,0,0,1,24.536,2.48l.03,4.033A2.674,2.674,0,0,1,21.88,8.935l-12.97,0v41.78Z" stroke="none"/>
            <path d="M 21.54022598266602 56.60245132446289 L 21.5600528717041 53.72936248779297 L 5.909830570220947 53.70728302001953 L 5.909830570220947 5.931393146514893 L 21.56159591674805 5.934627056121826 L 21.54001617431641 3.001075029373169 L 4.496508121490479 3.004570722579956 C 3.587419271469116 3.004804134368896 2.999997138977051 3.599004030227661 2.999997138977051 4.518348693847656 L 3.000441551208496 55.10173797607422 C 3.000441551208496 55.82324981689453 3.446696996688843 56.59040451049805 4.273541450500488 56.59100341796875 L 21.54022598266602 56.60245132446289 M 22.10789680480957 59.60282516479492 C 22.10732460021973 59.60282516479492 22.10693550109863 59.60282516479492 22.10636329650879 59.60282516479492 L 4.271552562713623 59.59100341796875 C 1.809085965156555 59.58922576904297 0.000441530515672639 57.53475952148438 0.000441530515672639 55.10173797607422 L -2.913920070568565e-06 4.518370628356934 C -2.913920070568565e-06 1.931215167045593 1.938241481781006 0.005237374920397997 4.495730400085449 0.004570708144456148 L 21.88508605957031 0.001004041521809995 C 21.88534927368164 0.001003960147500038 21.8857536315918 0.001003911369480193 21.88601684570312 0.001003911369480193 C 23.32356834411621 0.001003911369480193 24.52555465698242 1.029169678688049 24.53626441955566 2.479526281356812 L 24.56593132019043 6.512382030487061 C 24.41269302368164 7.888336181640625 23.31203079223633 8.934693336486816 21.88063049316406 8.934693336486816 C 21.88045692443848 8.934693336486816 21.88035011291504 8.934693336486816 21.88017463684082 8.934693336486816 L 8.909830093383789 8.932015419006348 L 8.909830093383789 50.71151351928711 L 22.20095252990723 50.73025894165039 C 23.55118560791016 50.73225784301758 24.43387413024902 51.99149322509766 24.5645866394043 53.08340454101562 L 24.53648567199707 57.15553665161133 C 24.52756690979004 58.42380523681641 23.44708061218262 59.60282516479492 22.10789680480957 59.60282516479492 Z" stroke="none" fill="#344866"/>
          </g>
          <path id="Trazado_1283262" data-name="Trazado 1283262" d="M85.35,88.456l2.8-2.909-18.986-.026a4.307,4.307,0,0,1,0-8.612l18.983-.026-2.844-2.964a4.269,4.269,0,0,1,.2-5.835,4.339,4.339,0,0,1,6.107-.022l10.026,10.005a4.413,4.413,0,0,1-.006,6.291l-9.91,9.908a4.344,4.344,0,0,1-6.111.178,4.274,4.274,0,0,1-.262-5.988" transform="translate(-52.662 -51.911)" fill="none" stroke="#344866" stroke-linecap="round" stroke-width="3"/>
        </g>
      </g>
    </g>
  </g>
</svg>
