<svg xmlns="http://www.w3.org/2000/svg" xmlns:xlink="http://www.w3.org/1999/xlink" width="96" height="96" viewBox="0 0 96 96">
  <defs>
    <clipPath id="clip-path">
      <rect id="Rectángulo_465057" data-name="Rectángulo 465057" width="52" height="45.785" fill="#19538d"/>
    </clipPath>
  </defs>
  <g id="Grupo_1215173" data-name="Grupo 1215173" transform="translate(0 0)">
    <circle id="Elipse_13890" data-name="Elipse 13890" cx="48" cy="48" r="48" transform="translate(0 0)" fill="#5a9ad7"/>
    <path id="Intersección_1" data-name="Intersección 1" d="M0,47.89A47.893,47.893,0,0,1,79.511,11.92L1.1,58.131A48,48,0,0,1,0,47.89Z" transform="translate(0.109 0.108)" fill="#19538d"/>
    <path id="Trazado_1032916" data-name="Trazado 1032916" d="M40,0A40,40,0,1,1,0,40,40,40,0,0,1,40,0Z" transform="translate(8 8)" fill="#e6f3ff"/>
    <g id="Grupo_1188343" data-name="Grupo 1188343" transform="translate(22.001 22)">
      <rect id="Rectángulo_459838" data-name="Rectángulo 459838" width="52" height="52" transform="translate(-0.001 -0.001)" fill="none"/>
      <g id="Grupo_1215184" data-name="Grupo 1215184" transform="translate(-0.001 3)">
        <g id="Grupo_1215183" data-name="Grupo 1215183" clip-path="url(#clip-path)">
          <path id="Trazado_1283888" data-name="Trazado 1283888" d="M49.629,1.538H2.491a.914.914,0,0,0-.925.834L1.555,6.479l4.568,0c.374,0,.666.5.631.825a.817.817,0,0,1-.783.7H1.559l0,24.173a.829.829,0,0,1-.718.842.778.778,0,0,1-.8-.848V2.517A2.385,2.385,0,0,1,2.291,0L49.783,0a2.366,2.366,0,0,1,2.24,2.348L52.036,12.7a.762.762,0,1,1-1.516.158L50.511,8H9.528a.832.832,0,0,1-.742-.829.808.808,0,0,1,.883-.7l40.842,0,0-3.97a.914.914,0,0,0-.886-.972" transform="translate(-0.036)" fill="#19538d"/>
          <path id="Trazado_1283889" data-name="Trazado 1283889" d="M195.188,135.585c-.589,0-.912-.3-.945-.681a.767.767,0,0,1,.865-.87l19.755.008c.558,0,1.164-.187,1.164-.87l0-26.966a.815.815,0,0,1,.717-.843.779.779,0,0,1,.8.843l-.006,26.992a2.371,2.371,0,0,1-2.37,2.376Z" transform="translate(-165.551 -89.8)" fill="#19538d"/>
          <path id="Trazado_1283890" data-name="Trazado 1283890" d="M180.38,78.709a1.292,1.292,0,0,1-1.226-1.314l.006-5.911a1.286,1.286,0,0,1,1.183-1.268L186.8,70.2a.826.826,0,0,1,1.225-.163c.66.775-.362,1.1-.363,2.008l0,5.629a1.293,1.293,0,0,1-1.117,1.034Zm3.156-2.594L181.9,74.609c-.185-.17-.045-.768.139-.927a1.039,1.039,0,0,1,.886-.1l.906.711,1.845-2.537-4.96-.01.005,5.452,5.436-.018-.043-3.4L184.552,75.9c-.167.228-.77.438-1.016.212" transform="translate(-152.694 -59.523)" fill="#19538d"/>
          <path id="Trazado_1283891" data-name="Trazado 1283891" d="M180.668,229.455a1.367,1.367,0,0,1-1.52-1.359l.009-5.887a1.263,1.263,0,0,1,1.3-1.26l6.387-.057c.282,0,.632-.742,1.123-.183a.885.885,0,0,1,.1,1.088l-.415.673.011,6.038a1.5,1.5,0,0,1-1.129.927Zm2.612-2.793-1.382-1.325c-.2-.187-.041-.784.149-.93a1.024,1.024,0,0,1,.949-.045l.824.668,1.854-2.563-4.967-.012.005,5.454,5.422,0-.045-3.329-1.541,2.016a.813.813,0,0,1-1.269.063" transform="translate(-152.689 -187.933)" fill="#19538d"/>
          <path id="Trazado_1283892" data-name="Trazado 1283892" d="M25.751,246.458a.785.785,0,0,1,.877.73.749.749,0,0,1-.795.816L2.381,248a2.374,2.374,0,0,1-2.365-2.355L0,238.094a.83.83,0,0,1,.7-.828.794.794,0,0,1,.825.831l0,7.388a.922.922,0,0,0,.919.974Z" transform="translate(0 -202.221)" fill="#19538d"/>
          <path id="Trazado_1283893" data-name="Trazado 1283893" d="M25.045,154.113a1.3,1.3,0,0,1-1.338-1.264l-.006-5.914a1.278,1.278,0,0,1,1.238-1.332l6.421-.035c.253-.18.707-.463.954-.332.336.178.587.733.4,1.015l-.5.757,0,5.7a1.3,1.3,0,0,1-1.292,1.405Zm2.907-2.676-1.244-1.13a.938.938,0,0,1-.21-1.112.846.846,0,0,1,.954-.231l.954.707,1.8-2.558H25.237l.006,5.477,5.462,0-.016-3.469-1.652,2.24a.808.808,0,0,1-1.086.082" transform="translate(-20.2 -123.757)" fill="#19538d"/>
          <path id="Trazado_1283894" data-name="Trazado 1283894" d="M24.85,78.694A1.27,1.27,0,0,1,23.7,77.389l0-5.934a1.306,1.306,0,0,1,1.126-1.247l6.44-.016a.935.935,0,0,1,1.395-.1,1.143,1.143,0,0,1-.429,1.373l-.04,6.054A1.187,1.187,0,0,1,31,78.7Zm2.92-2.845-1.1-.971a.832.832,0,0,1-.049-1.216.9.9,0,0,1,1.146.114l.582.532,1.85-2.566-4.972-.007.014,5.435,5.465.014-.034-3.441-1.487,2.01a1.444,1.444,0,0,1-.653.449,1.4,1.4,0,0,1-.766-.354" transform="translate(-20.201 -59.51)" fill="#19538d"/>
          <path id="Trazado_1283895" data-name="Trazado 1283895" d="M186.51,156.332l-6.144-.011a1.275,1.275,0,0,1-1.214-1.264l-.01-5.908a1.333,1.333,0,0,1,1.311-1.336l5.781-.01c.593,0,1.4.381,1.406,1.083l.02,6.166a1.267,1.267,0,0,1-1.148,1.281m-.379-7.009H180.7v5.484h5.429Z" transform="translate(-152.684 -125.972)" fill="#19538d"/>
          <path id="Trazado_1283896" data-name="Trazado 1283896" d="M31.089,232l-6.144.006a1.255,1.255,0,0,1-1.216-1.2l0-6.05a1.291,1.291,0,0,1,1.366-1.254l5.927.005a1.243,1.243,0,0,1,1.217,1.235l-.006,6.07A1.221,1.221,0,0,1,31.089,232m-.368-6.984H25.256v5.48h5.465Z" transform="translate(-20.221 -190.496)" fill="#19538d"/>
          <path id="Trazado_1283897" data-name="Trazado 1283897" d="M263.832,109.671h-9.4a.908.908,0,0,1-.68-.756.83.83,0,0,1,.782-.793l9.433,0a.839.839,0,0,1,.717.774.791.791,0,0,1-.852.77" transform="translate(-216.275 -92.153)" fill="#19538d"/>
          <path id="Trazado_1283898" data-name="Trazado 1283898" d="M263.823,185.337l-9.6-.015c-.219,0-.472-.465-.5-.667-.027-.231.213-.8.5-.8l9.6-.018a.825.825,0,0,1,.824.7.779.779,0,0,1-.825.805" transform="translate(-216.25 -156.682)" fill="#19538d"/>
          <path id="Trazado_1283899" data-name="Trazado 1283899" d="M263.918,236.429l-9.244.006a.907.907,0,0,1-.907-.552c-.079-.26.135-.955.478-.956l9.75-.014a.831.831,0,0,1,.681.692.813.813,0,0,1-.758.824" transform="translate(-216.272 -200.218)" fill="#19538d"/>
          <path id="Trazado_1283900" data-name="Trazado 1283900" d="M107.428,260.838l-8.712.006c-.286,0-.624-.532-.622-.78s.323-.747.619-.748l8.518-.009a.978.978,0,0,1,.8.616c.077.248-.242.915-.6.915" transform="translate(-83.606 -221.009)" fill="#19538d"/>
          <path id="Trazado_1283901" data-name="Trazado 1283901" d="M107.549,160.739l-8.666.017a.82.82,0,0,1-.741-.768.86.86,0,0,1,.742-.773l8.509.007c.274,0,.6.413.684.631s-.245.886-.528.887" transform="translate(-83.647 -135.699)" fill="#19538d"/>
          <path id="Trazado_1283902" data-name="Trazado 1283902" d="M107.447,85.346l-8.658.009a.956.956,0,0,1-.72-.7.859.859,0,0,1,.721-.818h8.593c.3,0,.608.443.636.678s-.23.827-.573.827" transform="translate(-83.583 -71.458)" fill="#19538d"/>
          <path id="Trazado_1283903" data-name="Trazado 1283903" d="M261.487,260.847l-7.127-.016c-.31,0-.654-.516-.651-.775,0-.281.337-.747.677-.747l6.907-.01a.841.841,0,0,1,.851.647.88.88,0,0,1-.657.9" transform="translate(-216.237 -221.002)" fill="#19538d"/>
          <path id="Trazado_1283904" data-name="Trazado 1283904" d="M261.415,85.262l-6.741.022a.88.88,0,0,1-.895-.55c-.087-.26.124-.953.471-.955l6.96-.03a.946.946,0,0,1,.8.6c.09.26-.181.915-.6.916" transform="translate(-216.28 -71.38)" fill="#19538d"/>
          <path id="Trazado_1283905" data-name="Trazado 1283905" d="M260.025,160.756l-5.48.016a.82.82,0,0,1-.794-.77.83.83,0,0,1,.795-.772h5.3a1,1,0,0,1,.78.635c.063.258-.241.889-.6.89" transform="translate(-216.273 -135.713)" fill="#19538d"/>
          <path id="Trazado_1283906" data-name="Trazado 1283906" d="M104.111,109.633l-5.283,0a.77.77,0,0,1,0-1.54l5.3-.014a1.14,1.14,0,0,1,.651.8.931.931,0,0,1-.674.757" transform="translate(-83.603 -92.118)" fill="#19538d"/>
          <path id="Trazado_1283907" data-name="Trazado 1283907" d="M104.339,185.356l-5.565,0a.975.975,0,0,1-.71-.681.847.847,0,0,1,.728-.816l5.462.016c.208,0,.525.483.507.689a1.634,1.634,0,0,1-.422.789" transform="translate(-83.578 -156.707)" fill="#19538d"/>
          <path id="Trazado_1283908" data-name="Trazado 1283908" d="M103.383,236.453l-4.616-.012a.964.964,0,0,1-.715-.7.857.857,0,0,1,.715-.807l4.763,0a.776.776,0,0,1,.74.82.789.789,0,0,1-.887.7" transform="translate(-83.57 -200.234)" fill="#19538d"/>
          <path id="Trazado_1283909" data-name="Trazado 1283909" d="M25.277,22.628a.769.769,0,1,1-.769-.769.769.769,0,0,1,.769.769" transform="translate(-20.232 -18.631)" fill="#19538d"/>
          <path id="Trazado_1283910" data-name="Trazado 1283910" d="M48.765,22.654A.763.763,0,1,1,48,21.891a.763.763,0,0,1,.763.763" transform="translate(-40.262 -18.658)" fill="#19538d"/>
          <path id="Trazado_1283911" data-name="Trazado 1283911" d="M72.226,22.654a.761.761,0,1,1-.761-.761.761.761,0,0,1,.761.761" transform="translate(-60.262 -18.66)" fill="#19538d"/>
        </g>
      </g>
    </g>
  </g>
</svg>
