<svg xmlns="http://www.w3.org/2000/svg" xmlns:xlink="http://www.w3.org/1999/xlink" width="150" height="150" viewBox="0 0 150 150">
  <defs>
    <clipPath id="clip-path">
      <rect id="Rectángulo_464257" data-name="Rectángulo 464257" width="75.933" height="65.009" fill="#12263f"/>
    </clipPath>
  </defs>
  <g id="Grupo_1188431" data-name="Grupo 1188431" transform="translate(-185.738 -9253.601)">
    <g id="Grupo_1188415" data-name="Grupo 1188415" transform="translate(185.738 9253.602)">
      <circle id="Elipse_13890" data-name="Elipse 13890" cx="75" cy="75" r="75" transform="translate(150 150) rotate(180)" fill="#7dbfff"/>
      <path id="Intersección_3" data-name="Intersección 3" d="M0,70.769,123.344,0a74.749,74.749,0,0,1-73.06,90.233A74.419,74.419,0,0,1,0,70.769Z" transform="translate(24.681 59.414)" fill="#19538d"/>
      <circle id="Elipse_13891" data-name="Elipse 13891" cx="62.637" cy="62.637" r="62.637" transform="translate(137.638 137.609) rotate(180)" fill="#dfefff"/>
      <path id="Intersección_2" data-name="Intersección 2" d="M0,62.677a62.641,62.641,0,0,1,124.648-8.925L24.091,112.08A62.59,62.59,0,0,1,0,62.677Z" transform="translate(12.364 12.333)" fill="#fff"/>
      <g id="Grupo_1188343" data-name="Grupo 1188343" transform="translate(35.959 35.932)">
        <rect id="Rectángulo_459838" data-name="Rectángulo 459838" width="78.078" height="78.078" transform="translate(4.041 0.068)" fill="none"/>
        <g id="Grupo_1215104" data-name="Grupo 1215104" transform="translate(5.041 12.068)">
          <g id="Grupo_1214222" data-name="Grupo 1214222" clip-path="url(#clip-path)">
            <path id="Trazado_1282056" data-name="Trazado 1282056" d="M42.16,10.7l17.5.014L59.64,6.37c0-1.39-1.4-3.676-3.2-3.677H6c-1.834,0-3.31,2.082-3.31,3.746L2.71,49.232a3.93,3.93,0,0,0,3.507,3.517l34.572.027a1.6,1.6,0,0,1,1.521.877c.216.456-.065,1.823-.8,1.823l-34.782.011A6.617,6.617,0,0,1,0,48.979L.033,5.93c0-2.785,2.8-5.923,5.694-5.924L56.469,0c3.286,0,5.886,3.4,5.891,6.43L62.4,29.566a1.46,1.46,0,0,1-1.127,1.473c-.492.116-1.573-.285-1.573-.975L59.68,13.421,42.3,13.415a5.638,5.638,0,0,1-3.84-1.639,4.156,4.156,0,0,0-2.9-1.07l-27.349.011a1.358,1.358,0,1,1-.206-2.707L35.566,8c4.164,0,4.884,2.7,6.594,2.7" transform="translate(0 0)" fill="#12263f"/>
            <path id="Trazado_1282057" data-name="Trazado 1282057" d="M51.514,70.115a1.41,1.41,0,0,1-1.574,1.277,1.545,1.545,0,0,1-1.162-1.653l.008-.99a13.961,13.961,0,0,0-8.1,3.469,2.98,2.98,0,0,1,1.23,1.832A1.478,1.478,0,0,1,40.6,75.383a3.121,3.121,0,0,1-1.877-1.267,14.742,14.742,0,0,0-3.434,8.068l1.311.08a1.679,1.679,0,0,1,1.322,1.006c.12.5-.3,1.54-.753,1.58l-1.856.165a14.576,14.576,0,0,0,3.356,8.1l1.222-1.09c.35-.312,1.341-.075,1.644.268a1.505,1.505,0,0,1,0,1.919l-1.927,1.9a1.469,1.469,0,0,1-2-.1A17.649,17.649,0,1,1,63.456,72a17.849,17.849,0,0,1-.482,23.774c-.729.745-1.611,1.026-2.418.211l-1.842-1.862a1.814,1.814,0,0,1-.067-1.694c.223-.349,1.109-.754,1.474-.543a7.918,7.918,0,0,1,1.515,1.225,14.57,14.57,0,0,0,3.387-8.091l-1.367-.058a1.548,1.548,0,0,1-1.3-1.21,1.526,1.526,0,0,1,1.007-1.415l1.657-.193A14.718,14.718,0,0,0,61.6,74.11a2.729,2.729,0,0,1-2.053,1.268,1.429,1.429,0,0,1-1.142-1.331c.035-.614.463-1.167,1.25-1.825a14.266,14.266,0,0,0-8.091-3.462Z" transform="translate(-24.426 -49.573)" fill="#12263f"/>
            <path id="Trazado_1282058" data-name="Trazado 1282058" d="M215.034,156.211a14.925,14.925,0,1,1-14.925-14.925,14.925,14.925,0,0,1,14.925,14.925m-2.718,0a12.206,12.206,0,1,0-12.206,12.206,12.206,12.206,0,0,0,12.206-12.206" transform="translate(-139.101 -106.127)" fill="#12263f"/>
            <path id="Trazado_1282059" data-name="Trazado 1282059" d="M93.943,106.968a4.006,4.006,0,0,1,.793,5.051,3.964,3.964,0,0,1-4.987,1.784,4.046,4.046,0,0,1-2.475-4.537,3.859,3.859,0,0,1,4.147-3.3l1.672-3.992a1.528,1.528,0,0,1,1.562-.832,1.466,1.466,0,0,1,.956,1.838Zm-1.353,3.02a1.347,1.347,0,1,0-1.347,1.347,1.347,1.347,0,0,0,1.347-1.347" transform="translate(-65.509 -75.951)" fill="#12263f"/>
            <path id="Trazado_1282060" data-name="Trazado 1282060" d="M171.593,22.616a1.355,1.355,0,1,1-1.355-1.355,1.355,1.355,0,0,1,1.355,1.355" transform="translate(-126.857 -15.97)" fill="#12263f"/>
            <path id="Trazado_1282061" data-name="Trazado 1282061" d="M193.366,22.657a1.354,1.354,0,1,1-1.354-1.354,1.354,1.354,0,0,1,1.354,1.354" transform="translate(-143.214 -16.002)" fill="#12263f"/>
            <path id="Trazado_1282062" data-name="Trazado 1282062" d="M215.177,22.674a1.352,1.352,0,1,1-1.352-1.352,1.353,1.353,0,0,1,1.352,1.352" transform="translate(-159.599 -16.016)" fill="#12263f"/>
            <path id="Trazado_1282063" data-name="Trazado 1282063" d="M226.567,192.794l-3.006-3.027a1.5,1.5,0,0,1,.215-1.751,1.594,1.594,0,0,1,1.843-.043l1.858,1.8,4.7-4.677c.307-.306,1.277-.1,1.582.158.343.287.644,1.352.3,1.7l-5.754,5.785a1.484,1.484,0,0,1-1.735.052" transform="translate(-167.778 -138.923)" fill="#12263f"/>
          </g>
        </g>
      </g>
    </g>
  </g>
</svg>
