<svg xmlns="http://www.w3.org/2000/svg" xmlns:xlink="http://www.w3.org/1999/xlink" width="96" height="96" viewBox="0 0 96 96">
  <defs>
    <clipPath id="clip-path">
      <rect id="Rectángulo_465004" data-name="Rectángulo 465004" width="46.8" height="46.79" fill="#19538d"/>
    </clipPath>
  </defs>
  <g id="Grupo_1215088" data-name="Grupo 1215088" transform="translate(0 0)">
    <circle id="Elipse_13890" data-name="Elipse 13890" cx="48" cy="48" r="48" transform="translate(0 0)" fill="#5a9ad7"/>
    <path id="Intersección_1" data-name="Intersección 1" d="M0,47.89A47.893,47.893,0,0,1,79.511,11.92L1.1,58.131A48,48,0,0,1,0,47.89Z" transform="translate(0.109 0.108)" fill="#19538d"/>
    <path id="Trazado_1032916" data-name="Trazado 1032916" d="M40,0A40,40,0,1,1,0,40,40,40,0,0,1,40,0Z" transform="translate(8 8)" fill="#e6f3ff"/>
    <g id="Grupo_1188343" data-name="Grupo 1188343" transform="translate(22.001 22)">
      <rect id="Rectángulo_459838" data-name="Rectángulo 459838" width="52" height="52" transform="translate(-0.001 -0.124)" fill="none"/>
      <g id="Grupo_1215092" data-name="Grupo 1215092" transform="translate(2.999 2.876)">
        <g id="Grupo_1215091" data-name="Grupo 1215091" clip-path="url(#clip-path)">
          <path id="Trazado_1283649" data-name="Trazado 1283649" d="M15.1,11.206l6.141,6.142,8.194-8.19a.732.732,0,0,1,1.167,0l12.82,12.828,1.947.027V7.394l-21.21,0,0-1.463h21.2L45.34,3.546a2.085,2.085,0,0,0-2.11-1.995L25.623,1.545V.085l17.48,0a3.663,3.663,0,0,1,3.733,3.741L46.83,43.276a3.6,3.6,0,0,1-3.465,3.586H3.512A3.6,3.6,0,0,1,.046,43.28L.041,10.338l1.465-.011V22.011l1.9.014,10.81-10.808a.687.687,0,0,1,.883-.011m-.441,1.587L5.445,22.017H41.438L30.015,10.6l-7.749,7.758,1.706,1.73-1.06.951ZM43.4,45.412a2.168,2.168,0,0,0,1.965-2.151l.006-19.782H1.506l.006,19.783a2.16,2.16,0,0,0,2.147,2.15Z" transform="translate(-0.036 -0.072)" fill="#19538d"/>
          <path id="Trazado_1283650" data-name="Trazado 1283650" d="M22.677,7.324H1.483L1.464,8.789,0,8.78.018,3.6A3.677,3.677,0,0,1,3.862,0L17.55.005a3.567,3.567,0,0,1,3.67,3.614l-.005,2.242,1.464,0ZM19.724,5.862l.023-2.282A2.04,2.04,0,0,0,17.8,1.485l-14.187,0A2.085,2.085,0,0,0,1.5,3.473L1.473,5.861Z" transform="translate(0 0)" fill="#19538d"/>
          <path id="Trazado_1283651" data-name="Trazado 1283651" d="M33.387,69.006a2.927,2.927,0,1,1-2.927-2.927,2.927,2.927,0,0,1,2.927,2.927m-1.478,0a1.45,1.45,0,1,0-1.45,1.45A1.45,1.45,0,0,0,31.909,69" transform="translate(-23.873 -57.295)" fill="#19538d"/>
          <rect id="Rectángulo_464989" data-name="Rectángulo 464989" width="9.512" height="1.462" transform="translate(34.361 8.786)" fill="#19538d"/>
          <rect id="Rectángulo_464990" data-name="Rectángulo 464990" width="7.311" height="1.462" transform="translate(19.016 8.786)" fill="#19538d"/>
          <rect id="Rectángulo_464991" data-name="Rectángulo 464991" width="1.478" height="1.462" transform="translate(22.664 0.012)" fill="#19538d"/>
          <rect id="Rectángulo_464992" data-name="Rectángulo 464992" width="1.462" height="1.462" transform="translate(36.562 2.937)" fill="#19538d"/>
          <rect id="Rectángulo_464993" data-name="Rectángulo 464993" width="1.462" height="1.462" transform="translate(39.487 2.937)" fill="#19538d"/>
          <rect id="Rectángulo_464994" data-name="Rectángulo 464994" width="1.462" height="1.462" transform="translate(42.411 2.937)" fill="#19538d"/>
          <rect id="Rectángulo_464995" data-name="Rectángulo 464995" width="1.462" height="1.462" transform="translate(16.092 8.786)" fill="#19538d"/>
          <path id="Trazado_1283652" data-name="Trazado 1283652" d="M234.677,206.11H220.055V187.094h14.622Zm-1.462-17.554h-11.7V204.64h11.7Z" transform="translate(-190.804 -162.224)" fill="#19538d"/>
          <path id="Trazado_1283653" data-name="Trazado 1283653" d="M46.913,195.875H22.055v-8.781H46.913Zm-1.462-7.318H23.517v5.849H45.45Z" transform="translate(-19.123 -162.224)" fill="#19538d"/>
          <path id="Trazado_1283654" data-name="Trazado 1283654" d="M132,272.864h-10.3a.773.773,0,0,1-.667-.788l0-7.191a.76.76,0,0,1,.8-.793h10.1a.762.762,0,0,1,.8.794v7.188a.756.756,0,0,1-.737.792m-2.317-7.295-5.539,0,2.788,2Zm-4.04,2.9-3.137-2.238,0,4.471Zm5.617,2.188.016-4.4-3.118,2.217Zm-1.532.733-2.817-2.018-2.843,2.023Z" transform="translate(-104.951 -228.985)" fill="#19538d"/>
          <path id="Trazado_1283655" data-name="Trazado 1283655" d="M33.006,272.864h-10.3a.773.773,0,0,1-.667-.788v-7.191a.76.76,0,0,1,.8-.793h10.1a.762.762,0,0,1,.8.794v7.188a.756.756,0,0,1-.737.792m-2.356-7.279-5.5-.013,2.764,2.013Zm-4,2.89-3.134-2.24,0,4.471Zm5.619,2.187.016-4.4-3.121,2.219Zm-1.529.735-2.822-2.021L25.073,271.4Z" transform="translate(-19.112 -228.985)" fill="#19538d"/>
          <rect id="Rectángulo_464996" data-name="Rectángulo 464996" width="12.437" height="1.462" transform="translate(2.932 2.937)" fill="#19538d"/>
          <rect id="Rectángulo_464997" data-name="Rectángulo 464997" width="1.478" height="1.462" transform="translate(16.815 2.937)" fill="#19538d"/>
          <rect id="Rectángulo_464998" data-name="Rectángulo 464998" width="8.773" height="1.462" transform="translate(32.176 30.719)" fill="#19538d"/>
          <rect id="Rectángulo_464999" data-name="Rectángulo 464999" width="8.773" height="1.462" transform="translate(32.176 36.568)" fill="#19538d"/>
          <rect id="Rectángulo_465000" data-name="Rectángulo 465000" width="8.773" height="1.462" transform="translate(32.176 39.492)" fill="#19538d"/>
          <rect id="Rectángulo_465001" data-name="Rectángulo 465001" width="7.311" height="1.462" transform="translate(33.638 33.643)" fill="#19538d"/>
          <rect id="Rectángulo_465002" data-name="Rectángulo 465002" width="5.849" height="1.462" transform="translate(35.1 27.794)" fill="#19538d"/>
          <rect id="Rectángulo_465003" data-name="Rectángulo 465003" width="1.462" height="1.462" transform="translate(32.176 27.794)" fill="#19538d"/>
        </g>
      </g>
    </g>
  </g>
</svg>
