<svg xmlns="http://www.w3.org/2000/svg" xmlns:xlink="http://www.w3.org/1999/xlink" width="96" height="96" viewBox="0 0 96 96">
  <defs>
    <clipPath id="clip-path">
      <rect id="Rectángulo_465006" data-name="Rectángulo 465006" width="52" height="43.357" fill="#19538d"/>
    </clipPath>
  </defs>
  <g id="Grupo_1215090" data-name="Grupo 1215090" transform="translate(0 0)">
    <circle id="Elipse_13890" data-name="Elipse 13890" cx="48" cy="48" r="48" transform="translate(0 0)" fill="#5a9ad7"/>
    <path id="Intersección_1" data-name="Intersección 1" d="M0,47.89A47.893,47.893,0,0,1,79.511,11.92L1.1,58.131A48,48,0,0,1,0,47.89Z" transform="translate(0.109 0.108)" fill="#19538d"/>
    <path id="Trazado_1032916" data-name="Trazado 1032916" d="M40,0A40,40,0,1,1,0,40,40,40,0,0,1,40,0Z" transform="translate(8 8)" fill="#e6f3ff"/>
    <g id="Grupo_1188343" data-name="Grupo 1188343" transform="translate(22.001 22)">
      <rect id="Rectángulo_459838" data-name="Rectángulo 459838" width="52" height="52" transform="translate(-0.29 -0.124)" fill="none"/>
      <g id="Grupo_1215096" data-name="Grupo 1215096" transform="translate(-0.29 3.876)">
        <g id="Grupo_1215095" data-name="Grupo 1215095" clip-path="url(#clip-path)">
          <path id="Trazado_1283662" data-name="Trazado 1283662" d="M35.939,31.525a.98.98,0,0,1,1.1,1.016A1.007,1.007,0,0,1,35.9,33.555l-4.973,0,.006,3.727a5.046,5.046,0,0,1,4.751,5.164.959.959,0,0,1-.99.909H17.3a.96.96,0,0,1-.991-.909,5.055,5.055,0,0,1,4.754-5.169V33.556l-17.955,0A3.021,3.021,0,0,1,0,30.531V3.09A3.059,3.059,0,0,1,3.273,0l45.6.005A3.029,3.029,0,0,1,52,3.087V30.528a3.062,3.062,0,0,1-3.239,3.037l-3.414-.02a.981.981,0,0,1-1.058-1.007.992.992,0,0,1,1.055-1.013h3.678c.329,0,.936-.463.932-.784l-.025-2.313H2.073A16.16,16.16,0,0,0,2.1,30.811c.069.622.79.716,1.323.716ZM49.957,2.033H2.043V26.407H49.957ZM28.873,33.552l-5.746,0v3.707l5.747,0Zm4.577,7.777a2.869,2.869,0,0,0-2.745-2.015l-9.413.007a2.855,2.855,0,0,0-2.744,2.013Z" transform="translate(0 0)" fill="#19538d"/>
          <path id="Trazado_1283663" data-name="Trazado 1283663" d="M270.417,214.393a1.011,1.011,0,1,1-1.011-1.011,1.011,1.011,0,0,1,1.011,1.011" transform="translate(-228.744 -181.859)" fill="#19538d"/>
          <path id="Trazado_1283664" data-name="Trazado 1283664" d="M135.108,40.905l-2.025,2.04a1.932,1.932,0,0,1-2.732-.128l-1.583-1.586a1.783,1.783,0,0,1-1.508.481,1.655,1.655,0,0,1-1.105-1.01l-.319-1.56a7.324,7.324,0,0,1-3.058.653l-7.526-.061a6.067,6.067,0,0,1,.145-12.118l7.817-.014a6.021,6.021,0,0,1,5.978,5.882l3.329.68a1.691,1.691,0,0,1,1.064.921,1.981,1.981,0,0,1-.211,1.567l1.632,1.666a1.946,1.946,0,0,1,.1,2.585M124.965,34.77a1.545,1.545,0,0,1,.549-1.522,2.062,2.062,0,0,1,1.588-.177,4.087,4.087,0,0,0-4.173-3.446h-7.092a4.082,4.082,0,0,0-4.23,4.007,4.04,4.04,0,0,0,3.93,4.083l7.39.024a4.882,4.882,0,0,0,2.49-.691Zm8.545,4.938-2.091-2.1a1.266,1.266,0,0,1-.355-1.669l-3.944-.764.782,3.949a1.106,1.106,0,0,1,1.5-.108l2.4,2.4Z" transform="translate(-93.381 -23.526)" fill="#19538d"/>
          <path id="Trazado_1283665" data-name="Trazado 1283665" d="M152.346,125.732h-7.367a1.036,1.036,0,0,1-1.05-.913,1,1,0,0,1,1.041-1.117h7.388a1,1,0,0,1,1.043.973,1.011,1.011,0,0,1-1.055,1.057" transform="translate(-122.664 -105.427)" fill="#19538d"/>
          <path id="Trazado_1283666" data-name="Trazado 1283666" d="M150.116,153.187h-5.174a1.025,1.025,0,0,1-.089-2.048l5.233-.011a1.053,1.053,0,0,1,1.068.911,1.006,1.006,0,0,1-1.037,1.149" transform="translate(-122.637 -128.801)" fill="#19538d"/>
          <path id="Trazado_1283667" data-name="Trazado 1283667" d="M160.905,63.808l-3.915.038a1.062,1.062,0,0,1-1.2-.956,1.043,1.043,0,0,1,1.055-1.092l3.866,0a1.108,1.108,0,0,1,1.032.826.986.986,0,0,1-.836,1.187" transform="translate(-132.772 -52.667)" fill="#19538d"/>
        </g>
      </g>
    </g>
  </g>
</svg>
