<svg xmlns="http://www.w3.org/2000/svg" xmlns:xlink="http://www.w3.org/1999/xlink" width="96" height="96" viewBox="0 0 96 96">
  <defs>
    <clipPath id="clip-path">
      <rect id="Rectángulo_465011" data-name="Rectángulo 465011" width="52" height="46.805" fill="#19538d"/>
    </clipPath>
  </defs>
  <g id="Grupo_1215097" data-name="Grupo 1215097" transform="translate(0 0)">
    <circle id="Elipse_13890" data-name="Elipse 13890" cx="48" cy="48" r="48" transform="translate(0 0)" fill="#5a9ad7"/>
    <path id="Intersección_1" data-name="Intersección 1" d="M0,47.89A47.893,47.893,0,0,1,79.511,11.92L1.1,58.131A48,48,0,0,1,0,47.89Z" transform="translate(0.109 0.108)" fill="#19538d"/>
    <path id="Trazado_1032916" data-name="Trazado 1032916" d="M40,0A40,40,0,1,1,0,40,40,40,0,0,1,40,0Z" transform="translate(8 8)" fill="#e6f3ff"/>
    <g id="Grupo_1188343" data-name="Grupo 1188343" transform="translate(22.001 22)">
      <rect id="Rectángulo_459838" data-name="Rectángulo 459838" width="52" height="52" transform="translate(-0.29 -0.124)" fill="none"/>
      <g id="Grupo_1215100" data-name="Grupo 1215100" transform="translate(-0.29 2.876)">
        <g id="Grupo_1215099" data-name="Grupo 1215099" clip-path="url(#clip-path)">
          <path id="Trazado_1283668" data-name="Trazado 1283668" d="M49.478,46.8l-46.892,0a2.582,2.582,0,0,1-2.576-2.47L0,2.781A2.62,2.62,0,0,1,2.593,0H49.409A2.617,2.617,0,0,1,52,2.781V44.023A2.6,2.6,0,0,1,49.478,46.8m.788-45.054H1.737V6.93H50.266Zm0,6.933H1.737V45.057H50.266Z" transform="translate(0)" fill="#19538d"/>
          <path id="Trazado_1283669" data-name="Trazado 1283669" d="M188.707,102.645l0-5.315-3.783.008a10.091,10.091,0,0,1-1.48,1.8,3.728,3.728,0,0,1-.822,3.1,3.908,3.908,0,0,1-3.027,1.172,4.109,4.109,0,0,1-2.226,1.608,3.512,3.512,0,0,1-3.659,2.691,3.415,3.415,0,0,1-3.2-3.3l-.009-17.524a4.292,4.292,0,0,1,3.941-4.274,4.347,4.347,0,0,1,4.671,3.553,4.31,4.31,0,0,1,4.72,6.287,3.994,3.994,0,0,1,1.392,3.12h4.38a.929.929,0,0,1,.829.873l0,6.184a3.482,3.482,0,1,1-1.737.009M180.914,98.2a2.634,2.634,0,0,0,1.873-.849l-6.215-.027.01-1.741,6.932-.007a3.1,3.1,0,0,0-.74-1.811,4.406,4.406,0,0,1-2.736.934l.017-1.719a2.589,2.589,0,1,0-2.613-2.581l-1.739-.007a4.382,4.382,0,0,1,1.717-3.446,2.562,2.562,0,0,0-2.646-2.614,2.6,2.6,0,0,0-2.527,2.68l.015,17.468a1.725,1.725,0,0,0,3.273.5,3.451,3.451,0,0,1-2.387-3.325l1.7.006a1.748,1.748,0,0,0,1.273,1.654,1.781,1.781,0,0,0,1.843-.623,3.427,3.427,0,0,1-1.374-2.768l1.732,0a1.724,1.724,0,1,0,3.449-.034l-.872.009Zm10.393,7.789a1.731,1.731,0,1,0-1.731,1.731,1.731,1.731,0,0,0,1.731-1.731" transform="translate(-143.644 -69.588)" fill="#19538d"/>
          <path id="Trazado_1283670" data-name="Trazado 1283670" d="M32.123,86.456a4.109,4.109,0,0,1-2.236-1.61A4.343,4.343,0,0,1,26.93,83.78c-.991-.863-.737-2.139-1.055-3.168-.623-1.1-1.7-1.915-1.646-3.322a4.275,4.275,0,0,1,1.415-3.43,4.284,4.284,0,0,1,.957-5.34L24.649,64.97a4.662,4.662,0,0,0-1.449-.016,3.378,3.378,0,0,1-3.874,2.475,3.466,3.466,0,1,1,3.922-4.3l2.391.083,2.505,4.463a5.688,5.688,0,0,1,2.226-.092,4.334,4.334,0,0,1,8.6.739l-.009,17.521a3.415,3.415,0,0,1-3.072,3.286,3.468,3.468,0,0,1-3.764-2.669M21.62,64.009A1.719,1.719,0,1,0,19.9,65.728a1.719,1.719,0,0,0,1.719-1.719M28.579,79.6v1.722l-.868-.014a1.726,1.726,0,1,0,3.452.035l1.73,0a3.44,3.44,0,0,1-1.376,2.759,1.745,1.745,0,0,0,1.962.588,1.8,1.8,0,0,0,1.161-1.617l1.716,0A3.529,3.529,0,0,1,33.938,86.4a1.722,1.722,0,0,0,3.284-.653L37.2,68.116a2.555,2.555,0,0,0-2.8-2.361c-1.13.072-2.679,1.345-2.2,2.553.641,1.059,1.761,1.969,1.521,3.518l-1.674-.014a2.553,2.553,0,0,0-3-2.525l1.15,2.106-1.506.848-1.2-2.121a2.5,2.5,0,0,0-.37,2.85,2.649,2.649,0,0,0,2.313,1.437v1.74a4.634,4.634,0,0,1-2.708-.962,2.6,2.6,0,0,0-.54,2.836,2.566,2.566,0,0,0,2.394,1.58" transform="translate(-13.832 -51.009)" fill="#19538d"/>
          <rect id="Rectángulo_465007" data-name="Rectángulo 465007" width="7.809" height="1.752" transform="translate(3.47 39.858)" fill="#19538d"/>
          <rect id="Rectángulo_465008" data-name="Rectángulo 465008" width="5.2" height="1.752" transform="translate(8.67 36.391)" fill="#19538d"/>
          <rect id="Rectángulo_465009" data-name="Rectángulo 465009" width="3.485" height="1.752" transform="translate(12.993 39.858)" fill="#19538d"/>
          <rect id="Rectángulo_465010" data-name="Rectángulo 465010" width="3.466" height="1.752" transform="translate(3.47 36.391)" fill="#19538d"/>
          <path id="Trazado_1283671" data-name="Trazado 1283671" d="M47.492,18.274a1.733,1.733,0,1,1-1.733-1.733,1.733,1.733,0,0,1,1.733,1.733" transform="translate(-37.09 -13.935)" fill="#19538d"/>
          <path id="Trazado_1283672" data-name="Trazado 1283672" d="M20,18.26a1.731,1.731,0,1,1-1.731-1.731A1.731,1.731,0,0,1,20,18.26" transform="translate(-13.931 -13.925)" fill="#19538d"/>
          <path id="Trazado_1283673" data-name="Trazado 1283673" d="M75,18.26a1.731,1.731,0,1,1-1.731-1.731A1.731,1.731,0,0,1,75,18.26" transform="translate(-60.265 -13.925)" fill="#19538d"/>
        </g>
      </g>
    </g>
  </g>
</svg>
