<svg xmlns="http://www.w3.org/2000/svg" xmlns:xlink="http://www.w3.org/1999/xlink" width="150" height="150" viewBox="0 0 150 150">
  <defs>
    <clipPath id="clip-path">
      <rect id="Rectángulo_464260" data-name="Rectángulo 464260" width="74.374" height="67.078" fill="#19538d"/>
    </clipPath>
  </defs>
  <g id="Grupo_1215105" data-name="Grupo 1215105" transform="translate(-185.738 -9253.601)">
    <g id="Grupo_1188415" data-name="Grupo 1188415" transform="translate(185.738 9253.602)">
      <circle id="Elipse_13890" data-name="Elipse 13890" cx="75" cy="75" r="75" transform="translate(150 150) rotate(180)" fill="#7dbfff"/>
      <path id="Intersección_3" data-name="Intersección 3" d="M0,70.769,123.344,0a74.749,74.749,0,0,1-73.06,90.233A74.419,74.419,0,0,1,0,70.769Z" transform="translate(24.681 59.414)" fill="#19538d"/>
      <circle id="Elipse_13891" data-name="Elipse 13891" cx="62.637" cy="62.637" r="62.637" transform="translate(137.638 137.609) rotate(180)" fill="#dfefff"/>
      <path id="Intersección_2" data-name="Intersección 2" d="M0,62.677a62.641,62.641,0,0,1,124.648-8.925L24.091,112.08A62.59,62.59,0,0,1,0,62.677Z" transform="translate(12.364 12.333)" fill="#fff"/>
      <g id="Grupo_1188343" data-name="Grupo 1188343" transform="translate(35.959 35.932)">
        <rect id="Rectángulo_459838" data-name="Rectángulo 459838" width="78.078" height="78.078" transform="translate(4.041 0.068)" fill="none"/>
        <g id="Grupo_1215106" data-name="Grupo 1215106" transform="translate(6.041 6.068)">
          <g id="Grupo_1214227" data-name="Grupo 1214227" clip-path="url(#clip-path)">
            <path id="Trazado_1282068" data-name="Trazado 1282068" d="M68.845,67.078l-63.2-.024A5.912,5.912,0,0,1,0,61.072L.01,5.752C.01,2.9,2.458,0,5.424,0H68.946c3.1,0,5.428,3.012,5.428,5.944V61.06a6.008,6.008,0,0,1-5.529,6.018M71.983,14.3l0-8.377a3.607,3.607,0,0,0-3.064-3.553H5.446A3.574,3.574,0,0,0,2.391,5.928l.014,8.378Zm-3.161,50.38a3.611,3.611,0,0,0,3.16-3.623l0-44.361H2.387l0,44.363a3.6,3.6,0,0,0,3.267,3.621Z" transform="translate(0)" fill="#19538d"/>
            <path id="Trazado_1282069" data-name="Trazado 1282069" d="M67.573,238.372a6.364,6.364,0,0,1-4.64,2.39,5.9,5.9,0,0,1-4.957-2.385l-21.758-.011a3.576,3.576,0,0,1-3.479-3.51,3.49,3.49,0,0,1,3.247-3.624l21.959-.016a5.94,5.94,0,0,1,9.56,0l22.166.037c1.87,0,3.078,2.069,3.037,3.6a3.573,3.573,0,0,1-3.48,3.52Zm-1.259-3.594a3.591,3.591,0,1,0-3.591,3.591,3.591,3.591,0,0,0,3.591-3.591m-9.511,1.25.018-2.4-20.8.006c-.619,0-.987.957-.878,1.392a1.486,1.486,0,0,0,1.157,1.005Zm32.41-.006c.87,0,1.23-1.1,1.058-1.565a1.45,1.45,0,0,0-1.494-.838l-20.154.013.011,2.4Z" transform="translate(-25.537 -178.475)" fill="#19538d"/>
            <path id="Trazado_1282070" data-name="Trazado 1282070" d="M205.7,102.528A15.589,15.589,0,1,1,190.11,86.939,15.589,15.589,0,0,1,205.7,102.528m-2.4,0a13.186,13.186,0,1,0-13.186,13.186A13.186,13.186,0,0,0,203.3,102.526" transform="translate(-136.134 -67.816)" fill="#19538d"/>
            <path id="Trazado_1282071" data-name="Trazado 1282071" d="M53.029,102.527A15.589,15.589,0,1,1,37.439,86.938a15.589,15.589,0,0,1,15.589,15.589m-2.409,0a13.186,13.186,0,1,0-13.186,13.186,13.186,13.186,0,0,0,13.186-13.186" transform="translate(-17.044 -67.815)" fill="#19538d"/>
            <path id="Trazado_1282072" data-name="Trazado 1282072" d="M167.376,28.934l-22.331.014a3.5,3.5,0,0,1-3.246-3.466c-.054-1.557,1.172-3.6,3.021-3.6l22.656,0c1.837,0,3.048,1.88,3.087,3.412.041,1.6-1.16,3.642-3.187,3.644m-.562-2.347a1.2,1.2,0,0,0,1.351-1.3c-.065-.888-.692-1.053-1.574-1.052l-21.529.019c-.5,0-.943.852-.891,1.229s.583,1.091,1.1,1.091Z" transform="translate(-110.608 -17.066)" fill="#19538d"/>
            <path id="Trazado_1282073" data-name="Trazado 1282073" d="M291.646,27.862,289.971,29.6l-1.27-1.2a3.6,3.6,0,1,1,.536-6.229,3.512,3.512,0,0,1,1.18,4.454Zm-3.268-2.736a1.191,1.191,0,1,0-1.191,1.191,1.191,1.191,0,0,0,1.191-1.191" transform="translate(-221.215 -16.803)" fill="#19538d"/>
            <path id="Trazado_1282074" data-name="Trazado 1282074" d="M29.01,25.1a3.6,3.6,0,1,1-3.6-3.6,3.6,3.6,0,0,1,3.6,3.6m-2.4-.006a1.192,1.192,0,1,0-1.192,1.192A1.192,1.192,0,0,0,26.612,25.1" transform="translate(-17.02 -16.775)" fill="#19538d"/>
            <path id="Trazado_1282075" data-name="Trazado 1282075" d="M67.127,25.115a3.594,3.594,0,1,1-3.594-3.594,3.594,3.594,0,0,1,3.594,3.594m-2.374-.007A1.193,1.193,0,1,0,63.559,26.3a1.193,1.193,0,0,0,1.193-1.193" transform="translate(-46.755 -16.787)" fill="#19538d"/>
            <path id="Trazado_1282076" data-name="Trazado 1282076" d="M105.348,25.122a3.59,3.59,0,1,1-3.59-3.59,3.59,3.59,0,0,1,3.59,3.59m-2.388-.009a1.2,1.2,0,1,0-1.2,1.2,1.195,1.195,0,0,0,1.2-1.2" transform="translate(-76.575 -16.796)" fill="#19538d"/>
            <path id="Trazado_1282077" data-name="Trazado 1282077" d="M224.678,170.468a4.81,4.81,0,0,0-9.62-.027l-2.409.023a7.208,7.208,0,0,1,14.416-.011Z" transform="translate(-165.875 -127.377)" fill="#19538d"/>
            <rect id="Rectángulo_464259" data-name="Rectángulo 464259" width="2.47" height="6.052" transform="matrix(0.601, -0.799, 0.799, 0.601, 46.015, 28.489)" fill="#19538d"/>
            <path id="Trazado_1282078" data-name="Trazado 1282078" d="M254.508,126.285l-1.462-1.919,4.813-3.594,1.429,1.912Z" transform="translate(-197.387 -94.207)" fill="#19538d"/>
            <path id="Trazado_1282079" data-name="Trazado 1282079" d="M74.29,165.031a7.255,7.255,0,1,1-14.46-.124c.04-.663.2-1.66,1.11-1.66l12.377.005c.77,0,.946,1.058.973,1.778m-2.45.6-9.605,0a4.849,4.849,0,0,0,4.9,4.8,4.782,4.782,0,0,0,4.708-4.8" transform="translate(-46.659 -127.34)" fill="#19538d"/>
            <path id="Trazado_1282080" data-name="Trazado 1282080" d="M59.535,123.235c-.415-.575-.859-1.171-1.327-1.154-.684.025-1.075.437-1.294,1.17l-2.362.014a3.6,3.6,0,0,1,7.205.011Z" transform="translate(-42.553 -93.373)" fill="#19538d"/>
            <path id="Trazado_1282081" data-name="Trazado 1282081" d="M103.061,123.279c-.263-.729-.639-1.145-1.137-1.173-.7-.04-1.161.331-1.336,1.151l-2.383.007a3.59,3.59,0,0,1,7.18-.017Z" transform="translate(-76.604 -93.378)" fill="#19538d"/>
          </g>
        </g>
      </g>
    </g>
  </g>
</svg>
